<svg id="Layer_1" data-name="Layer 1" xmlns="http://www.w3.org/2000/svg" xmlns:xlink="http://www.w3.org/1999/xlink" viewBox="0 0 382.83 107.43"><defs><style>.cls-1{fill:url(#linear-gradient);}.cls-2{fill:url(#linear-gradient-2);}</style><linearGradient id="linear-gradient" x1="195.9" y1="128.62" x2="320.79" y2="-169.96" gradientUnits="userSpaceOnUse"><stop offset="0" stop-color="#c5e6df"/><stop offset="0.54" stop-color="#d2ece6"/></linearGradient><linearGradient id="linear-gradient-2" x1="175.62" y1="-5.66" x2="-78.38" y2="349.15" gradientUnits="userSpaceOnUse"><stop offset="0.08" stop-color="#b3dfd5"/><stop offset="0.49" stop-color="#b0ddd4"/></linearGradient></defs><path class="cls-1" d="M381,54.44C379.76,22.59,284.71,12,249.62,6,141-12.53,44.34,47.52,76.86,74.86c7.33,6.16,21.89,5,34,7.14,22.38,3.9,125.37,3.3,178,0C299.28,81.34,381.69,70.91,381,54.44Z"/><path class="cls-2" d="M3.89,69.9c2.89-7.48,74.29-40.45,146.74-27.76,75.2,19.19,106.38,57.12,33.93,61.45S52.5,100.34,35.07,98.17-5.28,93.63,3.89,69.9Z"/></svg>