<svg id="Layer_1" data-name="Layer 1" xmlns="http://www.w3.org/2000/svg" xmlns:xlink="http://www.w3.org/1999/xlink" viewBox="0 0 1600 225"><defs><style>.cls-1{fill:none;}.cls-2{clip-path:url(#clip-path);}.cls-3{fill:#89d3c6;}</style><clipPath id="clip-path"><rect class="cls-1" width="1600" height="225"/></clipPath></defs><g class="cls-2"><path class="cls-3" d="M-20,140.8s155.52-58,223.56-63.36c35.7-2.83,72.5,27.6,98.53,41.25a19.82,19.82,0,0,0,19.63-.65c15.13-9.33,54.68-28.78,71.92-32,41-7.56,181.44,43.2,241.92,43.2s137.16-32.4,163.08-32.4,123.48,32.4,143.64,32.4,125.28-46.08,159.84-51.84S1226,91.84,1260.52,89s108.35-58.85,148.32-62.28c63-5.4,71.28,24.84,217.44,53.64V250.24H-20Z"/></g></svg>