<svg id="Layer_1" data-name="Layer 1" xmlns="http://www.w3.org/2000/svg" viewBox="0 0 119.37 163.7"><defs><style>.cls-1{fill:#4bc3c6;}.cls-2{opacity:0.2;}.cls-3{fill:#ff440b;}.cls-4{fill:#eadfc7;}.cls-5{fill:#ff603b;}.cls-6{fill:#8c7c72;}.cls-7{fill:#fff3d4;}.cls-8{fill:#6d615a;}.cls-9{fill:#fff;opacity:0.35;}.cls-10{fill:#e0340b;}.cls-11{fill:#eadfc5;}.cls-12{fill:#dbc8af;}.cls-13{fill:#e55438;}</style></defs><path class="cls-1" d="M117.72,50.86a3.67,3.67,0,0,0,0-.52c-.08-12.5-4.34-24.88-14.11-33.39-17.18-15-44-14.68-44-14.68v0l-.1,0h0c-.07,0-26.84-.16-43.94,14.85C1.05,29.87-1.2,51.21,4.44,68.69c6,18.5,36.6,53.57,41.75,59.39v.84l7.26,9.31-.23,1.57h0l-.93,6.39v7.47c0,.36,0,.76.06,1.18v5a1.7,1.7,0,0,0,.55,1.23l.17.14.12.07a1.68,1.68,0,0,0,.39.16l.29,0,.09,0H66.41l.08,0,.31,0a2,2,0,0,0,.34-.14l.17-.1.16-.14a1.63,1.63,0,0,0,.27-.31l0,0a1.89,1.89,0,0,0,.18-.41s0,0,0-.06v0a1.67,1.67,0,0,0,.06-.39V146.19h0l-1.63-7.85,7.11-9.42-1.23,0-6.83,9.39-11-.1h0l-7-9.31h26v-.85h-.07c1.4-1.59,4.78-5.46,9.05-10.63,11.06-13.33,28.83-36.1,33.19-49.78a50.86,50.86,0,0,0,1.58-9.23A58.11,58.11,0,0,0,117.72,50.86ZM65.66,139.8l1.28,6.39H53.32l.88-6.39Z"/><g class="cls-2"><path class="cls-3" d="M60.12,128.91l12.59,0S108.55,88.68,115,68.42c5.58-17.51,3.25-38.85-11.34-51.56-17.19-15-44-14.7-44-14.7Z"/><path class="cls-4" d="M59.64,2.16s21.91,1,34.83,13.56c13.67,13.29,13.39,22.12,13,34.54-1,32.83-36.65,78.61-36.65,78.61l-10.73,0Z"/><path class="cls-5" d="M59.64,2.16a49.38,49.38,0,0,1,22,12c11.2,10.48,13.25,28.52,11,44.31-2.88,20.31-24.61,70.38-24.61,70.38l-7.93,0Z"/><polygon class="cls-6" points="73.48 128.91 66.37 138.33 68.02 146.29 66.99 146.31 65.4 138.35 72.26 128.93 73.48 128.91"/><path class="cls-3" d="M59.54,128.91H47s-36-40-42.52-60.28C-1.22,51.14,1,29.79,15.58,17c17.13-15,44-14.86,44-14.86Z"/><path class="cls-4" d="M59.54,2.16S37.64,3.24,24.77,15.85C11.15,29.2,11.46,38,11.86,50.44c1.08,32.82,37,78.47,37,78.47H59.54Z"/><path class="cls-5" d="M59.54,2.16a49.35,49.35,0,0,0-22,12.12C26.42,24.8,24.44,42.85,26.74,58.62c3,20.31,24.88,70.29,24.88,70.29h7.92Z"/><path class="cls-7" d="M71.3,15.79A30.92,30.92,0,0,0,59.54,2.16h0A30.9,30.9,0,0,0,47.86,15.85c-3.48,8.46-5.26,20.84-3.46,41.34s12.13,71.72,12.13,71.72l6.69,0S73.28,77.62,75,57.11,74.82,24.23,71.3,15.79Z"/><rect class="cls-6" x="46.21" y="128.06" width="27.27" height="0.85"/><path class="cls-6" d="M60.18,161.54h0c-2.45,0-4.77.13-6.22-1.61-1.12-1.36-1.65-4.36-1.65-6.26v-7.48H68.05v7.48c0,2.22-.08,5-1.57,6.45S62.3,161.54,60.18,161.54Z"/><path class="cls-8" d="M66.44,146.19v12.46a1.67,1.67,0,0,1-1.67,1.67l-12.33-.15c0-.1,0,.13,0,.13A1.62,1.62,0,0,0,54,161.54h12.4a1.67,1.67,0,0,0,1.67-1.67V146.19Z"/><path class="cls-8" d="M54,146.19v12.46a1.67,1.67,0,0,0,1.67,1.67L68,160.11v.17a1.63,1.63,0,0,1-1.55,1.26H54a1.67,1.67,0,0,1-1.67-1.67V146.19Z"/><polygon class="cls-6" points="46.21 128.91 53.47 138.22 52.31 146.19 53.34 146.19 54.44 138.22 47.44 128.91 46.21 128.91"/><polygon class="cls-6" points="53.47 138.22 66.37 138.33 66.67 139.79 53.24 139.79 53.47 138.22"/><path class="cls-9" d="M49.2,45.26a7.71,7.71,0,0,0,1.3,3.41,2.89,2.89,0,0,0,3.27,1c1.27-.57,1.66-2.16,1.83-3.53,1.24-9.89-.52-20.39,3.45-29.53.86-2,2-4.18,1.16-6.17-1.32-3.12-4.69-2.17-6.06,0-2,3.14-3.16,7.17-4.1,10.73A54.32,54.32,0,0,0,49.2,45.26Z"/><path class="cls-9" d="M31,40.47c.08,1.24.37,2.68,1.5,3.21a2.4,2.4,0,0,0,2.55-.55,5.4,5.4,0,0,0,1.34-2.39c2-6.15-.13-13.3,2.88-19,2-3.72,6.31-6.26,7.53-10.35-4.7-2.43-10,7.25-11.74,10.48A35.22,35.22,0,0,0,31,40.47Z"/><path class="cls-9" d="M16.19,33.9c-1,2.57-1.78,5.56-.5,8a2.46,2.46,0,0,0,1.21,1.23c1.22.47,2.47-.68,3.06-1.84,1.2-2.34,1.28-5.06,1.71-7.66a28.09,28.09,0,0,1,7.42-14.79c1.72-1.79,3.75-3.45,4.55-5.8.13-.39-2.56,0-2.86.11-.7.38-1.07,1.17-1.61,1.72-1.8,1.87-3.64,3.64-5.26,5.67A51.48,51.48,0,0,0,16.19,33.9Z"/><path class="cls-9" d="M6.39,36.5c-.62,2-1.1,4.2-.23,6.09a1.82,1.82,0,0,0,.83,1c1,.46,2-.72,2.41-1.78,1-2.7,1-5.67,1.57-8.49,1.26-6,5.16-11.13,9-16,.22-.28-2.06,0-2.32.2-.53.32-1,1.22-1.36,1.68-1.41,1.71-2.81,3.39-4.05,5.24A47.68,47.68,0,0,0,6.39,36.5Z"/><path class="cls-10" d="M115.69,67.6c1.76-5.51,2.21-18.25,2.08-17.28a31.21,31.21,0,0,1-1.76,7.9,114.51,114.51,0,0,1-14.79,30.25,112.83,112.83,0,0,1-12.32,15c-5.34,5.46-11.22,10.37-16.6,15.78-2.41,2.41-4.88,5.53-4.44,8.81l5.53,0S109.23,87.86,115.69,67.6Z"/><path class="cls-11" d="M60.9,128.05h2.54S73.5,76.76,75.2,56.26c.36-4.44.56-8.5.62-12.22-1.75,2.89-1.6,8.47-2.12,11.51-.82,4.8-1.72,9.58-2.81,14.33-1.36,5.84-3,11.62-4.2,17.5-.92,4.58-1.55,9.2-2.17,13.82Q62.71,114.63,60.9,128.05Z"/><path class="cls-12" d="M71.43,128.05s34.92-46,36.16-78.78c-.43.23-3,9-3.85,12.06-1.27,4.53-3.61,7.76-5.24,12.17-4,10.82-7.66,16.21-15.87,30.13-4.55,7.73-11.66,15.11-14,23.77,0,.21-.1.44-.14.66Z"/><path class="cls-13" d="M68.39,128.05S90.12,78,93,57.67a80,80,0,0,0,.36-13.78c-1.19,1.66-1,6.71-1.33,8.17q-1.95,9.24-4.5,18.35a294.89,294.89,0,0,1-12.68,36.11q-4.29,10.08-9.32,19.8a8.05,8.05,0,0,0-.67,1.74Z"/></g></svg>