<svg xmlns="http://www.w3.org/2000/svg" viewBox="0 0 320.01 446.59"><defs><style>.cls-1{isolation:isolate;}.cls-2{fill:#4a2a15;}.cls-3{fill:#342516;}.cls-25,.cls-4,.cls-45,.cls-7{fill:#fad2c6;}.cls-31,.cls-4{stroke:#5f4a43;}.cls-10,.cls-16,.cls-23,.cls-25,.cls-26,.cls-27,.cls-30,.cls-31,.cls-4,.cls-42,.cls-49,.cls-7,.cls-8{stroke-miterlimit:10;}.cls-10,.cls-16,.cls-23,.cls-26,.cls-27,.cls-30,.cls-31,.cls-4,.cls-42,.cls-7,.cls-8{stroke-width:0.25px;}.cls-5{fill:#e7b4a7;}.cls-6{fill:#d6a398;}.cls-10,.cls-23,.cls-25,.cls-26,.cls-27,.cls-30,.cls-7,.cls-8{stroke:#323232;}.cls-8{fill:#fac7b3;}.cls-9{fill:#424036;}.cls-10{fill:#f6fbfd;}.cls-11{fill:#602220;}.cls-12{fill:#451f16;}.cls-13,.cls-42{fill:#fff;}.cls-14{fill:#561211;}.cls-15{fill:#d26653;}.cls-16{fill:#311415;stroke:#211e1f;}.cls-17{fill:#90856e;}.cls-18{fill:#605e44;}.cls-19,.cls-22{fill:#9e9580;opacity:0.5;}.cls-19,.cls-21{mix-blend-mode:multiply;}.cls-20,.cls-21{fill:#676254;}.cls-21{opacity:0.4;}.cls-22{mix-blend-mode:screen;}.cls-23{fill:#facc35;}.cls-24{fill:#be9030;}.cls-25,.cls-49{stroke-width:0.75px;}.cls-26{fill:#fcde7d;}.cls-27{fill:#e0604f;}.cls-28{fill:#f5927d;}.cls-29{fill:#c28974;}.cls-30,.cls-31,.cls-49{fill:none;}.cls-32{fill:#fab51b;}.cls-33{fill:#f17125;}.cls-34{fill:#80351b;}.cls-35{fill:#75451c;}.cls-36{fill:#a66638;}.cls-37{fill:#925b24;}.cls-38{fill:#e69847;}.cls-39{fill:#5f2710;}.cls-40{fill:#3d2d16;}.cls-41{fill:#dc9e8f;}.cls-42{stroke:#3d2d16;}.cls-43{fill:#fff7f4;}.cls-44{fill:#411e16;}.cls-46{fill:#632323;}.cls-47{fill:#323232;}.cls-48{fill:#e8d860;}.cls-49{stroke:#ef4b3b;}.cls-50{fill:#ef4b3b;}.cls-51{fill:#f49990;}.cls-52{fill:#e13e26;}.cls-53{fill:#fddf0e;}.cls-54{fill:#281b17;}.cls-55{fill:#473a3a;}.cls-56{fill:#5e5454;}</style></defs><g class="cls-1"><g id="Layer_1" data-name="Layer 1"><polygon class="cls-2" points="191.73 325.87 198.25 397.89 199.39 397.88 192.84 325.87 191.73 325.87"/><polygon class="cls-2" points="135.81 325.8 129.06 397.89 127.92 397.88 134.7 325.8 135.81 325.8"/><path class="cls-3" d="M169.67,354.82c-.1.41-3.83,4.46-2.06,10.18s-2.32,9.84,3.4,11.59a19.46,19.46,0,0,0,10.81.05h2.6s8.42-.12,11-3.72-.41-6.15-.72-13.53-15.85-17.69-25.88-4.81Z"/><path class="cls-4" d="M176.41,385.81l-.06.43c-.09.63-.22,1.39-.38,2.21-.7,3.66-1.9,8.62-2.41,9.34-.66.92-2.76.42-2.76.42A17.9,17.9,0,0,1,172,387.92a6.89,6.89,0,0,0,.38-2.36c.09-.54.15-.85.15-.85S176.82,382.61,176.41,385.81Z"/><path class="cls-5" d="M176.35,386.24c-.09.63-.35,1.39-.5,2.22h0a13,13,0,0,1-1.65,0,12.49,12.49,0,0,1-2.17-.45c.14-1,.17-1.86.27-2.42a10,10,0,0,1,1.64,0,5.24,5.24,0,0,1,1.58.27A3.6,3.6,0,0,1,176.35,386.24Z"/><path class="cls-4" d="M156.09,397.64l-.63-3.13,2.47-7.24-1.11-.55-2.93-1.44,1.75-4.67a9.2,9.2,0,0,1,3,1.29c2.24,1.29,4.45,3,4.38,5C162.84,391,156.09,397.64,156.09,397.64Z"/><path class="cls-6" d="M158.55,382a31.22,31.22,0,0,1-1.73,4.58l-2.93-1.45,1.75-4.66A13,13,0,0,1,158.55,382Z"/><path class="cls-7" d="M150.8,379.06s-1.3,1.27-1.5,1.14-7.22-1.22-6.3-2.29l.22-.29a1.94,1.94,0,0,0,.24-1.85s6.63-1.27,6.16,0a2.4,2.4,0,0,0,.08,1.92,2,2,0,0,0,.17.3Z"/><path class="cls-5" d="M149.61,377.72a5.43,5.43,0,0,1-2.93.65,8.57,8.57,0,0,1-3.37-.75,1.92,1.92,0,0,0,.25-1.85s6.43-1.23,5.95,0A2.42,2.42,0,0,0,149.61,377.72Z"/><path class="cls-8" d="M132.09,367.23c.57,1.65,1.84,2.62,2.65,2.41s.75-1.6.34-3.19-1.38-2.72-2.19-2.5C131.79,364.25,131.57,365.68,132.09,367.23Z"/><path class="cls-9" d="M145.33,351.18a37.11,37.11,0,0,0-9.67,1.11,9.38,9.38,0,0,0-2.48,1.16c-1.68,1-7.47,5.22-7.92,6.59,0,.07,0-.06,0,0,.54.86,7.78,1.76,15.12,2.24,2.59.17,5.71-1.13,8.77-.9,2.09.16,4.09.26,5.92.31,8.64.2,13.84-2.15,13.94-2.58.15-.66-4.8-2.78-8-4.8s-8.34-2.61-14.06-3.05C146.4,351.22,145.87,351.19,145.33,351.18Z"/><path class="cls-7" d="M162.14,366.54c-.41,1.69-1.69,2.77-2.6,2.62s-1-1.54-.77-3.17,1.19-2.82,2.1-2.67C162.11,363.54,162.53,365,162.14,366.54Z"/><path class="cls-7" d="M159.27,368.27c-.37,6.23-9.22,9.24-11.69,9.3-3.6.08-13.36-3.15-12.94-12.88,0-.1,0-.21,0-.31h0c.13-4.63-1.56-8.85-1.11-10.64,1.54-6.21,2.66-3.79,10-4.49,6.87-.65,9.8-.67,14,2.86.37.31,1.61.67,1.63,1.78,0,1.9.08,3.33.12,4.47A73.15,73.15,0,0,1,159.27,368.27Z"/><path class="cls-5" d="M159.32,358.36a16,16,0,0,0-7.79-3.65,14.76,14.76,0,0,1-11.31,2.42,18.45,18.45,0,0,0,3-2.55,5.74,5.74,0,0,1-2.69.68,13.71,13.71,0,0,1-3.38,4.72,6.44,6.44,0,0,0-1.5,1.3,4.05,4.05,0,0,0-.46,1c-.14.42-.26.83-.36,1.26-.06.25-.08.56-.14.85.13-4.63-1.56-8.85-1.11-10.64,1.54-6.21,2.66-3.79,10-4.49,6.87-.65,9.8-.67,14,2.86.37.31,1.61.67,1.63,1.78C159.23,355.79,159.28,357.22,159.32,358.36Z"/><path class="cls-10" d="M139,364a2.87,2.87,0,0,0,2.93,2.72,2.77,2.77,0,0,0,3-2.61,2.87,2.87,0,0,0-2.94-2.72A2.76,2.76,0,0,0,139,364Z"/><path class="cls-11" d="M140.21,366.22a2.71,2.71,0,0,1-1.14-2.21,2.64,2.64,0,0,1,2.78-2.56,3.35,3.35,0,0,1,2.63,1.36,3.24,3.24,0,0,0-3.27-1.63,2.66,2.66,0,0,0-2.39,2.33A2.76,2.76,0,0,0,140.21,366.22Z"/><path class="cls-12" d="M140.33,363.6a1.7,1.7,0,0,0,1.11,2.09,1.64,1.64,0,0,0,2-1.17,1.67,1.67,0,0,0-1.11-2.08A1.62,1.62,0,0,0,140.33,363.6Z"/><path class="cls-13" d="M142,363a.41.41,0,0,0,.28.51.42.42,0,0,0,.23-.8A.41.41,0,0,0,142,363Z"/><path class="cls-14" d="M142.75,372.19a7.53,7.53,0,0,0,4.37,2.08c3.68,0,6.84-5.06,6.11-4.91a15,15,0,0,1-4.12.61,23.52,23.52,0,0,1-2.39.08C143.47,369.91,138.81,367.51,142.75,372.19Z"/><path class="cls-15" d="M147.16,374.08a3.77,3.77,0,0,1-2-.62,2.46,2.46,0,0,1,1.58-1,3.07,3.07,0,0,1,2.84.83A3.77,3.77,0,0,1,147.16,374.08Z"/><path class="cls-13" d="M142.6,369.72a16.38,16.38,0,0,0,9.5.13,6.2,6.2,0,0,1-4.68,2A6,6,0,0,1,142.6,369.72Z"/><path class="cls-14" d="M143.79,359.46l-.28-.3a2.48,2.48,0,0,0-2.25-.78,4.76,4.76,0,0,0-3,1.93c-.1.15-.18.21,0,.1C139.29,359.67,142,358.68,143.79,359.46Z"/><path class="cls-14" d="M150.52,359.46l.25-.31a2.11,2.11,0,0,1,1.93-.87,3.51,3.51,0,0,1,2.45,1.77c.08.15.14.2,0,.1C154.31,359.47,152.1,358.61,150.52,359.46Z"/><path class="cls-16" d="M152.35,350.85s-.29,7-10.53,5.63c0,0,10.51-5.52-.4-5,0,0,2.49,3.06-4.71,2.7,0,0,5.19-.54-1.46,6.21,0,0-.87.46-.61,4.25,0,.25-1.88-.31-2-3,0,0-2.59-2.48.13-6.05,0,0-2.57-5.25,2-6,0,0,.37-4,4.3-4.23,0,0,4-5.77,8.86-1.48,0,0,3.94-3.18,7.45,1.7,0,0,4.54.18,4,3.9,0,0,4.5,2.33,1.85,5.5,0,0,3,2.48.26,6l-2.1,3.7v-.43a19.47,19.47,0,0,0-2.05-8.47l-.13-.26S157,352.91,152.35,350.85Z"/><path class="cls-17" d="M162.28,353c-3.74-2.07-9.17-2.42-15.75-2.6a40.63,40.63,0,0,0-12.42,1.77,10.86,10.86,0,0,0-2.7,1.44c-1.73,1.18-5.72,4.81-6.15,6.41.43-1.05,5.72-5.31,24.14-5,12,.22,17.69,2.45,19.61,4.05C168.57,358,165.66,354.89,162.28,353Z"/><path class="cls-18" d="M169,359.18a0,0,0,0,1-.05,0c-1.07-.88-5.62-3.78-19.57-4-1.62,0-3.21,0-4.71,0-14.57.4-19,4-19.37,4.92a.08.08,0,0,1-.09,0,.1.1,0,0,1,0-.1c.47-1.69,4.58-5.36,6.19-6.45a10.52,10.52,0,0,1,2.72-1.45,41.39,41.39,0,0,1,10.67-1.78h1.77c6.38.17,12,.49,15.79,2.61,3.37,1.87,6.3,4.92,6.76,6.13a.1.1,0,0,1,0,.09Z"/><path class="cls-19" d="M133.41,355.1a11.88,11.88,0,0,1,4.85-3.47,21.82,21.82,0,0,1,2.16-.83,39.34,39.34,0,0,0-6.31,1.39,10.86,10.86,0,0,0-2.7,1.44c-1.73,1.18-5.72,4.81-6.15,6.41.26-.63,2.31-2.45,8-3.71A1.34,1.34,0,0,1,133.41,355.1Z"/><path class="cls-19" d="M155.47,351.24a26,26,0,0,1,4.14,1.87c1,.57,2.18,1.5,2,2.9a1,1,0,0,1,0,.24c4,.84,6.31,1.95,7.4,2.86-.44-1.16-3.35-4.22-6.73-6.09a22.11,22.11,0,0,0-8.47-2.21A13.48,13.48,0,0,1,155.47,351.24Z"/><path class="cls-17" d="M131.73,352.74s-.58-6.07,6.51-10.42c7.69-4.69,16.26-1.13,18.78.75a14.23,14.23,0,0,1,5.26,9.27s-10-1.83-14.67-1.79S134.5,351.32,131.73,352.74Z"/><path class="cls-18" d="M146.52,350.49l1.09,0c4.41,0,13.55,1.58,14.59,1.77a14.15,14.15,0,0,0-5.22-9.11,19.08,19.08,0,0,0-10.8-3.05,15.85,15.85,0,0,0-7.9,2.31c-6.45,3.94-6.51,9.38-6.49,10.23C134.58,351.27,142.1,350.61,146.52,350.49Z"/><path class="cls-19" d="M158.14,348.66a5.74,5.74,0,0,1-3.77,2c-.47.09-.94.17-1.41.23,4.51.52,9.32,1.41,9.32,1.41a14.36,14.36,0,0,0-4.7-8.82C158.61,345,159.26,347.05,158.14,348.66Z"/><path class="cls-19" d="M141.81,350.12a12.08,12.08,0,0,1-5.06-2,3.68,3.68,0,0,1-1.57-3.38,10.82,10.82,0,0,0-3.45,8c2.27-1.16,8.32-1.86,13-2.1C143.76,350.5,142.78,350.33,141.81,350.12Z"/><path class="cls-20" d="M147.55,349.6c3.8-.05,13.88,1.38,14.88,2.09a6.38,6.38,0,0,1,0,1.5c-.12.24-4.84-1.71-13.94-1.81-12-.12-16.58,2.15-16.89,2.21s-.13-1.38,0-1.6S136.52,349.77,147.55,349.6Z"/><path class="cls-9" d="M162.41,353.29a6.72,6.72,0,0,1-1-.21,52.57,52.57,0,0,0-12.89-1.62c-1.1,0-2.18,0-3.22,0-3.87.1-9.35.55-13.42,2.09l-.24.09h0a.18.18,0,0,1-.16-.11,2.94,2.94,0,0,1,.14-1.61c.14-.21,4.78-2.25,16-2.42,3.72-.06,13.9,1.37,14.92,2.09l0,0v0a5.57,5.57,0,0,1,0,1.54A.12.12,0,0,1,162.41,353.29Z"/><path class="cls-21" d="M162.43,351.69c-.56-.4-4.05-1-7.65-1.5a3.44,3.44,0,0,0,.38.11c3.48.88,1,1.15-1.72.82a52.91,52.91,0,0,0-9.63-.33c-4.13.2-5.41-.61-2.09-.86a5.86,5.86,0,0,0,.66-.09c-7.35.58-10.6,2-10.72,2.15s-.33,1.66,0,1.6,4.91-2.33,16.89-2.21c9.1.1,13.82,2.05,13.94,1.81A6.38,6.38,0,0,0,162.43,351.69Z"/><path class="cls-22" d="M135.18,355.35s7.57-2,24.81,0C160,355.33,146.45,352.34,135.18,355.35Z"/><path class="cls-10" d="M155.58,364.44a2.84,2.84,0,0,1-3.26,2.28,2.75,2.75,0,0,1-2.55-3,2.86,2.86,0,0,1,3.27-2.29A2.76,2.76,0,0,1,155.58,364.44Z"/><path class="cls-11" d="M154,366.45a2.72,2.72,0,0,0,1.44-2,2.64,2.64,0,0,0-2.38-2.91,3.29,3.29,0,0,0-2.79,1,3.23,3.23,0,0,1,3.45-1.17,2.64,2.64,0,0,1,2,2.64A2.75,2.75,0,0,1,154,366.45Z"/><path class="cls-12" d="M154.29,363.84a1.68,1.68,0,0,1-1.38,1.91,1.62,1.62,0,0,1-1.83-1.43,1.68,1.68,0,0,1,1.38-1.91A1.63,1.63,0,0,1,154.29,363.84Z"/><path class="cls-13" d="M152.76,363.06a.4.4,0,1,1-.46-.36A.41.41,0,0,1,152.76,363.06Z"/><path class="cls-4" d="M140.33,377.84l-2.42,3.56a16.09,16.09,0,0,1-4.65-2c-3.22-2-5.74-4.9-9-7.1-.51-.34-1-.67-1.57-1s2-3.47,2.43-3.21c.57.36,1.14.7,1.71,1,2.48,1.45,5,2.72,7.14,3.95a24.93,24.93,0,0,1,5.74,4l.06.06C140,377.38,140.15,377.61,140.33,377.84Z"/><path class="cls-4" d="M126.8,369.12c.16-.78.21-3.24.44-6.18,0-.46-.95-.13-1.24.44-.62,1.22-.43,1.69-.8,2.29s-.89.39-1.39,0c-1.82-2.79-2.57-4.59-3.57-4.48-.81.22.19,2.31,1.42,4.62-2.18-1.82-4.08-3.1-4.46-2.47s1.39,2.37,2.94,4c-2.15-.26-4.31-1.14-4.44,0-.1.83,4.33,1.89,3.9,2.56-.15.23-.58.29-1.25.39a3.94,3.94,0,0,0-1.78.52c-.34.33,0,.68.69.81,1.12.21,3.66.61,4.94.71a3.88,3.88,0,0,0,2,0"/><path class="cls-4" d="M124.85,366c-.12,0-1.83.35-1.32,2.67"/><path class="cls-6" d="M140.33,378.29l-2.42,3.56c-1.76-.46-3.38-1.78-4.76-2.65a15.12,15.12,0,0,1,1.16-5.63,22.25,22.25,0,0,1,5.37,4,.92.92,0,0,1-.32.18l.38-.12C140,377.82,140.15,378.05,140.33,378.29Z"/><path class="cls-23" d="M135.54,373.34h0a19.31,19.31,0,0,0-1.63,7.75h0l4.83,2.42-1,15.45a13.31,13.31,0,0,0,10.41,2.36c6.07-1.2,7.36-2.36,7.36-2.36s-1.55-10.21-1.65-12.06c0-.69,1.6.55,1.75-.32l2.29-5.76-7.4-2.7a.2.2,0,0,0-.24.08c-.29.39-1.34,1.53-3.88,1.25-3.07-.33-3.54-2.07-3.54-2.07Z"/><path class="cls-24" d="M138.67,386.57s4.14,3.12,15.14,1.3l.22,1.74s-8.7,2.63-15.5-1.17Z"/><path class="cls-24" d="M138.4,390.48s5.07,2.93,16.07,1.11l.26,1.86s-9.66,2.74-16.46-1.06Z"/><path class="cls-4" d="M154.72,392.78c0-.31,1.29,1.7,1.58,3.67a2.6,2.6,0,0,1-3.13,2.9c-1.49-.24-.27-1,0-1.07,0,0,0,0,0,0-.29,0-2-.11-.4-1.36,0,0,0,0,0,0-.36,0-2-.23-1-1.38a1,1,0,0,1,.41-.14C155.64,395,154.74,394.16,154.72,392.78Z"/><path class="cls-25" d="M180.62,379.06c-.19.13-1.44-1.09-1.44-1.09l.89-1a2.81,2.81,0,0,0,.16-.27,2.37,2.37,0,0,0,.08-1.87c-.45-1.22,5.93,0,5.93,0a1.73,1.73,0,0,0,0,1.29,2.37,2.37,0,0,0,.46.77C187.56,377.89,180.81,378.94,180.62,379.06Z"/><path class="cls-5" d="M186.12,376c-.13,0-.08.11-.18.19a6.35,6.35,0,0,1-4,.87,5.09,5.09,0,0,1-1.65-.39,2.37,2.37,0,0,0,.08-1.87c-.46-1.22,5.8-.13,5.8-.13A1.74,1.74,0,0,0,186.12,376Z"/><path class="cls-4" d="M205,369c-3.24,1.79-5.34,4.58-8.41,6.28a17.14,17.14,0,0,1-3.25,1.76l-1.23-3.26a10.12,10.12,0,0,1,2.47-2.17c2.32-1.54,5.54-3,8.64-4.95C203.54,366.47,205.33,368.83,205,369Z"/><path class="cls-4" d="M202,367.41c-.12-.56-.15-2.36-.32-4.5,0-.34.69-.1.9.32.45.89.32,1.23.59,1.67s.64.28,1,0c1.33-2,1.87-3.35,2.6-3.27s-.13,1.69-1,3.37c1.59-1.33,3-2.26,3.25-1.8s-1,1.72-2.14,2.9c1.57-.19,3.14-.83,3.24,0,.07.6-3.17,1.38-2.85,1.86.11.17.42.21.91.29a2.94,2.94,0,0,1,1.3.38c.25.24,0,.49-.5.59-.82.15-2.67.44-3.6.52a2.75,2.75,0,0,1-1.48,0"/><path class="cls-4" d="M203.42,365.13c.09,0,1.34.25,1,1.95"/><path class="cls-5" d="M195.64,375.65a6.13,6.13,0,0,1-1.94,1l-1.77-2.6a10,10,0,0,1,2.48-2.16A35.2,35.2,0,0,1,195.64,375.65Z"/><path class="cls-26" d="M193,372.29h0a8.29,8.29,0,0,1,1.45,4.38l0,.49-4.8,4.29,1.24,14.47a8.13,8.13,0,0,1-7.29,4.12,11.8,11.8,0,0,1-8.49-3.13s1.26-11,1.35-12.56v-.08a5,5,0,0,0-2.44-4.5h0c-.41-.24-.09-.83.36-1l.24-.16a11.43,11.43,0,0,1,4.84-1.8h0s.77,1.47,3.39,1.19a4,4,0,0,0,3.34-1.95Z"/><path class="cls-27" d="M176.65,384.26c-.09.17,10.27,2.56,13-2.66l4.13,16.76s-9.33,7.61-19-.09Z"/><path class="cls-27" d="M178.42,376.85s.76,6.55,1.14,8.52l-1.14,1.42-.91-1.29a47.29,47.29,0,0,1,.09-8.43Z"/><path class="cls-27" d="M186.92,375.65s-.21,6.78-.33,9.73l1.17.7.64-1.14s.36-6.3-.87-9.63Z"/><path class="cls-26" d="M174.4,378.76c-.63-.31-3.15,7.88-2.73,8A7.23,7.23,0,0,0,174,388a8.08,8.08,0,0,0,2.88,0,14.83,14.83,0,0,0,0-5.88"/><circle class="cls-28" cx="187.23" cy="393.16" r="1.31"/><circle class="cls-28" cx="187.04" cy="388.73" r="1.31"/><circle class="cls-28" cx="190.16" cy="390.92" r="1.31"/><circle class="cls-28" cx="178.42" cy="389.61" r="1.31"/><circle class="cls-28" cx="187.54" cy="397.52" r="1.31"/><circle class="cls-28" cx="182.6" cy="397.74" r="1.31"/><circle class="cls-28" cx="178.1" cy="396.65" r="1.31"/><circle class="cls-28" cx="191.16" cy="393.99" r="1.31"/><circle class="cls-28" cx="180" cy="393.16" r="1.31"/><circle class="cls-28" cx="183.94" cy="393.68" r="1.31"/><circle class="cls-28" cx="182.63" cy="389.61" r="1.31"/><circle class="cls-28" cx="184.77" cy="386.56" r="1.31"/><circle class="cls-28" cx="181.29" cy="386.68" r="1.31"/><ellipse class="cls-28" cx="189.65" cy="386.68" rx="1.1" ry="1.31"/><ellipse class="cls-28" cx="176.69" cy="393.8" rx="1" ry="1.19"/><ellipse class="cls-28" cx="191.46" cy="396.78" rx="1" ry="1.19"/><path class="cls-4" d="M155.29,393.68a3.61,3.61,0,0,0,0-2.13c-.17-.46-1.25-.55-.86.83a17.83,17.83,0,0,1,.48,1.75"/><path class="cls-29" d="M145.92,367.31s.17.87,1.47.9a1.42,1.42,0,0,0,1.55-.9A2.25,2.25,0,0,1,145.92,367.31Z"/><path class="cls-30" d="M138.69,380.57l-.17,5.33"/><path class="cls-30" d="M153.91,387.12a13,13,0,0,1,.1-1.87,11.28,11.28,0,0,0,.09-3.93"/><path class="cls-31" d="M157.82,387.42a3.83,3.83,0,0,1,1.51-2"/><path class="cls-6" d="M160.21,364.12a.64.64,0,0,1,.76-.23.81.81,0,0,1,.35.52,3.7,3.7,0,0,1-.07,1.81,2.62,2.62,0,0,1-1.13,1.83.32.32,0,0,1-.19.05c-.15,0-.18-.23-.18-.38v-.62a.74.74,0,0,1,.08-.39.92.92,0,0,1,.29-.26,1,1,0,0,0,.44-.53.48.48,0,0,0-.18-.48c-.14-.1-.41,0-.51-.1S160.07,364.3,160.21,364.12Z"/><path class="cls-32" d="M201.21,323.73l-3.22-.14-11.47-.48-11-.47-25.81-1.09-11.12-.47-13.48-.57-1.37-.06S-3.34,177.53,6.76,106.07C12.21,67.54,30.59,47.5,46.37,37.2l.05,0c13.48-8.76,25-10.43,25-10.43A79,79,0,0,1,83.18,20.5h0c16.62-7.15,30.81-6.22,38.16-4.9a35.44,35.44,0,0,1,5.36,1.3C167-.93,192.39,15.18,196.78,18.35c.46.33.69.52.69.52a68.91,68.91,0,0,1,44.95.57,60.54,60.54,0,0,1,11.65,5.33A114.85,114.85,0,0,1,282,39.44h0s0,0,0,0C386.11,116.24,201.21,323.73,201.21,323.73Z"/><path class="cls-33" d="M204.58,111.31c0,82.6-13.73,176.3-29.08,211.33l-25.81-1.09c-12.59-28.93-22.49-95.72-30-173-6.06-62.64-4.15-104.78,1.64-133a35.44,35.44,0,0,1,5.36,1.3C167-.93,192.39,15.18,196.78,18.35,201.56,41.78,204.58,72.6,204.58,111.31Z"/><path class="cls-33" d="M198,323.59l-11.47-.48c112.34-183.06,80-287.85,58.29-302.79L282,39.44h0s-18.89-10.64-18.88-10.62C371.36,104.75,228.88,286.27,198,323.59Z"/><path class="cls-33" d="M138.57,321.08l-13.48-.57C89.88,277.31-35.79,111.37,46.37,37.2l.05,0c13.48-8.76,25-10.43,25-10.43,4-2.57-1.66.29,2.14-1.33C60.18,50.09,31.56,143.61,138.57,321.08Z"/><ellipse class="cls-34" cx="164.05" cy="321.44" rx="39.9" ry="6.95"/><path class="cls-31" d="M153.13,398.26a15.23,15.23,0,0,0,2.35-.62"/><path class="cls-35" d="M195.81,436.31h0a352.37,352.37,0,0,1-61.37.56h0c-6.12-1-10.48-4.17-10.9-7.89l-2.92-25.62h85.66l-2.39,26.82C203.64,433,200.42,435.45,195.81,436.31Z"/><rect class="cls-36" x="127.23" y="407.17" width="8.49" height="1.49" rx="0.54"/><rect class="cls-36" x="127.23" y="411.84" width="8.49" height="1.49" rx="0.54"/><rect class="cls-36" x="127.23" y="416.5" width="8.49" height="1.49" rx="0.54"/><rect class="cls-36" x="127.23" y="421.17" width="8.49" height="1.49" rx="0.54"/><rect class="cls-36" x="127.23" y="425.83" width="8.49" height="1.49" rx="0.54"/><rect class="cls-36" x="127.23" y="430.5" width="8.49" height="1.49" rx="0.54"/><rect class="cls-36" x="139.97" y="407.17" width="8.49" height="1.49" rx="0.54"/><rect class="cls-36" x="139.97" y="411.84" width="8.49" height="1.49" rx="0.54"/><rect class="cls-36" x="139.97" y="416.5" width="8.49" height="1.49" rx="0.54"/><rect class="cls-36" x="139.97" y="421.17" width="8.49" height="1.49" rx="0.54"/><rect class="cls-36" x="139.97" y="425.83" width="8.49" height="1.49" rx="0.54"/><rect class="cls-36" x="139.97" y="430.5" width="8.49" height="1.49" rx="0.54"/><rect class="cls-36" x="152.71" y="407.17" width="8.49" height="1.49" rx="0.54"/><rect class="cls-36" x="152.71" y="411.84" width="8.49" height="1.49" rx="0.54"/><rect class="cls-36" x="152.71" y="416.5" width="8.49" height="1.49" rx="0.54"/><rect class="cls-36" x="152.71" y="421.17" width="8.49" height="1.49" rx="0.54"/><rect class="cls-36" x="152.71" y="425.83" width="8.49" height="1.49" rx="0.54"/><rect class="cls-36" x="152.71" y="430.5" width="8.49" height="1.49" rx="0.54"/><rect class="cls-36" x="165.46" y="407.17" width="8.49" height="1.49" rx="0.54"/><rect class="cls-36" x="165.46" y="411.84" width="8.49" height="1.49" rx="0.54"/><rect class="cls-36" x="165.46" y="416.5" width="8.49" height="1.49" rx="0.54"/><rect class="cls-36" x="165.46" y="421.17" width="8.49" height="1.49" rx="0.54"/><rect class="cls-36" x="165.46" y="425.83" width="8.49" height="1.49" rx="0.54"/><rect class="cls-36" x="165.46" y="430.5" width="8.49" height="1.49" rx="0.54"/><rect class="cls-36" x="178.28" y="407.17" width="8.49" height="1.49" rx="0.54"/><rect class="cls-36" x="178.28" y="411.84" width="8.49" height="1.49" rx="0.54"/><rect class="cls-36" x="178.28" y="416.5" width="8.49" height="1.49" rx="0.54"/><rect class="cls-36" x="178.28" y="421.17" width="8.49" height="1.49" rx="0.54"/><rect class="cls-36" x="178.28" y="425.83" width="8.49" height="1.49" rx="0.54"/><rect class="cls-36" x="178.28" y="430.5" width="8.49" height="1.49" rx="0.54"/><rect class="cls-36" x="191.1" y="407.17" width="8.49" height="1.49" rx="0.54"/><rect class="cls-36" x="191.1" y="411.84" width="8.49" height="1.49" rx="0.54"/><rect class="cls-36" x="191.1" y="416.5" width="8.49" height="1.49" rx="0.54"/><rect class="cls-36" x="191.1" y="421.17" width="8.49" height="1.49" rx="0.54"/><rect class="cls-36" x="191.1" y="425.83" width="8.49" height="1.49" rx="0.54"/><rect class="cls-36" x="191.1" y="430.5" width="8.49" height="1.49" rx="0.54"/><rect class="cls-37" x="113.51" y="398.1" width="100.37" height="6.7" rx="2.43"/><rect class="cls-38" x="115.82" y="398.52" width="94.83" height="3.35" rx="1.21"/><path class="cls-39" d="M199.76,321.52c0,3.15-16,5.7-35.66,5.7s-35.67-2.55-35.67-5.7c0-2.81,12.77-5.15,29.54-5.61q3-.09,6.13-.09l2.48,0C185.12,316,199.76,318.51,199.76,321.52Z"/><path class="cls-31" d="M152.72,396.85a10.12,10.12,0,0,0,2.9-.82"/><path class="cls-6" d="M133.73,364.83a.73.73,0,0,0-.85-.13.77.77,0,0,0-.3.56,3.5,3.5,0,0,0,.28,1.83,2.62,2.62,0,0,0,1.42,1.72.26.26,0,0,0,.21,0c.16,0,.17-.24.15-.4l-.07-.63a.79.79,0,0,0-.13-.39,1,1,0,0,0-.35-.22,1,1,0,0,1-.52-.49.47.47,0,0,1,.13-.51c.14-.11.44,0,.54-.15S133.91,365,133.73,364.83Z"/><path class="cls-7" d="M191.91,355.62c.29,2.34.82,8.58.47,11.41-.78,6.39-7.74,8.67-9.08,8.76-2.16.15-7-.16-9.62-3.36s-3.42-9.25-3.42-9.25-2.39-5.91,1.24-10.89,8.08-5.74,13.14-4.86C190.81,348.51,191.91,355.62,191.91,355.62Z"/><path class="cls-40" d="M177.08,358.6s-2.2,0-3,1.57a.07.07,0,0,1-.14,0,1.76,1.76,0,0,1,1.35-1.85C177.32,357.57,177.08,358.6,177.08,358.6Z"/><path class="cls-40" d="M185.53,358.07s2.16-.53,3.33.82c0,.06.14,0,.13,0a1.77,1.77,0,0,0-1.76-1.48C185,357.12,185.53,358.07,185.53,358.07Z"/><path class="cls-41" d="M173.78,362.6a2.43,2.43,0,0,1,1.09-1.61,4,4,0,0,1,1.81-.56,2.41,2.41,0,0,1,1.22.14,2.11,2.11,0,0,1,.81.68,2.63,2.63,0,0,1,.31,2.55,1.54,1.54,0,0,1-2.09.77,4.62,4.62,0,0,1-.64-.53,1.38,1.38,0,0,0-.7-.4.6.6,0,0,0-.65.38c-.08.23.07.64-.13.81s-.41,0-.55-.12A2.83,2.83,0,0,1,173.78,362.6Z"/><path class="cls-42" d="M179.12,363.28c.09,1.33-1,2.12-2.42,2.22a3,3,0,0,1-1.28-.14,1.81,1.81,0,0,1-1.23-1.7,2.3,2.3,0,0,1,.56-1.59,3,3,0,0,1,2.07-1.12C178.27,360.85,179,362,179.12,363.28Z"/><circle class="cls-40" cx="176.64" cy="363.25" r="1.4"/><circle class="cls-43" cx="177.36" cy="362.75" r="0.43"/><path class="cls-41" d="M184,362a2.45,2.45,0,0,1,1.1-1.61,4,4,0,0,1,1.8-.56,2.31,2.31,0,0,1,1.22.14,2,2,0,0,1,.81.68,2.6,2.6,0,0,1,.32,2.55,1.55,1.55,0,0,1-2.1.77,4.54,4.54,0,0,1-.63-.53,1.41,1.41,0,0,0-.71-.4.6.6,0,0,0-.65.38c-.07.23.07.64-.13.81s-.41,0-.55-.12A2.88,2.88,0,0,1,184,362Z"/><path class="cls-42" d="M189.29,362.66c.1,1.33-1,2.12-2.42,2.22a3,3,0,0,1-1.27-.14,1.82,1.82,0,0,1-1.24-1.7,2.29,2.29,0,0,1,.56-1.59,3,3,0,0,1,2.07-1.12C188.45,360.23,189.2,361.37,189.29,362.66Z"/><circle class="cls-40" cx="186.81" cy="362.53" r="1.4"/><circle class="cls-43" cx="187.53" cy="362.13" r="0.43"/><path class="cls-41" d="M178.33,369.5a2.71,2.71,0,0,1-.49-.22,1.37,1.37,0,0,0-.53-.08c-.23,0-.49.14-.51.35s.15.31.31.4a1.55,1.55,0,0,0,.93.13.48.48,0,0,0,.34-.2c.05-.12-.06-.29-.19-.25Z"/><path class="cls-41" d="M185.88,368.67a1.79,1.79,0,0,1,.31-.37.71.71,0,0,1,.28-.16.5.5,0,0,1,.55.24.6.6,0,0,1,0,.59,1,1,0,0,1-.48.41.8.8,0,0,1-.42.11.37.37,0,0,1-.34-.22.35.35,0,0,1,.13-.37,1.25,1.25,0,0,1,.38-.2Z"/><path class="cls-44" d="M177.75,369.73s-.31-.28.18-.19a10.93,10.93,0,0,0,5.12.29,9.21,9.21,0,0,0,3.37-1.29.08.08,0,0,1,.13.07,5.46,5.46,0,0,1-2.3,3.48,3.79,3.79,0,0,1-3.05.35A7.71,7.71,0,0,1,177.75,369.73Z"/><path class="cls-43" d="M178.84,370a8.3,8.3,0,0,0,6.71-.75s-.35,1.34-2.64,1.84A4.32,4.32,0,0,1,178.84,370Z"/><path class="cls-15" d="M182.74,372.33a2.44,2.44,0,0,1-1.53-.29c.21-.3.45-.38.92-.55a2.92,2.92,0,0,1,2.07.24A2.46,2.46,0,0,1,182.74,372.33Z"/><path class="cls-45" d="M180.46,367.05a1.62,1.62,0,0,0,2.73-.17"/><path class="cls-46" d="M180.46,367.05a5.67,5.67,0,0,0,1.42.16,2.72,2.72,0,0,0,1.31-.33,1.1,1.1,0,0,1-.33.93,1.42,1.42,0,0,1-1,.4A1.38,1.38,0,0,1,180.46,367.05Z"/><path class="cls-3" d="M184.26,353.11s-.68,2.35-4.11,3.88a2.93,2.93,0,0,0,.52-3.15s0,4-4.73,4.28l1.19-3.08-3.51,4.55.2-3.28s-4.37,10.27-5.85,10.49c0,0-3.95-10.83,4-18.08s17.76-.86,17.76-.86a14.84,14.84,0,0,1,4.5,15.5s-2.24.71-2.59.26-.06-1.73-1.52-5A10.87,10.87,0,0,0,184.26,353.11Z"/><path class="cls-45" d="M170.83,364.29s.06,0,0,0a.12.12,0,0,1-.1-.08,3,3,0,0,0-1-1.16,1.52,1.52,0,0,0-1.08-.28,1.25,1.25,0,0,0-.85,1.13,3.81,3.81,0,0,0,.41,2.31,4,4,0,0,0,3.65,2.16"/><path class="cls-47" d="M170.83,364.29s0,0,0,0a.1.1,0,0,1-.09,0,1.19,1.19,0,0,1-.09-.15,3,3,0,0,0-.2-.29,2.84,2.84,0,0,0-.49-.49,1.77,1.77,0,0,0-1.22-.48,1,1,0,0,0-.82.88,3.23,3.23,0,0,0,0,1.35,4.07,4.07,0,0,0,3.91,3.29,3.7,3.7,0,0,1-2.68-.82,4.05,4.05,0,0,1-1.48-2.43,3.54,3.54,0,0,1,0-1.45,1.21,1.21,0,0,1,1-1,1.88,1.88,0,0,1,1.32.58,2.69,2.69,0,0,1,.46.55,1.92,1.92,0,0,1,.18.31.71.71,0,0,0,.08.15.06.06,0,0,0,.07,0S170.85,364.26,170.83,364.29Z"/><path class="cls-41" d="M169.43,364.63a3.27,3.27,0,0,1,.44.47c.11.14.2.33.1.46s-.29.11-.36.23,0,.29.15.35.28.08.42.14a.6.6,0,0,1,.34.47.38.38,0,0,1,0,.21.4.4,0,0,1-.47.16,1.13,1.13,0,0,1-.43-.32,4.1,4.1,0,0,1-.73-1C168.58,365.27,168.4,363.65,169.43,364.63Z"/><path class="cls-48" d="M171.08,367.6s1.06,1.75,0,2.17-.91-1.67-.91-1.67.45,1.7.68.6Z"/><path class="cls-45" d="M192.09,362.09s-.06.05,0,.05.07-.05.09-.09a3,3,0,0,1,.84-1.29,1.45,1.45,0,0,1,1-.43c.53,0,.86.53,1,1a3.79,3.79,0,0,1-.08,2.35,4,4,0,0,1-3.3,2.65"/><path class="cls-47" d="M192.09,362.09s0,0,0,.05a.07.07,0,0,0,.06,0,.85.85,0,0,0,.06-.17c0-.11.08-.22.13-.33a3.26,3.26,0,0,1,.38-.61,1.9,1.9,0,0,1,1.22-.76,1.22,1.22,0,0,1,1.16.86,3.52,3.52,0,0,1,.23,1.43,4.11,4.11,0,0,1-1.12,2.62,3.77,3.77,0,0,1-2.53,1.19,4.07,4.07,0,0,0,3.4-3.82,3.31,3.31,0,0,0-.19-1.33,1,1,0,0,0-.94-.76,1.81,1.81,0,0,0-1.14.65,3.28,3.28,0,0,0-.42.56c-.05.1-.11.21-.15.31s0,.11-.07.17-.05.05-.08,0S192.07,362.06,192.09,362.09Z"/><path class="cls-41" d="M193.52,362.23a3.87,3.87,0,0,0-.37.53c-.08.15-.15.36,0,.47s.29.06.38.17,0,.29-.1.38-.27.11-.39.19a.57.57,0,0,0-.27.52.36.36,0,0,0,.06.2.39.39,0,0,0,.49.09,1,1,0,0,0,.38-.38,3.71,3.71,0,0,0,.58-1.07C194.46,362.74,194.4,361.12,193.52,362.23Z"/><path class="cls-48" d="M192.31,365.41s-.8,1.88.3,2.14.67-1.78.67-1.78-.2,1.75-.59.69Z"/><path class="cls-49" d="M169.37,362.88A14.36,14.36,0,0,1,172.81,350c5.42-5.65,13.84-3.29,16.9.62a13.58,13.58,0,0,1,2.89,10.75"/><path class="cls-50" d="M171.32,350.88s-.47-6.51,2-4.23,3.28,5.1-1.31,5.5c-.81.07-1.18.32-1.37,1.09-.44,1.74-.88,8.22-5.05,1.27-2.8-4.66,4.55-1.91,4.55-1.91S169.09,350.6,171.32,350.88Z"/><ellipse class="cls-51" cx="166.25" cy="353.17" rx="0.44" ry="0.51" transform="matrix(0.98, -0.17, 0.17, 0.98, -59.08, 34.43)"/><ellipse class="cls-51" cx="169.51" cy="354.85" rx="0.44" ry="0.51" transform="translate(-59.32 35.02) rotate(-10.05)"/><ellipse class="cls-51" cx="173.04" cy="349.23" rx="0.44" ry="0.51" transform="translate(-58.29 35.55) rotate(-10.05)"/><ellipse class="cls-51" cx="174.35" cy="349.62" rx="0.44" ry="0.51" transform="translate(-58.33 35.79) rotate(-10.05)"/><ellipse class="cls-51" cx="173.95" cy="348.13" rx="0.44" ry="0.51" transform="translate(-58.08 35.7) rotate(-10.05)"/><ellipse class="cls-51" cx="173.08" cy="347.2" rx="0.44" ry="0.51" transform="translate(-57.93 35.53) rotate(-10.05)"/><ellipse class="cls-51" cx="173.77" cy="351.09" rx="0.44" ry="0.51" transform="translate(-58.6 35.71) rotate(-10.05)"/><ellipse class="cls-51" cx="172.09" cy="347.27" rx="0.44" ry="0.51" transform="translate(-57.96 35.36) rotate(-10.05)"/><ellipse class="cls-51" cx="171.84" cy="349.32" rx="0.44" ry="0.51" transform="translate(-58.32 35.35) rotate(-10.05)"/><ellipse class="cls-51" cx="172.67" cy="350.96" rx="0.44" ry="0.51" transform="translate(-58.59 35.52) rotate(-10.05)"/><ellipse class="cls-51" cx="167.68" cy="352.56" rx="0.44" ry="0.51" transform="translate(-58.95 34.67) rotate(-10.05)"/><ellipse class="cls-51" cx="167.92" cy="355.88" rx="0.44" ry="0.51" transform="translate(-59.52 34.76) rotate(-10.05)"/><ellipse class="cls-51" cx="166.63" cy="355.05" rx="0.44" ry="0.51" transform="translate(-59.4 34.52) rotate(-10.05)"/><ellipse class="cls-51" cx="167.97" cy="354.21" rx="0.44" ry="0.51" transform="translate(-59.23 34.75) rotate(-10.05)"/><ellipse class="cls-51" cx="169.03" cy="356.74" rx="0.44" ry="0.51" transform="translate(-59.66 34.97) rotate(-10.05)"/><ellipse class="cls-51" cx="169.21" cy="353.15" rx="0.44" ry="0.51" transform="translate(-59.03 34.95) rotate(-10.05)"/><polygon class="cls-2" points="198.03 320.36 205.51 398.15 206.9 398.15 199.12 320.36 198.03 320.36"/><polygon class="cls-2" points="128.43 320.28 120.95 398.07 119.56 398.07 127.34 320.28 128.43 320.28"/><path class="cls-52" d="M166.49,317a.22.22,0,0,1,.39.2c-.59,1.64-1.61,3.92-2.63,4.22s-2.2.21-3.16.72a5.48,5.48,0,0,0-1.7,1.72c.22-1.09.31-2.48-.64-3.07-1.65-1-3.12-7-.47-3.84,1.64,1.33.76-1,2.85-1h4.16c-.06.42-.62,2.67-.76,3.06a1.55,1.55,0,0,1-1,1C164.49,320.07,165.61,318.3,166.49,317Z"/><path class="cls-53" d="M164.49,318a.14.14,0,0,1,.24.12c-.36,1-1,2.4-1.61,2.58a10,10,0,0,0-1.93.44,3.29,3.29,0,0,0-1,1.06c.13-.67.19-1.52-.39-1.88-1-.62-2.55-4.82-.37-1.83,1,.82,2-2.1,3.28-2.1h.52c.75.3.19,2.6.1,2.85a1,1,0,0,1-.62.61C163.27,319.83,164,318.75,164.49,318Z"/><path class="cls-54" d="M173.5,327.21c-.66-.46-6.46-3.61-6.61-3.7a1.28,1.28,0,0,1,.26-.1l.3-.35c.13,0,6.42,3.6,7.06,4Z"/><path class="cls-54" d="M151.94,327l-1-.06c.5-.37,6.08-4,6.22-4.06l1,.18-.24,0C157.77,323.18,152.48,326.59,151.94,327Z"/><path class="cls-55" d="M156,320.29v2.85h12.46v-3.07a8.31,8.31,0,0,0-2.73-.49,44.22,44.22,0,0,0-8.16.15S156.36,319.81,156,320.29Z"/><ellipse class="cls-56" cx="162.21" cy="322.86" rx="6.23" ry="1.24"/><path class="cls-56" d="M168.11,321.62c.2,0,21.6-3.58,22.58-3.84"/><path class="cls-54" d="M168.11,321.94v-.32l0-.32c.13,0,20.95-3.45,22-3.74l1.19.33C190.64,318.07,168.5,321.94,168.11,321.94Z"/><path class="cls-56" d="M156.53,321.32c-.2,0-18.64-2.75-20.86-2.78"/><path class="cls-54" d="M156.53,321.64l-2.86-.41c-5.3-.76-17.24-2.66-18.91-2.69l1.35-.38c1.71,0,12.33,1.68,17.65,2.45l2.79.39Z"/><path class="cls-4" d="M170.8,397.4c-.59.14-1.86.85-2,1.67s.15,2.23,1.22,1.88.66-1.95,1-1.5,2.36.26,2.4,0a1.07,1.07,0,0,0,1.39.14s.51-.57-.29-.66-1-1.6-1.85-1.41"/><path class="cls-4" d="M172,398.83s.12,2.06,1,2.29c.56.14.56-1.77.23-2.5"/><path class="cls-4" d="M169.67,399.07c0,.07-.17,2.4.81,1.81s.3-1.81.3-1.81"/><path class="cls-4" d="M171.81,399a1.4,1.4,0,0,0-.35,1.08c0,.71-.19,1.3-.59,1.23s-.63-.64-.47-2.31"/></g></g></svg>