<svg id="Layer_1" data-name="Layer 1" xmlns="http://www.w3.org/2000/svg" width="92" height="85" viewBox="0 0 92 85">
  <defs>
    <style>
      .cls-1 {
        opacity: 0.5;
      }

      .cls-2 {
        fill: #fff;
      }

      .cls-3 {
        fill: #721c45;
      }

      .cls-4 {
        fill: #ef8934;
      }

      .cls-5 {
        fill: #ffa9a9;
      }
    </style>
  </defs>
  <g>
    <path class="cls-1" d="M33.62,80.7a11.1,11.1,0,0,1-5.54-1.46c-3.41-2-5.49-5.76-5.7-10.36a24,24,0,0,1,2.35-10.73C13.33,57,8.17,50.81,8.17,44.66c0-5.9,5.13-12.2,16.28-13.46-4.7-10.24-2-17.75,3.21-20.88a11,11,0,0,1,5.61-1.5c5.19,0,10.44,3.3,14.72,9.17,5.67-8.08,11.53-9.37,14.7-9.37a11,11,0,0,1,5.55,1.46c3.4,2,5.48,5.75,5.69,10.35a23.8,23.8,0,0,1-2.35,10.74C83,32.31,88.14,38.51,88.14,44.66c0,5.9-5.12,12.2-16.27,13.45a23.28,23.28,0,0,1,2.39,10.55C74.09,73.2,72,77,68.65,79a10.88,10.88,0,0,1-5.6,1.51c-5.2,0-10.44-3.31-14.72-9.17C42.66,79.4,36.8,80.7,33.62,80.7Z"/>
    <path class="cls-2" d="M29.31,76.38a11,11,0,0,1-5.55-1.46c-3.4-2-5.48-5.75-5.69-10.35a23.77,23.77,0,0,1,2.35-10.74C9,52.69,3.86,46.49,3.86,40.34c0-5.9,5.12-12.2,16.28-13.45C15.43,16.64,18.11,9.14,23.35,6A10.88,10.88,0,0,1,29,4.5c5.2,0,10.45,3.3,14.72,9.17C49.34,5.6,55.2,4.3,58.38,4.3a11.1,11.1,0,0,1,5.54,1.46c3.41,2,5.49,5.76,5.7,10.36a24,24,0,0,1-2.35,10.73C78.67,28,83.83,34.19,83.83,40.34c0,5.9-5.13,12.2-16.28,13.46A23.23,23.23,0,0,1,70,64.34c-.18,4.55-2.22,8.31-5.61,10.34a11,11,0,0,1-5.61,1.5c-5.19,0-10.44-3.3-14.72-9.17C38.35,75.09,32.48,76.38,29.31,76.38Z"/>
    <g>
      <path class="cls-3" d="M55.24,41.2c-.77,0-2.3-.38-2.3-.86s1.53-.86,2.3-.86c1.35,0,1.94.45,1.94.86S56.57,41.2,55.24,41.2Z"/>
      <path class="cls-4" d="M78.65,40.34c0-4.06-4.63-8.5-15.25-8.5a28.32,28.32,0,0,0-6.36.9,28,28,0,0,0,4-5c5.23-9,3.83-15.42.31-17.46s-9.67-.26-15,8.93a28.75,28.75,0,0,0-2.56,6.43,28.81,28.81,0,0,0-2.63-6.4C35.78,10.25,29.49,8.37,26,10.45s-4.92,8.34.52,17.46a28.16,28.16,0,0,0,3.8,4.76,27.21,27.21,0,0,0-6-.83C13.87,31.84,9,36.28,9,40.34s4.64,8.5,15.26,8.5a28.16,28.16,0,0,0,6.35-.9,28.82,28.82,0,0,0-4,5c-5.23,9-3.82,15.42-.31,17.46s9.68.26,15-8.92a28.66,28.66,0,0,0,2.56-6.43,28.72,28.72,0,0,0,2.64,6.4c5.34,8.95,11.62,10.82,15.11,8.74s4.92-8.33-.52-17.45A27.4,27.4,0,0,0,57.36,48a27.83,27.83,0,0,0,6,.82C73.82,48.84,78.65,44.41,78.65,40.34Zm-34.8,1.92a2.84,2.84,0,0,0-.74-.65,3.14,3.14,0,0,0-.9-.33,3.05,3.05,0,0,0,.17-.94,2.92,2.92,0,0,0-.16-.92,3,3,0,0,0,.87-.34,2.84,2.84,0,0,0,.74-.65,2.69,2.69,0,0,0,.75.64,2.78,2.78,0,0,0,.9.33,2.79,2.79,0,0,0-.17.94,3,3,0,0,0,.16.93,2.75,2.75,0,0,0-.88.33A3.08,3.08,0,0,0,43.85,42.26Z"/>
      <path class="cls-5" d="M43.58,48.15a7.81,7.81,0,1,1,7.81-7.81A7.81,7.81,0,0,1,43.58,48.15Z"/>
      <path class="cls-3" d="M31.74,39.48c.78,0,2.31.39,2.31.86s-1.53.86-2.31.86c-1.35,0-1.94-.45-1.94-.86S30.42,39.48,31.74,39.48Z"/>
      <path class="cls-3" d="M48.33,51.08c-.36-.68-.75-2.21-.33-2.43s1.48.93,1.85,1.61c.64,1.19.53,1.92.17,2.12S49,52.25,48.33,51.08Z"/>
      <path class="cls-3" d="M38.65,29.6c.37.68.76,2.21.34,2.44s-1.49-.94-1.86-1.62c-.64-1.18-.53-1.92-.16-2.11S38,28.44,38.65,29.6Z"/>
      <path class="cls-3" d="M50.33,30.75c-.4.66-1.52,1.77-1.93,1.52s.06-1.76.46-2.42c.7-1.15,1.39-1.42,1.74-1.21S51,29.62,50.33,30.75Z"/>
      <path class="cls-3" d="M36.65,49.93c.4-.66,1.53-1.76,1.94-1.52s-.06,1.76-.46,2.42c-.71,1.15-1.4,1.42-1.75,1.21S36,51.07,36.65,49.93Z"/>
      <path class="cls-3" d="M53.13,47.12c-.67-.4-1.78-1.51-1.54-1.92s1.76,0,2.42.44c1.16.7,1.44,1.39,1.22,1.74S54.26,47.8,53.13,47.12Z"/>
      <path class="cls-3" d="M33.86,33.56c.66.4,1.78,1.52,1.53,1.93S33.64,35.44,33,35c-1.16-.69-1.43-1.38-1.22-1.74S32.72,32.88,33.86,33.56Z"/>
      <path class="cls-3" d="M42.12,52c0-.77.49-2.28,1-2.26s.8,1.57.77,2.34c-.06,1.35-.54,1.92-1,1.9S42.07,53.37,42.12,52Z"/>
      <path class="cls-3" d="M44.86,28.64c0,.77-.48,2.29-1,2.27s-.79-1.57-.76-2.34c.06-1.35.53-1.92.94-1.91S44.92,27.32,44.86,28.64Z"/>
      <path class="cls-3" d="M54.29,35.63c-.68.36-2.22.73-2.44.31s.95-1.47,1.64-1.83c1.19-.63,1.92-.51,2.12-.15S55.46,35,54.29,35.63Z"/>
      <path class="cls-3" d="M32.69,45.05c.69-.36,2.22-.73,2.44-.31s-1,1.48-1.63,1.84c-1.2.63-1.93.51-2.12.14S31.52,45.67,32.69,45.05Z"/>
    </g>
  </g>
</svg>
