<svg id="Layer_1" data-name="Layer 1" xmlns="http://www.w3.org/2000/svg" width="92" height="85" viewBox="0 0 92 85">
  <defs>
    <style>
      .cls-1 {
        fill: #ff0;
      }
    </style>
  </defs>
  <path class="cls-1" d="M92,42.5c0-7.09-4.63-14.7-14.78-18a25.54,25.54,0,0,0,.56-6.5c-.31-6.68-3.47-12.25-8.68-15.27A17.11,17.11,0,0,0,60.54.46c-3.29,0-9,1-14.79,6.33C41.29,2.8,36.25.66,31.11.66A16.92,16.92,0,0,0,22.43,3c-6,3.6-10.17,11.36-7.94,21.62C4.55,28,0,35.53,0,42.5s4.63,14.7,14.78,18a25.54,25.54,0,0,0-.56,6.5c.31,6.68,3.47,12.24,8.68,15.27a17.11,17.11,0,0,0,8.55,2.27c3.29,0,9-1,14.79-6.33,4.46,4,9.5,6.13,14.64,6.13A16.92,16.92,0,0,0,69.57,82c5.17-3.09,8.28-8.65,8.53-15.26a25.35,25.35,0,0,0-.59-6.36C87.45,57,92,49.46,92,42.5ZM69.71,56A23.15,23.15,0,0,1,72.1,66.5c-.17,4.54-2.22,8.31-5.61,10.33a10.85,10.85,0,0,1-5.6,1.51c-5.2,0-10.44-3.3-14.72-9.17-5.67,8.07-11.53,9.37-14.71,9.37a11.1,11.1,0,0,1-5.54-1.46c-3.41-2-5.48-5.75-5.7-10.36A23.88,23.88,0,0,1,22.58,56C11.17,54.85,6,48.65,6,42.5c0-5.9,5.13-12.2,16.28-13.45-4.7-10.25-2-17.76,3.21-20.89a11,11,0,0,1,5.61-1.5c5.2,0,10.44,3.3,14.72,9.17C51.5,7.75,57.36,6.46,60.54,6.46a11,11,0,0,1,5.54,1.46c3.41,2,5.48,5.75,5.7,10.36A23.91,23.91,0,0,1,69.42,29C80.83,30.15,86,36.35,86,42.5,86,48.4,80.86,54.7,69.71,56Z"/>
</svg>
