<svg id="Layer_1" data-name="Layer 1" xmlns="http://www.w3.org/2000/svg" viewBox="0 0 512 512"><defs><style>.cls-1{fill:#0267ff;}</style></defs><g id="Blue"><path class="cls-1" d="M393.19,255.81a118.81,118.81,0,0,0,37.57-87.38C430.76,104,381,51.81,319.55,51.81S208.34,104,208.34,168.43a118.81,118.81,0,0,0,37.57,87.38,118.85,118.85,0,0,0-37.57,87.39c0,64.4,49.79,116.61,111.21,116.61S430.76,407.6,430.76,343.2A118.85,118.85,0,0,0,393.19,255.81Zm-73.64-144.7c30.19,0,54.66,25.67,54.66,57.32s-24.47,57.32-54.66,57.32-54.66-25.66-54.66-57.32S289.36,111.11,319.55,111.11Zm0,289.41c-30.19,0-54.66-25.67-54.66-57.32s24.47-57.32,54.66-57.32,54.66,25.66,54.66,57.32S349.74,400.52,319.55,400.52Z"/><path class="cls-1" d="M113,52.19h0a32,32,0,0,0-31.77,32v344a32,32,0,0,0,31.77,32h0a32,32,0,0,0,31.76-32v-344A32,32,0,0,0,113,52.19Z"/></g></svg>