<svg id="Layer_1" data-name="Layer 1" xmlns="http://www.w3.org/2000/svg" viewBox="0 0 512 512"><defs><style>.cls-1{fill:#999;}</style></defs><g id="Gray"><path class="cls-1" d="M393.27,256a118.81,118.81,0,0,0,37.57-87.38C430.84,104.19,381.05,52,319.63,52S208.42,104.19,208.42,168.59A118.81,118.81,0,0,0,246,256a118.85,118.85,0,0,0-37.57,87.38c0,64.41,49.79,116.62,111.21,116.62s111.21-52.21,111.21-116.62A118.85,118.85,0,0,0,393.27,256Zm-73.64-144.7c30.19,0,54.66,25.67,54.66,57.32s-24.47,57.32-54.66,57.32S265,200.25,265,168.59,289.44,111.27,319.63,111.27Zm0,289.4C289.44,400.67,265,375,265,343.35S289.44,286,319.63,286s54.66,25.67,54.66,57.32S349.82,400.67,319.63,400.67Z"/><rect class="cls-1" x="81.16" y="52.66" width="63.85" height="407.37" rx="31.92"/></g></svg>