<svg id="Layer_1" data-name="Layer 1" xmlns="http://www.w3.org/2000/svg" viewBox="0 0 512 512"><defs><style>.cls-1,.cls-2{fill:#92ff9f;}.cls-1{isolation:isolate;}</style></defs><g id="Yellow"><path class="cls-1" d="M319.63,286C289.44,286,265,311.7,265,343.35s24.47,57.32,54.66,57.32,54.66-25.66,54.66-57.32S349.82,286,319.63,286Zm0,106.11c-25.46,0-46.17-21.91-46.17-48.82s20.71-48.82,46.17-48.82,46.16,21.9,46.16,48.82S345.12,392.14,319.67,392.14Z"/><path class="cls-1" d="M439.38,168.55c0-69-53.71-125.11-119.71-125.11S200,99.56,200,168.55A128.24,128.24,0,0,0,234,255.94,128.19,128.19,0,0,0,200,343.32c0,69,53.71,125.12,119.72,125.12s119.71-56.13,119.71-125.12a128.23,128.23,0,0,0-34-87.38A128.28,128.28,0,0,0,439.38,168.55Zm-8.54,174.8c0,64.41-49.79,116.62-111.21,116.62S208.42,407.76,208.42,343.35A118.85,118.85,0,0,1,246,256a118.81,118.81,0,0,1-37.57-87.38C208.42,104.19,258.21,52,319.63,52s111.21,52.22,111.21,116.62A118.81,118.81,0,0,1,393.27,256,118.85,118.85,0,0,1,430.84,343.35Z"/><path class="cls-1" d="M319.63,111.27c-30.19,0-54.66,25.67-54.66,57.32s24.47,57.32,54.66,57.32,54.66-25.66,54.66-57.32S349.82,111.27,319.63,111.27Zm0,106.1c-25.46,0-46.17-21.9-46.17-48.82s20.71-48.82,46.17-48.82,46.16,21.91,46.16,48.82S345.12,217.37,319.67,217.37Z"/><path class="cls-2" d="M113.12,44.05a40.54,40.54,0,0,0-40.5,40.5V428.06a40.5,40.5,0,1,0,81,0V84.55A40.54,40.54,0,0,0,113.12,44.05ZM145,428.1A32,32,0,0,1,113.09,460h0A32,32,0,0,1,81.16,428.1V84.58a32,32,0,0,1,31.93-31.92h0A32,32,0,0,1,145,84.58Z"/></g></svg>