<svg xmlns="http://www.w3.org/2000/svg" viewBox="0 0 256 128"><defs><style>.cls-1{fill:#fff200;}.cls-2{fill:#323232;}</style></defs><g id="_1_Whistle" data-name="1 Whistle"><path class="cls-1" d="M72.62,75.64V57.1q-.68.8-1.29,1.41L70,59.86,67.76,56.8c.68-.59,1.34-1.18,2-1.77s1.1-1,1.67-1.59,1-1.08,1.4-1.53h4.35V75.64Z"/><path class="cls-2" d="M111.08,74.17a2.27,2.27,0,0,1-.8,1.13,2.34,2.34,0,0,1-1.36.34,2.2,2.2,0,0,1-1.38-.37,2.54,2.54,0,0,1-.78-1.21l-2.55-7.78-2.67,7.93a1.93,1.93,0,0,1-.77,1.09,2.55,2.55,0,0,1-1.42.34,4.26,4.26,0,0,1-.63,0,1.91,1.91,0,0,1-.57-.19,1.71,1.71,0,0,1-.51-.47,3.2,3.2,0,0,1-.42-.85L93,62.44h4l1.74,5.33c.06.19.12.42.19.69s.15.52.23.77.17.61.27.94a5.18,5.18,0,0,1,.18-.73c.06-.22.12-.45.19-.69s.14-.47.2-.69l1.68-5.62h4.86l1.8,5.88a5,5,0,0,0,.16.57l.2.6a3.77,3.77,0,0,1,.18.68c.06-.2.12-.4.18-.62q.15-.58.33-1.11l1.77-6h4.2Z"/><path class="cls-2" d="M126.89,75.64V68.18a4,4,0,0,0-.14-1.16,1.5,1.5,0,0,0-.38-.66,1.17,1.17,0,0,0-.55-.31,3.41,3.41,0,0,0-.65-.07,1.84,1.84,0,0,0-1,.3,3,3,0,0,0-.84.83,4.4,4.4,0,0,0-.6,1.23,4.89,4.89,0,0,0-.23,1.49v5.81h-4V55.09h4v8.85a4.49,4.49,0,0,1,1.66-1.15,5.5,5.5,0,0,1,2-.35,6.68,6.68,0,0,1,1.73.23,4.55,4.55,0,0,1,1.51.75,3.79,3.79,0,0,1,1.08,1.36,4.74,4.74,0,0,1,.41,2.07v8.79Z"/><path class="cls-2" d="M140.36,58.82a1.64,1.64,0,0,1-.69,1.33,2.55,2.55,0,0,1-1.65.55,2.6,2.6,0,0,1-1.68-.56,1.79,1.79,0,0,1-.72-1.37,1.62,1.62,0,0,1,.66-1.38,2.73,2.73,0,0,1,3.37,0,2.12,2.12,0,0,1,.51.64A1.68,1.68,0,0,1,140.36,58.82Zm-4.5,16.82V62.44h4v13.2Z"/><path class="cls-2" d="M153.89,72a3.77,3.77,0,0,1-1.27,3A5.27,5.27,0,0,1,149,76.09a15,15,0,0,1-3-.3,8.85,8.85,0,0,1-2.4-.81l.51-3.06a10.24,10.24,0,0,0,4.56,1.35,1.29,1.29,0,0,0,.94-.28.91.91,0,0,0,.29-.65,1.14,1.14,0,0,0-.23-.73,3.38,3.38,0,0,0-1.09-.71,18,18,0,0,1-2.12-1.08A7,7,0,0,1,145,68.7a3.82,3.82,0,0,1-.81-1.25A4.14,4.14,0,0,1,144,66,3.37,3.37,0,0,1,145.41,63a6.39,6.39,0,0,1,3.79-1,11.55,11.55,0,0,1,2.23.2,10.46,10.46,0,0,1,2.25.76l-.48,3a7.15,7.15,0,0,0-2.07-.82,9.18,9.18,0,0,0-2-.23,1.35,1.35,0,0,0-.95.26.87.87,0,0,0-.26.67,1,1,0,0,0,.41.83,8.82,8.82,0,0,0,1.6.82,18.67,18.67,0,0,1,1.82,1,6.53,6.53,0,0,1,1.23,1,3.27,3.27,0,0,1,.68,1.11A4.08,4.08,0,0,1,153.89,72Z"/><path class="cls-2" d="M158.39,75.64V65.29h-2.64V62.44h2.64V59.11h3.93v3.33h3.39v2.85h-3.39V75.64Z"/><path class="cls-2" d="M168.14,75.64V54.73h4V75.64Z"/><path class="cls-2" d="M188.24,66.07a3.37,3.37,0,0,1-.54,1.86,4.39,4.39,0,0,1-1.5,1.43,8.34,8.34,0,0,1-2.34.91,13,13,0,0,1-3.06.33h-.36l-.48,0a2.74,2.74,0,0,0,.9,1.79,2.84,2.84,0,0,0,1.94.64,8.89,8.89,0,0,0,4.42-1.35V74.8a8.71,8.71,0,0,1-2.18,1,9.07,9.07,0,0,1-2.35.28,7.8,7.8,0,0,1-2.72-.45,5.49,5.49,0,0,1-2.05-1.3,5.82,5.82,0,0,1-1.29-2,7.55,7.55,0,0,1-.45-2.69,8.31,8.31,0,0,1,.52-3,7,7,0,0,1,1.47-2.36,6.5,6.5,0,0,1,2.27-1.53,7.62,7.62,0,0,1,2.91-.54,5.47,5.47,0,0,1,3.55,1.08A3.52,3.52,0,0,1,188.24,66.07Zm-4,.3a1,1,0,0,0-.41-.82,1.58,1.58,0,0,0-1-.35,2.37,2.37,0,0,0-1.71.71,3.34,3.34,0,0,0-.92,1.93,2.49,2.49,0,0,0,.47.06h.45C183.19,67.9,184.25,67.39,184.25,66.37Z"/></g></svg>