<svg xmlns="http://www.w3.org/2000/svg" viewBox="0 0 256 128"><defs><style>.cls-1{fill:#fff200;}.cls-2{fill:#323232;}</style></defs><g id="_3_Hot_air_ballons" data-name="3 Hot air ballons"><path class="cls-1" d="M44.89,71.4V52.86c-.46.52-.89,1-1.3,1.41s-.85.87-1.32,1.34L40,52.55c.68-.59,1.34-1.17,2-1.76s1.09-1,1.66-1.6a16.32,16.32,0,0,0,1.4-1.53h4.35V71.4Z"/><path class="cls-1" d="M73.28,59.12q0,6.48-2.24,9.38a7.83,7.83,0,0,1-6.62,2.9,7.85,7.85,0,0,1-6.63-2.92c-1.48-1.94-2.23-4.92-2.23-8.93s.75-7,2.23-8.94a7.81,7.81,0,0,1,6.63-3Q73.27,47.66,73.28,59.12Zm-5.34.19a15.05,15.05,0,0,0-.89-5.58,2.68,2.68,0,0,0-2.6-1.68,2.87,2.87,0,0,0-2.63,1.82,16.43,16.43,0,0,0-.92,6,14.68,14.68,0,0,0,.89,5.31A2.82,2.82,0,0,0,64.45,67,2.71,2.71,0,0,0,67,65.24,15.93,15.93,0,0,0,67.94,59.31Z"/><path class="cls-2" d="M98.38,64A10.16,10.16,0,0,1,98,67a7.21,7.21,0,0,1-1.19,2.33A5.27,5.27,0,0,1,95,70.86a5.54,5.54,0,0,1-3.9.33,4.65,4.65,0,0,1-1.34-.78v9.93h-4.2V62.15c0-.21,0-.47-.05-.76s-.07-.61-.12-.93-.11-.65-.18-1a6.72,6.72,0,0,0-.25-.89H89a2.68,2.68,0,0,1,.22.58,7,7,0,0,1,.13.83,6.31,6.31,0,0,1,1.81-1.38,4.75,4.75,0,0,1,2.07-.42,5.19,5.19,0,0,1,2.11.41,4.61,4.61,0,0,1,1.63,1.19A5.2,5.2,0,0,1,98,61.64,7.2,7.2,0,0,1,98.38,64Zm-4,.67a2.87,2.87,0,0,0-.6-1.94,2.09,2.09,0,0,0-1.64-.68,2.36,2.36,0,0,0-1.94.88,3.7,3.7,0,0,0-.71,2.37v1.74a3.18,3.18,0,0,0,2.12.8,2.55,2.55,0,0,0,2-.85A3.4,3.4,0,0,0,94.39,64.69Z"/><path class="cls-2" d="M111.46,71a5.91,5.91,0,0,1-.26-.69c0-.18-.1-.44-.16-.78a5.87,5.87,0,0,1-4.23,1.83A4.43,4.43,0,0,1,103.58,70a4.37,4.37,0,0,1-.94-1.54,5.9,5.9,0,0,1-.33-2q0-1.23.06-2.28t.09-2c0-.64,0-1.29,0-1.93s-.07-1.32-.15-2h4c.06.65.09,1.28.1,1.89s0,1.21,0,1.81,0,1.2-.06,1.82,0,1.27,0,2a3.17,3.17,0,0,0,.19,1.23,1.44,1.44,0,0,0,.48.65,1.5,1.5,0,0,0,.61.24,3.87,3.87,0,0,0,.53,0,2.87,2.87,0,0,0,.64-.12,2.18,2.18,0,0,0,.91-.55,3.69,3.69,0,0,0,.79-1.27,6.05,6.05,0,0,0,.35-2.26V58.2h4v8.72A15,15,0,0,0,115,69.2a7.43,7.43,0,0,0,.48,1.84Z"/><path class="cls-2" d="M136.84,71.4V64.87a4.29,4.29,0,0,0-.51-2.45,1.6,1.6,0,0,0-1.37-.68,2,2,0,0,0-.89.21,2.31,2.31,0,0,0-.82.7,3.71,3.71,0,0,0-.6,1.31,7.93,7.93,0,0,0-.22,2.05V71.4h-4V64.87a4.68,4.68,0,0,0-.47-2.38,1.67,1.67,0,0,0-1.54-.75,2.16,2.16,0,0,0-1.77,1,5.54,5.54,0,0,0-.75,3.26V71.4h-4V63.11c0-.49,0-.93,0-1.33s-.06-.77-.11-1.12a8.62,8.62,0,0,0-.21-1c-.09-.33-.19-.68-.31-1h4l.22.7a6.3,6.3,0,0,1,.17.67,9.26,9.26,0,0,1,2.07-1.28,6.78,6.78,0,0,1,2.74-.49,4.67,4.67,0,0,1,2.05.43,3,3,0,0,1,1.35,1.21,4.37,4.37,0,0,1,2-1.22,8.31,8.31,0,0,1,2.59-.42,4.25,4.25,0,0,1,3.24,1.19,4.84,4.84,0,0,1,1.14,3.47V71.4Z"/><path class="cls-2" d="M158.65,64a10.16,10.16,0,0,1-.42,3A7.21,7.21,0,0,1,157,69.35a5.27,5.27,0,0,1-1.82,1.51,5.54,5.54,0,0,1-3.9.33,4.65,4.65,0,0,1-1.34-.78v9.93h-4.2V62.15c0-.21,0-.47-.05-.76s-.07-.61-.12-.93-.11-.65-.18-1a6.72,6.72,0,0,0-.25-.89h4.06a2.68,2.68,0,0,1,.22.58,7,7,0,0,1,.13.83,6.31,6.31,0,0,1,1.81-1.38,4.72,4.72,0,0,1,2.07-.42,5.19,5.19,0,0,1,2.11.41,4.71,4.71,0,0,1,1.63,1.19,5.2,5.2,0,0,1,1.06,1.84A7.2,7.2,0,0,1,158.65,64Zm-4,.67a2.87,2.87,0,0,0-.6-1.94,2.09,2.09,0,0,0-1.64-.68,2.36,2.36,0,0,0-1.94.88,3.64,3.64,0,0,0-.71,2.37v1.74a3.18,3.18,0,0,0,2.12.8,2.55,2.55,0,0,0,2-.85A3.4,3.4,0,0,0,154.66,64.69Z"/><path class="cls-2" d="M170.65,63.6,177,71.4h-5.28l-5-6.51V71.4h-4V50.49h4V62.55l4.86-4.35h5.73Z"/><path class="cls-2" d="M185.11,54.57a1.66,1.66,0,0,1-.69,1.34,2.78,2.78,0,0,1-3.33,0,1.83,1.83,0,0,1-.72-1.38,1.62,1.62,0,0,1,.66-1.37,2.64,2.64,0,0,1,1.74-.56,2.67,2.67,0,0,1,.88.15,2.28,2.28,0,0,1,.75.42,2.21,2.21,0,0,1,.51.63A1.68,1.68,0,0,1,185.11,54.57Zm-4.5,16.83V58.2h4V71.4Z"/><path class="cls-2" d="M197.65,71.4V63.91a3,3,0,0,0-.2-1.22A1.67,1.67,0,0,0,197,62a1.23,1.23,0,0,0-.57-.26,3.44,3.44,0,0,0-.51,0,2.72,2.72,0,0,0-.63.11,2.21,2.21,0,0,0-.92.55,3.82,3.82,0,0,0-.82,1.27,5.83,5.83,0,0,0-.36,2.26V71.4h-4V62.67a15,15,0,0,0-.18-2.28,7.33,7.33,0,0,0-.48-1.83h4a5.58,5.58,0,0,1,.25.69c0,.18.11.44.17.78A6.18,6.18,0,0,1,195,58.65a6,6,0,0,1,2.24-.45,4.25,4.25,0,0,1,3.14,1.32,4.67,4.67,0,0,1,.93,1.55,6.09,6.09,0,0,1,.34,2.06V71.4Z"/><path class="cls-2" d="M216,67.74a3.8,3.8,0,0,1-1.27,3,5.27,5.27,0,0,1-3.58,1.11,14.93,14.93,0,0,1-3-.3,8.85,8.85,0,0,1-2.4-.81l.51-3.06A10.24,10.24,0,0,0,210.76,69a1.29,1.29,0,0,0,.94-.29.88.88,0,0,0,.29-.64,1.17,1.17,0,0,0-.23-.74,3.4,3.4,0,0,0-1.09-.7,18,18,0,0,1-2.12-1.08,7,7,0,0,1-1.44-1.13,3.79,3.79,0,0,1-.81-1.24,4.14,4.14,0,0,1-.25-1.5,3.38,3.38,0,0,1,1.45-2.93,6.37,6.37,0,0,1,3.79-1,11.66,11.66,0,0,1,2.23.19,10.3,10.3,0,0,1,2.24.77l-.48,3a7.13,7.13,0,0,0-2.06-.83,9.22,9.22,0,0,0-2-.22,1.38,1.38,0,0,0-1,.25.92.92,0,0,0-.25.68,1,1,0,0,0,.41.82,8,8,0,0,0,1.6.83,18.77,18.77,0,0,1,1.82,1,6.14,6.14,0,0,1,1.22,1,3.12,3.12,0,0,1,.68,1.11A3.87,3.87,0,0,1,216,67.74Z"/></g></svg>