<svg xmlns="http://www.w3.org/2000/svg" viewBox="0 0 256 128"><defs><style>.cls-1{fill:#fff200;}.cls-2{fill:#323232;}</style></defs><g id="_3_Hot_air_ballons" data-name="3 Hot air ballons"><path class="cls-1" d="M96.45,71.64H91.89l.27-10a6.4,6.4,0,0,1-1.94,1.19,6.91,6.91,0,0,1-2.27.34,7.19,7.19,0,0,1-2.84-.55,6.44,6.44,0,0,1-2.2-1.54,7,7,0,0,1-1.41-2.4,10.1,10.1,0,0,1,.1-6.51,7.15,7.15,0,0,1,1.69-2.57A7.3,7.3,0,0,1,86,48a10.52,10.52,0,0,1,3.52-.56,7.41,7.41,0,0,1,5.5,2,7.05,7.05,0,0,1,1.87,5.47ZM92.13,54.33a2.73,2.73,0,0,0-.22-1.1,2.82,2.82,0,0,0-.62-.87,2.76,2.76,0,0,0-.93-.58,3.18,3.18,0,0,0-1.16-.2,3.13,3.13,0,0,0-2.48,1.05,4.26,4.26,0,0,0-.92,2.89,3.76,3.76,0,0,0,.8,2.55,2.81,2.81,0,0,0,2.23.92,3.07,3.07,0,0,0,2.31-.92,3.73,3.73,0,0,0,1-2.55Z"/><path class="cls-2" d="M119.76,54.42a5.59,5.59,0,0,0-1.08-.41,4.37,4.37,0,0,0-1-.1,2.75,2.75,0,0,0-1.23.24,1.67,1.67,0,0,0-.75.76,4.22,4.22,0,0,0-.37,1.4,18.07,18.07,0,0,0-.11,2.13h3.18v2.91h-3.15V71.64h-4V61.29h-2.49V58.44h2.43a17.51,17.51,0,0,1,.33-3.71,6,6,0,0,1,1-2.37,3.71,3.71,0,0,1,1.68-1.26,6.61,6.61,0,0,1,2.32-.37,10.37,10.37,0,0,1,3.57.6Z"/><path class="cls-2" d="M129.78,62.13l-.66-.12a4.39,4.39,0,0,0-.54,0A3,3,0,0,0,126,63.15a5.72,5.72,0,0,0-.89,3.48v5h-4V63c0-.49,0-.91,0-1.28a10.1,10.1,0,0,0-.08-1,9.3,9.3,0,0,0-.16-.92c-.07-.31-.17-.66-.29-1h3.79c.06.25.12.46.17.63a3.49,3.49,0,0,1,.11.5c0,.15,0,.31.06.49a5.53,5.53,0,0,1,0,.63,6.83,6.83,0,0,1,1.71-2,3.25,3.25,0,0,1,1.9-.57,2.88,2.88,0,0,1,.71.07,5.78,5.78,0,0,1,.79.3Z"/><path class="cls-2" d="M144.72,65a7.51,7.51,0,0,1-.49,2.84,5.64,5.64,0,0,1-1.41,2.08,5.87,5.87,0,0,1-2.18,1.29,9.26,9.26,0,0,1-5.64,0,5.87,5.87,0,0,1-2.18-1.29,5.79,5.79,0,0,1-1.42-2.08,8.12,8.12,0,0,1,0-5.61,6,6,0,0,1,1.39-2.06A6.15,6.15,0,0,1,135,58.87a9.74,9.74,0,0,1,5.69,0,5.82,5.82,0,0,1,2.18,1.26,5.49,5.49,0,0,1,1.41,2.06A7.49,7.49,0,0,1,144.72,65Zm-4,0a3,3,0,0,0-.8-2.23,3,3,0,0,0-2.17-.79,2.79,2.79,0,0,0-2.14.79,3.16,3.16,0,0,0-.74,2.23,3.3,3.3,0,0,0,.73,2.29,2.73,2.73,0,0,0,2.15.81,2.94,2.94,0,0,0,2.2-.8A3.2,3.2,0,0,0,140.73,65Z"/><path class="cls-2" d="M161.16,72.06a14.18,14.18,0,0,1-.5,4.06,7.18,7.18,0,0,1-1.38,2.63,5,5,0,0,1-2.07,1.42,7.51,7.51,0,0,1-2.6.44,22.3,22.3,0,0,1-2.68-.17,9.51,9.51,0,0,1-2.52-.64v-3a16.48,16.48,0,0,0,2.29.64,10.1,10.1,0,0,0,1.94.23,3.36,3.36,0,0,0,1.43-.3,2.83,2.83,0,0,0,1.12-1,5,5,0,0,0,.72-1.74,11.49,11.49,0,0,0,.26-2.61V70.71a4.54,4.54,0,0,1-1.71,1,7,7,0,0,1-1.86.23,5.88,5.88,0,0,1-2.34-.45,5.06,5.06,0,0,1-1.78-1.26,5.7,5.7,0,0,1-1.14-2,8.23,8.23,0,0,1,.21-5.7,6.74,6.74,0,0,1,1.78-2.38,8,8,0,0,1,2.8-1.52,12.18,12.18,0,0,1,3.71-.52H158c.32,0,.64,0,1,.08s.64.09,1,.16.76.17,1.23.29Zm-4-10-.79-.12a6.21,6.21,0,0,0-.69,0,3.8,3.8,0,0,0-2.77,1,3.58,3.58,0,0,0-1,2.69,2.56,2.56,0,0,0,.66,1.89,2.28,2.28,0,0,0,1.66.66,4.83,4.83,0,0,0,1.08-.12,1.92,1.92,0,0,0,.94-.54,2.88,2.88,0,0,0,.66-1.22,7.24,7.24,0,0,0,.25-2.14Z"/><path class="cls-2" d="M175,68a3.77,3.77,0,0,1-1.27,3,5.26,5.26,0,0,1-3.57,1.11,15,15,0,0,1-3.05-.3,9.09,9.09,0,0,1-2.4-.81l.51-3.06a10.24,10.24,0,0,0,4.56,1.35,1.32,1.32,0,0,0,.95-.29.87.87,0,0,0,.28-.64,1.16,1.16,0,0,0-.22-.74,3.49,3.49,0,0,0-1.1-.7,17.82,17.82,0,0,1-2.11-1.08,7,7,0,0,1-1.44-1.13,3.79,3.79,0,0,1-.81-1.24,4.14,4.14,0,0,1-.26-1.5A3.38,3.38,0,0,1,166.51,59a6.39,6.39,0,0,1,3.79-1,11.77,11.77,0,0,1,2.24.19,10.48,10.48,0,0,1,2.24.77l-.48,3a7.18,7.18,0,0,0-2.07-.83,9.15,9.15,0,0,0-2-.22,1.35,1.35,0,0,0-.95.25.93.93,0,0,0-.26.68,1,1,0,0,0,.41.82,8.68,8.68,0,0,0,1.6.83,18.77,18.77,0,0,1,1.82,1,6.53,6.53,0,0,1,1.23,1,3.27,3.27,0,0,1,.68,1.11A4.14,4.14,0,0,1,175,68Z"/></g></svg>