<svg xmlns="http://www.w3.org/2000/svg" viewBox="0 0 256 128"><defs><style>.cls-1{opacity:0.5;}.cls-2{fill:#fff200;}</style></defs><g id="Layer_34" data-name="Layer 34"><g class="cls-1"><path d="M73.36,54.92a9,9,0,0,1-1.42,5,12,12,0,0,1-4,3.8,22.07,22.07,0,0,1-6.23,2.44,34.51,34.51,0,0,1-8.15.88c-.28,0-.6,0-1,0s-.8,0-1.3,0a7.39,7.39,0,0,0,2.4,4.76,7.59,7.59,0,0,0,5.18,1.72,23.67,23.67,0,0,0,11.78-3.6v8.4a23.32,23.32,0,0,1-5.8,2.52,24.13,24.13,0,0,1-6.28.76,20.71,20.71,0,0,1-7.24-1.2,14.7,14.7,0,0,1-5.48-3.48,15.53,15.53,0,0,1-3.44-5.44,20.06,20.06,0,0,1-1.2-7.16,22.32,22.32,0,0,1,1.4-8,18.61,18.61,0,0,1,3.92-6.28,17.25,17.25,0,0,1,6-4.08,20.31,20.31,0,0,1,7.76-1.44q5.92,0,9.48,2.88A9.39,9.39,0,0,1,73.36,54.92Zm-10.64.8a2.79,2.79,0,0,0-1.1-2.2,4.16,4.16,0,0,0-2.76-.92,6.31,6.31,0,0,0-4.56,1.88,8.9,8.9,0,0,0-2.46,5.16,6.49,6.49,0,0,0,1.27.16H54.3Q62.72,59.8,62.72,55.72Z"/><path d="M94.48,35.58a4.39,4.39,0,0,1-1.84,3.56,7.42,7.42,0,0,1-8.88,0,4.79,4.79,0,0,1-1.92-3.67,4.34,4.34,0,0,1,1.76-3.67,7.63,7.63,0,0,1,7-1.08,6.18,6.18,0,0,1,2,1.12A5.73,5.73,0,0,1,94,33.5,4.36,4.36,0,0,1,94.48,35.58Zm-12,44.86V45.24H93.12v35.2Z"/><path d="M138.8,81.56a37.18,37.18,0,0,1-1.35,10.84,18.89,18.89,0,0,1-3.67,7,13.33,13.33,0,0,1-5.51,3.8,20.21,20.21,0,0,1-6.94,1.16,60,60,0,0,1-7.14-.44,25.64,25.64,0,0,1-6.74-1.72V94.12a44,44,0,0,0,6.13,1.72,26.55,26.55,0,0,0,5.15.6,9.05,9.05,0,0,0,3.83-.8,7.47,7.47,0,0,0,3-2.56,13.21,13.21,0,0,0,1.93-4.64,30.29,30.29,0,0,0,.69-7V78a12.12,12.12,0,0,1-4.56,2.68,18.57,18.57,0,0,1-5,.6A15.71,15.71,0,0,1,112.4,80a13.54,13.54,0,0,1-4.76-3.36,15.12,15.12,0,0,1-3-5.24,20.53,20.53,0,0,1-1.08-6.84,20.26,20.26,0,0,1,1.66-8.36,17.84,17.84,0,0,1,4.75-6.36,21.16,21.16,0,0,1,7.46-4,32.54,32.54,0,0,1,9.89-1.4c1.14,0,2.14,0,3,0s1.72.09,2.56.2,1.73.25,2.67.44,2.05.44,3.29.76ZM128.16,54.84c-.93-.16-1.63-.27-2.1-.32a18.06,18.06,0,0,0-1.85-.08,10.13,10.13,0,0,0-7.37,2.6,9.49,9.49,0,0,0-2.68,7.16,6.79,6.79,0,0,0,1.77,5A6,6,0,0,0,120.34,71a13.17,13.17,0,0,0,2.88-.32,5.06,5.06,0,0,0,2.51-1.44A7.89,7.89,0,0,0,127.5,66a19.88,19.88,0,0,0,.66-5.72Z"/><path d="M172.72,80.44V60.54a10.3,10.3,0,0,0-.37-3.08,4,4,0,0,0-1-1.78,3.25,3.25,0,0,0-1.47-.81,7.93,7.93,0,0,0-1.71-.19,4.85,4.85,0,0,0-2.66.81,8.22,8.22,0,0,0-2.25,2.2A12.21,12.21,0,0,0,161.65,61a12.73,12.73,0,0,0-.61,4v15.5H150.4V25.64H161v23.6a12.21,12.21,0,0,1,4.42-3.08,14.73,14.73,0,0,1,5.36-.92,17.32,17.32,0,0,1,4.61.62,11.78,11.78,0,0,1,4,2,9.93,9.93,0,0,1,2.87,3.62A12.47,12.47,0,0,1,183.36,57V80.44Z"/><path d="M197.28,80.44V52.84h-7v-7.6h7V36.36h10.48v8.88h9v7.6h-9v27.6Z"/></g><path class="cls-2" d="M71.36,52.92a9,9,0,0,1-1.42,5,12,12,0,0,1-4,3.8,22.07,22.07,0,0,1-6.23,2.44,34.51,34.51,0,0,1-8.15.88c-.28,0-.6,0-1,0s-.8,0-1.3,0a7.39,7.39,0,0,0,2.4,4.76,7.59,7.59,0,0,0,5.18,1.72,23.67,23.67,0,0,0,11.78-3.6v8.4a23.32,23.32,0,0,1-5.8,2.52,24.13,24.13,0,0,1-6.28.76,20.71,20.71,0,0,1-7.24-1.2,14.7,14.7,0,0,1-5.48-3.48,15.53,15.53,0,0,1-3.44-5.44,20.06,20.06,0,0,1-1.2-7.16,22.32,22.32,0,0,1,1.4-8,18.61,18.61,0,0,1,3.92-6.28,17.25,17.25,0,0,1,6-4.08,20.31,20.31,0,0,1,7.76-1.44q5.93,0,9.48,2.88A9.39,9.39,0,0,1,71.36,52.92Zm-10.64.8a2.79,2.79,0,0,0-1.1-2.2,4.16,4.16,0,0,0-2.76-.92,6.31,6.31,0,0,0-4.56,1.88,8.9,8.9,0,0,0-2.46,5.16,6.49,6.49,0,0,0,1.27.16H52.3Q60.72,57.8,60.72,53.72Z"/><path class="cls-2" d="M92.48,33.58a4.39,4.39,0,0,1-1.84,3.56,7.42,7.42,0,0,1-8.88,0,4.79,4.79,0,0,1-1.92-3.67,4.34,4.34,0,0,1,1.76-3.67,7.63,7.63,0,0,1,7-1.08,6.18,6.18,0,0,1,2,1.12A5.73,5.73,0,0,1,92,31.5,4.36,4.36,0,0,1,92.48,33.58Zm-12,44.86V43.24H91.12v35.2Z"/><path class="cls-2" d="M136.8,79.56a37.18,37.18,0,0,1-1.35,10.84,18.89,18.89,0,0,1-3.67,7,13.33,13.33,0,0,1-5.51,3.8,20.21,20.21,0,0,1-6.94,1.16,60,60,0,0,1-7.14-.44,25.64,25.64,0,0,1-6.74-1.72V92.12a44,44,0,0,0,6.13,1.72,26.55,26.55,0,0,0,5.15.6,9.05,9.05,0,0,0,3.83-.8,7.47,7.47,0,0,0,3-2.56,13.21,13.21,0,0,0,1.93-4.64,30.29,30.29,0,0,0,.69-7V76a12.12,12.12,0,0,1-4.56,2.68,18.57,18.57,0,0,1-5,.6A15.71,15.71,0,0,1,110.4,78a13.54,13.54,0,0,1-4.76-3.36,15.12,15.12,0,0,1-3-5.24,20.53,20.53,0,0,1-1.08-6.84,20.26,20.26,0,0,1,1.66-8.36,17.84,17.84,0,0,1,4.75-6.36,21.16,21.16,0,0,1,7.46-4,32.54,32.54,0,0,1,9.89-1.4c1.14,0,2.14,0,3,0s1.72.09,2.56.2,1.73.25,2.67.44,2.05.44,3.29.76ZM126.16,52.84c-.93-.16-1.63-.27-2.1-.32a18.06,18.06,0,0,0-1.85-.08,10.13,10.13,0,0,0-7.37,2.6,9.49,9.49,0,0,0-2.68,7.16,6.79,6.79,0,0,0,1.77,5A6,6,0,0,0,118.34,69a13.17,13.17,0,0,0,2.88-.32,5.06,5.06,0,0,0,2.51-1.44A7.89,7.89,0,0,0,125.5,64a19.88,19.88,0,0,0,.66-5.72Z"/><path class="cls-2" d="M170.72,78.44V58.54a10.3,10.3,0,0,0-.37-3.08,4,4,0,0,0-1-1.78,3.25,3.25,0,0,0-1.47-.81,7.93,7.93,0,0,0-1.71-.19,4.85,4.85,0,0,0-2.66.81,8.22,8.22,0,0,0-2.25,2.2A12.21,12.21,0,0,0,159.65,59a12.73,12.73,0,0,0-.61,4v15.5H148.4V23.64H159v23.6a12.21,12.21,0,0,1,4.42-3.08,14.73,14.73,0,0,1,5.36-.92,17.32,17.32,0,0,1,4.61.62,11.78,11.78,0,0,1,4,2,9.93,9.93,0,0,1,2.87,3.62A12.47,12.47,0,0,1,181.36,55V78.44Z"/><path class="cls-2" d="M195.28,78.44V50.84h-7v-7.6h7V34.36h10.48v8.88h9v7.6h-9v27.6Z"/></g></svg>