<svg xmlns="http://www.w3.org/2000/svg" viewBox="0 0 256 128"><defs><style>.cls-1{fill:#fff200;}.cls-2{fill:#323232;}</style></defs><g id="_3_Hot_air_ballons" data-name="3 Hot air ballons"><path class="cls-1" d="M58,65a5.65,5.65,0,0,1-2.24,4.62,8.28,8.28,0,0,1-2.66,1.32,11.72,11.72,0,0,1-3.46.48A14.08,14.08,0,0,1,47,71.18a9.15,9.15,0,0,1-2.19-.67,8.56,8.56,0,0,1-1.94-1.23A15.45,15.45,0,0,1,41,67.42l2.25-3c1.77,2,3.66,3,5.68,3a4.11,4.11,0,0,0,2.66-.78,2.71,2.71,0,0,0,1-2.08A2.66,2.66,0,0,0,52.37,63a2.77,2.77,0,0,0-1.16-1.14,6.52,6.52,0,0,0-2.27-.67,18.88,18.88,0,0,0-3.61-.07v-4a26.73,26.73,0,0,0,3.42,0,6,6,0,0,0,2.11-.47,2.31,2.31,0,0,0,1.09-1,3.19,3.19,0,0,0,.32-1.49,2.47,2.47,0,0,0-1-1.88,3.86,3.86,0,0,0-2.45-.71,5.64,5.64,0,0,0-2.41.53A9.94,9.94,0,0,0,44,53.93l-1.9-3.21q2.55-3.06,7.85-3.06a10,10,0,0,1,3,.43,6.87,6.87,0,0,1,2.29,1.22,5.47,5.47,0,0,1,1.46,1.89,5.9,5.9,0,0,1,.51,2.49,5.19,5.19,0,0,1-1,3.28,7.79,7.79,0,0,1-3.26,2.19,6.36,6.36,0,0,1,3.76,1.91A5.69,5.69,0,0,1,58,65Z"/><path class="cls-2" d="M80.23,71.4a3.44,3.44,0,0,0,0-.51c0-.16,0-.35,0-.57s0-.45-.05-.69a4.71,4.71,0,0,1-1.95,1.54,6.38,6.38,0,0,1-2.56.53,4.74,4.74,0,0,1-3.83-1.62,6.92,6.92,0,0,1-1.37-4.62,7.11,7.11,0,0,1,2.2-5.6,9.14,9.14,0,0,1,6.28-2c.45,0,.86,0,1.22,0s.73,0,1.1.1.74.12,1.12.2.81.19,1.28.33v8.52c0,.46,0,.94,0,1.45s0,1,.09,1.4l.12,1.47Zm-.63-9.78a6.17,6.17,0,0,0-.95-.15l-.79,0a3.21,3.21,0,0,0-2.57,1.06,4.4,4.4,0,0,0-.91,3,2.91,2.91,0,0,0,.55,1.92,1.89,1.89,0,0,0,1.55.66,2.78,2.78,0,0,0,1.21-.27,3,3,0,0,0,1-.77,3.54,3.54,0,0,0,.67-1.17,4.23,4.23,0,0,0,.25-1.51Z"/><path class="cls-2" d="M99.46,61.83a3.37,3.37,0,0,1-.54,1.86,4.37,4.37,0,0,1-1.5,1.42,8.34,8.34,0,0,1-2.34.92,13,13,0,0,1-3.06.33l-.36,0h-.48a2.71,2.71,0,0,0,.9,1.78,2.84,2.84,0,0,0,1.94.65,8.89,8.89,0,0,0,4.42-1.35v3.15a8.66,8.66,0,0,1-2.18.94,9.06,9.06,0,0,1-2.35.29,7.8,7.8,0,0,1-2.72-.45,5.51,5.51,0,0,1-2-1.31,5.82,5.82,0,0,1-1.29-2,7.49,7.49,0,0,1-.45-2.68,8.36,8.36,0,0,1,.52-3,7,7,0,0,1,1.47-2.35,6.5,6.5,0,0,1,2.27-1.53,7.62,7.62,0,0,1,2.91-.54A5.47,5.47,0,0,1,98.12,59,3.52,3.52,0,0,1,99.46,61.83Zm-4,.3a1.07,1.07,0,0,0-.41-.83A1.57,1.57,0,0,0,94,61a2.36,2.36,0,0,0-1.71.7,3.37,3.37,0,0,0-.92,1.94,2.4,2.4,0,0,0,.47.06h.45C94.41,63.66,95.47,63.15,95.47,62.13Z"/><path class="cls-2" d="M111.76,61.89l-.66-.12a4.39,4.39,0,0,0-.54,0,3.06,3.06,0,0,0-2.6,1.17,5.72,5.72,0,0,0-.88,3.48v5h-4V62.73c0-.49,0-.91,0-1.28s0-.7-.07-1a9.32,9.32,0,0,0-.17-.92c-.07-.31-.16-.66-.28-1.05h3.78c.07.25.12.46.18.63a3.4,3.4,0,0,1,.1.5c0,.15,0,.32.07.49a5.53,5.53,0,0,1,0,.63,6.68,6.68,0,0,1,1.7-1.95,3.28,3.28,0,0,1,1.91-.57,2.8,2.8,0,0,1,.7.07,5.81,5.81,0,0,1,.8.3Z"/><path class="cls-2" d="M126.7,64.75a7.54,7.54,0,0,1-.5,2.84,5.5,5.5,0,0,1-1.4,2.08A6,6,0,0,1,122.62,71a8.69,8.69,0,0,1-2.82.44A8.6,8.6,0,0,1,117,71a6,6,0,0,1-2.19-1.29,5.77,5.77,0,0,1-1.41-2.08,8.12,8.12,0,0,1,0-5.61,5.82,5.82,0,0,1,1.39-2.06,5.93,5.93,0,0,1,2.18-1.29,9.74,9.74,0,0,1,5.69,0,5.9,5.9,0,0,1,2.18,1.26,5.35,5.35,0,0,1,1.4,2.06A7.49,7.49,0,0,1,126.7,64.75Zm-4,0a3,3,0,0,0-.81-2.23,2.93,2.93,0,0,0-2.16-.79,2.79,2.79,0,0,0-2.14.79,3.11,3.11,0,0,0-.74,2.23,3.33,3.33,0,0,0,.72,2.29,2.77,2.77,0,0,0,2.16.81,2.9,2.9,0,0,0,2.19-.8A3.16,3.16,0,0,0,122.71,64.76Z"/><path class="cls-2" d="M143.62,64a10.16,10.16,0,0,1-.42,3A7.21,7.21,0,0,1,142,69.35a5.27,5.27,0,0,1-1.82,1.51,5.54,5.54,0,0,1-3.9.33,4.65,4.65,0,0,1-1.34-.78v9.93h-4.2V62.15c0-.21,0-.47-.05-.76s-.07-.61-.12-.93-.11-.65-.18-1a6.72,6.72,0,0,0-.25-.89h4.06a2.68,2.68,0,0,1,.22.58,7,7,0,0,1,.13.83,6.31,6.31,0,0,1,1.81-1.38,4.72,4.72,0,0,1,2.07-.42,5.36,5.36,0,0,1,2.11.41,4.61,4.61,0,0,1,1.63,1.19,5.2,5.2,0,0,1,1.06,1.84A7.2,7.2,0,0,1,143.62,64Zm-4,.67a2.82,2.82,0,0,0-.6-1.93,2.07,2.07,0,0,0-1.64-.69,2.36,2.36,0,0,0-1.94.88,3.64,3.64,0,0,0-.71,2.37v1.74a3.18,3.18,0,0,0,2.12.8,2.54,2.54,0,0,0,2-.84A3.4,3.4,0,0,0,139.63,64.69Z"/><path class="cls-2" d="M147.76,71.4V50.49h4V71.4Z"/><path class="cls-2" d="M165.64,71.4c0-.14,0-.31,0-.51s0-.35,0-.57,0-.45-.05-.69a4.68,4.68,0,0,1-2,1.54,6.3,6.3,0,0,1-2.55.53,4.76,4.76,0,0,1-3.84-1.62,7,7,0,0,1-1.36-4.62,7.11,7.11,0,0,1,2.2-5.6,9.12,9.12,0,0,1,6.28-2c.45,0,.85,0,1.22,0s.73,0,1.09.1.74.12,1.13.2.81.19,1.28.33v8.52c0,.46,0,.94,0,1.45s.05,1,.09,1.4.08,1,.12,1.47ZM165,61.62a6.17,6.17,0,0,0-.95-.15l-.79,0a3.21,3.21,0,0,0-2.57,1.06,4.4,4.4,0,0,0-.91,3,2.91,2.91,0,0,0,.55,1.92,1.89,1.89,0,0,0,1.55.66,2.78,2.78,0,0,0,1.21-.27,3,3,0,0,0,1-.77,3.54,3.54,0,0,0,.67-1.17,4.23,4.23,0,0,0,.25-1.51Z"/><path class="cls-2" d="M181.93,71.4V63.91a3.06,3.06,0,0,0-.2-1.22,1.67,1.67,0,0,0-.46-.65,1.23,1.23,0,0,0-.57-.26,3.44,3.44,0,0,0-.51,0,2.72,2.72,0,0,0-.63.11,2.21,2.21,0,0,0-.92.55,3.82,3.82,0,0,0-.82,1.27,5.83,5.83,0,0,0-.36,2.26V71.4h-4V62.67a15,15,0,0,0-.18-2.28,7.33,7.33,0,0,0-.48-1.83h4a5.58,5.58,0,0,1,.25.69c0,.18.11.44.17.78a6.18,6.18,0,0,1,2.05-1.38,6,6,0,0,1,2.24-.45,4.25,4.25,0,0,1,3.14,1.32,4.67,4.67,0,0,1,.93,1.55,6.09,6.09,0,0,1,.34,2.06V71.4Z"/><path class="cls-2" d="M202.21,61.83a3.37,3.37,0,0,1-.54,1.86,4.46,4.46,0,0,1-1.5,1.42,8.34,8.34,0,0,1-2.34.92,13,13,0,0,1-3.06.33l-.36,0h-.48a2.71,2.71,0,0,0,.9,1.78,2.84,2.84,0,0,0,1.94.65,8.89,8.89,0,0,0,4.42-1.35v3.15a8.66,8.66,0,0,1-2.18.94,9.06,9.06,0,0,1-2.35.29,7.8,7.8,0,0,1-2.72-.45A5.51,5.51,0,0,1,191.89,70a5.82,5.82,0,0,1-1.29-2,7.49,7.49,0,0,1-.45-2.68,8.36,8.36,0,0,1,.52-3,7,7,0,0,1,1.47-2.35,6.5,6.5,0,0,1,2.27-1.53,7.62,7.62,0,0,1,2.91-.54A5.47,5.47,0,0,1,200.87,59,3.52,3.52,0,0,1,202.21,61.83Zm-4,.3a1,1,0,0,0-.42-.83,1.52,1.52,0,0,0-1-.34,2.36,2.36,0,0,0-1.71.7,3.31,3.31,0,0,0-.92,1.94,2.4,2.4,0,0,0,.47.06h.45C197.16,63.66,198.22,63.15,198.22,62.13Z"/><path class="cls-2" d="M215,67.74a3.8,3.8,0,0,1-1.27,3,5.27,5.27,0,0,1-3.58,1.11,14.93,14.93,0,0,1-3-.3,8.85,8.85,0,0,1-2.4-.81l.51-3.06A10.24,10.24,0,0,0,209.77,69a1.29,1.29,0,0,0,.94-.29.88.88,0,0,0,.29-.64,1.17,1.17,0,0,0-.23-.74,3.4,3.4,0,0,0-1.09-.7,18,18,0,0,1-2.12-1.08,7,7,0,0,1-1.44-1.13,3.79,3.79,0,0,1-.81-1.24,4.14,4.14,0,0,1-.25-1.5,3.38,3.38,0,0,1,1.45-2.93,6.37,6.37,0,0,1,3.79-1,11.66,11.66,0,0,1,2.23.19,10.3,10.3,0,0,1,2.24.77l-.48,3a7.13,7.13,0,0,0-2.06-.83,9.22,9.22,0,0,0-2-.22,1.38,1.38,0,0,0-1,.25.92.92,0,0,0-.25.68,1,1,0,0,0,.41.82,8,8,0,0,0,1.6.83,18.77,18.77,0,0,1,1.82,1,6.14,6.14,0,0,1,1.22,1,3.12,3.12,0,0,1,.68,1.11A3.87,3.87,0,0,1,215,67.74Z"/></g></svg>