<svg xmlns="http://www.w3.org/2000/svg" viewBox="0 0 256 128"><defs><style>.cls-1{opacity:0.5;}.cls-2{fill:#fff200;}</style></defs><g id="Layer_35" data-name="Layer 35"><g class="cls-1"><path d="M79.44,89.56v-20a8,8,0,0,0-.52-3.23,4.69,4.69,0,0,0-1.24-1.74,3.12,3.12,0,0,0-1.52-.69,9.4,9.4,0,0,0-1.36-.12,7.76,7.76,0,0,0-1.68.31,5.67,5.67,0,0,0-2.44,1.47A9.89,9.89,0,0,0,68.48,69a15.5,15.5,0,0,0-1,6V89.56H56.88V66.29a39.87,39.87,0,0,0-.48-6.07,19.89,19.89,0,0,0-1.28-4.9H65.76a15,15,0,0,1,.68,1.84c.13.48.28,1.17.44,2.08a16.62,16.62,0,0,1,5.49-3.68,15.81,15.81,0,0,1,6-1.2,11.65,11.65,0,0,1,4.66.93,11.27,11.27,0,0,1,3.72,2.61A12,12,0,0,1,89.18,62a15.89,15.89,0,0,1,.9,5.49v22Z"/><path d="M115.36,44.7a4.39,4.39,0,0,1-1.84,3.56,7.42,7.42,0,0,1-8.88,0,4.79,4.79,0,0,1-1.92-3.67,4.34,4.34,0,0,1,1.76-3.67,7.63,7.63,0,0,1,7-1.08,6.18,6.18,0,0,1,2,1.12,5.73,5.73,0,0,1,1.36,1.69A4.36,4.36,0,0,1,115.36,44.7Zm-12,44.86V54.36H114v35.2Z"/><path d="M148.8,89.56v-20a8,8,0,0,0-.52-3.23A4.69,4.69,0,0,0,147,64.61a3.12,3.12,0,0,0-1.52-.69,9.4,9.4,0,0,0-1.36-.12,7.76,7.76,0,0,0-1.68.31A5.67,5.67,0,0,0,140,65.58a9.89,9.89,0,0,0-2.2,3.39,15.5,15.5,0,0,0-1,6V89.56H126.24V66.29a39.87,39.87,0,0,0-.48-6.07,19.89,19.89,0,0,0-1.28-4.9h10.64a15,15,0,0,1,.68,1.84c.13.48.28,1.17.44,2.08a16.62,16.62,0,0,1,5.49-3.68,15.8,15.8,0,0,1,6-1.2,11.69,11.69,0,0,1,4.67.93,11.38,11.38,0,0,1,3.72,2.61A12.18,12.18,0,0,1,158.54,62a15.89,15.89,0,0,1,.9,5.49v22Z"/><path d="M202.88,64a9.13,9.13,0,0,1-1.42,5,12,12,0,0,1-4,3.8,22.19,22.19,0,0,1-6.23,2.44,34.51,34.51,0,0,1-8.15.88c-.28,0-.6,0-1,0s-.79,0-1.29,0a7.39,7.39,0,0,0,2.4,4.76,7.59,7.59,0,0,0,5.18,1.72,23.67,23.67,0,0,0,11.78-3.6v8.4a23.48,23.48,0,0,1-5.8,2.52,24.18,24.18,0,0,1-6.28.76,20.71,20.71,0,0,1-7.24-1.2,14.7,14.7,0,0,1-5.48-3.48,15.53,15.53,0,0,1-3.44-5.44,20.06,20.06,0,0,1-1.2-7.16,22.11,22.11,0,0,1,1.4-8A18.61,18.61,0,0,1,176,59a17.25,17.25,0,0,1,6-4.08,20.27,20.27,0,0,1,7.76-1.44q5.92,0,9.48,2.88A9.39,9.39,0,0,1,202.88,64Zm-10.64.8a2.79,2.79,0,0,0-1.1-2.2,4.16,4.16,0,0,0-2.76-.92,6.35,6.35,0,0,0-4.57,1.88,9,9,0,0,0-2.45,5.16,6.41,6.41,0,0,0,1.27.16h1.18Q192.24,68.92,192.24,64.84Z"/></g><path class="cls-2" d="M77.44,87.56v-20a8,8,0,0,0-.52-3.23,4.69,4.69,0,0,0-1.24-1.74,3.12,3.12,0,0,0-1.52-.69,9.4,9.4,0,0,0-1.36-.12,7.76,7.76,0,0,0-1.68.31,5.67,5.67,0,0,0-2.44,1.47A9.89,9.89,0,0,0,66.48,67a15.5,15.5,0,0,0-1,6V87.56H54.88V64.29a39.87,39.87,0,0,0-.48-6.07,19.89,19.89,0,0,0-1.28-4.9H63.76a15,15,0,0,1,.68,1.84c.13.48.28,1.17.44,2.08a16.62,16.62,0,0,1,5.49-3.68,15.81,15.81,0,0,1,6-1.2,11.65,11.65,0,0,1,4.66.93,11.27,11.27,0,0,1,3.72,2.61A12,12,0,0,1,87.18,60a15.89,15.89,0,0,1,.9,5.49v22Z"/><path class="cls-2" d="M113.36,42.7a4.39,4.39,0,0,1-1.84,3.56,7.42,7.42,0,0,1-8.88,0,4.79,4.79,0,0,1-1.92-3.67,4.34,4.34,0,0,1,1.76-3.67,7.63,7.63,0,0,1,7-1.08,6.18,6.18,0,0,1,2,1.12,5.73,5.73,0,0,1,1.36,1.69A4.36,4.36,0,0,1,113.36,42.7Zm-12,44.86V52.36H112v35.2Z"/><path class="cls-2" d="M146.8,87.56v-20a8,8,0,0,0-.52-3.23A4.69,4.69,0,0,0,145,62.61a3.12,3.12,0,0,0-1.52-.69,9.4,9.4,0,0,0-1.36-.12,7.76,7.76,0,0,0-1.68.31A5.67,5.67,0,0,0,138,63.58a9.89,9.89,0,0,0-2.2,3.39,15.5,15.5,0,0,0-1,6V87.56H124.24V64.29a39.87,39.87,0,0,0-.48-6.07,19.89,19.89,0,0,0-1.28-4.9h10.64a15,15,0,0,1,.68,1.84c.13.48.28,1.17.44,2.08a16.62,16.62,0,0,1,5.49-3.68,15.8,15.8,0,0,1,6-1.2,11.69,11.69,0,0,1,4.67.93,11.38,11.38,0,0,1,3.72,2.61A12.18,12.18,0,0,1,156.54,60a15.89,15.89,0,0,1,.9,5.49v22Z"/><path class="cls-2" d="M200.88,62a9.13,9.13,0,0,1-1.42,5,12,12,0,0,1-4,3.8,22.19,22.19,0,0,1-6.23,2.44,34.51,34.51,0,0,1-8.15.88c-.28,0-.6,0-1,0s-.79,0-1.29,0a7.39,7.39,0,0,0,2.4,4.76,7.59,7.59,0,0,0,5.18,1.72,23.67,23.67,0,0,0,11.78-3.6v8.4a23.48,23.48,0,0,1-5.8,2.52,24.18,24.18,0,0,1-6.28.76,20.71,20.71,0,0,1-7.24-1.2,14.7,14.7,0,0,1-5.48-3.48,15.53,15.53,0,0,1-3.44-5.44,20.06,20.06,0,0,1-1.2-7.16,22.11,22.11,0,0,1,1.4-8A18.61,18.61,0,0,1,174,57a17.25,17.25,0,0,1,6-4.08,20.27,20.27,0,0,1,7.76-1.44q5.92,0,9.48,2.88A9.39,9.39,0,0,1,200.88,62Zm-10.64.8a2.79,2.79,0,0,0-1.1-2.2,4.16,4.16,0,0,0-2.76-.92,6.35,6.35,0,0,0-4.57,1.88,9,9,0,0,0-2.45,5.16,6.41,6.41,0,0,0,1.27.16h1.18Q190.24,66.92,190.24,62.84Z"/></g></svg>