<svg id="_1_Train_engine" data-name="1 Train engine" xmlns="http://www.w3.org/2000/svg" viewBox="0 0 256 128"><defs><style>.cls-1{fill:#fff200;}.cls-2{fill:#323232;}</style></defs><path class="cls-1" d="M82,75.64l0-2.67c.71-.82,1.45-1.64,2.23-2.45l2.33-2.42c.77-.8,1.51-1.58,2.21-2.35a21.11,21.11,0,0,0,1.85-2.32A13,13,0,0,0,92,61.13a5.89,5.89,0,0,0,.48-2.3,2.55,2.55,0,0,0-.89-2,3.2,3.2,0,0,0-2.18-.76,3.63,3.63,0,0,0-1.64.36,4.11,4.11,0,0,0-1.26.95,6.86,6.86,0,0,0-.92,1.27A10.93,10.93,0,0,0,84.89,60l-3.27-2.37c.23-.51.51-1.1.85-1.76A7,7,0,0,1,84,54a8.25,8.25,0,0,1,2.52-1.5,10.61,10.61,0,0,1,4-.62,9.54,9.54,0,0,1,3,.45,6.63,6.63,0,0,1,2.33,1.27,5.4,5.4,0,0,1,1.49,2,6.37,6.37,0,0,1,.52,2.63,8.91,8.91,0,0,1-1,4,21.53,21.53,0,0,1-2.43,3.76,28.73,28.73,0,0,1-3,3.2c-1,1-1.93,1.73-2.66,2.35H98v4Z"/><path class="cls-2" d="M124.28,68.09a9,9,0,0,1-.52,3.1A6.52,6.52,0,0,1,120,75.1a8,8,0,0,1-3,.54,15.12,15.12,0,0,1-3-.31,14,14,0,0,1-2.82-.85V55.07h4V64a4.85,4.85,0,0,1,1.71-1.16,6,6,0,0,1,2.18-.38,5.51,5.51,0,0,1,2.14.4A4.68,4.68,0,0,1,122.83,64a5.13,5.13,0,0,1,1.07,1.78A6.86,6.86,0,0,1,124.28,68.09Zm-4,.72a2.58,2.58,0,0,0-.61-1.83,2.14,2.14,0,0,0-1.69-.67,2.76,2.76,0,0,0-1.21.25,2.88,2.88,0,0,0-.92.66,2.91,2.91,0,0,0-.57,1,3.43,3.43,0,0,0-.19,1.15v2.28A3.56,3.56,0,0,0,116,72a6.32,6.32,0,0,0,1.09.08,3.1,3.1,0,0,0,2.32-.85A3.26,3.26,0,0,0,120.29,68.81Z"/><path class="cls-2" d="M132.68,58.82a1.64,1.64,0,0,1-.69,1.33,2.55,2.55,0,0,1-1.65.55,2.6,2.6,0,0,1-1.68-.56,1.79,1.79,0,0,1-.72-1.37,1.62,1.62,0,0,1,.66-1.38,2.73,2.73,0,0,1,3.37,0,2.12,2.12,0,0,1,.51.64A1.68,1.68,0,0,1,132.68,58.82Zm-4.5,16.82V62.44h4v13.2Z"/><path class="cls-2" d="M145.73,66.13l-.66-.12a4.39,4.39,0,0,0-.54,0,3.06,3.06,0,0,0-2.6,1.17,5.76,5.76,0,0,0-.88,3.49v5h-4V67c0-.49,0-.92,0-1.28s0-.7-.07-1a9,9,0,0,0-.17-.93c-.07-.3-.16-.65-.28-1h3.79c.06.24.11.45.17.63a3.28,3.28,0,0,1,.1.49c0,.16,0,.32.07.49a5.85,5.85,0,0,1,0,.64,6.6,6.6,0,0,1,1.7-2,3.28,3.28,0,0,1,1.91-.57,2.75,2.75,0,0,1,.7.08,7,7,0,0,1,.8.29Z"/><path class="cls-2" d="M157.31,75.64q0-.18-.06-.42t-.06-.48c0-.18-.05-.4-.07-.66a5.5,5.5,0,0,1-2,1.49,6.19,6.19,0,0,1-2.38.43,5.92,5.92,0,0,1-2.39-.46,5.29,5.29,0,0,1-1.82-1.29,5.9,5.9,0,0,1-1.17-2,7.68,7.68,0,0,1-.42-2.61,8.92,8.92,0,0,1,.49-3,7.26,7.26,0,0,1,1.38-2.38A6.18,6.18,0,0,1,151,62.67a6.49,6.49,0,0,1,2.7-.56,9.33,9.33,0,0,1,1.32.09,7.72,7.72,0,0,1,1.47.39V54.73h4V71.08c0,.34,0,.77,0,1.29s.07,1,.11,1.5.09,1.15.15,1.77ZM156.44,66a4.4,4.4,0,0,0-1.11-.3,9.25,9.25,0,0,0-1.08-.06,3,3,0,0,0-2.41,1,4.16,4.16,0,0,0-.89,2.83,3.07,3.07,0,0,0,.62,2.06,2.14,2.14,0,0,0,1.72.73,3.61,3.61,0,0,0,1.23-.21,2.33,2.33,0,0,0,1-.72,3.85,3.85,0,0,0,.67-1.33,7.48,7.48,0,0,0,.25-2.06Z"/><path class="cls-2" d="M174.38,72a3.8,3.8,0,0,1-1.27,3,5.27,5.27,0,0,1-3.58,1.11,14.93,14.93,0,0,1-3-.3,8.85,8.85,0,0,1-2.4-.81l.51-3.06a10.24,10.24,0,0,0,4.56,1.35,1.29,1.29,0,0,0,.94-.28.91.91,0,0,0,.29-.65,1.14,1.14,0,0,0-.23-.73,3.38,3.38,0,0,0-1.09-.71A18,18,0,0,1,167,69.82a7,7,0,0,1-1.44-1.12,3.82,3.82,0,0,1-.81-1.25,4.14,4.14,0,0,1-.25-1.5A3.37,3.37,0,0,1,165.9,63a6.37,6.37,0,0,1,3.79-1,11.55,11.55,0,0,1,2.23.2,10.22,10.22,0,0,1,2.24.76l-.48,3a7,7,0,0,0-2.06-.82,9.25,9.25,0,0,0-2-.23,1.4,1.4,0,0,0-1,.26.9.9,0,0,0-.25.67,1,1,0,0,0,.41.83,8.47,8.47,0,0,0,1.6.82,18.67,18.67,0,0,1,1.82,1,6.53,6.53,0,0,1,1.23,1,3.43,3.43,0,0,1,.68,1.11A4.08,4.08,0,0,1,174.38,72Z"/></svg>