<svg xmlns="http://www.w3.org/2000/svg" viewBox="0 0 256 128"><defs><style>.cls-1{fill:#ff0;}.cls-2{fill:#323232;}</style></defs><g id="_3_Hot_air_ballons" data-name="3 Hot air ballons"><path class="cls-1" d="M51.88,75.9H47.33l.27-10a6.52,6.52,0,0,1-1.94,1.19,7,7,0,0,1-2.28.34,7.05,7.05,0,0,1-2.84-.55,6.3,6.3,0,0,1-2.19-1.54,7,7,0,0,1-1.41-2.4,9.3,9.3,0,0,1-.49-3.13A9.08,9.08,0,0,1,37,56.4a6.95,6.95,0,0,1,4.35-4.18,10.36,10.36,0,0,1,3.52-.57,7.44,7.44,0,0,1,5.51,2,7.09,7.09,0,0,1,1.87,5.47ZM47.56,58.59a2.65,2.65,0,0,0-.22-1.11,2.87,2.87,0,0,0-.61-.86A2.76,2.76,0,0,0,45.8,56a3.22,3.22,0,0,0-1.16-.2,3.13,3.13,0,0,0-2.48,1,4.26,4.26,0,0,0-.92,2.89,3.76,3.76,0,0,0,.8,2.55,2.8,2.8,0,0,0,2.23.92,3.07,3.07,0,0,0,2.31-.92,3.77,3.77,0,0,0,1-2.55Z"/><path class="cls-2" d="M82.94,75.9V69.37a4.29,4.29,0,0,0-.51-2.45,1.6,1.6,0,0,0-1.37-.68,2,2,0,0,0-.89.21,2.23,2.23,0,0,0-.82.7,3.71,3.71,0,0,0-.6,1.31,7.93,7.93,0,0,0-.22,2.05V75.9h-4V69.37A4.68,4.68,0,0,0,74.07,67a1.67,1.67,0,0,0-1.54-.75,2.16,2.16,0,0,0-1.77,1A5.54,5.54,0,0,0,70,70.51V75.9H66V67.61c0-.49,0-.93,0-1.33s-.06-.77-.11-1.12a8.62,8.62,0,0,0-.21-1c-.09-.33-.19-.68-.31-1.05h4l.22.7a6.3,6.3,0,0,1,.17.67,9.26,9.26,0,0,1,2.07-1.28,6.78,6.78,0,0,1,2.74-.49,4.67,4.67,0,0,1,2,.43A3,3,0,0,1,78,64.34a4.46,4.46,0,0,1,2-1.22,8.31,8.31,0,0,1,2.59-.42,4.25,4.25,0,0,1,3.24,1.19,4.84,4.84,0,0,1,1.14,3.47V75.9Z"/><path class="cls-2" d="M100.64,75.54a5.91,5.91,0,0,1-.26-.69c0-.18-.1-.44-.16-.78A5.87,5.87,0,0,1,96,75.9a4.43,4.43,0,0,1-3.23-1.38A4.29,4.29,0,0,1,91.82,73a5.9,5.9,0,0,1-.33-2q0-1.23.06-2.28t.09-2c0-.64,0-1.29,0-1.93s-.07-1.32-.15-2h4c.06.65.09,1.28.1,1.89s0,1.21,0,1.81,0,1.2-.06,1.82,0,1.27,0,2a3.4,3.4,0,0,0,.18,1.23,1.47,1.47,0,0,0,.49.65,1.5,1.5,0,0,0,.61.24,3.87,3.87,0,0,0,.53,0,3,3,0,0,0,.64-.12,2.18,2.18,0,0,0,.91-.55,3.69,3.69,0,0,0,.79-1.27,6.05,6.05,0,0,0,.35-2.26V62.7h4v8.72a15,15,0,0,0,.18,2.28,7.43,7.43,0,0,0,.48,1.84Z"/><path class="cls-2" d="M118.4,72.24a3.8,3.8,0,0,1-1.27,3,5.27,5.27,0,0,1-3.58,1.11,14.93,14.93,0,0,1-3-.3,8.85,8.85,0,0,1-2.4-.81l.51-3.06a10.24,10.24,0,0,0,4.56,1.35,1.29,1.29,0,0,0,.94-.29.88.88,0,0,0,.29-.64,1.17,1.17,0,0,0-.23-.74,3.4,3.4,0,0,0-1.09-.7A18,18,0,0,1,111,70.08,7,7,0,0,1,109.53,69a3.79,3.79,0,0,1-.81-1.24,4.14,4.14,0,0,1-.25-1.5,3.38,3.38,0,0,1,1.45-2.93,6.37,6.37,0,0,1,3.79-1,11.66,11.66,0,0,1,2.23.19,10.3,10.3,0,0,1,2.24.77l-.48,3a7.13,7.13,0,0,0-2.06-.83,9.22,9.22,0,0,0-2-.22,1.38,1.38,0,0,0-1,.25.92.92,0,0,0-.25.68,1,1,0,0,0,.41.82,8.34,8.34,0,0,0,1.6.83,18.77,18.77,0,0,1,1.82,1,6.53,6.53,0,0,1,1.23,1,3.24,3.24,0,0,1,.67,1.11A3.87,3.87,0,0,1,118.4,72.24Z"/><path class="cls-2" d="M130.61,75.9V68.43a4,4,0,0,0-.14-1.15,1.6,1.6,0,0,0-.38-.67,1.28,1.28,0,0,0-.56-.3,2.67,2.67,0,0,0-.64-.07,1.79,1.79,0,0,0-1,.3,3.14,3.14,0,0,0-.85.82,4.9,4.9,0,0,0-.82,2.72V75.9h-4V55.35h4V64.2A4.57,4.57,0,0,1,127.85,63a5.5,5.5,0,0,1,2-.34,6.23,6.23,0,0,1,1.73.23,4.35,4.35,0,0,1,1.51.74A3.75,3.75,0,0,1,134.18,65a4.67,4.67,0,0,1,.42,2.08V75.9Z"/><path class="cls-2" d="M148.46,66.39l-.66-.12a4.39,4.39,0,0,0-.54,0,3.06,3.06,0,0,0-2.6,1.17,5.72,5.72,0,0,0-.88,3.48v5h-4V67.23c0-.49,0-.91,0-1.28s0-.7-.07-1a9.32,9.32,0,0,0-.17-.92c-.07-.31-.16-.66-.28-1H143c.06.25.12.46.17.63a3.49,3.49,0,0,1,.11.5c0,.15,0,.32.06.49a5.53,5.53,0,0,1,0,.63,6.83,6.83,0,0,1,1.71-1.95A3.28,3.28,0,0,1,147,62.7a2.8,2.8,0,0,1,.7.07,5.81,5.81,0,0,1,.8.3Z"/><path class="cls-2" d="M163.4,69.25a7.54,7.54,0,0,1-.5,2.84,5.62,5.62,0,0,1-1.4,2.08,6,6,0,0,1-2.18,1.29,9.29,9.29,0,0,1-5.65,0,6,6,0,0,1-2.18-1.29,5.92,5.92,0,0,1-1.42-2.08,7.54,7.54,0,0,1-.5-2.84,7.32,7.32,0,0,1,.49-2.77,5.71,5.71,0,0,1,3.57-3.35,8.87,8.87,0,0,1,2.87-.43,9,9,0,0,1,2.82.42,6,6,0,0,1,2.18,1.26,5.46,5.46,0,0,1,1.4,2.06A7.49,7.49,0,0,1,163.4,69.25Zm-4,0a2.77,2.77,0,0,0-3-3,2.77,2.77,0,0,0-2.13.79,3.11,3.11,0,0,0-.74,2.23,3.33,3.33,0,0,0,.72,2.29,2.75,2.75,0,0,0,2.15.81,2.92,2.92,0,0,0,2.2-.8A3.16,3.16,0,0,0,159.41,69.26Z"/><path class="cls-2" d="M180.34,69.25a7.54,7.54,0,0,1-.49,2.84,5.62,5.62,0,0,1-1.4,2.08,6,6,0,0,1-2.18,1.29,9.29,9.29,0,0,1-5.65,0,6,6,0,0,1-2.18-1.29A5.79,5.79,0,0,1,167,72.09a8,8,0,0,1,0-5.61,5.71,5.71,0,0,1,3.57-3.35,8.87,8.87,0,0,1,2.87-.43,9,9,0,0,1,2.82.42,6,6,0,0,1,2.18,1.26,5.46,5.46,0,0,1,1.4,2.06A7.49,7.49,0,0,1,180.34,69.25Zm-4,0a2.77,2.77,0,0,0-3-3,2.77,2.77,0,0,0-2.13.79,3.11,3.11,0,0,0-.74,2.23,3.33,3.33,0,0,0,.72,2.29,2.75,2.75,0,0,0,2.15.81,2.92,2.92,0,0,0,2.2-.8A3.16,3.16,0,0,0,176.36,69.26Z"/><path class="cls-2" d="M201.31,75.9V69.37a4.3,4.3,0,0,0-.5-2.45,1.61,1.61,0,0,0-1.37-.68,2.11,2.11,0,0,0-.9.21,2.4,2.4,0,0,0-.82.7,3.9,3.9,0,0,0-.59,1.31,7.93,7.93,0,0,0-.22,2.05V75.9h-4V69.37a4.69,4.69,0,0,0-.46-2.38,1.68,1.68,0,0,0-1.54-.75,2.13,2.13,0,0,0-1.77,1,5.46,5.46,0,0,0-.75,3.26V75.9h-4V67.61c0-.49,0-.93,0-1.33s-.05-.77-.1-1.12a8.62,8.62,0,0,0-.21-1c-.09-.33-.2-.68-.32-1.05h4l.23.7a6.79,6.79,0,0,1,.16.67,9.55,9.55,0,0,1,2.08-1.28,6.75,6.75,0,0,1,2.74-.49,4.7,4.7,0,0,1,2,.43,3,3,0,0,1,1.35,1.21,4.46,4.46,0,0,1,2-1.22,8.29,8.29,0,0,1,2.58-.42,4.25,4.25,0,0,1,3.24,1.19,4.84,4.84,0,0,1,1.14,3.47V75.9Z"/><path class="cls-2" d="M219.55,72.24a3.77,3.77,0,0,1-1.27,3,5.23,5.23,0,0,1-3.57,1.11,14.93,14.93,0,0,1-3-.3,8.85,8.85,0,0,1-2.4-.81l.51-3.06a10.2,10.2,0,0,0,4.56,1.35,1.31,1.31,0,0,0,.94-.29.88.88,0,0,0,.29-.64,1.17,1.17,0,0,0-.23-.74,3.53,3.53,0,0,0-1.09-.7,18,18,0,0,1-2.12-1.08A7,7,0,0,1,210.69,69a3.79,3.79,0,0,1-.81-1.24,4.14,4.14,0,0,1-.25-1.5,3.38,3.38,0,0,1,1.45-2.93,6.35,6.35,0,0,1,3.78-1,11.7,11.7,0,0,1,2.24.19,10.3,10.3,0,0,1,2.24.77l-.48,3a7.13,7.13,0,0,0-2.06-.83,9.29,9.29,0,0,0-2-.22,1.37,1.37,0,0,0-1,.25.93.93,0,0,0-.26.68,1,1,0,0,0,.42.82,8,8,0,0,0,1.6.83,20.06,20.06,0,0,1,1.82,1,6.14,6.14,0,0,1,1.22,1,3.12,3.12,0,0,1,.68,1.11A3.87,3.87,0,0,1,219.55,72.24Z"/></g></svg>