<svg xmlns="http://www.w3.org/2000/svg" viewBox="0 0 256 128"><defs><style>.cls-1{fill:#fff200;}.cls-2{fill:#323232;}</style></defs><g id="_3_Hot_air_ballons" data-name="3 Hot air ballons"><path class="cls-1" d="M52.42,75.64V57.1c-.46.53-.89,1-1.3,1.41s-.85.87-1.32,1.35L47.55,56.8q1-.88,2-1.77c.54-.5,1.1-1,1.66-1.59a19.27,19.27,0,0,0,1.4-1.53h4.35V75.64Z"/><path class="cls-1" d="M80.81,63.37c0,4.32-.75,7.44-2.23,9.37A7.83,7.83,0,0,1,72,75.64a7.84,7.84,0,0,1-6.63-2.91c-1.48-1.94-2.23-4.92-2.23-8.94s.75-7,2.23-8.94A7.81,7.81,0,0,1,72,51.91Q80.8,51.91,80.81,63.37Zm-5.34.19A15.12,15.12,0,0,0,74.58,58,2.68,2.68,0,0,0,72,56.29a2.88,2.88,0,0,0-2.63,1.82,16.45,16.45,0,0,0-.92,6,14.62,14.62,0,0,0,.89,5.3A2.82,2.82,0,0,0,72,71.25a2.7,2.7,0,0,0,2.55-1.76A16,16,0,0,0,75.47,63.56Z"/><path class="cls-2" d="M101,75.4a9.17,9.17,0,0,1-2.14.24,7.25,7.25,0,0,1-2.64-.47,6.65,6.65,0,0,1-2.09-1.3,5.72,5.72,0,0,1-1.36-2,6.8,6.8,0,0,1-.48-2.6,8.35,8.35,0,0,1,.43-2.75A5.67,5.67,0,0,1,94,64.35a6,6,0,0,1,2.19-1.41,8.59,8.59,0,0,1,3-.5,6.93,6.93,0,0,1,2.29.32,8.42,8.42,0,0,1,1.49.67l-.69,3.45-.77-.37a5.1,5.1,0,0,0-.6-.27,2.91,2.91,0,0,0-.63-.15,6.32,6.32,0,0,0-.82,0,3.09,3.09,0,0,0-2.31.82,3,3,0,0,0-.81,2.21,3,3,0,0,0,.84,2.23,3.41,3.41,0,0,0,2.43.8,6.66,6.66,0,0,0,1.56-.18,9.31,9.31,0,0,0,1.59-.57l.27,3.26A10.48,10.48,0,0,1,101,75.4Z"/><path class="cls-2" d="M119.41,69a7.58,7.58,0,0,1-.5,2.84,5.7,5.7,0,0,1-1.4,2.08,6.08,6.08,0,0,1-2.18,1.28,9.29,9.29,0,0,1-5.65,0,6.16,6.16,0,0,1-2.18-1.28,6,6,0,0,1-1.42-2.08,7.58,7.58,0,0,1-.5-2.84,7.28,7.28,0,0,1,.49-2.77,5.64,5.64,0,0,1,3.57-3.35,9.63,9.63,0,0,1,5.69,0,6.18,6.18,0,0,1,2.18,1.26,5.58,5.58,0,0,1,1.4,2.07A7.45,7.45,0,0,1,119.41,69Zm-4,0a3,3,0,0,0-.81-2.22,2.94,2.94,0,0,0-2.16-.8,2.8,2.8,0,0,0-2.14.8,3.15,3.15,0,0,0-.74,2.22,3.33,3.33,0,0,0,.72,2.29,2.77,2.77,0,0,0,2.16.81,2.91,2.91,0,0,0,2.19-.79A3.17,3.17,0,0,0,115.42,69Z"/><path class="cls-2" d="M131.39,75.4a9.17,9.17,0,0,1-2.14.24,7.25,7.25,0,0,1-2.64-.47,6.65,6.65,0,0,1-2.09-1.3,5.72,5.72,0,0,1-1.36-2,6.8,6.8,0,0,1-.48-2.6,8.35,8.35,0,0,1,.43-2.75,5.67,5.67,0,0,1,1.32-2.16,6,6,0,0,1,2.19-1.41,8.59,8.59,0,0,1,3-.5,6.93,6.93,0,0,1,2.29.32,8.42,8.42,0,0,1,1.49.67l-.69,3.45-.77-.37a5.1,5.1,0,0,0-.6-.27,2.91,2.91,0,0,0-.63-.15,6.32,6.32,0,0,0-.82,0,3.09,3.09,0,0,0-2.31.82,3,3,0,0,0-.81,2.21,3,3,0,0,0,.84,2.23,3.41,3.41,0,0,0,2.43.8,6.66,6.66,0,0,0,1.56-.18,9.31,9.31,0,0,0,1.59-.57l.27,3.26A10.48,10.48,0,0,1,131.39,75.4Z"/><path class="cls-2" d="M149.83,69a7.58,7.58,0,0,1-.5,2.84,5.7,5.7,0,0,1-1.4,2.08,6.08,6.08,0,0,1-2.18,1.28,9.29,9.29,0,0,1-5.65,0,6.16,6.16,0,0,1-2.18-1.28,6,6,0,0,1-1.42-2.08A7.58,7.58,0,0,1,136,69a7.28,7.28,0,0,1,.49-2.77,5.64,5.64,0,0,1,3.57-3.35,9.63,9.63,0,0,1,5.69,0,6.18,6.18,0,0,1,2.18,1.26,5.58,5.58,0,0,1,1.4,2.07A7.45,7.45,0,0,1,149.83,69Zm-4,0a3,3,0,0,0-.81-2.22,2.94,2.94,0,0,0-2.16-.8,2.78,2.78,0,0,0-2.14.8A3.1,3.1,0,0,0,140,69a3.33,3.33,0,0,0,.72,2.29,2.77,2.77,0,0,0,2.16.81,2.91,2.91,0,0,0,2.19-.79A3.17,3.17,0,0,0,145.84,69Z"/><path class="cls-2" d="M162.19,75.64V68.15a3,3,0,0,0-.2-1.21,1.79,1.79,0,0,0-.46-.66A1.23,1.23,0,0,0,161,66c-.2,0-.37,0-.51,0a2.91,2.91,0,0,0-.63.12,2.1,2.1,0,0,0-.92.55,3.72,3.72,0,0,0-.82,1.27,5.81,5.81,0,0,0-.36,2.25v5.47h-4V66.92a15,15,0,0,0-.18-2.28,7.43,7.43,0,0,0-.48-1.84h4a5.58,5.58,0,0,1,.25.69c.05.18.11.44.17.78a6.18,6.18,0,0,1,2.05-1.38,6,6,0,0,1,2.24-.45,4.45,4.45,0,0,1,1.75.35,4,4,0,0,1,1.39,1,4.58,4.58,0,0,1,.93,1.55,6.05,6.05,0,0,1,.34,2.06v8.26Z"/><path class="cls-2" d="M180,75.28a5.91,5.91,0,0,1-.26-.69c-.05-.18-.1-.44-.16-.78a5.87,5.87,0,0,1-4.23,1.83,4.44,4.44,0,0,1-1.79-.36,4.57,4.57,0,0,1-1.44-1,4.42,4.42,0,0,1-.94-1.55,5.8,5.8,0,0,1-.33-2q0-1.23.06-2.28c0-.7.07-1.37.09-2s0-1.28,0-1.93-.07-1.32-.15-2h4c.06.66.09,1.29.1,1.9s0,1.21,0,1.8,0,1.21-.06,1.83,0,1.27,0,2a3.4,3.4,0,0,0,.18,1.23,1.42,1.42,0,0,0,.49.65,1.39,1.39,0,0,0,.61.25,3.68,3.68,0,0,0,.53,0,3,3,0,0,0,.64-.12,2,2,0,0,0,.9-.54,3.61,3.61,0,0,0,.8-1.28,6,6,0,0,0,.35-2.25V62.44h4v8.73a14.86,14.86,0,0,0,.18,2.27,7.43,7.43,0,0,0,.48,1.84Z"/><path class="cls-2" d="M189.22,75.64V65.29h-2.64V62.44h2.64V59.11h3.93v3.33h3.39v2.85h-3.39V75.64Z"/><path class="cls-2" d="M208.45,72a3.78,3.78,0,0,1-1.28,3,5.23,5.23,0,0,1-3.57,1.11,14.93,14.93,0,0,1-3-.3,8.85,8.85,0,0,1-2.4-.81l.51-3.06a10.2,10.2,0,0,0,4.56,1.35,1.29,1.29,0,0,0,.94-.28.91.91,0,0,0,.29-.65,1.14,1.14,0,0,0-.23-.73,3.38,3.38,0,0,0-1.09-.71A18,18,0,0,1,201,69.82a7,7,0,0,1-1.44-1.12,3.82,3.82,0,0,1-.81-1.25,4.14,4.14,0,0,1-.25-1.5A3.37,3.37,0,0,1,200,63a6.36,6.36,0,0,1,3.78-1,11.65,11.65,0,0,1,2.24.2,10.22,10.22,0,0,1,2.24.76l-.48,3a7.09,7.09,0,0,0-2.06-.82,9.32,9.32,0,0,0-2-.23,1.36,1.36,0,0,0-1,.26.9.9,0,0,0-.26.67,1,1,0,0,0,.42.83,8.16,8.16,0,0,0,1.6.82,19.94,19.94,0,0,1,1.82,1,6.14,6.14,0,0,1,1.22,1,3.12,3.12,0,0,1,.68,1.11A3.81,3.81,0,0,1,208.45,72Z"/></g></svg>