<svg xmlns="http://www.w3.org/2000/svg" viewBox="0 0 256 128"><defs><style>.cls-1{opacity:0.5;}.cls-2{fill:#fff200;}</style></defs><g id="Layer_40" data-name="Layer 40"><g class="cls-1"><path d="M85.44,47a15.19,15.19,0,0,0-2.88-1.08,11.44,11.44,0,0,0-2.64-.28,7.29,7.29,0,0,0-3.28.64,4.54,4.54,0,0,0-2,2,11.18,11.18,0,0,0-1,3.72,47.84,47.84,0,0,0-.28,5.68h8.48v7.76h-8.4V92.88H62.8V65.28H56.16v-7.6h6.48a46.31,46.31,0,0,1,.88-9.88,16.12,16.12,0,0,1,2.68-6.32,9.93,9.93,0,0,1,4.48-3.36,17.61,17.61,0,0,1,6.2-1,27.57,27.57,0,0,1,9.52,1.6Z"/><path d="M121.44,75.17a20.35,20.35,0,0,1-1.31,7.57,15.19,15.19,0,0,1-3.75,5.54,16.16,16.16,0,0,1-5.81,3.43,24.82,24.82,0,0,1-15.06,0,16.16,16.16,0,0,1-5.81-3.43,15.66,15.66,0,0,1-3.79-5.54,21.7,21.7,0,0,1,0-15,15.49,15.49,0,0,1,3.71-5.5,15.67,15.67,0,0,1,5.81-3.43,25.62,25.62,0,0,1,15.18,0,15.88,15.88,0,0,1,5.81,3.36,14.79,14.79,0,0,1,3.75,5.5A20.12,20.12,0,0,1,121.44,75.17Zm-10.64,0a8,8,0,0,0-2.15-5.93,7.86,7.86,0,0,0-5.77-2.12,7.43,7.43,0,0,0-5.7,2.12,8.35,8.35,0,0,0-2,5.93,8.82,8.82,0,0,0,1.94,6.11,7.32,7.32,0,0,0,5.74,2.16,7.82,7.82,0,0,0,5.86-2.12A8.48,8.48,0,0,0,110.8,75.17Z"/><path d="M155.6,91.92a15,15,0,0,1-.68-1.84c-.13-.48-.28-1.17-.44-2.08a15.69,15.69,0,0,1-11.28,4.88,11.61,11.61,0,0,1-4.76-1,12,12,0,0,1-3.84-2.69,11.74,11.74,0,0,1-2.52-4.13,15.51,15.51,0,0,1-.88-5.37c0-2.18.05-4.21.16-6.07s.19-3.67.24-5.38.05-3.43,0-5.14-.19-3.53-.4-5.45h10.64c.16,1.75.25,3.43.28,5s0,3.23,0,4.82-.08,3.22-.16,4.86-.12,3.39-.12,5.24a8.75,8.75,0,0,0,.5,3.28,3.76,3.76,0,0,0,1.29,1.74,3.71,3.71,0,0,0,1.63.65,10,10,0,0,0,1.41.12,7.75,7.75,0,0,0,1.71-.31,5.51,5.51,0,0,0,2.42-1.46,9.88,9.88,0,0,0,2.12-3.4,16.17,16.17,0,0,0,.92-6V57.68h10.64V81A39.87,39.87,0,0,0,165,87a19.89,19.89,0,0,0,1.28,4.9Z"/><path d="M201.68,67.52c-.75-.16-1.33-.27-1.76-.32a12.48,12.48,0,0,0-1.44-.08,8.13,8.13,0,0,0-6.92,3.12c-1.57,2.09-2.36,5.18-2.36,9.3V92.88H178.56V69.77c0-1.3,0-2.44,0-3.4s-.09-1.87-.2-2.7a25,25,0,0,0-.44-2.47c-.19-.81-.44-1.74-.76-2.78h10.1c.16.66.32,1.22.45,1.68a7.89,7.89,0,0,1,.29,1.32c.06.41.11.84.17,1.31a15.75,15.75,0,0,1,.08,1.68,18,18,0,0,1,4.55-5.21,8.75,8.75,0,0,1,5.08-1.52,7.67,7.67,0,0,1,1.88.2,17.63,17.63,0,0,1,2.12.79Z"/></g><path class="cls-2" d="M83.44,45a15.19,15.19,0,0,0-2.88-1.08,11.44,11.44,0,0,0-2.64-.28,7.29,7.29,0,0,0-3.28.64,4.54,4.54,0,0,0-2,2,11.18,11.18,0,0,0-1,3.72,47.84,47.84,0,0,0-.28,5.68h8.48v7.76h-8.4V90.88H60.8V63.28H54.16v-7.6h6.48a46.31,46.31,0,0,1,.88-9.88,16.12,16.12,0,0,1,2.68-6.32,9.93,9.93,0,0,1,4.48-3.36,17.61,17.61,0,0,1,6.2-1,27.57,27.57,0,0,1,9.52,1.6Z"/><path class="cls-2" d="M119.44,73.17a20.35,20.35,0,0,1-1.31,7.57,15.19,15.19,0,0,1-3.75,5.54,16.16,16.16,0,0,1-5.81,3.43,24.82,24.82,0,0,1-15.06,0,16.16,16.16,0,0,1-5.81-3.43,15.66,15.66,0,0,1-3.79-5.54,21.7,21.7,0,0,1,0-15,15.49,15.49,0,0,1,3.71-5.5,15.67,15.67,0,0,1,5.81-3.43,25.62,25.62,0,0,1,15.18,0,15.88,15.88,0,0,1,5.81,3.36,14.79,14.79,0,0,1,3.75,5.5A20.12,20.12,0,0,1,119.44,73.17Zm-10.64,0a8,8,0,0,0-2.15-5.93,7.86,7.86,0,0,0-5.77-2.12,7.43,7.43,0,0,0-5.7,2.12,8.35,8.35,0,0,0-2,5.93,8.82,8.82,0,0,0,1.94,6.11,7.32,7.32,0,0,0,5.74,2.16,7.82,7.82,0,0,0,5.86-2.12A8.48,8.48,0,0,0,108.8,73.17Z"/><path class="cls-2" d="M153.6,89.92a15,15,0,0,1-.68-1.84c-.13-.48-.28-1.17-.44-2.08a15.69,15.69,0,0,1-11.28,4.88,11.61,11.61,0,0,1-4.76-1,12,12,0,0,1-3.84-2.69,11.74,11.74,0,0,1-2.52-4.13,15.51,15.51,0,0,1-.88-5.37c0-2.18.05-4.21.16-6.07s.19-3.67.24-5.38.05-3.43,0-5.14-.19-3.53-.4-5.45h10.64c.16,1.75.25,3.43.28,5s0,3.23,0,4.82-.08,3.22-.16,4.86-.12,3.39-.12,5.24a8.75,8.75,0,0,0,.5,3.28,3.76,3.76,0,0,0,1.29,1.74,3.71,3.71,0,0,0,1.63.65,10,10,0,0,0,1.41.12,7.75,7.75,0,0,0,1.71-.31,5.51,5.51,0,0,0,2.42-1.46,9.88,9.88,0,0,0,2.12-3.4,16.17,16.17,0,0,0,.92-6V55.68h10.64V79A39.87,39.87,0,0,0,163,85a19.89,19.89,0,0,0,1.28,4.9Z"/><path class="cls-2" d="M199.68,65.52c-.75-.16-1.33-.27-1.76-.32a12.48,12.48,0,0,0-1.44-.08,8.13,8.13,0,0,0-6.92,3.12c-1.57,2.09-2.36,5.18-2.36,9.3V90.88H176.56V67.77c0-1.3,0-2.44,0-3.4s-.09-1.87-.2-2.7a25,25,0,0,0-.44-2.47c-.19-.81-.44-1.74-.76-2.78h10.1c.16.66.32,1.22.45,1.68a7.89,7.89,0,0,1,.29,1.32c.06.41.11.84.17,1.31a15.75,15.75,0,0,1,.08,1.68,18,18,0,0,1,4.55-5.21,8.75,8.75,0,0,1,5.08-1.52,7.67,7.67,0,0,1,1.88.2,17.63,17.63,0,0,1,2.12.79Z"/></g></svg>