<svg xmlns="http://www.w3.org/2000/svg" width="256" height="128" viewBox="0 0 256 128">
  <defs>
    <style>
      .cls-1 {
        fill: #fff200;
      }

      .cls-2 {
        fill: #323232;
      }
    </style>
  </defs>
  <g id="Layer_36" data-name="Layer 36">
    <g>
      <path class="cls-1" d="M59.41,74.82H55.26l.25-9.15a5.71,5.71,0,0,1-1.77,1.09,6.12,6.12,0,0,1-2.08.31,6.49,6.49,0,0,1-2.58-.5,5.59,5.59,0,0,1-2-1.41A6.34,6.34,0,0,1,45.79,63a8.54,8.54,0,0,1-.45-2.86A8.4,8.4,0,0,1,45.88,57a6.41,6.41,0,0,1,1.54-2.34,6.6,6.6,0,0,1,2.43-1.47,9.57,9.57,0,0,1,3.21-.51,6.82,6.82,0,0,1,5,1.79,6.48,6.48,0,0,1,1.71,5ZM55.48,59a2.53,2.53,0,0,0-.2-1,2.77,2.77,0,0,0-.56-.79,2.57,2.57,0,0,0-.86-.52,3.1,3.1,0,0,0-3.31.77,3.86,3.86,0,0,0-.84,2.63,3.41,3.41,0,0,0,.73,2.33,2.53,2.53,0,0,0,2,.84,2.79,2.79,0,0,0,2.11-.84,3.51,3.51,0,0,0,.87-2.33Z"/>
      <path class="cls-2" d="M87.22,67a9.08,9.08,0,0,1-.54,3.21,6.58,6.58,0,0,1-1.53,2.46,6.79,6.79,0,0,1-2.39,1.58,8.36,8.36,0,0,1-3.11.56,16.41,16.41,0,0,1-3.1-.32,14.88,14.88,0,0,1-2.91-.88V53.56h4.13v9.21a4.78,4.78,0,0,1,1.76-1.19,6,6,0,0,1,2.25-.4,5.89,5.89,0,0,1,2.22.41,4.88,4.88,0,0,1,1.73,1.18,5.37,5.37,0,0,1,1.1,1.84A7,7,0,0,1,87.22,67Zm-4.12.75a2.68,2.68,0,0,0-.63-1.89,2.23,2.23,0,0,0-1.75-.69,2.94,2.94,0,0,0-1.25.25,2.83,2.83,0,0,0-.94.69,2.8,2.8,0,0,0-.6,1,3.61,3.61,0,0,0-.2,1.18v2.36a3.49,3.49,0,0,0,1,.36,5.65,5.65,0,0,0,1.13.09,3.24,3.24,0,0,0,2.39-.88A3.36,3.36,0,0,0,83.1,67.76Z"/>
      <path class="cls-2" d="M100.36,74.45a6.05,6.05,0,0,1-.26-.72c0-.18-.11-.45-.17-.8a6.07,6.07,0,0,1-4.37,1.89,4.57,4.57,0,0,1-1.85-.38,4.67,4.67,0,0,1-1.48-1,4.4,4.4,0,0,1-1-1.6,6,6,0,0,1-.34-2.08c0-.85,0-1.63.06-2.35s.07-1.42.09-2.09,0-1.32,0-2-.07-1.37-.15-2.11H95c.06.68.1,1.33.11,2s0,1.25,0,1.86,0,1.25-.06,1.89,0,1.31,0,2a3.34,3.34,0,0,0,.2,1.27,1.37,1.37,0,0,0,.5.67,1.44,1.44,0,0,0,.63.26,3.84,3.84,0,0,0,.55,0,3.31,3.31,0,0,0,.66-.12,2.14,2.14,0,0,0,.93-.57,3.84,3.84,0,0,0,.83-1.31,6.46,6.46,0,0,0,.35-2.33V61.18h4.13v9a16,16,0,0,0,.18,2.36,7.9,7.9,0,0,0,.5,1.9Z"/>
      <path class="cls-2" d="M109.91,74.82V64.12h-2.73V61.18h2.73V57.74H114v3.44h3.51v2.94H114v10.7Z"/>
      <path class="cls-2" d="M121,74.82V64.12h-2.73V61.18H121V57.74H125v3.44h3.5v2.94H125v10.7Z"/>
      <path class="cls-2" d="M141.93,64.93a3.49,3.49,0,0,1-.55,1.92,4.48,4.48,0,0,1-1.55,1.47,8.49,8.49,0,0,1-2.42,1,13.31,13.31,0,0,1-3.16.34h-.37l-.5,0a2.84,2.84,0,0,0,.93,1.84,2.91,2.91,0,0,0,2,.67,9.17,9.17,0,0,0,4.57-1.39V74a8.75,8.75,0,0,1-2.25,1,9.64,9.64,0,0,1-2.43.29,8.08,8.08,0,0,1-2.81-.46,5.75,5.75,0,0,1-2.12-1.35,6,6,0,0,1-1.33-2.11,7.77,7.77,0,0,1-.47-2.77,8.66,8.66,0,0,1,.54-3.12A7.37,7.37,0,0,1,131.53,63a6.55,6.55,0,0,1,2.34-1.58,7.76,7.76,0,0,1,3-.56A5.68,5.68,0,0,1,140.55,62,3.65,3.65,0,0,1,141.93,64.93Zm-4.12.31a1.08,1.08,0,0,0-.42-.85,1.62,1.62,0,0,0-1.08-.36,2.42,2.42,0,0,0-1.76.73,3.43,3.43,0,0,0-1,2,2.58,2.58,0,0,0,.49.06h.46C136.72,66.82,137.81,66.29,137.81,65.24Z"/>
      <path class="cls-2" d="M154.64,65c-.29-.06-.51-.1-.68-.12a4.61,4.61,0,0,0-.56,0,3.15,3.15,0,0,0-2.68,1.21,5.92,5.92,0,0,0-.91,3.6v5.17h-4.12V65.87c0-.51,0-1,0-1.32s0-.73-.08-1-.1-.64-.17-1-.17-.67-.29-1.07H149c.06.25.12.47.18.65a3.61,3.61,0,0,1,.11.51c0,.16,0,.32.06.51a5.79,5.79,0,0,1,0,.65,6.91,6.91,0,0,1,1.77-2,3.39,3.39,0,0,1,2-.59,2.86,2.86,0,0,1,.72.08,6.39,6.39,0,0,1,.83.3Z"/>
      <path class="cls-2" d="M167.17,74.82l0-16.83c-.17-.19-.32-.34-.45-.47a4.82,4.82,0,0,0-.47-.37,2.3,2.3,0,0,0-.58-.31,2.47,2.47,0,0,0-.83-.12,3,3,0,0,0-1.17.2,1.85,1.85,0,0,0-.84.69,3.53,3.53,0,0,0-.51,1.35,11.24,11.24,0,0,0-.17,2.22h3.22v3h-3.16V74.82h-4.12V64.12h-2.61V61.18h2.54a15.44,15.44,0,0,1,.44-4.08,6.13,6.13,0,0,1,1.14-2.35,3.43,3.43,0,0,1,1.66-1.09,7.78,7.78,0,0,1,2-.26,6.64,6.64,0,0,1,1.93.25,10.87,10.87,0,0,1,2,.86l0-1h4V74.82Z"/>
      <path class="cls-2" d="M181.46,57.43a1.7,1.7,0,0,1-.71,1.38,2.88,2.88,0,0,1-3.45,0,1.86,1.86,0,0,1-.74-1.42,1.7,1.7,0,0,1,.68-1.42,2.76,2.76,0,0,1,1.8-.58,2.92,2.92,0,0,1,.92.16,2.74,2.74,0,0,1,.77.43,2.41,2.41,0,0,1,.53.66A1.76,1.76,0,0,1,181.46,57.43Zm-4.65,17.39V61.18h4.12V74.82Z"/>
      <path class="cls-2" d="M197.45,64.93a3.49,3.49,0,0,1-.55,1.92,4.48,4.48,0,0,1-1.55,1.47,8.49,8.49,0,0,1-2.42,1,13.31,13.31,0,0,1-3.16.34h-.37l-.5,0a2.84,2.84,0,0,0,.93,1.84,2.91,2.91,0,0,0,2,.67,9.17,9.17,0,0,0,4.57-1.39V74a8.75,8.75,0,0,1-2.25,1,9.64,9.64,0,0,1-2.43.29,8.08,8.08,0,0,1-2.81-.46,5.75,5.75,0,0,1-2.12-1.35,6,6,0,0,1-1.33-2.11,7.77,7.77,0,0,1-.47-2.77,8.66,8.66,0,0,1,.54-3.12A7.37,7.37,0,0,1,187.05,63a6.55,6.55,0,0,1,2.34-1.58,7.76,7.76,0,0,1,3-.56A5.68,5.68,0,0,1,196.07,62,3.65,3.65,0,0,1,197.45,64.93Zm-4.12.31a1.08,1.08,0,0,0-.42-.85,1.62,1.62,0,0,0-1.08-.36,2.42,2.42,0,0,0-1.76.73,3.43,3.43,0,0,0-.95,2,2.58,2.58,0,0,0,.49.06h.46C192.24,66.82,193.33,66.29,193.33,65.24Z"/>
      <path class="cls-2" d="M210.66,71a3.93,3.93,0,0,1-1.31,3.1,5.48,5.48,0,0,1-3.7,1.14,15.2,15.2,0,0,1-3.14-.31,9,9,0,0,1-2.48-.83l.52-3.16a10.71,10.71,0,0,0,4.72,1.39,1.35,1.35,0,0,0,1-.29.92.92,0,0,0,.3-.67,1.17,1.17,0,0,0-.24-.76,3.41,3.41,0,0,0-1.13-.73A19.06,19.06,0,0,1,203,68.81a7.22,7.22,0,0,1-1.49-1.17,4,4,0,0,1-.84-1.28,4.46,4.46,0,0,1-.26-1.55,3.51,3.51,0,0,1,1.5-3,6.6,6.6,0,0,1,3.91-1.07,11.51,11.51,0,0,1,2.31.21,10,10,0,0,1,2.32.79l-.5,3.13a7.33,7.33,0,0,0-2.13-.86,9.87,9.87,0,0,0-2-.23,1.4,1.4,0,0,0-1,.27.9.9,0,0,0-.27.69,1,1,0,0,0,.43.85,8.21,8.21,0,0,0,1.65.86,18.77,18.77,0,0,1,1.88,1.07,6.63,6.63,0,0,1,1.27,1.05,3.33,3.33,0,0,1,.7,1.15A4.07,4.07,0,0,1,210.66,71Z"/>
    </g>
  </g>
</svg>
