<svg xmlns="http://www.w3.org/2000/svg" width="256" height="128" viewBox="0 0 256 128">
  <defs>
    <style>
      .cls-1 {
        opacity: 0.5;
      }

      .cls-2 {
        fill: #fff200;
      }
    </style>
  </defs>
  <g id="Layer_36" data-name="Layer 36">
    <g>
      <g class="cls-1">
        <path d="M84.44,86.52V58.92h-7v-7.6h7V42.44H94.92v8.88h9v7.6h-9v27.6Z"/>
        <path d="M138.52,61a9.13,9.13,0,0,1-1.42,5,12,12,0,0,1-4,3.8,22.19,22.19,0,0,1-6.23,2.44,34.51,34.51,0,0,1-8.15.88c-.28,0-.6,0-1,0s-.8,0-1.3,0a7.39,7.39,0,0,0,2.4,4.76A7.59,7.59,0,0,0,124,79.48a23.67,23.67,0,0,0,11.78-3.6v8.4A23.32,23.32,0,0,1,130,86.8a24.13,24.13,0,0,1-6.28.76,20.71,20.71,0,0,1-7.24-1.2A14.7,14.7,0,0,1,111,82.88a15.53,15.53,0,0,1-3.44-5.44,20.06,20.06,0,0,1-1.2-7.16,22.32,22.32,0,0,1,1.4-8A18.61,18.61,0,0,1,111.68,56a17.25,17.25,0,0,1,6-4.08,20.31,20.31,0,0,1,7.76-1.44q5.92,0,9.48,2.88A9.39,9.39,0,0,1,138.52,61Zm-10.64.8a2.79,2.79,0,0,0-1.1-2.2,4.16,4.16,0,0,0-2.76-.92,6.31,6.31,0,0,0-4.56,1.88A8.9,8.9,0,0,0,117,65.72a6.49,6.49,0,0,0,1.27.16h1.19Q127.88,65.88,127.88,61.8Z"/>
        <path d="M170,86.52v-20a8,8,0,0,0-.52-3.23,4.69,4.69,0,0,0-1.24-1.74,3.12,3.12,0,0,0-1.52-.69,9.4,9.4,0,0,0-1.36-.12,7.76,7.76,0,0,0-1.68.31,5.67,5.67,0,0,0-2.44,1.47,9.89,9.89,0,0,0-2.2,3.39,15.5,15.5,0,0,0-1,6V86.52H147.4V63.25a39.87,39.87,0,0,0-.48-6.07,19.89,19.89,0,0,0-1.28-4.9h10.64a15,15,0,0,1,.68,1.84c.13.48.28,1.17.44,2.08a16.62,16.62,0,0,1,5.49-3.68,15.8,15.8,0,0,1,6-1.2,11.66,11.66,0,0,1,4.67.93,11.27,11.27,0,0,1,3.72,2.61A12.18,12.18,0,0,1,179.7,59a15.89,15.89,0,0,1,.9,5.49v22Z"/>
      </g>
      <g>
        <path class="cls-2" d="M82.44,84.52V56.92h-7v-7.6h7V40.44H92.92v8.88h9v7.6h-9v27.6Z"/>
        <path class="cls-2" d="M136.52,59a9.13,9.13,0,0,1-1.42,5,12,12,0,0,1-4,3.8,22.19,22.19,0,0,1-6.23,2.44,34.51,34.51,0,0,1-8.15.88c-.28,0-.6,0-1,0s-.8,0-1.3,0a7.39,7.39,0,0,0,2.4,4.76A7.59,7.59,0,0,0,122,77.48a23.67,23.67,0,0,0,11.78-3.6v8.4A23.32,23.32,0,0,1,128,84.8a24.13,24.13,0,0,1-6.28.76,20.71,20.71,0,0,1-7.24-1.2A14.7,14.7,0,0,1,109,80.88a15.53,15.53,0,0,1-3.44-5.44,20.06,20.06,0,0,1-1.2-7.16,22.32,22.32,0,0,1,1.4-8A18.61,18.61,0,0,1,109.68,54a17.25,17.25,0,0,1,6-4.08,20.31,20.31,0,0,1,7.76-1.44q5.92,0,9.48,2.88A9.39,9.39,0,0,1,136.52,59Zm-10.64.8a2.79,2.79,0,0,0-1.1-2.2,4.16,4.16,0,0,0-2.76-.92,6.31,6.31,0,0,0-4.56,1.88A8.9,8.9,0,0,0,115,63.72a6.49,6.49,0,0,0,1.27.16h1.19Q125.88,63.88,125.88,59.8Z"/>
        <path class="cls-2" d="M168,84.52v-20a8,8,0,0,0-.52-3.23,4.69,4.69,0,0,0-1.24-1.74,3.12,3.12,0,0,0-1.52-.69,9.4,9.4,0,0,0-1.36-.12,7.76,7.76,0,0,0-1.68.31,5.67,5.67,0,0,0-2.44,1.47,9.89,9.89,0,0,0-2.2,3.39,15.5,15.5,0,0,0-1,6V84.52H145.4V61.25a39.87,39.87,0,0,0-.48-6.07,19.89,19.89,0,0,0-1.28-4.9h10.64a15,15,0,0,1,.68,1.84c.13.48.28,1.17.44,2.08a16.62,16.62,0,0,1,5.49-3.68,15.8,15.8,0,0,1,6-1.2,11.66,11.66,0,0,1,4.67.93,11.27,11.27,0,0,1,3.72,2.61A12.18,12.18,0,0,1,177.7,57a15.89,15.89,0,0,1,.9,5.49v22Z"/>
      </g>
    </g>
  </g>
</svg>
