<svg xmlns="http://www.w3.org/2000/svg" viewBox="0 0 256 128"><defs><style>.cls-1{fill:#fff200;}.cls-2{fill:#323232;}</style></defs><g id="_3_Hot_air_ballons" data-name="3 Hot air ballons"><path class="cls-1" d="M90.33,69.65a5.19,5.19,0,0,1-2.13,4.41,9.81,9.81,0,0,1-5.93,1.58,13,13,0,0,1-3.54-.45A8.81,8.81,0,0,1,76,73.94,5.73,5.73,0,0,1,74.23,72a5.16,5.16,0,0,1-.63-2.55A5.1,5.1,0,0,1,74.74,66a9.56,9.56,0,0,1,3.79-2.41,26.29,26.29,0,0,1-2.24-1.52A6.4,6.4,0,0,1,75,60.82a3.65,3.65,0,0,1-.63-1.34,7.28,7.28,0,0,1-.17-1.67,5.23,5.23,0,0,1,2-4.37c1.32-1,3.33-1.53,6-1.53a12,12,0,0,1,3.22.4,7.77,7.77,0,0,1,2.46,1.14A4.87,4.87,0,0,1,90,57.59a5.26,5.26,0,0,1-1,3.23,10,10,0,0,1-3.32,2.59A8.43,8.43,0,0,1,89.22,66,6,6,0,0,1,90.33,69.65Zm-4.52-.43a2.35,2.35,0,0,0-.27-1.17,2.82,2.82,0,0,0-.8-.86,7.75,7.75,0,0,0-1.26-.7c-.49-.22-1-.45-1.65-.68a6.91,6.91,0,0,0-2.48,1.27,2.28,2.28,0,0,0-.72,1.74,2.42,2.42,0,0,0,1,2.06,4.56,4.56,0,0,0,2.76.75A4.17,4.17,0,0,0,84.89,71,2.06,2.06,0,0,0,85.81,69.22Zm-.65-10.78a2.2,2.2,0,0,0-.9-1.82,3.72,3.72,0,0,0-2.36-.7,3.3,3.3,0,0,0-2.11.65A2.08,2.08,0,0,0,79,58.24q0,1.78,3.27,3.19a5.16,5.16,0,0,0,2.28-1.29A2.54,2.54,0,0,0,85.16,58.44Z"/><path class="cls-2" d="M103,75.64V54.73h4V75.64Z"/><path class="cls-2" d="M123.06,66.07a3.44,3.44,0,0,1-.53,1.86A4.52,4.52,0,0,1,121,69.36a8.34,8.34,0,0,1-2.34.91,13,13,0,0,1-3.05.33h-.37l-.48,0a2.74,2.74,0,0,0,.9,1.79,2.84,2.84,0,0,0,1.94.64A8.89,8.89,0,0,0,122,71.65V74.8a8.71,8.71,0,0,1-2.18,1,9.07,9.07,0,0,1-2.35.28,7.8,7.8,0,0,1-2.72-.45,5.49,5.49,0,0,1-2.05-1.3,5.82,5.82,0,0,1-1.29-2,7.55,7.55,0,0,1-.45-2.69,8.31,8.31,0,0,1,.52-3A7,7,0,0,1,113,64.18a6.5,6.5,0,0,1,2.27-1.53,7.62,7.62,0,0,1,2.91-.54,5.47,5.47,0,0,1,3.55,1.08A3.52,3.52,0,0,1,123.06,66.07Zm-4,.3a1,1,0,0,0-.41-.82,1.58,1.58,0,0,0-1-.35,2.37,2.37,0,0,0-1.71.71,3.34,3.34,0,0,0-.92,1.93,2.49,2.49,0,0,0,.48.06h.44C118,67.9,119.07,67.39,119.07,66.37Z"/><path class="cls-2" d="M135.57,75.64q0-.21,0-.51a4.32,4.32,0,0,1,0-.57c0-.22,0-.45-.05-.69a4.73,4.73,0,0,1-1.95,1.55,6.37,6.37,0,0,1-2.56.52,4.74,4.74,0,0,1-3.83-1.62,6.92,6.92,0,0,1-1.37-4.62,7.09,7.09,0,0,1,2.2-5.59,9.14,9.14,0,0,1,6.28-2c.45,0,.86,0,1.22,0s.73.06,1.1.11.74.11,1.12.19.81.19,1.28.33v8.52c0,.46,0,1,0,1.46s0,1,.09,1.39.08,1,.12,1.47Zm-.63-9.78a6.17,6.17,0,0,0-.95-.15l-.79,0a3.23,3.23,0,0,0-2.57,1.07,4.38,4.38,0,0,0-.91,3,2.91,2.91,0,0,0,.55,1.92,1.9,1.9,0,0,0,1.56.66A2.77,2.77,0,0,0,133,72a2.92,2.92,0,0,0,1-.76,3.54,3.54,0,0,0,.67-1.17,4.29,4.29,0,0,0,.25-1.52Z"/><path class="cls-2" d="M150.75,73.68c-.16.35-.31.66-.45.91a2.16,2.16,0,0,1-.48.61,1.64,1.64,0,0,1-.62.34,3,3,0,0,1-.85.1,2.37,2.37,0,0,1-1.4-.38,3.18,3.18,0,0,1-.94-1.43L141.3,62.44h4.14l2.22,6.08c.16.42.3.83.43,1.22s.23.72.29,1c.1-.27.23-.6.39-1l.48-1.19,2.37-6.1h4.11Z"/><path class="cls-2" d="M169.62,66.07a3.37,3.37,0,0,1-.54,1.86,4.39,4.39,0,0,1-1.5,1.43,8.34,8.34,0,0,1-2.34.91,13,13,0,0,1-3.05.33h-.37l-.48,0a2.74,2.74,0,0,0,.9,1.79,2.84,2.84,0,0,0,1.94.64,8.89,8.89,0,0,0,4.42-1.35V74.8a8.71,8.71,0,0,1-2.18,1,9.07,9.07,0,0,1-2.35.28,7.8,7.8,0,0,1-2.72-.45,5.49,5.49,0,0,1-2-1.3,5.82,5.82,0,0,1-1.29-2,7.55,7.55,0,0,1-.45-2.69,8.31,8.31,0,0,1,.52-3,7,7,0,0,1,1.47-2.36,6.5,6.5,0,0,1,2.27-1.53,7.62,7.62,0,0,1,2.91-.54,5.47,5.47,0,0,1,3.55,1.08A3.52,3.52,0,0,1,169.62,66.07Zm-4,.3a1,1,0,0,0-.41-.82,1.58,1.58,0,0,0-1-.35,2.37,2.37,0,0,0-1.71.71,3.34,3.34,0,0,0-.92,1.93,2.49,2.49,0,0,0,.48.06h.44C164.58,67.9,165.63,67.39,165.63,66.37Z"/><path class="cls-2" d="M182.4,72a3.8,3.8,0,0,1-1.27,3,5.27,5.27,0,0,1-3.58,1.11,14.93,14.93,0,0,1-3-.3,8.85,8.85,0,0,1-2.4-.81l.51-3.06a10.24,10.24,0,0,0,4.56,1.35,1.29,1.29,0,0,0,.94-.28.91.91,0,0,0,.29-.65,1.14,1.14,0,0,0-.23-.73,3.38,3.38,0,0,0-1.09-.71A18,18,0,0,1,175,69.82a7,7,0,0,1-1.44-1.12,3.82,3.82,0,0,1-.81-1.25,4.14,4.14,0,0,1-.25-1.5A3.37,3.37,0,0,1,173.92,63a6.39,6.39,0,0,1,3.79-1,11.55,11.55,0,0,1,2.23.2,10.22,10.22,0,0,1,2.24.76l-.47,3a7.15,7.15,0,0,0-2.07-.82,9.18,9.18,0,0,0-2-.23,1.35,1.35,0,0,0-.95.26.87.87,0,0,0-.26.67,1,1,0,0,0,.41.83,8.47,8.47,0,0,0,1.6.82,18.67,18.67,0,0,1,1.82,1,6.53,6.53,0,0,1,1.23,1,3.43,3.43,0,0,1,.68,1.11A4.08,4.08,0,0,1,182.4,72Z"/></g></svg>