<svg xmlns="http://www.w3.org/2000/svg" viewBox="0 0 256 128"><defs><style>.cls-1{fill:#fff200;}.cls-2{fill:#323232;}</style></defs><g id="_3_Hot_air_ballons" data-name="3 Hot air ballons"><path class="cls-1" d="M70.36,63.82a7.1,7.1,0,0,1-2.2,5.59,8.92,8.92,0,0,1-6.16,2,11.58,11.58,0,0,1-4.51-.86A10,10,0,0,1,53.91,68l1.9-3.36q3,2.76,5.91,2.76a4.56,4.56,0,0,0,3-.93A3,3,0,0,0,65.84,64a3.33,3.33,0,0,0-1-2.59A4.65,4.65,0,0,0,60.28,61a7.13,7.13,0,0,0-1.68,1.21L55.67,60.5,56,47.65h13.6l0,4H60.37l-.17,5.58c.33-.16.61-.29.85-.39a5.59,5.59,0,0,1,.71-.26,4.16,4.16,0,0,1,.75-.14c.26,0,.56,0,.89,0a7.48,7.48,0,0,1,2.84.53,6.27,6.27,0,0,1,2.19,1.51,6.71,6.71,0,0,1,1.42,2.34A8.58,8.58,0,0,1,70.36,63.82Z"/><path class="cls-2" d="M100.91,71.38V64.85a4.31,4.31,0,0,0-.51-2.45A1.63,1.63,0,0,0,99,61.72a2,2,0,0,0-.89.21,2.33,2.33,0,0,0-.82.7,3.8,3.8,0,0,0-.6,1.31A8,8,0,0,0,96.5,66v5.38h-4V64.85A4.63,4.63,0,0,0,92,62.48a1.65,1.65,0,0,0-1.54-.76,2.18,2.18,0,0,0-1.77,1A5.57,5.57,0,0,0,88,66v5.38H84V63.09q0-.72,0-1.32c0-.4-.06-.77-.11-1.12a8.37,8.37,0,0,0-.21-1c-.09-.33-.19-.68-.31-1.05h4l.22.7c0,.16.11.38.17.67a9.22,9.22,0,0,1,2.07-1.27,6.77,6.77,0,0,1,2.74-.5,4.82,4.82,0,0,1,2,.43,3,3,0,0,1,1.35,1.22,4.47,4.47,0,0,1,2-1.23,8.29,8.29,0,0,1,2.58-.42,4.26,4.26,0,0,1,3.25,1.2,4.81,4.81,0,0,1,1.14,3.46v8.54Z"/><path class="cls-2" d="M118.88,71.38c0-.14,0-.31,0-.51s0-.35,0-.57,0-.45,0-.69a4.7,4.7,0,0,1-2,1.55,6.29,6.29,0,0,1-2.55.52,4.76,4.76,0,0,1-3.84-1.62A7,7,0,0,1,109,65.44a7.09,7.09,0,0,1,2.2-5.59,9.13,9.13,0,0,1,6.28-2c.45,0,.85,0,1.22,0s.73.06,1.09.11.74.11,1.13.19.81.19,1.28.33v8.52c0,.46,0,1,0,1.46s0,1,.09,1.39.08,1,.12,1.47Zm-.63-9.78a6.36,6.36,0,0,0-1-.15l-.79,0a3.21,3.21,0,0,0-2.57,1.07,4.38,4.38,0,0,0-.91,2.95,2.91,2.91,0,0,0,.55,1.92,1.89,1.89,0,0,0,1.55.66,2.78,2.78,0,0,0,1.21-.27,3,3,0,0,0,1-.76,3.54,3.54,0,0,0,.67-1.17,4.29,4.29,0,0,0,.25-1.52Z"/><path class="cls-2" d="M135.17,71.38V63.89a3,3,0,0,0-.2-1.21,1.79,1.79,0,0,0-.46-.66,1.23,1.23,0,0,0-.57-.26,3.44,3.44,0,0,0-.51,0,2.91,2.91,0,0,0-.63.12,2.1,2.1,0,0,0-.92.55,3.72,3.72,0,0,0-.82,1.27,5.81,5.81,0,0,0-.36,2.25v5.47h-4V62.66a15,15,0,0,0-.18-2.28,7.43,7.43,0,0,0-.48-1.84h4a5.58,5.58,0,0,1,.25.69c.05.18.11.44.17.78a6.18,6.18,0,0,1,2-1.38,6,6,0,0,1,2.24-.45,4.45,4.45,0,0,1,1.75.35,4.17,4.17,0,0,1,1.39,1,4.58,4.58,0,0,1,.93,1.55,6.05,6.05,0,0,1,.34,2.06v8.26Z"/><path class="cls-2" d="M156.59,71.8a13.92,13.92,0,0,1-.51,4.07,7.13,7.13,0,0,1-1.38,2.62,5,5,0,0,1-2.06,1.43,7.6,7.6,0,0,1-2.61.43,22.1,22.1,0,0,1-2.67-.16,9.69,9.69,0,0,1-2.53-.65v-3a16.68,16.68,0,0,0,2.3.65,9.91,9.91,0,0,0,1.93.22,3.44,3.44,0,0,0,1.44-.3,2.81,2.81,0,0,0,1.11-1,4.83,4.83,0,0,0,.73-1.74,11.49,11.49,0,0,0,.26-2.61V70.45a4.58,4.58,0,0,1-1.71,1,7,7,0,0,1-1.86.22,5.88,5.88,0,0,1-2.34-.45A5.1,5.1,0,0,1,144.9,70a5.66,5.66,0,0,1-1.14-2,7.74,7.74,0,0,1-.4-2.57,7.51,7.51,0,0,1,.62-3.13,6.66,6.66,0,0,1,1.78-2.39,7.93,7.93,0,0,1,2.8-1.51,12.13,12.13,0,0,1,3.71-.53l1.12,0c.33,0,.65,0,1,.07s.65.1,1,.17.77.16,1.24.28Zm-4-10-.79-.12a6.54,6.54,0,0,0-.7,0,3.8,3.8,0,0,0-2.76,1,3.55,3.55,0,0,0-1,2.68,2.56,2.56,0,0,0,.66,1.89,2.24,2.24,0,0,0,1.65.66,4.83,4.83,0,0,0,1.08-.12,1.88,1.88,0,0,0,.94-.54,3,3,0,0,0,.67-1.21,7.67,7.67,0,0,0,.25-2.15Z"/><path class="cls-2" d="M174,64.74a7.58,7.58,0,0,1-.5,2.84,5.7,5.7,0,0,1-1.4,2.08,6.16,6.16,0,0,1-2.18,1.28,9.29,9.29,0,0,1-5.65,0,6.16,6.16,0,0,1-2.18-1.28,5.88,5.88,0,0,1-1.42-2.08,7.38,7.38,0,0,1-.5-2.84,7.28,7.28,0,0,1,.49-2.77,5.64,5.64,0,0,1,3.57-3.35,8.87,8.87,0,0,1,2.87-.44,9,9,0,0,1,2.82.42,6.27,6.27,0,0,1,2.18,1.26,5.58,5.58,0,0,1,1.4,2.07A7.45,7.45,0,0,1,174,64.74Zm-4,0a2.78,2.78,0,0,0-3-3,2.77,2.77,0,0,0-2.13.8,3.1,3.1,0,0,0-.74,2.22A3.33,3.33,0,0,0,164.9,67a2.75,2.75,0,0,0,2.15.81,2.92,2.92,0,0,0,2.2-.79A3.17,3.17,0,0,0,170,64.74Z"/><path class="cls-2" d="M189.32,61.81a3.37,3.37,0,0,1-.54,1.86,4.49,4.49,0,0,1-1.5,1.43,8.34,8.34,0,0,1-2.34.91,13,13,0,0,1-3.06.33h-.36l-.48,0a2.77,2.77,0,0,0,.89,1.79,2.88,2.88,0,0,0,1.95.64,8.86,8.86,0,0,0,4.41-1.35v3.15a8.65,8.65,0,0,1-2.17.95,9.12,9.12,0,0,1-2.35.28,7.76,7.76,0,0,1-2.72-.45A5.41,5.41,0,0,1,179,70a5.68,5.68,0,0,1-1.29-2,7.55,7.55,0,0,1-.46-2.69,8.31,8.31,0,0,1,.53-3,7,7,0,0,1,1.47-2.36,6.41,6.41,0,0,1,2.27-1.53,7.6,7.6,0,0,1,2.9-.54A5.48,5.48,0,0,1,188,58.93,3.52,3.52,0,0,1,189.32,61.81Zm-4,.3a1,1,0,0,0-.42-.82,1.55,1.55,0,0,0-1-.35,2.37,2.37,0,0,0-1.71.71,3.28,3.28,0,0,0-.92,1.93,2.4,2.4,0,0,0,.47.06h.45C184.27,63.64,185.33,63.13,185.33,62.11Z"/><path class="cls-2" d="M202.09,67.72a3.77,3.77,0,0,1-1.27,3,5.23,5.23,0,0,1-3.57,1.11,14.93,14.93,0,0,1-3-.3,8.85,8.85,0,0,1-2.4-.81l.51-3.06A10.24,10.24,0,0,0,196.88,69a1.31,1.31,0,0,0,.94-.28.91.91,0,0,0,.29-.65,1.14,1.14,0,0,0-.23-.73,3.38,3.38,0,0,0-1.09-.71,17.26,17.26,0,0,1-2.12-1.08,7,7,0,0,1-1.44-1.12,3.82,3.82,0,0,1-.81-1.25,4.14,4.14,0,0,1-.25-1.5,3.37,3.37,0,0,1,1.45-2.92,6.37,6.37,0,0,1,3.79-1,11.62,11.62,0,0,1,2.23.2,10.22,10.22,0,0,1,2.24.76l-.48,3a7.09,7.09,0,0,0-2.06-.82,9.32,9.32,0,0,0-2-.23,1.36,1.36,0,0,0-1,.26.9.9,0,0,0-.25.67,1,1,0,0,0,.41.83,8.16,8.16,0,0,0,1.6.82,19.94,19.94,0,0,1,1.82,1,6.14,6.14,0,0,1,1.22,1,3.12,3.12,0,0,1,.68,1.11A3.82,3.82,0,0,1,202.09,67.72Z"/></g></svg>