<svg xmlns="http://www.w3.org/2000/svg" viewBox="0 0 256 128"><defs><style>.cls-1{fill:#fff200;}.cls-2{fill:#323232;}</style></defs><g id="_3_Hot_air_ballons" data-name="3 Hot air ballons"><path class="cls-1" d="M45.05,71.4H39.91l8.91-19.72H38.14v-4h16v3.53Z"/><path class="cls-2" d="M67.92,71.4V61.05H65.28V58.2h2.64V54.87h3.93V58.2h3.39v2.85H71.85V71.4Z"/><path class="cls-2" d="M89.85,64.75a7.54,7.54,0,0,1-.5,2.84A5.5,5.5,0,0,1,88,69.67,6,6,0,0,1,85.77,71a9.29,9.29,0,0,1-5.65,0,6,6,0,0,1-2.18-1.29,5.92,5.92,0,0,1-1.42-2.08,7.54,7.54,0,0,1-.5-2.84A7.32,7.32,0,0,1,76.51,62a5.82,5.82,0,0,1,1.39-2.06,5.93,5.93,0,0,1,2.18-1.29,9.74,9.74,0,0,1,5.69,0A5.9,5.9,0,0,1,88,59.88a5.35,5.35,0,0,1,1.4,2.06A7.49,7.49,0,0,1,89.85,64.75Zm-4,0a3,3,0,0,0-.81-2.23,2.93,2.93,0,0,0-2.16-.79,2.79,2.79,0,0,0-2.14.79A3.16,3.16,0,0,0,80,64.76a3.33,3.33,0,0,0,.72,2.29,2.77,2.77,0,0,0,2.16.81,2.92,2.92,0,0,0,2.19-.8A3.16,3.16,0,0,0,85.86,64.76Z"/><path class="cls-2" d="M105.18,75.71a6.58,6.58,0,0,1-1.32,2.76,4.72,4.72,0,0,1-2.27,1.45,11.56,11.56,0,0,1-3.32.42,9.81,9.81,0,0,1-1.93-.2,20.8,20.8,0,0,1-2-.52v-3l1.89.13c.59,0,1.17,0,1.76,0a4.37,4.37,0,0,0,1.61-.28,2.45,2.45,0,0,0,1.11-.91,4.35,4.35,0,0,0,.63-1.67,13.9,13.9,0,0,0,.2-2.54V69.78a5.15,5.15,0,0,1-3.75,1.62A4.29,4.29,0,0,1,96,71a4,4,0,0,1-1.42-1,5.1,5.1,0,0,1-1-1.58,5.78,5.78,0,0,1-.36-2.1c0-.7,0-1.38,0-2s0-1.29,0-1.94,0-1.31,0-2,0-1.42-.1-2.2h4c.06.79.09,1.53.1,2.21s0,1.32,0,1.92,0,1.18,0,1.73,0,1.1,0,1.64a2.53,2.53,0,0,0,.44,1.65,1.6,1.6,0,0,0,1.27.51,2.42,2.42,0,0,0,1.84-.83,3.18,3.18,0,0,0,.77-2.23V58.2h4V71.4A18.62,18.62,0,0,1,105.18,75.71Z"/><path class="cls-2" d="M132.78,63.84a9,9,0,0,1-.52,3.11,6.54,6.54,0,0,1-3.8,3.9,8,8,0,0,1-3,.55,15.33,15.33,0,0,1-3-.32,13.45,13.45,0,0,1-2.81-.85V50.82h4v8.91a4.66,4.66,0,0,1,1.71-1.15,5.84,5.84,0,0,1,2.18-.38,5.74,5.74,0,0,1,2.14.39,4.58,4.58,0,0,1,1.67,1.15,5.19,5.19,0,0,1,1.07,1.78A6.8,6.8,0,0,1,132.78,63.84Zm-4,.72a2.59,2.59,0,0,0-.61-1.83,2.18,2.18,0,0,0-1.69-.66,2.87,2.87,0,0,0-1.21.24,2.8,2.8,0,0,0-.92.67,2.91,2.91,0,0,0-.57,1,3.33,3.33,0,0,0-.19,1.14v2.28a3.56,3.56,0,0,0,.94.35,5.35,5.35,0,0,0,1.09.09,3.12,3.12,0,0,0,2.32-.86A3.25,3.25,0,0,0,128.79,64.56Z"/><path class="cls-2" d="M145.5,71a5.91,5.91,0,0,1-.26-.69c-.05-.18-.1-.44-.16-.78a5.87,5.87,0,0,1-4.23,1.83A4.43,4.43,0,0,1,137.62,70a4.37,4.37,0,0,1-.94-1.54,5.9,5.9,0,0,1-.33-2q0-1.23.06-2.28t.09-2c0-.64,0-1.29,0-1.93s-.07-1.32-.15-2h4c.06.65.09,1.28.1,1.89s0,1.21,0,1.81,0,1.2-.06,1.82,0,1.27,0,2a3.4,3.4,0,0,0,.18,1.23,1.53,1.53,0,0,0,.49.65,1.5,1.5,0,0,0,.61.24,3.87,3.87,0,0,0,.53,0,3,3,0,0,0,.64-.12,2.09,2.09,0,0,0,.9-.55,3.56,3.56,0,0,0,.8-1.27,6.05,6.05,0,0,0,.35-2.26V58.2h4v8.72A15,15,0,0,0,149,69.2a7.43,7.43,0,0,0,.48,1.84Z"/><path class="cls-2" d="M161.89,71.15a9.16,9.16,0,0,1-2.14.25,7,7,0,0,1-2.64-.48,6.47,6.47,0,0,1-2.09-1.3,5.6,5.6,0,0,1-1.36-2,6.89,6.89,0,0,1-.48-2.61,8.39,8.39,0,0,1,.43-2.75,5.67,5.67,0,0,1,1.32-2.16,6,6,0,0,1,2.19-1.4,8.37,8.37,0,0,1,3-.5,7,7,0,0,1,2.29.31,8.4,8.4,0,0,1,1.49.68l-.69,3.45-.77-.38a5.1,5.1,0,0,0-.6-.27,2.91,2.91,0,0,0-.63-.15,6.5,6.5,0,0,0-.82,0,3.13,3.13,0,0,0-2.31.81,3,3,0,0,0-.81,2.22,2.94,2.94,0,0,0,.84,2.22,3.36,3.36,0,0,0,2.43.81,6.66,6.66,0,0,0,1.56-.19,8.53,8.53,0,0,0,1.59-.57l.27,3.27A10.41,10.41,0,0,1,161.89,71.15Z"/><path class="cls-2" d="M175.11,63.6l6.39,7.8h-5.28l-5-6.51V71.4h-4V50.49h4V62.55l4.86-4.35h5.73Z"/><path class="cls-2" d="M195,61.83a3.37,3.37,0,0,1-.54,1.86,4.46,4.46,0,0,1-1.5,1.42,8.34,8.34,0,0,1-2.34.92,13,13,0,0,1-3.06.33l-.36,0h-.48a2.71,2.71,0,0,0,.9,1.78,2.84,2.84,0,0,0,1.94.65A8.89,8.89,0,0,0,194,67.41v3.15a8.66,8.66,0,0,1-2.18.94,9.11,9.11,0,0,1-2.35.29,7.8,7.8,0,0,1-2.72-.45,5.51,5.51,0,0,1-2-1.31,5.82,5.82,0,0,1-1.29-2,7.49,7.49,0,0,1-.45-2.68,8.36,8.36,0,0,1,.52-3,7,7,0,0,1,1.47-2.35,6.5,6.5,0,0,1,2.27-1.53,7.62,7.62,0,0,1,2.91-.54A5.47,5.47,0,0,1,193.63,59,3.52,3.52,0,0,1,195,61.83Zm-4,.3a1,1,0,0,0-.42-.83,1.54,1.54,0,0,0-1-.34,2.36,2.36,0,0,0-1.71.7,3.31,3.31,0,0,0-.92,1.94,2.4,2.4,0,0,0,.47.06h.45C189.92,63.66,191,63.15,191,62.13Z"/><path class="cls-2" d="M198.63,71.4V61.05H196V58.2h2.64V54.87h3.93V58.2H206v2.85h-3.39V71.4Z"/><path class="cls-2" d="M217.86,67.74a3.8,3.8,0,0,1-1.27,3A5.27,5.27,0,0,1,213,71.85a14.93,14.93,0,0,1-3-.3,8.85,8.85,0,0,1-2.4-.81l.51-3.06A10.24,10.24,0,0,0,212.64,69a1.29,1.29,0,0,0,.94-.29.88.88,0,0,0,.29-.64,1.17,1.17,0,0,0-.23-.74,3.4,3.4,0,0,0-1.09-.7,18,18,0,0,1-2.12-1.08A7,7,0,0,1,209,64.45a3.79,3.79,0,0,1-.81-1.24,4.14,4.14,0,0,1-.25-1.5,3.38,3.38,0,0,1,1.45-2.93,6.37,6.37,0,0,1,3.79-1,11.66,11.66,0,0,1,2.23.19,10.3,10.3,0,0,1,2.24.77l-.48,3a7.13,7.13,0,0,0-2.06-.83,9.22,9.22,0,0,0-2-.22,1.38,1.38,0,0,0-1,.25.92.92,0,0,0-.25.68,1,1,0,0,0,.41.82,8,8,0,0,0,1.6.83,18.77,18.77,0,0,1,1.82,1,6.53,6.53,0,0,1,1.23,1,3.24,3.24,0,0,1,.67,1.11A3.87,3.87,0,0,1,217.86,67.74Z"/></g></svg>