<svg xmlns="http://www.w3.org/2000/svg" viewBox="0 0 256 128"><defs><style>.cls-1{fill:#fff200;}.cls-2{fill:#323232;}</style></defs><g id="_3_Hot_air_ballons" data-name="3 Hot air ballons"><path class="cls-1" d="M25.36,75.64V57.1c-.46.53-.89,1-1.3,1.41s-.85.87-1.32,1.35L20.49,56.8q1-.88,2-1.77c.54-.5,1.1-1,1.66-1.59a19.27,19.27,0,0,0,1.4-1.53h4.35V75.64Z"/><path class="cls-1" d="M53.75,63.37q0,6.48-2.24,9.37c-1.48,1.94-3.69,2.9-6.62,2.9a7.84,7.84,0,0,1-6.63-2.91C36.78,70.79,36,67.81,36,63.79s.75-7,2.23-8.94a7.81,7.81,0,0,1,6.63-2.94Q53.74,51.91,53.75,63.37Zm-5.34.19A15.12,15.12,0,0,0,47.52,58a2.68,2.68,0,0,0-2.6-1.68,2.88,2.88,0,0,0-2.63,1.82,16.45,16.45,0,0,0-.92,6,14.62,14.62,0,0,0,.89,5.3,2.82,2.82,0,0,0,2.66,1.83,2.7,2.7,0,0,0,2.55-1.76A16,16,0,0,0,48.41,63.56Z"/><path class="cls-2" d="M82.48,74.17a2.27,2.27,0,0,1-.8,1.13,2.34,2.34,0,0,1-1.36.34,2.2,2.2,0,0,1-1.38-.37,2.54,2.54,0,0,1-.78-1.21l-2.55-7.79-2.67,7.94a1.93,1.93,0,0,1-.77,1.09,2.55,2.55,0,0,1-1.42.34,4.26,4.26,0,0,1-.63,0,1.91,1.91,0,0,1-.57-.19,1.71,1.71,0,0,1-.51-.47,3.2,3.2,0,0,1-.42-.85l-4.2-11.65h4l1.74,5.33c.06.19.12.42.19.69s.15.52.23.77.17.61.27.94a5.18,5.18,0,0,1,.18-.73c.06-.22.12-.45.19-.69l.2-.69,1.68-5.62H78l1.8,5.88a5.75,5.75,0,0,0,.16.58c.07.2.14.4.2.59a3.77,3.77,0,0,1,.18.68c.06-.2.12-.4.18-.62q.15-.58.33-1.11l1.77-6h4.2Z"/><path class="cls-2" d="M98.83,75.64c0-.14,0-.31,0-.51s0-.35,0-.57,0-.45,0-.69a4.73,4.73,0,0,1-2,1.55,6.37,6.37,0,0,1-2.56.52,4.74,4.74,0,0,1-3.83-1.62A6.92,6.92,0,0,1,89,69.7a7.09,7.09,0,0,1,2.2-5.59,9.14,9.14,0,0,1,6.28-2c.45,0,.85,0,1.22,0s.73.06,1.09.11.74.11,1.13.19.81.19,1.28.33v8.52c0,.46,0,1,0,1.46s0,1,.09,1.39.08,1,.12,1.47Zm-.63-9.78a6.17,6.17,0,0,0-1-.15l-.79,0a3.21,3.21,0,0,0-2.57,1.07,4.38,4.38,0,0,0-.91,3,2.91,2.91,0,0,0,.55,1.92,1.89,1.89,0,0,0,1.55.66A2.78,2.78,0,0,0,96.29,72a2.92,2.92,0,0,0,1-.76A3.54,3.54,0,0,0,98,70.08a4.29,4.29,0,0,0,.25-1.52Z"/><path class="cls-2" d="M107.29,75.64V65.29h-2.64V62.44h2.64V59.11h3.93v3.33h3.39v2.85h-3.39V75.64Z"/><path class="cls-2" d="M127.57,66.07a3.37,3.37,0,0,1-.54,1.86,4.39,4.39,0,0,1-1.5,1.43,8.34,8.34,0,0,1-2.34.91,13,13,0,0,1-3.06.33h-.36l-.48,0a2.74,2.74,0,0,0,.9,1.79,2.84,2.84,0,0,0,1.94.64,8.89,8.89,0,0,0,4.42-1.35V74.8a8.71,8.71,0,0,1-2.18,1A9.07,9.07,0,0,1,122,76a7.8,7.8,0,0,1-2.72-.45,5.49,5.49,0,0,1-2-1.3,5.82,5.82,0,0,1-1.29-2,7.55,7.55,0,0,1-.45-2.69,8.31,8.31,0,0,1,.52-3,7,7,0,0,1,1.47-2.36,6.5,6.5,0,0,1,2.27-1.53,7.62,7.62,0,0,1,2.91-.54,5.47,5.47,0,0,1,3.55,1.08A3.52,3.52,0,0,1,127.57,66.07Zm-4,.3a1,1,0,0,0-.41-.82,1.58,1.58,0,0,0-1-.35,2.37,2.37,0,0,0-1.71.71,3.34,3.34,0,0,0-.92,1.93,2.4,2.4,0,0,0,.48.06h.44C122.52,67.9,123.58,67.39,123.58,66.37Z"/><path class="cls-2" d="M139.87,66.13l-.66-.12a4.39,4.39,0,0,0-.54,0,3.06,3.06,0,0,0-2.6,1.17,5.76,5.76,0,0,0-.88,3.49v5h-4V67c0-.49,0-.92,0-1.28s0-.7-.07-1a9,9,0,0,0-.17-.93c-.07-.3-.16-.65-.28-1h3.78c.07.24.12.45.17.63a2.43,2.43,0,0,1,.11.49l.06.49a4,4,0,0,1,0,.64,6.6,6.6,0,0,1,1.7-2,3.28,3.28,0,0,1,1.91-.57,2.75,2.75,0,0,1,.7.08,7,7,0,0,1,.8.29Z"/><path class="cls-2" d="M159.58,75.64V69.12a4.33,4.33,0,0,0-.51-2.46A1.63,1.63,0,0,0,157.7,66a2,2,0,0,0-.89.21,2.33,2.33,0,0,0-.82.7,3.8,3.8,0,0,0-.6,1.31,8.06,8.06,0,0,0-.22,2.06v5.38h-4V69.12a4.65,4.65,0,0,0-.47-2.38,1.65,1.65,0,0,0-1.54-.76,2.18,2.18,0,0,0-1.77,1,5.57,5.57,0,0,0-.75,3.27v5.38h-4V67.35q0-.72,0-1.32c0-.4-.06-.77-.11-1.12a8.37,8.37,0,0,0-.21-1c-.09-.33-.19-.68-.31-1h4l.22.7c0,.16.11.38.17.67a9.22,9.22,0,0,1,2.07-1.27,6.77,6.77,0,0,1,2.74-.5,4.82,4.82,0,0,1,2.05.43,3,3,0,0,1,1.35,1.22,4.47,4.47,0,0,1,2-1.23,8.31,8.31,0,0,1,2.59-.42,4.26,4.26,0,0,1,3.24,1.2,4.81,4.81,0,0,1,1.14,3.46v8.54Z"/><path class="cls-2" d="M179.77,66.07a3.37,3.37,0,0,1-.54,1.86,4.39,4.39,0,0,1-1.5,1.43,8.34,8.34,0,0,1-2.34.91,13,13,0,0,1-3.06.33H172l-.48,0a2.74,2.74,0,0,0,.9,1.79,2.84,2.84,0,0,0,1.94.64,8.89,8.89,0,0,0,4.42-1.35V74.8a8.71,8.71,0,0,1-2.18,1,9.07,9.07,0,0,1-2.35.28,7.8,7.8,0,0,1-2.72-.45,5.49,5.49,0,0,1-2.05-1.3,5.82,5.82,0,0,1-1.29-2,7.55,7.55,0,0,1-.45-2.69,8.31,8.31,0,0,1,.52-3,7,7,0,0,1,1.47-2.36A6.5,6.5,0,0,1,172,62.65a7.62,7.62,0,0,1,2.91-.54,5.47,5.47,0,0,1,3.55,1.08A3.52,3.52,0,0,1,179.77,66.07Zm-4,.3a1,1,0,0,0-.41-.82,1.58,1.58,0,0,0-1-.35,2.37,2.37,0,0,0-1.71.71,3.34,3.34,0,0,0-.92,1.93,2.49,2.49,0,0,0,.47.06h.45C174.72,67.9,175.78,67.39,175.78,66.37Z"/><path class="cls-2" d="M183.07,75.64V54.73h4V75.64Z"/><path class="cls-2" d="M204.82,69a7.58,7.58,0,0,1-.5,2.84,5.7,5.7,0,0,1-1.4,2.08,6.08,6.08,0,0,1-2.18,1.28,9.29,9.29,0,0,1-5.65,0,6.16,6.16,0,0,1-2.18-1.28,6,6,0,0,1-1.42-2.08A7.58,7.58,0,0,1,191,69a7.28,7.28,0,0,1,.49-2.77,5.64,5.64,0,0,1,3.57-3.35,9.63,9.63,0,0,1,5.69,0,6.18,6.18,0,0,1,2.18,1.26,5.58,5.58,0,0,1,1.4,2.07A7.45,7.45,0,0,1,204.82,69Zm-4,0a2.78,2.78,0,0,0-3-3,2.77,2.77,0,0,0-2.13.8A3.1,3.1,0,0,0,195,69a3.33,3.33,0,0,0,.72,2.29,2.76,2.76,0,0,0,2.15.81,2.92,2.92,0,0,0,2.2-.79A3.17,3.17,0,0,0,200.83,69Z"/><path class="cls-2" d="M217.18,75.64V68.15a3,3,0,0,0-.2-1.21,1.79,1.79,0,0,0-.46-.66A1.23,1.23,0,0,0,216,66c-.2,0-.37,0-.51,0a2.91,2.91,0,0,0-.63.12,2.1,2.1,0,0,0-.92.55,3.72,3.72,0,0,0-.82,1.27,5.81,5.81,0,0,0-.36,2.25v5.47h-4V66.92a15,15,0,0,0-.18-2.28,7.43,7.43,0,0,0-.48-1.84h4a5.58,5.58,0,0,1,.25.69c0,.18.11.44.17.78a6.18,6.18,0,0,1,2.05-1.38,6,6,0,0,1,2.24-.45,4.45,4.45,0,0,1,1.75.35,4,4,0,0,1,1.39,1,4.58,4.58,0,0,1,.93,1.55,6.05,6.05,0,0,1,.34,2.06v8.26Z"/><path class="cls-2" d="M235.51,72a3.78,3.78,0,0,1-1.28,3,5.23,5.23,0,0,1-3.57,1.11,14.93,14.93,0,0,1-3-.3,8.85,8.85,0,0,1-2.4-.81l.51-3.06a10.24,10.24,0,0,0,4.56,1.35,1.29,1.29,0,0,0,.94-.28.91.91,0,0,0,.29-.65,1.14,1.14,0,0,0-.23-.73,3.38,3.38,0,0,0-1.09-.71,18,18,0,0,1-2.12-1.08,7,7,0,0,1-1.44-1.12,3.82,3.82,0,0,1-.81-1.25,4.14,4.14,0,0,1-.25-1.5A3.37,3.37,0,0,1,227,63a6.37,6.37,0,0,1,3.79-1,11.62,11.62,0,0,1,2.23.2,10.22,10.22,0,0,1,2.24.76l-.48,3a7.09,7.09,0,0,0-2.06-.82,9.32,9.32,0,0,0-2-.23,1.38,1.38,0,0,0-1,.26.9.9,0,0,0-.25.67,1,1,0,0,0,.41.83,8.16,8.16,0,0,0,1.6.82,18.67,18.67,0,0,1,1.82,1,6.14,6.14,0,0,1,1.22,1,3.12,3.12,0,0,1,.68,1.11A3.81,3.81,0,0,1,235.51,72Z"/></g></svg>