<svg xmlns="http://www.w3.org/2000/svg" viewBox="0 0 256 128"><defs><style>.cls-1{fill:#fff200;}.cls-2{fill:#323232;}</style></defs><g id="_3_Hot_air_ballons" data-name="3 Hot air ballons"><path class="cls-1" d="M86.19,69.65a5.19,5.19,0,0,1-2.13,4.41,9.81,9.81,0,0,1-5.93,1.58,13,13,0,0,1-3.54-.45,8.81,8.81,0,0,1-2.73-1.25A5.73,5.73,0,0,1,70.09,72a5.16,5.16,0,0,1-.63-2.55A5.1,5.1,0,0,1,70.6,66a9.56,9.56,0,0,1,3.79-2.41,26.29,26.29,0,0,1-2.24-1.52,6.4,6.4,0,0,1-1.31-1.28,3.65,3.65,0,0,1-.63-1.34A7.28,7.28,0,0,1,70,57.81a5.23,5.23,0,0,1,2-4.37c1.32-1,3.33-1.53,6-1.53a12,12,0,0,1,3.22.4,7.77,7.77,0,0,1,2.46,1.14,4.87,4.87,0,0,1,2.11,4.14,5.26,5.26,0,0,1-1,3.23,10,10,0,0,1-3.32,2.59A8.43,8.43,0,0,1,85.08,66,6,6,0,0,1,86.19,69.65Zm-4.52-.43a2.35,2.35,0,0,0-.27-1.17,2.82,2.82,0,0,0-.8-.86,7.35,7.35,0,0,0-1.26-.7c-.49-.22-1-.45-1.65-.68a6.91,6.91,0,0,0-2.48,1.27,2.28,2.28,0,0,0-.72,1.74,2.42,2.42,0,0,0,1,2.06,4.56,4.56,0,0,0,2.76.75A4.17,4.17,0,0,0,80.75,71,2.06,2.06,0,0,0,81.67,69.22ZM81,58.44a2.2,2.2,0,0,0-.9-1.82,3.72,3.72,0,0,0-2.36-.7,3.3,3.3,0,0,0-2.11.65,2.08,2.08,0,0,0-.82,1.67q0,1.78,3.27,3.19a5.1,5.1,0,0,0,2.28-1.29A2.54,2.54,0,0,0,81,58.44Z"/><path class="cls-2" d="M103.44,58.82a1.64,1.64,0,0,1-.69,1.33,2.55,2.55,0,0,1-1.65.55,2.6,2.6,0,0,1-1.68-.56,1.79,1.79,0,0,1-.72-1.37,1.62,1.62,0,0,1,.66-1.38,2.73,2.73,0,0,1,3.37,0,2.12,2.12,0,0,1,.51.64A1.68,1.68,0,0,1,103.44,58.82Zm-4.5,16.82V62.44h4v13.2Z"/><path class="cls-2" d="M116,75.64V68.15a3,3,0,0,0-.2-1.21,1.79,1.79,0,0,0-.46-.66,1.23,1.23,0,0,0-.57-.26c-.2,0-.37,0-.51,0a2.91,2.91,0,0,0-.63.12,2.1,2.1,0,0,0-.92.55,3.72,3.72,0,0,0-.82,1.27,5.81,5.81,0,0,0-.36,2.25v5.47h-4V66.92a15,15,0,0,0-.18-2.28,7.43,7.43,0,0,0-.48-1.84h4a5.58,5.58,0,0,1,.25.69c.05.18.11.44.17.78a6.22,6.22,0,0,1,2.06-1.38,5.92,5.92,0,0,1,2.23-.45,4.41,4.41,0,0,1,1.75.35,4.17,4.17,0,0,1,1.4,1,4.4,4.4,0,0,1,.92,1.55,5.82,5.82,0,0,1,.34,2.06v8.26Z"/><path class="cls-2" d="M134.31,72A3.77,3.77,0,0,1,133,75a5.27,5.27,0,0,1-3.58,1.11,14.93,14.93,0,0,1-3-.3A8.85,8.85,0,0,1,124,75l.51-3.06a10.24,10.24,0,0,0,4.56,1.35A1.29,1.29,0,0,0,130,73a.91.91,0,0,0,.29-.65,1.14,1.14,0,0,0-.23-.73A3.38,3.38,0,0,0,129,70.9a18,18,0,0,1-2.12-1.08,7,7,0,0,1-1.44-1.12,3.82,3.82,0,0,1-.81-1.25,4.14,4.14,0,0,1-.25-1.5A3.37,3.37,0,0,1,125.83,63a6.39,6.39,0,0,1,3.79-1,11.55,11.55,0,0,1,2.23.2,10.46,10.46,0,0,1,2.25.76l-.48,3a7.15,7.15,0,0,0-2.07-.82,9.18,9.18,0,0,0-2-.23,1.35,1.35,0,0,0-1,.26.87.87,0,0,0-.26.67,1,1,0,0,0,.41.83,8.82,8.82,0,0,0,1.6.82,18.67,18.67,0,0,1,1.82,1,6.53,6.53,0,0,1,1.23,1,3.27,3.27,0,0,1,.68,1.11A4.08,4.08,0,0,1,134.31,72Z"/><path class="cls-2" d="M149.58,66.07a3.37,3.37,0,0,1-.54,1.86,4.39,4.39,0,0,1-1.5,1.43,8.34,8.34,0,0,1-2.34.91,13,13,0,0,1-3,.33h-.37l-.48,0a2.74,2.74,0,0,0,.9,1.79,2.84,2.84,0,0,0,1.94.64,8.89,8.89,0,0,0,4.42-1.35V74.8a8.71,8.71,0,0,1-2.18,1A9.07,9.07,0,0,1,144,76a7.8,7.8,0,0,1-2.72-.45,5.49,5.49,0,0,1-2.05-1.3,5.82,5.82,0,0,1-1.29-2,7.55,7.55,0,0,1-.45-2.69,8.31,8.31,0,0,1,.52-3,7,7,0,0,1,1.47-2.36,6.5,6.5,0,0,1,2.27-1.53,7.62,7.62,0,0,1,2.91-.54,5.47,5.47,0,0,1,3.55,1.08A3.52,3.52,0,0,1,149.58,66.07Zm-4,.3a1,1,0,0,0-.41-.82,1.58,1.58,0,0,0-1-.35,2.37,2.37,0,0,0-1.71.71,3.34,3.34,0,0,0-.92,1.93,2.49,2.49,0,0,0,.48.06h.44C144.54,67.9,145.59,67.39,145.59,66.37Z"/><path class="cls-2" d="M161,75.4a9.17,9.17,0,0,1-2.14.24,7.25,7.25,0,0,1-2.64-.47,6.65,6.65,0,0,1-2.09-1.3,5.72,5.72,0,0,1-1.36-2,6.8,6.8,0,0,1-.48-2.6,8.35,8.35,0,0,1,.43-2.75A5.67,5.67,0,0,1,154,64.35a6,6,0,0,1,2.19-1.41,8.59,8.59,0,0,1,3.05-.5,6.93,6.93,0,0,1,2.29.32,8.42,8.42,0,0,1,1.49.67l-.69,3.45-.77-.37a5.1,5.1,0,0,0-.6-.27,2.91,2.91,0,0,0-.63-.15,6.32,6.32,0,0,0-.82,0,3.09,3.09,0,0,0-2.31.82,3,3,0,0,0-.81,2.21,3,3,0,0,0,.84,2.23,3.41,3.41,0,0,0,2.43.8,6.66,6.66,0,0,0,1.56-.18,9.31,9.31,0,0,0,1.59-.57l.27,3.26A10.48,10.48,0,0,1,161,75.4Z"/><path class="cls-2" d="M167.31,75.64V65.29h-2.64V62.44h2.64V59.11h3.93v3.33h3.39v2.85h-3.39V75.64Z"/><path class="cls-2" d="M186.54,72a3.8,3.8,0,0,1-1.27,3,5.27,5.27,0,0,1-3.58,1.11,14.93,14.93,0,0,1-3-.3,8.85,8.85,0,0,1-2.4-.81l.51-3.06a10.24,10.24,0,0,0,4.56,1.35,1.29,1.29,0,0,0,.94-.28.91.91,0,0,0,.29-.65,1.14,1.14,0,0,0-.23-.73,3.38,3.38,0,0,0-1.09-.71,18,18,0,0,1-2.12-1.08,7,7,0,0,1-1.44-1.12,3.82,3.82,0,0,1-.81-1.25,4.14,4.14,0,0,1-.25-1.5A3.37,3.37,0,0,1,178.06,63a6.39,6.39,0,0,1,3.79-1,11.55,11.55,0,0,1,2.23.2,10.22,10.22,0,0,1,2.24.76l-.48,3a7,7,0,0,0-2.06-.82,9.25,9.25,0,0,0-2-.23,1.35,1.35,0,0,0-.95.26.87.87,0,0,0-.26.67,1,1,0,0,0,.41.83,8.47,8.47,0,0,0,1.6.82,18.67,18.67,0,0,1,1.82,1,6.53,6.53,0,0,1,1.23,1,3.43,3.43,0,0,1,.68,1.11A4.08,4.08,0,0,1,186.54,72Z"/></g></svg>