<svg xmlns="http://www.w3.org/2000/svg" viewBox="0 0 256 128"><defs><style>.cls-1{opacity:0.5;}.cls-2{fill:#fff200;}</style></defs><g id="_1_Flag" data-name="1 Flag"><g class="cls-1"><path d="M47.2,91.88V64.28h-7v-7.6h7V47.8H57.68v8.88h9v7.6h-9v27.6Z"/><path d="M95.52,91.88V72a10.3,10.3,0,0,0-.37-3.08,4,4,0,0,0-1-1.78,3.15,3.15,0,0,0-1.47-.81A7.86,7.86,0,0,0,91,66.12a4.87,4.87,0,0,0-2.66.81,8.06,8.06,0,0,0-2.24,2.2,11.93,11.93,0,0,0-1.6,3.28,12.73,12.73,0,0,0-.61,4v15.5H73.2V37.08H83.76v23.6a12.21,12.21,0,0,1,4.42-3.08,14.76,14.76,0,0,1,5.36-.92,17.45,17.45,0,0,1,4.62.62,11.83,11.83,0,0,1,4,2,10.06,10.06,0,0,1,2.88,3.62,12.62,12.62,0,0,1,1.1,5.53V91.88Z"/><path d="M143.12,66.52c-.75-.16-1.33-.27-1.76-.32a12.48,12.48,0,0,0-1.44-.08A8.13,8.13,0,0,0,133,69.24c-1.57,2.09-2.36,5.18-2.36,9.3V91.88H120V68.77c0-1.3,0-2.44,0-3.4s-.09-1.87-.2-2.7a25,25,0,0,0-.44-2.47c-.19-.81-.44-1.74-.76-2.78h10.1c.16.66.32,1.22.45,1.68a7.89,7.89,0,0,1,.29,1.32c.06.41.11.84.17,1.31a15.75,15.75,0,0,1,.08,1.68,18,18,0,0,1,4.55-5.21,8.75,8.75,0,0,1,5.08-1.52,7.67,7.67,0,0,1,1.88.2,17.63,17.63,0,0,1,2.12.79Z"/><path d="M178.56,66.36a9.13,9.13,0,0,1-1.42,5,12,12,0,0,1-4,3.8,22.07,22.07,0,0,1-6.23,2.44,34.51,34.51,0,0,1-8.15.88c-.28,0-.6,0-1,0s-.8,0-1.3,0a7.39,7.39,0,0,0,2.4,4.76,7.59,7.59,0,0,0,5.18,1.72,23.67,23.67,0,0,0,11.78-3.6v8.4a23.32,23.32,0,0,1-5.8,2.52,24.13,24.13,0,0,1-6.28.76,20.71,20.71,0,0,1-7.24-1.2A14.7,14.7,0,0,1,151,88.24a15.53,15.53,0,0,1-3.44-5.44,20.06,20.06,0,0,1-1.2-7.16,22.32,22.32,0,0,1,1.4-8,18.61,18.61,0,0,1,3.92-6.28,17.25,17.25,0,0,1,6-4.08,20.31,20.31,0,0,1,7.76-1.44q5.92,0,9.48,2.88A9.39,9.39,0,0,1,178.56,66.36Zm-10.64.8a2.79,2.79,0,0,0-1.1-2.2,4.16,4.16,0,0,0-2.76-.92,6.31,6.31,0,0,0-4.56,1.88A8.9,8.9,0,0,0,157,71.08a6.49,6.49,0,0,0,1.27.16h1.19Q167.92,71.24,167.92,67.16Z"/><path d="M217.84,66.36a9.13,9.13,0,0,1-1.42,5,12,12,0,0,1-4,3.8,22.19,22.19,0,0,1-6.23,2.44,34.51,34.51,0,0,1-8.15.88c-.28,0-.6,0-1,0s-.8,0-1.3,0a7.39,7.39,0,0,0,2.4,4.76,7.59,7.59,0,0,0,5.18,1.72,23.67,23.67,0,0,0,11.78-3.6v8.4a23.32,23.32,0,0,1-5.8,2.52,24.13,24.13,0,0,1-6.28.76,20.71,20.71,0,0,1-7.24-1.2,14.7,14.7,0,0,1-5.48-3.48,15.53,15.53,0,0,1-3.44-5.44,20.06,20.06,0,0,1-1.2-7.16,22.32,22.32,0,0,1,1.4-8A18.61,18.61,0,0,1,191,61.32a17.25,17.25,0,0,1,6-4.08,20.31,20.31,0,0,1,7.76-1.44q5.92,0,9.48,2.88A9.39,9.39,0,0,1,217.84,66.36Zm-10.64.8a2.79,2.79,0,0,0-1.1-2.2,4.16,4.16,0,0,0-2.76-.92,6.35,6.35,0,0,0-4.57,1.88,9,9,0,0,0-2.45,5.16,6.49,6.49,0,0,0,1.27.16h1.18Q207.2,71.24,207.2,67.16Z"/></g><path class="cls-2" d="M45.2,89.88V62.28h-7v-7.6h7V45.8H55.68v8.88h9v7.6h-9v27.6Z"/><path class="cls-2" d="M93.52,89.88V70a10.3,10.3,0,0,0-.37-3.08,4,4,0,0,0-1-1.78,3.15,3.15,0,0,0-1.47-.81A7.86,7.86,0,0,0,89,64.12a4.87,4.87,0,0,0-2.66.81,8.06,8.06,0,0,0-2.24,2.2,11.93,11.93,0,0,0-1.6,3.28,12.73,12.73,0,0,0-.61,4v15.5H71.2V35.08H81.76v23.6a12.21,12.21,0,0,1,4.42-3.08,14.76,14.76,0,0,1,5.36-.92,17.45,17.45,0,0,1,4.62.62,11.83,11.83,0,0,1,4,2,10.06,10.06,0,0,1,2.88,3.62,12.62,12.62,0,0,1,1.1,5.53V89.88Z"/><path class="cls-2" d="M141.12,64.52c-.75-.16-1.33-.27-1.76-.32a12.48,12.48,0,0,0-1.44-.08A8.13,8.13,0,0,0,131,67.24c-1.57,2.09-2.36,5.18-2.36,9.3V89.88H118V66.77c0-1.3,0-2.44,0-3.4s-.09-1.87-.2-2.7a25,25,0,0,0-.44-2.47c-.19-.81-.44-1.74-.76-2.78h10.1c.16.66.32,1.22.45,1.68a7.89,7.89,0,0,1,.29,1.32c.06.41.11.84.17,1.31a15.75,15.75,0,0,1,.08,1.68,18,18,0,0,1,4.55-5.21,8.75,8.75,0,0,1,5.08-1.52,7.67,7.67,0,0,1,1.88.2,17.63,17.63,0,0,1,2.12.79Z"/><path class="cls-2" d="M176.56,64.36a9.13,9.13,0,0,1-1.42,5,12,12,0,0,1-4,3.8,22.07,22.07,0,0,1-6.23,2.44,34.51,34.51,0,0,1-8.15.88c-.28,0-.6,0-1,0s-.8,0-1.3,0a7.39,7.39,0,0,0,2.4,4.76,7.59,7.59,0,0,0,5.18,1.72,23.67,23.67,0,0,0,11.78-3.6v8.4a23.32,23.32,0,0,1-5.8,2.52,24.13,24.13,0,0,1-6.28.76,20.71,20.71,0,0,1-7.24-1.2A14.7,14.7,0,0,1,149,86.24a15.53,15.53,0,0,1-3.44-5.44,20.06,20.06,0,0,1-1.2-7.16,22.32,22.32,0,0,1,1.4-8,18.61,18.61,0,0,1,3.92-6.28,17.25,17.25,0,0,1,6-4.08,20.31,20.31,0,0,1,7.76-1.44q5.92,0,9.48,2.88A9.39,9.39,0,0,1,176.56,64.36Zm-10.64.8a2.79,2.79,0,0,0-1.1-2.2,4.16,4.16,0,0,0-2.76-.92,6.31,6.31,0,0,0-4.56,1.88A8.9,8.9,0,0,0,155,69.08a6.49,6.49,0,0,0,1.27.16h1.19Q165.92,69.24,165.92,65.16Z"/><path class="cls-2" d="M215.84,64.36a9.13,9.13,0,0,1-1.42,5,12,12,0,0,1-4,3.8,22.19,22.19,0,0,1-6.23,2.44,34.51,34.51,0,0,1-8.15.88c-.28,0-.6,0-1,0s-.8,0-1.3,0a7.39,7.39,0,0,0,2.4,4.76,7.59,7.59,0,0,0,5.18,1.72,23.67,23.67,0,0,0,11.78-3.6v8.4a23.32,23.32,0,0,1-5.8,2.52,24.13,24.13,0,0,1-6.28.76,20.71,20.71,0,0,1-7.24-1.2,14.7,14.7,0,0,1-5.48-3.48,15.53,15.53,0,0,1-3.44-5.44,20.06,20.06,0,0,1-1.2-7.16,22.32,22.32,0,0,1,1.4-8A18.61,18.61,0,0,1,189,59.32a17.25,17.25,0,0,1,6-4.08,20.31,20.31,0,0,1,7.76-1.44q5.92,0,9.48,2.88A9.39,9.39,0,0,1,215.84,64.36Zm-10.64.8a2.79,2.79,0,0,0-1.1-2.2,4.16,4.16,0,0,0-2.76-.92,6.35,6.35,0,0,0-4.57,1.88,9,9,0,0,0-2.45,5.16,6.49,6.49,0,0,0,1.27.16h1.18Q205.2,69.24,205.2,65.16Z"/></g></svg>