<svg xmlns="http://www.w3.org/2000/svg" viewBox="0 0 256 128"><defs><style>.cls-1{fill:#fff200;}.cls-2{fill:#323232;}</style></defs><g id="_3_Hot_air_ballons" data-name="3 Hot air ballons"><path class="cls-1" d="M88.42,69.23a5.85,5.85,0,0,1-.58,2.58,5.77,5.77,0,0,1-1.66,2,8.19,8.19,0,0,1-2.66,1.33,12.13,12.13,0,0,1-3.47.47,15,15,0,0,1-2.63-.21,9.1,9.1,0,0,1-2.2-.68,8.38,8.38,0,0,1-1.94-1.22,14.18,14.18,0,0,1-1.83-1.87l2.24-3q2.66,3,5.68,3A4.1,4.1,0,0,0,82,70.84a2.73,2.73,0,0,0,1-2.08,2.81,2.81,0,0,0-.27-1.47,2.72,2.72,0,0,0-1.16-1.14,6.59,6.59,0,0,0-2.28-.67,18,18,0,0,0-3.6-.07v-4a23.36,23.36,0,0,0,3.41,0A6.2,6.2,0,0,0,81.29,61a2.32,2.32,0,0,0,1.09-1,3,3,0,0,0,.32-1.48,2.47,2.47,0,0,0-1-1.89,3.94,3.94,0,0,0-2.45-.71,5.83,5.83,0,0,0-2.42.53,10,10,0,0,0-2.44,1.73L72.5,55q2.55-3,7.86-3.05a9.66,9.66,0,0,1,3,.43,6.55,6.55,0,0,1,2.28,1.22,5.18,5.18,0,0,1,1.46,1.89,5.82,5.82,0,0,1,.51,2.48,5.22,5.22,0,0,1-1,3.28,7.65,7.65,0,0,1-3.27,2.19,6.39,6.39,0,0,1,3.77,1.92A5.72,5.72,0,0,1,88.42,69.23Z"/><path class="cls-2" d="M109.57,75.4a9.26,9.26,0,0,1-2.15.24,7.25,7.25,0,0,1-2.64-.47,6.6,6.6,0,0,1-2.08-1.3,5.75,5.75,0,0,1-1.37-2,6.8,6.8,0,0,1-.48-2.6,8.35,8.35,0,0,1,.44-2.75,5.79,5.79,0,0,1,1.32-2.17,6.15,6.15,0,0,1,2.19-1.4,8.53,8.53,0,0,1,3-.5,7,7,0,0,1,2.3.32,8.3,8.3,0,0,1,1.48.67l-.69,3.45-.76-.37a5.1,5.1,0,0,0-.6-.27,2.91,2.91,0,0,0-.63-.15,6.48,6.48,0,0,0-.83,0,3.09,3.09,0,0,0-2.31.82,3,3,0,0,0-.81,2.21,3,3,0,0,0,.84,2.23,3.41,3.41,0,0,0,2.43.8,6.66,6.66,0,0,0,1.56-.18,9.31,9.31,0,0,0,1.59-.57l.27,3.26A10.41,10.41,0,0,1,109.57,75.4Z"/><path class="cls-2" d="M114.92,75.64V54.73h4V75.64Z"/><path class="cls-2" d="M136.67,69a7.58,7.58,0,0,1-.49,2.84,5.73,5.73,0,0,1-1.41,2.08,6,6,0,0,1-2.18,1.28,8.6,8.6,0,0,1-2.82.44A8.69,8.69,0,0,1,127,75.2a6.08,6.08,0,0,1-2.18-1.28,5.88,5.88,0,0,1-1.42-2.08,7.38,7.38,0,0,1-.51-2.84,7.48,7.48,0,0,1,.49-2.77,5.64,5.64,0,0,1,3.57-3.35,9.63,9.63,0,0,1,5.69,0,6.1,6.1,0,0,1,2.18,1.26,5.6,5.6,0,0,1,1.41,2.07A7.46,7.46,0,0,1,136.67,69Zm-4,0a3,3,0,0,0-.8-2.22,3,3,0,0,0-2.17-.8,2.76,2.76,0,0,0-2.13.8,3.11,3.11,0,0,0-.75,2.22,3.28,3.28,0,0,0,.73,2.29,2.73,2.73,0,0,0,2.15.81,2.93,2.93,0,0,0,2.2-.79A3.2,3.2,0,0,0,132.68,69Z"/><path class="cls-2" d="M149.48,75.28a5.58,5.58,0,0,1-.25-.69c0-.18-.11-.44-.17-.78a5.87,5.87,0,0,1-4.23,1.83,4.39,4.39,0,0,1-1.78-.36,4.57,4.57,0,0,1-1.44-1,4.44,4.44,0,0,1-1-1.55,5.8,5.8,0,0,1-.33-2q0-1.23.06-2.28c0-.7.07-1.37.09-2s0-1.28,0-1.92-.07-1.33-.15-2h4c.06.66.1,1.29.11,1.9s0,1.21,0,1.8,0,1.21-.06,1.83-.05,1.27-.05,2a3.17,3.17,0,0,0,.19,1.23,1.36,1.36,0,0,0,1.09.9,3.79,3.79,0,0,0,.53,0,3.36,3.36,0,0,0,.64-.11,2.16,2.16,0,0,0,.91-.55,3.76,3.76,0,0,0,.8-1.28,6.05,6.05,0,0,0,.34-2.25V62.44h4v8.73a14.86,14.86,0,0,0,.18,2.27,7.43,7.43,0,0,0,.48,1.84Z"/><path class="cls-2" d="M167.48,75.64q0-.18-.06-.42t-.06-.48q0-.27-.06-.66a5.53,5.53,0,0,1-2,1.49,6.14,6.14,0,0,1-2.37.43,6,6,0,0,1-2.4-.46,5.25,5.25,0,0,1-1.81-1.29,5.76,5.76,0,0,1-1.18-2,7.68,7.68,0,0,1-.42-2.61,8.92,8.92,0,0,1,.5-3A7.26,7.26,0,0,1,159,64.23a6.14,6.14,0,0,1,2.11-1.56,6.49,6.49,0,0,1,2.7-.56,9.33,9.33,0,0,1,1.32.09,7.72,7.72,0,0,1,1.47.39V54.73h4V71.08c0,.34,0,.77.05,1.29s.06,1,.1,1.5.09,1.15.15,1.77ZM166.61,66a4.19,4.19,0,0,0-1.11-.3,9.2,9.2,0,0,0-1.07-.06,3,3,0,0,0-2.42,1,4.21,4.21,0,0,0-.89,2.83,3.07,3.07,0,0,0,.63,2.06,2.1,2.1,0,0,0,1.71.73,3.53,3.53,0,0,0,1.23-.21,2.28,2.28,0,0,0,1-.72,3.85,3.85,0,0,0,.67-1.33,7.11,7.11,0,0,0,.25-2.06Z"/><path class="cls-2" d="M184.55,72a3.77,3.77,0,0,1-1.27,3,5.26,5.26,0,0,1-3.57,1.11,15,15,0,0,1-3.05-.3,9.09,9.09,0,0,1-2.4-.81l.51-3.06a10.24,10.24,0,0,0,4.56,1.35,1.32,1.32,0,0,0,.95-.28.9.9,0,0,0,.28-.65,1.13,1.13,0,0,0-.22-.73,3.46,3.46,0,0,0-1.1-.71,17.82,17.82,0,0,1-2.11-1.08,7,7,0,0,1-1.44-1.12,3.82,3.82,0,0,1-.81-1.25,4.14,4.14,0,0,1-.26-1.5A3.37,3.37,0,0,1,176.07,63a6.39,6.39,0,0,1,3.79-1,11.65,11.65,0,0,1,2.24.2,10.39,10.39,0,0,1,2.24.76l-.48,3a7.2,7.2,0,0,0-2.06-.82,9.34,9.34,0,0,0-2-.23,1.35,1.35,0,0,0-.95.26.9.9,0,0,0-.26.67,1,1,0,0,0,.41.83,8.82,8.82,0,0,0,1.6.82,18.67,18.67,0,0,1,1.82,1,6.53,6.53,0,0,1,1.23,1,3.27,3.27,0,0,1,.68,1.11A4.08,4.08,0,0,1,184.55,72Z"/></g></svg>