<svg xmlns="http://www.w3.org/2000/svg" viewBox="0 0 256 128"><defs><style>.cls-1{fill:#fff200;}.cls-2{fill:#323232;}</style></defs><g id="_3_Hot_air_ballons" data-name="3 Hot air ballons"><path class="cls-1" d="M84.13,68.08a7.1,7.1,0,0,1-2.2,5.59,8.92,8.92,0,0,1-6.16,2,11.58,11.58,0,0,1-4.51-.86,10.14,10.14,0,0,1-3.58-2.55l1.9-3.36q3,2.76,5.92,2.76a4.55,4.55,0,0,0,3-.93,3,3,0,0,0,1.16-2.4,3.33,3.33,0,0,0-1-2.59,4.65,4.65,0,0,0-4.59-.49,7.13,7.13,0,0,0-1.68,1.21l-2.93-1.67.34-12.85h13.6l0,4H74.14L74,61.5c.33-.16.61-.29.85-.39a6.21,6.21,0,0,1,.71-.26,3.45,3.45,0,0,1,.75-.13,8,8,0,0,1,.89,0,7.48,7.48,0,0,1,2.84.53,6.27,6.27,0,0,1,2.19,1.51,6.71,6.71,0,0,1,1.42,2.34A8.62,8.62,0,0,1,84.13,68.08Z"/><path class="cls-2" d="M106.58,66.13l-.66-.12a4.39,4.39,0,0,0-.54,0,3.06,3.06,0,0,0-2.6,1.17,5.76,5.76,0,0,0-.88,3.49v5h-4V67c0-.49,0-.92,0-1.28s0-.7-.07-1a9,9,0,0,0-.17-.93c-.07-.3-.16-.65-.28-1h3.78c.07.24.12.45.17.63a2.43,2.43,0,0,1,.11.49l.06.49a4,4,0,0,1,0,.64,6.6,6.6,0,0,1,1.7-2,3.28,3.28,0,0,1,1.91-.57,2.75,2.75,0,0,1,.7.08,7,7,0,0,1,.8.29Z"/><path class="cls-2" d="M117.65,75.64c0-.14,0-.31,0-.51s0-.35,0-.57,0-.45,0-.69a4.7,4.7,0,0,1-2,1.55,6.29,6.29,0,0,1-2.55.52,4.77,4.77,0,0,1-3.84-1.62,7,7,0,0,1-1.36-4.62,7.09,7.09,0,0,1,2.2-5.59,9.14,9.14,0,0,1,6.28-2c.45,0,.85,0,1.22,0s.73.06,1.09.11.74.11,1.13.19.81.19,1.28.33v8.52c0,.46,0,1,0,1.46s0,1,.09,1.39.08,1,.12,1.47ZM117,65.86a6.17,6.17,0,0,0-1-.15l-.79,0a3.21,3.21,0,0,0-2.57,1.07,4.38,4.38,0,0,0-.91,3,2.91,2.91,0,0,0,.55,1.92,1.89,1.89,0,0,0,1.55.66,2.78,2.78,0,0,0,1.21-.27,2.92,2.92,0,0,0,1-.76,3.54,3.54,0,0,0,.67-1.17,4.29,4.29,0,0,0,.25-1.52Z"/><path class="cls-2" d="M138.68,68.09a9,9,0,0,1-.52,3.1,6.59,6.59,0,0,1-3.8,3.91,8,8,0,0,1-3,.54,15.29,15.29,0,0,1-3-.31,14.07,14.07,0,0,1-2.81-.85V55.07h4V64a4.68,4.68,0,0,1,1.71-1.16,6,6,0,0,1,2.17-.38,5.56,5.56,0,0,1,2.15.4A4.68,4.68,0,0,1,137.23,64a5.39,5.39,0,0,1,1.07,1.78A6.86,6.86,0,0,1,138.68,68.09Zm-4,.72a2.62,2.62,0,0,0-.61-1.83,2.15,2.15,0,0,0-1.69-.67,2.73,2.73,0,0,0-1.21.25,2.77,2.77,0,0,0-.92.66,2.86,2.86,0,0,0-.57,1,3.33,3.33,0,0,0-.19,1.14v2.28a3.8,3.8,0,0,0,.94.35,6.32,6.32,0,0,0,1.09.08,3.11,3.11,0,0,0,2.32-.85A3.26,3.26,0,0,0,134.69,68.81Z"/><path class="cls-2" d="M155.69,68.09a9,9,0,0,1-.52,3.1,6.59,6.59,0,0,1-3.8,3.91,8,8,0,0,1-3,.54,15.29,15.29,0,0,1-3-.31,14.07,14.07,0,0,1-2.81-.85V55.07h4V64a4.68,4.68,0,0,1,1.71-1.16,6,6,0,0,1,2.17-.38,5.56,5.56,0,0,1,2.15.4A4.77,4.77,0,0,1,154.24,64a5.39,5.39,0,0,1,1.07,1.78A6.86,6.86,0,0,1,155.69,68.09Zm-4,.72a2.62,2.62,0,0,0-.61-1.83,2.15,2.15,0,0,0-1.69-.67,2.73,2.73,0,0,0-1.21.25,2.77,2.77,0,0,0-.92.66,2.86,2.86,0,0,0-.57,1,3.33,3.33,0,0,0-.19,1.14v2.28a3.8,3.8,0,0,0,.94.35,6.24,6.24,0,0,0,1.09.08,3.13,3.13,0,0,0,2.32-.85A3.26,3.26,0,0,0,151.7,68.81Z"/><path class="cls-2" d="M164.09,58.82a1.67,1.67,0,0,1-.69,1.33,2.55,2.55,0,0,1-1.65.55,2.63,2.63,0,0,1-1.69-.56,1.75,1.75,0,0,1-.71-1.37,1.6,1.6,0,0,1,.66-1.38,2.73,2.73,0,0,1,3.37,0,2.12,2.12,0,0,1,.51.64A1.68,1.68,0,0,1,164.09,58.82Zm-4.5,16.82V62.44h4v13.2Z"/><path class="cls-2" d="M169.1,75.64V65.29h-2.65V62.44h2.65V59.11H173v3.33h3.39v2.85H173V75.64Z"/><path class="cls-2" d="M188.32,72a3.77,3.77,0,0,1-1.27,3,5.23,5.23,0,0,1-3.57,1.11,14.93,14.93,0,0,1-3-.3A9,9,0,0,1,178,75l.51-3.06a10.24,10.24,0,0,0,4.56,1.35,1.32,1.32,0,0,0,1-.28.9.9,0,0,0,.28-.65,1.13,1.13,0,0,0-.22-.73A3.5,3.5,0,0,0,183,70.9a17.26,17.26,0,0,1-2.12-1.08,7,7,0,0,1-1.44-1.12,3.82,3.82,0,0,1-.81-1.25,4.14,4.14,0,0,1-.25-1.5A3.37,3.37,0,0,1,179.85,63a6.36,6.36,0,0,1,3.78-1,11.65,11.65,0,0,1,2.24.2,10.22,10.22,0,0,1,2.24.76l-.48,3a7.09,7.09,0,0,0-2.06-.82,9.32,9.32,0,0,0-2-.23,1.36,1.36,0,0,0-1,.26.9.9,0,0,0-.26.67,1,1,0,0,0,.42.83,8.16,8.16,0,0,0,1.6.82,19.94,19.94,0,0,1,1.82,1,6.14,6.14,0,0,1,1.22,1,3.12,3.12,0,0,1,.68,1.11A3.82,3.82,0,0,1,188.32,72Z"/></g></svg>