<svg xmlns="http://www.w3.org/2000/svg" viewBox="0 0 256 128"><defs><style>.cls-1{fill:#ff0;}.cls-2{fill:#323232;}</style></defs><g id="_3_Hot_air_ballons" data-name="3 Hot air ballons"><path class="cls-1" d="M104.89,75.66h-4.22V69.81H91.93V51.89h4.35V66h4.39V60.26h4.18V66h3v3.78h-3Z"/><path class="cls-2" d="M132.18,59.61a9.17,9.17,0,0,0-2-1.25,4.71,4.71,0,0,0-1.86-.34,5.73,5.73,0,0,0-1.26.13,2.07,2.07,0,0,0-1,.6,3.3,3.3,0,0,0-.72,1.35,9,9,0,0,0-.3,2.36h3.09v2.85H125V75.66h-4V65.31h-2.49V62.46H121a13.51,13.51,0,0,1,.46-3.9,5.49,5.49,0,0,1,1.32-2.34,4.4,4.4,0,0,1,2.07-1.14,11.67,11.67,0,0,1,2.78-.3,8.71,8.71,0,0,1,2.61.37,9.7,9.7,0,0,1,2.46,1.22Zm-2.67,16V62.46h4v13.2Z"/><path class="cls-2" d="M147.87,72a3.77,3.77,0,0,1-1.27,3A5.27,5.27,0,0,1,143,76.11a14.93,14.93,0,0,1-3-.3,8.85,8.85,0,0,1-2.4-.81l.51-3.06a10.24,10.24,0,0,0,4.56,1.35,1.29,1.29,0,0,0,.94-.29.88.88,0,0,0,.29-.64,1.17,1.17,0,0,0-.23-.74,3.4,3.4,0,0,0-1.09-.7,18,18,0,0,1-2.12-1.08A7,7,0,0,1,139,68.71a3.79,3.79,0,0,1-.81-1.24,4.14,4.14,0,0,1-.25-1.5A3.38,3.38,0,0,1,139.39,63a6.39,6.39,0,0,1,3.79-1,11.59,11.59,0,0,1,2.23.19,10.54,10.54,0,0,1,2.25.77l-.48,3a7.18,7.18,0,0,0-2.07-.83,9.15,9.15,0,0,0-2-.22,1.35,1.35,0,0,0-.95.25.89.89,0,0,0-.26.68,1,1,0,0,0,.41.82,8.68,8.68,0,0,0,1.6.83,18.77,18.77,0,0,1,1.82,1,6.53,6.53,0,0,1,1.23,1,3.27,3.27,0,0,1,.68,1.11A4.14,4.14,0,0,1,147.87,72Z"/><path class="cls-2" d="M160.08,75.66V68.2a4,4,0,0,0-.14-1.16,1.6,1.6,0,0,0-.38-.67,1.3,1.3,0,0,0-.55-.3,2.76,2.76,0,0,0-.65-.07,1.82,1.82,0,0,0-1,.3,3,3,0,0,0-.85.83,4.47,4.47,0,0,0-.59,1.22,4.64,4.64,0,0,0-.23,1.49v5.82h-4V55.11h4V64a4.57,4.57,0,0,1,1.65-1.16,5.6,5.6,0,0,1,2-.34,6.74,6.74,0,0,1,1.73.23,4.41,4.41,0,0,1,1.5.75,3.63,3.63,0,0,1,1.08,1.35,4.67,4.67,0,0,1,.42,2.08v8.79Z"/></g></svg>