<svg xmlns="http://www.w3.org/2000/svg" viewBox="0 0 256 128"><defs><style>.cls-1{opacity:0.5;}.cls-2{fill:#ff0;}</style></defs><g id="_1_Flag" data-name="1 Flag"><g class="cls-1"><path d="M70.32,87V59.44h-7v-7.6h7V43H80.8v8.88h9v7.6h-9V87Z"/><path d="M140.8,83.13a6.09,6.09,0,0,1-2.12,3A6.38,6.38,0,0,1,135,87a6,6,0,0,1-3.68-1,6.78,6.78,0,0,1-2.08-3.25l-6.8-20.75-7.12,21.16a5.17,5.17,0,0,1-2,2.92,7,7,0,0,1-3.8.9,11.26,11.26,0,0,1-1.68-.12A4.08,4.08,0,0,1,105,85.17a8.13,8.13,0,0,1-1.12-2.27L92.64,51.84h10.8L108.08,66c.16.52.33,1.14.52,1.84s.39,1.39.6,2.07.45,1.61.72,2.49a16.24,16.24,0,0,1,.48-2c.16-.57.33-1.18.52-1.83s.36-1.26.52-1.83l4.48-15h13l4.8,15.69a15.26,15.26,0,0,0,.44,1.52c.19.55.36,1.08.52,1.6a10.47,10.47,0,0,1,.48,1.79c.16-.52.32-1.06.48-1.63.27-1,.56-2,.88-3l4.72-16h11.2Z"/><path d="M194.72,69.33a20.14,20.14,0,0,1-1.32,7.57,15,15,0,0,1-3.74,5.54,16.16,16.16,0,0,1-5.81,3.43,24.82,24.82,0,0,1-15.06,0A16.08,16.08,0,0,1,163,82.44a15.57,15.57,0,0,1-3.79-5.54,19.74,19.74,0,0,1-1.35-7.57,19.64,19.64,0,0,1,1.31-7.39,15.37,15.37,0,0,1,3.71-5.5A15.67,15.67,0,0,1,168.67,53a25.62,25.62,0,0,1,15.18,0,16,16,0,0,1,5.81,3.36,14.65,14.65,0,0,1,3.74,5.5A19.91,19.91,0,0,1,194.72,69.33Zm-10.64,0a8,8,0,0,0-2.15-5.93,7.86,7.86,0,0,0-5.77-2.12,7.43,7.43,0,0,0-5.7,2.12,8.35,8.35,0,0,0-2,5.93,8.82,8.82,0,0,0,1.94,6.11,7.31,7.31,0,0,0,5.74,2.16A7.82,7.82,0,0,0,182,75.48,8.48,8.48,0,0,0,184.08,69.33Z"/></g><path class="cls-2" d="M68.32,85V57.44h-7v-7.6h7V41H78.8v8.88h9v7.6h-9V85Z"/><path class="cls-2" d="M138.8,81.13a6.09,6.09,0,0,1-2.12,3A6.38,6.38,0,0,1,133,85a6,6,0,0,1-3.68-1,6.78,6.78,0,0,1-2.08-3.25l-6.8-20.75-7.12,21.16a5.17,5.17,0,0,1-2,2.92,7,7,0,0,1-3.8.9,11.26,11.26,0,0,1-1.68-.12A4.08,4.08,0,0,1,103,83.17a8.13,8.13,0,0,1-1.12-2.27L90.64,49.84h10.8L106.08,64c.16.52.33,1.14.52,1.84s.39,1.39.6,2.07.45,1.61.72,2.49a16.24,16.24,0,0,1,.48-2c.16-.57.33-1.18.52-1.83s.36-1.26.52-1.83l4.48-15h13l4.8,15.69a15.26,15.26,0,0,0,.44,1.52c.19.55.36,1.08.52,1.6a10.47,10.47,0,0,1,.48,1.79c.16-.52.32-1.06.48-1.63.27-1,.56-2,.88-3l4.72-16h11.2Z"/><path class="cls-2" d="M192.72,67.33a20.14,20.14,0,0,1-1.32,7.57,15,15,0,0,1-3.74,5.54,16.16,16.16,0,0,1-5.81,3.43,24.82,24.82,0,0,1-15.06,0A16.08,16.08,0,0,1,161,80.44a15.57,15.57,0,0,1-3.79-5.54,19.74,19.74,0,0,1-1.35-7.57,19.64,19.64,0,0,1,1.31-7.39,15.37,15.37,0,0,1,3.71-5.5A15.67,15.67,0,0,1,166.67,51a25.62,25.62,0,0,1,15.18,0,16,16,0,0,1,5.81,3.36,14.65,14.65,0,0,1,3.74,5.5A19.91,19.91,0,0,1,192.72,67.33Zm-10.64,0a8,8,0,0,0-2.15-5.93,7.86,7.86,0,0,0-5.77-2.12,7.43,7.43,0,0,0-5.7,2.12,8.35,8.35,0,0,0-2,5.93,8.82,8.82,0,0,0,1.94,6.11,7.31,7.31,0,0,0,5.74,2.16A7.82,7.82,0,0,0,180,73.48,8.48,8.48,0,0,0,182.08,67.33Z"/></g></svg>