<svg id="_1_Train_engine" data-name="1 Train engine" xmlns="http://www.w3.org/2000/svg" viewBox="0 0 256 128"><defs><style>.cls-1{fill:#fff200;}.cls-2{fill:#323232;}</style></defs><path class="cls-1" d="M83.44,75.64l0-2.67c.71-.82,1.45-1.64,2.23-2.45L88,68.1c.77-.8,1.51-1.58,2.21-2.35a21.11,21.11,0,0,0,1.85-2.32,13,13,0,0,0,1.28-2.3,5.88,5.88,0,0,0,.47-2.3,2.54,2.54,0,0,0-.88-2,3.2,3.2,0,0,0-2.18-.76,3.63,3.63,0,0,0-1.64.36,4.11,4.11,0,0,0-1.26.95A6.86,6.86,0,0,0,87,58.64,10.93,10.93,0,0,0,86.3,60L83,57.66c.23-.51.51-1.1.85-1.76A7,7,0,0,1,85.36,54a8.25,8.25,0,0,1,2.52-1.5,10.61,10.61,0,0,1,4-.62,9.54,9.54,0,0,1,3,.45,6.72,6.72,0,0,1,2.33,1.27,5.4,5.4,0,0,1,1.49,2,6.37,6.37,0,0,1,.52,2.63,8.91,8.91,0,0,1-1,4,21.53,21.53,0,0,1-2.43,3.76,28.73,28.73,0,0,1-3,3.2c-1.05,1-1.93,1.73-2.66,2.35h9.29v4Z"/><path class="cls-2" d="M113.42,75.64V65.29h-2.64V62.44h2.64V59.11h3.93v3.33h3.39v2.85h-3.39V75.64Z"/><path class="cls-2" d="M132.17,66.13l-.66-.12a4.39,4.39,0,0,0-.54,0,3.06,3.06,0,0,0-2.6,1.17,5.76,5.76,0,0,0-.88,3.49v5h-4V67c0-.49,0-.92,0-1.28s0-.7-.07-1a9,9,0,0,0-.17-.93c-.07-.3-.16-.65-.28-1h3.79c.06.24.11.45.17.63a3.28,3.28,0,0,1,.1.49c0,.16,0,.32.07.49a5.85,5.85,0,0,1,0,.64,6.6,6.6,0,0,1,1.7-2,3.28,3.28,0,0,1,1.91-.57,2.75,2.75,0,0,1,.7.08,7,7,0,0,1,.8.29Z"/><path class="cls-2" d="M145.46,66.07a3.37,3.37,0,0,1-.54,1.86,4.39,4.39,0,0,1-1.5,1.43,8.34,8.34,0,0,1-2.34.91,13,13,0,0,1-3.06.33h-.36l-.48,0a2.74,2.74,0,0,0,.9,1.79A2.84,2.84,0,0,0,140,73a8.89,8.89,0,0,0,4.42-1.35V74.8a8.71,8.71,0,0,1-2.18,1,9.07,9.07,0,0,1-2.35.28,7.8,7.8,0,0,1-2.72-.45,5.49,5.49,0,0,1-2.05-1.3,5.82,5.82,0,0,1-1.29-2,7.55,7.55,0,0,1-.45-2.69,8.31,8.31,0,0,1,.52-3,7,7,0,0,1,1.47-2.36,6.5,6.5,0,0,1,2.27-1.53,7.62,7.62,0,0,1,2.91-.54,5.47,5.47,0,0,1,3.55,1.08A3.52,3.52,0,0,1,145.46,66.07Zm-4,.3a1,1,0,0,0-.41-.82,1.58,1.58,0,0,0-1-.35,2.37,2.37,0,0,0-1.71.71,3.34,3.34,0,0,0-.92,1.93,2.49,2.49,0,0,0,.47.06h.45C140.41,67.9,141.47,67.39,141.47,66.37Z"/><path class="cls-2" d="M160.19,66.07a3.37,3.37,0,0,1-.54,1.86,4.39,4.39,0,0,1-1.5,1.43,8.34,8.34,0,0,1-2.34.91,13,13,0,0,1-3.06.33h-.36l-.48,0a2.74,2.74,0,0,0,.9,1.79,2.84,2.84,0,0,0,1.94.64,8.89,8.89,0,0,0,4.42-1.35V74.8a8.71,8.71,0,0,1-2.18,1,9.07,9.07,0,0,1-2.35.28,7.8,7.8,0,0,1-2.72-.45,5.49,5.49,0,0,1-2-1.3,5.82,5.82,0,0,1-1.29-2,7.55,7.55,0,0,1-.45-2.69,8.31,8.31,0,0,1,.52-3,7,7,0,0,1,1.47-2.36,6.5,6.5,0,0,1,2.27-1.53,7.62,7.62,0,0,1,2.91-.54,5.47,5.47,0,0,1,3.55,1.08A3.52,3.52,0,0,1,160.19,66.07Zm-4,.3a1,1,0,0,0-.41-.82,1.58,1.58,0,0,0-1-.35,2.37,2.37,0,0,0-1.71.71,3.34,3.34,0,0,0-.92,1.93,2.4,2.4,0,0,0,.48.06H153C155.14,67.9,156.2,67.39,156.2,66.37Z"/><path class="cls-2" d="M173,72a3.8,3.8,0,0,1-1.27,3,5.27,5.27,0,0,1-3.58,1.11,14.93,14.93,0,0,1-3-.3,8.85,8.85,0,0,1-2.4-.81l.51-3.06a10.24,10.24,0,0,0,4.56,1.35,1.29,1.29,0,0,0,.94-.28.91.91,0,0,0,.29-.65,1.14,1.14,0,0,0-.23-.73,3.38,3.38,0,0,0-1.09-.71,18,18,0,0,1-2.12-1.08,7,7,0,0,1-1.44-1.12,3.82,3.82,0,0,1-.81-1.25A4.14,4.14,0,0,1,163,66,3.37,3.37,0,0,1,164.49,63a6.39,6.39,0,0,1,3.79-1,11.55,11.55,0,0,1,2.23.2,10.22,10.22,0,0,1,2.24.76l-.48,3a7,7,0,0,0-2.06-.82,9.25,9.25,0,0,0-2-.23,1.35,1.35,0,0,0-1,.26.87.87,0,0,0-.26.67,1,1,0,0,0,.41.83,8.47,8.47,0,0,0,1.6.82,18.67,18.67,0,0,1,1.82,1,6.53,6.53,0,0,1,1.23,1,3.43,3.43,0,0,1,.68,1.11A4.08,4.08,0,0,1,173,72Z"/></svg>