<svg xmlns="http://www.w3.org/2000/svg" viewBox="0 0 256 128"><defs><style>.cls-1{fill:#fff200;}.cls-2{fill:#323232;}</style></defs><g id="_3_Hot_air_ballons" data-name="3 Hot air ballons"><path class="cls-1" d="M91.36,75.66H87.14V69.81H78.4V51.89h4.35V66h4.39V60.26h4.18V66h3v3.78h-3Z"/><path class="cls-2" d="M120,68.1a8.79,8.79,0,0,1-.52,3.11,6.52,6.52,0,0,1-3.8,3.91,8,8,0,0,1-3,.54,16,16,0,0,1-3-.31,14,14,0,0,1-2.82-.86V55.08h4V64a4.83,4.83,0,0,1,1.71-1.15,6,6,0,0,1,2.18-.38,5.6,5.6,0,0,1,2.15.4A4.48,4.48,0,0,1,118.52,64a5.13,5.13,0,0,1,1.07,1.78A6.8,6.8,0,0,1,120,68.1Zm-4,.73a2.66,2.66,0,0,0-.6-1.84,2.2,2.2,0,0,0-1.7-.66,2.71,2.71,0,0,0-2.12.91,2.78,2.78,0,0,0-.58,1,3.33,3.33,0,0,0-.19,1.14v2.28a4,4,0,0,0,.94.36,6.32,6.32,0,0,0,1.09.08,3.1,3.1,0,0,0,2.32-.86A3.24,3.24,0,0,0,116,68.83Z"/><path class="cls-2" d="M136.83,69a7.78,7.78,0,0,1-.49,2.84,5.6,5.6,0,0,1-1.41,2.07,6,6,0,0,1-2.18,1.29,8.69,8.69,0,0,1-2.82.44,8.6,8.6,0,0,1-2.82-.44,5.87,5.87,0,0,1-2.18-1.29,5.63,5.63,0,0,1-1.42-2.07A7.38,7.38,0,0,1,123,69a7.28,7.28,0,0,1,.49-2.77,5.64,5.64,0,0,1,3.57-3.35,8.65,8.65,0,0,1,2.87-.44,9,9,0,0,1,2.82.42,5.9,5.9,0,0,1,2.18,1.26,5.57,5.57,0,0,1,1.41,2.06A7.71,7.71,0,0,1,136.83,69Zm-4,0a3,3,0,0,0-.81-2.23,2.93,2.93,0,0,0-2.16-.79,2.79,2.79,0,0,0-2.14.79A3.16,3.16,0,0,0,127,69a3.28,3.28,0,0,0,.73,2.29,2.73,2.73,0,0,0,2.15.81,2.9,2.9,0,0,0,2.19-.8A3.14,3.14,0,0,0,132.84,69Z"/><path class="cls-2" d="M149.91,75.66q0-.21,0-.51a4.32,4.32,0,0,1,0-.57c0-.22,0-.45-.05-.69a4.71,4.71,0,0,1-1.95,1.54,6.38,6.38,0,0,1-2.56.53,4.74,4.74,0,0,1-3.83-1.62,6.92,6.92,0,0,1-1.37-4.62,7.11,7.11,0,0,1,2.2-5.6,9.14,9.14,0,0,1,6.28-2c.45,0,.85,0,1.22,0s.73.05,1.1.1.74.12,1.12.2.81.19,1.28.33v8.52c0,.46,0,.94,0,1.45s0,1,.09,1.4l.12,1.47Zm-.63-9.78a6.17,6.17,0,0,0-.95-.15l-.79,0A3.21,3.21,0,0,0,145,66.76a4.4,4.4,0,0,0-.91,3,2.91,2.91,0,0,0,.55,1.92,1.89,1.89,0,0,0,1.55.66,2.78,2.78,0,0,0,1.21-.27,3,3,0,0,0,1-.77,3.54,3.54,0,0,0,.67-1.17,4.23,4.23,0,0,0,.25-1.51Z"/><path class="cls-2" d="M158.37,75.66V65.31h-2.64V62.46h2.64V59.13h3.93v3.33h3.39v2.85H162.3V75.66Z"/><path class="cls-2" d="M177.6,72a3.8,3.8,0,0,1-1.27,3,5.27,5.27,0,0,1-3.58,1.11,14.93,14.93,0,0,1-3-.3,8.85,8.85,0,0,1-2.4-.81l.51-3.06a10.24,10.24,0,0,0,4.56,1.35,1.29,1.29,0,0,0,.94-.29.88.88,0,0,0,.29-.64,1.17,1.17,0,0,0-.23-.74,3.4,3.4,0,0,0-1.09-.7,18,18,0,0,1-2.12-1.08,7,7,0,0,1-1.44-1.13,3.79,3.79,0,0,1-.81-1.24,4.14,4.14,0,0,1-.25-1.5A3.38,3.38,0,0,1,169.12,63a6.39,6.39,0,0,1,3.79-1,11.59,11.59,0,0,1,2.23.19,10.54,10.54,0,0,1,2.25.77l-.49,3a7,7,0,0,0-2.06-.83,9.22,9.22,0,0,0-2-.22,1.35,1.35,0,0,0-1,.25.89.89,0,0,0-.26.68,1,1,0,0,0,.41.82,8.34,8.34,0,0,0,1.6.83,18.77,18.77,0,0,1,1.82,1,6.53,6.53,0,0,1,1.23,1,3.27,3.27,0,0,1,.68,1.11A4.14,4.14,0,0,1,177.6,72Z"/></g></svg>