<svg xmlns="http://www.w3.org/2000/svg" viewBox="0 0 256 128"><defs><style>.cls-1{fill:#fff200;}.cls-2{fill:#323232;}</style></defs><g id="_3_Hot_air_ballons" data-name="3 Hot air ballons"><path class="cls-1" d="M90.08,75.64H84.94l8.91-19.72H83.17v-4h16v3.53Z"/><path class="cls-2" d="M125.22,68.09a9,9,0,0,1-.52,3.1,6.52,6.52,0,0,1-3.8,3.91,8,8,0,0,1-3,.54,15.12,15.12,0,0,1-3-.31,14,14,0,0,1-2.82-.85V55.07h4V64a4.76,4.76,0,0,1,1.71-1.16,6,6,0,0,1,2.18-.38,5.55,5.55,0,0,1,2.14.4A4.68,4.68,0,0,1,123.77,64a5.39,5.39,0,0,1,1.07,1.78A6.86,6.86,0,0,1,125.22,68.09Zm-4,.72a2.58,2.58,0,0,0-.61-1.83,2.15,2.15,0,0,0-1.69-.67,2.85,2.85,0,0,0-2.13.91,2.86,2.86,0,0,0-.57,1,3.33,3.33,0,0,0-.19,1.14v2.28A4,4,0,0,0,117,72a6.32,6.32,0,0,0,1.09.08,3.1,3.1,0,0,0,2.32-.85A3.26,3.26,0,0,0,121.23,68.81Z"/><path class="cls-2" d="M138.21,75.64c0-.14,0-.31,0-.51s0-.35,0-.57,0-.45,0-.69a4.7,4.7,0,0,1-2,1.55,6.29,6.29,0,0,1-2.55.52,4.77,4.77,0,0,1-3.84-1.62,7,7,0,0,1-1.36-4.62,7.09,7.09,0,0,1,2.2-5.59,9.14,9.14,0,0,1,6.28-2c.45,0,.85,0,1.22,0s.73.06,1.09.11.74.11,1.13.19.81.19,1.28.33v8.52c0,.46,0,1,0,1.46s.05,1,.09,1.39.08,1,.12,1.47Zm-.63-9.78a6.17,6.17,0,0,0-1-.15l-.79,0a3.21,3.21,0,0,0-2.57,1.07,4.38,4.38,0,0,0-.91,3,2.91,2.91,0,0,0,.55,1.92,1.89,1.89,0,0,0,1.55.66,2.78,2.78,0,0,0,1.21-.27,2.92,2.92,0,0,0,1-.76,3.54,3.54,0,0,0,.67-1.17,4.29,4.29,0,0,0,.25-1.52Z"/><path class="cls-2" d="M146,75.64V54.73h4V75.64Z"/><path class="cls-2" d="M154.68,75.64V54.73h4V75.64Z"/><path class="cls-2" d="M172.83,72a3.8,3.8,0,0,1-1.27,3A5.27,5.27,0,0,1,168,76.09a14.93,14.93,0,0,1-3-.3,8.85,8.85,0,0,1-2.4-.81l.51-3.06a10.24,10.24,0,0,0,4.56,1.35,1.29,1.29,0,0,0,.94-.28.91.91,0,0,0,.29-.65,1.14,1.14,0,0,0-.23-.73,3.38,3.38,0,0,0-1.09-.71,18,18,0,0,1-2.12-1.08A7,7,0,0,1,164,68.7a3.82,3.82,0,0,1-.81-1.25,4.14,4.14,0,0,1-.25-1.5A3.37,3.37,0,0,1,164.35,63a6.37,6.37,0,0,1,3.79-1,11.62,11.62,0,0,1,2.23.2,10.22,10.22,0,0,1,2.24.76l-.48,3a7.09,7.09,0,0,0-2.06-.82,9.25,9.25,0,0,0-2-.23,1.38,1.38,0,0,0-1,.26.9.9,0,0,0-.25.67,1,1,0,0,0,.41.83,8.16,8.16,0,0,0,1.6.82,18.67,18.67,0,0,1,1.82,1,6.14,6.14,0,0,1,1.22,1,3.12,3.12,0,0,1,.68,1.11A3.81,3.81,0,0,1,172.83,72Z"/></g></svg>