<svg xmlns="http://www.w3.org/2000/svg" viewBox="0 0 256 128"><defs><style>.cls-1{fill:#ff0;}.cls-2{fill:#323232;}</style></defs><g id="_2_Feathers" data-name="2 Feathers"><path class="cls-1" d="M61.25,75.64l0-2.67c.7-.82,1.44-1.64,2.23-2.45s1.55-1.62,2.33-2.42,1.5-1.58,2.21-2.35a21.11,21.11,0,0,0,1.85-2.32,12.94,12.94,0,0,0,1.27-2.3,5.89,5.89,0,0,0,.48-2.3,2.57,2.57,0,0,0-.88-2,3.22,3.22,0,0,0-2.18-.76,3.7,3.7,0,0,0-1.65.36,4.11,4.11,0,0,0-1.26.95,6.86,6.86,0,0,0-.92,1.27A10.93,10.93,0,0,0,64.11,60l-3.26-2.37c.22-.51.51-1.1.85-1.76A6.8,6.8,0,0,1,63.18,54a8.07,8.07,0,0,1,2.51-1.5,10.61,10.61,0,0,1,4-.62,9.54,9.54,0,0,1,3,.45A6.76,6.76,0,0,1,75,53.63a5.62,5.62,0,0,1,1.49,2A6.53,6.53,0,0,1,77,58.27a8.92,8.92,0,0,1-1,4,20.43,20.43,0,0,1-2.43,3.76,28.73,28.73,0,0,1-3,3.2c-1,1-1.93,1.73-2.65,2.35H77.2v4Z"/><path class="cls-2" d="M99.63,58.42a5.47,5.47,0,0,0-1.08-.4,4.35,4.35,0,0,0-1-.11,2.75,2.75,0,0,0-1.23.24,1.7,1.7,0,0,0-.75.77,4.16,4.16,0,0,0-.37,1.39,18.07,18.07,0,0,0-.11,2.13h3.18v2.91H95.13V75.64h-4V65.29H88.65V62.44h2.43a17.41,17.41,0,0,1,.33-3.7,6,6,0,0,1,1-2.37,3.71,3.71,0,0,1,1.68-1.26,6.6,6.6,0,0,1,2.32-.38,10.37,10.37,0,0,1,3.57.6Z"/><path class="cls-2" d="M111.48,66.07a3.44,3.44,0,0,1-.53,1.86,4.52,4.52,0,0,1-1.51,1.43,8.15,8.15,0,0,1-2.33.91,13,13,0,0,1-3.06.33h-.36l-.49,0A2.64,2.64,0,0,0,106,73a8.86,8.86,0,0,0,4.42-1.35V74.8a8.65,8.65,0,0,1-2.17,1,9.15,9.15,0,0,1-2.36.28,7.74,7.74,0,0,1-2.71-.45,5.53,5.53,0,0,1-2.06-1.3,5.82,5.82,0,0,1-1.29-2,7.55,7.55,0,0,1-.45-2.69,8.31,8.31,0,0,1,.53-3,7,7,0,0,1,1.47-2.36,6.46,6.46,0,0,1,2.26-1.53,7.62,7.62,0,0,1,2.91-.54,5.5,5.5,0,0,1,3.56,1.08A3.51,3.51,0,0,1,111.48,66.07Zm-4,.3a1,1,0,0,0-.41-.82,1.56,1.56,0,0,0-1-.35,2.4,2.4,0,0,0-1.71.71,3.34,3.34,0,0,0-.92,1.93,2.58,2.58,0,0,0,.48.06h.44C106.44,67.9,107.49,67.39,107.49,66.37Z"/><path class="cls-2" d="M124,75.64q0-.21,0-.51c0-.16,0-.35,0-.57s0-.45,0-.69a4.83,4.83,0,0,1-2,1.55,6.3,6.3,0,0,1-2.56.52,4.74,4.74,0,0,1-3.83-1.62,7,7,0,0,1-1.37-4.62,7.09,7.09,0,0,1,2.21-5.59,9.13,9.13,0,0,1,6.28-2c.44,0,.85,0,1.21,0s.73.06,1.1.11.74.11,1.13.19.81.19,1.27.33v8.52c0,.46,0,1,0,1.46s.05,1,.09,1.39.08,1,.12,1.47Zm-.63-9.78a6.06,6.06,0,0,0-.94-.15l-.8,0a3.19,3.19,0,0,0-2.56,1.07,4.38,4.38,0,0,0-.92,3,3,3,0,0,0,.55,1.92,1.93,1.93,0,0,0,1.56.66,2.78,2.78,0,0,0,1.21-.27,3.13,3.13,0,0,0,1-.76,3.73,3.73,0,0,0,.67-1.17,4.53,4.53,0,0,0,.24-1.52Z"/><path class="cls-2" d="M132.45,75.64V65.29h-2.64V62.44h2.64V59.11h3.93v3.33h3.39v2.85h-3.39V75.64Z"/><path class="cls-2" d="M150.57,75.64V68.18a3.7,3.7,0,0,0-.14-1.16,1.5,1.5,0,0,0-.38-.66,1.17,1.17,0,0,0-.55-.31,3.3,3.3,0,0,0-.64-.07,1.85,1.85,0,0,0-1,.3,3,3,0,0,0-.84.83,4.69,4.69,0,0,0-.6,1.23,4.89,4.89,0,0,0-.23,1.49v5.81h-4V55.09h4v8.85a4.66,4.66,0,0,1,1.66-1.15,5.5,5.5,0,0,1,2-.35,6.68,6.68,0,0,1,1.73.23,4.55,4.55,0,0,1,1.51.75,3.79,3.79,0,0,1,1.08,1.36,4.74,4.74,0,0,1,.41,2.07v8.79Z"/><path class="cls-2" d="M170.85,66.07a3.44,3.44,0,0,1-.53,1.86,4.52,4.52,0,0,1-1.51,1.43,8.15,8.15,0,0,1-2.33.91,13,13,0,0,1-3.06.33h-.36l-.49,0A2.64,2.64,0,0,0,165.41,73a8.86,8.86,0,0,0,4.42-1.35V74.8a8.65,8.65,0,0,1-2.17,1,9.15,9.15,0,0,1-2.36.28,7.74,7.74,0,0,1-2.71-.45,5.53,5.53,0,0,1-2.06-1.3,5.82,5.82,0,0,1-1.29-2,7.55,7.55,0,0,1-.45-2.69,8.31,8.31,0,0,1,.53-3,7,7,0,0,1,1.47-2.36,6.46,6.46,0,0,1,2.26-1.53,7.62,7.62,0,0,1,2.91-.54,5.5,5.5,0,0,1,3.56,1.08A3.51,3.51,0,0,1,170.85,66.07Zm-4,.3a1,1,0,0,0-.41-.82,1.56,1.56,0,0,0-1-.35,2.4,2.4,0,0,0-1.71.71,3.34,3.34,0,0,0-.92,1.93,2.58,2.58,0,0,0,.48.06h.44C165.81,67.9,166.86,67.39,166.86,66.37Z"/><path class="cls-2" d="M183.15,66.13l-.66-.12a4.39,4.39,0,0,0-.54,0,3,3,0,0,0-2.59,1.17,5.75,5.75,0,0,0-.89,3.49v5h-4V67c0-.49,0-.92,0-1.28a10.1,10.1,0,0,0-.08-1,9,9,0,0,0-.16-.93c-.07-.3-.17-.65-.29-1h3.79c.06.24.12.45.17.63a3.38,3.38,0,0,1,.11.49l.06.49a5.85,5.85,0,0,1,0,.64,6.76,6.76,0,0,1,1.71-2,3.25,3.25,0,0,1,1.9-.57,2.84,2.84,0,0,1,.71.08,7,7,0,0,1,.79.29Z"/><path class="cls-2" d="M195.15,72a3.77,3.77,0,0,1-1.27,3,5.26,5.26,0,0,1-3.57,1.11,15,15,0,0,1-3.05-.3,9.09,9.09,0,0,1-2.4-.81l.51-3.06a10.24,10.24,0,0,0,4.56,1.35,1.32,1.32,0,0,0,.95-.28.9.9,0,0,0,.28-.65,1.13,1.13,0,0,0-.22-.73,3.46,3.46,0,0,0-1.1-.71,17.82,17.82,0,0,1-2.11-1.08,7,7,0,0,1-1.44-1.12,3.82,3.82,0,0,1-.81-1.25,4.14,4.14,0,0,1-.26-1.5A3.39,3.39,0,0,1,186.67,63a6.39,6.39,0,0,1,3.79-1,11.65,11.65,0,0,1,2.24.2,10.22,10.22,0,0,1,2.24.76l-.48,3a7.2,7.2,0,0,0-2.06-.82,9.32,9.32,0,0,0-2-.23,1.36,1.36,0,0,0-1,.26.9.9,0,0,0-.26.67,1,1,0,0,0,.41.83,8.82,8.82,0,0,0,1.6.82,18.67,18.67,0,0,1,1.82,1,6.53,6.53,0,0,1,1.23,1,3.27,3.27,0,0,1,.68,1.11A4.08,4.08,0,0,1,195.15,72Z"/></g></svg>