<svg xmlns="http://www.w3.org/2000/svg" viewBox="0 0 256 128"><defs><style>.cls-1{fill:#ff0;}.cls-2{fill:#323232;}</style></defs><g id="_3_Hot_air_ballons" data-name="3 Hot air ballons"><path class="cls-1" d="M24,69.23a5.84,5.84,0,0,1-.57,2.58,5.69,5.69,0,0,1-1.67,2,8.14,8.14,0,0,1-2.65,1.33,12.18,12.18,0,0,1-3.47.47A15,15,0,0,1,13,75.43a9.16,9.16,0,0,1-2.19-.68,8.18,8.18,0,0,1-1.94-1.22A14.18,14.18,0,0,1,7,71.66l2.24-3q2.65,3,5.68,3a4.1,4.1,0,0,0,2.67-.79,2.72,2.72,0,0,0,1-2.08,2.6,2.6,0,0,0-1.42-2.61,6.66,6.66,0,0,0-2.28-.67,18.1,18.1,0,0,0-3.61-.07v-4a23.5,23.5,0,0,0,3.42,0A6.2,6.2,0,0,0,16.84,61a2.32,2.32,0,0,0,1.09-1,3.15,3.15,0,0,0,.32-1.48,2.48,2.48,0,0,0-1-1.89,3.89,3.89,0,0,0-2.44-.71,5.8,5.8,0,0,0-2.42.53A10.2,10.2,0,0,0,10,58.18L8.05,55q2.55-3,7.85-3.05a9.66,9.66,0,0,1,3,.43,6.69,6.69,0,0,1,2.29,1.22,5.29,5.29,0,0,1,1.46,1.89,5.82,5.82,0,0,1,.51,2.48,5.17,5.17,0,0,1-1,3.28,7.55,7.55,0,0,1-3.26,2.19,6.36,6.36,0,0,1,3.76,1.92A5.67,5.67,0,0,1,24,69.23Z"/><path class="cls-2" d="M45.37,75.64V68.18A4,4,0,0,0,45.23,67a1.5,1.5,0,0,0-.38-.66,1.17,1.17,0,0,0-.55-.31,3.41,3.41,0,0,0-.65-.07,1.84,1.84,0,0,0-1,.3,3,3,0,0,0-.84.83,4.4,4.4,0,0,0-.6,1.23A4.89,4.89,0,0,0,41,69.83v5.81H37V55.09h4v8.85a4.49,4.49,0,0,1,1.66-1.15,5.5,5.5,0,0,1,2-.35,6.68,6.68,0,0,1,1.73.23,4.55,4.55,0,0,1,1.51.75A3.79,3.79,0,0,1,49,64.78a4.74,4.74,0,0,1,.41,2.07v8.79Z"/><path class="cls-2" d="M67.3,69a7.78,7.78,0,0,1-.49,2.84,5.73,5.73,0,0,1-1.41,2.08,6.08,6.08,0,0,1-2.18,1.28,8.69,8.69,0,0,1-2.82.44,8.6,8.6,0,0,1-2.82-.44,6,6,0,0,1-2.18-1.28A5.88,5.88,0,0,1,54,71.84,7.38,7.38,0,0,1,53.47,69,7.28,7.28,0,0,1,54,66.23a5.86,5.86,0,0,1,1.39-2.07,6,6,0,0,1,2.18-1.28,9.63,9.63,0,0,1,5.69,0,6.18,6.18,0,0,1,2.18,1.26,5.6,5.6,0,0,1,1.41,2.07A7.66,7.66,0,0,1,67.3,69Zm-4,0a3,3,0,0,0-.81-2.22,2.92,2.92,0,0,0-2.16-.8,2.8,2.8,0,0,0-2.14.8A3.15,3.15,0,0,0,57.46,69a3.28,3.28,0,0,0,.73,2.29,2.73,2.73,0,0,0,2.15.81,2.93,2.93,0,0,0,2.2-.79A3.2,3.2,0,0,0,63.31,69Z"/><path class="cls-2" d="M71.23,75.64V65.29H68.59V62.44h2.64V59.11h3.93v3.33h3.39v2.85H75.16V75.64Z"/><path class="cls-2" d="M99.52,75.64a3.44,3.44,0,0,0,0-.51c0-.16,0-.35,0-.57s0-.45,0-.69a4.73,4.73,0,0,1-2,1.55,6.37,6.37,0,0,1-2.56.52,4.74,4.74,0,0,1-3.83-1.62,6.92,6.92,0,0,1-1.37-4.62,7.09,7.09,0,0,1,2.2-5.59,9.14,9.14,0,0,1,6.28-2c.45,0,.85,0,1.22,0s.73.06,1.1.11.74.11,1.12.19.81.19,1.28.33v8.52c0,.46,0,1,0,1.46s0,1,.09,1.39.08,1,.12,1.47Zm-.63-9.78a6.17,6.17,0,0,0-1-.15l-.79,0a3.21,3.21,0,0,0-2.57,1.07,4.38,4.38,0,0,0-.91,3,2.91,2.91,0,0,0,.55,1.92,1.89,1.89,0,0,0,1.55.66A2.78,2.78,0,0,0,97,72a2.92,2.92,0,0,0,1-.76,3.54,3.54,0,0,0,.67-1.17,4.29,4.29,0,0,0,.25-1.52Z"/><path class="cls-2" d="M111.94,58.82a1.64,1.64,0,0,1-.69,1.33,2.55,2.55,0,0,1-1.65.55,2.6,2.6,0,0,1-1.68-.56,1.79,1.79,0,0,1-.72-1.37,1.62,1.62,0,0,1,.66-1.38,2.73,2.73,0,0,1,3.37,0,2.12,2.12,0,0,1,.51.64A1.68,1.68,0,0,1,111.94,58.82Zm-4.5,16.82V62.44h4v13.2Z"/><path class="cls-2" d="M125,66.13l-.66-.12a4.39,4.39,0,0,0-.54,0,3.06,3.06,0,0,0-2.6,1.17,5.76,5.76,0,0,0-.88,3.49v5h-4V67c0-.49,0-.92,0-1.28s0-.7-.07-1a9,9,0,0,0-.17-.93c-.07-.3-.16-.65-.28-1h3.78c.07.24.12.45.18.63a3.28,3.28,0,0,1,.1.49c0,.16,0,.32.07.49a5.85,5.85,0,0,1,0,.64,6.6,6.6,0,0,1,1.7-2,3.28,3.28,0,0,1,1.91-.57,2.75,2.75,0,0,1,.7.08,7,7,0,0,1,.8.29Z"/><path class="cls-2" d="M150.16,68.09a9,9,0,0,1-.52,3.1,6.59,6.59,0,0,1-3.8,3.91,8,8,0,0,1-3,.54,15.29,15.29,0,0,1-3-.31,14.07,14.07,0,0,1-2.81-.85V55.07h4V64a4.68,4.68,0,0,1,1.71-1.16,6,6,0,0,1,2.17-.38,5.56,5.56,0,0,1,2.15.4A4.68,4.68,0,0,1,148.71,64a5.29,5.29,0,0,1,1.07,1.78A6.86,6.86,0,0,1,150.16,68.09Zm-4,.72a2.58,2.58,0,0,0-.61-1.83,2.15,2.15,0,0,0-1.69-.67,2.73,2.73,0,0,0-1.21.25,2.77,2.77,0,0,0-.92.66,2.91,2.91,0,0,0-.57,1,3.43,3.43,0,0,0-.19,1.15v2.28a3.44,3.44,0,0,0,.94.35A6.32,6.32,0,0,0,143,72a3.11,3.11,0,0,0,2.32-.85A3.26,3.26,0,0,0,146.17,68.81Z"/><path class="cls-2" d="M163.14,75.64q0-.21,0-.51c0-.16,0-.35,0-.57s0-.45,0-.69a4.7,4.7,0,0,1-2,1.55,6.29,6.29,0,0,1-2.55.52,4.76,4.76,0,0,1-3.84-1.62,7,7,0,0,1-1.36-4.62,7.09,7.09,0,0,1,2.2-5.59,9.13,9.13,0,0,1,6.28-2c.45,0,.85,0,1.22,0s.73.06,1.09.11.74.11,1.13.19.81.19,1.28.33v8.52c0,.46,0,1,0,1.46s.05,1,.09,1.39.08,1,.12,1.47Zm-.62-9.78a6.17,6.17,0,0,0-1-.15l-.79,0a3.21,3.21,0,0,0-2.57,1.07,4.38,4.38,0,0,0-.91,3,2.91,2.91,0,0,0,.55,1.92,1.89,1.89,0,0,0,1.55.66,2.78,2.78,0,0,0,1.21-.27,2.92,2.92,0,0,0,1-.76,3.54,3.54,0,0,0,.67-1.17,4.53,4.53,0,0,0,.25-1.52Z"/><path class="cls-2" d="M171,75.64V54.73h4V75.64Z"/><path class="cls-2" d="M179.62,75.64V54.73h4V75.64Z"/><path class="cls-2" d="M201.36,69a7.58,7.58,0,0,1-.49,2.84,5.7,5.7,0,0,1-1.4,2.08,6.16,6.16,0,0,1-2.18,1.28,9.29,9.29,0,0,1-5.65,0,6.16,6.16,0,0,1-2.18-1.28A5.88,5.88,0,0,1,188,71.84a7.38,7.38,0,0,1-.51-2.84,7.28,7.28,0,0,1,.5-2.77,5.64,5.64,0,0,1,3.57-3.35,8.87,8.87,0,0,1,2.87-.44,9,9,0,0,1,2.82.42,6.27,6.27,0,0,1,2.18,1.26,5.58,5.58,0,0,1,1.4,2.07A7.46,7.46,0,0,1,201.36,69Zm-4,0a2.78,2.78,0,0,0-3-3,2.77,2.77,0,0,0-2.13.8,3.1,3.1,0,0,0-.74,2.22,3.33,3.33,0,0,0,.72,2.29,2.75,2.75,0,0,0,2.15.81,2.92,2.92,0,0,0,2.2-.79A3.17,3.17,0,0,0,197.38,69Z"/><path class="cls-2" d="M218.31,69a7.58,7.58,0,0,1-.49,2.84,5.7,5.7,0,0,1-1.4,2.08,6.16,6.16,0,0,1-2.18,1.28,9.29,9.29,0,0,1-5.65,0,6.16,6.16,0,0,1-2.18-1.28A5.88,5.88,0,0,1,205,71.84a7.38,7.38,0,0,1-.51-2.84,7.28,7.28,0,0,1,.5-2.77,5.64,5.64,0,0,1,3.57-3.35,8.85,8.85,0,0,1,2.86-.44,9,9,0,0,1,2.83.42,6.27,6.27,0,0,1,2.18,1.26,5.58,5.58,0,0,1,1.4,2.07A7.46,7.46,0,0,1,218.31,69Zm-4,0a2.77,2.77,0,0,0-3-3,2.77,2.77,0,0,0-2.13.8,3.11,3.11,0,0,0-.75,2.22,3.33,3.33,0,0,0,.73,2.29,2.75,2.75,0,0,0,2.15.81,2.93,2.93,0,0,0,2.2-.79A3.16,3.16,0,0,0,214.32,69Z"/><path class="cls-2" d="M230.67,75.64V68.15a3,3,0,0,0-.19-1.21,1.81,1.81,0,0,0-.47-.66,1.23,1.23,0,0,0-.57-.26c-.2,0-.37,0-.51,0a2.91,2.91,0,0,0-.63.12,2.08,2.08,0,0,0-.91.55,3.73,3.73,0,0,0-.83,1.27,5.81,5.81,0,0,0-.36,2.25v5.47h-4V66.92a15,15,0,0,0-.18-2.28,7.43,7.43,0,0,0-.48-1.84h4a5.91,5.91,0,0,1,.26.69c0,.18.1.44.16.78A6.32,6.32,0,0,1,228,62.89a6,6,0,0,1,2.24-.45,4.36,4.36,0,0,1,1.74.35,4.21,4.21,0,0,1,1.4,1,4.58,4.58,0,0,1,.93,1.55,6.06,6.06,0,0,1,.33,2.06v8.26Z"/><path class="cls-2" d="M249,72a3.77,3.77,0,0,1-1.27,3,5.23,5.23,0,0,1-3.57,1.11,14.86,14.86,0,0,1-3-.3,9,9,0,0,1-2.41-.81l.51-3.06a10.24,10.24,0,0,0,4.56,1.35,1.32,1.32,0,0,0,.95-.28.9.9,0,0,0,.28-.65,1.13,1.13,0,0,0-.22-.73,3.46,3.46,0,0,0-1.1-.71,17.82,17.82,0,0,1-2.11-1.08,7,7,0,0,1-1.44-1.12,3.82,3.82,0,0,1-.81-1.25,4.14,4.14,0,0,1-.26-1.5A3.39,3.39,0,0,1,240.52,63a6.41,6.41,0,0,1,3.79-1,11.65,11.65,0,0,1,2.24.2,10.22,10.22,0,0,1,2.24.76l-.48,3a7.09,7.09,0,0,0-2.06-.82,9.32,9.32,0,0,0-2-.23,1.36,1.36,0,0,0-1,.26.9.9,0,0,0-.26.67,1,1,0,0,0,.42.83,8.3,8.3,0,0,0,1.59.82,17.54,17.54,0,0,1,1.82,1,6,6,0,0,1,1.23,1,3.12,3.12,0,0,1,.68,1.11A3.82,3.82,0,0,1,249,72Z"/></g></svg>