<svg xmlns="http://www.w3.org/2000/svg" viewBox="0 0 256 128"><defs><style>.cls-1{fill:#ff0;}.cls-2{fill:#323232;}</style></defs><g id="_3_Hot_air_ballons" data-name="3 Hot air ballons"><path class="cls-1" d="M76,71.4H70.84l8.91-19.72H69.07v-4h16v3.53Z"/><path class="cls-2" d="M107.37,67.74a3.8,3.8,0,0,1-1.27,3,5.27,5.27,0,0,1-3.58,1.11,14.93,14.93,0,0,1-3-.3,8.85,8.85,0,0,1-2.4-.81l.51-3.06A10.24,10.24,0,0,0,102.15,69a1.29,1.29,0,0,0,.94-.29.88.88,0,0,0,.29-.64,1.17,1.17,0,0,0-.23-.74,3.4,3.4,0,0,0-1.09-.7,18,18,0,0,1-2.12-1.08,7,7,0,0,1-1.44-1.13,3.79,3.79,0,0,1-.81-1.24,4.14,4.14,0,0,1-.25-1.5,3.38,3.38,0,0,1,1.45-2.93,6.39,6.39,0,0,1,3.79-1,11.59,11.59,0,0,1,2.23.19,10.3,10.3,0,0,1,2.24.77l-.48,3a7,7,0,0,0-2.06-.83,9.22,9.22,0,0,0-2-.22,1.35,1.35,0,0,0-1,.25.89.89,0,0,0-.26.68,1,1,0,0,0,.41.82,8.34,8.34,0,0,0,1.6.83,18.77,18.77,0,0,1,1.82,1,6.53,6.53,0,0,1,1.23,1,3.43,3.43,0,0,1,.68,1.11A4.14,4.14,0,0,1,107.37,67.74Z"/><path class="cls-2" d="M124.26,64a10.16,10.16,0,0,1-.42,3,7.21,7.21,0,0,1-1.19,2.33,5.27,5.27,0,0,1-1.82,1.51,5.54,5.54,0,0,1-3.9.33,4.65,4.65,0,0,1-1.34-.78v9.93h-4.2V62.15c0-.21,0-.47,0-.76s-.07-.61-.12-.93-.11-.65-.18-1a6.72,6.72,0,0,0-.25-.89h4.06a2.68,2.68,0,0,1,.22.58,7,7,0,0,1,.13.83A6.31,6.31,0,0,1,117,58.62a4.72,4.72,0,0,1,2.07-.42,5.19,5.19,0,0,1,2.11.41,4.71,4.71,0,0,1,1.63,1.19,5.2,5.2,0,0,1,1.06,1.84A7.2,7.2,0,0,1,124.26,64Zm-4,.67a2.87,2.87,0,0,0-.6-1.94,2.09,2.09,0,0,0-1.64-.68,2.36,2.36,0,0,0-1.94.88,3.64,3.64,0,0,0-.71,2.37v1.74a3.18,3.18,0,0,0,2.12.8,2.52,2.52,0,0,0,2-.85A3.35,3.35,0,0,0,120.27,64.69Z"/><path class="cls-2" d="M137.61,71.4c0-.14,0-.31,0-.51s0-.35,0-.57,0-.45-.05-.69a4.68,4.68,0,0,1-2,1.54,6.3,6.3,0,0,1-2.55.53,4.74,4.74,0,0,1-3.83-1.62,6.92,6.92,0,0,1-1.37-4.62,7.11,7.11,0,0,1,2.2-5.6,9.14,9.14,0,0,1,6.28-2c.45,0,.85,0,1.22,0s.73,0,1.09.1.74.12,1.13.2.81.19,1.28.33v8.52c0,.46,0,.94,0,1.45s.05,1,.09,1.4.08,1,.12,1.47ZM137,61.62a6.17,6.17,0,0,0-.95-.15l-.79,0a3.21,3.21,0,0,0-2.57,1.06,4.4,4.4,0,0,0-.91,3,2.91,2.91,0,0,0,.55,1.92,1.89,1.89,0,0,0,1.55.66,2.78,2.78,0,0,0,1.21-.27,3,3,0,0,0,1-.77,3.54,3.54,0,0,0,.67-1.17,4.23,4.23,0,0,0,.25-1.51Z"/><path class="cls-2" d="M155.13,71.4q0-.18-.06-.42c0-.14,0-.3-.07-.48s0-.4-.06-.66a5.47,5.47,0,0,1-2,1.48,6.19,6.19,0,0,1-2.38.44,5.93,5.93,0,0,1-2.39-.47A5.29,5.29,0,0,1,146.37,70a5.85,5.85,0,0,1-1.17-2,7.68,7.68,0,0,1-.42-2.61,8.92,8.92,0,0,1,.49-3A7.31,7.31,0,0,1,146.65,60a6.18,6.18,0,0,1,2.12-1.56,6.49,6.49,0,0,1,2.7-.55,9.33,9.33,0,0,1,1.32.09,7.72,7.72,0,0,1,1.47.39V50.49h4V66.84c0,.34,0,.77,0,1.29s.07,1,.11,1.5.09,1.15.15,1.77Zm-.87-9.63a4.4,4.4,0,0,0-1.11-.3,9.25,9.25,0,0,0-1.08-.06,3,3,0,0,0-2.41,1,4.19,4.19,0,0,0-.89,2.84,3,3,0,0,0,.62,2,2.15,2.15,0,0,0,1.72.74,3.61,3.61,0,0,0,1.23-.21,2.33,2.33,0,0,0,1-.72A3.91,3.91,0,0,0,154,65.8a7.4,7.4,0,0,0,.25-2Z"/><path class="cls-2" d="M174.15,61.83a3.37,3.37,0,0,1-.54,1.86,4.37,4.37,0,0,1-1.5,1.42,8.34,8.34,0,0,1-2.34.92,13,13,0,0,1-3.06.33l-.36,0h-.48a2.71,2.71,0,0,0,.9,1.78,2.84,2.84,0,0,0,1.94.65,8.89,8.89,0,0,0,4.42-1.35v3.15a8.66,8.66,0,0,1-2.18.94,9.06,9.06,0,0,1-2.35.29,7.8,7.8,0,0,1-2.72-.45,5.51,5.51,0,0,1-2-1.31,5.82,5.82,0,0,1-1.29-2,7.49,7.49,0,0,1-.45-2.68,8.36,8.36,0,0,1,.52-3,7,7,0,0,1,1.47-2.35,6.5,6.5,0,0,1,2.27-1.53,7.62,7.62,0,0,1,2.91-.54A5.47,5.47,0,0,1,172.81,59,3.52,3.52,0,0,1,174.15,61.83Zm-4,.3a1.07,1.07,0,0,0-.41-.83,1.57,1.57,0,0,0-1-.34,2.36,2.36,0,0,0-1.71.7,3.31,3.31,0,0,0-.92,1.94,2.4,2.4,0,0,0,.47.06H167C169.1,63.66,170.16,63.15,170.16,62.13Z"/><path class="cls-2" d="M186.93,67.74a3.8,3.8,0,0,1-1.27,3,5.27,5.27,0,0,1-3.58,1.11,14.93,14.93,0,0,1-3-.3,8.85,8.85,0,0,1-2.4-.81l.51-3.06A10.24,10.24,0,0,0,181.71,69a1.29,1.29,0,0,0,.94-.29.88.88,0,0,0,.29-.64,1.17,1.17,0,0,0-.23-.74,3.4,3.4,0,0,0-1.09-.7,18,18,0,0,1-2.12-1.08,7,7,0,0,1-1.44-1.13,3.79,3.79,0,0,1-.81-1.24,4.14,4.14,0,0,1-.25-1.5,3.38,3.38,0,0,1,1.45-2.93,6.37,6.37,0,0,1,3.79-1,11.66,11.66,0,0,1,2.23.19,10.3,10.3,0,0,1,2.24.77l-.48,3a7.13,7.13,0,0,0-2.06-.83,9.22,9.22,0,0,0-2-.22,1.38,1.38,0,0,0-1,.25.92.92,0,0,0-.25.68,1,1,0,0,0,.41.82,8,8,0,0,0,1.6.83,18.77,18.77,0,0,1,1.82,1,6.53,6.53,0,0,1,1.23,1,3.24,3.24,0,0,1,.67,1.11A3.87,3.87,0,0,1,186.93,67.74Z"/></g></svg>