<svg id="_1_Train_engine" data-name="1 Train engine" xmlns="http://www.w3.org/2000/svg" viewBox="0 0 256 128"><defs><style>.cls-1{fill:#ff0;}.cls-2{fill:#323232;}</style></defs><path class="cls-1" d="M76.33,71.38V52.84q-.67.79-1.29,1.41L73.71,55.6l-2.24-3.06c.68-.59,1.33-1.18,2-1.77s1.1-1,1.66-1.59,1-1.08,1.41-1.53h4.34V71.38Z"/><path class="cls-2" d="M109.53,61.81a3.36,3.36,0,0,1-.53,1.86,4.49,4.49,0,0,1-1.5,1.43,8.34,8.34,0,0,1-2.34.91,13,13,0,0,1-3.06.33h-.36l-.49,0a2.83,2.83,0,0,0,.9,1.79,2.88,2.88,0,0,0,1.95.64,8.86,8.86,0,0,0,4.41-1.35v3.15a8.65,8.65,0,0,1-2.17.95,9.15,9.15,0,0,1-2.36.28,7.74,7.74,0,0,1-2.71-.45A5.53,5.53,0,0,1,99.21,70a5.82,5.82,0,0,1-1.29-2,7.55,7.55,0,0,1-.45-2.69,8.31,8.31,0,0,1,.53-3,7,7,0,0,1,1.47-2.36,6.46,6.46,0,0,1,2.26-1.53,7.62,7.62,0,0,1,2.91-.54,5.5,5.5,0,0,1,3.56,1.08A3.51,3.51,0,0,1,109.53,61.81Zm-4,.3a1,1,0,0,0-.41-.82,1.55,1.55,0,0,0-1-.35,2.37,2.37,0,0,0-1.71.71,3.35,3.35,0,0,0-.93,1.93,2.58,2.58,0,0,0,.48.06h.45Q105.54,63.64,105.54,62.11Z"/><path class="cls-2" d="M121.32,71.38V63.89a3,3,0,0,0-.19-1.21,1.81,1.81,0,0,0-.47-.66,1.23,1.23,0,0,0-.57-.26c-.2,0-.37,0-.51,0a2.91,2.91,0,0,0-.63.12,2.08,2.08,0,0,0-.91.55,3.73,3.73,0,0,0-.83,1.27,5.81,5.81,0,0,0-.36,2.25v5.47h-4V62.66a15,15,0,0,0-.18-2.28,7.43,7.43,0,0,0-.48-1.84h4a5.91,5.91,0,0,1,.26.69c0,.18.1.44.16.78a6.32,6.32,0,0,1,2.06-1.38,6,6,0,0,1,2.24-.45,4.4,4.4,0,0,1,1.74.35,4.21,4.21,0,0,1,1.4,1,4.58,4.58,0,0,1,.93,1.55,6.06,6.06,0,0,1,.33,2.06v8.26Z"/><path class="cls-2" d="M142.74,71.8a14.25,14.25,0,0,1-.5,4.07,7.13,7.13,0,0,1-1.38,2.62,5,5,0,0,1-2.07,1.43,7.51,7.51,0,0,1-2.6.43,22.38,22.38,0,0,1-2.68-.16,9.61,9.61,0,0,1-2.52-.65v-3a16.56,16.56,0,0,0,2.29.65,10,10,0,0,0,1.94.22,3.36,3.36,0,0,0,1.43-.3,2.77,2.77,0,0,0,1.12-1,5,5,0,0,0,.73-1.74,11.55,11.55,0,0,0,.25-2.61V70.45a4.58,4.58,0,0,1-1.71,1,7,7,0,0,1-1.86.22,5.88,5.88,0,0,1-2.34-.45A5.06,5.06,0,0,1,131.06,70a5.66,5.66,0,0,1-1.14-2,7.74,7.74,0,0,1-.41-2.57,7.51,7.51,0,0,1,.63-3.13,6.66,6.66,0,0,1,1.78-2.39,8,8,0,0,1,2.79-1.51,12.24,12.24,0,0,1,3.72-.53l1.12,0c.32,0,.64,0,1,.07s.65.1,1,.17.77.16,1.23.28Zm-4-10-.78-.12a6.54,6.54,0,0,0-.7,0,3.8,3.8,0,0,0-2.76,1,3.56,3.56,0,0,0-1,2.68,2.52,2.52,0,0,0,.67,1.89,2.24,2.24,0,0,0,1.65.66,4.83,4.83,0,0,0,1.08-.12,1.92,1.92,0,0,0,.94-.54,3,3,0,0,0,.67-1.21,7.72,7.72,0,0,0,.24-2.15Z"/><path class="cls-2" d="M151.71,54.56a1.64,1.64,0,0,1-.69,1.33,2.55,2.55,0,0,1-1.65.55,2.6,2.6,0,0,1-1.68-.56,1.79,1.79,0,0,1-.72-1.37,1.62,1.62,0,0,1,.66-1.38,2.69,2.69,0,0,1,1.74-.56,2.58,2.58,0,0,1,1.64.57,2.12,2.12,0,0,1,.51.64A1.66,1.66,0,0,1,151.71,54.56Zm-4.5,16.82V58.18h4v13.2Z"/><path class="cls-2" d="M164.25,71.38V63.89a3,3,0,0,0-.19-1.21,1.81,1.81,0,0,0-.47-.66,1.23,1.23,0,0,0-.57-.26c-.2,0-.37,0-.51,0a2.91,2.91,0,0,0-.63.12,2.08,2.08,0,0,0-.91.55,3.73,3.73,0,0,0-.83,1.27,5.81,5.81,0,0,0-.36,2.25v5.47h-4V62.66a15,15,0,0,0-.18-2.28,7.43,7.43,0,0,0-.48-1.84h4a5.91,5.91,0,0,1,.26.69c.05.18.1.44.16.78a6.32,6.32,0,0,1,2.06-1.38,5.92,5.92,0,0,1,2.23-.45,4.41,4.41,0,0,1,1.75.35,4.21,4.21,0,0,1,1.4,1,4.58,4.58,0,0,1,.93,1.55,6.06,6.06,0,0,1,.33,2.06v8.26Z"/><path class="cls-2" d="M184.53,61.81a3.44,3.44,0,0,1-.53,1.86,4.52,4.52,0,0,1-1.51,1.43,8.15,8.15,0,0,1-2.33.91,13,13,0,0,1-3.06.33h-.36l-.49,0a2.64,2.64,0,0,0,2.84,2.43,8.86,8.86,0,0,0,4.42-1.35v3.15a8.65,8.65,0,0,1-2.17.95,9.15,9.15,0,0,1-2.36.28,7.74,7.74,0,0,1-2.71-.45,5.53,5.53,0,0,1-2.06-1.3,5.82,5.82,0,0,1-1.29-2,7.55,7.55,0,0,1-.45-2.69,8.31,8.31,0,0,1,.53-3,7,7,0,0,1,1.47-2.36,6.46,6.46,0,0,1,2.26-1.53,7.62,7.62,0,0,1,2.91-.54,5.5,5.5,0,0,1,3.56,1.08A3.51,3.51,0,0,1,184.53,61.81Zm-4,.3a1,1,0,0,0-.41-.82,1.56,1.56,0,0,0-1-.35,2.4,2.4,0,0,0-1.71.71,3.34,3.34,0,0,0-.92,1.93,2.58,2.58,0,0,0,.48.06h.44C179.49,63.64,180.54,63.13,180.54,62.11Z"/></svg>