<svg xmlns="http://www.w3.org/2000/svg" viewBox="0 0 256 128"><defs><style>.cls-1{fill:#ff0;}.cls-2{fill:#323232;}</style></defs><g id="_3_Hot_air_ballons" data-name="3 Hot air ballons"><path class="cls-1" d="M98.91,68a8.4,8.4,0,0,1-.57,3.17,6.88,6.88,0,0,1-1.58,2.4,7,7,0,0,1-2.47,1.54,9,9,0,0,1-3.24.55,8.84,8.84,0,0,1-3.4-.62A7.3,7.3,0,0,1,85,73.26a8.19,8.19,0,0,1-1.68-2.74,9.9,9.9,0,0,1-.6-3.55,12.76,12.76,0,0,1,.72-4.18,22,22,0,0,1,1.88-4,29.66,29.66,0,0,1,2.6-3.7,34.64,34.64,0,0,1,2.93-3.15h5.74a35.49,35.49,0,0,0-4.21,4.56A36.32,36.32,0,0,0,89,61.74c.36-.21.68-.38,1-.52a7.94,7.94,0,0,1,.81-.32,5.29,5.29,0,0,1,.79-.17,7.85,7.85,0,0,1,.9,0,6.37,6.37,0,0,1,2.61.53,5.84,5.84,0,0,1,2,1.51A7.15,7.15,0,0,1,98.42,65,8.48,8.48,0,0,1,98.91,68Zm-4.53.09a3.37,3.37,0,0,0-.8-2.37,2.81,2.81,0,0,0-2.16-.87,4.48,4.48,0,0,0-3.16,1.34c-.06.33-.11.59-.13.76a5.58,5.58,0,0,0,0,.67A3.77,3.77,0,0,0,89,70.24a3.06,3.06,0,0,0,2.4,1,2.81,2.81,0,0,0,2.16-.87A3.25,3.25,0,0,0,94.38,68.07Z"/><path class="cls-2" d="M112.73,75.64V65.29h-2.64V62.44h2.64V59.11h3.93v3.33h3.39v2.85h-3.39V75.64Z"/><path class="cls-2" d="M133,66.07a3.36,3.36,0,0,1-.53,1.86,4.49,4.49,0,0,1-1.5,1.43,8.34,8.34,0,0,1-2.34.91,13,13,0,0,1-3.06.33h-.36l-.49,0a2.83,2.83,0,0,0,.9,1.79,2.88,2.88,0,0,0,2,.64A8.86,8.86,0,0,0,132,71.65V74.8a8.65,8.65,0,0,1-2.17,1,9.15,9.15,0,0,1-2.36.28,7.74,7.74,0,0,1-2.71-.45,5.53,5.53,0,0,1-2.06-1.3,5.82,5.82,0,0,1-1.29-2,7.55,7.55,0,0,1-.45-2.69,8.31,8.31,0,0,1,.53-3A7,7,0,0,1,123,64.18a6.46,6.46,0,0,1,2.26-1.53,7.62,7.62,0,0,1,2.91-.54,5.5,5.5,0,0,1,3.56,1.08A3.51,3.51,0,0,1,133,66.07Zm-4,.3a1,1,0,0,0-.41-.82,1.55,1.55,0,0,0-1-.35,2.37,2.37,0,0,0-1.71.71,3.35,3.35,0,0,0-.93,1.93,2.58,2.58,0,0,0,.48.06h.45Q129,67.9,129,66.37Z"/><path class="cls-2" d="M144.8,75.64V68.15a3,3,0,0,0-.19-1.21,1.81,1.81,0,0,0-.47-.66,1.23,1.23,0,0,0-.57-.26c-.2,0-.37,0-.51,0a2.91,2.91,0,0,0-.63.12,2.08,2.08,0,0,0-.91.55,3.73,3.73,0,0,0-.83,1.27,5.81,5.81,0,0,0-.36,2.25v5.47h-4V66.92a15,15,0,0,0-.18-2.28,7.43,7.43,0,0,0-.48-1.84h4a5.91,5.91,0,0,1,.26.69c0,.18.1.44.16.78a6.32,6.32,0,0,1,2.06-1.38,6,6,0,0,1,2.24-.45,4.4,4.4,0,0,1,1.74.35,4.21,4.21,0,0,1,1.4,1,4.58,4.58,0,0,1,.93,1.55,6.06,6.06,0,0,1,.33,2.06v8.26Z"/><path class="cls-2" d="M154,75.64V65.29h-2.64V62.44H154V59.11h3.93v3.33h3.39v2.85h-3.39V75.64Z"/><path class="cls-2" d="M173.24,72A3.77,3.77,0,0,1,172,75a5.25,5.25,0,0,1-3.57,1.11,15,15,0,0,1-3.05-.3A9.09,9.09,0,0,1,163,75l.51-3.06A10.24,10.24,0,0,0,168,73.27,1.32,1.32,0,0,0,169,73a.9.9,0,0,0,.28-.65,1.13,1.13,0,0,0-.22-.73,3.46,3.46,0,0,0-1.1-.71,17.82,17.82,0,0,1-2.11-1.08,7,7,0,0,1-1.44-1.12,3.82,3.82,0,0,1-.81-1.25,4.14,4.14,0,0,1-.26-1.5A3.39,3.39,0,0,1,164.76,63a6.39,6.39,0,0,1,3.79-1,11.65,11.65,0,0,1,2.24.2A10.22,10.22,0,0,1,173,63l-.48,3a7.2,7.2,0,0,0-2.06-.82,9.32,9.32,0,0,0-2-.23,1.36,1.36,0,0,0-1,.26.9.9,0,0,0-.26.67,1,1,0,0,0,.42.83,8.3,8.3,0,0,0,1.59.82,17.54,17.54,0,0,1,1.82,1,6.23,6.23,0,0,1,1.23,1,3.12,3.12,0,0,1,.68,1.11A3.82,3.82,0,0,1,173.24,72Z"/></g></svg>