<svg xmlns="http://www.w3.org/2000/svg" width="256" height="128" viewBox="0 0 256 128">
  <defs>
    <style>
      .cls-1 {
        fill: #fff200;
      }

      .cls-2 {
        fill: #323232;
      }
    </style>
  </defs>
  <g id="_6_Icecream_candy_stick" data-name="6 Icecream candy stick">
    <g>
      <path class="cls-1" d="M21.66,67.6a8,8,0,0,1-.5,2.89,6.38,6.38,0,0,1-1.42,2.19,6.2,6.2,0,0,1-2.22,1.41,8.11,8.11,0,0,1-2.91.5,7.86,7.86,0,0,1-3-.57,6.45,6.45,0,0,1-2.35-1.61A7.45,7.45,0,0,1,7.7,69.92a9.16,9.16,0,0,1-.54-3.23,11.84,11.84,0,0,1,.65-3.82A20.32,20.32,0,0,1,9.5,59.19a26,26,0,0,1,2.34-3.37A32.2,32.2,0,0,1,14.46,53h5.16a31.62,31.62,0,0,0-3.78,4.16,32.58,32.58,0,0,0-3.09,4.8c.32-.19.61-.34.87-.47a5.81,5.81,0,0,1,.73-.29,4.29,4.29,0,0,1,.71-.16,6.48,6.48,0,0,1,.8,0,5.64,5.64,0,0,1,2.35.48A5.16,5.16,0,0,1,20,62.81a6.77,6.77,0,0,1,1.19,2.11A8,8,0,0,1,21.66,67.6Zm-4.06.09a3.1,3.1,0,0,0-.72-2.16,2.46,2.46,0,0,0-1.94-.8A4,4,0,0,0,12.11,66q-.09.47-.12.69a5,5,0,0,0,0,.61,3.49,3.49,0,0,0,.82,2.41,2.76,2.76,0,0,0,2.16.93,2.5,2.5,0,0,0,1.94-.8A3,3,0,0,0,17.6,67.69Z"/>
      <path class="cls-2" d="M39.31,57.2a1.69,1.69,0,0,1-.7,1.38,2.79,2.79,0,0,1-3.39,0,1.87,1.87,0,0,1-.73-1.42,1.68,1.68,0,0,1,.67-1.42,2.68,2.68,0,0,1,1.77-.58,2.59,2.59,0,0,1,.9.16,2.35,2.35,0,0,1,.76.43,2.2,2.2,0,0,1,.52.66A1.72,1.72,0,0,1,39.31,57.2ZM34.73,74.59V61h4.06V74.59Z"/>
      <path class="cls-2" d="M51.69,74.34a9.51,9.51,0,0,1-2.18.25,7.28,7.28,0,0,1-2.69-.49,6.74,6.74,0,0,1-2.12-1.35,5.73,5.73,0,0,1-1.39-2.07A7.08,7.08,0,0,1,42.82,68a8.9,8.9,0,0,1,.44-2.84,6.06,6.06,0,0,1,1.35-2.24,6.2,6.2,0,0,1,2.23-1.45A8.55,8.55,0,0,1,49.93,61a7.21,7.21,0,0,1,2.34.32,8.59,8.59,0,0,1,1.51.7l-.7,3.56c-.31-.14-.57-.27-.78-.38a4,4,0,0,0-.61-.28,3,3,0,0,0-.64-.16,7,7,0,0,0-.84,0A2.9,2.9,0,0,0,47,67.8a3.07,3.07,0,0,0,.86,2.3,3.41,3.41,0,0,0,2.47.83A6.41,6.41,0,0,0,52,70.74a8.93,8.93,0,0,0,1.62-.59l.27,3.37A10.32,10.32,0,0,1,51.69,74.34Z"/>
      <path class="cls-2" d="M68.77,64.7a3.57,3.57,0,0,1-.54,1.92,4.5,4.5,0,0,1-1.53,1.47,8.63,8.63,0,0,1-2.38,1,12.94,12.94,0,0,1-3.11.34l-.37,0h-.49a2.71,2.71,0,0,0,2.89,2.51,8.92,8.92,0,0,0,4.49-1.4v3.26a8.62,8.62,0,0,1-2.21,1,9,9,0,0,1-2.4.3,7.83,7.83,0,0,1-2.76-.47,5.61,5.61,0,0,1-2.09-1.34A6,6,0,0,1,57,71.07a7.79,7.79,0,0,1-.46-2.78A8.86,8.86,0,0,1,57,65.18a7.47,7.47,0,0,1,1.5-2.44,6.75,6.75,0,0,1,2.3-1.58,7.74,7.74,0,0,1,3-.56,5.52,5.52,0,0,1,3.61,1.12A3.66,3.66,0,0,1,68.77,64.7ZM64.71,65a1.1,1.1,0,0,0-.42-.86,1.6,1.6,0,0,0-1.05-.35,2.37,2.37,0,0,0-1.74.73,3.45,3.45,0,0,0-.94,2,2.58,2.58,0,0,0,.48.06h.46C63.64,66.59,64.71,66.06,64.71,65Z"/>
      <path class="cls-2" d="M89.88,74.34a9.51,9.51,0,0,1-2.18.25A7.31,7.31,0,0,1,85,74.1a6.74,6.74,0,0,1-2.12-1.35,5.86,5.86,0,0,1-1.39-2.07A7.28,7.28,0,0,1,81,68a8.63,8.63,0,0,1,.45-2.84,5.91,5.91,0,0,1,1.34-2.24A6.2,6.2,0,0,1,85,61.46a8.61,8.61,0,0,1,3.1-.51,7.19,7.19,0,0,1,2.33.32A8.27,8.27,0,0,1,92,62l-.7,3.56-.78-.38a3.64,3.64,0,0,0-.61-.28,2.85,2.85,0,0,0-.64-.16,6.74,6.74,0,0,0-.84,0,2.88,2.88,0,0,0-3.17,3.13,3.06,3.06,0,0,0,.85,2.3,3.43,3.43,0,0,0,2.47.83,6.41,6.41,0,0,0,1.59-.19,8.93,8.93,0,0,0,1.62-.59L92,73.52A10.6,10.6,0,0,1,89.88,74.34Z"/>
      <path class="cls-2" d="M104.49,64.76l-.67-.12a3.53,3.53,0,0,0-3.19,1.17,6,6,0,0,0-.9,3.61v5.17H95.67v-9c0-.5,0-.94,0-1.32s0-.72-.07-1a9.6,9.6,0,0,0-.17-1c-.07-.31-.17-.67-.29-1.08H99c.07.26.12.47.18.65a3.61,3.61,0,0,1,.11.51q0,.24.06.51a6.12,6.12,0,0,1,0,.66,7.08,7.08,0,0,1,1.74-2A3.29,3.29,0,0,1,103,61a2.44,2.44,0,0,1,.71.08,5.4,5.4,0,0,1,.81.3Z"/>
      <path class="cls-2" d="M118,64.7a3.49,3.49,0,0,1-.55,1.92,4.5,4.5,0,0,1-1.53,1.47,8.51,8.51,0,0,1-2.38,1,12.88,12.88,0,0,1-3.11.34l-.37,0h-.49a2.71,2.71,0,0,0,2.89,2.51,9,9,0,0,0,4.5-1.4v3.26a8.53,8.53,0,0,1-2.22,1,8.94,8.94,0,0,1-2.39.3,7.76,7.76,0,0,1-2.76-.47,5.57,5.57,0,0,1-2.1-1.34,6.16,6.16,0,0,1-1.31-2.11,8,8,0,0,1-.46-2.78,8.64,8.64,0,0,1,.54-3.11,7.28,7.28,0,0,1,1.49-2.44,6.69,6.69,0,0,1,2.31-1.58,7.65,7.65,0,0,1,3-.56,5.55,5.55,0,0,1,3.62,1.12A3.69,3.69,0,0,1,118,64.7ZM114,65a1.1,1.1,0,0,0-.42-.86,1.61,1.61,0,0,0-1.06-.35,2.37,2.37,0,0,0-1.74.73,3.51,3.51,0,0,0-.94,2,2.67,2.67,0,0,0,.49.06h.45C112.88,66.59,114,66.06,114,65Z"/>
      <path class="cls-2" d="M130.75,74.59c0-.15,0-.32,0-.53s0-.36,0-.59,0-.46,0-.71a4.86,4.86,0,0,1-2,1.59,6.22,6.22,0,0,1-2.6.55,4.76,4.76,0,0,1-3.9-1.68,7.24,7.24,0,0,1-1.4-4.77A7.38,7.38,0,0,1,123,62.67a9.15,9.15,0,0,1,6.39-2c.45,0,.87,0,1.24,0a10.43,10.43,0,0,1,1.11.11c.37,0,.75.12,1.15.2a13.35,13.35,0,0,1,1.3.34v8.8c0,.48,0,1,0,1.51s.05,1,.09,1.44l.12,1.52Zm-.64-10.11a6.59,6.59,0,0,0-1-.15c-.29,0-.56,0-.8,0a3.22,3.22,0,0,0-2.61,1.11,4.52,4.52,0,0,0-.94,3,3.05,3.05,0,0,0,.56,2,1.93,1.93,0,0,0,1.59.68,2.82,2.82,0,0,0,1.22-.27,3.08,3.08,0,0,0,1-.79,4.1,4.1,0,0,0,.69-1.21,4.83,4.83,0,0,0,.25-1.57Z"/>
      <path class="cls-2" d="M156.09,74.59V67.84a4.46,4.46,0,0,0-.52-2.53,1.64,1.64,0,0,0-1.39-.71,2,2,0,0,0-.91.23,2.24,2.24,0,0,0-.84.72,3.86,3.86,0,0,0-.6,1.35A8.47,8.47,0,0,0,151.6,69v5.57h-4.06V67.84a5,5,0,0,0-.47-2.46,1.7,1.7,0,0,0-1.58-.78,2.2,2.2,0,0,0-1.8,1.05,5.81,5.81,0,0,0-.76,3.37v5.57h-4.06V66c0-.5,0-1,0-1.37s-.06-.79-.11-1.15a8.87,8.87,0,0,0-.21-1c-.09-.35-.2-.71-.32-1.09h4.06c.1.33.18.57.23.73s.1.39.16.69a9.38,9.38,0,0,1,2.12-1.32,6.74,6.74,0,0,1,2.78-.51,4.72,4.72,0,0,1,2.09.45A3.06,3.06,0,0,1,151,62.65a4.49,4.49,0,0,1,2-1.27,8.32,8.32,0,0,1,2.63-.43,4.34,4.34,0,0,1,3.3,1.23,5.05,5.05,0,0,1,1.16,3.58v8.83Z"/>
      <path class="cls-2" d="M184.14,70.8a3.92,3.92,0,0,1-1.29,3.1,5.26,5.26,0,0,1-3.64,1.15,14.72,14.72,0,0,1-3.09-.31,8.86,8.86,0,0,1-2.45-.84l.52-3.16a10.32,10.32,0,0,0,4.64,1.4,1.28,1.28,0,0,0,1-.3.89.89,0,0,0,.29-.66,1.2,1.2,0,0,0-.22-.76,3.57,3.57,0,0,0-1.12-.73,18.38,18.38,0,0,1-2.15-1.12,7.32,7.32,0,0,1-1.47-1.16,3.91,3.91,0,0,1-.82-1.29,4.38,4.38,0,0,1-.26-1.55,3.51,3.51,0,0,1,1.47-3,6.46,6.46,0,0,1,3.86-1.07,12.17,12.17,0,0,1,2.28.2,10.91,10.91,0,0,1,2.28.79l-.49,3.13a7.42,7.42,0,0,0-2.1-.85,9.61,9.61,0,0,0-2-.23,1.41,1.41,0,0,0-1,.26,1,1,0,0,0-.26.7,1,1,0,0,0,.42.85,8.93,8.93,0,0,0,1.62.86A16.55,16.55,0,0,1,182,67.26a6.78,6.78,0,0,1,1.25,1,3.36,3.36,0,0,1,.69,1.15A4.05,4.05,0,0,1,184.14,70.8Z"/>
      <path class="cls-2" d="M188.72,74.59V63.89H186V61h2.68V57.51h4V61h3.45v2.94h-3.45v10.7Z"/>
      <path class="cls-2" d="M203.35,57.2a1.71,1.71,0,0,1-.7,1.38,2.59,2.59,0,0,1-1.68.57,2.55,2.55,0,0,1-1.71-.58,1.88,1.88,0,0,1-.74-1.42,1.69,1.69,0,0,1,.68-1.42,2.64,2.64,0,0,1,1.77-.58,2.59,2.59,0,0,1,.9.16,2.22,2.22,0,0,1,1.28,1.09A1.72,1.72,0,0,1,203.35,57.2Zm-4.58,17.39V61h4.06V74.59Z"/>
      <path class="cls-2" d="M215.73,74.34a9.51,9.51,0,0,1-2.18.25,7.28,7.28,0,0,1-2.69-.49,6.63,6.63,0,0,1-2.12-1.35,5.73,5.73,0,0,1-1.39-2.07,7.08,7.08,0,0,1-.49-2.69,8.9,8.9,0,0,1,.44-2.84,6,6,0,0,1,1.34-2.24,6.38,6.38,0,0,1,2.23-1.45A8.65,8.65,0,0,1,214,61a7.21,7.21,0,0,1,2.34.32,8.59,8.59,0,0,1,1.51.7l-.7,3.56c-.31-.14-.57-.27-.78-.38a4.55,4.55,0,0,0-.61-.28,3.16,3.16,0,0,0-.64-.16,7,7,0,0,0-.84,0,2.9,2.9,0,0,0-3.18,3.13,3.07,3.07,0,0,0,.86,2.3,3.41,3.41,0,0,0,2.47.83,6.41,6.41,0,0,0,1.59-.19,8.93,8.93,0,0,0,1.62-.59l.27,3.37A10.32,10.32,0,0,1,215.73,74.34Z"/>
      <path class="cls-2" d="M229.17,66.53l6.51,8.06H230.3l-5.06-6.73v6.73h-4.06V53h4.06V65.44L230.18,61H236Z"/>
      <path class="cls-2" d="M248.84,70.8a3.9,3.9,0,0,1-1.3,3.1,5.25,5.25,0,0,1-3.63,1.15,14.75,14.75,0,0,1-3.1-.31,9,9,0,0,1-2.45-.84l.52-3.16a10.32,10.32,0,0,0,4.64,1.4,1.33,1.33,0,0,0,1-.3.93.93,0,0,0,.29-.66,1.21,1.21,0,0,0-.23-.76,3.57,3.57,0,0,0-1.12-.73,18.38,18.38,0,0,1-2.15-1.12,7.32,7.32,0,0,1-1.47-1.16,3.91,3.91,0,0,1-.82-1.29,4.38,4.38,0,0,1-.26-1.55,3.5,3.5,0,0,1,1.48-3,6.43,6.43,0,0,1,3.85-1.07,12,12,0,0,1,2.28.2,10.91,10.91,0,0,1,2.28.79l-.49,3.13a7.42,7.42,0,0,0-2.1-.85,9.6,9.6,0,0,0-2-.23,1.42,1.42,0,0,0-1,.26,1,1,0,0,0-.26.7,1,1,0,0,0,.42.85,8.76,8.76,0,0,0,1.63.86,17.27,17.27,0,0,1,1.85,1.07,6.46,6.46,0,0,1,1.25,1,3.36,3.36,0,0,1,.69,1.15A4.05,4.05,0,0,1,248.84,70.8Z"/>
    </g>
  </g>
</svg>
