<svg xmlns="http://www.w3.org/2000/svg" viewBox="0 0 256 128"><defs><style>.cls-1{fill:#fff200;}.cls-2{fill:#323232;}</style></defs><g id="_3_Hot_air_ballons" data-name="3 Hot air ballons"><path class="cls-1" d="M82.12,68.08a7.1,7.1,0,0,1-2.2,5.59,8.92,8.92,0,0,1-6.16,2,11.58,11.58,0,0,1-4.51-.86,10,10,0,0,1-3.58-2.55l1.9-3.35c2,1.83,4,2.75,5.91,2.75a4.56,4.56,0,0,0,3-.93,3,3,0,0,0,1.16-2.4,3.33,3.33,0,0,0-1-2.59A4.65,4.65,0,0,0,72,65.22a7.13,7.13,0,0,0-1.68,1.21l-2.93-1.67.34-12.85h13.6l0,4H72.12L72,61.5c.33-.16.62-.29.86-.39a5.59,5.59,0,0,1,.71-.26,4.22,4.22,0,0,1,.74-.14q.4,0,.9,0a7.48,7.48,0,0,1,2.84.53,6.36,6.36,0,0,1,2.19,1.51,6.86,6.86,0,0,1,1.42,2.34A8.58,8.58,0,0,1,82.12,68.08Z"/><path class="cls-2" d="M105.08,75.64l0-16.29c-.16-.18-.31-.33-.44-.45a4.43,4.43,0,0,0-.45-.36,2.57,2.57,0,0,0-.57-.3,2.23,2.23,0,0,0-.79-.12,3,3,0,0,0-1.14.2,1.79,1.79,0,0,0-.81.67,3.55,3.55,0,0,0-.5,1.31,11.31,11.31,0,0,0-.16,2.14h3.12v2.88h-3.06V75.64h-4V65.29H93.8V62.44h2.46a14.93,14.93,0,0,1,.42-3.94,5.91,5.91,0,0,1,1.11-2.28,3.25,3.25,0,0,1,1.6-1,7.33,7.33,0,0,1,2-.26,6.56,6.56,0,0,1,1.86.24,10.4,10.4,0,0,1,1.92.84l0-.93H109V75.64Z"/><path class="cls-2" d="M127.37,69a7.58,7.58,0,0,1-.5,2.84,5.7,5.7,0,0,1-1.4,2.08,6.16,6.16,0,0,1-2.18,1.28,9.29,9.29,0,0,1-5.65,0,6.16,6.16,0,0,1-2.18-1.28A5.88,5.88,0,0,1,114,71.84a7.58,7.58,0,0,1-.5-2.84,7.28,7.28,0,0,1,.49-2.77,5.71,5.71,0,0,1,3.57-3.35,8.87,8.87,0,0,1,2.87-.44,8.69,8.69,0,0,1,2.82.43,6.1,6.1,0,0,1,2.18,1.25,5.58,5.58,0,0,1,1.4,2.07A7.45,7.45,0,0,1,127.37,69Zm-4,0a2.78,2.78,0,0,0-3-3,2.77,2.77,0,0,0-2.13.8,3.1,3.1,0,0,0-.74,2.22,3.33,3.33,0,0,0,.72,2.29,2.75,2.75,0,0,0,2.15.81,2.92,2.92,0,0,0,2.2-.79A3.17,3.17,0,0,0,123.38,69Z"/><path class="cls-2" d="M147.47,74.17a2,2,0,0,1-2.16,1.47,2.25,2.25,0,0,1-1.39-.37,2.46,2.46,0,0,1-.77-1.21l-2.56-7.78-2.67,7.93a1.91,1.91,0,0,1-.76,1.09,2.57,2.57,0,0,1-1.42.34,4.17,4.17,0,0,1-.63,0,1.91,1.91,0,0,1-.57-.19,1.6,1.6,0,0,1-.51-.47,3.2,3.2,0,0,1-.42-.85l-4.2-11.65h4.05l1.74,5.33c.05.19.12.42.19.69s.15.52.23.77.17.61.27.94a4.09,4.09,0,0,1,.18-.73c.06-.22.12-.45.19-.69s.14-.47.2-.69l1.68-5.62H143l1.8,5.88a3.53,3.53,0,0,0,.16.57c.07.21.13.41.2.6a3.76,3.76,0,0,1,.17.68,5.61,5.61,0,0,0,.18-.62q.17-.58.33-1.11l1.78-6h4.2Z"/><path class="cls-2" d="M166,66.07a3.37,3.37,0,0,1-.54,1.86,4.49,4.49,0,0,1-1.5,1.43,8.34,8.34,0,0,1-2.34.91,13,13,0,0,1-3.06.33h-.36l-.49,0a2.79,2.79,0,0,0,.91,1.79,2.84,2.84,0,0,0,1.94.64A8.83,8.83,0,0,0,165,71.65V74.8a8.65,8.65,0,0,1-2.17,1,9.12,9.12,0,0,1-2.35.28,7.8,7.8,0,0,1-2.72-.45,5.41,5.41,0,0,1-2.05-1.3,6,6,0,0,1-1.3-2,7.55,7.55,0,0,1-.44-2.69,8.31,8.31,0,0,1,.52-3A7,7,0,0,1,156,64.18a6.41,6.41,0,0,1,2.27-1.53,7.58,7.58,0,0,1,2.91-.54,5.49,5.49,0,0,1,3.55,1.08A3.52,3.52,0,0,1,166,66.07Zm-4,.3a1,1,0,0,0-.42-.82,1.55,1.55,0,0,0-1-.35,2.37,2.37,0,0,0-1.71.71,3.28,3.28,0,0,0-.92,1.93,2.4,2.4,0,0,0,.47.06h.45C161,67.9,162.05,67.39,162.05,66.37Z"/><path class="cls-2" d="M178.33,66.13l-.66-.12a4.33,4.33,0,0,0-.53,0,3.06,3.06,0,0,0-2.6,1.17,5.76,5.76,0,0,0-.88,3.49v5h-4V67c0-.49,0-.92,0-1.28s0-.7-.07-1-.1-.63-.17-.93-.16-.65-.29-1h3.79c.06.24.12.45.17.63a3.38,3.38,0,0,1,.11.49l.06.49a5.78,5.78,0,0,1,0,.63A6.83,6.83,0,0,1,175,63a3.26,3.26,0,0,1,1.91-.57,2.81,2.81,0,0,1,.7.08,7.82,7.82,0,0,1,.8.29Z"/><path class="cls-2" d="M190.33,72a3.77,3.77,0,0,1-1.27,3,5.23,5.23,0,0,1-3.57,1.11,14.93,14.93,0,0,1-3-.3,8.85,8.85,0,0,1-2.4-.81l.51-3.06a10.24,10.24,0,0,0,4.56,1.35,1.31,1.31,0,0,0,.94-.28.9.9,0,0,0,.28-.65,1.13,1.13,0,0,0-.22-.73A3.5,3.5,0,0,0,185,70.9a18,18,0,0,1-2.12-1.08,7,7,0,0,1-1.44-1.12,3.82,3.82,0,0,1-.81-1.25,4.14,4.14,0,0,1-.25-1.5A3.37,3.37,0,0,1,181.86,63a6.37,6.37,0,0,1,3.79-1,11.62,11.62,0,0,1,2.23.2,10.22,10.22,0,0,1,2.24.76l-.48,3a7.09,7.09,0,0,0-2.06-.82,9.32,9.32,0,0,0-2-.23,1.38,1.38,0,0,0-1,.26.9.9,0,0,0-.25.67,1,1,0,0,0,.41.83,8.16,8.16,0,0,0,1.6.82,19.94,19.94,0,0,1,1.82,1,6.14,6.14,0,0,1,1.22,1,3.12,3.12,0,0,1,.68,1.11A3.82,3.82,0,0,1,190.33,72Z"/></g></svg>