<svg xmlns="http://www.w3.org/2000/svg" viewBox="0 0 256 128"><defs><style>.cls-1{opacity:0.5;}.cls-2{fill:#fff200;}</style></defs><g id="Layer_32" data-name="Layer 32"><g class="cls-1"><path d="M97.29,48c-2-1.6-1.75-1-3.19-1.64a12.61,12.61,0,0,0-5-.92,15.31,15.31,0,0,0-3.36.36,5.48,5.48,0,0,0-2.8,1.6A8.84,8.84,0,0,0,81.06,51c-.48,1.57-.13,4.29-.18,6.9h8.24v7.6H80.88v27.6H70.24V65.48H63.6v-7.6h6.48c0-4.27,0-7.71.54-10.44a22.36,22.36,0,0,1,2.94-7.08,9.92,9.92,0,0,1,4.88-3.68c2.08-.79,4.63-.8,7.4-.8a23.09,23.09,0,0,1,7,1,26.06,26.06,0,0,1,6.56,3.24Zm4.15,45.1V57.88h10.64v35.2Zm11.24-44.56a6.12,6.12,0,1,1-6.12-6.12A6.12,6.12,0,0,1,112.68,48.52Z"/><path d="M144.08,87.86c-.43.94-.83,1.74-1.2,2.42a5.83,5.83,0,0,1-1.28,1.63,4.33,4.33,0,0,1-1.64.9,8.23,8.23,0,0,1-2.28.27,6.23,6.23,0,0,1-3.72-1,8.64,8.64,0,0,1-2.52-3.82L118.88,57.88h11l5.92,16.2c.43,1.14.81,2.23,1.16,3.27a25.85,25.85,0,0,1,.76,2.65c.27-.73.61-1.62,1-2.69s.85-2.11,1.28-3.15l6.32-16.28h11Z"/><path d="M194.4,67.56a9.13,9.13,0,0,1-1.42,5,12,12,0,0,1-4,3.8,22.19,22.19,0,0,1-6.23,2.44,34.51,34.51,0,0,1-8.15.88c-.28,0-.6,0-1,0s-.8,0-1.3,0a7.39,7.39,0,0,0,2.4,4.76A7.59,7.59,0,0,0,179.9,86a23.67,23.67,0,0,0,11.78-3.6v8.4a23.32,23.32,0,0,1-5.8,2.52,24.13,24.13,0,0,1-6.28.76,20.71,20.71,0,0,1-7.24-1.2,14.7,14.7,0,0,1-5.48-3.48A15.53,15.53,0,0,1,163.44,84a20.06,20.06,0,0,1-1.2-7.16,22.32,22.32,0,0,1,1.4-8,18.61,18.61,0,0,1,3.92-6.28,17.25,17.25,0,0,1,6-4.08A20.31,20.31,0,0,1,181.36,57q5.92,0,9.48,2.88A9.39,9.39,0,0,1,194.4,67.56Zm-10.64.8a2.79,2.79,0,0,0-1.1-2.2,4.16,4.16,0,0,0-2.76-.92,6.35,6.35,0,0,0-4.57,1.88,9,9,0,0,0-2.45,5.16,6.49,6.49,0,0,0,1.27.16h1.18Q183.76,72.44,183.76,68.36Z"/></g><path class="cls-2" d="M95.29,46c-2-1.6-1.75-1-3.19-1.64a12.61,12.61,0,0,0-5-.92,15.31,15.31,0,0,0-3.36.36,5.48,5.48,0,0,0-2.8,1.6A8.84,8.84,0,0,0,79.06,49c-.48,1.57-.13,4.29-.18,6.9h8.24v7.6H78.88v27.6H68.24V63.48H61.6v-7.6h6.48c0-4.27,0-7.71.54-10.44a22.36,22.36,0,0,1,2.94-7.08,9.92,9.92,0,0,1,4.88-3.68c2.08-.79,4.63-.8,7.4-.8a23.09,23.09,0,0,1,7,1,26.06,26.06,0,0,1,6.56,3.24Zm4.15,45.1V55.88h10.64v35.2Zm11.24-44.56a6.12,6.12,0,1,1-6.12-6.12A6.12,6.12,0,0,1,110.68,46.52Z"/><path class="cls-2" d="M142.08,85.86c-.43.94-.83,1.74-1.2,2.42a5.83,5.83,0,0,1-1.28,1.63,4.33,4.33,0,0,1-1.64.9,8.23,8.23,0,0,1-2.28.27,6.23,6.23,0,0,1-3.72-1,8.64,8.64,0,0,1-2.52-3.82L116.88,55.88h11l5.92,16.2c.43,1.14.81,2.23,1.16,3.27a25.85,25.85,0,0,1,.76,2.65c.27-.73.61-1.62,1-2.69s.85-2.11,1.28-3.15l6.32-16.28h11Z"/><path class="cls-2" d="M192.4,65.56a9.13,9.13,0,0,1-1.42,5,12,12,0,0,1-4,3.8,22.19,22.19,0,0,1-6.23,2.44,34.51,34.51,0,0,1-8.15.88c-.28,0-.6,0-1,0s-.8,0-1.3,0a7.39,7.39,0,0,0,2.4,4.76A7.59,7.59,0,0,0,177.9,84a23.67,23.67,0,0,0,11.78-3.6v8.4a23.32,23.32,0,0,1-5.8,2.52,24.13,24.13,0,0,1-6.28.76,20.71,20.71,0,0,1-7.24-1.2,14.7,14.7,0,0,1-5.48-3.48A15.53,15.53,0,0,1,161.44,82a20.06,20.06,0,0,1-1.2-7.16,22.32,22.32,0,0,1,1.4-8,18.61,18.61,0,0,1,3.92-6.28,17.25,17.25,0,0,1,6-4.08A20.31,20.31,0,0,1,179.36,55q5.92,0,9.48,2.88A9.39,9.39,0,0,1,192.4,65.56Zm-10.64.8a2.79,2.79,0,0,0-1.1-2.2,4.16,4.16,0,0,0-2.76-.92,6.35,6.35,0,0,0-4.57,1.88,9,9,0,0,0-2.45,5.16,6.49,6.49,0,0,0,1.27.16h1.18Q181.76,70.44,181.76,66.36Z"/></g></svg>