<svg xmlns="http://www.w3.org/2000/svg" viewBox="0 0 256 128"><defs><style>.cls-1{opacity:0.5;}.cls-2{fill:#ff0;}</style></defs><g id="Layer_33" data-name="Layer 33"><g class="cls-1"><path d="M61.44,72.84a10.07,10.07,0,0,1-3.39,8q-3.39,3-9.53,3A40.22,40.22,0,0,1,40.4,83,23.68,23.68,0,0,1,34,80.84l1.36-8.16q7,3.6,12.16,3.6A3.47,3.47,0,0,0,50,75.52a2.37,2.37,0,0,0,.76-1.72,3.07,3.07,0,0,0-.6-2A9.11,9.11,0,0,0,47.28,70a47.26,47.26,0,0,1-5.64-2.88,18.85,18.85,0,0,1-3.84-3,10.07,10.07,0,0,1-2.16-3.32,11.11,11.11,0,0,1-.68-4A9,9,0,0,1,38.83,49q3.87-2.76,10.1-2.76a30.75,30.75,0,0,1,6,.52,27.69,27.69,0,0,1,6,2l-1.28,8.08a18.9,18.9,0,0,0-5.5-2.2,24.59,24.59,0,0,0-5.25-.6,3.66,3.66,0,0,0-2.55.68,2.4,2.4,0,0,0-.69,1.8,2.64,2.64,0,0,0,1.1,2.2A22.73,22.73,0,0,0,51,60.92a50.1,50.1,0,0,1,4.86,2.76,17.46,17.46,0,0,1,3.27,2.72,8.52,8.52,0,0,1,1.81,3A10.59,10.59,0,0,1,61.44,72.84Z"/><path d="M102.16,57.08a9,9,0,0,1-1.42,5,12,12,0,0,1-4,3.8,22.07,22.07,0,0,1-6.23,2.44,34.51,34.51,0,0,1-8.15.88c-.28,0-.6,0-1,0s-.8,0-1.3,0a7.39,7.39,0,0,0,2.4,4.76,7.59,7.59,0,0,0,5.18,1.72A23.67,23.67,0,0,0,99.44,72v8.4a23.32,23.32,0,0,1-5.8,2.52,24.13,24.13,0,0,1-6.28.76,20.71,20.71,0,0,1-7.24-1.2A14.7,14.7,0,0,1,74.64,79a15.53,15.53,0,0,1-3.44-5.44A20.06,20.06,0,0,1,70,66.36a22.32,22.32,0,0,1,1.4-8A18.61,18.61,0,0,1,75.32,52a17.25,17.25,0,0,1,6-4.08,20.31,20.31,0,0,1,7.76-1.44q5.92,0,9.48,2.88A9.39,9.39,0,0,1,102.16,57.08Zm-10.64.8a2.79,2.79,0,0,0-1.1-2.2,4.16,4.16,0,0,0-2.76-.92,6.31,6.31,0,0,0-4.56,1.88,8.9,8.9,0,0,0-2.46,5.16,6.49,6.49,0,0,0,1.27.16H83.1Q91.51,62,91.52,57.88Z"/><path d="M131.6,77.38c-.43.94-.83,1.74-1.2,2.42a5.83,5.83,0,0,1-1.28,1.63,4.33,4.33,0,0,1-1.64.9,8.18,8.18,0,0,1-2.28.27,6.23,6.23,0,0,1-3.72-1A8.64,8.64,0,0,1,119,77.77L106.4,47.4h11l5.92,16.2c.43,1.14.81,2.23,1.16,3.27a25.85,25.85,0,0,1,.76,2.65c.27-.73.61-1.63,1-2.69s.85-2.11,1.28-3.15l6.32-16.28h11Z"/><path d="M181.92,57.08a9.13,9.13,0,0,1-1.42,5,12,12,0,0,1-4,3.8,22.19,22.19,0,0,1-6.23,2.44,34.51,34.51,0,0,1-8.15.88c-.28,0-.6,0-1,0s-.8,0-1.3,0a7.39,7.39,0,0,0,2.4,4.76,7.59,7.59,0,0,0,5.18,1.72A23.67,23.67,0,0,0,179.2,72v8.4a23.32,23.32,0,0,1-5.8,2.52,24.13,24.13,0,0,1-6.28.76,20.71,20.71,0,0,1-7.24-1.2A14.7,14.7,0,0,1,154.4,79,15.53,15.53,0,0,1,151,73.52a20.06,20.06,0,0,1-1.2-7.16,22.32,22.32,0,0,1,1.4-8A18.61,18.61,0,0,1,155.08,52a17.25,17.25,0,0,1,6-4.08,20.31,20.31,0,0,1,7.76-1.44q5.93,0,9.48,2.88A9.39,9.39,0,0,1,181.92,57.08Zm-10.64.8a2.79,2.79,0,0,0-1.1-2.2,4.16,4.16,0,0,0-2.76-.92,6.31,6.31,0,0,0-4.56,1.88,8.9,8.9,0,0,0-2.46,5.16,6.49,6.49,0,0,0,1.27.16h1.19Q171.27,62,171.28,57.88Z"/><path d="M213.36,82.6v-20a8,8,0,0,0-.52-3.23,4.61,4.61,0,0,0-1.24-1.74,3,3,0,0,0-1.52-.69,9.4,9.4,0,0,0-1.36-.12,7.76,7.76,0,0,0-1.68.31,5.74,5.74,0,0,0-2.44,1.46,10,10,0,0,0-2.2,3.4,15.5,15.5,0,0,0-1,6V82.6H190.8V59.33a39.87,39.87,0,0,0-.48-6.07,19.89,19.89,0,0,0-1.28-4.9h10.64a15,15,0,0,1,.68,1.84c.13.48.28,1.17.44,2.08a16.62,16.62,0,0,1,5.49-3.68,15.8,15.8,0,0,1,6-1.2,11.69,11.69,0,0,1,4.67.93,11.38,11.38,0,0,1,3.72,2.61,12.18,12.18,0,0,1,2.47,4.13,15.89,15.89,0,0,1,.9,5.49v22Z"/></g><path class="cls-2" d="M59.44,70.84a10.07,10.07,0,0,1-3.39,8q-3.39,3-9.53,3A40.22,40.22,0,0,1,38.4,81,23.68,23.68,0,0,1,32,78.84l1.36-8.16q7,3.6,12.16,3.6A3.47,3.47,0,0,0,48,73.52a2.37,2.37,0,0,0,.76-1.72,3.07,3.07,0,0,0-.6-2A9.11,9.11,0,0,0,45.28,68a47.26,47.26,0,0,1-5.64-2.88,18.85,18.85,0,0,1-3.84-3,10.07,10.07,0,0,1-2.16-3.32,11.11,11.11,0,0,1-.68-4A9,9,0,0,1,36.83,47q3.87-2.76,10.1-2.76a30.75,30.75,0,0,1,6,.52,27.69,27.69,0,0,1,6,2l-1.28,8.08a18.9,18.9,0,0,0-5.5-2.2,24.59,24.59,0,0,0-5.25-.6,3.66,3.66,0,0,0-2.55.68,2.4,2.4,0,0,0-.69,1.8,2.64,2.64,0,0,0,1.1,2.2A22.73,22.73,0,0,0,49,58.92a50.1,50.1,0,0,1,4.86,2.76,17.46,17.46,0,0,1,3.27,2.72,8.52,8.52,0,0,1,1.81,3A10.59,10.59,0,0,1,59.44,70.84Z"/><path class="cls-2" d="M100.16,55.08a9,9,0,0,1-1.42,5,12,12,0,0,1-4,3.8,22.07,22.07,0,0,1-6.23,2.44,34.51,34.51,0,0,1-8.15.88c-.28,0-.6,0-1,0s-.8,0-1.3,0a7.39,7.39,0,0,0,2.4,4.76,7.59,7.59,0,0,0,5.18,1.72A23.67,23.67,0,0,0,97.44,70v8.4a23.32,23.32,0,0,1-5.8,2.52,24.13,24.13,0,0,1-6.28.76,20.71,20.71,0,0,1-7.24-1.2A14.7,14.7,0,0,1,72.64,77a15.53,15.53,0,0,1-3.44-5.44A20.06,20.06,0,0,1,68,64.36a22.32,22.32,0,0,1,1.4-8A18.61,18.61,0,0,1,73.32,50a17.25,17.25,0,0,1,6-4.08,20.31,20.31,0,0,1,7.76-1.44q5.92,0,9.48,2.88A9.39,9.39,0,0,1,100.16,55.08Zm-10.64.8a2.79,2.79,0,0,0-1.1-2.2,4.16,4.16,0,0,0-2.76-.92,6.31,6.31,0,0,0-4.56,1.88,8.9,8.9,0,0,0-2.46,5.16,6.49,6.49,0,0,0,1.27.16H81.1Q89.51,60,89.52,55.88Z"/><path class="cls-2" d="M129.6,75.38c-.43.94-.83,1.74-1.2,2.42a5.83,5.83,0,0,1-1.28,1.63,4.33,4.33,0,0,1-1.64.9,8.18,8.18,0,0,1-2.28.27,6.23,6.23,0,0,1-3.72-1A8.64,8.64,0,0,1,117,75.77L104.4,45.4h11l5.92,16.2c.43,1.14.81,2.23,1.16,3.27a25.85,25.85,0,0,1,.76,2.65c.27-.73.61-1.63,1-2.69s.85-2.11,1.28-3.15l6.32-16.28h11Z"/><path class="cls-2" d="M179.92,55.08a9.13,9.13,0,0,1-1.42,5,12,12,0,0,1-4,3.8,22.19,22.19,0,0,1-6.23,2.44,34.51,34.51,0,0,1-8.15.88c-.28,0-.6,0-1,0s-.8,0-1.3,0a7.39,7.39,0,0,0,2.4,4.76,7.59,7.59,0,0,0,5.18,1.72A23.67,23.67,0,0,0,177.2,70v8.4a23.32,23.32,0,0,1-5.8,2.52,24.13,24.13,0,0,1-6.28.76,20.71,20.71,0,0,1-7.24-1.2A14.7,14.7,0,0,1,152.4,77,15.53,15.53,0,0,1,149,71.52a20.06,20.06,0,0,1-1.2-7.16,22.32,22.32,0,0,1,1.4-8A18.61,18.61,0,0,1,153.08,50a17.25,17.25,0,0,1,6-4.08,20.31,20.31,0,0,1,7.76-1.44q5.93,0,9.48,2.88A9.39,9.39,0,0,1,179.92,55.08Zm-10.64.8a2.79,2.79,0,0,0-1.1-2.2,4.16,4.16,0,0,0-2.76-.92,6.31,6.31,0,0,0-4.56,1.88,8.9,8.9,0,0,0-2.46,5.16,6.49,6.49,0,0,0,1.27.16h1.19Q169.27,60,169.28,55.88Z"/><path class="cls-2" d="M211.36,80.6v-20a8,8,0,0,0-.52-3.23,4.61,4.61,0,0,0-1.24-1.74,3,3,0,0,0-1.52-.69,9.4,9.4,0,0,0-1.36-.12,7.76,7.76,0,0,0-1.68.31,5.74,5.74,0,0,0-2.44,1.46,10,10,0,0,0-2.2,3.4,15.5,15.5,0,0,0-1,6V80.6H188.8V57.33a39.87,39.87,0,0,0-.48-6.07,19.89,19.89,0,0,0-1.28-4.9h10.64a15,15,0,0,1,.68,1.84c.13.48.28,1.17.44,2.08a16.62,16.62,0,0,1,5.49-3.68,15.8,15.8,0,0,1,6-1.2,11.69,11.69,0,0,1,4.67.93,11.38,11.38,0,0,1,3.72,2.61,12.18,12.18,0,0,1,2.47,4.13,15.89,15.89,0,0,1,.9,5.49v22Z"/></g></svg>