<svg xmlns="http://www.w3.org/2000/svg" viewBox="0 0 256 128"><defs><style>.cls-1{opacity:0.5;}.cls-2{fill:#fff200;}</style></defs><g id="six"><g class="cls-1"><path d="M109.68,79.72a10.07,10.07,0,0,1-3.39,8q-3.39,3-9.53,3a40.22,40.22,0,0,1-8.12-.8,23.8,23.8,0,0,1-6.4-2.16l1.36-8.16q7,3.6,12.16,3.6a3.47,3.47,0,0,0,2.52-.76A2.37,2.37,0,0,0,99,80.68a3.07,3.07,0,0,0-.6-2,9.11,9.11,0,0,0-2.92-1.88A47.26,47.26,0,0,1,89.88,74,18.85,18.85,0,0,1,86,71a10.07,10.07,0,0,1-2.16-3.32,11.11,11.11,0,0,1-.68-4,9,9,0,0,1,3.87-7.8q3.87-2.76,10.1-2.76a30.75,30.75,0,0,1,6,.52,27.69,27.69,0,0,1,6,2l-1.28,8.08a18.9,18.9,0,0,0-5.5-2.2,24.59,24.59,0,0,0-5.25-.6,3.66,3.66,0,0,0-2.55.68,2.4,2.4,0,0,0-.69,1.8,2.64,2.64,0,0,0,1.1,2.2,22.73,22.73,0,0,0,4.26,2.2,50.1,50.1,0,0,1,4.86,2.76,17.46,17.46,0,0,1,3.27,2.72,8.52,8.52,0,0,1,1.81,3A10.59,10.59,0,0,1,109.68,79.72Z"/><path d="M132.24,44.62a4.39,4.39,0,0,1-1.84,3.56,7.42,7.42,0,0,1-8.88,0,4.79,4.79,0,0,1-1.92-3.67,4.34,4.34,0,0,1,1.76-3.67,7.63,7.63,0,0,1,7-1.08,6.18,6.18,0,0,1,2,1.12,5.73,5.73,0,0,1,1.36,1.69A4.36,4.36,0,0,1,132.24,44.62Zm-12,44.86V54.28h10.64v35.2Z"/><path d="M163.52,89.48l-6.24-11.2-6.56,11.2H138.48l12.64-18.64-11-16.56h12.32l5.28,9.28,5-9.28h12.56L164.08,71.16l11.68,18.32Z"/></g><path class="cls-2" d="M107.68,77.72a10.07,10.07,0,0,1-3.39,8q-3.39,3-9.53,3a40.22,40.22,0,0,1-8.12-.8,23.8,23.8,0,0,1-6.4-2.16l1.36-8.16q7,3.6,12.16,3.6a3.47,3.47,0,0,0,2.52-.76A2.37,2.37,0,0,0,97,78.68a3.07,3.07,0,0,0-.6-2,9.11,9.11,0,0,0-2.92-1.88A47.26,47.26,0,0,1,87.88,72,18.85,18.85,0,0,1,84,69a10.07,10.07,0,0,1-2.16-3.32,11.11,11.11,0,0,1-.68-4,9,9,0,0,1,3.87-7.8q3.87-2.76,10.1-2.76a30.75,30.75,0,0,1,6,.52,27.69,27.69,0,0,1,6,2l-1.28,8.08a18.9,18.9,0,0,0-5.5-2.2,24.59,24.59,0,0,0-5.25-.6,3.66,3.66,0,0,0-2.55.68,2.4,2.4,0,0,0-.69,1.8,2.64,2.64,0,0,0,1.1,2.2,22.73,22.73,0,0,0,4.26,2.2,50.1,50.1,0,0,1,4.86,2.76,17.46,17.46,0,0,1,3.27,2.72,8.52,8.52,0,0,1,1.81,3A10.59,10.59,0,0,1,107.68,77.72Z"/><path class="cls-2" d="M130.24,42.62a4.39,4.39,0,0,1-1.84,3.56,7.42,7.42,0,0,1-8.88,0,4.79,4.79,0,0,1-1.92-3.67,4.34,4.34,0,0,1,1.76-3.67,7.63,7.63,0,0,1,7-1.08,6.18,6.18,0,0,1,2,1.12,5.73,5.73,0,0,1,1.36,1.69A4.36,4.36,0,0,1,130.24,42.62Zm-12,44.86V52.28h10.64v35.2Z"/><path class="cls-2" d="M161.52,87.48l-6.24-11.2-6.56,11.2H136.48l12.64-18.64-11-16.56h12.32l5.28,9.28,5-9.28h12.56L162.08,69.16l11.68,18.32Z"/></g></svg>