<svg xmlns="http://www.w3.org/2000/svg" viewBox="0 0 256 128"><defs><style>.cls-1{fill:#ff0;}.cls-2{fill:#323232;}</style></defs><g id="_1_Flag" data-name="1 Flag"><path class="cls-1" d="M95.39,71.38V52.84q-.67.79-1.29,1.41L92.78,55.6l-2.25-3.06c.68-.59,1.34-1.18,2-1.77s1.1-1,1.67-1.59,1-1.08,1.4-1.53h4.35V71.38Z"/><path class="cls-2" d="M126.68,71.38l0-16.29c-.16-.18-.31-.33-.44-.45a4.43,4.43,0,0,0-.45-.36,2.57,2.57,0,0,0-.57-.3,2.23,2.23,0,0,0-.79-.12,3,3,0,0,0-1.14.2,1.79,1.79,0,0,0-.81.67A3.55,3.55,0,0,0,122,56a11.31,11.31,0,0,0-.16,2.14H125v2.88h-3.06V71.38h-4V61H115.4V58.18h2.46a14.93,14.93,0,0,1,.42-3.94A5.91,5.91,0,0,1,119.39,52a3.25,3.25,0,0,1,1.6-1.05,7.33,7.33,0,0,1,2-.26,6.56,6.56,0,0,1,1.86.24,10.4,10.4,0,0,1,1.92.84l0-.93h3.87V71.38Z"/><path class="cls-2" d="M145.1,71.38q0-.21,0-.51a4.32,4.32,0,0,1,0-.57c0-.22,0-.45-.05-.69A4.73,4.73,0,0,1,143,71.16a6.37,6.37,0,0,1-2.56.52,4.74,4.74,0,0,1-3.83-1.62,6.92,6.92,0,0,1-1.37-4.62,7.09,7.09,0,0,1,2.2-5.59,9.14,9.14,0,0,1,6.28-2c.45,0,.86,0,1.22,0s.73.06,1.1.11.74.11,1.12.19.81.19,1.28.33v8.52c0,.46,0,1,0,1.46s0,1,.09,1.39.08,1,.12,1.47Zm-.63-9.78a6.17,6.17,0,0,0-.95-.15l-.79,0a3.21,3.21,0,0,0-2.57,1.07,4.38,4.38,0,0,0-.91,2.95,2.91,2.91,0,0,0,.55,1.92,1.89,1.89,0,0,0,1.55.66,2.78,2.78,0,0,0,1.21-.27,2.92,2.92,0,0,0,1-.76,3.54,3.54,0,0,0,.67-1.17,4.29,4.29,0,0,0,.25-1.52Z"/><path class="cls-2" d="M165.47,71.8a13.88,13.88,0,0,1-.51,4.07,7,7,0,0,1-1.37,2.62,5.06,5.06,0,0,1-2.07,1.43,7.55,7.55,0,0,1-2.6.43,22.26,22.26,0,0,1-2.68-.16,9.69,9.69,0,0,1-2.53-.65v-3a16.68,16.68,0,0,0,2.3.65,9.91,9.91,0,0,0,1.93.22,3.37,3.37,0,0,0,1.44-.3,2.9,2.9,0,0,0,1.12-1,5,5,0,0,0,.72-1.74,11.49,11.49,0,0,0,.26-2.61V70.45a4.58,4.58,0,0,1-1.71,1,7,7,0,0,1-1.86.22,5.88,5.88,0,0,1-2.34-.45A5.1,5.1,0,0,1,153.78,70a5.66,5.66,0,0,1-1.14-2,8.32,8.32,0,0,1,.22-5.7,6.78,6.78,0,0,1,1.78-2.39,7.93,7.93,0,0,1,2.8-1.51,12.13,12.13,0,0,1,3.71-.53l1.12,0c.33,0,.65,0,1,.07s.65.1,1,.17.76.16,1.23.28Zm-4-10-.79-.12a6.34,6.34,0,0,0-.69,0,3.81,3.81,0,0,0-2.77,1,3.55,3.55,0,0,0-1,2.68,2.56,2.56,0,0,0,.66,1.89,2.25,2.25,0,0,0,1.65.66,4.92,4.92,0,0,0,1.09-.12,1.92,1.92,0,0,0,.94-.54,2.94,2.94,0,0,0,.66-1.21,7.31,7.31,0,0,0,.25-2.15Z"/></g></svg>