<svg xmlns="http://www.w3.org/2000/svg" viewBox="0 0 256 128"><defs><style>.cls-1{fill:#ff0;}.cls-2{fill:#323232;}</style></defs><g id="_3_Hot_air_ballons" data-name="3 Hot air ballons"><path class="cls-1" d="M57.74,65.41a5.18,5.18,0,0,1-2.14,4.4,9.74,9.74,0,0,1-5.93,1.59A13,13,0,0,1,46.13,71,9,9,0,0,1,43.4,69.7a5.8,5.8,0,0,1-1.76-1.94A5.18,5.18,0,0,1,41,65.21a5.13,5.13,0,0,1,1.14-3.43,9.45,9.45,0,0,1,3.79-2.4c-.93-.58-1.68-1.09-2.25-1.52a6.42,6.42,0,0,1-1.31-1.29,3.75,3.75,0,0,1-.62-1.33,6.81,6.81,0,0,1-.17-1.67,5.19,5.19,0,0,1,2-4.37c1.31-1,3.33-1.54,6-1.54a11.84,11.84,0,0,1,3.21.41,7.5,7.5,0,0,1,2.47,1.13A5,5,0,0,1,56.85,51a5.1,5.1,0,0,1,.55,2.36,5.24,5.24,0,0,1-1,3.22,9.69,9.69,0,0,1-3.31,2.59,8.51,8.51,0,0,1,3.55,2.57A6,6,0,0,1,57.74,65.41ZM53.21,65a2.35,2.35,0,0,0-.27-1.17,2.6,2.6,0,0,0-.8-.86,7.34,7.34,0,0,0-1.26-.71c-.48-.22-1-.44-1.64-.67a7.07,7.07,0,0,0-2.49,1.27A2.27,2.27,0,0,0,46,64.57a2.41,2.41,0,0,0,1,2.06,4.55,4.55,0,0,0,2.75.75,4.2,4.2,0,0,0,2.49-.65A2,2,0,0,0,53.21,65Zm-.64-10.79a2.18,2.18,0,0,0-.9-1.81,3.73,3.73,0,0,0-2.37-.7,3.21,3.21,0,0,0-2.1.65A2,2,0,0,0,46.38,54q0,1.78,3.26,3.18a5.1,5.1,0,0,0,2.28-1.29A2.51,2.51,0,0,0,52.57,54.19Z"/><path class="cls-2" d="M79.57,71.4q0-.21,0-.51c0-.16,0-.35-.05-.57s0-.45,0-.69a4.74,4.74,0,0,1-2,1.54,6.3,6.3,0,0,1-2.55.53,4.76,4.76,0,0,1-3.84-1.62,7,7,0,0,1-1.37-4.62,7.12,7.12,0,0,1,2.21-5.6,9.12,9.12,0,0,1,6.28-2c.45,0,.85,0,1.22,0s.73,0,1.09.1.74.12,1.13.2.81.19,1.27.33v8.52c0,.46,0,.94,0,1.45s.05,1,.09,1.4.08,1,.12,1.47Zm-.63-9.78a6.06,6.06,0,0,0-.94-.15l-.8,0a3.2,3.2,0,0,0-2.56,1.06,4.41,4.41,0,0,0-.92,3,3,3,0,0,0,.55,1.92,1.93,1.93,0,0,0,1.56.66A2.78,2.78,0,0,0,77,67.77,3.16,3.16,0,0,0,78,67a3.73,3.73,0,0,0,.67-1.17,4.47,4.47,0,0,0,.24-1.51Z"/><path class="cls-2" d="M100.42,64a10.51,10.51,0,0,1-.41,3,7.21,7.21,0,0,1-1.19,2.33A5.36,5.36,0,0,1,97,70.86a5,5,0,0,1-2.33.54,5,5,0,0,1-1.57-.21,4.87,4.87,0,0,1-1.35-.77v9.92h-4.2V62.15a7.45,7.45,0,0,0,0-.76q0-.45-.12-.93c0-.33-.11-.65-.18-1a6.43,6.43,0,0,0-.26-.9H91a3.33,3.33,0,0,1,.22.58,7.54,7.54,0,0,1,.12.83,6.45,6.45,0,0,1,1.81-1.38,4.78,4.78,0,0,1,2.07-.42,5.41,5.41,0,0,1,2.12.41A4.71,4.71,0,0,1,99,59.8a5.36,5.36,0,0,1,1.06,1.84A7.2,7.2,0,0,1,100.42,64Zm-4,.67a2.87,2.87,0,0,0-.59-1.93,2.07,2.07,0,0,0-1.65-.69,2.34,2.34,0,0,0-1.93.88,3.64,3.64,0,0,0-.72,2.37v1.74a3.19,3.19,0,0,0,2.13.8,2.55,2.55,0,0,0,2-.84A3.38,3.38,0,0,0,96.43,64.69Z"/><path class="cls-2" d="M117.61,64a10.51,10.51,0,0,1-.41,3A7.21,7.21,0,0,1,116,69.35a5.36,5.36,0,0,1-1.82,1.51,5,5,0,0,1-2.33.54,5,5,0,0,1-1.57-.21,4.87,4.87,0,0,1-1.35-.77v9.92h-4.2V62.15a7.45,7.45,0,0,0,0-.76q0-.45-.12-.93c0-.33-.11-.65-.18-1a6.43,6.43,0,0,0-.26-.9h4.07a3.33,3.33,0,0,1,.22.58,7.54,7.54,0,0,1,.12.83,6.45,6.45,0,0,1,1.81-1.38,4.78,4.78,0,0,1,2.07-.42,5.41,5.41,0,0,1,2.12.41,4.71,4.71,0,0,1,1.63,1.19,5.36,5.36,0,0,1,1.06,1.84A7.2,7.2,0,0,1,117.61,64Zm-4,.67a2.82,2.82,0,0,0-.59-1.93,2.07,2.07,0,0,0-1.65-.69,2.34,2.34,0,0,0-1.93.88,3.64,3.64,0,0,0-.72,2.37v1.74a3.21,3.21,0,0,0,2.13.8,2.55,2.55,0,0,0,2-.84A3.38,3.38,0,0,0,113.62,64.69Z"/><path class="cls-2" d="M121.75,71.4V50.49h4V71.4Z"/><path class="cls-2" d="M141.85,61.83a3.36,3.36,0,0,1-.53,1.86,4.46,4.46,0,0,1-1.5,1.42,8.34,8.34,0,0,1-2.34.92,13,13,0,0,1-3.06.33l-.36,0h-.49a2.8,2.8,0,0,0,.9,1.78,2.86,2.86,0,0,0,1.94.65,8.86,8.86,0,0,0,4.42-1.35v3.15a8.6,8.6,0,0,1-2.17.94,9.13,9.13,0,0,1-2.36.29,7.74,7.74,0,0,1-2.71-.45A5.55,5.55,0,0,1,131.53,70a5.82,5.82,0,0,1-1.29-2,7.49,7.49,0,0,1-.45-2.68,8.36,8.36,0,0,1,.53-3,7,7,0,0,1,1.47-2.35,6.46,6.46,0,0,1,2.26-1.53,7.62,7.62,0,0,1,2.91-.54A5.5,5.5,0,0,1,140.52,59,3.51,3.51,0,0,1,141.85,61.83Zm-4,.3a1,1,0,0,0-.41-.83,1.54,1.54,0,0,0-1-.34,2.4,2.4,0,0,0-1.72.7,3.44,3.44,0,0,0-.92,1.94,2.58,2.58,0,0,0,.48.06h.44C136.81,63.66,137.86,63.15,137.86,62.13Z"/><path class="cls-2" d="M155.44,71.4V61.05H152.8V58.2h2.64V54.87h3.93V58.2h3.39v2.85h-3.39V71.4Z"/><path class="cls-2" d="M174.19,61.89l-.66-.12a4.39,4.39,0,0,0-.54,0,3,3,0,0,0-2.59,1.17,5.72,5.72,0,0,0-.89,3.48v5h-4V62.73c0-.49,0-.91,0-1.28a10.1,10.1,0,0,0-.08-1,9.3,9.3,0,0,0-.16-.92c-.07-.31-.17-.65-.29-1.05h3.79c.06.25.12.46.17.63a3.49,3.49,0,0,1,.11.5c0,.15,0,.32.06.49a5.53,5.53,0,0,1,0,.63,6.83,6.83,0,0,1,1.71-1.95,3.25,3.25,0,0,1,1.9-.57,2.88,2.88,0,0,1,.71.07,5.78,5.78,0,0,1,.79.3Z"/><path class="cls-2" d="M187.48,61.83a3.44,3.44,0,0,1-.53,1.86,4.5,4.5,0,0,1-1.51,1.42,8.15,8.15,0,0,1-2.33.92,13,13,0,0,1-3.06.33l-.36,0h-.49a2.8,2.8,0,0,0,.9,1.78,2.86,2.86,0,0,0,1.94.65,8.86,8.86,0,0,0,4.42-1.35v3.15a8.6,8.6,0,0,1-2.17.94,9.13,9.13,0,0,1-2.36.29,7.74,7.74,0,0,1-2.71-.45A5.55,5.55,0,0,1,177.16,70a5.82,5.82,0,0,1-1.29-2,7.49,7.49,0,0,1-.45-2.68,8.36,8.36,0,0,1,.53-3,7,7,0,0,1,1.47-2.35,6.46,6.46,0,0,1,2.26-1.53,7.62,7.62,0,0,1,2.91-.54A5.5,5.5,0,0,1,186.15,59,3.51,3.51,0,0,1,187.48,61.83Zm-4,.3a1,1,0,0,0-.41-.83,1.54,1.54,0,0,0-1-.34,2.4,2.4,0,0,0-1.72.7,3.37,3.37,0,0,0-.92,1.94,2.58,2.58,0,0,0,.48.06h.44C182.44,63.66,183.49,63.15,183.49,62.13Z"/><path class="cls-2" d="M202.21,61.83a3.44,3.44,0,0,1-.53,1.86,4.5,4.5,0,0,1-1.51,1.42,8.15,8.15,0,0,1-2.33.92,13,13,0,0,1-3.06.33l-.36,0h-.49a2.8,2.8,0,0,0,.9,1.78,2.86,2.86,0,0,0,1.94.65,8.86,8.86,0,0,0,4.42-1.35v3.15a8.6,8.6,0,0,1-2.17.94,9.13,9.13,0,0,1-2.36.29,7.74,7.74,0,0,1-2.71-.45A5.55,5.55,0,0,1,191.89,70a5.82,5.82,0,0,1-1.29-2,7.49,7.49,0,0,1-.45-2.68,8.36,8.36,0,0,1,.53-3,7,7,0,0,1,1.47-2.35,6.46,6.46,0,0,1,2.26-1.53,7.62,7.62,0,0,1,2.91-.54A5.5,5.5,0,0,1,200.88,59,3.51,3.51,0,0,1,202.21,61.83Zm-4,.3a1,1,0,0,0-.41-.83,1.54,1.54,0,0,0-1-.34,2.4,2.4,0,0,0-1.72.7,3.37,3.37,0,0,0-.92,1.94,2.58,2.58,0,0,0,.48.06h.44C197.17,63.66,198.22,63.15,198.22,62.13Z"/><path class="cls-2" d="M215,67.74a3.77,3.77,0,0,1-1.27,3,5.25,5.25,0,0,1-3.57,1.11,15,15,0,0,1-3.05-.3,9.09,9.09,0,0,1-2.4-.81l.51-3.06A10.24,10.24,0,0,0,209.77,69a1.32,1.32,0,0,0,.95-.29.87.87,0,0,0,.28-.64,1.16,1.16,0,0,0-.22-.74,3.49,3.49,0,0,0-1.1-.7,17.82,17.82,0,0,1-2.11-1.08,7,7,0,0,1-1.44-1.13,3.79,3.79,0,0,1-.81-1.24,4.14,4.14,0,0,1-.26-1.5,3.41,3.41,0,0,1,1.45-2.93,6.39,6.39,0,0,1,3.79-1,11.7,11.7,0,0,1,2.24.19,10.3,10.3,0,0,1,2.24.77l-.48,3a7.24,7.24,0,0,0-2.06-.83,9.29,9.29,0,0,0-2-.22,1.37,1.37,0,0,0-1,.25.93.93,0,0,0-.26.68,1,1,0,0,0,.41.82,8.68,8.68,0,0,0,1.6.83,17.64,17.64,0,0,1,1.82,1,6.53,6.53,0,0,1,1.23,1,3.12,3.12,0,0,1,.68,1.11A3.87,3.87,0,0,1,215,67.74Z"/></g></svg>