<svg xmlns="http://www.w3.org/2000/svg" viewBox="0 0 256 128"><defs><style>.cls-1{fill:#ff0;}.cls-2{fill:#323232;}</style></defs><g id="_3_Hot_air_ballons" data-name="3 Hot air ballons"><path class="cls-1" d="M90.74,75.66H86.52V69.81H77.79V51.89h4.35V66h4.38V60.26h4.19V66h3v3.78h-3Z"/><path class="cls-2" d="M115.6,72a3.77,3.77,0,0,1-1.27,3,5.23,5.23,0,0,1-3.57,1.11,14.93,14.93,0,0,1-3-.3,9,9,0,0,1-2.41-.81l.51-3.06a10.24,10.24,0,0,0,4.56,1.35,1.32,1.32,0,0,0,1-.29.87.87,0,0,0,.28-.64,1.16,1.16,0,0,0-.22-.74,3.49,3.49,0,0,0-1.1-.7,17.82,17.82,0,0,1-2.11-1.08,7,7,0,0,1-1.44-1.13,3.79,3.79,0,0,1-.81-1.24,4.14,4.14,0,0,1-.26-1.5A3.41,3.41,0,0,1,107.12,63a6.41,6.41,0,0,1,3.79-1,11.7,11.7,0,0,1,2.24.19,10.3,10.3,0,0,1,2.24.77l-.48,3a7.13,7.13,0,0,0-2.06-.83,9.29,9.29,0,0,0-2-.22,1.37,1.37,0,0,0-1,.25.93.93,0,0,0-.26.68,1,1,0,0,0,.42.82,8.17,8.17,0,0,0,1.59.83,19,19,0,0,1,1.83,1,6.14,6.14,0,0,1,1.22,1,3.12,3.12,0,0,1,.68,1.11A3.87,3.87,0,0,1,115.6,72Z"/><path class="cls-2" d="M127.81,75.66V68.2a4,4,0,0,0-.13-1.16,1.61,1.61,0,0,0-.39-.67,1.19,1.19,0,0,0-.55-.3,2.67,2.67,0,0,0-.64-.07,1.85,1.85,0,0,0-1,.3,3.15,3.15,0,0,0-.84.83,4.79,4.79,0,0,0-.6,1.22,4.94,4.94,0,0,0-.23,1.49v5.82h-4V55.11h4V64a4.69,4.69,0,0,1,1.66-1.16,5.5,5.5,0,0,1,2-.34,6.68,6.68,0,0,1,1.73.23,4.46,4.46,0,0,1,1.51.75,3.84,3.84,0,0,1,1.08,1.35,4.68,4.68,0,0,1,.41,2.08v8.79Z"/><path class="cls-2" d="M148.09,66.09a3.36,3.36,0,0,1-.53,1.86,4.46,4.46,0,0,1-1.5,1.42,8.34,8.34,0,0,1-2.34.92,13,13,0,0,1-3.06.33l-.36,0h-.49a2.8,2.8,0,0,0,.9,1.78,2.86,2.86,0,0,0,1.94.65,8.86,8.86,0,0,0,4.42-1.35v3.15a8.6,8.6,0,0,1-2.17.94,9.13,9.13,0,0,1-2.36.29,7.74,7.74,0,0,1-2.71-.45,5.55,5.55,0,0,1-2.06-1.31,5.82,5.82,0,0,1-1.29-2,7.49,7.49,0,0,1-.45-2.68,8.36,8.36,0,0,1,.53-3A7,7,0,0,1,138,64.2a6.46,6.46,0,0,1,2.26-1.53,7.62,7.62,0,0,1,2.91-.54,5.5,5.5,0,0,1,3.56,1.08A3.51,3.51,0,0,1,148.09,66.09Zm-4,.3a1,1,0,0,0-.41-.83,1.54,1.54,0,0,0-1-.34,2.4,2.4,0,0,0-1.72.7,3.44,3.44,0,0,0-.92,1.94,2.58,2.58,0,0,0,.48.06h.44C143.05,67.92,144.1,67.41,144.1,66.39Z"/><path class="cls-2" d="M151.39,75.66V54.75h4V75.66Z"/><path class="cls-2" d="M160.06,75.66V54.75h4V75.66Z"/><path class="cls-2" d="M178.21,72a3.77,3.77,0,0,1-1.27,3,5.25,5.25,0,0,1-3.57,1.11,15,15,0,0,1-3.05-.3,9.09,9.09,0,0,1-2.4-.81l.51-3.06A10.24,10.24,0,0,0,173,73.29a1.32,1.32,0,0,0,.95-.29.87.87,0,0,0,.28-.64,1.16,1.16,0,0,0-.22-.74,3.49,3.49,0,0,0-1.1-.7,17.82,17.82,0,0,1-2.11-1.08,7,7,0,0,1-1.44-1.13,3.79,3.79,0,0,1-.81-1.24,4.14,4.14,0,0,1-.26-1.5A3.41,3.41,0,0,1,169.73,63a6.39,6.39,0,0,1,3.79-1,11.7,11.7,0,0,1,2.24.19A10.3,10.3,0,0,1,178,63l-.48,3a7.24,7.24,0,0,0-2.06-.83,9.29,9.29,0,0,0-2-.22,1.37,1.37,0,0,0-1,.25.93.93,0,0,0-.26.68,1,1,0,0,0,.41.82,8.68,8.68,0,0,0,1.6.83,17.64,17.64,0,0,1,1.82,1,6.53,6.53,0,0,1,1.23,1,3.12,3.12,0,0,1,.68,1.11A3.87,3.87,0,0,1,178.21,72Z"/></g></svg>