<svg xmlns="http://www.w3.org/2000/svg" width="256" height="128" viewBox="0 0 256 128">
  <defs>
    <style>
      .cls-1 {
        fill: #ff0;
      }

      .cls-2 {
        fill: #323232;
      }
    </style>
  </defs>
  <g id="_3_Hot_air_ballons" data-name="3 Hot air ballons">
    <g>
      <path class="cls-1" d="M72.87,68a8.4,8.4,0,0,1-.57,3.17,6.74,6.74,0,0,1-1.58,2.4,7,7,0,0,1-2.46,1.54,9,9,0,0,1-3.25.55,8.91,8.91,0,0,1-3.4-.62A7.3,7.3,0,0,1,59,73.26a8.19,8.19,0,0,1-1.68-2.74,9.9,9.9,0,0,1-.6-3.55,12.76,12.76,0,0,1,.72-4.18,22,22,0,0,1,1.88-4,29.73,29.73,0,0,1,2.61-3.7,33.22,33.22,0,0,1,2.92-3.15h5.74a35.49,35.49,0,0,0-4.21,4.56A36.25,36.25,0,0,0,63,61.74c.35-.21.67-.38,1-.52a7.24,7.24,0,0,1,.82-.32,4.91,4.91,0,0,1,.78-.17,8.12,8.12,0,0,1,.9,0,6.37,6.37,0,0,1,2.61.53,5.84,5.84,0,0,1,2,1.51A7.35,7.35,0,0,1,72.39,65,8.72,8.72,0,0,1,72.87,68Zm-4.52.09a3.37,3.37,0,0,0-.81-2.37,2.79,2.79,0,0,0-2.15-.87,4.44,4.44,0,0,0-3.16,1.34c-.07.33-.12.59-.14.76a5.94,5.94,0,0,0,0,.67A3.76,3.76,0,0,0,63,70.24a3.08,3.08,0,0,0,2.4,1,2.81,2.81,0,0,0,2.16-.87A3.25,3.25,0,0,0,68.35,68.07Z"/>
      <path class="cls-2" d="M100.43,68.09a8.73,8.73,0,0,1-.52,3.1,6.54,6.54,0,0,1-3.79,3.91,8.06,8.06,0,0,1-3,.54,15.29,15.29,0,0,1-3-.31,14,14,0,0,1-2.82-.85V55.07h4V64A4.58,4.58,0,0,1,93,62.83a5.87,5.87,0,0,1,2.18-.39,5.56,5.56,0,0,1,2.15.4A4.77,4.77,0,0,1,99,64a5.27,5.27,0,0,1,1.06,1.78A6.62,6.62,0,0,1,100.43,68.09Zm-4,.72a2.62,2.62,0,0,0-.6-1.83,2.16,2.16,0,0,0-1.7-.67,2.79,2.79,0,0,0-1.21.25,2.84,2.84,0,0,0-.91.66,2.78,2.78,0,0,0-.58,1,3.7,3.7,0,0,0-.19,1.15v2.28a3.61,3.61,0,0,0,1,.35,6.24,6.24,0,0,0,1.09.08,3.09,3.09,0,0,0,2.31-.85A3.26,3.26,0,0,0,96.44,68.81Z"/>
      <path class="cls-2" d="M113.42,75.64q0-.21,0-.51c0-.16,0-.35,0-.57s0-.45,0-.69a4.83,4.83,0,0,1-2,1.55,6.29,6.29,0,0,1-2.55.52A4.75,4.75,0,0,1,105,74.32a7,7,0,0,1-1.37-4.62,7.09,7.09,0,0,1,2.21-5.59,9.13,9.13,0,0,1,6.28-2c.44,0,.85,0,1.22,0s.73.06,1.09.11.74.11,1.13.19.81.19,1.27.33v8.52c0,.46,0,1,0,1.46s0,1,.09,1.39.08,1,.12,1.47Zm-.63-9.78a6.06,6.06,0,0,0-.94-.15l-.8,0a3.19,3.19,0,0,0-2.56,1.07,4.38,4.38,0,0,0-.92,3,3,3,0,0,0,.55,1.92,1.93,1.93,0,0,0,1.56.66,2.78,2.78,0,0,0,1.21-.27,3.13,3.13,0,0,0,1-.76,3.73,3.73,0,0,0,.67-1.17,4.53,4.53,0,0,0,.24-1.52Z"/>
      <path class="cls-2" d="M121.22,75.64V54.73h4V75.64Z"/>
      <path class="cls-2" d="M129.89,75.64V54.73h4V75.64Z"/>
      <path class="cls-2" d="M151.64,69a7.58,7.58,0,0,1-.49,2.84,5.73,5.73,0,0,1-1.41,2.08,6,6,0,0,1-2.18,1.28,9.26,9.26,0,0,1-5.64,0,6.08,6.08,0,0,1-2.18-1.28,5.88,5.88,0,0,1-1.42-2.08,7.38,7.38,0,0,1-.51-2.84,7.48,7.48,0,0,1,.49-2.77,5.71,5.71,0,0,1,3.57-3.35,9,9,0,0,1,2.87-.44,8.61,8.61,0,0,1,2.82.43,5.93,5.93,0,0,1,2.18,1.25,5.6,5.6,0,0,1,1.41,2.07A7.46,7.46,0,0,1,151.64,69Zm-4,0a3,3,0,0,0-.8-2.22,3,3,0,0,0-2.17-.8,2.8,2.8,0,0,0-2.14.8A3.15,3.15,0,0,0,141.8,69a3.28,3.28,0,0,0,.73,2.29,2.73,2.73,0,0,0,2.15.81,2.93,2.93,0,0,0,2.2-.79A3.2,3.2,0,0,0,147.65,69Z"/>
      <path class="cls-2" d="M168.59,69a7.58,7.58,0,0,1-.49,2.84,5.73,5.73,0,0,1-1.41,2.08,6,6,0,0,1-2.18,1.28,9.26,9.26,0,0,1-5.64,0,6.08,6.08,0,0,1-2.18-1.28,5.88,5.88,0,0,1-1.42-2.08,7.38,7.38,0,0,1-.51-2.84,7.48,7.48,0,0,1,.49-2.77,5.71,5.71,0,0,1,3.57-3.35,9,9,0,0,1,2.87-.44,8.61,8.61,0,0,1,2.82.43,5.93,5.93,0,0,1,2.18,1.25,5.6,5.6,0,0,1,1.41,2.07A7.46,7.46,0,0,1,168.59,69Zm-4,0a3,3,0,0,0-.8-2.22,3,3,0,0,0-2.17-.8,2.8,2.8,0,0,0-2.14.8,3.15,3.15,0,0,0-.74,2.22,3.28,3.28,0,0,0,.73,2.29,2.73,2.73,0,0,0,2.15.81,2.93,2.93,0,0,0,2.2-.79A3.2,3.2,0,0,0,164.6,69Z"/>
      <path class="cls-2" d="M181,75.64V68.15a3,3,0,0,0-.19-1.21,1.81,1.81,0,0,0-.47-.66,1.23,1.23,0,0,0-.57-.26c-.2,0-.37,0-.51,0a2.91,2.91,0,0,0-.63.12,2.08,2.08,0,0,0-.91.55,3.73,3.73,0,0,0-.83,1.27,5.81,5.81,0,0,0-.36,2.25v5.47h-4V66.92a15,15,0,0,0-.18-2.28,7.43,7.43,0,0,0-.48-1.84h4a5.91,5.91,0,0,1,.26.69c0,.18.1.44.16.78a6.22,6.22,0,0,1,2.06-1.38,5.92,5.92,0,0,1,2.23-.45,4.41,4.41,0,0,1,1.75.35,4.21,4.21,0,0,1,1.4,1,4.4,4.4,0,0,1,.92,1.55,5.82,5.82,0,0,1,.34,2.06v8.26Z"/>
      <path class="cls-2" d="M199.28,72A3.77,3.77,0,0,1,198,75a5.26,5.26,0,0,1-3.57,1.11,15,15,0,0,1-3.05-.3A9.09,9.09,0,0,1,189,75l.51-3.06a10.24,10.24,0,0,0,4.56,1.35A1.32,1.32,0,0,0,195,73a.9.9,0,0,0,.28-.65,1.13,1.13,0,0,0-.22-.73,3.46,3.46,0,0,0-1.1-.71,17.82,17.82,0,0,1-2.11-1.08,7,7,0,0,1-1.44-1.12,3.82,3.82,0,0,1-.81-1.25,4.14,4.14,0,0,1-.26-1.5A3.37,3.37,0,0,1,190.8,63a6.39,6.39,0,0,1,3.79-1,11.73,11.73,0,0,1,2.24.2,10.39,10.39,0,0,1,2.24.76l-.48,3a7.15,7.15,0,0,0-2.07-.82,9.18,9.18,0,0,0-2-.23,1.35,1.35,0,0,0-1,.26.9.9,0,0,0-.26.67,1,1,0,0,0,.41.83,8.82,8.82,0,0,0,1.6.82,18.67,18.67,0,0,1,1.82,1,6.53,6.53,0,0,1,1.23,1,3.27,3.27,0,0,1,.68,1.11A4.08,4.08,0,0,1,199.28,72Z"/>
    </g>
  </g>
</svg>
