<svg id="Layer_1" data-name="Layer 1" xmlns="http://www.w3.org/2000/svg" viewBox="0 0 512 512"><defs><style>.cls-1{fill:#0267ff;}</style></defs><g id="Blue"><path class="cls-1" d="M429.54,278.46H407.83V197.4A26.78,26.78,0,0,0,381,170.61h0a26.78,26.78,0,0,0-26.79,26.79v81.06H228.89l.49-201a25.85,25.85,0,0,0-26-25.91h0a25.85,25.85,0,0,0-25.74,26.08l-5.36,232.64a22.37,22.37,0,0,0,22.36,22.88h34.09v-.45H354.25v100A26.78,26.78,0,0,0,381,459.56h0a26.78,26.78,0,0,0,26.79-26.79v-100h21.71a19.9,19.9,0,0,0,19.9-19.9V298.35A19.9,19.9,0,0,0,429.54,278.46Z"/><path class="cls-1" d="M94.33,52.44h0a32,32,0,0,0-31.77,32v344a32,32,0,0,0,31.77,32h0a32,32,0,0,0,31.76-32v-344A32,32,0,0,0,94.33,52.44Z"/></g></svg>