<svg id="Layer_1" data-name="Layer 1" xmlns="http://www.w3.org/2000/svg" viewBox="0 0 512 512"><defs><style>.cls-1,.cls-2{fill:#92ff9f;}.cls-1{isolation:isolate;}</style></defs><g id="Green"><path class="cls-1" d="M429.66,270.08H416.45V197.52a35.29,35.29,0,1,0-70.58,0v72.56H237.53L238,77.62a34.35,34.35,0,0,0-34.35-34.43h-.15a34.35,34.35,0,0,0-34.2,34.51l-5.36,232.52a30.86,30.86,0,0,0,30.86,31.57h42.57v-.45H345.87v91.55a35.29,35.29,0,1,0,70.58,0V341.34h13.21A28.43,28.43,0,0,0,458.05,313V298.47A28.43,28.43,0,0,0,429.66,270.08ZM449.52,313a19.9,19.9,0,0,1-19.9,19.9H407.91V432.93a26.79,26.79,0,1,1-53.58,0V332.88H228.84v.45H194.75a22.37,22.37,0,0,1-22.36-22.88l5.36-232.64a25.85,25.85,0,0,1,25.74-26.09h0a25.86,25.86,0,0,1,26,25.92l-.49,201H354.33V197.56a26.79,26.79,0,0,1,53.58,0v81.06h21.71a19.89,19.89,0,0,1,19.9,19.89Z"/><path class="cls-2" d="M94.45,44.3A40.54,40.54,0,0,0,54,84.8V428.31a40.5,40.5,0,1,0,81,0V84.8A40.54,40.54,0,0,0,94.45,44.3Zm31.88,384.05a32,32,0,0,1-31.92,31.93h0a32,32,0,0,1-31.93-31.93V84.83A32,32,0,0,1,94.41,52.91h0a32,32,0,0,1,31.92,31.92Z"/></g></svg>