<svg id="Layer_1" data-name="Layer 1" xmlns="http://www.w3.org/2000/svg" viewBox="0 0 512 512"><defs><style>.cls-1{fill:#999;}</style></defs><g id="Gray"><path class="cls-1" d="M429.62,278.62H407.91V197.56a26.78,26.78,0,0,0-26.79-26.79h0a26.78,26.78,0,0,0-26.79,26.79v81.06H229l.49-201a25.86,25.86,0,0,0-26-25.92h0a25.85,25.85,0,0,0-25.74,26.09l-5.36,232.64a22.37,22.37,0,0,0,22.36,22.88h34.09v-.45H354.33V432.93a26.78,26.78,0,0,0,26.79,26.79h0a26.78,26.78,0,0,0,26.79-26.79V332.88h21.71a19.9,19.9,0,0,0,19.9-19.9V298.51A19.89,19.89,0,0,0,429.62,278.62Z"/><rect class="cls-1" x="62.48" y="52.91" width="63.85" height="407.37" rx="31.92"/></g></svg>