<svg id="Layer_1" data-name="Layer 1" xmlns="http://www.w3.org/2000/svg" viewBox="0 0 512 512"><defs><style>.cls-1,.cls-2{fill:#fff;}.cls-1{isolation:isolate;}</style></defs><g id="Yellow"><path class="cls-1" d="M415.63,43.44H215.3a41.42,41.42,0,0,0,0,82.83H345.8L211,406.34A43.22,43.22,0,0,0,231.16,464l1,.48a39.45,39.45,0,0,0,17.16,3.93h0A39.83,39.83,0,0,0,285,446L449,105.47A43.12,43.12,0,0,0,455.24,83,39.65,39.65,0,0,0,415.63,43.44Zm31,39.57a34.45,34.45,0,0,1-5.23,18.29L277.26,442.23a31,31,0,0,1-41.34,14.48l-1-.48a34.6,34.6,0,0,1-16.16-46.18L359.56,117.61H215.33a32.79,32.79,0,0,1-32.79-32.79h0A32.79,32.79,0,0,1,215.33,52H415.66a31,31,0,0,1,31,31Z"/><path class="cls-2" d="M97,44.05a40.54,40.54,0,0,0-40.5,40.5V428.06a40.5,40.5,0,0,0,81,0V84.55A40.54,40.54,0,0,0,97,44.05Zm32,384A32,32,0,0,1,97.05,460h0A32,32,0,0,1,65.12,428V84.52A32,32,0,0,1,97.05,52.6h0A32,32,0,0,1,129,84.52Z"/></g></svg>