<svg id="Layer_1" data-name="Layer 1" xmlns="http://www.w3.org/2000/svg" viewBox="0 0 512 512"><defs><style>.cls-1{fill:#0267ff;}</style></defs><g id="Blue"><path class="cls-1" d="M446.68,82.86a31,31,0,0,0-31-31H215.37a32.79,32.79,0,0,0-32.79,32.79h0a32.79,32.79,0,0,0,32.79,32.78H359.6L218.81,409.9A34.59,34.59,0,0,0,235,456.07l1,.48a31,31,0,0,0,41.34-14.48L441.45,101.14a34.44,34.44,0,0,0,5.23-18.28Z"/><path class="cls-1" d="M97.09,52.12h0a32,32,0,0,0-31.77,32V428.15a32,32,0,0,0,31.77,32h0a32,32,0,0,0,31.76-32V84.09A32,32,0,0,0,97.09,52.12Z"/></g></svg>