<svg id="Layer_1" data-name="Layer 1" xmlns="http://www.w3.org/2000/svg" viewBox="0 0 512 512"><defs><style>.cls-1{fill:#ff0;}</style></defs><g id="Yellow"><path class="cls-1" d="M166,43.74a40.55,40.55,0,0,0-40.5,40.5V427.76a40.5,40.5,0,0,0,81,0V84.24A40.55,40.55,0,0,0,166,43.74Zm31.92,384A32,32,0,0,1,166,459.68h0a32,32,0,0,1-31.92-31.92V84.24A32,32,0,0,1,166,52.32h0a32,32,0,0,1,31.92,31.92Z"/><path class="cls-1" d="M346,43.74a40.55,40.55,0,0,0-40.5,40.5V427.76a40.5,40.5,0,0,0,81,0V84.24A40.55,40.55,0,0,0,346,43.74Zm31.92,384A32,32,0,0,1,346,459.68h0a32,32,0,0,1-31.92-31.92V84.24A32,32,0,0,1,346,52.32h0a32,32,0,0,1,31.92,31.92Z"/></g></svg>