<svg xmlns="http://www.w3.org/2000/svg" viewBox="0 0 512 512"><defs><style>.cls-1{isolation:isolate;}.cls-2{fill:#d4d4ce;stroke:#8d8687;}.cls-13,.cls-15,.cls-18,.cls-2,.cls-20,.cls-21,.cls-23,.cls-27,.cls-36,.cls-39,.cls-40,.cls-6,.cls-9{stroke-miterlimit:10;}.cls-3{fill:#efefed;opacity:0.6;}.cls-4{opacity:0.3;}.cls-5{opacity:0.8;}.cls-18,.cls-6{fill:#e72929;}.cls-21,.cls-23,.cls-6{stroke:#000;}.cls-23,.cls-6,.cls-9{stroke-width:2px;}.cls-7{fill:#ee5756;}.cls-8{fill:#b32626;}.cls-9{fill:#c12227;stroke:#670e16;}.cls-10{fill:#e63f56;}.cls-11{fill:#f2809e;}.cls-12{fill:#003b49;}.cls-13,.cls-15{fill:#ee3938;stroke:#a31e23;}.cls-13{stroke-width:2.56px;}.cls-14{fill:#f0a61e;}.cls-15{stroke-width:1.9px;}.cls-16{fill:#f27a7c;}.cls-17{fill:#592e8a;}.cls-18{stroke:#ac1f24;stroke-width:1.98px;}.cls-19{fill:#ef4d2b;}.cls-20{fill:#8a8a86;stroke:#383535;}.cls-21,.cls-23{fill:#32332e;}.cls-22{fill:#ef4d28;}.cls-24{fill:#ef4d29;}.cls-25,.cls-35{fill:#d8eff7;}.cls-25{opacity:0.25;}.cls-26{fill:#7e54a0;}.cls-27{fill:#23a2d4;stroke:#115c68;}.cls-28{fill:#a2dbea;}.cls-29{fill:#def1f7;}.cls-30{fill:#7e4b9d;}.cls-31{fill:#d7bdd9;}.cls-32{fill:#5c2d8b;}.cls-33{fill:#7f4b9c;}.cls-34{fill:#8657a2;}.cls-35{opacity:0.37;}.cls-36{fill:#9ad9ed;stroke:#044a66;stroke-width:1.61px;}.cls-37{fill:#fff;mix-blend-mode:soft-light;}.cls-38{fill:#5c2d88;}.cls-39,.cls-40{fill:#f68e28;stroke:#c66d29;}.cls-39{stroke-width:0.82px;}.cls-40{stroke-width:0.82px;}</style></defs><g class="cls-1"><g id="Layer_1" data-name="Layer 1"><g id="_003" data-name="003"><path class="cls-2" d="M249.7,183.6a5.3,5.3,0,0,0-5.3-5.3,5.2,5.2,0,0,0-3.3,1.1,6.6,6.6,0,0,0-11.8,4.2,6.3,6.3,0,0,0,2.2,4.9,5.3,5.3,0,1,0,6.5,8,6.7,6.7,0,0,0,2.4.4,6.5,6.5,0,0,0,6.6-6.6,11.1,11.1,0,0,0-.2-1.9A5.4,5.4,0,0,0,249.7,183.6Z"/><path class="cls-3" d="M245.8,185.4a3.7,3.7,0,0,0-3.6-3.7,3.6,3.6,0,0,0-2.3.8,4.6,4.6,0,0,0-8.1,2.9,4.9,4.9,0,0,0,1.5,3.4,3.7,3.7,0,0,0-2.1,3.3,3.6,3.6,0,0,0,3.6,3.6,3.7,3.7,0,0,0,3-1.5A4.6,4.6,0,0,0,244,190a6.8,6.8,0,0,0-.2-1.4A3.6,3.6,0,0,0,245.8,185.4Z"/><path class="cls-2" d="M240.5,216.3a5.4,5.4,0,0,0-5.4-5.4,5.8,5.8,0,0,0-3.3,1.2,6.5,6.5,0,0,0-5.1-2.5,6.7,6.7,0,0,0-6.7,6.7,6.8,6.8,0,0,0,2.2,4.9,5.4,5.4,0,0,0-3.1,4.8,5.4,5.4,0,0,0,5.4,5.4,5.5,5.5,0,0,0,4.3-2.2,8.5,8.5,0,0,0,2.3.4,6.7,6.7,0,0,0,6.7-6.7,6.3,6.3,0,0,0-.3-1.9A5.1,5.1,0,0,0,240.5,216.3Z"/><path class="cls-3" d="M236.6,218a3.7,3.7,0,0,0-3.7-3.6,3.5,3.5,0,0,0-2.2.8,4.6,4.6,0,0,0-8.2,2.8,4.3,4.3,0,0,0,1.6,3.4,3.7,3.7,0,0,0,1.5,7,3.5,3.5,0,0,0,2.9-1.5,5.1,5.1,0,0,0,1.7.3,4.6,4.6,0,0,0,4.5-4.6,3,3,0,0,0-.2-1.3A3.7,3.7,0,0,0,236.6,218Z"/><g class="cls-4"><path class="cls-2" d="M236.2,247.1a5.4,5.4,0,0,0-5.4-5.3,5.2,5.2,0,0,0-3.2,1.1,6.9,6.9,0,0,0-5.2-2.5,6.7,6.7,0,0,0-6.7,6.7,7,7,0,0,0,2.2,5,5.3,5.3,0,0,0,2.3,10.1,5.3,5.3,0,0,0,4.3-2.2,5.9,5.9,0,0,0,2.3.5,6.7,6.7,0,0,0,6.7-6.7,5.8,5.8,0,0,0-.3-1.9A5.3,5.3,0,0,0,236.2,247.1Z"/><path class="cls-3" d="M232.3,248.9a3.8,3.8,0,0,0-3.7-3.7,3.5,3.5,0,0,0-2.2.8,4.8,4.8,0,0,0-3.6-1.7,4.6,4.6,0,0,0-4.5,4.6,4.5,4.5,0,0,0,1.5,3.4,3.6,3.6,0,0,0-2.2,3.3,3.8,3.8,0,0,0,3.7,3.7,3.7,3.7,0,0,0,3-1.6,4.1,4.1,0,0,0,1.6.3,4.5,4.5,0,0,0,4.5-4.5,5.3,5.3,0,0,0-.1-1.3A3.7,3.7,0,0,0,232.3,248.9Z"/></g><path class="cls-2" d="M278.8,151.7a7.8,7.8,0,0,0-3.1.7,9.8,9.8,0,0,0-18.4,3.1,9.8,9.8,0,0,0,3.2,19.1,9,9,0,0,0,5.1-1.5,7.6,7.6,0,0,0,5.4,2.2,7.9,7.9,0,0,0,7.8-7.9,7.9,7.9,0,0,0,0-15.7Z"/><path class="cls-3" d="M275.5,153.4a6.9,6.9,0,0,0-2.4.5,7.5,7.5,0,0,0-14,2.5,7.4,7.4,0,0,0-5.1,7.1,7.6,7.6,0,0,0,7.5,7.5,7.5,7.5,0,0,0,3.9-1.2,6.1,6.1,0,0,0,4.1,1.7,6,6,0,0,0,6-6,6.1,6.1,0,0,0,0-12.1Z"/><g class="cls-5"><path class="cls-2" d="M320.9,142.3a10.2,10.2,0,0,0-14.2,2.5,9.8,9.8,0,0,0-1.8,6.7,8.4,8.4,0,0,0-6.2,3.5,8,8,0,0,0,2,11.3,7.8,7.8,0,0,0,4.5,1.5,13.3,13.3,0,0,0,2.6,2.7,10.3,10.3,0,0,0,14.2-2.6l1.1-1.9a8.1,8.1,0,0,0,9.7-2.9,8.1,8.1,0,0,0-7.6-12.8A10.2,10.2,0,0,0,320.9,142.3Z"/><path class="cls-3" d="M319,144.1a7.6,7.6,0,0,0-10.6,1.9,7.2,7.2,0,0,0-1.4,5.1,5.9,5.9,0,0,0-4.6,2.6,6.1,6.1,0,0,0,4.9,9.6,6.1,6.1,0,0,0,1.9,2,7.7,7.7,0,0,0,10.7-1.9,10.9,10.9,0,0,0,.8-1.5,6.1,6.1,0,0,0,7.4-2.1,6.3,6.3,0,0,0-1.5-8.6,6,6,0,0,0-4.3-1A7.6,7.6,0,0,0,319,144.1Z"/></g><polygon class="cls-6" points="245.2 250.7 241 285.6 217.6 285.6 217 280.2 213.4 250.7 245.2 250.7"/><polygon class="cls-7" points="235.4 252.4 232.5 287.4 218 288.1 217.4 282.1 213.9 252.4 235.4 252.4"/><polygon class="cls-8" points="244.3 255 240.7 286.8 238.4 288 238 281.9 240.9 253 244.3 255"/><rect class="cls-9" x="209.4" y="247.5" width="39.7" height="7.95" rx="3.5"/><rect class="cls-10" x="209.9" y="247.6" width="38.8" height="5.4" rx="2.4"/><rect class="cls-11" x="210.2" y="247.6" width="38.1" height="3.78" rx="1.7"/><rect class="cls-12" x="188.8" y="335.7" width="35.2" height="27.26"/><rect class="cls-12" x="210.1" y="321.8" width="124.7" height="27.26"/><path class="cls-13" d="M194.9,335.9H181.7a2.5,2.5,0,0,0-2.2,1.2L156.8,369c-.1.2,0,.6.3.6h35.3a2.5,2.5,0,0,0,2.4-2.6V335.9Z"/><polygon class="cls-14" points="193.2 367.9 193.2 337.3 191.1 337.3 186.4 367.9 193.2 367.9"/><polygon class="cls-14" points="184.5 367.9 190.1 337.3 188 337.3 177 367.9 184.5 367.9"/><polygon class="cls-14" points="175.6 367.9 186.6 337.3 184.2 337.3 167.5 367.9 175.6 367.9"/><polygon class="cls-14" points="166 367.9 182.8 337.3 180.8 337.3 159.6 367.9 166 367.9"/><ellipse class="cls-15" cx="199" cy="303.8" rx="22.3" ry="20.7"/><ellipse class="cls-16" cx="202.7" cy="303.5" rx="22.3" ry="20.7"/><path class="cls-17" d="M347.3,331.2l-157.9,2.1V288.7a6.3,6.3,0,0,1,5.9-6.5l35.4-.7H347.5Z"/><circle class="cls-18" cx="211.8" cy="355.8" r="15.2"/><circle class="cls-19" cx="210.7" cy="355.6" r="14.8"/><circle class="cls-20" cx="210.9" cy="355.8" r="6.8"/><path class="cls-21" d="M208.1,355.8a2.8,2.8,0,0,0,2.8,2.7,2.7,2.7,0,1,0,0-5.4A2.8,2.8,0,0,0,208.1,355.8Z"/><path class="cls-16" d="M211,342.2s-10.1,0-12.3,8.5c0,0-.6.4.7.4s2.1-7.5,12.2-7.2C211.6,343.9,213.7,343.3,211,342.2Z"/><path class="cls-16" d="M208.9,367.9s-10-1.8-10.7-10.5c0,0-.5-.5.8-.3s.8,7.8,10.8,9.2C209.8,366.3,211.8,367.3,208.9,367.9Z"/><circle class="cls-18" cx="307.9" cy="348.5" r="22.7"/><circle class="cls-22" cx="306.4" cy="349.1" r="22.5"/><circle class="cls-20" cx="306.5" cy="348.5" r="10.2"/><path class="cls-23" d="M302.4,348.5a4.1,4.1,0,1,0,4.1-4.1A4,4,0,0,0,302.4,348.5Z"/><path class="cls-16" d="M325.3,351.1s-2.6,14.9-15.6,16c0,0-.7.7-.5-1.2s11.6-1.1,13.8-16.1C323,349.8,324.4,346.8,325.3,351.1Z"/><path class="cls-16" d="M307.3,329.3s-15.1,0-18.4,12.7c0,0-.8.5,1.1.6s3.1-11.2,18.2-10.8C308.2,331.8,311.4,331,307.3,329.3Z"/><circle class="cls-18" cx="255.8" cy="348.5" r="22.7"/><circle class="cls-24" cx="254.2" cy="349.1" r="22.5"/><circle class="cls-20" cx="254.3" cy="348.5" r="10.2"/><path class="cls-21" d="M250.3,348.5a4.1,4.1,0,0,0,8.1,0,4.1,4.1,0,1,0-8.1,0Z"/><path class="cls-16" d="M273.2,351.1s-2.6,14.9-15.7,16c0,0-.7.7-.4-1.2s11.6-1.1,13.7-16.1C270.8,349.8,272.3,346.8,273.2,351.1Z"/><path class="cls-16" d="M255.2,329.3s-15.1,0-18.4,12.7c0,0-.9.5,1.1.6s3.1-11.2,18.2-10.8C256.1,331.8,259.3,331,255.2,329.3Z"/><path class="cls-25" d="M285.7,281.4H241.2l-38.6.4-7.2,21.4s3.8-11.6,35.7-16.9A374.4,374.4,0,0,1,285.7,281.4Z"/><polygon class="cls-26" points="345.5 310.4 190.1 310.6 190.1 292.7 230.8 292.4 345.7 292.3 345.5 310.4"/><path class="cls-27" d="M352.1,220.5H276.4c-1.8,0-3.2-2.1-3.2-4.6v-3.8c0-2.5,1.4-4.6,3.2-4.6a176.8,176.8,0,0,1,75.7,0,2.9,2.9,0,0,1,2.2,1.4,5.3,5.3,0,0,1,.9,3.2v3.8C355.2,218.4,353.8,220.5,352.1,220.5Z"/><path class="cls-28" d="M351.7,215.9H276.8a3,3,0,0,1-3.1-2.9v-2.4a3,3,0,0,1,3.1-2.9,188.3,188.3,0,0,1,37.5-4,185.6,185.6,0,0,1,37.4,4,3.4,3.4,0,0,1,2.2.8,3.1,3.1,0,0,1,.9,2.1V213A3,3,0,0,1,351.7,215.9Z"/><path class="cls-29" d="M351.1,213H277.2c-1.7,0-3.1-.9-3.1-2v-1.7c0-1.1,1.4-2,3.1-2,10.8-1.4,23.2-3.6,37.1-3.6s26.2,2.1,36.8,3.6a4.1,4.1,0,0,1,2.2.6,2,2,0,0,1,.9,1.4V211C354.2,212.1,352.8,213,351.1,213Z"/><rect class="cls-30" x="283.5" y="220.9" width="63.6" height="98.14"/><path class="cls-30" d="M173.8,336.1V321.5l94,.5s3.4-9.2,14.7-9.4,70.6-.2,70.6-.2v23.2Z"/><path class="cls-31" d="M173.7,329.4v-8l94,.4s3.4-9.2,14.7-9.4,70.6-.1,70.6-.1v16.6Z"/><path class="cls-32" d="M346.4,221.4l-62.4-.2v91.3H293S300.4,249.8,346.4,221.4Z"/><path class="cls-33" d="M197.7,268.2h2a8.2,8.2,0,0,1,8.2,8.2v45a0,0,0,0,1,0,0H189.5a0,0,0,0,1,0,0v-45a8.2,8.2,0,0,1,8.2-8.2Z"/><path class="cls-34" d="M197.8,270.5h1.6a4.1,4.1,0,0,1,4.1,4.1v20.1a0,0,0,0,1,0,0h-9.7a0,0,0,0,1,0,0V274.5A4.1,4.1,0,0,1,197.8,270.5Z"/><rect class="cls-30" x="261.8" y="245" width="3.3" height="179.02" transform="translate(597 69.7) rotate(89.8)"/><path class="cls-35" d="M347.1,220.9s-41.5,18.2-54.1,91.7h4.2s8.3-35.4,49.9-73.4Z"/><path class="cls-36" d="M339.7,235.4v27.2a4.7,4.7,0,0,1-4.8,4.6H298.7a5,5,0,0,1-2.4-.6,4.7,4.7,0,0,1-2.4-4V235.4a4.7,4.7,0,0,1,4.8-4.5h36.2A4.7,4.7,0,0,1,338,232,4.1,4.1,0,0,1,339.7,235.4Z"/><polygon class="cls-37" points="294.3 244.5 294.4 257.9 339.5 248.8 339.7 235.4 294.3 244.5"/><path class="cls-38" d="M229.8,321.1h1.1a4.3,4.3,0,0,1,4.3,4.3v24.8a3.6,3.6,0,0,1-3.6,3.6H229a3.6,3.6,0,0,1-3.6-3.6V325.4A4.3,4.3,0,0,1,229.8,321.1Z" transform="translate(567.7 107.1) rotate(90)"/><path class="cls-39" d="M240.4,333.8h.6a2.3,2.3,0,0,1,2.3,2.3V353a2.2,2.2,0,0,1-2.2,2.2h-1A2.2,2.2,0,0,1,238,353V336.2a2.3,2.3,0,0,1,2.3-2.3Z" transform="translate(657.9 294.4) rotate(118.1)"/><path class="cls-40" d="M285.8,307.8h.6a2.5,2.5,0,0,1,2.5,2.5v76.3a2.1,2.1,0,0,1-2.1,2.1h-1.5a2.1,2.1,0,0,1-2.1-2.1V310.3A2.5,2.5,0,0,1,285.8,307.8Z" transform="translate(634.4 62.1) rotate(90)"/></g></g></g></svg>