<svg id="Layer_1" data-name="Layer 1" xmlns="http://www.w3.org/2000/svg" width="512" height="512" viewBox="0 0 512 512">
  <defs>
    <style>
      .cls-1 {
        fill: #92ff9f;
      }
    </style>
  </defs>
  <g>
    <path class="cls-1" d="M256,125.54c-38.1,0-69,58.41-69,130.46s30.89,130.46,69,130.46S325,328.05,325,256,294.1,125.54,256,125.54Zm0,252.92c-33.06,0-61-56.08-61-122.46s27.93-122.46,61-122.46S317,189.62,317,256,289.06,378.46,256,378.46Z"/>
    <path class="cls-1" d="M351.8,117.92C326.46,79.92,292.43,59,256,59s-70.46,20.92-95.8,58.92c-24.68,37-38.27,86-38.27,138.08s13.59,101.08,38.27,138.08c25.34,38,59.37,58.92,95.8,58.92s70.46-20.92,95.8-58.92c24.68-37,38.27-86,38.27-138.08S376.48,154.92,351.8,117.92ZM256,445c-69.63,0-126.07-84.62-126.07-189S186.37,67,256,67s126.07,84.62,126.07,189S325.63,445,256,445Z"/>
  </g>
</svg>
