<svg id="Layer_1" data-name="Layer 1" xmlns="http://www.w3.org/2000/svg" viewBox="0 0 512 512"><defs><style>.cls-1{fill:#0267ff;}</style></defs><g id="Blue"><path class="cls-1" d="M433,177.44c0-69.77-33.09-127.24-125.56-126C237.63,52.4,181.06,108,181.06,177.79A126.38,126.38,0,0,0,366.18,289.64V433.72A26.85,26.85,0,0,0,393,460.56h13.08A26.85,26.85,0,0,0,433,433.72V191.8C433.46,187.2,433,182.18,433,177.44Zm-125.56,62a61.61,61.61,0,0,1-61.62-61.61c0-34,27.59-61.16,61.62-61.62,45.1-.61,60.89,27.59,61.62,61.62C369.79,214.14,341.43,239.4,307.4,239.4Z"/><path class="cls-1" d="M110.58,52.37h0a32,32,0,0,0-31.76,32V428.4a32,32,0,0,0,31.76,32h0a32,32,0,0,0,31.77-32V84.34A32,32,0,0,0,110.58,52.37Z"/></g></svg>