<svg id="Layer_1" data-name="Layer 1" xmlns="http://www.w3.org/2000/svg" viewBox="0 0 512 512"><defs><style>.cls-1,.cls-2{fill:#ff0;}.cls-1{isolation:isolate;}</style></defs><g id="Yellow"><path class="cls-1" d="M436.13,181.93c-.06-1.57-.11-3.06-.11-4.49,0-39.51-9.91-71.25-29.47-94.34C384,56.49,349.84,43,305,43l-3.07,0a136.81,136.81,0,0,0-95.16,39.81,133,133,0,0,0-39.49,95c0,74.31,60.46,134.77,134.77,134.77a135.3,135.3,0,0,0,50.34-9.74v130.9A35.33,35.33,0,0,0,387.66,469h13.08A35.32,35.32,0,0,0,436,433.72V192.24A75.77,75.77,0,0,0,436.13,181.93Zm-8.61,9.87V433.72a26.85,26.85,0,0,1-26.85,26.84H387.59a26.85,26.85,0,0,1-26.85-26.84V289.64A126.38,126.38,0,0,1,175.62,177.79C175.62,108,232.19,52.4,302,51.46c92.47-1.26,125.56,56.21,125.56,126C427.52,182.18,428,187.2,427.52,191.8Z"/><path class="cls-1" d="M302,116.17c-34,.46-61.62,27.58-61.62,61.62A61.61,61.61,0,0,0,302,239.4c34,0,62.39-25.26,61.62-61.61C362.85,143.76,347.06,115.56,302,116.17Zm39.06,99c-10,10.19-23.82,15.8-39,15.8a53.24,53.24,0,0,1-53.18-53.19c0-29.41,23.41-52.77,53.29-53.18h1.32c33.59,0,51,18,51.75,53.37C355.52,192.51,350.61,205.37,341,215.17Z"/><path class="cls-2" d="M105.21,44.11a40.55,40.55,0,0,0-40.5,40.5V428.13a40.5,40.5,0,0,0,81,0V84.61A40.55,40.55,0,0,0,105.21,44.11Zm31.86,384a32,32,0,0,1-31.93,31.92h0a32,32,0,0,1-31.92-31.92V84.61a32,32,0,0,1,31.92-31.92h0a32,32,0,0,1,31.93,31.92Z"/></g></svg>