<svg id="Layer_1" data-name="Layer 1" xmlns="http://www.w3.org/2000/svg" viewBox="0 0 512 512"><defs><style>.cls-1{fill:#999;}</style></defs><g id="Gray"><path class="cls-1" d="M433,177.44c0-69.77-33.09-127.24-125.56-126C237.71,52.4,181.14,108,181.14,177.79A126.38,126.38,0,0,0,366.26,289.64V433.72a26.85,26.85,0,0,0,26.85,26.84h13.08A26.85,26.85,0,0,0,433,433.72V191.8C433.54,187.2,433,182.18,433,177.44Zm-125.56,62a61.61,61.61,0,0,1-61.62-61.61c0-34,27.59-61.16,61.62-61.62,45.1-.61,60.89,27.59,61.62,61.62C369.87,214.14,341.51,239.4,307.48,239.4Z"/><rect class="cls-1" x="78.74" y="52.69" width="63.85" height="407.37" rx="31.92"/></g></svg>