<svg id="Layer_1" data-name="Layer 1" xmlns="http://www.w3.org/2000/svg" viewBox="0 0 512 512"><defs><style>.cls-1{fill:#0267ff;}</style></defs><g id="Blue"><path class="cls-1" d="M313.66,201a126.79,126.79,0,0,0-32.33,4.18C306.58,140,347,111.71,354.22,102.27A26.6,26.6,0,0,0,358.28,77c-9.27-27.94-35.16-26.6-39.67-24.79S265.43,76.57,220.13,182c-30.39,70.76-34.5,115.14-33.92,136.69-.36,4-.56,8-.56,12,0,71.69,57.31,129.81,128,129.81s128-58.12,128-129.81S384.35,201,313.66,201Zm-.45,194.71c-35.86,0-64.93-28.65-64.93-64s29.07-64,64.93-64,64.92,28.65,64.92,64S349.06,395.68,313.21,395.68Z"/><path class="cls-1" d="M102.1,52.57h0a32,32,0,0,0-31.76,32V428.6a32,32,0,0,0,31.76,32h0a32,32,0,0,0,31.77-32V84.54A32,32,0,0,0,102.1,52.57Z"/></g></svg>