<svg id="Layer_1" data-name="Layer 1" xmlns="http://www.w3.org/2000/svg" viewBox="0 0 512 512"><defs><style>.cls-1,.cls-2{fill:#fff;}.cls-1{isolation:isolate;}</style></defs><g id="Yellow"><path class="cls-1" d="M314.25,267.68c-35.86,0-64.93,28.65-64.93,64s29.07,64,64.93,64,64.92-28.65,64.92-64S350.1,267.68,314.25,267.68Zm.08,119.59c-31.16,0-56.51-24.94-56.51-55.59s25.35-55.59,56.51-55.59,56.5,24.94,56.5,55.59S345.49,387.27,314.33,387.27Z"/><path class="cls-1" d="M314.78,192.56a135.88,135.88,0,0,0-18.38,1.25c19.1-41.37,44.13-65.25,56.81-77.36a92.34,92.34,0,0,0,8.83-9.08,34.89,34.89,0,0,0,5.35-33C357.73,45.26,333.23,43,326,43a27.42,27.42,0,0,0-9.34,1.42c-5.61,2.25-56.19,25.1-103.09,134.3-31.18,72.6-35.11,118.55-34.62,139.75-.36,4.13-.54,8.27-.54,12.31C178.36,407,239.56,469,314.78,469S451.2,407,451.2,330.78,390,192.56,314.78,192.56Zm-.08,268c-70.7,0-128-58.12-128-129.81,0-4.06.2-8.08.56-12-.58-21.55,3.53-65.93,33.92-136.69,45.3-105.47,94-128,98.48-129.8s30.4-3.15,39.67,24.79a26.6,26.6,0,0,1-4.06,25.24c-7.2,9.44-47.64,37.76-72.88,102.88A126.65,126.65,0,0,1,314.7,201c70.69,0,128,58.12,128,129.81S385.39,460.59,314.7,460.59Z"/><path class="cls-2" d="M103.22,44.31a40.55,40.55,0,0,0-40.5,40.5V428.33a40.5,40.5,0,0,0,81,0V84.81A40.54,40.54,0,0,0,103.22,44.31Zm31.85,384a32,32,0,0,1-31.93,31.92h0a32,32,0,0,1-31.92-31.92V84.81a32,32,0,0,1,31.92-31.92h0a32,32,0,0,1,31.93,31.92Z"/></g></svg>