<svg id="Layer_1" data-name="Layer 1" xmlns="http://www.w3.org/2000/svg" width="352.42" height="259.86" viewBox="0 0 352.42 259.86">
  <defs>
    <style>
      .cls-1 {
        fill: #ff0;
      }
    </style>
  </defs>
  <path class="cls-1" d="M352.35,115.36c-.45-3.74-3.37-6.42-7.17-8a9.88,9.88,0,0,0-.53-4.23,11.7,11.7,0,0,0-7-6.7,10.06,10.06,0,0,0-.65-4.13c-.66-1.7-2.62-5.18-7.91-6.6a10.86,10.86,0,0,0-1.23-4.29c-2.09-3.94-6.53-6.38-11.6-6.38A15.75,15.75,0,0,0,305.79,79c-2.38,2.09-7.52,7-14,13.1-7.82,7.37-17.76,16.76-25.57,23.84a23,23,0,0,0-1.07-10.88,15.09,15.09,0,0,0-1.37-2.69c7.78-9.68,11.49-22.12,8.41-30a11.9,11.9,0,0,0-6.5-6.83c3.29-11.57,4.46-27.13-1-35.66A13.47,13.47,0,0,0,253,23.31c-.58,0-1.18,0-1.78.09a15.7,15.7,0,0,0-3.89-8.55,10.7,10.7,0,0,0-7.89-3.3c-14.47,0-36.53,29-48.92,47.22C189.39,53.56,187.4,48.49,184,45a12.54,12.54,0,0,0-9.13-4.09,23,23,0,0,0-6-12,19.25,19.25,0,0,0-14.06-5.64,26.11,26.11,0,0,0-7.9,1.29c-4.62-9-12-12.36-18-12.36a16.37,16.37,0,0,0-8.5,2.34C114.83,6.88,105.6,0,97.94,0c-5.8,0-10.31,3.66-12.07,9.79-2,7.12.92,19.76,6.34,41.49,2.24,9,4.56,18.3,6.36,27.26.37,1.82.72,3.62,1,5.38l0,.23c.31,1.77.59,3.49.83,5.1l0,.3c.25,1.65.45,3.27.62,4.78l0,.34c.08.75.15,1.49.21,2.25s.12,1.47.16,2.19l0,.33c0,.62.06,1.24.08,1.85v.24c0,.66,0,1.3,0,1.93,0,0,0,.71,0,.9l-.74-.17a88.75,88.75,0,0,0-21-2.62c-27.43,0-49.94,14.64-60.48,39.25C3.1,144.48,1.83,146.8.8,148.66a6.34,6.34,0,0,0-.43,5.23c1.4,3.9,11.88,11,18,14.26,2.9,11.75,6.68,23.1,25.07,36.74.77.57,1.57,1.15,2.38,1.72l.17.12c.8.56,1.63,1.13,2.52,1.73l.19.13c.84.56,1.71,1.13,2.62,1.71l.27.17c.89.57,1.81,1.14,2.77,1.72l.29.18c1,.58,1.93,1.16,2.94,1.76l.28.16q1.55.9,3.15,1.8l.21.12c1.13.64,2.29,1.28,3.49,1.93C79.35,226,113,244.22,150,245.32l-.36.46a5.36,5.36,0,0,0-.38.55l-.38.62a6.82,6.82,0,0,0,2.24,9.42,6.82,6.82,0,0,0,5.57.71,6.87,6.87,0,0,0,1.45,1.45,6.78,6.78,0,0,0,4,1.33,6.89,6.89,0,0,0,5.39-2.59l.14-.19c.56-.7,1.22-1.43,2-2.18a26.2,26.2,0,0,1,2.25-2,12.1,12.1,0,0,1,2.45-1.54l.08,0,.24.11a8.49,8.49,0,0,1,.82.38l.24.12.34.21.4.25a8.75,8.75,0,0,1,1.32,1.06l.12.11a6.28,6.28,0,0,1,.43.49l.13.15.06.09.11.17a6.81,6.81,0,0,0,12-6.36l-.05-.11c-.23-.45-.45-.83-.69-1.22s-.44-.67-.69-1l-.11-.16-.33-.42c.39-.36.76-.67,1.11-.95a10.92,10.92,0,0,1,1.57-1c.19.08.36.17.51.25l.23.12.3.18.22.14a6.73,6.73,0,0,1,1,.82l.08.07a3.94,3.94,0,0,1,.32.36l.13.15.06.11a6.7,6.7,0,0,0,5.8,3.35h0a6.69,6.69,0,0,0,6-9.66c-.18-.35-.4-.78-.67-1.2s-.45-.69-.67-1a18.57,18.57,0,0,0-1.33-1.62c-.29-.31-.58-.61-.88-.9l1.2-1.33,1.16-.6c1-.5,2-1,2.9-1.51l1.24-.68.51-.28c.85-.47,1.69-.94,2.52-1.42.53-.3,1-.61,1.57-.92l.22-.14c.78-.46,1.56-.92,2.32-1.4l1.78-1.11,2.18-1.42,1.73-1.16c.7-.48,1.38-1,2.08-1.46s1.11-.79,1.66-1.19,1.33-1,2-1.49l.32-.24c.43-.32.85-.65,1.27-1,.6-.47,1.18-1,1.77-1.43l.63-.52,1-.83,1.92-1.68.55-.48.78-.69c1-.92,2-1.87,3-2.84l.84-.84.66-.67c.48-.49,1-1,1.43-1.46l1-1.09.46-.51c.44-.48.88-1,1.31-1.45s.77-.89,1.16-1.35l.13-.15c.45-.53.9-1.07,1.33-1.6s.84-1,1.25-1.57l1.23-1.6,1.18-1.62c.39-.53.76-1.07,1.14-1.61s.75-1.1,1.11-1.65l1.06-1.64.08-.14c.33-.51.65-1,1-1.54s.58-1,.86-1.47l.31-.54c.27-.46.53-.91.78-1.37s.47-.89.7-1.33l.43-.82c.23-.43.45-.86.66-1.28s.45-.93.67-1.4l.22-.47c.5-1.06,1-2.15,1.45-3.24l.19-.46.54-1.27c.19-.47.37-.95.55-1.44l.29-.77c.17-.45.34-.9.5-1.35s.38-1.12.56-1.67l.13-.37.51-1.57c.2-.65.38-1.29.57-1.94l.48-1.71c.17-.66.34-1.31.5-2s.27-1.14.4-1.72.3-1.33.44-2l.33-1.71.3-1.66c11.67-9.51,51.91-22.33,70.88-27C348.4,125.15,353,121,352.35,115.36Zm-90.26,36.2v0s0,.08,0,.13c-.08.53-.15,1.06-.24,1.58s-.22,1.29-.34,1.93-.2,1.07-.31,1.6-.27,1.26-.41,1.88-.25,1.08-.38,1.61-.3,1.24-.47,1.85-.29,1.07-.45,1.6-.35,1.22-.53,1.82-.35,1.06-.52,1.6-.4,1.19-.61,1.78-.39,1.06-.59,1.59-.43,1.17-.66,1.75-.46,1.08-.69,1.62c-.43,1-.88,2-1.35,3-.27.58-.54,1.17-.83,1.75s-.56,1.07-.84,1.61-.55,1.07-.84,1.6-.61,1.07-.91,1.6-.6,1-.91,1.57-.66,1.05-1,1.57-.65,1-1,1.54l-1.05,1.55c-.35.51-.71,1-1.07,1.52L245,192.73l-1.16,1.51c-.39.49-.77,1-1.17,1.47s-.84,1-1.26,1.51-.8.95-1.22,1.42-.92,1-1.38,1.53-.82.9-1.24,1.34-1.07,1.1-1.61,1.65l-1.17,1.17c-.92.91-1.87,1.8-2.85,2.69-.36.33-.75.66-1.12,1-.65.57-1.3,1.15-2,1.72-.45.38-.93.76-1.39,1.14s-1.23,1-1.86,1.5-1,.78-1.51,1.17l-1.9,1.42-1.6,1.15q-1,.7-2,1.38l-1.66,1.12c-.69.46-1.38.91-2.09,1.36l-1.7,1.07-2.23,1.35c-.57.34-1.14.68-1.73,1-.79.46-1.61.91-2.42,1.37-.56.3-1.12.62-1.69.92-.91.5-1.86,1-2.8,1.46l-1.47.76-.63.32-6.66,7.33c.34.15.69.28,1,.45a12.88,12.88,0,0,1,1.26.69,11.69,11.69,0,0,1,1.19.79,14.84,14.84,0,0,1,2.14,1.9,12.45,12.45,0,0,1,.92,1.12c.14.19.28.39.41.6a7,7,0,0,1,.37.68.67.67,0,0,1-.27.9.7.7,0,0,1-1-.25l0-.06-.31-.49c-.12-.17-.25-.33-.38-.49a9.58,9.58,0,0,0-.86-.94,13.22,13.22,0,0,0-2-1.59c-.37-.22-.72-.46-1.11-.65a12.12,12.12,0,0,0-1.15-.55c-.39-.18-.8-.3-1.2-.46l-.48-.14h-.44l-1,0a13.64,13.64,0,0,0-4.4,2.42,28.37,28.37,0,0,0-4.55,4.57l0,0a.75.75,0,0,1-1.2-.91,31.29,31.29,0,0,1,2.19-2.64,28,28,0,0,1,2.49-2.38l.82-.66c-1.09.15-2.17.33-3.24.57-.5.11-1,.24-1.48.37l-4.53,5a9.89,9.89,0,0,1,1.19.55,16.12,16.12,0,0,1,1.48.79c.49.28.94.61,1.4.93a17.71,17.71,0,0,1,2.51,2.23c.38.41.73.86,1.07,1.3.17.24.33.46.48.71a7.18,7.18,0,0,1,.44.79.81.81,0,0,1-1.43.77l0-.07c-.1-.14-.24-.38-.37-.57s-.3-.39-.45-.59a10.35,10.35,0,0,0-1-1.09,15,15,0,0,0-2.33-1.87c-.43-.25-.84-.53-1.29-.75s-.9-.45-1.36-.65-.94-.35-1.4-.54l-.57-.16h-.51l-1.15.05a16.17,16.17,0,0,0-5.16,2.83,33.84,33.84,0,0,0-5.34,5.36v0a.89.89,0,0,1-1.22.17.9.9,0,0,1-.19-1.24,36.75,36.75,0,0,1,2.57-3.1,33.33,33.33,0,0,1,2.91-2.78c.31-.26.63-.52,1-.77-1.28.17-2.55.38-3.79.66a25.89,25.89,0,0,0-4.92,1.56,11.83,11.83,0,0,0-2.17,1.22l-.47.37-.43.41-.38.43-.33.48-.06.09a.83.83,0,0,1-1.39-.9l.4-.67.47-.6.52-.55.56-.48a12.38,12.38,0,0,1,1.19-.86c.4-.24.82-.48,1.24-.7a28.5,28.5,0,0,1,5.23-1.95,53.14,53.14,0,0,1,5.38-1.15c.9-.15,1.81-.28,2.72-.38.72-.1,1.43-.17,2.16-.23l.38-.42a.69.69,0,0,1-.15-.9l.34-.57.4-.51.45-.47.47-.42a11.76,11.76,0,0,1,1-.72c.34-.22.7-.42,1.06-.61l.38-.18,1.54-1.68c-45.19,11.83-89.67-11-112.14-23.21-1.17-.63-2.31-1.26-3.41-1.88l-.19-.1c-1.06-.6-2.09-1.19-3.09-1.78l-.27-.15c-1-.58-1.93-1.14-2.85-1.71l-.3-.17-2.66-1.66-.27-.18c-.86-.55-1.7-1.09-2.51-1.63l-.21-.15c-.82-.55-1.62-1.09-2.39-1.63l-.14-.1c-.79-.56-1.55-1.1-2.28-1.65L47,200c-18-13.38-20.47-23.83-23.42-36.09-4.67-1.47-17-10.52-17.54-12.08-.63-1.75,14.89-5.21,14.89-5.21a2.6,2.6,0,0,1,2.21.5c.72-1.58,1.37-2.74,1.37-2.74,11.25-27.77,39.09-43.12,75-34.39l7.39,1.8v0c.11-.55.21-1.11.29-1.68,0-.14,0-.29.07-.44.06-.49.12-1,.17-1.52,0-.1,0-.2,0-.31,0-.61.09-1.25.13-1.89,0-.13,0-.27,0-.4,0-.56,0-1.14,0-1.72v-.36c0-.69,0-1.39,0-2.11a2.44,2.44,0,0,1,0-.27c0-.66,0-1.32-.09-2,0-.12,0-.24,0-.37,0-.76-.1-1.54-.17-2.33v0c-.07-.77-.14-1.55-.23-2.35l0-.34c-.18-1.63-.4-3.3-.65-5,0-.1,0-.2,0-.3q-.39-2.59-.86-5.28a1.55,1.55,0,0,1,0-.21c-.33-1.82-.68-3.67-1.05-5.53-5.39-26.74-15.4-56.94-12.82-65.92,4-14.12,24.17,2.47,27.59,13.28C123.47,15,138.61,15,143.7,32.6c10.53-6.4,26.14-4.89,25.9,16.41C180,41.14,186.7,56.59,186,76.84l.41-.7C205.33,44.4,247-7.52,245.67,31.5,267.23,20.09,264.23,56.13,257.32,71c15-4.08,12,18.83-2.32,32,7.2,1.57,7.29,15.52-.19,26.12A73.81,73.81,0,0,0,262.7,127c12.5-10.63,40.77-38,47.06-43.53s17.62-1.06,11.64,7.75c11.18-1.17,12.54,5.44,7.28,10.21,7.51-1.24,15.06,3.82,7.26,10.36,8.31-.38,18.1,5.76,1.18,9.94S273.41,140.18,262.09,151.56Z"/>
</svg>
