<svg id="Layer_1" data-name="Layer 1" xmlns="http://www.w3.org/2000/svg" width="156.71" height="190.85" viewBox="0 0 156.71 190.85">
  <defs>
    <style>
      .cls-1 {
        fill: #ff0;
      }
    </style>
  </defs>
  <g>
    <path class="cls-1" d="M47.61,182.93a183.29,183.29,0,0,1-29.82-6.33q-5.1-1.56-10-3.46c.09-.67.17-1.36.25-2,.05-.44.09-.89.14-1.34,0-.26.06-.51.08-.78l.15-1.58c0-.2,0-.4.05-.6.05-.55.09-1.11.14-1.67,0-.19,0-.38,0-.58l.12-1.72c0-.19,0-.38,0-.57,0-.61.07-1.22.1-1.84l0-.49L9,158c0-.16,0-.31,0-.47,0-.64.05-1.29.08-1.93,0-.16,0-.32,0-.48,0-.65,0-1.3.06-2,0-.16,0-.32,0-.48,0-.65,0-1.31,0-2,0-.17,0-.33,0-.5,0-.66,0-1.32,0-2,0-.17,0-.33,0-.5,0-.65,0-1.31,0-2v-2.47c0-.18,0-.35,0-.53,0-.64,0-1.28,0-1.92v-.56q0-1,0-1.89c0-.19,0-.38,0-.57,0-.63,0-1.25,0-1.87,0-.19,0-.39,0-.58,0-.61,0-1.21,0-1.81,0-.21,0-.41,0-.62,0-.58-.05-1.17-.07-1.75l0-.64c0-.57,0-1.13-.08-1.69l0-.67-.09-1.62c0-.23,0-.46,0-.69,0-.52-.06-1-.1-1.56,0-.23,0-.46,0-.7,0-.5-.07-1-.11-1.49,0-.24,0-.47-.05-.71,0-.48-.07-.95-.11-1.42l-.06-.72L8.12,118c0-.24,0-.48-.07-.72,0-.43-.08-.85-.13-1.27,0-.24,0-.48-.07-.72,0-.4-.09-.8-.13-1.19l-.09-.71c0-.38-.09-.75-.13-1.11l-.09-.7-.15-1c0-.23-.06-.46-.1-.69s-.09-.63-.14-.94-.07-.44-.11-.66-.1-.59-.15-.87-.07-.42-.11-.62-.1-.54-.16-.79l-.12-.58q-.08-.37-.15-.72c-.08-.31-.15-.62-.22-.9H6l.24-.27.81-.89c.64-.71,1.28-1.42,1.92-2.15.23-.24.45-.5.67-.75.66-.73,1.31-1.47,2-2.22l.66-.76c.67-.75,1.33-1.52,2-2.29l.69-.79,2-2.32.69-.81,2-2.37.66-.78,2.05-2.44.71-.85,2-2.4.77-1c.65-.78,1.3-1.57,1.94-2.36l.77-.94c.65-.8,1.3-1.59,1.94-2.39l.78-1c.64-.79,1.28-1.58,1.91-2.38l.86-1.08,1.81-2.27,1-1.28c.55-.69,1.1-1.39,1.64-2.09l1.13-1.45,1.49-1.92L42.33,60l1.37-1.79,1.48-2,1-1.39,1.84-2.46.65-.86q2.46-3.31,4.8-6.56h0c.78-1.07,1.54-2.14,2.29-3.2.09-.12.18-.24.26-.37.66-.93,1.32-1.85,2-2.76.19-.27.37-.54.56-.8l1.58-2.28c.21-.3.4-.59.6-.89.49-.71,1-1.42,1.44-2.12l.69-1,1.26-1.88.73-1.14c.38-.57.75-1.14,1.11-1.7l.75-1.17,1-1.56.74-1.21c.3-.48.6-1,.88-1.43l.73-1.22L70.86,19c.25-.42.47-.83.71-1.24l.66-1.17c.24-.41.45-.81.67-1.22l.58-1.05.62-1.2c.16-.31.33-.63.48-.94s.26-.54.39-.82a2.82,2.82,0,1,1,3.14-.41c9.93,16.84,33.5,59.51,70.15,92.85,0,0,0,.08,0,.24h0c0,.27-.05.78-.09,1.48h0c-.08,1.48-.2,3.84-.33,6.81v.24c0,.53,0,1.07-.07,1.63v.35c0,.56-.05,1.14-.07,1.73,0,.11,0,.22,0,.32,0,.6,0,1.2-.07,1.82v.22c0,.62,0,1.26-.06,1.9v.42l-.06,2c0,.15,0,.3,0,.45,0,.68,0,1.36-.05,2.06,0,.14,0,.29,0,.44,0,.72,0,1.45,0,2.19v.26c0,.77,0,1.54,0,2.32v.11c0,.79,0,1.58,0,2.37v.36c0,.78,0,1.56,0,2.35v3c0,.83,0,1.67,0,2.5v.07c0,.87,0,1.74,0,2.61v0c0,.84,0,1.68.05,2.51v.21c0,.81,0,1.6.07,2.4a2.62,2.62,0,0,0,0,.28c0,.79,0,1.58.09,2.36V152c.07,1.64.16,3.24.27,4.79v.06c.05.74.11,1.47.17,2.19a1.64,1.64,0,0,0,0,.22c.06.7.12,1.37.19,2l0,.24c.07.66.14,1.31.22,1.94,0,0,0,.08,0,.12l5.93-.87c-.07-.59-.14-1.2-.21-1.84l0-.21c-.07-.63-.13-1.28-.19-1.92v-.23c-.06-.69-.12-1.39-.17-2.1v-.08c-.11-1.49-.2-3-.27-4.59v-.21l-.09-2.28V149c0-.78-.07-2.56-.07-2.56,0-.82-.05-2.45-.05-2.48,0-.85,0-1.71,0-2.64s0-1.64,0-2.47v-2.59s0-1.93,0-2.7c0,0,0-1.92,0-2.69,0,0,0-1.65,0-2.42l0-2.43.06-2.47.07-2.39.14-4.33.17-4.23c.13-2.94.25-5.27.33-6.74,0-.68.1-1.76.1-1.76a6,6,0,0,0-1.95-4.73C119,69,96.45,30.43,85.64,11.89l-.76-1.3a8.71,8.71,0,0,0,.18-1.77,8.82,8.82,0,1,0-17.1,3l-.33.6L67,13.63l-1.32,2.3-1.45,2.43-1.58,2.57L61,23.6l-1.8,2.78L58.06,28l-.82,1.24c-.45.66-.9,1.33-1.36,2l-.65,1c-.51.74-1,1.49-1.56,2.25l-.55.79L51.19,38l-.26.36c-.73,1-1.48,2.07-2.23,3.11a.21.21,0,0,0,0,.06q-2.31,3.2-4.76,6.5l-.35.45s-1.5,2-2.12,2.84l-2.5,3.3-2.55,3.32-2.6,3.35-2.62,3.34-2.64,3.33c-.63.79-1.27,1.57-1.91,2.36l-.76,1-2.69,3.3c-.64.79-2.7,3.28-2.7,3.28l-2,2.39-.71.84c-.67.81-1.35,1.61-2,2.41l-2.66,3.13L9.74,90.5l-2,2.27-.65.74L4.5,96.46l-3,3.29a6,6,0,0,0-1.35,5.51c.06.23.12.48.18.76s.09.4.14.61l.1.51.14.71.11.58.13.79.1.62.14.89.23,1.63.22,1.73.2,1.81.2,1.93.18,2,.17,2.08s.12,1.66.15,2.15l.14,2.21.13,2.25L3,130.85s.07,1.77.09,2.36l.08,2.37.06,2.4s0,1.8,0,2.43c0,0,0,1.8,0,2.42,0,0,0,1.8,0,2.45,0,0,0,1.79,0,2.41,0,0,0,1.8,0,2.44,0,0,0,1.77-.05,2.41,0,0,0,1.75-.07,2.37,0,0-.06,1.75-.09,2.37,0,0-.08,1.71-.11,2.32,0,0-.09,1.69-.13,2.27l0,.56c0,.56-.07,1.12-.11,1.67l-.05.57c0,.54-.08,1.08-.12,1.6l-.07.73c0,.47-.08.93-.13,1.39,0,0-.17,1.67-.21,2-.08.66-.16,1.32-.24,2a6,6,0,0,0,3.79,6.37C9,180,12.46,181.25,16,182.34a189.94,189.94,0,0,0,30.79,6.54c4.63.6,9.41,1.07,14.2,1.4,2.15.14,4.36.26,6.58.35l.25-6c-2.13-.09-4.27-.2-6.42-.35C56.85,184,52.23,183.53,47.61,182.93Z"/>
    <path class="cls-1" d="M155.9,170l0-.09c-.09-.26-.18-.54-.27-.85l0-.15c-.1-.34-.19-.71-.3-1.16l0-.1c-.1-.43-.19-.87-.28-1.35l0-.1c-.19-1-.36-2.11-.52-3.33l-5.95.72v.06c.16,1.3.35,2.52.56,3.65l0,.14c.1.53.21,1,.32,1.53a1.74,1.74,0,0,0,.05.22c.11.47.22.92.34,1.35l.06.2c.13.43.25.83.39,1.2a.78.78,0,0,0,.05.14c.14.38.29.75.44,1.08a57.12,57.12,0,0,1-9.49,3.64,185.19,185.19,0,0,1-29.75,6q-4.26.54-8.77.95l-.48.05-2.51.21-.8.06v.07l-3.32.17h-.23l-1.75.11-1.51.08-1.62.09-1.52.06-1.69.07h-.65c-1.91.06-3.84.11-5.78.13H80.5c-2,0-4,0-6.06,0h-.21c-2.07,0-4.16-.09-6.26-.18h-.11l-.13,6q3.12.12,6.48.18h.14l3.81,0H80.9c2,0,3.95-.07,6-.13h.25l3.61-.14,3.21-.17,1.43-.09,3.85-.2a6.43,6.43,0,0,0,1-.14l2.52-.22.51,0c3-.28,6-.61,9-1A195.31,195.31,0,0,0,143,182.53a63.52,63.52,0,0,0,10.51-4.07,6,6,0,0,0,2.66-7.88A5.76,5.76,0,0,1,155.9,170Z"/>
  </g>
</svg>
