<svg id="Layer_1" data-name="Layer 1" xmlns="http://www.w3.org/2000/svg" width="111.8" height="135.34" viewBox="0 0 111.8 135.34">
  <defs>
    <style>
      .cls-1 {
        fill: #ff0;
      }
    </style>
  </defs>
  <path class="cls-1" d="M108.57,126.59a6,6,0,0,0,2.66-7.87c0-.09-.07-.18-.12-.32s-.11-.31-.16-.48l0-.09c-.06-.21-.12-.43-.17-.67l0-.1c-.06-.27-.12-.55-.19-.93-.12-.66-.23-1.39-.34-2.23v-.07c0-.39-.1-.8-.14-1.21,0,0,0-.15,0-.16,0-.42-.09-.86-.12-1.3l0-.15c0-.47-.07-.94-.11-1.46q-.11-1.51-.18-3.15s0-1.17-.07-1.66l-.06-2c0-1.14,0-2.29,0-3.5,0-.55,0-1.11,0-1.65V94l0-1.85,0-1.63.08-3.39.1-3.23-6-.2h0c0,.43,0,.87,0,1.31a2.44,2.44,0,0,1,0,.27c0,.44,0,.9,0,1.36,0,.11,0,.22,0,.33l0,1.4c0,.11,0,.22,0,.33l0,1.49v.21l0,1.55V92c0,.54,0,1.08,0,1.62v.25c0,.54,0,1.08,0,1.62v.24q0,.83,0,1.65v.21c0,.57,0,1.14,0,1.71v0q0,1.78.06,3.54v.15c0,.56,0,1.11,0,1.65a1.34,1.34,0,0,0,0,.2c0,.54,0,1.08.06,1.61a.76.76,0,0,0,0,.15c0,1.13.11,2.23.18,3.29v0c0,.51.07,1,.12,1.51v.16c0,.48.09.94.13,1.4l0,.17c0,.46.1.9.16,1.33v.13q.18,1.35.39,2.52l0,.09c.07.37.14.72.22,1.06a.83.83,0,0,0,0,.15c.07.33.15.64.23.93a1,1,0,0,1,0,.14c.09.29.18.57.27.83a.36.36,0,0,0,0,.09c.09.27.2.52.3.75a39.79,39.79,0,0,1-6.54,2.51,128.41,128.41,0,0,1-20.52,4.13c-1.3.16-2.63.32-4,.46l-.65.06c-1.14.11-2.28.22-3.45.31l-.57,0v0l-2.66.14-1,.07-1.83.08c-.84,0-1.68.09-2.54.12h-.21l-1.07,0h-1c-.69,0-1.37,0-2.07,0H53.25l-2.52-.07c-.66,0-1.31,0-2-.06-1.51-.06-3-.14-4.54-.24-3.16-.22-6.35-.53-9.54-.94a127.22,127.22,0,0,1-20.56-4.36q-3.51-1.08-6.92-2.39c.06-.47.11-.94.17-1.42,0-.32.07-.66.1-1,0-.16,0-.31,0-.46,0-.36.07-.72.1-1.08,0-.15,0-.29,0-.43l.09-1.17,0-.38.09-1.25c0-.11,0-.22,0-.33,0-.41,0-.84.07-1.26,0-.12,0-.23,0-.35,0-.42,0-.84.06-1.26,0-.13,0-.26,0-.39,0-.43,0-.87,0-1.31,0-.12,0-.23,0-.34,0-.46,0-.92,0-1.37,0-.11,0-.21,0-.31l0-1.34c0-.12,0-.24,0-.37,0-.44,0-.88,0-1.33v-.37c0-.45,0-.9,0-1.34v-.37c0-.45,0-.9,0-1.36v-.34c0-.45,0-.9,0-1.34v-.37l0-1.31v-.4c0-.43,0-.86,0-1.29,0-.13,0-.26,0-.39,0-.42,0-.84,0-1.26,0-.14,0-.27,0-.41,0-.41,0-.82,0-1.23,0-.14,0-.28,0-.42,0-.39,0-.79,0-1.18,0-.15,0-.3,0-.45L7.9,89.18l0-.48c0-.36,0-.71-.07-1.07l0-.48c0-.35,0-.69-.07-1,0-.17,0-.33,0-.49,0-.33,0-.65-.08-1,0-.16,0-.33,0-.5s0-.62-.08-.93c0-.16,0-.32,0-.49s0-.59-.08-.88l-.06-.49-.09-.82c0-.16,0-.33,0-.49s-.07-.52-.1-.77L7,78.8c0-.24-.07-.48-.1-.71s0-.32-.07-.47-.06-.44-.1-.66,0-.3-.07-.45-.07-.4-.1-.6-.06-.29-.08-.43-.07-.37-.11-.54,0-.27-.08-.41-.07-.33-.11-.49L6,73.42H6l.17-.18c.18-.21.36-.41.55-.61l1.33-1.49.45-.51,1.37-1.54.44-.51,1.4-1.6c.15-.16.29-.33.44-.5l1.41-1.64.45-.53,1.42-1.67.43-.5,1.43-1.71.5-.6,1.38-1.65.5-.61L21,55.9l.51-.62,1.35-1.67.56-.69,1.3-1.62.58-.73c.42-.53.85-1.06,1.26-1.59l.63-.8c.4-.51.8-1,1.19-1.52.25-.32.5-.63.74-.95l1.07-1.37.78-1L32,42l.87-1.15.87-1.15,1.19-1.59c.17-.23.35-.46.52-.7,1.13-1.52,2.24-3,3.31-4.52l.07-.09,1.52-2.12.26-.37,1.27-1.8.33-.48c.39-.55.77-1.1,1.14-1.64l.39-.58c.35-.5.69-1,1-1.49l.45-.68.89-1.34.48-.73.79-1.22c.18-.27.34-.54.52-.81s.46-.72.68-1.07l.52-.85.6-1,.5-.85c.18-.29.36-.6.53-.89s.32-.56.49-.84l.46-.81.46-.84c.13-.25.27-.49.4-.73s.28-.55.42-.83.23-.44.34-.65l.27-.56a1.94,1.94,0,1,1,2.16-.28c6.85,11.61,23.11,41,48.38,64,0,0,0,.06,0,.17h0q0,.28-.06,1h0c-.05,1-.14,2.67-.23,4.73v.1c0,.37,0,.76,0,1.16v.23c0,.39,0,.78,0,1.19v.25c0,.4,0,.8,0,1.22a1.09,1.09,0,0,1,0,.18l6,0,0-1.22s.11-2.86.12-2.88c.08-2,.17-3.65.22-4.66l.07-1.26a6,6,0,0,0-1.95-4.7C85.37,48.26,69.94,21.83,62.53,9.13l-.19-.33a8.12,8.12,0,0,0,0-.86,7.94,7.94,0,0,0-15.88,0,8.51,8.51,0,0,0,.22,1.9l-.27.5-.9,1.58-1,1.64-1.08,1.75-1.16,1.82L41.1,19l-1.31,2-1.37,2L37.3,24.62l-1.83,2.61L34,29.3l4.86,3.52L33.91,29.4q-1.59,2.19-3.28,4.47L29,36.1l-1.72,2.28-1.76,2.29L23.7,43l-2.91,3.68-2,2.51L17,51.38l-1.93,2.36L13.18,56l-1.91,2.29-1.69,2-2,2.35-1.75,2L4,66.65l-2.5,2.78a6,6,0,0,0-1.33,5.5c0,.14.07.3.12.47l.08.39.16.8.16.91.16,1L1,79.59l.15,1.16L1.31,82l.13,1.31.13,1.37.11,1.4.11,1.49.09,1.49L2,90.61,2,92.21l.06,1.58.06,1.64L2.2,97l0,1.67v5l0,1.66s0,1.21,0,1.69c0,0,0,1.14,0,1.61l-.06,1.58L2,111.82l-.09,1.55s-.07,1.14-.1,1.54l-.12,1.48-.13,1.41-.14,1.39c0,.44-.11.88-.16,1.31a6,6,0,0,0,3.79,6.36c2.36.92,4.82,1.77,7.33,2.53A132.53,132.53,0,0,0,33.92,134c3.24.42,6.57.75,9.91,1,1.57.1,3.14.19,4.7.25l1.31,0,1.46,0c.62,0,1.24,0,1.86,0h4.58c.51,0,1,0,1.5,0l2.84-.06h.18c.74,0,1.47-.06,2.2-.09l1.05,0,1.26-.06,1-.07,2.68-.14a4.94,4.94,0,0,0,.86-.11c1.16-.09,2.31-.2,3.43-.31l.68-.07c1.4-.14,2.78-.3,4.12-.47A134.07,134.07,0,0,0,101,129.52,44.53,44.53,0,0,0,108.57,126.59Z"/>
</svg>
