<svg id="Layer_1" data-name="Layer 1" xmlns="http://www.w3.org/2000/svg" width="132.54" height="132.34" viewBox="0 0 132.54 132.34">
  <defs>
    <style>
      .cls-1 {
        fill: #ff0;
      }
    </style>
  </defs>
  <path class="cls-1" d="M129.92,48.71a1,1,0,0,0,0-.16A66.17,66.17,0,0,0,66.2,0,67,67,0,0,0,53.9,1.15,66.16,66.16,0,0,0,34.66,8l-.15.07A54.68,54.68,0,0,0,20,18.75a66,66,0,0,0-10.35,13c-.37.59-.56.93-.56.93a2.79,2.79,0,0,0-.18.34,66.11,66.11,0,0,0,33.85,95,52.52,52.52,0,0,0,21.38,4.31c1,0,2.11,0,3.17-.08a67,67,0,0,0,11-1.12A65.85,65.85,0,0,0,98.24,124l.46-.24a4.27,4.27,0,0,0,.51-.3,65.67,65.67,0,0,0,20-17.84l0,0C140,80.32,130.35,50,129.92,48.71Zm-15.32,53h0a60.15,60.15,0,0,1-18.73,16.68v0l-.44.23a60.19,60.19,0,0,1-28.29,7.6,47.78,47.78,0,0,1-22.06-3.79h0A60.13,60.13,0,0,1,14.32,35.66h0s.15-.27.45-.75A60.31,60.31,0,0,1,24.21,23a49.63,49.63,0,0,1,12.95-9.61h0a60.14,60.14,0,0,1,87,37l.06.15S133.54,78.77,114.6,101.75Z"/>
</svg>
