<svg id="Layer_1" data-name="Layer 1" xmlns="http://www.w3.org/2000/svg" width="97.21" height="132.85" viewBox="0 0 97.21 132.85">
  <defs>
    <style>
      .cls-1 {
        fill: #ff0;
      }
    </style>
  </defs>
  <path class="cls-1" d="M90,109.68,89,109l-3-9c-.54-3.54-.86-7.28-1.05-10.1a34.8,34.8,0,0,0-.9-20.4A11.5,11.5,0,0,0,87,67.21a11,11,0,0,0,2.8-8.47,12.55,12.55,0,0,0-4.84-9,29.81,29.81,0,0,0-3.58-5.89,24.9,24.9,0,0,0-8.49-7.16c-.71-.36-1.44-.69-2.19-1,.31-2.5.41-5.23.52-8,0-.4,0-1,.08-1.65.82-15.87.22-21.93-4.8-24.28A8.26,8.26,0,0,0,63,1c-2.6,0-5.16,1.17-7.6,3.5a21.24,21.24,0,0,0-4.26,6.18c-.46-.65-1-1.27-1.45-1.87C44.84,3,38.77,0,32,0h-.33c-4.64.09-7.18,2.14-8.5,3.85C19,9.27,22.1,16.68,24.81,23.23c.66,1.6,1.28,3.11,1.63,4.22,1.41,4.56,6,13.88,10.6,20.14,0,.24-.07.47-.09.71a23.47,23.47,0,0,0-.43,12.55,22.48,22.48,0,0,0-2.47,2.54A34.51,34.51,0,0,0,12,83.69h-.78a5.75,5.75,0,0,0-.87.11,9.13,9.13,0,0,0-1.2.28l-.66.24c-.27.11-.54.23-.92.42a6.65,6.65,0,0,0-.58.33C2.12,88-1.81,95.11.87,104.15,2.74,110.47,8,114.51,13.3,116.26c.63,1.63,1.31,3.18,2,4.51a7,7,0,0,0,.08,2.23,7.79,7.79,0,0,0,3.81,5.16c4.52,2.79,22.07,3.8,22.3,3.8h.43c6.59,0,11.59-2.59,13.38-6.92a7.84,7.84,0,0,0,.53-2.1l.62-.13h0c.31,2.84,1.35,7.34,7.32,9.11l.57.17.55.13c.44.11.92.2,1.43.28a34.89,34.89,0,0,0,5.09.35c4.19,0,13.16-.53,17.14-4.79,3.59-.94,7.31-2.72,8.36-6.53C98.52,115.7,93.21,111.93,90,109.68ZM80.28,54.15a.11.11,0,0,1,0-.11.07.07,0,0,1,.06,0h0A6.28,6.28,0,0,1,83.8,59.3a4.92,4.92,0,0,1-1.26,3.87,4.71,4.71,0,0,1-3,1.59.79.79,0,0,1-.4-.08h0l-.87-.11a.08.08,0,0,1,0,.08,3.75,3.75,0,0,1-.86.71,3,3,0,0,1-1.65.57,1.81,1.81,0,0,1-.52-.07l.35.41a9.24,9.24,0,0,1,.62.82c.21.3.41.62.61,1l.08.14c.2.35.39.7.58,1.08a28.69,28.69,0,0,1,1.44,20c.19,3.1.55,7.77,1.25,12.17l3.69,11.13c.08.08.19.19.3.28.72.59,1.57,1.19,2.38,1.77,2.49,1.76,5.06,3.58,4.57,5.36-.31,1.13-2.78,2.19-6.62,2.85a1.79,1.79,0,0,1,0,.66c-.54,2-7.34,3.4-13.07,3.4h0a28.32,28.32,0,0,1-4.19-.29c-.36,0-.69-.12-1-.18l-.34-.09-.34-.09c-2.88-.86-3-2.54-3.21-4.88a17.68,17.68,0,0,0-.84-4.61,64.76,64.76,0,0,0-4.23-9.84c-1.09.31-2.2.6-3.31.85a8.17,8.17,0,0,1,3.47,2.72,4.09,4.09,0,0,1,.9,4A4.43,4.43,0,0,1,55,117a9.84,9.84,0,0,1-2.17.19,42.94,42.94,0,0,1-5.92-.55,8.19,8.19,0,0,1,2.44,3.58,3.39,3.39,0,0,1,.35,2.56c-1,2.36-4.83,3.2-7.83,3.2h-.36c-3.05-.07-16.88-1.46-19.22-2.9a2,2,0,0,1-1.07-1.22,1.53,1.53,0,0,1,.42-1.19c.16-.23.26-.37.19-.44a37.54,37.54,0,0,1-4-9c-4.49-.56-9.69-3.47-11.25-8.73-1.9-6.43,1-10.86,3.49-12.27,0,0,.07,0,.09-.06a4.1,4.1,0,0,1,.46-.21l.25-.1.39-.09.22,0h0a1.42,1.42,0,0,1,.33,0l.17,0a1,1,0,0,1,.41.24A11.26,11.26,0,0,1,14,92.16l.3.52.54,1c.12.21.23.42.34.64s.29.57.42.84C16.2,81,27.24,70.57,37.69,68.7c1.17-2.29,3.93-4.42,6.06-5.81a2.92,2.92,0,0,1-.18-.31c-3.38-6.41-.73-13-.62-13.27s0-.39,0-.59c.19-.85.39-1.67.59-2.46a.08.08,0,0,1,.07-.07h0l0,0C39,41,33.61,30.32,32.16,25.67c-.41-1.36-1.09-3-1.81-4.74C28.25,15.86,25.91,10.18,28,7.51A4.71,4.71,0,0,1,31.82,6h.29c4.83,0,9.3,2.3,12.93,6.65s6.09,10.45,7,17.49c.87-6.21,3-17,7.43-21.3A5.42,5.42,0,0,1,63,7a2.38,2.38,0,0,1,1,.21c2,.93,1.79,9.9,1.35,18.54,0,.72-.07,1.32-.09,1.73-.18,4.77-.36,9.66-1.69,12.23h0a30.36,30.36,0,0,1,6.68,2.38,19,19,0,0,1,6.46,5.48A23.78,23.78,0,0,1,80.17,54"/>
</svg>
