<svg id="Layer_1" data-name="Layer 1" xmlns="http://www.w3.org/2000/svg" width="67.58" height="50.43" viewBox="0 0 67.58 50.43">
  <defs>
    <style>
      .cls-1 {
        fill: #ff0;
      }
    </style>
  </defs>
  <path class="cls-1" d="M67.41,24.59c-1-4.13-3.87-6.88-7.66-7.43A16.67,16.67,0,0,0,54,11.27l-.58-.37a.33.33,0,0,1-.1-.06C46.71,6.78,38,5.6,35.22,5.32l-1.43-.19a40,40,0,0,1-6.4-1.28A35.77,35.77,0,0,1,23.61,2.5a16.71,16.71,0,0,1-1.52-.76h0a2.82,2.82,0,0,0-.29-.18A10.87,10.87,0,0,0,16.33,0a8.91,8.91,0,0,0-6.09,2.35l-.43.38a5.9,5.9,0,0,1-.46.39c-.4.07-.8.17-1.16.27-.72.2-1.39.43-1.88.62l-.1,0a7.88,7.88,0,0,0-.9.26A6.41,6.41,0,0,0,2,6.93,8.41,8.41,0,0,0,.09,11.31a8.89,8.89,0,0,0,.66,4.83,10.15,10.15,0,0,0,1,1.89,5.64,5.64,0,0,0,.73.9s.17.18.48.47l.13.14a11.33,11.33,0,0,0,1.3,1.16c.29.23.61.45.94.67a23.81,23.81,0,0,0,4,2.42,8,8,0,0,0-4.6,4.48,7.31,7.31,0,0,0,.63,6.67A6.53,6.53,0,0,0,6.25,36,6,6,0,0,0,8.37,37.5l.06,0,.14.22.18.25A6.45,6.45,0,0,0,10,39.24a7.38,7.38,0,0,0,4,1.64,6,6,0,0,0,.82,2.59l0,.05c.05.11.1.2.15.29a5.91,5.91,0,0,0,1.4,1.75,7.79,7.79,0,0,0,5.12,2h.34a6.57,6.57,0,0,0,1.3,1.28c.23.18.44.33.6.43a5.79,5.79,0,0,0,1.58.72,12.2,12.2,0,0,0,1.26.3,9.27,9.27,0,0,0,1.81.19,8,8,0,0,0,5.9-2.55,7.16,7.16,0,0,0,1.4-2.23c.64-.3,1.23-.63,1.59-.83l.31-.18,1.47-.83a7.71,7.71,0,0,0,4.8,1.61,9.1,9.1,0,0,0,1.69-.16,3.94,3.94,0,0,0,.5.29,5.67,5.67,0,0,0,1,.41l.57.16a8.44,8.44,0,0,0,2.46.37,7.48,7.48,0,0,0,4.25-1.3,7.38,7.38,0,0,0,2.93-3.73c.68-.47,1.34-1,2-1.48,8.17-6.25,8.33-12.94,8.28-14.22A5.69,5.69,0,0,0,67.41,24.59ZM55.59,35.26a29,29,0,0,1-3.15,2.21,1.56,1.56,0,0,0-.29.2,1.21,1.21,0,0,0-.37,1.09A1.67,1.67,0,0,1,51,40.2a1.81,1.81,0,0,1-1.78.13l-.45-.11a1,1,0,0,1-.27-.22l-.1,0s-.36-.35,0-1A2.88,2.88,0,0,1,49,38.2l3.64-2.72a16.08,16.08,0,0,1-5.43,2.35,5,5,0,0,1-.77.19,1.86,1.86,0,0,0-.94.84c-.14.41-2.33,1-3,0l-.11-.08a1.75,1.75,0,0,1,0-1.11,2.46,2.46,0,0,1,.07-.33,1.92,1.92,0,0,1,.45-.45.15.15,0,0,1,0-.06l0,0S42,35.62,43.69,35a16.45,16.45,0,0,0,3.78-.16l-.21.08a4.5,4.5,0,0,0,2.9-1.25,4.57,4.57,0,0,1-2.39-1.71,12.63,12.63,0,0,1-5.32,1.25,8.56,8.56,0,0,1-1.13,0,10.86,10.86,0,0,1-.6,1.31,6.12,6.12,0,0,1-2.46,2.94,4.43,4.43,0,0,1-.85.48s-.22.08-.51.21c-.73.4-1.75,1-2.32,1.3a.57.57,0,0,1-.13.08l0,0h0a14.72,14.72,0,0,1-1.9.94,3.06,3.06,0,0,0-.43.2,6.61,6.61,0,0,0-1.35,1,1.56,1.56,0,0,0-.51,1.15c.08.87-.91,1.82-2.48,1.46L27,44.19a2.2,2.2,0,0,1-.27-.23l-.11-.05-.05-.13a.94.94,0,0,1-.1-1.15,1.09,1.09,0,0,1,.65-.61l0,0,.08,0,.14,0a2.33,2.33,0,0,0,1-.49l.22-.19a.33.33,0,0,0,.06-.1l.36-.25L32,38.39a.76.76,0,0,0,0-.11,19.82,19.82,0,0,1-3.31,1,21.56,21.56,0,0,1-4.59.79H24l-.27,0a1.44,1.44,0,0,0-.54.23,2.16,2.16,0,0,0-.49.59,1.64,1.64,0,0,1-2.44.06,2.52,2.52,0,0,1-.12-.3c-.07-.09-.13-.18-.2-.29a1.85,1.85,0,0,1,.18-.53,1.27,1.27,0,0,1,.57-.75,5.91,5.91,0,0,1,.66-.29h0a6.76,6.76,0,0,1,1.86-.45l1.95-.46,5.32-1.29-.78-.11-1.19,0-.12,0a3.86,3.86,0,0,1-1.37-.05l-.71,0a2.2,2.2,0,0,0-.31-.15c-.42-.07-.73-.14-.73-.14a1.54,1.54,0,0,0-.27,0l-.38.23a.1.1,0,0,0-.05,0,1.56,1.56,0,0,1-1.58.38.92.92,0,0,1-.69-.75c0-.93.67-1.4,1.49-1.61l.13,0,.21,0a4.13,4.13,0,0,1,2.09.14l.62.11,7.17.24a8.71,8.71,0,0,0,1.39-1.44l.09-.11a7.61,7.61,0,0,0,.47-.73,1.09,1.09,0,0,0,.14-.39c-.39-.19-4.53-2.26-5.84-3.09-.73-.47-2.73-1.45-4.66-2.42h-.05l-.05.08.1.05-1,1.77a1.33,1.33,0,0,0-.09.78.46.46,0,0,0,.39.25l.24,0a1.8,1.8,0,0,1,1,.54c.66.6.17,1.26-.26,1.65-.06.08-.12.17-.2.26a1.16,1.16,0,0,1-.21.05l0,0a1.3,1.3,0,0,1-1-.1c-.37-.18-.68-.59-.68-1.45a4.92,4.92,0,0,0-2.23.34l-.76.42c-1.26.8-3.14,2-3.88,2a1.7,1.7,0,0,0-.33.15,1,1,0,0,0-.3.4,1.56,1.56,0,0,1-.2.45.92.92,0,0,1-.26.26l-.06,0-.15.09-.26.09a1.8,1.8,0,0,1-1.62-.26.54.54,0,0,1-.15-.15l0,0a.57.57,0,0,1-.08-.24,1,1,0,0,1-.07-.18s-.48-.71,2.76-1.92l.9-.5,1.82-1.06a30.93,30.93,0,0,1-6.22.6,2.16,2.16,0,0,1-.2.31,1.76,1.76,0,0,1-.5.46,1.18,1.18,0,0,1-.81.2,1.8,1.8,0,0,1-.5-.1l-.1-.15-.2-.15a1.29,1.29,0,0,1-.07-1.18c.28-.83,1.45-1.4,2.94-1.41l1,0,.67,0c1.55-.09,2.75-.25,2.75-.25a3.27,3.27,0,0,0,.95-.19l.06,0C20.8,27.74,22.07,25,22.07,25l-.39-.38h0a8.63,8.63,0,0,1-1.31-1.29c-.44-.45-.9-.93-1.29-1.37-.23-.22-.48-.44-.73-.66a20,20,0,0,0-3.77-1.94l-.17-.05a15.42,15.42,0,0,1-5.66-2.82c-.26-.17-.51-.34-.74-.52a5.88,5.88,0,0,1-.68-.62h0l-.15-.16c-.29-.26-.45-.43-.45-.43a4.85,4.85,0,0,1-.44-.89A2.86,2.86,0,0,1,6,12.14a2.46,2.46,0,0,1,1.1-1.8s-.17-.28.25-.42l.12,0,.11,0h.06l.2,0A18.09,18.09,0,0,1,9.8,9.17,6,6,0,0,1,10.53,9l.37-.06c1.27-.16,3-1.86,3-1.86a3.29,3.29,0,0,1,.28-.24c.27-.29,1.79-1.69,4.58-.08A19.13,19.13,0,0,0,21.17,8,41.71,41.71,0,0,0,25.68,9.6a47,47,0,0,0,7.38,1.49l1.45.19c4.2.41,11,1.8,15.71,4.68l.11.07.39.25c2.41,1.55,4.12,3.5,4.58,5.95,0,0,0,0,0,.06,0,.17,0,.34.07.52a2.3,2.3,0,0,0,0,.26c0,.26,0,.51,0,.78a6.82,6.82,0,0,1,1.31-.54,9.05,9.05,0,0,1,.88-.3,5.12,5.12,0,0,1,.76,0c1.3,0,2.65.64,3.21,2.93C61.58,26,61.76,30.57,55.59,35.26Z"/>
</svg>
