<svg id="Layer_1" data-name="Layer 1" xmlns="http://www.w3.org/2000/svg" width="156.71" height="190.85" viewBox="0 0 156.71 190.85">
  <defs>
    <style>
      .cls-1 {
        fill: #ff0;
      }
    </style>
  </defs>
  <path class="cls-1" d="M155.9,170l0-.08c-.1-.26-.19-.55-.27-.83l0-.17c-.1-.35-.19-.71-.3-1.17l0-.1c-.1-.43-.19-.86-.28-1.35,0,0,0-.08,0-.1-.18-1-.36-2.1-.51-3.32l0-.17c-.07-.58-.14-1.19-.2-1.78l0-.27c-.07-.63-.13-1.27-.19-2l0-.18c0-.69-.11-1.39-.16-2.06v-.1c-.11-1.49-.2-3-.27-4.62v-.21l-.09-2.29V149c0-.78,0-1.56-.07-2.34,0,0,0-1.87-.05-2.61,0,0,0-1.81,0-2.61,0,0,0-1.76,0-2.56v-2.65s0-1.93,0-2.69c0,0,0-1.9,0-2.69l-6-.09h0c0,.8,0,1.6,0,2.4,0,.1,0,.21,0,.31,0,.78,0,1.57,0,2.35v3.05c0,.83,0,1.66,0,2.49v.07c0,.87,0,1.74,0,2.61v0c0,.83,0,1.67.05,2.5a1.77,1.77,0,0,0,0,.23c0,.81,0,1.61.07,2.4v.26c0,.79.06,1.58.1,2.36a1.27,1.27,0,0,0,0,.2c.07,1.64.16,3.24.27,4.79v0c.06.75.12,1.48.18,2.2l0,.22c.06.69.12,1.37.19,2l0,.26c.07.66.14,1.3.22,1.93a1.1,1.1,0,0,1,0,.18c.17,1.3.36,2.52.57,3.65l0,.14c.1.53.2,1,.32,1.53a1.74,1.74,0,0,0,.05.22c.11.47.22.92.34,1.35l.06.2q.18.65.39,1.2a.78.78,0,0,0,.05.14c.14.38.29.75.44,1.08a57.12,57.12,0,0,1-9.49,3.64,185.19,185.19,0,0,1-29.75,6q-4.26.54-8.77.95l-.48.05-2.51.21-.8.06v.07l-3.32.17h-.23l-1.75.11-1.52.08-1.61.09-1.52.06-1.69.07h-.66c-1.9.06-3.83.11-5.77.13H80.5c-2,0-4,0-6.06,0h-.21c-2.07,0-4.16-.09-6.26-.18h-.11c-2.13-.09-4.27-.2-6.42-.35-4.59-.31-9.21-.76-13.83-1.36a183.29,183.29,0,0,1-29.82-6.33q-5.1-1.56-10-3.46c.09-.67.17-1.36.25-2,.05-.44.09-.89.14-1.34,0-.26.06-.51.08-.78l.15-1.58c0-.2,0-.4.05-.6.05-.55.09-1.11.14-1.67,0-.19,0-.38,0-.58l.12-1.72c0-.19,0-.38,0-.57,0-.61.07-1.22.1-1.84l0-.49L9,158c0-.16,0-.31,0-.47,0-.64.05-1.29.08-1.93,0-.16,0-.32,0-.48,0-.65,0-1.3.06-2,0-.16,0-.32,0-.48,0-.65,0-1.31,0-2,0-.17,0-.33,0-.5,0-.65,0-1.3,0-1.95,0-.17,0-.35,0-.53,0-.64,0-1.29,0-1.93v-.54c0-.65,0-1.3,0-1.95v-.53c0-.64,0-1.28,0-1.92v-.56c0-.64,0-1.27,0-1.89,0-.19,0-.38,0-.57,0-.63,0-1.25,0-1.87,0-.19,0-.39,0-.58,0-.61,0-1.21,0-1.81L9,133,9,131.23l0-.64c0-.56,0-1.12-.08-1.68l0-.69-.09-1.6c0-.23,0-.47,0-.7,0-.52-.06-1-.1-1.55,0-.24,0-.48,0-.71,0-.5-.07-1-.11-1.47,0-.25,0-.49-.05-.74,0-.47-.08-.94-.11-1.4l-.06-.73L8.12,118c0-.24,0-.48-.07-.72,0-.43-.08-.85-.13-1.26,0-.25,0-.49-.07-.74s-.09-.78-.13-1.17-.06-.49-.09-.72c0-.38-.09-.75-.13-1.11s-.06-.47-.1-.71-.09-.68-.14-1-.06-.47-.1-.7-.09-.63-.14-.94-.07-.45-.11-.66-.1-.58-.15-.86-.07-.43-.11-.64-.1-.53-.16-.78l-.12-.59c0-.24-.1-.48-.15-.7s-.15-.63-.22-.91H6l.24-.27.81-.89c.64-.71,1.28-1.42,1.92-2.15.23-.24.45-.5.67-.75.66-.73,1.31-1.47,2-2.22l.66-.76c.67-.75,1.33-1.52,2-2.29l.69-.79,2-2.32.69-.81,2-2.37.67-.8,2-2.41.74-.89,2-2.37.78-1c.65-.78,1.3-1.57,1.94-2.36.27-.32.53-.64.79-1L30.51,75c.27-.34.54-.69.82-1l1.87-2.33.86-1.08,1.81-2.27c.32-.41.64-.83,1-1.24L38.52,65l1-1.37,1.56-2L42.33,60l1.37-1.79,1.48-2,1-1.39,1.84-2.46.65-.86c2.46-3.32,4.84-6.58,7.1-9.76l.36-.52c.63-.88,1.25-1.76,1.86-2.63l.48-.69,1.65-2.38c.21-.3.4-.59.6-.89.49-.71,1-1.42,1.44-2.12l.68-1,1.27-1.91.71-1.09L66,26.84l.75-1.17,1-1.56.74-1.21c.3-.48.6-1,.88-1.43l.73-1.22L70.86,19l.71-1.24.66-1.17c.24-.41.45-.81.67-1.22l.58-1.05.61-1.2c.17-.31.34-.63.49-.94s.26-.54.39-.82a2.82,2.82,0,1,1,3.14-.41c9.93,16.84,33.5,59.51,70.15,92.85,0,0,0,.08,0,.24h0c0,.27-.05.78-.09,1.48h0c-.08,1.49-.2,3.87-.33,6.86v.15c0,.55,0,1.12-.07,1.71a2.35,2.35,0,0,0,0,.26c0,.59-.05,1.19-.07,1.81v.24c0,.63,0,1.28-.07,1.95v.06c0,.66-.05,1.34-.07,2,0,.12,0,.23,0,.35,0,.65,0,1.32-.06,2,0,.15,0,.3,0,.45,0,.68,0,1.36-.05,2.06v.44c0,.72,0,1.44,0,2.17,0,.1,0,.21,0,.31l0,2.29v.1h6l0-2.27.05-2.46.07-2.48.14-4.7s.07-2.07.07-2.07l.17-4.13c.13-3,.25-5.32.33-6.79,0-.68.1-1.79.1-1.79a6,6,0,0,0-1.95-4.7C119,69,96.45,30.43,85.64,11.9l-.77-1.31a8.72,8.72,0,0,0,.19-1.77,8.82,8.82,0,1,0-17.1,3l-1,1.76-1.32,2.31-1.45,2.43-1.58,2.57L61,23.59l-1.81,2.78-1.91,2.87c-.45.66-.9,1.33-1.36,2l-.66,1c-.53.77-1.07,1.56-1.62,2.34l-.48.69-1.84,2.62-.35.49c-2.2,3.1-4.57,6.35-7,9.66l-.64.86-1.82,2.43L38.93,54.6l-2.55,3.33-2.59,3.33-1.25,1.59-2.91,3.69s-2.35,2.94-3,3.7L23.94,73.6s-2.06,2.53-2.71,3.31l-2.72,3.28s-2.08,2.49-2.75,3.27l-2.67,3.15L9.74,90.5c-.66.77-1.32,1.52-2,2.26L4.5,96.46l-3,3.3a6,6,0,0,0-1.33,5.49c.06.23.12.49.18.76l.13.61.11.52.14.7.11.6.13.77.1.63.14.89.23,1.61.22,1.75.2,1.81s.16,1.52.2,1.93l.18,2,.17,2.06.15,2.17.14,2.2.13,2.26L3,130.86l.09,2.34.08,2.38s0,1.79.06,2.42c0,0,0,1.78,0,2.39,0,0,0,1.82,0,2.44,0,0,0,1.8,0,2.43,0,0,0,1.81,0,2.44,0,0,0,1.79,0,2.43,0,0,0,1.77-.05,2.41,0,0,0,1.75-.07,2.39,0,0-.07,1.73-.09,2.35,0,0-.08,1.71-.11,2.32,0,0-.1,1.69-.13,2.26,0,0-.11,1.69-.15,2.25l-.05.56c0,.54-.08,1.08-.13,1.61,0,0-.14,1.65-.19,2.1,0,0-.18,1.71-.21,2q-.12,1-.24,2a6,6,0,0,0,3.79,6.36C9,180,12.46,181.25,16,182.34a190.29,190.29,0,0,0,30.8,6.54c4.63.6,9.41,1.07,14.2,1.4,2.15.14,4.36.26,6.6.35h.1c2.09.08,4.24.14,6.48.18h.14q1.91,0,3.81,0H80.9c2,0,3.95-.07,6-.13h.25l3.61-.14,3.21-.17,1.43-.09,3.85-.2a6.43,6.43,0,0,0,1-.14l2.52-.22.51,0c3-.28,6-.61,9-1A195.31,195.31,0,0,0,143,182.53a62.65,62.65,0,0,0,10.51-4.07,6,6,0,0,0,2.65-7.9A5.39,5.39,0,0,1,155.9,170Z"/>
</svg>
