<svg id="Layer_1" data-name="Layer 1" xmlns="http://www.w3.org/2000/svg" width="149.01" height="134.56" viewBox="0 0 149.01 134.56">
  <defs>
    <style>
      .cls-1 {
        fill: #ff0;
      }
    </style>
  </defs>
  <g>
    <path class="cls-1" d="M67.32,67.34l.4,6.16,2.8-6.12Z"/>
    <path class="cls-1" d="M51.74,66.83c-5.37-.25-10.53-.54-15.12-.84C44.76,78.2,59.17,88.9,58.84,87.23a13.37,13.37,0,0,0-1.25-3.87C55.34,79.4,52.7,70.26,51.74,66.83Z"/>
    <path class="cls-1" d="M56.12,67c.57,2,1.43,5.13,2.59,9.57,2.26,8.63,5.07,1.85,5.07,1.85l-.89-11.19Q59.5,67.15,56.12,67Z"/>
    <path class="cls-1" d="M148.91,57.57c-3.19-16.93-19.36-33-52.45-52.23-.15-.08-.31-.17-.47-.24A49.38,49.38,0,0,0,75.19,0C63.34,0,52.9,5.49,44.93,15.9a61.66,61.66,0,0,0-10.78,7.92,51.51,51.51,0,0,1-10.83,7C18,33.61,12.54,36.51,7.38,42.54,4.87,45.45-2.75,54.33,1,62.57c3.24,7.06,12.18,8.12,17.22,8.12h.54c1,.09,4.22.36,8.74.7,5.86,9.79,14.13,16.5,20.32,21.53a69.13,69.13,0,0,1,5.43,4.69c-1.53,13.54-2.48,17.32-3.17,19-8.95.83-15.4,2.45-15.4,8.6,0,6.7,8,7.68,13.25,8.34a173.24,173.24,0,0,0,20,1,173.06,173.06,0,0,0,20-1c5.28-.66,13.25-1.64,13.25-8.34,0-6.16-7.12-7.38-10.17-7.9-1.81-.31-4-.57-6.34-.79,1.54-6.15,2-11,1.4-14.36-1-5.6-1-5.6,2.51-7.08,1.24-.52,2.43-1,3.58-1.41,5.75-2.19,11.7-4.46,14.44-12.71l1.25-3.75a18.71,18.71,0,0,0,7.5-4.94c13.07-.15,28.8-2.24,33-11A6.05,6.05,0,0,0,148.91,57.57Zm-36.57,8.68c-2.67,5.12-9.11,6-9.11,6L101,79.05c-2.25,6.78-7.33,7.4-14.66,10.48S79,96.31,80.24,103.2C81.1,108,78.53,117,76.88,122c10.69.45,18.37,1.71,18.37,3.19,0,1.86-12.21,3.37-27.26,3.37s-27.27-1.51-27.27-3.37c0-1.25,5.43-2.33,13.5-2.92l.27-1c1.34-2.75,2.52-2.73,4.92-24.33.57-5.11-19-13.41-28.2-31.29-7.37-.51-12.23-1-12.23-1s-23.68,1.15-7-18.23c8-9.28,17.19-10.13,26.21-18.14a52.87,52.87,0,0,1,10.8-7.75c7.12-9.82,21-21,44.51-10C131.68,32.71,140.94,47.7,143,58.68,140.56,63.77,127.89,66.44,112.34,66.25Z"/>
    <path class="cls-1" d="M68.77,76.58s-.48,2.47,4.59,5.55c4.51,2.74,5-11.58,5.07-14.78-1.75,0-3.55,0-5.39,0Z"/>
    <path class="cls-1" d="M105.49,69.18a10.06,10.06,0,0,0,5.61-3c-2.41-.06-4.89-.18-7.4-.37C103.48,67.26,103.66,68.85,105.49,69.18Z"/>
    <path class="cls-1" d="M84.92,67.14q-1.83.09-3.78.15l-1,11.14s-.56,1.23,7.9,1.23,12.4-10.48,12.4-10.48l.72-3.54c-1.77-.16-3.55-.36-5.33-.6A32,32,0,0,1,84.92,67.14ZM88,73.66H86.59l0-.6c1.5-.11,2.9-.27,4.22-.48A4.67,4.67,0,0,1,88,73.66Z"/>
  </g>
</svg>
