<svg id="Layer_1" data-name="Layer 1" xmlns="http://www.w3.org/2000/svg" width="164.25" height="140.07" viewBox="0 0 164.25 140.07">
  <defs>
    <style>
      .cls-1 {
        fill: #ff0;
      }
    </style>
  </defs>
  <g>
    <path class="cls-1" d="M77.93,80.41c-2.41,1.15-1.3,14.66,3.91,13.12a4.31,4.31,0,0,1-.51.07,16.76,16.76,0,0,0,2.79-4.67c.62-1.69,1.37-3.74,2.12-5.9s1.07-4,1.07-4c0,.21.06.4.09.6,1.08-3.21,2.08-6.37,2.65-8.7l-6.18.11C82.23,74.52,79.57,79.63,77.93,80.41Z"/>
    <path class="cls-1" d="M78.77,74.88S80,73,81,71.11l-4.77.06C76.44,74.38,77,78.18,78.77,74.88Z"/>
    <path class="cls-1" d="M59.64,71.15c-3.13,0-6.17-.11-9-.2C53,73.55,56.44,75.58,59.64,71.15Z"/>
    <path class="cls-1" d="M70.12,81.22a15.81,15.81,0,0,0,.74-3.11c.25-2.09.56-4.85.74-6.91-2.77,0-5.57,0-8.33,0C63.1,75.6,63.81,82.45,70.12,81.22Z"/>
    <path class="cls-1" d="M157,46.66c-2.8-9.15-9.82-15.06-20.15-17a26.63,26.63,0,0,0-3-7.54C132.33,18.44,123.07,0,95.81,0A72.19,72.19,0,0,0,80.89,1.68c-3.27.53-37.31,6.47-57.34,30.66-7.77,2-14.7,8.15-20.64,18.3-.8,1.31-5.44,9.5-1,16.46,2.73,4.81,8.35,7.24,16.72,7.24.74,0,1.5,0,2.31,0h1.5c1.36,0,3.39,0,5.65-.05.54.16,1,.28,1.32.36,1.82.65,5,1.39,12.42,1.91a9.57,9.57,0,0,0,2,3.24,9,9,0,0,0,6.66,2.79c.33,0,.65,0,1,0,.72.06,1.52.09,2.43.09.6,0,1.22,0,1.81,0,1.07,2.46,2.75,6.09,5.4,11.55a74,74,0,0,1-.45,10.42,44.44,44.44,0,0,1-4.44,14.79,132.25,132.25,0,0,0-14.72,1.6C37.72,121.58,30,123,30,129.43c0,7.23,9.38,8.39,16.23,9.24a234.52,234.52,0,0,0,27.21,1.4,234.52,234.52,0,0,0,27.21-1.4c6.85-.85,16.23-2,16.23-9.24,0-6.24-7.32-7.7-10.45-8.32-2.62-.52-5.94-1-9.79-1.34a89.82,89.82,0,0,0,1-15.31,6,6,0,0,0-.1-.95c-.31-1.59,3.48-4,6.13-5,15.69-4.8,20.61-13.3,22.13-18.77,6-2.21,9.29-5.25,11.07-8A140.65,140.65,0,0,0,154,69.08c7-1.36,9.32-5,10-7.92C165.43,55.17,160.48,49.66,157,46.66Zm-4.3,16.56a142.24,142.24,0,0,1-19.95,2.89c-.48,2.22-2.71,6.54-12.4,9,0,0,1,11.7-18.64,17.67,0,0-11.66,3.93-10.17,11.8,0,0,.34,12.31-2.22,19.79.35.28.75.58,1.23.9,12,.77,20.26,2.32,20.26,4.11,0,2.56-16.76,4.64-37.44,4.64S36,132,36,129.43c0-1.94,9.71-3.61,23.46-4.29l.45-.22a48.15,48.15,0,0,0,6.71-19.62A81,81,0,0,0,67,92.63s-7.09-14.54-7.4-16.38a45.25,45.25,0,0,1-8.24.2c-4,.69-4.53-2.82-4.36-5.65-7.46-.34-13.38-1-15.93-2A18.29,18.29,0,0,1,29,68.21c-4.43.11-8.18.08-8.18.08C12.22,68.71,8.45,66.67,7,64c-2.78-4.2,1-10.29,1-10.29C14.53,42.64,21.19,38.6,26.88,37.79,46,13,82,7.59,82,7.59c37.22-8,46.52,17.17,46.52,17.17A19.14,19.14,0,0,1,131.42,35c9.07.58,17.85,4.16,20.3,15.09C151.72,50.08,165.71,60.79,152.72,63.22Z"/>
    <path class="cls-1" d="M93.13,70.89c-1.43,5-3.4,15,3,16.5,0,0,11.25.14,18.37-5.66,0,0,4.37-5.11,4.5-11.71-3,.28-7,.47-12.07.47C106.93,70.49,101.32,70.7,93.13,70.89Zm17.76,5.56c-.27.43-.5.77-.67,1-3.6,2.64-9,3.64-12.43,3.88a14.55,14.55,0,0,1,.15-4.56c5-.14,8.45-.26,9.1-.28C108.37,76.49,109.65,76.47,110.89,76.45Z"/>
    <path class="cls-1" d="M128.53,68s-1.39,1-7.29,1.76a3.54,3.54,0,0,0,.12,1.4s5.55.81,9.49-4.91h0A16.81,16.81,0,0,1,128.53,68Z"/>
  </g>
</svg>
