<svg id="Layer_1" data-name="Layer 1" xmlns="http://www.w3.org/2000/svg" width="132.3" height="132.39" viewBox="0 0 132.3 132.39">
  <defs>
    <style>
      .cls-1 {
        fill: #ff0;
      }
    </style>
  </defs>
  <path class="cls-1" d="M100.2,9.47A66,66,0,0,0,69.59.09l-.52,0h-.59c-.79,0-1.58,0-2.36,0-1.2,0-2.4,0-3.59.11A67.1,67.1,0,0,1,52.42,1.45,66.73,66.73,0,0,0,42.07,4.53h0C11,14.88,3.11,45.74,2.79,47c0,.06,0,.11,0,.16a66.12,66.12,0,0,0,59.14,84.94l.16,0c1.53.15,3.12.23,4.73.23h0A58.54,58.54,0,0,0,80,130.79a66.88,66.88,0,0,0,15.67-5.5l1-.5.32-.18A66.12,66.12,0,0,0,118.76,26.1,53.57,53.57,0,0,0,100.2,9.47Zm21.89,78.61a59.91,59.91,0,0,1-28.26,31.4v0l-.78.39a60.33,60.33,0,0,1-14.3,5,49.26,49.26,0,0,1-16.08,1.27v0A60.11,60.11,0,0,1,8.59,48.63l0-.15s7.07-28.83,35.32-38.24h0A60.23,60.23,0,0,1,68.68,6.05h0l.5,0a60.16,60.16,0,0,1,28,8.58,47.77,47.77,0,0,1,16.68,14.92h0A60.1,60.1,0,0,1,122.09,88.08Z"/>
</svg>
