<svg id="Layer_1" data-name="Layer 1" xmlns="http://www.w3.org/2000/svg" width="111.55" height="117.31" viewBox="0 0 111.55 117.31">
  <defs>
    <style>
      .cls-1 {
        fill: #ff0;
      }
    </style>
  </defs>
  <path class="cls-1" d="M110.24,45.07a44.8,44.8,0,0,0-6.64-15.45,52.36,52.36,0,0,0-8.95-10.08c1-2.3,1.54-5.75-.41-8.29a12.06,12.06,0,0,0-1.92-2.88l-.11-.12a13.39,13.39,0,0,0-1.66-1.5c-.24-.18-.49-.35-.81-.56L89.4,6a8.83,8.83,0,0,0-.93-.51l-.25-.12-.46-.21L87.36,5A6.86,6.86,0,0,0,81.11,0a7,7,0,0,0-.78,0,6.74,6.74,0,0,0-6.66,4.93A10.07,10.07,0,0,0,71.21,6,54.48,54.48,0,0,0,63,3.94c-.8-.14-1.59-.25-2.4-.34l-.74-.08-1.67-.14-.7,0h-.21l-1.52-.05h-1c-.49,0-1,0-1.45,0h-.43l-.58,0-.32,0-.86.07c-.42,0-.84.08-1.28.13l-.22,0-.73.09c-.45.06-.91.14-1.4.23l-.19,0-.63.11c-.74.14-1.48.3-2.21.48-1,.25-2,.53-3,.85A59.68,59.68,0,0,0,8.31,32.3,60.14,60.14,0,0,0,0,64.77,56.76,56.76,0,0,0,3.78,83.26c.35.92.73,1.83,1.12,2.71s.83,1.79,1.27,2.64a52.79,52.79,0,0,0,9,12.64l.19.2c.94,1,1.9,1.89,2.86,2.73S20,105.7,21,106.42a53.13,53.13,0,0,0,5.54,3.73c1.39.81,2.85,1.57,4.32,2.26,1.05.49,2.14,1,3.22,1.37s2.1.78,3.16,1.11l.48.15a53.17,53.17,0,0,0,11.22,2.11c1.38.11,2.79.16,4.18.16a53.62,53.62,0,0,0,7-.46,56.24,56.24,0,0,0,12.81-3.23A59.36,59.36,0,0,0,96.78,96.79a61.83,61.83,0,0,0,6.45-9.05,59.65,59.65,0,0,0,7.17-41.92C110.34,45.56,110.29,45.3,110.24,45.07ZM98.05,84.71a55.19,55.19,0,0,1-5.82,8.17A53.21,53.21,0,0,1,70.8,108a49.83,49.83,0,0,1-11.45,2.89,47.75,47.75,0,0,1-10,.27,46.62,46.62,0,0,1-9.93-1.87l-.43-.14c-.94-.29-1.87-.62-2.79-1s-1.92-.78-2.86-1.22c-1.29-.6-2.57-1.27-3.82-2a46.75,46.75,0,0,1-4.91-3.3c-.83-.64-1.63-1.3-2.4-2s-1.73-1.58-2.54-2.41l-.15-.15a47.3,47.3,0,0,1-8-11.24c-.4-.78-.78-1.57-1.13-2.37s-.69-1.59-1-2.4h0A51.14,51.14,0,0,1,6,64.56H6a54.29,54.29,0,0,1,7.46-29.24l0,0h0A53.64,53.64,0,0,1,43.3,11.12c.86-.27,1.72-.52,2.58-.73q1-.24,1.92-.42c.23-.05.47-.08.7-.12l1.22-.2.82-.1,1.1-.12.86-.06.67,0h.34l1.28,0h.85L57,9.33l.79,0c.49,0,1,.08,1.46.12l.65.07c.71.08,1.41.18,2.11.3a47.85,47.85,0,0,1,8.82,2.38c.65.24,1.3.49,1.94.76.77-1.82,3-3.15,5.81-2.19a4.42,4.42,0,0,1,.58.26c0-.27,0-.55,0-.79s0-.74.06-1.06,0-.62.07-.88c.1-1,.16-1.64.16-1.64C79.48,6.09,80,6,80.56,6s1.07.25,1,.82c0,0,0,.6,0,1.63,0,.27,0,.54,0,.85s0,.63,0,1h0a6.48,6.48,0,0,1,2-.11l.61.11a5.66,5.66,0,0,1,.59.15l.28.1.14.05.08,0h0l0,0,.2.09.3.15a4.52,4.52,0,0,1,.54.3c.17.11.34.22.5.34a6.51,6.51,0,0,1,.92.83,5.59,5.59,0,0,1,1.28,2.32c0,.05,0,.1,0,.14a.84.84,0,0,1,.33.07A3.47,3.47,0,0,1,89,17.46s0,0,0,.05a4.67,4.67,0,0,1-1.71,2.12,4.35,4.35,0,0,1-1.44.63c.46.32.94.63,1.39,1,.87.65,1.72,1.32,2.53,2A46.7,46.7,0,0,1,98.62,33h0a39,39,0,0,1,5.75,13.39c.05.22.09.43.13.64A53.63,53.63,0,0,1,98.05,84.71Z"/>
</svg>
