<svg id="Layer_1" data-name="Layer 1" xmlns="http://www.w3.org/2000/svg" width="132.27" height="132.36" viewBox="0 0 132.27 132.36">
  <defs>
    <style>
      .cls-1 {
        fill: #ff0;
      }
    </style>
  </defs>
  <path class="cls-1" d="M128.75,44.89a4.07,4.07,0,0,0-.22-.58,65.63,65.63,0,0,0-13.81-22.94l0,0C98.63,2.08,75.79,0,66.71,0A48.51,48.51,0,0,0,60.8.31l-.15,0A66.14,66.14,0,0,0,3.15,86.41a.57.57,0,0,1,0,.14A54.77,54.77,0,0,0,11,102.77a66.67,66.67,0,0,0,10.84,12.58c.51.47.81.72.81.72l.3.24a66.12,66.12,0,0,0,99.65-15.67,53.45,53.45,0,0,0,8.71-23.36,66,66,0,0,0-2.43-31.91C128.81,45.06,128.75,44.89,128.75,44.89ZM125.4,76.38a47.61,47.61,0,0,1-7.8,21h0a60.12,60.12,0,0,1-91,14.15h0l-.66-.59A60.34,60.34,0,0,1,16,99.45,49.34,49.34,0,0,1,9,84.94H9A60.14,60.14,0,0,1,61.44,6.29l.16,0S91,2.33,110.09,25.19h0A60,60,0,0,1,123,46.69h0l.14.48a60,60,0,0,1,3.1,19.06A60.71,60.71,0,0,1,125.4,76.38Z"/>
</svg>
