<svg id="Layer_1" data-name="Layer 1" xmlns="http://www.w3.org/2000/svg" width="76.82" height="56.82" viewBox="0 0 76.82 56.82">
  <defs>
    <style>
      .cls-1 {
        fill: #ff0;
      }
    </style>
  </defs>
  <path class="cls-1" d="M76.65,27.91c-1.1-4.56-4.34-7.54-8.58-8a18.23,18.23,0,0,0-6.63-7c-.17-.12-.72-.46-.74-.47C53.12,7.86,43.07,6.52,40,6.2L38.29,6a49,49,0,0,1-7.63-1.53,43.07,43.07,0,0,1-4.53-1.62,19,19,0,0,1-1.91-1h0l-.29-.17A11.72,11.72,0,0,0,18.05,0a9.39,9.39,0,0,0-6.42,2.47c-.21.18-.38.33-.5.45a9.58,9.58,0,0,1-.83.66h-.08c-.47.09-1,.2-1.4.33-.84.23-1.62.51-2.18.72l-.13,0a9.15,9.15,0,0,0-1,.28A6.5,6.5,0,0,0,2.19,7.68,8.77,8.77,0,0,0,.1,12.32a9.27,9.27,0,0,0,.7,5.12,11.17,11.17,0,0,0,1.05,2,5.92,5.92,0,0,0,.75.92s.19.2.53.52l.16.16a14.36,14.36,0,0,0,1.43,1.29c.32.24.68.49,1,.74A24.75,24.75,0,0,0,13.1,27c-3.65.4-6.57,2.42-7.7,5.37a7.48,7.48,0,0,0,.65,6.87,6,6,0,0,0,1,1.12,6,6,0,0,0,2.13,1.48l.39.15v0a7.36,7.36,0,0,0,.4.62,1.44,1.44,0,0,0,.18.25,7.55,7.55,0,0,0,6.06,2.87h.14a6,6,0,0,0,.8,3.42l.09.14c.06.14.12.26.16.34a6.11,6.11,0,0,0,1.4,1.75,8.1,8.1,0,0,0,5.32,2,6.6,6.6,0,0,0,.9-.05,6.22,6.22,0,0,0,1.64,1.75c.26.2.47.35.61.44a5.8,5.8,0,0,0,1.6.73,9.78,9.78,0,0,0,1.37.32,9.05,9.05,0,0,0,1.93.21,8.3,8.3,0,0,0,6.14-2.65,7.76,7.76,0,0,0,1.58-2.66c.87-.4,1.75-.88,2.16-1.11l.34-.2,2.29-1.3.06,0A7.84,7.84,0,0,0,50.17,51a9.93,9.93,0,0,0,2.18-.25,5.55,5.55,0,0,0,.84.51,5.31,5.31,0,0,0,1,.41l.64.18a9.14,9.14,0,0,0,2.61.4,7.75,7.75,0,0,0,4.4-1.35A7.61,7.61,0,0,0,65,46.72c.88-.59,1.72-1.21,2.54-1.87,9.35-7.14,9.32-14.91,9.28-15.77A5.88,5.88,0,0,0,76.65,27.91ZM63.84,40.12a34.89,34.89,0,0,1-3.68,2.58,2.54,2.54,0,0,0-.34.24,1.41,1.41,0,0,0-.43,1.26,2,2,0,0,1-.86,1.68,2.1,2.1,0,0,1-2.08.16l-.53-.14a1.1,1.1,0,0,1-.3-.24l-.12-.06s-.43-.41,0-1.18a3.31,3.31,0,0,1,.66-.87l4.2-3.14a19,19,0,0,1-6.46,2.76,5.32,5.32,0,0,1-.73.17,2.19,2.19,0,0,0-1.09,1c-.17.47-2.72,1.21-3.46,0l-.13-.1a2.11,2.11,0,0,1,0-1.29c0-.12.05-.25.09-.39a2.06,2.06,0,0,1,.52-.52L49,41.91l0,0s-1.06-1.38,1-2.13a19.55,19.55,0,0,0,4.4-.19l-.24.1c1.41-.22,2.78-.64,3.38-1.46a5.32,5.32,0,0,1-2.79-2A14.87,14.87,0,0,1,48,37.74H47.2a14,14,0,0,1-.7,1.52,7.17,7.17,0,0,1-2.87,3.43,5.45,5.45,0,0,1-1,.56l-.6.24c-.84.47-2,1.14-2.7,1.53l-.15.09,0,0h0a18.44,18.44,0,0,1-2.22,1.1,3.4,3.4,0,0,0-.5.23,7.54,7.54,0,0,0-1.57,1.22A1.81,1.81,0,0,0,34.24,49c.09,1-1.06,2.12-2.89,1.69a6.66,6.66,0,0,1-.85-.19,1.86,1.86,0,0,1-.32-.26l-.12-.06a1.26,1.26,0,0,1-.06-.15,1.09,1.09,0,0,1-.11-1.34,1.23,1.23,0,0,1,.75-.71l0,0,.09,0,.16,0a2.86,2.86,0,0,0,1.22-.57l.26-.23a.39.39,0,0,0,.06-.11l.42-.3,3.42-2.93a.43.43,0,0,0,0-.13,23.27,23.27,0,0,1-3.86,1.18,24,24,0,0,1-5.36.93H27l-.32,0a1.8,1.8,0,0,0-.62.27,2.4,2.4,0,0,0-.58.69,1.91,1.91,0,0,1-2.84.07,1.73,1.73,0,0,1-.14-.35,2.24,2.24,0,0,1-.23-.34,2,2,0,0,1,.2-.61,1.56,1.56,0,0,1,.67-.89s.31-.15.77-.33l0,0a8.51,8.51,0,0,1,2.18-.52l2.27-.53,6.2-1.51s-.42-.07-.91-.13l-1.39,0a.5.5,0,0,0-.13,0,4.63,4.63,0,0,1-1.61-.07h-.82a2,2,0,0,0-.36-.18l-.85-.16a2.21,2.21,0,0,0-.32.05l-.47.28,0,0a1.83,1.83,0,0,1-1.85.44,1.06,1.06,0,0,1-.8-.87c0-1.08.79-1.64,1.74-1.88l.15,0,.25,0a5,5,0,0,1,2.43.16l.73.13,8.37.27a10.25,10.25,0,0,0,1.17-1.13,11.24,11.24,0,0,0,.76-1l.15-.21a1.86,1.86,0,0,0,.34-.79c-.45-.22-5.28-2.63-6.8-3.6-.86-.55-3.19-1.69-5.44-2.82,0,0-.05,0-.06,0l-.06.09.11.05-1.17,2.07a1.56,1.56,0,0,0-.1.92.53.53,0,0,0,.45.28,1,1,0,0,0,.28,0,2.09,2.09,0,0,1,1.12.63c.77.7.2,1.47-.3,1.92-.08.1-.15.2-.24.3a1.25,1.25,0,0,1-.24.07l0,0a1.47,1.47,0,0,1-1.21-.14c-.41-.21-.76-.69-.76-1.67a5.77,5.77,0,0,0-2.59.39l-.89.49c-1.48.94-3.68,2.34-4.54,2.32h0l-.36.16a1.22,1.22,0,0,0-.36.48,1.62,1.62,0,0,1-.16.44,2,2,0,0,1-3,.19h0a.75.75,0,0,1-.07-.12l0,0a1.19,1.19,0,0,1-.12-.39s-.56-.83,3.22-2.25l1-.57L21,34.55c-2,.66-7.24.7-7.24.7a3.66,3.66,0,0,1-.24.36,2.22,2.22,0,0,1-.58.54,1.38,1.38,0,0,1-.95.23,2,2,0,0,1-.58-.12c-.05-.06-.08-.12-.12-.17l-.22-.17A1.53,1.53,0,0,1,11,34.54c.33-1,1.69-1.63,3.42-1.65l1.15,0a7.57,7.57,0,0,1,.81,0c1.8-.11,3.21-.3,3.21-.3a3.71,3.71,0,0,0,1.11-.22l.06,0c2.51-.92,4-4.17,4-4.17s-.19-.17-.46-.44h0a10.52,10.52,0,0,1-1.53-1.5c-.52-.53-1.05-1.09-1.5-1.6-.27-.26-.56-.52-.86-.77A22.79,22.79,0,0,0,16,21.54l-.2-.06a18,18,0,0,1-6.59-3.29c-.31-.2-.6-.4-.86-.6a8.86,8.86,0,0,1-.8-.73h0l-.18-.19-.52-.5a6.36,6.36,0,0,1-.51-1,3.3,3.3,0,0,1-.3-2,2.88,2.88,0,0,1,1.29-2.1s-.2-.32.29-.49l.14,0,.13,0H8l.23,0a20.27,20.27,0,0,1,2.24-.78,8.08,8.08,0,0,1,.85-.2,3.64,3.64,0,0,1,.44-.07c1.48-.19,3.55-2.17,3.55-2.17A3.57,3.57,0,0,1,15.6,7c.32-.34,2.08-2,5.34-.09a21.29,21.29,0,0,0,2.75,1.42A48,48,0,0,0,29,10.2a55.52,55.52,0,0,0,8.61,1.74c.55.06,1.12.14,1.69.22,4.9.48,12.83,2.1,18.32,5.46l.13.08.46.29c2.8,1.8,4.79,4.08,5.33,6.94,0,0,0,.05,0,.07,0,.2.05.4.07.6s0,.21,0,.31c0,.3,0,.6,0,.91a8.15,8.15,0,0,1,1.52-.63c.32-.13.66-.24,1-.35a5.28,5.28,0,0,1,.89.05c1.51,0,3.09.75,3.74,3.43C70.82,29.32,71,34.65,63.84,40.12Z"/>
</svg>
