<svg id="Layer_1" data-name="Layer 1" xmlns="http://www.w3.org/2000/svg" width="87.77" height="92.16" viewBox="0 0 87.77 92.16">
  <defs>
    <style>
      .cls-1 {
        fill: #ff0;
      }
    </style>
  </defs>
  <path class="cls-1" d="M60,12.22c.07-.15.15-.3.24-.46a1.33,1.33,0,0,0-1.47.45l1,.5C59.88,12.55,59.94,12.39,60,12.22Z"/>
  <path class="cls-1" d="M64.26,12.78c.07.13.16.25.24.38.61-.12,1.25-.21,1.87-.28l-.09-.11a2.85,2.85,0,0,0-.33-.25l-.19-.11c-.06,0-.13-.07-.18-.08l-.07,0-.16-.05,0,0h0l-.1,0-.2,0-.18,0a1.73,1.73,0,0,0-.66.12l-.08,0,0,0A4.17,4.17,0,0,0,64.26,12.78Z"/>
  <path class="cls-1" d="M41.83,92.16a42.87,42.87,0,0,0,5.55-.36,44.3,44.3,0,0,0,10.07-2.55A46.52,46.52,0,0,0,76.18,76a48.64,48.64,0,0,0,5.06-7.1A46.82,46.82,0,0,0,86.87,36c-.05-.22-.09-.44-.13-.6a35.48,35.48,0,0,0-5.26-12.26,41.59,41.59,0,0,0-6.31-7.28,7.36,7.36,0,0,0-.78-6.66,10.39,10.39,0,0,0-1.62-2.39l-.11-.13a11.38,11.38,0,0,0-1.45-1.29c-.21-.17-.44-.32-.7-.5l-.29-.17a7.94,7.94,0,0,0-.83-.45l-.3-.15A6.74,6.74,0,0,0,63.31,0l-.74,0a6.58,6.58,0,0,0-6.2,4.06,7.83,7.83,0,0,0-.89.4A41.94,41.94,0,0,0,49.6,3c-.63-.11-1.27-.2-1.9-.27l-.6-.06c-.44,0-.87-.09-1.32-.12l-.71,0c-.4,0-.8,0-1.22,0h-.76l-1.1,0H41.6l-.68.05-.72.06-1,.1-.15,0-.62.08L37.31,3l-.63.11c-.59.11-1.18.24-1.76.38-.77.2-1.57.42-2.37.68a46.88,46.88,0,0,0-26,21.1A48.22,48.22,0,0,0,1.6,37.07a41.38,41.38,0,0,1-1.17,5.8A45.65,45.65,0,0,0,3,65.32c.28.71.57,1.42.89,2.13s.64,1.4,1,2.09a41.85,41.85,0,0,0,7.09,9.94l.16.17c.74.76,1.5,1.48,2.26,2.15s1.4,1.2,2.15,1.77a40.08,40.08,0,0,0,4.36,2.94c1.1.64,2.24,1.24,3.41,1.78.83.39,1.69.76,2.54,1.08s1.66.61,2.47.87l.4.12A41.94,41.94,0,0,0,38.53,92C39.62,92.11,40.73,92.16,41.83,92.16ZM31.11,84.52c-.71-.22-1.42-.47-2.12-.74s-1.46-.59-2.18-.93c-1-.46-2-1-2.91-1.52a36.25,36.25,0,0,1-3.73-2.51c-.63-.49-1.25-1-1.84-1.51S17,76.1,16.4,75.47l-.11-.12a35.85,35.85,0,0,1-6.1-8.55c-.3-.59-.59-1.19-.86-1.8s-.52-1.22-.76-1.83h0A39.11,39.11,0,0,1,6,50.57H6A41.27,41.27,0,0,1,11.7,28.32l0,0h0A40.81,40.81,0,0,1,34.39,9.9c.65-.21,1.31-.4,2-.56.49-.12,1-.22,1.46-.32l.54-.09.92-.15.63-.08.84-.09.66,0,.5,0h.26l1,0h.64c.34,0,.67,0,1,0l.6,0,1.11.1.5.05c.53.06,1.07.14,1.6.22a37.21,37.21,0,0,1,6.72,1.82c.49.18,1,.37,1.47.58a3.39,3.39,0,0,1,4.43-1.67l.44.2c0-.21,0-.42,0-.6s0-.56,0-.81,0-.47.06-.67c.08-.8.12-1.25.12-1.25,0-.46.41-.56.87-.52s.82.19.8.62c0,0,0,.45,0,1.25,0,.19,0,.41,0,.64s0,.48,0,.74v0a5.2,5.2,0,0,1,1.52-.1l.47.08.45.12.21.07.11,0,.06,0h0l0,0,.15.07.23.11a3.76,3.76,0,0,1,.41.23,3.19,3.19,0,0,1,.38.26,5.18,5.18,0,0,1,.7.63,4.13,4.13,0,0,1,1,1.77s0,.07,0,.1.23,0,.25.06a2.65,2.65,0,0,1-.37,2,.06.06,0,0,0,0,0,3.64,3.64,0,0,1-1.31,1.62,3.34,3.34,0,0,1-1.09.47c.35.25.72.49,1.06.74.66.5,1.3,1,1.92,1.53a35.34,35.34,0,0,1,6.77,7.41h0a29.52,29.52,0,0,1,4.38,10.19c0,.16.07.33.1.49a40.84,40.84,0,0,1-4.92,28.7,42.53,42.53,0,0,1-4.43,6.22A40.47,40.47,0,0,1,55.32,83.65a39.05,39.05,0,0,1-8.71,2.2,36.56,36.56,0,0,1-7.61.2,35.23,35.23,0,0,1-7.57-1.43Z"/>
</svg>
