<svg id="Layer_1" data-name="Layer 1" xmlns="http://www.w3.org/2000/svg" width="109.65" height="132.68" viewBox="0 0 109.65 132.68">
  <defs>
    <style>
      .cls-1 {
        fill: #ff0;
      }
    </style>
  </defs>
  <path class="cls-1" d="M109.08,116.22A2.49,2.49,0,0,1,109,116l-.07-.22-.12-.4,0-.14-.16-.66-.09-.42c0-.19-.07-.39-.11-.6l-.09-.49c0-.22-.07-.45-.1-.69l-.08-.55-.16-1.36-.15-1.49-.13-1.57c0-.53-.07-1.06-.1-1.62l-.08-1.72-.07-1.77,0-1.82,0-1.87,0-1.9V92.81l0-2.23,0-2.14.08-3.53.1-3.27.2-4.79c.06-1.44.13-2.61.17-3.39l0-.93c0-.23,0-.35,0-.35a6.09,6.09,0,0,0-2-4.65C83.76,47.26,68.67,21.42,61.42,9l-.16-.29c0-.27,0-.54,0-.81a7.91,7.91,0,0,0-15.81,0,8.06,8.06,0,0,0,.22,1.84l-.26.46-.86,1.51-1,1.62-1,1.71-1.13,1.77-1.2,1.86L39.37,20l-1.29,1.91-1.64,2.37-1.71,2.44C33.24,28.78,31.65,31,30,33.18l-1.65,2.2-1.69,2.23L25,39.85l-2.56,3.29-2.11,2.67-1.63,2-2,2.45-1.92,2.34-1.83,2.21-1.68,2-2,2.31S8,60.71,7.5,61.22L5.71,63.27,4,65.25,1.54,68A6,6,0,0,0,.19,73.46c0,.14.07.3.11.49l.09.37.15.76L.7,76l.15,1L1,78l.14,1.14.14,1.23.13,1.26L1.53,83l.11,1.39.11,1.44.09,1.46.08,1.52L2,90.33l.06,1.57,0,1.59,0,1.61,0,1.61v4.87l0,1.64,0,1.61s0,1.17-.05,1.61L2,108,2,109.56,1.87,111l-.1,1.5L1.66,114l-.13,1.39-.14,1.34c0,.44-.1.87-.16,1.3A6,6,0,0,0,5,124.38c2.31.89,4.73,1.72,7.18,2.48a130.76,130.76,0,0,0,21.1,4.48c3.17.41,6.44.73,9.7.95,1.54.11,3.07.19,4.6.25l1.34,0,1.35,0c.62,0,1.24,0,1.86,0h4.48l1.4,0,2.77-.06h.25l2.13-.1,1,0c.41,0,.83,0,1.23-.06l1-.06,2.61-.14a6,6,0,0,0,.86-.1c1.15-.1,2.27-.2,3.37-.32l.65-.06c1.37-.14,2.71-.29,4-.46A131,131,0,0,0,99,127a43.34,43.34,0,0,0,7.43-2.88A6,6,0,0,0,109.08,116.22Zm-11.83,5a125.62,125.62,0,0,1-20.08,4q-1.92.24-3.9.45l-.61,0c-1.12.12-2.25.22-3.41.32l-.55,0v0l-2.61.14-1,.06c-.58,0-1.18.06-1.78.09l-2.49.11h-.21l-1,0h-1c-.67,0-1.33,0-2,0s-1.49,0-2.24,0-1.39,0-2.1,0l-2.46-.06-1.93,0c-1.47-.06-3-.14-4.43-.24-3.1-.21-6.22-.52-9.34-.92A123.82,123.82,0,0,1,14,121.12q-3.45-1.05-6.78-2.34c.06-.45.12-.91.17-1.38l.09-.83.06-.6.09-1c0-.15,0-.3,0-.44,0-.36.05-.72.08-1.09,0-.14,0-.29,0-.43,0-.38,0-.76.07-1.15l0-.4c0-.4,0-.81.07-1.22,0-.12,0-.24,0-.35L8,108.62c0-.12,0-.25,0-.37,0-.41,0-.83,0-1.25,0-.13,0-.25,0-.38,0-.43,0-.87,0-1.3,0-.11,0-.22,0-.34,0-.43,0-.86,0-1.29,0-.13,0-.25,0-.37,0-.43,0-.86,0-1.28v-.39c0-.44,0-.88,0-1.32V98.67c0-.12,0-.24,0-.36,0-.44,0-.87,0-1.31v-.36c0-.43,0-.87,0-1.3,0-.12,0-.24,0-.36l0-1.27c0-.13,0-.26,0-.39,0-.4,0-.8,0-1.2,0-.15,0-.3,0-.44,0-.39,0-.77,0-1.16,0-.15,0-.31,0-.46,0-.37,0-.74,0-1.12,0-.15,0-.31,0-.46l-.06-1.09,0-.47c0-.35,0-.7-.07-1l0-.47c0-.34,0-.67-.07-1,0-.16,0-.33,0-.5,0-.32,0-.63-.07-.94s0-.33,0-.49c0-.31,0-.61-.08-.91s0-.32,0-.48,0-.58-.08-.86,0-.33,0-.49l-.09-.79-.06-.5L7,77.71,7,77.22c0-.23-.07-.46-.1-.68l-.06-.47c0-.22-.07-.43-.1-.63s-.05-.31-.08-.45l-.09-.58c0-.15-.06-.29-.08-.43s-.07-.36-.11-.53,0-.27-.08-.39-.07-.33-.1-.48S6.05,72.16,6,72H6l.17-.2.52-.57q.66-.72,1.32-1.47l.44-.49,1.34-1.52c.14-.16.29-.32.43-.49.45-.51.91-1,1.36-1.56l.45-.52c.46-.52.91-1.05,1.37-1.58l.44-.52,1.38-1.62.46-.54,1.37-1.63.47-.57,1.36-1.64.5-.6,1.33-1.62.53-.65c.43-.53.87-1.06,1.3-1.6l.57-.71c.42-.51.83-1,1.24-1.54l.62-.78c.39-.5.79-1,1.19-1.49l.67-.86,1.11-1.41.78-1c.33-.41.66-.83,1-1.25l.87-1.14.87-1.13L32.37,40l.78-1,1.39-1.86.28-.37c1.67-2.24,3.27-4.45,4.8-6.6l.11-.15,1.39-2,.25-.36L42.55,26l.37-.54,1-1.49.43-.64L45.25,22c.16-.24.31-.48.46-.72.27-.4.53-.8.78-1.19l.49-.77.68-1.07.49-.8.6-1,.49-.81c.17-.3.36-.6.53-.89l.47-.83c.15-.26.31-.53.45-.79s.31-.55.45-.82.27-.48.39-.71l.42-.8.33-.65.26-.55A1.9,1.9,0,1,1,55.3,7.9a1.86,1.86,0,0,1-.64,1.41C61.36,20.68,77.27,49.47,102,72c0,0,0,0,0,.16h0c0,.18,0,.52,0,1h0c-.05.8-.11,2-.18,3.44v.07c0,.21,0,.44,0,.67l0,.61c0,.19,0,.39,0,.59l0,.82,0,.59q0,.43,0,.9c0,.2,0,.4,0,.6s0,.68,0,1,0,.39,0,.59l0,1.09c0,.2,0,.41,0,.62l0,1.13c0,.22,0,.43,0,.64l0,1.25c0,.19,0,.38,0,.57,0,.61,0,1.22,0,1.85,0,.1,0,.21,0,.31,0,.52,0,1,0,1.56,0,.24,0,.48,0,.72,0,.39,0,.78,0,1.17v.82c0,.37,0,.73,0,1.1v.86c0,.35,0,.7,0,1s0,.59,0,.89,0,.69,0,1,0,.59,0,.88,0,.68,0,1l0,.86c0,.35,0,.7,0,1l0,.8.06,1.15,0,.65c0,.58.07,1.14.11,1.7,0,.21,0,.41,0,.62s.05.7.08,1,.05.45.07.68l.09.92c0,.22,0,.44.08.66s.07.57.1.85l.09.63q.06.41.12.78c0,.2.07.4.1.59s.09.49.14.72.07.36.11.53.11.46.16.67.08.31.12.45.13.45.2.66.07.23.11.33c.11.3.22.59.34.84A38.22,38.22,0,0,1,97.25,121.24Z"/>
</svg>
