<svg id="Layer_1" data-name="Layer 1" xmlns="http://www.w3.org/2000/svg" width="79.38" height="83.28" viewBox="0 0 79.38 83.28">
  <defs>
    <style>
      .cls-1 {
        fill: #ff0;
      }
    </style>
  </defs>
  <path class="cls-1" d="M59.31,11.8l-.17-.1L59,11.63l-.06,0-.14-.06h-.07l-.09,0-.18,0h-.17a1.57,1.57,0,0,0-.58.1s0,0-.07,0v0a3.39,3.39,0,0,0,.18.39c.06.12.14.22.21.34.54-.11,1.11-.19,1.66-.26L59.6,12A2.21,2.21,0,0,0,59.31,11.8Z"/>
  <path class="cls-1" d="M78.56,32.6,78.45,32A32.34,32.34,0,0,0,73.67,20.9a37.49,37.49,0,0,0-5.41-6.31,7.07,7.07,0,0,0-.89-6.08,10.21,10.21,0,0,0-1.5-2.2l-.1-.11A10.51,10.51,0,0,0,64.39,5l-.64-.45-.31-.19a7.21,7.21,0,0,0-.79-.42l0,0A6.68,6.68,0,0,0,57,0l-.7,0a6.5,6.5,0,0,0-6,3.76l-.35.16a36.63,36.63,0,0,0-5.07-1.23c-.57-.09-1.14-.17-1.73-.24l-.52-.05-1.2-.11-.64,0-1.11,0H39c-.35,0-.7,0-1,0h-.38l-.53,0-.73.06-.91.1-.68.08-1,.17-.58.1c-.53.1-1.06.22-1.58.34-.71.18-1.43.38-2.15.62A42.29,42.29,0,0,0,5.89,22.82,42.59,42.59,0,0,0,0,45.84,40.16,40.16,0,0,0,2.69,59c.25.64.51,1.29.8,1.93s.58,1.26.9,1.88a38.08,38.08,0,0,0,6.4,9L11,72c.66.68,1.36,1.34,2.05,2s1.27,1.09,1.94,1.6a36.29,36.29,0,0,0,4,2.65c1,.58,2,1.13,3.08,1.62.76.35,1.54.68,2.3,1s1.5.55,2.26.79l.34.1a37.42,37.42,0,0,0,8,1.51c1,.08,2,.12,3,.12h0a38.36,38.36,0,0,0,5-.33A39.79,39.79,0,0,0,52,80.65,42,42,0,0,0,68.91,68.71a42.81,42.81,0,0,0,4.57-6.41,43.48,43.48,0,0,0,4.38-10.39A46,46,0,0,1,79,46.12,41.21,41.21,0,0,0,78.56,32.6ZM68.3,59.27a37.22,37.22,0,0,1-3.94,5.53,35.94,35.94,0,0,1-14.5,10.25,34.54,34.54,0,0,1-7.75,2,32.59,32.59,0,0,1-6.77.18,31.12,31.12,0,0,1-6.72-1.27l-.29-.09q-1-.28-1.89-.66c-.65-.25-1.3-.52-1.94-.82-.87-.41-1.73-.86-2.58-1.36a29.59,29.59,0,0,1-3.32-2.23c-.56-.43-1.11-.88-1.63-1.34s-1.17-1.07-1.72-1.64l-.1-.1a31.69,31.69,0,0,1-5.42-7.61C9.46,59.54,9.2,59,9,58.46s-.46-1.08-.67-1.62h0A34.75,34.75,0,0,1,6,45.64H6a36.71,36.71,0,0,1,5.05-19.78l0,0h0A36.34,36.34,0,0,1,31.24,9.47c.59-.19,1.17-.36,1.75-.5.43-.11.87-.2,1.3-.28l.47-.08.83-.14.55-.07.75-.08.58,0,.45,0h.24l.86,0h.58l.89,0,.54,0c.33,0,.65.05,1,.09l.45,0c.47.05.95.12,1.42.2a33,33,0,0,1,6,1.61c.44.16.88.34,1.31.52A3,3,0,0,1,55.1,9.26a3.52,3.52,0,0,1,.39.17V8.9c0-.26,0-.5,0-.72s0-.42,0-.6l.11-1.11c0-.41.36-.5.77-.46s.73.17.72.55c0,0,0,.41,0,1.11,0,.18,0,.36,0,.57s0,.43,0,.66v0a4.18,4.18,0,0,1,1.36-.09l.42.07.4.1.19.07.09,0,0,0h0l0,0,.14.06.2.1a4.13,4.13,0,0,1,.37.2l.34.23a4.76,4.76,0,0,1,.62.57,3.64,3.64,0,0,1,.86,1.57.29.29,0,0,1,0,.09.49.49,0,0,1,.22,0,2.31,2.31,0,0,1-.33,1.73s0,0,0,0A3.25,3.25,0,0,1,61,15.23a3.14,3.14,0,0,1-1,.42c.31.22.64.43.94.66q.88.66,1.71,1.35a32,32,0,0,1,6,6.59h0a26.3,26.3,0,0,1,3.9,9.07l.09.43A36.31,36.31,0,0,1,68.3,59.27Z"/>
  <path class="cls-1" d="M52.94,11.52c.31.14.61.3.92.45,0-.14.1-.28.17-.43a4.11,4.11,0,0,1,.21-.42A1.17,1.17,0,0,0,52.94,11.52Z"/>
</svg>
