<svg id="Layer_1" data-name="Layer 1" xmlns="http://www.w3.org/2000/svg" width="103.82" height="164.88" viewBox="0 0 103.82 164.88">
  <defs>
    <style>
      .cls-1 {
        fill: #ff0;
      }
    </style>
  </defs>
  <path class="cls-1" d="M102.56,127.33A8.48,8.48,0,0,0,95,123.18a12.27,12.27,0,0,0-2.36.24,90.1,90.1,0,0,0-9.82-28.93C75.16,80.07,65.7,72.09,59.1,67.93l-.55-.35,0-.14a6.32,6.32,0,0,0,0-1.74,28.36,28.36,0,0,0,.44-3,5.8,5.8,0,0,0,.29-1,.52.52,0,0,1,0-.11c7.48-4,16.87-10.73,21-14.82,1.05-1,2.64-2.36,4.33-3.76,6.46-5.36,13.14-10.92,12.52-17.91-.17-2-1.16-5.63-5.79-8.27a21.12,21.12,0,0,0-10.6-2.74,28.65,28.65,0,0,0-11.49,2.58,41.44,41.44,0,0,0-7.93,4.66q.81-8.91-1.28-14.08C57.52.94,53.3,0,51,0a9.43,9.43,0,0,0-1,.06c-5.2.63-8.09,5.41-14.72,24.31l-.08.23c-.24.7-.45,1.28-.61,1.73a105.65,105.65,0,0,0-3.39,10.33A34.38,34.38,0,0,0,27.6,37a28.57,28.57,0,0,0-11.53,4.67A37.71,37.71,0,0,0,9.75,47a14.51,14.51,0,0,0-8.37,7.43,12.14,12.14,0,0,0,.38,11.94,9.88,9.88,0,0,0,4.13,3.84A8.8,8.8,0,0,0,10,73.28a30.26,30.26,0,0,0,7.84,5.82c0,.21,0,.42,0,.63A20.94,20.94,0,0,1,17.69,83a36.26,36.26,0,0,0,.09,12.11,19.88,19.88,0,0,0-7.55,7.81,15.27,15.27,0,0,0-1.91,6.6,9.94,9.94,0,0,0,5,9.33,15.42,15.42,0,0,0-.25,5.31,10.41,10.41,0,0,0,10.62,9.51,13.25,13.25,0,0,0,8.71-3.36,22.69,22.69,0,0,0-.14,7.71,14.42,14.42,0,0,0-7.86,2.28,10,10,0,0,0-3.91,5.32,12.39,12.39,0,0,0-4.91,5.21,8.32,8.32,0,0,0,.2,7.86c1.89,3.34,6.13,5.54,11.62,6,1.49.13,4,.19,8,.19s8.76-.07,12.23-.11h.58l4.25,0c4.4,0,6.91-1.65,8.3-3.23a25,25,0,0,0,5,.5A28.46,28.46,0,0,0,83,156a12.48,12.48,0,0,0,2,.16c5.56,0,10.66-3.19,13.63-8.53C103.8,138.49,105.1,131.65,102.56,127.33Zm-9.11,17.4c-1.9,3.41-5,5.45-8.39,5.45h0a5.5,5.5,0,0,1-3.38-1A22.37,22.37,0,0,1,65.84,156a16.4,16.4,0,0,1-10-3.12c1.06,1.79,1.32,3.21.77,4.23-.73,1.34-2.63,1.62-4.1,1.62l-4.76,0c-3.48.05-8.26.12-12.3.12-3.76,0-6.21-.06-7.5-.17-3.34-.29-6.06-1.47-6.93-3a2.34,2.34,0,0,1,0-2.28c.84-1.72,2.67-3,5.3-3.83a3.83,3.83,0,0,1,1.57-4.41A9.69,9.69,0,0,1,33.28,144a42.76,42.76,0,0,1,9.08,1.23,19.56,19.56,0,0,1-3.19-5c-2.9-6.44.61-13.67,1-14.42-.31-.35-2.14-2.5-4.43-5.72a23.9,23.9,0,0,0-6.58,5,7.36,7.36,0,0,1-5.43,2.56A4.49,4.49,0,0,1,19,123.34a11.87,11.87,0,0,1,.57-4.81,14.59,14.59,0,0,1,2.82-5.17,7.33,7.33,0,0,1-3.44.88,4.9,4.9,0,0,1-3.62-1.36,4.16,4.16,0,0,1-1.06-3.17,9.86,9.86,0,0,1,1.25-4.06c1.54-3,4.55-5.42,9.18-7.39a30,30,0,0,1-1.1-14.52,28,28,0,0,0,.18-4.19,38.43,38.43,0,0,0-.4-4.35C21,74.09,15,71,13.34,67.8a.1.1,0,0,1,0-.13l.06,0a2.56,2.56,0,0,1-.75.12,2.57,2.57,0,0,1-2.17-1.4A3.8,3.8,0,0,1,10,65.24a.11.11,0,0,1,0-.08.12.12,0,0,1,.07,0h.07A.92.92,0,0,0,9.79,65a3.4,3.4,0,0,1-.82-.1H9c-.64,0-1.49-.71-2.09-1.69a6.11,6.11,0,0,1-.13-6.09c2.2-4.35,5.81-4.65,5.85-4.65h0a.1.1,0,0,1,.07.16,1.41,1.41,0,0,0-.21.4c.14-.18.27-.36.42-.54a30.64,30.64,0,0,1,6.52-5.85,22.67,22.67,0,0,1,9.09-3.73,30.42,30.42,0,0,1,4.44-.32,34.78,34.78,0,0,1,3.5.18h0s-.05,0-.05-.06c-.19-3.39,1.84-9,3.81-14.35.19-.52.42-1.2.71-2,2.28-6.49,7-20,9.79-20.34L51,6c1.37,0,2.55,1.19,3.5,3.53,2.64,6.51-.19,19.67-2.11,26.93,0,.09-3.47,7-4.18,9.22a.12.12,0,0,1-.06.06h0a.1.1,0,0,1,0,.1c-.33,1-.61,1.9-.84,2.82a33.27,33.27,0,0,1,1.39-3c.17-.34.44-.85.83-1.49,1.62-2.68,4.62-7.07,4.65-7.11,5.13-6.88,11.35-12.15,17.5-14.85a22.78,22.78,0,0,1,9.08-2.07,15.25,15.25,0,0,1,7.63,1.95c1.72,1,2.66,2.19,2.78,3.59.34,3.86-5.35,8.59-10.38,12.77-1.82,1.51-3.47,2.88-4.7,4.1-4,3.94-14.82,11.71-22.32,15.1,0,0,.06.05.06.08-.16,1-.33,2-.51,3l-.29.68a21.85,21.85,0,0,1-.95,5.31h.41a.11.11,0,0,1,.07,0,.11.11,0,0,1,0,.08l0,.29c0,.32-.06.63-.08.9-.16,2.82.67,3.34,3.4,5.06,6,3.79,14.59,11,21.63,24.3,6.87,12.92,10.38,26.5,9.65,37.37,1.85-3,4-4.75,6.32-5.29a6.68,6.68,0,0,1,1.51-.2,2.53,2.53,0,0,1,2.38,1.19C98.93,133,96.36,139.51,93.45,144.73Z"/>
</svg>
