<svg id="Layer_1" data-name="Layer 1" xmlns="http://www.w3.org/2000/svg" width="202.37" height="272.97" viewBox="0 0 202.37 272.97">
  <defs>
    <style>
      .cls-1 {
        fill: #ff0;
      }
    </style>
  </defs>
  <g>
    <path class="cls-1" d="M177.18,25.54C148.68.72,106.08,0,101.31,0h-.39C99,0,54.13.29,25,25.83,1.68,46.33-6.17,82,5,116.68c9.67,29.92,55.73,83.64,68.21,97.85a6,6,0,0,0,1.18,2.69l10.32,13.23L83.21,241a5.1,5.1,0,0,0-.07.87v12.25c0,.72,0,1.49.11,2.28v7.87a8.69,8.69,0,0,0,1.65,5.1,8.57,8.57,0,0,0,7,3.63h20.4a8.57,8.57,0,0,0,7-3.7l.17-.24a9.35,9.35,0,0,0,.71-1.33c0-.12.12-.29.17-.43s.17-.47.24-.71a5.93,5.93,0,0,0,.16-.73,8.64,8.64,0,0,0,.15-1.59v-22.4a5.86,5.86,0,0,0-.39-2.11l-1.93-9.31,10-13.26a6,6,0,0,0,1.16-2.81c2.75-3.15,7.59-8.78,13.41-15.82,21.35-25.72,48.31-61.1,55.46-83.54a85.7,85.7,0,0,0,2.84-16.25,103.34,103.34,0,0,0,.89-13,11.46,11.46,0,0,0,0-1.17C202.15,60.45,193.21,39.51,177.18,25.54Zm19.18,60.08A95.35,95.35,0,0,1,195.51,98c-.55,5.43-1.38,11.32-2.59,15.12-7.15,22.41-36.24,59.7-54.37,81.54-7,8.49-12.55,14.85-14.84,17.46h.1v1.38L112.16,229l2.67,12.86h.08v22.4a2.37,2.37,0,0,1-.09.65v0l-.1.27c0,.05,0,.1,0,.14a2.82,2.82,0,0,1-.23.42l0,.05a2.54,2.54,0,0,1-2.13,1.17H102c-.8,0-1.58,0-2.35,0h-7.8a2.53,2.53,0,0,1-2.1-1.12,2.75,2.75,0,0,1-.53-1.61v-8.14c-.07-.72-.11-1.4-.11-2V241.83l1.53-10.47.38-2.58L79.16,213.53v-1.36c-8.45-9.55-58.62-67-68.42-97.33C1.5,86.21,5.18,51.24,29,30.34,57,5.78,100.76,6,101,6h0l.16.1V6s43.94-.45,72.09,24.06c16,13.94,23,34.23,23.12,54.72C196.37,84.81,196.37,85.1,196.36,85.62Z"/>
    <polygon class="cls-1" points="91.88 241.82 112.28 241.82 113.14 241.82 111.05 231.36 92.27 231.36 90.83 241.82 91.88 241.82"/>
    <path class="cls-1" d="M88,213.53H81.16l11.47,15.25v0l18,.15,11.2-15.39,2,0H88Zm19.56,9.4-11.92-.11-2.47-3.29H110Z"/>
  </g>
</svg>
