<svg id="Layer_1" data-name="Layer 1" xmlns="http://www.w3.org/2000/svg" width="96.27" height="101.15" viewBox="0 0 96.27 101.15">
  <defs>
    <style>
      .cls-1 {
        fill: #ff0;
      }
    </style>
  </defs>
  <path class="cls-1" d="M64.71,12.9c.38.18.77.37,1.15.57.07-.18.13-.36.21-.55s.17-.34.27-.52A1.48,1.48,0,0,0,64.71,12.9Z"/>
  <path class="cls-1" d="M72.67,13.26c-.06,0-.13-.08-.2-.13a2,2,0,0,1-.2-.09l-.08,0L72,13l0,0h0l0,0-.06,0-.11,0-.22,0-.21,0a1.9,1.9,0,0,0-.73.13l-.08,0v0a5.11,5.11,0,0,0,.22.48,3.66,3.66,0,0,0,.26.42c.68-.13,1.39-.23,2.08-.31l-.1-.12A2.07,2.07,0,0,0,72.67,13.26Z"/>
  <path class="cls-1" d="M83.55,83.46a53,53,0,0,0,5.55-7.8,51.35,51.35,0,0,0,6.18-36.13l-.14-.65a39,39,0,0,0-5.75-13.4,45.08,45.08,0,0,0-7.24-8.27A7.6,7.6,0,0,0,81.48,10,11,11,0,0,0,79.77,7.4l-.12-.13A11.9,11.9,0,0,0,78.13,5.9c-.22-.17-.46-.33-.73-.51-.1-.06-.23-.15-.33-.2a7.57,7.57,0,0,0-.86-.46l-.2-.1-.39-.18a6.7,6.7,0,0,0-6-4.41,6.51,6.51,0,0,0-.75,0,6.66,6.66,0,0,0-6.38,4.36A10.38,10.38,0,0,0,61.1,5a47.17,47.17,0,0,0-6.73-1.66q-1-.18-2.07-.3L51.64,3c-.47-.05-1-.1-1.42-.13l-.61,0h-.2l-1.3,0h-.85c-.43,0-.86,0-1.24,0h-.39l-.53,0-.18,0-.81.06q-.55,0-1.11.12l-.16,0-.67.08L41,3.35l-.7.12c-.64.12-1.28.26-1.93.42-.85.21-1.72.46-2.58.74A51.4,51.4,0,0,0,7.16,27.8,51.82,51.82,0,0,0,0,55.78a48.94,48.94,0,0,0,3.23,16c.3.79.62,1.56,1,2.34s.71,1.53,1.1,2.29a45.59,45.59,0,0,0,7.75,10.89l.19.2c.81.83,1.64,1.62,2.48,2.35s1.54,1.32,2.35,1.94A44.39,44.39,0,0,0,22.88,95c1.21.71,2.46,1.36,3.73,2,.91.43,1.85.83,2.79,1.19s1.82.67,2.71,1l.43.13A45.43,45.43,0,0,0,42.23,101c1.2.09,2.42.14,3.62.14a47.62,47.62,0,0,0,6.08-.39A49,49,0,0,0,63,98,51.38,51.38,0,0,0,83.55,83.46Zm-22.7,8.9a42.53,42.53,0,0,1-9.69,2.45A41.25,41.25,0,0,1,42.7,95a39.36,39.36,0,0,1-8.41-1.59l-.36-.11c-.8-.25-1.58-.52-2.36-.82s-1.63-.66-2.43-1C28.05,91,27,90.4,25.91,89.78A39,39,0,0,1,21.76,87q-1.05-.81-2-1.68c-.75-.66-1.46-1.34-2.15-2l-.12-.13a39.37,39.37,0,0,1-6.78-9.51c-.34-.66-.66-1.32-1-2s-.58-1.35-.85-2h0A43.26,43.26,0,0,1,6,55.57H6a45.74,45.74,0,0,1,6.32-24.75l0,0h0a45.4,45.4,0,0,1,25.2-20.44c.73-.24,1.46-.44,2.19-.62.54-.14,1.08-.25,1.62-.36l.6-.1,1-.17L43.7,9c.32,0,.63-.08.94-.1s.48,0,.73-.06l.56,0h.29c.36,0,.72,0,1.09,0H48c.37,0,.75,0,1.12,0s.45,0,.67,0L51,9l.56,0c.59.07,1.19.15,1.78.25a42.21,42.21,0,0,1,7.47,2c.55.2,1.1.42,1.64.64a3.75,3.75,0,0,1,4.92-1.84,3.61,3.61,0,0,1,.49.21c0-.23,0-.46,0-.67s0-.62,0-.89S68,8.2,68,8c.08-.89.13-1.39.13-1.39,0-.51.45-.63,1-.58s.91.21.89.69c0,0,0,.51,0,1.39,0,.22,0,.45,0,.71s0,.54,0,.83v0a5.42,5.42,0,0,1,1.7-.11c.17,0,.35.05.52.09l.5.13.24.08.12,0,.06,0h0l0,0,.17.07.25.13a3.28,3.28,0,0,1,.46.25c.14.1.29.19.42.29a5.21,5.21,0,0,1,.78.71,4.52,4.52,0,0,1,1.08,2s0,.08,0,.12a.57.57,0,0,1,.28.06,2.92,2.92,0,0,1-.41,2.17s0,0,0,0a3.94,3.94,0,0,1-1.45,1.8,3.74,3.74,0,0,1-1.22.53c.39.28.8.54,1.18.82.74.55,1.45,1.12,2.15,1.7a39.79,39.79,0,0,1,7.52,8.24h0a32.62,32.62,0,0,1,4.87,11.34l.12.54a45.42,45.42,0,0,1-5.48,31.92A47.1,47.1,0,0,1,79,79.55,45.11,45.11,0,0,1,60.85,92.36Z"/>
</svg>
