<svg id="Layer_1" data-name="Layer 1" xmlns="http://www.w3.org/2000/svg" width="512" height="512" viewBox="0 0 512 512">
  <defs>
    <style>
      .cls-1 {
        fill: #ff0;
      }
    </style>
  </defs>
  <g>
    <path class="cls-1" d="M209,226.05a13.27,13.27,0,0,0,9.46,4h0a13.35,13.35,0,0,0,8-2.65,14.87,14.87,0,0,0,1.49.08,15.69,15.69,0,0,0,15.47-15.72v-.21a14,14,0,0,0-.17-19.48,13.22,13.22,0,0,0-13.1-3.48,15.22,15.22,0,0,0-8.34-2.51,15.69,15.69,0,0,0-15.47,15.72,15.93,15.93,0,0,0,1.25,6.31,14,14,0,0,0-2.61,8A13.89,13.89,0,0,0,209,226.05Zm3.35-24.23a9.66,9.66,0,0,1,9.5-9.76,9.25,9.25,0,0,1,7.29,3.64,7.37,7.37,0,0,1,4.64-1.64,7.67,7.67,0,0,1,7.49,7.86,7.9,7.9,0,0,1-4.22,7,9.85,9.85,0,0,1,.38,2.79,9.66,9.66,0,0,1-9.5,9.76,9.17,9.17,0,0,1-3.32-.65,7.49,7.49,0,0,1-6.13,3.23,7.67,7.67,0,0,1-7.49-7.87,7.88,7.88,0,0,1,4.43-7.08A9.89,9.89,0,0,1,212.35,201.82Z"/>
    <path class="cls-1" d="M231.53,175.63a19.28,19.28,0,0,0,6.56-1.15,16.63,16.63,0,0,0,8.15,2.16h.06a17.23,17.23,0,0,0,16.34-12.29,17.73,17.73,0,0,0,6.89-29.18,16.77,16.77,0,0,0-12-5,17,17,0,0,0-1.75.09A19.6,19.6,0,0,0,241,123.36a20.12,20.12,0,0,0-18.88,14,20.7,20.7,0,0,0-4.45,32.42A19.48,19.48,0,0,0,231.53,175.63Zm-4.31-34A14.11,14.11,0,0,1,241,129.36a13.73,13.73,0,0,1,12.19,7.7,10.8,10.8,0,0,1,4.4-.92,11.52,11.52,0,0,1-.17,23,11.34,11.34,0,0,1-11.17,11.47,10.76,10.76,0,0,1-7.52-3.12,13.44,13.44,0,0,1-7.26,2.11,14.08,14.08,0,0,1-13.76-14.44A14.43,14.43,0,0,1,227.22,141.6Z"/>
    <path class="cls-1" d="M264.32,125.7a17.25,17.25,0,0,0,6.6,3,20.63,20.63,0,0,0,3.36,3.11,19.91,19.91,0,0,0,11.82,3.89h0a20.33,20.33,0,0,0,16.37-8.4c.46,0,.92.06,1.39.06a17.46,17.46,0,0,0,14.4-7.7,18.31,18.31,0,0,0-4.14-24.89,16.94,16.94,0,0,0-6.33-2.9,20.62,20.62,0,0,0-7.67-11,19.88,19.88,0,0,0-11.81-3.89,20.36,20.36,0,0,0-16.78,9,21.47,21.47,0,0,0-3.4,8.48,17.56,17.56,0,0,0-7.94,6.44A18.31,18.31,0,0,0,264.32,125.7Zm.82-21.52a11.48,11.48,0,0,1,8.74-5.05,15.4,15.4,0,0,1,2.61-9.87,14.1,14.1,0,0,1,20.09-3.62,15.05,15.05,0,0,1,6.05,11.84,11.09,11.09,0,0,1,7.94,2.09,12.23,12.23,0,0,1,2.73,16.67,11.31,11.31,0,0,1-13.85,4.17,15.27,15.27,0,0,1-1.54,2.9,14.09,14.09,0,0,1-20.08,3.62,14.52,14.52,0,0,1-3.65-3.9,11.13,11.13,0,0,1-6.31-2.17A12.26,12.26,0,0,1,265.14,104.18Z"/>
    <path class="cls-1" d="M227.62,389l-9,0a22.78,22.78,0,0,1,2.18,9.58c2.77-.15,5.43-.29,8-.4a34.47,34.47,0,0,1-1.18-9.15Z"/>
    <path class="cls-1" d="M293.46,392.33a34.37,34.37,0,0,1-1.41,6.46l10.66.34a34.26,34.26,0,0,1-1.24-6.78Z"/>
    <path class="cls-1" d="M407.46,180.52a10.29,10.29,0,0,0-4.93-4.08,12.25,12.25,0,0,0-3.77-.89,246.66,246.66,0,0,0-52.94-6h-.89a247.68,247.68,0,0,0-52,5.57h0a10.49,10.49,0,0,0-8.82,4.9,14.69,14.69,0,0,0-2.37,8.07l0,5.56a13.89,13.89,0,0,0,3.7,9.89,9.45,9.45,0,0,0,6.7,2.91h4l-.54,77.44-46.7-.17,3.29-26.5a10,10,0,0,0,7.12-9.49l0-3.83a9.83,9.83,0,0,0-4.2-8.2,7.54,7.54,0,0,0-3.49-1.54,8.92,8.92,0,0,0-2-.24l-48.7-.18A9.66,9.66,0,0,0,199,234a7.73,7.73,0,0,0-4.08,1.83,10,10,0,0,0-3.87,7.85l0,3.83a9.89,9.89,0,0,0,2.87,7.09,9.72,9.72,0,0,0,4.12,2.49L200,274.49a15,15,0,0,0-3.65-6A14.48,14.48,0,0,0,186,264.11l-8.62,0a15,15,0,0,0-14.78,15l-.09,12.16a36.45,36.45,0,0,0-18.34,31,35.39,35.39,0,0,0,5.9,19.87l-4.41,0a6,6,0,0,0-6,6l0,11.83a6.78,6.78,0,0,0,.1,1v8.7a5.89,5.89,0,0,0,.65,2.74,6,6,0,0,0,1.4,2.2,5.81,5.81,0,0,0,1.54,1.11l-16.61,24a9.23,9.23,0,0,0-4.88,3L104.59,420a8.17,8.17,0,0,0-.6.7,8.81,8.81,0,0,0-.74,9.24,9.43,9.43,0,0,0,8.47,5.15h.21l137.25-2.86,144.74-3a9.15,9.15,0,0,0,8.12-5.11,8.86,8.86,0,0,0-1-9.26,6.23,6.23,0,0,0-.69-.76L384.26,399a9.6,9.6,0,0,0-7-3.24l-4.43-.18v-.05h.57a6,6,0,0,0,6-6l.09-13.33h19.84a6,6,0,0,0,6-6v-4.9l.14-29.52a6.33,6.33,0,0,0-6.12-6.25h-1.67l.44-39a6,6,0,0,0-.6-2.69l.57-81h1.09c5.84,0,10.46-5.57,10.51-12.68l0-5.56A14.69,14.69,0,0,0,407.46,180.52Zm-8.15,155.1v.22h.15l-.14,29.52h0v4.91h-25.8l-.13,19.29-6,0A34.35,34.35,0,0,1,365,401.33c7.52.28,12.12.47,12.12.47a3.53,3.53,0,0,1,2.81,1.37L396.3,418.5a3,3,0,0,1-2.51,4.75l-144.73,3L111.8,429.08c-2.73.06-4.47-2.78-3-4.83l17.53-17.51a3.32,3.32,0,0,1,2.67-1.28l1.14-.1,23.66-34.17a4,4,0,0,1,.72-.8h-8.46v-.69h-.3V360h-.1l0-11.83,19.4.16a30,30,0,0,1-14.89-25.95,30.44,30.44,0,0,1,18.32-27.41l.11-15.79a9,9,0,0,1,8.81-9.05l8.56,0a8.89,8.89,0,0,1,8.69,9.11l-.08,10.89,13.1-.11-.23-2.1-4-36.44h-2.67a3.83,3.83,0,0,1-3.74-3.93l0-3.84a4,4,0,0,1,1.69-3.25,1.74,1.74,0,0,1,1.21-.53,3.32,3.32,0,0,1,.9-.13l48.67.18a3.53,3.53,0,0,1,.92.14,1.67,1.67,0,0,1,1,.45,3.89,3.89,0,0,1,1.8,3.34l0,3.84a3.88,3.88,0,0,1-3.8,3.91H246.8l-4.72,38.11,59.43.21.63-88.81,90,.33-.19,26.69-.44,62.36h.62l-.51,45.07ZM200.63,284.06l0-3.17.34,3.17Zm203.05-89.92c0,3.72-2.05,6.73-4.52,6.72l-107.08-.39c-2.47,0-4.45-3-4.42-6.75l0-5.57a8.56,8.56,0,0,1,1.49-5,4.52,4.52,0,0,1,4.16-2.05l.6-.09a239.46,239.46,0,0,1,104,.47,6.3,6.3,0,0,1,2.35.49,4.32,4.32,0,0,1,2.14,1.79,8.75,8.75,0,0,1,1.28,4.77Z"/>
  </g>
</svg>
