<svg id="Layer_1" data-name="Layer 1" xmlns="http://www.w3.org/2000/svg" width="132.64" height="132.27" viewBox="0 0 132.64 132.27">
  <defs>
    <style>
      .cls-1 {
        fill: #ff0;
      }
    </style>
  </defs>
  <path class="cls-1" d="M108.8,117a65.77,65.77,0,0,0,13.5-15.32l.09-.12a54.82,54.82,0,0,0,7.47-16.4,66.44,66.44,0,0,0,2.74-16.37c0-.69,0-1.08,0-1.08s0-.26,0-.38A66.11,66.11,0,0,0,66.49,0a67.26,67.26,0,0,0-9.62.7A53.61,53.61,0,0,0,33.34,8.93a67.11,67.11,0,0,0-9.1,6.35A66.09,66.09,0,0,0,10.36,31.21l-.28.42c-.11.18-.21.35-.3.53A65.62,65.62,0,0,0,1,57.46v0c-5.91,32.16,17.29,54,18.29,54.89l.11.1a66.48,66.48,0,0,0,47.22,19.79h0c1.2,0,2.4-.05,3.59-.11a66,66,0,0,1,10.11-1.35A66.21,66.21,0,0,0,108.8,117Zm-85.37-8.93-.12-.1S1.48,87.85,6.87,58.57h0a60,60,0,0,1,8.26-23.68h0l.27-.42a60,60,0,0,1,21-20.39A47.71,47.71,0,0,1,57.56,6.66h0A60.12,60.12,0,0,1,126.62,67.6h0s0,.32,0,.88a60.27,60.27,0,0,1-2.5,15,49.38,49.38,0,0,1-6.65,14.7h0a60.14,60.14,0,0,1-94,9.94Z"/>
</svg>
