<svg id="Layer_1" data-name="Layer 1" xmlns="http://www.w3.org/2000/svg" width="147.21" height="127.38" viewBox="0 0 147.21 127.38">
  <defs>
    <style>
      .cls-1 {
        fill: #ff0;
      }
    </style>
  </defs>
  <g>
    <path class="cls-1" d="M61.11,67.7,60,67.4a16,16,0,0,1-1.83.68c-3,.66-5.75,1.16-8.34,1.56C65.74,83.18,66.19,76.23,66,75.57,65.75,74.29,67.07,72.64,61.11,67.7Z"/>
    <path class="cls-1" d="M87.84,69.85l-4.51-.3L83,71.81s2.09,6.84,4.68-1.52Z"/>
    <path class="cls-1" d="M67.84,68.32c.3.13.45.19.43.16v-.13Z"/>
    <path class="cls-1" d="M78.47,69.2c-3.13-.24-5.81-.46-7.85-.64.33,4.06,1.23,7.66,3.54,6.33,4.76-2.73,4.48-5.19,4.48-5.19Z"/>
    <path class="cls-1" d="M132.79,28.88A5.45,5.45,0,0,0,132,28c-5.64-5.31-11.37-9-17.05-10.9A90.76,90.76,0,0,0,88.73,1.84a4.27,4.27,0,0,0-.54-.18A43,43,0,0,0,76.4,0C50.9,0,32.22,22.7,28.24,28a55.52,55.52,0,0,0-17.49,9.91l-.69.55C3.2,43.53-.18,49.11,0,55,.38,66.75,15.07,73.59,22.79,75.57a33.26,33.26,0,0,0,5.92,1c2.09.18,4.28.26,6.49.26,2.92,0,6-.15,9.11-.44C50.6,81.56,58,86.91,62.14,89.68a36.32,36.32,0,0,1,3.51,9.47c.13,1.39.51,3.59.92,5.91.23,1.32.5,2.86.67,4-3.2.24-6,.55-8.4.93-3.48.56-10.71,1.73-10.71,8,0,6.72,8,7.71,13.32,8.36a171.27,171.27,0,0,0,20.19,1,171.52,171.52,0,0,0,20.19-1c5.3-.65,13.32-1.64,13.32-8.36,0-6.29-7.35-7.46-10.88-8-3-.47-6.8-.84-11.09-1.08a63.72,63.72,0,0,1-1.5-19.56c12.2-4.35,18.88-9.08,22.41-12.46h1.63c3.89,0,7.41-.09,10.46-.26,3.76-.21,15.21-.84,19.49-9.7C149.69,58.6,146,47.58,132.79,28.88Zm-6.94,41.73c-4.3.24-9.21.29-14.31.22-1.91,2.31-8.32,8.55-25.41,14-1.15,8.12-.95,20.27,2.51,29.6l0,.22c11.79.39,20.48,1.71,20.48,3.29,0,1.88-12.32,3.41-27.51,3.41S54.13,119.85,54.13,118c0-1.55,8.45-2.87,20-3.27a42.74,42.74,0,0,1-.73-4.91c-.19-2.35-1.54-8.83-1.75-11.18-.27-3-3.57-12.19-5.67-13.59A241.58,241.58,0,0,1,46.21,70.13a84.35,84.35,0,0,1-17,.44,26.85,26.85,0,0,1-4.92-.81C17.22,68,6.24,62.28,6,54.84c-.11-3.59,2.15-7.51,7.64-11.59A50.93,50.93,0,0,1,32.49,32.93c0-.16-.08-.31-.11-.47,0,0,23.67-33.72,54.17-25,11.24,4.39,19.4,9.64,25.39,15,4.82,1.43,10.14,4.48,15.94,9.94C144.14,55.42,147.7,69.4,125.85,70.61Z"/>
    <path class="cls-1" d="M88.27,77a12.38,12.38,0,0,0-1.19,3c4.43-.95,15.12-3.75,19.32-9.35-5.05-.14-10.16-.38-15-.66A48.7,48.7,0,0,1,88.27,77Z"/>
  </g>
</svg>
