<svg id="Layer_1" data-name="Layer 1" xmlns="http://www.w3.org/2000/svg" width="88.29" height="64.75" viewBox="0 0 88.29 64.75">
  <defs>
    <style>
      .cls-1 {
        fill: #ff0;
      }
    </style>
  </defs>
  <path class="cls-1" d="M85.91,8.6a6.55,6.55,0,0,0-3.44-2.84,7.47,7.47,0,0,0-.93-.28l-.3-.06a26.33,26.33,0,0,0-2.51-.83,13.31,13.31,0,0,0-1.53-.36l-.37-.07a10.57,10.57,0,0,1-1.3-1A6.88,6.88,0,0,0,75,2.65,9.94,9.94,0,0,0,68.11,0a12.84,12.84,0,0,0-6.4,1.84L61.46,2a24,24,0,0,1-2.37,1.21,51,51,0,0,1-5.48,2A59.42,59.42,0,0,1,44.41,7l-2,.26c-3.57.36-15.23,1.91-23.91,7.22l-.3.19-.58.37a20.24,20.24,0,0,0-7.73,8.35C5.12,23.65,1.4,26.91.17,32A5.59,5.59,0,0,0,0,33.19c0,1-.1,9.87,11,18.06.92.71,1.84,1.37,2.79,2a8.29,8.29,0,0,0,8,6.09,9.42,9.42,0,0,0,2.78-.44c.24-.06.49-.12.75-.2a5.49,5.49,0,0,0,1-.41,7.34,7.34,0,0,0,1.23-.8h0a10.73,10.73,0,0,0,2.8.37,8,8,0,0,0,6.19-2.66l.47.2.29.12c.89.49,2,1.1,2.59,1.46l.56.33a29.68,29.68,0,0,0,2.92,1.46A8,8,0,0,0,45.09,62a8.7,8.7,0,0,0,6.45,2.77,10.38,10.38,0,0,0,2.06-.22,12.63,12.63,0,0,0,1.53-.36,5.79,5.79,0,0,0,1.58-.72c.15-.1.38-.26.65-.47a6.42,6.42,0,0,0,1.91-2.14l.14-.24a8,8,0,0,0,1.59.15,8.44,8.44,0,0,0,5.57-2.15A5.86,5.86,0,0,0,68,56.84c0-.1.12-.23.19-.39l.12-.19a6,6,0,0,0,.76-3.83,5.88,5.88,0,0,0-.16-.84,9.49,9.49,0,0,0,1.42.11,7.82,7.82,0,0,0,6.33-3,1.09,1.09,0,0,0,.13-.17,5.64,5.64,0,0,0,.44-.71c0-.06.17-.31.2-.37a7.58,7.58,0,0,0,.89-.32,5.94,5.94,0,0,0,2.06-1.47,6,6,0,0,0,1-1.15A7.76,7.76,0,0,0,82,37.4c-1.32-3.5-4.94-5.7-9.54-5.75l-1.06,0-1.07-.06-1-.07a24.28,24.28,0,0,1,3-1.49A26.66,26.66,0,0,0,82,25.26q.64-.42,1.23-.87a15.55,15.55,0,0,0,1.45-1.29l.29-.3.63-.61a5.82,5.82,0,0,0,.73-.91,12.54,12.54,0,0,0,1.15-2.22,9.9,9.9,0,0,0,.75-5.47A9.27,9.27,0,0,0,85.91,8.6Zm-4,8.14A6.59,6.59,0,0,1,81.28,18s-.22.23-.61.58l-.21.23h0a10.13,10.13,0,0,1-.93.86c-.32.23-.66.47-1,.71a21.33,21.33,0,0,1-7.76,3.87l-.24.06A27.27,27.27,0,0,0,65.34,27c-.35.29-.69.59-1,.89-.54.61-1.18,1.28-1.79,1.91a13.14,13.14,0,0,1-1.78,1.76h0l-.54.52s1.76,3.82,4.71,4.9L65,37a4.75,4.75,0,0,0,1.31.25s1.65.22,3.77.35c.31,0,.63,0,1,0l1.34,0c2,0,3.65.79,4,1.94a1.76,1.76,0,0,1-.1,1.62,2.26,2.26,0,0,1-.26.2,1.21,1.21,0,0,1-.14.2,2.11,2.11,0,0,1-.75.15,1.66,1.66,0,0,1-.92-.19,2.47,2.47,0,0,1-1-1l-.07-.12s-6.19,0-8.53-.83l2.5,1.46,1.22.68c4.45,1.66,3.79,2.64,3.79,2.64a1.37,1.37,0,0,1-.14.46l0,.06-.08.13h0c-.79,1.09-3.09.69-3.49-.22a2,2,0,0,1-.2-.53,1.46,1.46,0,0,0-.42-.56,4.28,4.28,0,0,0-.42-.19h0c-1,0-3.61-1.62-5.34-2.72l-1-.58a6.73,6.73,0,0,0-3.05-.46,2,2,0,0,1-.9,2,1.71,1.71,0,0,1-1.42.15l0,0-.28-.07c-.11-.13-.19-.25-.28-.36-.59-.54-1.26-1.44-.36-2.27a2.47,2.47,0,0,1,1.32-.73,1,1,0,0,0,.34,0,.61.61,0,0,0,.52-.33,1.86,1.86,0,0,0-.11-1.08l-1.39-2.43.13-.07a.67.67,0,0,1-.06-.11l-.08,0c-2.64,1.33-5.39,2.68-6.39,3.31-1.8,1.15-7.53,4-8,4.25a2.41,2.41,0,0,0,.41.92c.12.19.25.37.38.55l.27.35A.64.64,0,0,1,42,44l.29.34a12,12,0,0,0,1.41,1.37l9.85-.32s.36-.08.86-.16A5.85,5.85,0,0,1,57.15,45l.44.07.18.06c1.12.29,2.07.94,2,2.21a1.28,1.28,0,0,1-1,1,2.18,2.18,0,0,1-2.18-.53l0,0-.55-.33a1.43,1.43,0,0,0-.37-.06l-1,.19a1.9,1.9,0,0,0-.43.21h-1a5.54,5.54,0,0,1-1.89.08.53.53,0,0,0-.16,0l-1.63,0c-.58.07-1.07.15-1.07.15l7.3,1.78,2.67.63a8.91,8.91,0,0,1,2.56.61l.05,0c.55.21.91.39.91.39a1.77,1.77,0,0,1,.78,1,2.73,2.73,0,0,1,.25.72,3.13,3.13,0,0,1-.28.4,2.33,2.33,0,0,1-.16.42A2.25,2.25,0,0,1,59.33,54l-.15-.24,0-.06a2.76,2.76,0,0,0-.49-.52,2,2,0,0,0-.73-.32l-.38,0H57.4a28.06,28.06,0,0,1-6.3-1.09,26.88,26.88,0,0,1-4.55-1.39,1.56,1.56,0,0,0,.06.15l4,3.46.49.35a.46.46,0,0,0,.08.13l.3.26a3.33,3.33,0,0,0,1.43.68l.19,0,.11,0,0,0a1.42,1.42,0,0,1,.88.83A1.3,1.3,0,0,1,54,57.86,1.78,1.78,0,0,1,54,58l-.15.07a2.53,2.53,0,0,1-.37.31,7.78,7.78,0,0,1-1,.23c-2.15.5-3.51-.81-3.4-2a2.17,2.17,0,0,0-.68-1.57,9.36,9.36,0,0,0-1.92-1.47,3.19,3.19,0,0,0-.53-.24,20,20,0,0,1-2.62-1.3h0l-.34-.2c-.79-.46-2.11-1.2-3.06-1.73l-.7-.28A7.42,7.42,0,0,1,38,49.19a8.48,8.48,0,0,1-3.38-4,15.79,15.79,0,0,1-.82-1.79h-.9A17.47,17.47,0,0,1,25,41.6,6.31,6.31,0,0,1,21.67,44c.71,1,2.32,1.47,4,1.72l-.28-.12a22.38,22.38,0,0,0,5.18.23c2.38.88,1.14,2.51,1.14,2.51l-.06,0-.06.09a2.51,2.51,0,0,1,.62.61,2.86,2.86,0,0,1,.09.46,2.44,2.44,0,0,1,0,1.52l-.15.11c-.88,1.49-3.88.62-4.08.06-.25-.73-1.29-1.16-1.29-1.16a8.46,8.46,0,0,1-.86-.2,22.48,22.48,0,0,1-7.6-3.25l4.95,3.7a3.84,3.84,0,0,1,.78,1c.51.9,0,1.38,0,1.38l-.14.07a1.37,1.37,0,0,1-.36.3l-.62.15a2.45,2.45,0,0,1-2.45-.18,2.32,2.32,0,0,1-1-2,1.66,1.66,0,0,0-.51-1.48,2.18,2.18,0,0,0-.4-.29,41.27,41.27,0,0,1-3.94-2.72c-8.88-6.55-8.6-13-8.6-13,.77-3.2,2.69-4,4.5-4a6,6,0,0,1,.95,0c.4.12.77.25,1.12.38a9.41,9.41,0,0,1,1.88.77c0-.36,0-.72,0-1.07,0-.12,0-.24,0-.36s.05-.47.09-.7a.29.29,0,0,0,0-.09c.64-3.37,3-6.05,6.28-8.17l.54-.34.15-.1c6.46-4,15.8-5.85,21.57-6.42l2-.26a65.15,65.15,0,0,0,10.14-2,55.78,55.78,0,0,0,6.18-2.24A24.2,24.2,0,0,0,64.7,7c3.84-2.2,5.92-.28,6.28.11.25.19.4.33.4.33S73.81,9.81,75.56,10l.51.09c.34.06.67.14,1,.23a24.24,24.24,0,0,1,2.64.92,1.85,1.85,0,0,1,.27,0h.08l.15,0,.17.05c.58.2.35.58.35.58a3.44,3.44,0,0,1,1.51,2.47A3.94,3.94,0,0,1,81.89,16.74Z"/>
</svg>
