<svg id="Layer_1" data-name="Layer 1" xmlns="http://www.w3.org/2000/svg" width="107.27" height="112.78" viewBox="0 0 107.27 112.78">
  <defs>
    <style>
      .cls-1 {
        fill: #ff0;
      }
    </style>
  </defs>
  <path class="cls-1" d="M106,43.34a43.2,43.2,0,0,0-6.39-14.88.61.61,0,0,0-.07-.1,50.22,50.22,0,0,0-8.4-9.47c.95-2.26,1.38-5.54-.48-8A11.65,11.65,0,0,0,88.8,8.1.49.49,0,0,0,88.68,8a11.43,11.43,0,0,0-1.62-1.46c-.23-.18-.48-.35-.78-.55L86,5.76c-.29-.17-.57-.33-.92-.5L84.56,5l-.49-.21A6.79,6.79,0,0,0,77.91,0a7,7,0,0,0-.78,0,6.72,6.72,0,0,0-6.58,4.77,9.92,9.92,0,0,0-2.18,1,52.25,52.25,0,0,0-7.81-2c-.77-.13-1.54-.23-2.31-.33l-.72-.06c-.53-.06-1.07-.11-1.61-.15l-.66,0h-.21l-1.47,0h-.93l-1.39,0-.41,0c-.2,0-.39,0-.58,0l-.27,0-.86.07c-.4,0-.8.08-1.22.13l-.18,0L47,3.55l-1.35.22-.19,0-.6.11c-.71.14-1.42.29-2.13.46-.93.23-1.9.51-2.87.82A57.35,57.35,0,0,0,8,31,57.7,57.7,0,0,0,0,62.25,54.61,54.61,0,0,0,3.63,80c.35.89.71,1.77,1.08,2.6s.8,1.72,1.22,2.55a51.18,51.18,0,0,0,8.66,12.15l.19.2c.89.92,1.83,1.8,2.75,2.62s1.71,1.46,2.62,2.16a49.11,49.11,0,0,0,5.33,3.58c1.34.79,2.74,1.52,4.15,2.18,1,.47,2.06.91,3.1,1.32s2,.74,3,1.06l.47.14a50.64,50.64,0,0,0,10.79,2c1.34.1,2.69.15,4,.15a51.34,51.34,0,0,0,6.78-.44,54.47,54.47,0,0,0,12.31-3.1A57.14,57.14,0,0,0,93.08,93.06a59.66,59.66,0,0,0,6.19-8.71,57.26,57.26,0,0,0,6.89-40.29C106.11,43.81,106.06,43.55,106,43.34Zm-11.92,38a53.51,53.51,0,0,1-5.57,7.82A51,51,0,0,1,68,103.63a48.19,48.19,0,0,1-11,2.76,45.72,45.72,0,0,1-9.57.26,44.57,44.57,0,0,1-9.51-1.8l-.41-.12c-.89-.28-1.78-.59-2.67-.94s-1.83-.74-2.74-1.16c-1.23-.58-2.45-1.22-3.65-1.92a45.28,45.28,0,0,1-4.7-3.15c-.79-.61-1.56-1.25-2.3-1.9s-1.65-1.52-2.43-2.32l-.14-.14a45.31,45.31,0,0,1-7.67-10.76c-.38-.74-.74-1.49-1.08-2.26s-.66-1.53-1-2.3h0A48.94,48.94,0,0,1,6,62H6a51.88,51.88,0,0,1,7.14-28l0-.05h0A51.39,51.39,0,0,1,41.69,10.9c.83-.26,1.65-.5,2.48-.7.61-.15,1.22-.28,1.83-.4l.67-.11,1.17-.2.79-.09,1-.12.83-.06.63,0h.33l1.23,0h.8l1.27,0c.25,0,.51,0,.76,0l1.39.12.63.06c.67.08,1.34.18,2,.29A47,47,0,0,1,68,12c.62.23,1.24.47,1.85.73.74-1.75,2.84-3,5.57-2.09a3.39,3.39,0,0,1,.55.24c0-.26,0-.52,0-.76s0-.7.06-1,0-.59.07-.84c.1-1,.15-1.57.15-1.57.06-.58.51-.71,1.1-.66s1,.24,1,.78c0,0,0,.57,0,1.57,0,.25,0,.51,0,.81s0,.6,0,.93h0A5.92,5.92,0,0,1,80.25,10l.59.1c.19.05.38.09.56.15l.27.09.14.05.07,0h0l0,0,.2.09.29.14A3.69,3.69,0,0,1,83,11a4.87,4.87,0,0,1,.47.32,6.07,6.07,0,0,1,.89.8,5.21,5.21,0,0,1,1.21,2.22l0,.13a.76.76,0,0,1,.31.07A3.28,3.28,0,0,1,85.41,17a.43.43,0,0,1,0,.05,4.52,4.52,0,0,1-1.65,2,4.21,4.21,0,0,1-1.37.59c.44.32.9.61,1.33.93.83.63,1.64,1.26,2.43,1.92a45,45,0,0,1,8.5,9.32h0a36.8,36.8,0,0,1,5.51,12.82c0,.2.09.41.13.61A51.35,51.35,0,0,1,94.09,81.33Z"/>
  <path class="cls-1" d="M81.38,14.2a1.83,1.83,0,0,0-.24-.13L80.92,14l-.09,0-.2-.08h-.08l0,0-.06,0-.13,0c-.09,0-.17,0-.25-.05l-.24,0a2.18,2.18,0,0,0-.82.15l-.1,0L79,14c.07.18.16.36.25.55s.17.32.27.48c.77-.15,1.59-.27,2.37-.37l-.11-.13A3.15,3.15,0,0,0,81.38,14.2Z"/>
</svg>
