<svg id="Layer_1" data-name="Layer 1" xmlns="http://www.w3.org/2000/svg" width="96.27" height="101.15" viewBox="0 0 96.27 101.15">
  <defs>
    <style>
      .cls-1 {
        fill: #ff0;
      }
    </style>
  </defs>
  <path class="cls-1" d="M72.67,13.26c-.06,0-.13-.08-.2-.13a2,2,0,0,1-.2-.09l-.08,0L72,13l0,0h0l0,0-.06,0-.11,0-.22,0-.21,0a1.9,1.9,0,0,0-.73.13l-.08,0v0a5.11,5.11,0,0,0,.22.48,3.66,3.66,0,0,0,.26.42c.68-.13,1.39-.23,2.08-.31l-.1-.12A2.07,2.07,0,0,0,72.67,13.26Z"/>
  <path class="cls-1" d="M95.28,39.53c0-.22-.09-.44-.14-.65a39,39,0,0,0-5.75-13.4,45.08,45.08,0,0,0-7.24-8.27A7.62,7.62,0,0,0,81.48,10,11.06,11.06,0,0,0,79.77,7.4l-.12-.13A12,12,0,0,0,78.12,5.9c-.21-.17-.44-.32-.71-.5a3.62,3.62,0,0,0-.33-.2,7.72,7.72,0,0,0-.87-.48l-.2-.1-.39-.17a6.7,6.7,0,0,0-6-4.41,6.51,6.51,0,0,0-.75,0,6.64,6.64,0,0,0-6.38,4.36A11.07,11.07,0,0,0,61.09,5a46.72,46.72,0,0,0-6.72-1.66c-.69-.12-1.38-.22-2.08-.3L51.65,3c-.48-.05-1-.1-1.45-.13l-.78,0-1.31,0h-.85c-.43,0-.86,0-1.24,0h-.39l-.71.05-.82.06L43,3.05l-.19,0-.63.08L41,3.35l-.15,0-.57.1c-.64.12-1.27.26-1.91.42-.85.21-1.72.45-2.59.73A51.42,51.42,0,0,0,7.21,27.71a.41.41,0,0,1,0,.09A51.82,51.82,0,0,0,0,55.78a49.06,49.06,0,0,0,3.23,16c.3.78.62,1.56,1,2.33S5,75.62,5.32,76.36A46.18,46.18,0,0,0,13.13,87.3l.14.15c.81.83,1.65,1.63,2.47,2.35s1.54,1.32,2.36,1.94A44.39,44.39,0,0,0,22.88,95c1.21.71,2.46,1.36,3.73,2,.92.42,1.86.82,2.78,1.18s1.82.67,2.74,1l.41.12A45.43,45.43,0,0,0,42.23,101c1.2.09,2.42.14,3.62.14a45.87,45.87,0,0,0,6.08-.4A48.48,48.48,0,0,0,63,98,51.38,51.38,0,0,0,83.55,83.46a52.46,52.46,0,0,0,5.55-7.8A51.35,51.35,0,0,0,95.28,39.53ZM79,79.55A45.11,45.11,0,0,1,60.85,92.36a42,42,0,0,1-9.69,2.44A40.55,40.55,0,0,1,42.7,95a39.36,39.36,0,0,1-8.41-1.59l-.36-.11c-.8-.25-1.58-.52-2.36-.82s-1.63-.66-2.43-1C28.05,91,27,90.4,25.91,89.78A39,39,0,0,1,21.76,87q-1.07-.81-2-1.68c-.75-.66-1.46-1.34-2.15-2l-.12-.13a39.68,39.68,0,0,1-6.79-9.51c-.33-.66-.65-1.33-1-2s-.58-1.35-.84-2h0A43.26,43.26,0,0,1,6,55.57H6a45.82,45.82,0,0,1,6.31-24.75l0,0h0a45.4,45.4,0,0,1,25.2-20.44c.73-.24,1.46-.44,2.19-.62.54-.14,1.08-.25,1.62-.36l.6-.1,1-.17L43.7,9c.31,0,.63-.08.94-.1s.48,0,.73-.06l.56,0h.29l1.09,0H48c.37,0,.75,0,1.12,0s.45,0,.67,0L51.05,9l.55,0c.59.07,1.19.15,1.78.25a42.21,42.21,0,0,1,7.47,2c.55.2,1.09.42,1.64.64a3.75,3.75,0,0,1,4.92-1.84,2.68,2.68,0,0,1,.49.21c0-.23,0-.46,0-.67s0-.62,0-.89S68,8.2,68,8c.08-.89.13-1.39.13-1.39,0-.51.45-.63,1-.58s.91.21.89.69c0,0,0,.51,0,1.39,0,.22,0,.45,0,.71s0,.54,0,.83v0a5.42,5.42,0,0,1,1.7-.11c.17,0,.35.05.52.09a4.07,4.07,0,0,1,.5.13l.24.08.12,0,.06,0h0l0,0,.18.07.25.13a3.28,3.28,0,0,1,.46.25c.14.1.29.19.42.29a5.21,5.21,0,0,1,.78.71,4.52,4.52,0,0,1,1.08,2s0,.08,0,.12a.57.57,0,0,1,.28.06,2.89,2.89,0,0,1-.42,2.17.06.06,0,0,1,0,0,3.94,3.94,0,0,1-1.45,1.8,3.83,3.83,0,0,1-1.22.53c.39.27.8.54,1.18.82.74.55,1.45,1.12,2.14,1.7a39.56,39.56,0,0,1,7.53,8.24h0a32.62,32.62,0,0,1,4.87,11.34l.12.54a45.42,45.42,0,0,1-5.48,31.92A47.1,47.1,0,0,1,79,79.55Z"/>
  <path class="cls-1" d="M64.71,12.9c.38.18.77.37,1.15.57.07-.18.13-.36.21-.55s.17-.34.27-.52A1.48,1.48,0,0,0,64.71,12.9Z"/>
</svg>
