<svg id="Layer_1" data-name="Layer 1" xmlns="http://www.w3.org/2000/svg" width="145.36" height="122.16" viewBox="0 0 145.36 122.16">
  <defs>
    <style>
      .cls-1 {
        fill: #ff0;
      }
    </style>
  </defs>
  <g>
    <path class="cls-1" d="M76.33,71c-1.38-.66-3.62-5-5-7.87l-5.2-.1c.48,2,1.32,4.63,2.23,7.34,0-.17.05-.33.07-.51,0,0,.34,1.45.92,3.38s1.24,3.49,1.76,4.89a13.94,13.94,0,0,0,2.37,4A2.68,2.68,0,0,1,73,82C77.42,83.31,78.36,71.94,76.33,71Z"/>
    <path class="cls-1" d="M51,62.59c-3.79,0-6.84-.12-9.29-.31a17.47,17.47,0,0,0,3.79,9.8C51.53,77,61,76.84,61,76.84c5.39-1.22,3.73-9.65,2.53-13.89C56.13,62.78,51,62.59,51,62.59Zm7.71,8.13a21.85,21.85,0,0,1-7.63-2.13c.88,0,3.64.13,7.53.24A12.54,12.54,0,0,1,58.74,70.72Z"/>
    <path class="cls-1" d="M75.62,66.31c1.48,2.79,2-.42,2.12-3.13l-4,0C74.59,64.72,75.62,66.31,75.62,66.31Z"/>
    <path class="cls-1" d="M33.45,61a8.39,8.39,0,0,0,6.31,2.2,2.78,2.78,0,0,0,.1-1.07A33.55,33.55,0,0,1,33.45,61Z"/>
    <path class="cls-1" d="M99.32,63c-2.43.07-5,.12-7.58.15C94.42,66.89,97.3,65.21,99.32,63Z"/>
    <path class="cls-1" d="M142.71,45.18c-5.07-8.65-11-14.06-17.62-16.12C107.44,7.34,77.07,2,74,1.49A63.49,63.49,0,0,0,60.79,0C36.56,0,28.2,16.35,26.72,19.79a24.2,24.2,0,0,0-2.56,6.31C15.13,28,9,33.2,6.44,41.27,3.29,44-1.08,49,.24,54.57.89,57.3,3,60.8,9.59,62.07a126.69,126.69,0,0,0,16.63,2.51c1.59,2.29,4.35,4.74,9.1,6.58,1.49,4.85,6,12,19.12,16,1.91.66,4.3,2.3,4.51,3.1a6.25,6.25,0,0,0-.1,1,78.94,78.94,0,0,0,.67,12c-11.21,1.08-16.9,3.17-16.9,9,0,6.92,8.73,8,14.5,8.72a198.9,198.9,0,0,0,23,1.19,198.9,198.9,0,0,0,23-1.19c5.78-.72,14.5-1.8,14.5-8.72,0-6.23-7.08-7.5-10.48-8.11a109.79,109.79,0,0,0-11.94-1.33,37.68,37.68,0,0,1-3.56-13,65.37,65.37,0,0,1-.23-7.09c2-4.08,3.31-7,4.21-9h.91c.76,0,1.44,0,2.06-.07.27,0,.55,0,.82,0a8.54,8.54,0,0,0,7.91-5c7.14-.46,10.19-1.15,11.93-1.76.26-.07.62-.16,1-.29,1.94,0,3.67,0,4.84,0h1.32c.71,0,1.39,0,2,0h0c7.7,0,12.88-2.3,15.39-6.84C147.46,53.51,143.44,46.38,142.71,45.18ZM126.63,60.65s-3.29,0-7.18-.06a14.83,14.83,0,0,1-1.88.56c-2.38.93-8.09,1.48-15.22,1.77.13,2.37-.34,5.29-3.67,4.72a38.75,38.75,0,0,1-6.94-.17C91.48,69,85.5,81.26,85.5,81.26a71.37,71.37,0,0,0,.23,9.1,41.16,41.16,0,0,0,5.82,18.09l.35.18c11.59.58,19.78,2,19.78,3.62,0,2.16-14.12,3.91-31.53,3.91s-31.53-1.75-31.53-3.91c0-1.51,6.93-2.82,17.07-3.46.39-.27.73-.52,1-.76-2.16-6.3-1.87-16.67-1.87-16.67,1.25-6.62-8.57-9.93-8.57-9.93-16.55-5-15.69-14.89-15.69-14.89-8.13-2.1-10-5.71-10.44-7.59l-.07-.06a128.39,128.39,0,0,1-19.23-2.68c-11.4-2.13.88-11.53.88-11.53C13.88,35.09,21.58,32,29.54,31.44a16.85,16.85,0,0,1,2.56-9S40.27.33,72.92,7.39c0,0,32.05,4.83,48.71,27,4.87.9,10.47,4.54,15.94,13.89C137.57,48.27,145.93,61.62,126.63,60.65Z"/>
    <polygon class="cls-1" points="82.58 71.59 82.59 71.59 82.58 71.59 82.58 71.59"/>
    <path class="cls-1" d="M81.66,63.21c.15,1.74.41,4.06.62,5.82a12.69,12.69,0,0,0,.63,2.62c5.31,1,5.91-4.73,5.76-8.44Z"/>
  </g>
</svg>
