<svg id="Layer_1" data-name="Layer 1" xmlns="http://www.w3.org/2000/svg" width="112.99" height="136.8" viewBox="0 0 112.99 136.8">
  <defs>
    <style>
      .cls-1 {
        fill: #ff0;
      }
    </style>
  </defs>
  <path class="cls-1" d="M112.42,120.08a2.65,2.65,0,0,1-.13-.31c-.05-.15-.1-.32-.18-.58s-.12-.44-.18-.68h0c-.06-.3-.14-.72-.19-1a.43.43,0,0,0,0-.11c-.12-.66-.23-1.41-.34-2.22h0c-.05-.42-.12-1-.18-1.5h0c0-.12,0-.28-.06-.45v0h0c0-.33-.08-.69-.11-1h0c0-.47-.08-.94-.11-1.42v-.06c-.07-1-.13-2.1-.18-3.15,0,0-.05-1.22-.07-1.74,0,0,0-1.27,0-1.87l-6,.19,6-.3,0-1.69s0-1.2,0-1.73c0,0,0-1.26,0-1.81V96.86l0-1.89V93.22s.07-3.44.07-3.44l0-1.74.11-3.36.1-2.74-6-.24,6,0,0-1.24c.09-2.08.17-3.73.23-4.76l.07-1.26a6,6,0,0,0-2-4.7C86.26,48.8,70.64,22.05,63.14,9.2l-.21-.35A6.49,6.49,0,0,0,63,8,8,8,0,1,0,47.05,8a8.14,8.14,0,0,0,.23,1.92l-.3.55L46.08,12l-1,1.66L44,15.45,42.83,17.3c-.23.34-1.26,1.92-1.26,1.92-.28.44-1.32,2-1.32,2l-1.39,2.05-1.13,1.62-.33.49c-.43.61-.87,1.22-1.3,1.84l-.22.31c-1.54,2.17-3.19,4.42-4.89,6.71l-1.7,2.28-1.75,2.31-1.77,2.31L24,43.45,21.3,46.83l-2.07,2.59L17.12,52,15.2,54.36,13.35,56.6l-1.92,2.28L9.58,61.07,7.73,63.22,5.87,65.35,4.22,67.23l-2.68,3A6,6,0,0,0,.19,75.72c0,.15.08.32.11.47l.09.39.17.85.16.9.16,1L1,80.45l.15,1.18.14,1.26.14,1.33.12,1.38L1.7,87l.1,1.48.1,1.55L2,91.61l.07,1.6.07,1.61.05,1.64,0,1.69,0,1.64,0,1.72v3.37l0,1.67,0,1.74,0,1.59s0,1.18-.06,1.63L2,113.07l-.1,1.61-.1,1.53s-.09,1.13-.12,1.48l-.13,1.45-.15,1.4c-.05.45-.1.89-.16,1.33a6,6,0,0,0,3.79,6.37c2.38.92,4.88,1.78,7.41,2.55a133.49,133.49,0,0,0,21.79,4.63c3.28.43,6.65.76,10,1,1.58.11,3.17.19,4.74.25l1.37,0,1.37,0,2,0h4.63l1.58,0,2.8-.06h.18l2.14-.09,1.1-.06q.68,0,1.32-.06l1-.06,2.71-.15a4.82,4.82,0,0,0,.86-.11c1.18-.09,2.33-.2,3.48-.32l.68-.06c1.42-.15,2.82-.31,4.18-.48a135.5,135.5,0,0,0,21.75-4.39,45.15,45.15,0,0,0,7.65-3A6,6,0,0,0,112.42,120.08Zm-12,5.1a130.64,130.64,0,0,1-20.77,4.18c-1.31.16-2.66.32-4,.46l-.68.06c-1.14.12-2.29.23-3.47.32l-.58.05v0l-2.69.14-1,.07c-.61,0-1.24.06-1.86.09l-2.56.11H62.5l-1.08,0h-1l-2.08,0H53.81c-.84,0-1.69,0-2.54-.07-.67,0-1.33,0-2-.05-1.52-.06-3.05-.14-4.58-.25-3.2-.22-6.43-.53-9.65-.95a127.94,127.94,0,0,1-20.81-4.41c-2.37-.73-4.71-1.53-7-2.42l.18-1.43.09-.92.06-.56c0-.36.07-.73.1-1.1,0-.14,0-.28,0-.42l.09-1.16c0-.14,0-.27,0-.41,0-.4,0-.8.08-1.21,0-.13,0-.26,0-.39,0-.42,0-.84.08-1.27,0-.12,0-.24,0-.36l.06-1.29c0-.13,0-.25,0-.37,0-.45,0-.9.05-1.36,0-.1,0-.21,0-.32,0-.45,0-.92,0-1.38,0-.1,0-.21,0-.32l0-1.35v-.37c0-.45,0-.89,0-1.34,0-.13,0-.26,0-.39V103.2c0-.46,0-.91,0-1.36v-.38c0-.44,0-.87,0-1.31v-.42c0-.44,0-.88,0-1.31,0-.14,0-.27,0-.4l0-1.28c0-.15,0-.29,0-.44,0-.41,0-.83,0-1.24,0-.15,0-.3,0-.45,0-.4,0-.81-.05-1.21,0-.15,0-.3,0-.46L8,91.76c0-.15,0-.3,0-.46l-.06-1.12,0-.5c0-.36,0-.72-.07-1.07l0-.5c0-.35,0-.69-.07-1,0-.17,0-.34,0-.51,0-.33,0-.66-.08-1s0-.34,0-.5c0-.32,0-.63-.08-.94s0-.34-.05-.51l-.09-.87c0-.18,0-.35,0-.52s-.06-.55-.09-.81l-.06-.52-.09-.76c0-.17,0-.33-.07-.5s-.06-.48-.1-.71,0-.32-.07-.48-.06-.44-.1-.66,0-.31-.07-.46-.07-.41-.11-.61,0-.29-.08-.43-.07-.37-.1-.55l-.09-.41c0-.17-.07-.34-.11-.5L6,74.22H6l.18-.2c.19-.2.37-.41.55-.61.45-.49.89-1,1.34-1.49l.48-.54c.45-.51.91-1,1.36-1.54l.48-.54,1.38-1.58.5-.58,1.38-1.6.49-.57,1.4-1.65.48-.57,1.4-1.66.54-.66c.46-.54.91-1.08,1.36-1.63l.51-.62,1.39-1.68.55-.68,1.33-1.64.64-.8L25,51.85l.72-.91,1.14-1.43.76-1,1.09-1.38.74-1,1.09-1.4.87-1.14.92-1.19,1.18-1.56.58-.77c.48-.64,1-1.27,1.43-1.91l.31-.41c1.72-2.31,3.38-4.59,5-6.81a3.46,3.46,0,0,1,.22-.31c.44-.64.89-1.27,1.32-1.89.12-.16.23-.32.34-.49.39-.56.78-1.11,1.15-1.66.14-.19.27-.39.4-.58l1-1.51.44-.67.92-1.37.48-.75c.27-.41.55-.82.81-1.23l.49-.77.72-1.14.5-.81c.21-.34.42-.69.63-1l.5-.84c.18-.31.37-.62.54-.92l.49-.85.47-.82c.17-.3.32-.58.47-.86l.4-.73.43-.83.34-.67c.1-.19.18-.38.27-.57A2,2,0,0,1,53.05,8a2,2,0,1,1,3.27,1.46c6.93,11.75,23.38,41.52,49,64.79,0,0,0,.06,0,.17h0c0,.19,0,.54-.06,1h0c-.06,1-.15,2.71-.24,4.82v0c0,.39,0,.8,0,1.22a1.21,1.21,0,0,1,0,.19c0,.41,0,.82,0,1.25v.18c0,.44,0,.89,0,1.35v0c0,.45,0,.92,0,1.39v.27c0,.46,0,.93,0,1.41a2.62,2.62,0,0,1,0,.28l0,1.45c0,.1,0,.2,0,.3l0,1.54v.18l0,1.64V93c0,.56,0,1.12,0,1.69v.2c0,.55,0,1.1,0,1.66a1.77,1.77,0,0,1,0,.23v1.87c0,.58,0,1.17,0,1.75v.06c0,.6,0,1.2,0,1.8v0c0,.58,0,1.16,0,1.74v.16c0,.56,0,1.12,0,1.67a1.21,1.21,0,0,0,0,.19c0,.55,0,1.11.06,1.65a.49.49,0,0,0,0,.12c0,1.15.11,2.27.19,3.36v0l.12,1.53v.15c0,.49.09,1,.14,1.43l0,.16h0c0,.47.1.92.15,1.36a.5.5,0,0,1,0,.12c.12.91.25,1.76.4,2.55,0,0,0,.07,0,.1.07.37.15.73.23,1.07l0,.15h0c.08.33.16.64.24.94a1,1,0,0,1,0,.14q.13.45.27.84a.3.3,0,0,1,0,.1c.1.26.2.52.31.75A40.43,40.43,0,0,1,100.37,125.18Z"/>
</svg>
