<svg id="Layer_1" data-name="Layer 1" xmlns="http://www.w3.org/2000/svg" width="88.29" height="64.75" viewBox="0 0 88.29 64.75">
  <defs>
    <style>
      .cls-1 {
        fill: #ff0;
      }
    </style>
  </defs>
  <path class="cls-1" d="M88.12,32c-1.23-5.12-4.93-8.37-9.76-8.62a20.11,20.11,0,0,0-7.68-8.32L70,14.66l-.17-.1c-8.75-5.36-20.41-6.91-24-7.27l-2-.26A60.21,60.21,0,0,1,34.72,5.2a51.48,51.48,0,0,1-5.46-2A20.78,20.78,0,0,1,26.87,2h0l-.29-.18A12.84,12.84,0,0,0,20.18,0a10,10,0,0,0-6.86,2.65c-.24.2-.43.37-.56.5a10.27,10.27,0,0,1-1.3,1l-.31,0c-.52.1-1.06.22-1.54.36-1,.28-1.93.61-2.56.85l-.23,0a6.42,6.42,0,0,0-1,.29A6.57,6.57,0,0,0,2.37,8.6a9.26,9.26,0,0,0-2.26,5,9.88,9.88,0,0,0,.75,5.46A12.62,12.62,0,0,0,2,21.28a6.47,6.47,0,0,0,.73.91s.23.23.64.61l.21.21a13.71,13.71,0,0,0,1.55,1.4c.37.28.78.57,1.21.85A26.58,26.58,0,0,0,15.9,30a24.28,24.28,0,0,1,3,1.49l-1,.07-1.07.06-1.06,0c-4.6.05-8.23,2.25-9.54,5.75a7.76,7.76,0,0,0,.66,7.1,6.34,6.34,0,0,0,1,1.15A6.13,6.13,0,0,0,10,47.12a8.62,8.62,0,0,0,.9.32l.2.38a8.18,8.18,0,0,0,.43.7,1.33,1.33,0,0,1,.14.19,7.84,7.84,0,0,0,6.32,3,9.52,9.52,0,0,0,1.43-.11,7.58,7.58,0,0,0-.17.82A6,6,0,0,0,20,56.29c0,.06.07.11.1.16s.14.29.18.39a6,6,0,0,0,1.41,1.76,8.47,8.47,0,0,0,5.57,2.15,8.13,8.13,0,0,0,1.6-.15l.14.25A6.5,6.5,0,0,0,30.93,63a7.56,7.56,0,0,0,.63.46,5.8,5.8,0,0,0,1.6.73,12.92,12.92,0,0,0,1.52.36,10.48,10.48,0,0,0,2.07.22A8.7,8.7,0,0,0,43.2,62,7.89,7.89,0,0,0,45,58.78a29.68,29.68,0,0,0,2.92-1.46l.48-.28L51,55.53l.38-.15.39-.17A8,8,0,0,0,58,57.87a10.28,10.28,0,0,0,2.79-.38A6.91,6.91,0,0,0,62,58.3a5.22,5.22,0,0,0,1,.41c.26.08.51.14.75.2a9.37,9.37,0,0,0,2.78.44h0a8.32,8.32,0,0,0,8-6.09c1-.64,1.87-1.3,2.78-2,11.07-8.19,11-17.08,11-18.06A6.37,6.37,0,0,0,88.12,32ZM73.69,46.47a41.49,41.49,0,0,1-4,2.72,2.36,2.36,0,0,0-.39.29A1.66,1.66,0,0,0,68.83,51a2.29,2.29,0,0,1-1,2,2.45,2.45,0,0,1-2.45.18L64.76,53a1.5,1.5,0,0,1-.37-.3l-.13-.07s-.51-.48,0-1.38a3.84,3.84,0,0,1,.78-1L70,46.5a22.36,22.36,0,0,1-7.6,3.25,7.38,7.38,0,0,1-.86.2s-1,.43-1.28,1.16c-.2.56-3.2,1.43-4.08-.06L56,50.94a2.4,2.4,0,0,1,0-1.52c0-.15,0-.29.1-.46a2.51,2.51,0,0,1,.62-.61l-.06-.09-.06,0s-1.25-1.63,1.13-2.51a22.47,22.47,0,0,0,5.19-.23l-.28.12c1.66-.25,3.27-.75,4-1.72a6.28,6.28,0,0,1-3.29-2.35,17.47,17.47,0,0,1-7.94,1.75h-.9a15,15,0,0,1-.83,1.79,8.46,8.46,0,0,1-3.37,4,7.1,7.1,0,0,1-1.18.65l-.7.28c-.94.53-2.26,1.27-3,1.73l-.34.2h0a20.63,20.63,0,0,1-2.62,1.3,2.87,2.87,0,0,0-.53.24,9.1,9.1,0,0,0-1.92,1.47,2.19,2.19,0,0,0-.69,1.57c.11,1.19-1.25,2.5-3.4,2a7.66,7.66,0,0,1-1-.23,2.3,2.3,0,0,1-.38-.31L34.32,58l-.08-.17a1.3,1.3,0,0,1-.12-1.58,1.4,1.4,0,0,1,.88-.83s0,0,0,0l.11,0,.19,0a3.31,3.31,0,0,0,1.44-.68l.3-.26.08-.13.49-.35,4-3.46a.58.58,0,0,0,.06-.15,27,27,0,0,1-4.54,1.39,28.24,28.24,0,0,1-6.31,1.09h-.13l-.38,0a2.14,2.14,0,0,0-.73.32,3.12,3.12,0,0,0-.49.52l0,.06A1.88,1.88,0,0,0,29,54a2.25,2.25,0,0,1-3.34.08,2.84,2.84,0,0,1-.17-.42,4.62,4.62,0,0,1-.27-.4,2.47,2.47,0,0,1,.24-.72,1.81,1.81,0,0,1,.78-1s.37-.18.92-.39l0,0a9.08,9.08,0,0,1,2.56-.61l2.68-.63L39.7,48s-.49-.08-1.07-.15l-1.64,0-.16,0A5.48,5.48,0,0,1,35,47.83H34a2.13,2.13,0,0,0-.43-.21l-1-.19a1.43,1.43,0,0,0-.37.06l-.55.33,0,0a2.17,2.17,0,0,1-2.18.53,1.3,1.3,0,0,1-.95-1c0-1.27.93-1.92,2.05-2.21l.18-.06.45-.07a5.85,5.85,0,0,1,2.71.21c.5.08.85.16.85.16l9.86.32A12,12,0,0,0,46,44.32l.29-.34.1-.13a4.11,4.11,0,0,0,.27-.35L47,43a2.21,2.21,0,0,0,.4-.92c-.48-.24-6.21-3.1-8-4.25-1-.63-3.75-2-6.4-3.31l-.07,0-.07.11.13.07-1.38,2.43a1.88,1.88,0,0,0-.12,1.08.64.64,0,0,0,.53.33,1,1,0,0,0,.34,0,2.47,2.47,0,0,1,1.32.73c.9.83.22,1.73-.37,2.27L33,41.8l-.29.07,0,0a1.71,1.71,0,0,1-1.42-.15c-.49-.26-.89-.82-.89-2a6.73,6.73,0,0,0-3.05.46l-1.05.58C24.55,41.92,22,43.57,21,43.54h0l-.41.19a1.47,1.47,0,0,0-.43.56,1.94,1.94,0,0,1-.19.53c-.4.91-2.7,1.31-3.49.22h0l-.08-.13s0,0,0-.06a1.37,1.37,0,0,1-.14-.46s-.67-1,3.78-2.64l1.23-.68,2.5-1.46c-2.35.78-8.53.83-8.53.83l-.08.12a2.36,2.36,0,0,1-1,1,1.61,1.61,0,0,1-.91.19,2.21,2.21,0,0,1-.76-.15l-.13-.2a2.34,2.34,0,0,1-.27-.2,1.77,1.77,0,0,1-.09-1.62c.37-1.15,2-1.92,4-1.94l1.35,0c.33,0,.65,0,1,0,2.12-.13,3.77-.35,3.77-.35a4.61,4.61,0,0,0,1.3-.25l.08,0c3-1.08,4.71-4.9,4.71-4.9l-.54-.52h0a12.59,12.59,0,0,1-1.78-1.76c-.62-.63-1.26-1.3-1.8-1.91-.31-.3-.64-.6-1-.89a27.62,27.62,0,0,0-5.18-2.67,2,2,0,0,1-.23-.06,21.17,21.17,0,0,1-7.76-3.87c-.36-.24-.71-.48-1-.71a10.13,10.13,0,0,1-.93-.86h0c-.06-.08-.13-.15-.2-.23C7.23,18.2,7,18,7,18a7,7,0,0,1-.6-1.23,3.94,3.94,0,0,1-.35-2.31A3.41,3.41,0,0,1,7.56,12s-.23-.38.35-.58l.17-.05.15,0H8.3a2.19,2.19,0,0,1,.28,0,24.54,24.54,0,0,1,2.63-.92c.33-.09.67-.17,1-.23l.51-.09c1.74-.22,4.18-2.55,4.18-2.55a4.17,4.17,0,0,1,.39-.33c.37-.39,2.45-2.31,6.28-.11a25.07,25.07,0,0,0,3.24,1.67A56,56,0,0,0,33,11a65.24,65.24,0,0,0,10.13,2l2,.26c5.77.57,15.11,2.47,21.56,6.42l.16.1.54.34c3.29,2.12,5.64,4.8,6.27,8.17a.29.29,0,0,1,0,.09c0,.23.07.46.09.7s0,.24,0,.36c0,.35,0,.71,0,1.07a9.41,9.41,0,0,1,1.88-.77c.35-.13.72-.26,1.12-.38a6,6,0,0,1,1,0c1.81,0,3.72.84,4.5,4C82.29,33.44,82.57,39.92,73.69,46.47Z"/>
</svg>
