<svg id="Layer_1" data-name="Layer 1" xmlns="http://www.w3.org/2000/svg" width="285.79" height="387.5" viewBox="0 0 285.79 387.5">
  <defs>
    <style>
      .cls-1 {
        fill: #ff0;
      }
    </style>
  </defs>
  <g>
    <path class="cls-1" d="M250.44,36.1C210.16,1,149.77,0,143,0h-.47l-.22,0H142l.61,0h-.14C139.76,0,76.13.42,35,36.51,17.93,51.49,6.55,72.25,2.09,96.56c-4,21.67-2.24,45.78,4.9,67.89,13.89,43,81.1,121.11,98.15,140.47a6,6,0,0,0,1.26,3.38l15.54,19.93-2.37,16.23a6.11,6.11,0,0,0-.06.86V363c0,1,0,2.05.14,3.17v11.44a9.83,9.83,0,0,0,1.89,5.8,9.55,9.55,0,0,0,7.9,4.13H158.8a9.73,9.73,0,0,0,7.94-4.18l.21-.3a9.81,9.81,0,0,0,.81-1.5c.07-.17.13-.34.2-.52s.2-.55.28-.84.11-.45.15-.68a9.66,9.66,0,0,0,.19-1.91V345.32a5.9,5.9,0,0,0-.48-2.34l-3-14.72,15.13-20a5.93,5.93,0,0,0,1.21-3.53c3.82-4.37,11.05-12.74,19.81-23.35,30.58-36.84,69.17-87.46,79.34-119.35,1.62-5.07,2.95-12.77,4-22.88a144.61,144.61,0,0,0,1.27-18.47c0-.56,0-1.08,0-1.59C285.49,85.16,273,55.71,250.44,36.1Zm29.34,84.47a136.68,136.68,0,0,1-1.23,17.85c-.78,7.82-2,16.29-3.73,21.76-10.28,32.25-52.15,85.92-78.24,117.34-10.08,12.2-18,21.35-21.34,25.1h.15v2l-16.77,22.21,3.84,18.5h.12v32.24a4.08,4.08,0,0,1-.12.93v.05c0,.13-.09.26-.14.39s0,.13-.07.2a5.15,5.15,0,0,1-.33.61.18.18,0,0,0,0,.07,3.69,3.69,0,0,1-3.07,1.68H129.44a3.62,3.62,0,0,1-3-1.62,3.88,3.88,0,0,1-.77-2.31V365.85c-.09-1-.14-2-.14-2.9V345.32l2.19-15.06h0l.55-3.7-17.12-21.95v-2C99,288.92,26.79,206.22,12.7,162.6-.61,121.41,4.7,71.09,39,41,79.24,5.67,142.27,6,142.55,6h0l.23.14V6S206,5.35,246.5,40.63c23,20,33.08,49.24,33.27,78.72A11.23,11.23,0,0,1,279.78,120.57Z"/>
    <path class="cls-1" d="M129.44,345.32H160l-3-15.06H130l-2.08,15.06Zm5.8-9.06h16.87l.61,3.06H134.81Z"/>
    <path class="cls-1" d="M123.88,304.61H114l16.5,21.95v0l25.87.22,16.12-22.14,2.88-.05H123.88Zm29.48,16.16-19.81-.17-7.51-10h34.71Z"/>
  </g>
</svg>
