<svg id="Layer_1" data-name="Layer 1" xmlns="http://www.w3.org/2000/svg" width="158.03" height="165.39" viewBox="0 0 158.03 165.39">
  <defs>
    <style>
      .cls-1 {
        fill: #ff0;
      }
    </style>
  </defs>
  <g>
    <path class="cls-1" d="M51.76,88.35l-.7.16a9.74,9.74,0,0,0,5.24,3.06c2.47-.52,1.84-3.76,1.38-5.32A37.27,37.27,0,0,1,51.76,88.35Z"/>
    <path class="cls-1" d="M86.89,87.46l.19-.06c-13.58-.93-23.89-2-23.89-2a24.43,24.43,0,0,1-3.54-.14l-.22.11h.7l1.09,6.17s3.82,11.64,12,11.64,7.65-1.37,7.65-1.37l-1.13-14.2,2.82.3s0,21.44,4.86,18,4.45-6.16,4.45-6.16ZM73.23,97.21c-2,0-4.09-2.82-5.37-5.32,1.74.16,3.85.35,6.25.54l.38,4.77Z"/>
    <path class="cls-1" d="M92.9,96.36l.48-8.56-4-.25Z"/>
    <path class="cls-1" d="M141.22,37.41a5.29,5.29,0,0,0-.77-.93A64.14,64.14,0,0,0,126.82,26a8.71,8.71,0,0,0-.78-.83c-.31-.39-1-1.32-1.54-2.09-5.43-7.48-16.72-23-29.95-23a17.48,17.48,0,0,0-2.71.22C79.55,2.27,61.53,13.63,51.66,20.39c-16.6,8.29-35.25,21.73-39.27,25.45l-.83.77C6.77,51,.8,56.5.09,65.46c-.94,11.75,6,23.05,16.08,26.29l.38.11a106.33,106.33,0,0,0,25.5,3.42c1.68,0,3.35,0,5-.16a18.5,18.5,0,0,0,6.6,4.62l1.29,4.46c2.57,8.87,8.33,11.38,13.91,13.82,1.11.48,2.26,1,3.44,1.56,3.27,1.57,3.69,1.78,2.58,8.85-.61,3.88,0,9.54,1.69,16.9-4.75.3-8.93.72-12.32,1.23-4.73.72-12.65,1.93-12.65,8.52,0,7.14,9,8.18,16.28,9A250.3,250.3,0,0,0,95,165.39a250.16,250.16,0,0,0,27.16-1.3c7.26-.83,16.28-1.87,16.28-9,0-6.56-7.8-7.77-12.46-8.49-4.1-.63-9.4-1.12-15.49-1.43-5-13.57-4-32-2.4-35.17a41.91,41.91,0,0,0,1.94-4.81c10.62-2.39,16.29-6.55,19.31-10.52,1.7-.06,3.32-.13,4.84-.21,11.5-.68,18.71-4.26,22-11C161,73.92,156.48,60.14,141.22,37.41Zm-7.39,51c-2.49.15-5.14.24-7.91.28C124.53,91.9,120,97.5,105.41,100a52.91,52.91,0,0,1-2.7,7.34c-2.71,5.48-3.27,27.31,3,42.09.09.38.17.72.24,1.05a2.14,2.14,0,0,1,.37.52c15.14.55,26.11,2.18,26.11,4.1,0,2.38-16.76,4.31-37.44,4.31s-37.44-1.93-37.44-4.31c0-1.94,11.24-3.59,26.67-4.12-1.58-5.4-4.33-16-3.46-21.6,1.2-7.65,1.2-11.76-5.9-15.19s-12-4.11-14.2-11.64L58.49,95s-5.92-.94-8.62-6.24c-1.32.23-2.36.32-3,.37C41,89.52,31.48,89.4,18,86,10.33,83.58,5.36,74.76,6.07,65.94c.56-7,5.81-11.45,10.4-15.7C19.93,47,38.3,33.71,54.7,25.58,65.7,18,82.44,7.87,92.82,6.14,106,3.94,120,28,121.91,29.49a1.09,1.09,0,0,1,.44.91,55.14,55.14,0,0,1,13.89,10.35C155.56,69.52,159.79,86.94,133.83,88.45Z"/>
    <path class="cls-1" d="M96.72,101.84s2.72,7.54,4.91-2c1.27-5.58,2.17-9.29,2.7-11.43-2.23-.1-4.46-.2-6.65-.32Z"/>
    <path class="cls-1" d="M106.33,96.81c3-.27,12.08-1.62,15.54-8-4.32,0-8.85-.09-13.39-.24C108.1,90.12,107.31,93.35,106.33,96.81Z"/>
  </g>
</svg>
