<svg id="Layer_1" data-name="Layer 1" xmlns="http://www.w3.org/2000/svg" width="164.32" height="138.21" viewBox="0 0 164.32 138.21">
  <defs>
    <style>
      .cls-1 {
        fill: #ff0;
      }
    </style>
  </defs>
  <g>
    <path class="cls-1" d="M86.32,80.41c-1.64-.78-4.3-5.89-5.95-9.34C78.23,71,76.16,71,74.2,71c.57,2.34,1.56,5.5,2.65,8.71,0-.2.05-.39.08-.6,0,0,.39,1.7,1.08,4s1.49,4.21,2.11,5.9a17,17,0,0,0,2.8,4.67,4.31,4.31,0,0,1-.51-.07C87.62,95.07,88.73,81.56,86.32,80.41Z"/>
    <path class="cls-1" d="M35.72,68a16.81,16.81,0,0,1-2.28-1.75h0c4,5.72,9.5,4.91,9.5,4.91a3.54,3.54,0,0,0,.12-1.4C37.11,69.05,35.72,68,35.72,68Z"/>
    <path class="cls-1" d="M57.32,70.49c-5.11,0-9-.2-12.08-.47.14,6.6,4.51,11.71,4.51,11.71,7.12,5.8,18.37,5.66,18.37,5.66,6.4-1.46,4.43-11.46,3-16.5C62.93,70.69,57.32,70.49,57.32,70.49Zm9.14,10.84C63,81.09,57.63,80.09,54,77.46c-.17-.25-.41-.59-.66-1,1.23,0,2.51,0,3.84,0,.65,0,4.07.14,9.09.28A14.65,14.65,0,0,1,66.46,81.33Z"/>
    <path class="cls-1" d="M85.48,74.87c1.75,3.31,2.33-.49,2.52-3.7l-4.78-.06C84.26,73,85.48,74.87,85.48,74.87Z"/>
    <path class="cls-1" d="M161.43,50.63c-6-10.19-13-16.34-20.75-18.31C120.64,8.14,86.62,2.2,83.36,1.68A72.19,72.19,0,0,0,68.44,0C41.17,0,31.92,18.44,30.36,22.09a26.63,26.63,0,0,0-3,7.54c-10.33,2-17.35,7.88-20.15,17-3.46,3-8.41,8.51-7,14.5.69,2.87,3,6.56,10,7.92a140.65,140.65,0,0,0,17.2,2.68c1.78,2.76,5.06,5.8,11.07,8,1.52,5.47,6.44,14,22.12,18.76,2.67,1,6.44,3.39,6.14,5a6,6,0,0,0-.1.95,96,96,0,0,0,.68,13.3c-4.1.34-7.69.78-10.56,1.31-3.7.67-11.41,2.07-11.41,8.51,0,7.22,9.38,8.38,16.23,9.23a234.52,234.52,0,0,0,27.21,1.4c14.16,0,31.65-1,38.28-3.81a6,6,0,0,0,2.67-2.23l1.23-1.86a6,6,0,0,0-.73-7.49c-1.3-1.33-3.93-4-23.08-5.3a45.79,45.79,0,0,1-3.57-12.93,73.91,73.91,0,0,1-.46-10.5c2.65-5.45,4.33-9.09,5.4-11.54.59,0,1.2,0,1.8,0,.91,0,1.72,0,2.44-.09.33,0,.66,0,1,0a9,9,0,0,0,6.66-2.79,9.55,9.55,0,0,0,2-3.24c7.43-.52,10.61-1.26,12.43-1.91.33-.08.77-.2,1.31-.37,2.27,0,4.29.06,5.66.06h1.5c.8,0,1.57,0,2.3,0,7.54,0,12.87-2,15.87-5.93C166.46,62.52,163.83,54.53,161.43,50.63Zm-4.6,14c-1.69,2.33-5.51,4-13.36,3.62,0,0-3.75,0-8.18-.07a17.48,17.48,0,0,1-2.14.63c-2.56,1-8.47,1.62-15.94,2,.18,2.83-.38,6.33-4.35,5.65a45.25,45.25,0,0,1-8.24-.2c-.31,1.84-7.4,16.38-7.4,16.38a81,81,0,0,0,.46,12.67,49.4,49.4,0,0,0,5.74,18c12.1.64,20.94,2,22.58,3.71l-1.22,1.87c-4.55,1.92-18.91,3.33-35.94,3.33-20.67,0-37.44-2.08-37.44-4.64,0-1.93,9.56-3.58,23.15-4.28-2.17-7.52-1.86-18.67-1.86-18.67,1.49-7.86-10.17-11.79-10.17-11.79-19.66-6-18.64-17.67-18.64-17.67-9.69-2.51-11.92-6.83-12.41-9a142.22,142.22,0,0,1-19.94-2.89c-13-2.43,1-13.14,1-13.14C15,39.15,23.76,35.57,32.83,35a19.14,19.14,0,0,1,2.92-10.23S45.05-.46,82.26,7.59c0,0,36,5.41,55.1,30.18,5.71.79,12.41,4.8,18.93,16C156.29,53.73,160.5,60.48,156.83,64.66Z"/>
    <path class="cls-1" d="M92.65,71.2c.18,2.06.49,4.82.73,6.91a16.43,16.43,0,0,0,.75,3.11c6.31,1.23,7-5.62,6.85-10C98.22,71.21,95.42,71.21,92.65,71.2Z"/>
    <path class="cls-1" d="M113.65,71c-2.88.09-5.92.16-9,.2C107.81,75.58,111.26,73.55,113.65,71Z"/>
  </g>
</svg>
