<svg id="Layer_1" data-name="Layer 1" xmlns="http://www.w3.org/2000/svg" width="79.13" height="168.39" viewBox="0 0 79.13 168.39">
  <defs>
    <style>
      .cls-1 {
        fill: #ff0;
      }
    </style>
  </defs>
  <path class="cls-1" d="M78.84,129.3a37.88,37.88,0,0,0-13.75-24.64A57.1,57.1,0,0,0,65,98.53,47.59,47.59,0,0,0,62.6,84.41a9.34,9.34,0,0,0,1.49-.69,9.1,9.1,0,0,0,5-1.8l.36-.28a11.73,11.73,0,0,0,4.64-7.46,10.8,10.8,0,0,0,.28-2.4A14.8,14.8,0,0,0,69.49,61,36.74,36.74,0,0,0,65.88,54a27.92,27.92,0,0,0-8.6-8.59c-1-.58-2-1.13-3-1.63.49-3.16.67-6.75.86-10.46,0-.48.07-1.16.12-2C56.41,13.06,56,6.54,51.2,3.79a8.33,8.33,0,0,0-4.14-1.1c-2.69,0-5.32,1.26-7.83,3.77a23.81,23.81,0,0,0-4.6,7.12c-.52-.89-1.07-1.74-1.65-2.56C28.08,4.09,21.47.18,14.3,0H14A10.33,10.33,0,0,0,5.26,4.05C1.18,9.65,4,17.7,6.7,25.48c.69,2,1.34,3.83,1.7,5.24,1.38,5.34,6.23,16.94,11,24.41,0,.17-.07.35-.11.52s-.05.25-.07.38-.07.25-.1.38c-.08.38-.16.76-.23,1.13a29,29,0,0,0-1,9.38,22.94,22.94,0,0,0,.62,4.84C5.39,85.56,2.72,102.84,3,115.67c-.26.76-.53,1.55-.79,2.42C-1.63,130.66.15,138.87,2.92,144l-.17.21c-3.63,4.62-2.32,8.51-1.58,10,1.45,2.87,4.19,4.29,7.15,5a6.57,6.57,0,0,0,.76,3.46c2.12,4.13,7,4.65,13.19,4.91l.64,0A11.2,11.2,0,0,0,30,165.14a11.6,11.6,0,0,0,8.11,3.23c.64,0,1.25,0,1.81,0,4.87,0,9.43-.31,11.7-4.08a6.72,6.72,0,0,0,1-3.22,59.06,59.06,0,0,0,9.77.93c6.15,0,10.34-1.33,12.81-4.09a8.25,8.25,0,0,0,1.6-8.46,8.59,8.59,0,0,0-2-3.1A22.27,22.27,0,0,0,78.84,129.3Zm-7.67,22.22a2.23,2.23,0,0,1-.43,2.41c-1.21,1.35-4.17,2.09-8.34,2.09A63.69,63.69,0,0,1,47.87,154c-.86.17-1.78.33-2.79.49h0a.09.09,0,0,1-.07,0,0,0,0,0,1,0,0v.05a6.69,6.69,0,0,0-.1,2.06,5.31,5.31,0,0,0,.42,1.26.1.1,0,0,1,0,.12l0,0,.21.18.44.8c.53.93,1,1.72.62,2.32-.49.8-2.5,1.16-6.55,1.16H38.28c-3.69-.08-5.77-2.38-6.36-7h0a.07.07,0,0,1-.06,0c-1,.08-2,.14-3,.17h0a.11.11,0,0,1-.08,0h0v0c-.73,4-2.66,6-5.89,6h-.36c-5.22-.22-7.65-.72-8.14-1.66-.31-.61.18-1.37.75-2.25.2-.31.4-.62.59-.95a2.1,2.1,0,0,1,.25-.21l0,0a.1.1,0,0,1,0-.12,4.63,4.63,0,0,0,.4-1,4.13,4.13,0,0,0,.1-1c0-.19,0-.39,0-.61h0a.09.09,0,0,1-.07,0l-1.46,0c-4.77,0-7.58-.78-8.35-2.31-.6-1.2.18-2.6,1-3.58.56-.7,2.21-1.41,4.91-2.12-.7-.4-10.41-6.34-4.44-25.9.32-1,.63-2,1-2.84A.09.09,0,0,1,9,117H9s0,0,.05.06c0-.13,0-.26,0-.38-.46-12.52,2-30.18,16.47-43.24l.06,0h0v0a14.18,14.18,0,0,1-1.63-6.69,23.25,23.25,0,0,1,.82-7.72c.08-.41.17-.84.26-1.26a.11.11,0,0,1,.1-.08h0l.06,0c0-.23,0-.44,0-.68.22-1,.45-1.94.67-2.86a.08.08,0,0,1,.08-.07h0a0,0,0,0,1,0,0l-.06-.09c-4.7-6.32-10.24-19.15-11.68-24.72-.42-1.63-1.11-3.61-1.84-5.7-2.11-6.07-4.49-12.87-2.26-15.92A4.52,4.52,0,0,1,14,6h.23c5.16.13,10.08,3.15,13.87,8.49s6.26,12.65,7.11,21c1-7.28,3.48-20,8.28-24.81,1.33-1.34,2.54-2,3.58-2A2.27,2.27,0,0,1,48.22,9c2.35,1.35,1.48,15.24,1.06,21.92-.06.85-.1,1.55-.12,2-.29,5.62-.58,11.38-2,14.34,0,0,0,0-.06,0h0a31.11,31.11,0,0,1,7.06,3.14,22,22,0,0,1,6.72,6.78A29.51,29.51,0,0,1,64.49,65l0,.07v0l.07,0h0l0,.07.07,0h0c2.13,1,3.58,4.3,3.58,6.73A4.8,4.8,0,0,1,68.17,73a5.77,5.77,0,0,1-2.44,3.91l-.18.15a3.18,3.18,0,0,1-1.8.68,1.87,1.87,0,0,1-.62-.1,5.69,5.69,0,0,1-.66-.26l-.08-.05s0,0,0,0,0,.08,0,.1a4,4,0,0,1-2.68,1.47,2.28,2.28,0,0,1-1.37-.49l0,0s0,.07,0,.09a10.52,10.52,0,0,1-3.81,1.73,43.28,43.28,0,0,1,1.63,4.08A38.78,38.78,0,0,1,59,98.81a52.1,52.1,0,0,1-.16,8.76s0,.05,0,.08l0,0h0l.06,0c4.38,2.85,12,9.57,13.92,22.55,1.12,7.59-1.9,13.66-9,18C68.09,148.73,70.57,149.88,71.17,151.52Z"/>
</svg>
