<svg id="Layer_1" data-name="Layer 1" xmlns="http://www.w3.org/2000/svg" width="156.18" height="153.25" viewBox="0 0 156.18 153.25">
  <defs>
    <style>
      .cls-1 {
        fill: #ff0;
      }
    </style>
  </defs>
  <g>
    <path class="cls-1" d="M76.84,77.13l-5.09,11s-.54,2.74,5.08,6.15,5.62-17.08,5.62-17.08l2.77-.61C82.69,76.74,79.87,76.94,76.84,77.13Z"/>
    <path class="cls-1" d="M57.9,78.12c.62,2.22,1.51,5.49,2.69,10,2.51,9.57,5.62,2.05,5.62,2.05l-1-12.36C62.82,77.91,60.37,78,57.9,78.12Z"/>
    <path class="cls-1" d="M70.11,77.53l.47,7.16L74,77.3Z"/>
    <path class="cls-1" d="M156.09,54.79a22.6,22.6,0,0,0-14.46-19l-.41-.14C133.64,25.32,112.31,0,85.46,0A42.22,42.22,0,0,0,68.82,3.45l-.48.23A238.78,238.78,0,0,0,45.76,17.23c-9,1.09-18.23,5.62-27.37,13.47a6.42,6.42,0,0,0-.84.89C14.71,35.29,12.19,38.77,10,42L8.77,43.91C3.42,52.25-3.15,64.42,1.69,73.83,5,80.26,12.45,83.69,24.5,84.3c3.74.19,8,.28,12.8.28,3.51,0,7.33,0,11.4-.15,1.59,5.22,3.55,10.85,5.43,14.16,1.64,2.93,2.69,19.19-1.87,32.17h-.39a7.74,7.74,0,0,0-4.61,1.46c-18.62,1.34-24.7,3.91-24.7,10.17,0,7.32,9.71,8.52,16.79,9.4a245.09,245.09,0,0,0,28.57,1.47,245.09,245.09,0,0,0,28.57-1.47c7.08-.88,16.79-2.08,16.79-9.4,0-6.63-8.07-8-12.4-8.76-3.31-.57-7.41-1-12.08-1.39,1.69-6.75,2.22-12,1.56-15.68-1.21-6.72-1-6.83,3.17-8.56,1.38-.58,2.7-1.09,4-1.58,6.24-2.37,12.68-4.83,15.63-13.68l1.47-4.44a20,20,0,0,0,9.48-6.79A137.43,137.43,0,0,0,139.23,79l.34-.08A23.16,23.16,0,0,0,156.09,54.79ZM138,73.18a125,125,0,0,1-17.51,2.61c-2.64,6.45-10.51,7.53-10.51,7.53l-2.5,7.52c-2.5,7.52-8.12,8.2-16.24,11.62s-8.12,7.51-6.75,15.15c.92,5.11-1.68,14.51-3.5,20.17,15.33.67,26.33,2.47,26.33,4.6,0,2.69-17.62,4.87-39.36,4.87s-39.36-2.18-39.36-4.87c0-1.9,8.83-3.55,21.68-4.35.31-1.3,1.52-1.95,4.77-.25l.86,0,0-.13c7.19-14.74,6.55-36.52,3.44-42-2.3-4.05-5-13-6.2-17.32-10,.33-20.09.43-28.35,0C2.34,77.16,1.73,66,13.82,47.16l1.23-1.87c2.1-3.15,4.53-6.49,7.26-10C31.93,27,40.46,23.59,47.9,23A227.87,227.87,0,0,1,71.17,9c32.37-13.8,61.26,24.55,66.42,31.91.64.16,1.28.33,1.93.52a16.6,16.6,0,0,1,10.59,13.94A17.1,17.1,0,0,1,138,73.18Z"/>
    <path class="cls-1" d="M110.5,76c-.3,1.6-.18,3.52,1.94,3.9,3.93-.92,5.84-2.53,6.76-4C115.8,76.08,112.91,76.09,110.5,76Z"/>
    <path class="cls-1" d="M103.47,75.2a28.92,28.92,0,0,1-5.57.37s-4.85.43-12.33,1L84.33,90.15s-.63,1.37,8.74,1.37S106.82,79.9,106.82,79.9l.82-4.05a31.41,31.41,0,0,1-4-.62ZM93.07,85.52c-.88,0-1.64,0-2.29,0l.3-3.34c3.61-.28,6.11-.49,7-.57h1C97.65,83.54,95.6,85.52,93.07,85.52Z"/>
  </g>
</svg>
