<svg id="Layer_1" data-name="Layer 1" xmlns="http://www.w3.org/2000/svg" width="113.59" height="119.47" viewBox="0 0 113.59 119.47">
  <defs>
    <style>
      .cls-1 {
        fill: #ff0;
      }
    </style>
  </defs>
  <path class="cls-1" d="M76.77,14.32l1.39.68c.08-.21.15-.43.25-.65a6.23,6.23,0,0,1,.32-.63A1.76,1.76,0,0,0,76.77,14.32Z"/>
  <path class="cls-1" d="M86.37,14.75a1.5,1.5,0,0,0-.25-.15,2.35,2.35,0,0,0-.24-.11l-.09,0-.21-.08h-.09l.05,0-.07,0-.14,0-.26,0-.26,0a2.29,2.29,0,0,0-.88.15l-.1.06,0,0c.07.19.17.38.26.58s.19.34.29.51c.82-.16,1.7-.28,2.53-.38a.81.81,0,0,0-.12-.14A2.11,2.11,0,0,0,86.37,14.75Z"/>
  <path class="cls-1" d="M112.42,46.68l-.17-.78a45.54,45.54,0,0,0-6.75-15.73l-.07-.1a53.75,53.75,0,0,0-9.12-10.22c1.06-2.32,1.62-5.84-.37-8.42A11.93,11.93,0,0,0,94,8.5l-.11-.12A13,13,0,0,0,92.2,6.86c-.24-.18-.5-.36-.81-.56L91,6.08c-.29-.17-.57-.33-.94-.51l-.25-.12-.45-.2-.32-.14-.16-.06a6.88,6.88,0,0,0-6.28-5,7.26,7.26,0,0,0-.8,0,6.77,6.77,0,0,0-6.69,5,10.42,10.42,0,0,0-2.59,1.16A54,54,0,0,0,64.11,4c-.82-.14-1.63-.25-2.43-.35l-.59-.06h-.18c-.56-.06-1.13-.12-1.7-.15l-.72,0h-.21l-1.56,0h-1l-1.47,0-.44,0-.59,0-.27,0L52,3.53l-1.3.14-.21,0-.75.09L48.35,4l-.2,0-.63.11c-.76.15-1.51.31-2.26.49-1,.25-2,.54-3,.87A60.67,60.67,0,0,0,8.53,32.79l-.06.11A61.13,61.13,0,0,0,0,66,58.05,58.05,0,0,0,3.85,84.8c.36.93.74,1.85,1.14,2.75s.85,1.84,1.29,2.7a54.15,54.15,0,0,0,9.22,12.91s.07.07.07.08L19.86,99l-4.21,4.28c1,1,1.93,1.91,2.91,2.77s1.81,1.55,2.78,2.29A52.27,52.27,0,0,0,27,112.17c1.42.83,2.9,1.6,4.4,2.3,1.07.5,2.18,1,3.28,1.4s2.14.79,3.22,1.13l.48.15a53.92,53.92,0,0,0,11.42,2.15c1.41.11,2.85.17,4.27.17a55.58,55.58,0,0,0,7.17-.47,57.83,57.83,0,0,0,13.05-3.29A60.6,60.6,0,0,0,98.55,98.57a63.87,63.87,0,0,0,6.56-9.22A60.73,60.73,0,0,0,112.42,46.68ZM99.93,86.32A56.74,56.74,0,0,1,94,94.66,54.35,54.35,0,0,1,72.12,110.1a51.85,51.85,0,0,1-11.68,3,49.69,49.69,0,0,1-10.2.27,47.85,47.85,0,0,1-10.14-1.91l-.44-.14c-.95-.3-1.9-.63-2.84-1s-2-.8-2.92-1.25q-2-.91-3.9-2a48.61,48.61,0,0,1-5-3.36c-.84-.66-1.66-1.33-2.45-2S20.78,100,20,99.13L19.8,99a48,48,0,0,1-8.18-11.47c-.4-.79-.79-1.6-1.15-2.41s-.7-1.63-1-2.46h0A52.27,52.27,0,0,1,6,65.76H6a55.27,55.27,0,0,1,7.62-29.84l0-.05h0A54.72,54.72,0,0,1,44.06,11.23q1.32-.42,2.64-.75c.65-.16,1.3-.3,1.95-.43l.72-.12c.41-.07.83-.15,1.24-.2l.84-.11,1.13-.12.87-.06.68,0h.35l1.31,0h.86c.45,0,.9,0,1.35.05l.81,0,1.49.14c.22,0,.44,0,.66.06.72.08,1.44.18,2.15.3a50.76,50.76,0,0,1,9,2.43q1,.38,2,.78c.78-1.86,3-3.21,5.93-2.23a5.26,5.26,0,0,1,.59.26c0-.27,0-.55,0-.8s0-.76.06-1.09,0-.63.08-.9c.1-1.06.16-1.67.16-1.67.06-.62.55-.76,1.17-.7s1.09.26,1.07.84c0,0,0,.6,0,1.66,0,.27,0,.56,0,.87s0,.64,0,1h0a6.17,6.17,0,0,1,2-.11l.63.1.6.16.29.1.14,0,.08,0h0l0,0,.21.1.3.15a4.86,4.86,0,0,1,.56.31l.51.34a8.3,8.3,0,0,1,.94.85,5.58,5.58,0,0,1,1.3,2.37c0,.05,0,.09,0,.14a.74.74,0,0,1,.34.08,3.6,3.6,0,0,1-.5,2.61s0,0,0,0a4.78,4.78,0,0,1-1.75,2.17,4.62,4.62,0,0,1-1.43.63l1.39,1q1.32,1,2.58,2a48.33,48.33,0,0,1,9.07,9.94h0a39.55,39.55,0,0,1,5.87,13.67c0,.21.1.43.14.65A54.81,54.81,0,0,1,99.93,86.32Z"/>
</svg>
