<svg id="Layer_1" data-name="Layer 1" xmlns="http://www.w3.org/2000/svg" width="69.58" height="51.81" viewBox="0 0 69.58 51.81">
  <defs>
    <style>
      .cls-1 {
        fill: #ff0;
      }
    </style>
  </defs>
  <path class="cls-1" d="M49.22,47.35a8.28,8.28,0,0,0,2.49.38A7.51,7.51,0,0,0,56,46.42a7.41,7.41,0,0,0,3-3.82c.73-.49,1.42-1,2.11-1.56,8.39-6.41,8.55-13.26,8.5-14.56a5.69,5.69,0,0,0-.16-1.17c-1-4.23-4-7-7.86-7.55a17.12,17.12,0,0,0-5.91-6.12l-.58-.37-.12-.07C48.09,7,39.06,5.8,36.24,5.51l-1.48-.19A43.1,43.1,0,0,1,28.1,4a38.85,38.85,0,0,1-3.94-1.41c-1-.46-1.6-.8-1.61-.8h0a1.75,1.75,0,0,0-.29-.18A11,11,0,0,0,16.7,0a9,9,0,0,0-6.17,2.39l-.43.38a6,6,0,0,1-.55.45c-.42.08-.85.18-1.22.28-.75.21-1.44.45-1.95.64l-.12,0a6.13,6.13,0,0,0-.89.26,6.46,6.46,0,0,0-3.3,2.66,8.41,8.41,0,0,0-2,4.43,8.94,8.94,0,0,0,.66,4.9,11.66,11.66,0,0,0,1,1.92,5.89,5.89,0,0,0,.74.91s.17.18.49.48a1.85,1.85,0,0,1,.14.14,12.66,12.66,0,0,0,1.33,1.2c.3.22.62.45,1,.67A24.58,24.58,0,0,0,10,24.46a8.14,8.14,0,0,0-5.13,4.69,7.36,7.36,0,0,0,.64,6.71A6.16,6.16,0,0,0,6.41,37a6,6,0,0,0,2.12,1.46l.14.06A6.33,6.33,0,0,0,9,39a6.81,6.81,0,0,0,1.21,1.25,7.54,7.54,0,0,0,4.24,1.65,6,6,0,0,0,.83,2.76l0,.08.13.25a5.78,5.78,0,0,0,1.42,1.8,7.9,7.9,0,0,0,5.16,2l.47,0a6,6,0,0,0,1.38,1.38c.23.19.44.33.6.44a6.1,6.1,0,0,0,1.58.72c.42.12.84.22,1.28.3a9.58,9.58,0,0,0,1.84.19,8,8,0,0,0,5.95-2.57,7.5,7.5,0,0,0,1.44-2.32c.73-.35,1.43-.73,1.78-.94l.25-.14,1.65-.94a7.74,7.74,0,0,0,5,1.72A9.48,9.48,0,0,0,47,46.45a4.52,4.52,0,0,0,.57.33,5.4,5.4,0,0,0,1,.41A4.73,4.73,0,0,0,49.22,47.35Zm-2.28-7.3c-.15.42-2.41,1.07-3.08,0l-.11-.09a1.85,1.85,0,0,1,0-1.14,2.29,2.29,0,0,1,.07-.34,1.69,1.69,0,0,1,.47-.47l-.05-.06,0,0s-.94-1.23.86-1.9A16.61,16.61,0,0,0,49,35.85l-.21.09a4.66,4.66,0,0,0,3-1.3,4.71,4.71,0,0,1-2.48-1.77,13.15,13.15,0,0,1-6,1.32q-.35,0-.69,0A9.83,9.83,0,0,1,42,35.54a6.38,6.38,0,0,1-2.54,3.05,5.15,5.15,0,0,1-.89.49L38,39.3c-.75.42-1.82,1-2.4,1.36l-.14.08,0,0h0a15.65,15.65,0,0,1-2,1c-.11,0-.27.12-.45.21A6.68,6.68,0,0,0,31.61,43a1.63,1.63,0,0,0-.53,1.19c.09.9-.94,1.89-2.56,1.51a6.53,6.53,0,0,1-.75-.17,2,2,0,0,1-.29-.24l-.11,0-.05-.13a1,1,0,0,1-.1-1.19,1.05,1.05,0,0,1,.67-.63l0,0,.08,0,.15,0a2.69,2.69,0,0,0,1.08-.51l.23-.2.06-.1.37-.27,3-2.6a.38.38,0,0,0,0-.12,19.34,19.34,0,0,1-3.43,1.05,21.45,21.45,0,0,1-4.76.83h-.1l-.28,0a1.39,1.39,0,0,0-.56.24,2.16,2.16,0,0,0-.51.61,1.7,1.7,0,0,1-2.53.06,2.33,2.33,0,0,1-.12-.31,1.84,1.84,0,0,1-.2-.31,1.85,1.85,0,0,1,.18-.54,1.32,1.32,0,0,1,.59-.78,7.28,7.28,0,0,1,.69-.3h0a6.82,6.82,0,0,1,1.93-.47l2-.47,5.51-1.34-.8-.11-1.24,0a.42.42,0,0,0-.12,0,4,4,0,0,1-1.42-.06h-.74a1.37,1.37,0,0,0-.32-.16L26,37.26a1.33,1.33,0,0,0-.29,0c-.13.09-.27.17-.39.24s0,0,0,.05a1.64,1.64,0,0,1-1.65.39A1,1,0,0,1,23,37.2c0-1,.71-1.45,1.55-1.67l.14,0a1.3,1.3,0,0,1,.22,0,4.45,4.45,0,0,1,2.16.13l.64.12,7.43.25a9.33,9.33,0,0,0,1.44-1.49l.09-.12c.17-.23.33-.49.49-.75a1.24,1.24,0,0,0,.14-.41c-.4-.2-4.69-2.34-6-3.2-.76-.48-2.83-1.5-4.83-2.5,0,0-.05,0-.06,0l-.05.07.1.06-1,1.83a1.38,1.38,0,0,0-.09.82.48.48,0,0,0,.4.25l.25,0a1.84,1.84,0,0,1,1,.56c.68.62.17,1.3-.28,1.7-.06.09-.12.18-.2.28l-.22,0,0,0a1.3,1.3,0,0,1-1-.11c-.38-.18-.7-.6-.7-1.5a5.19,5.19,0,0,0-2.31.35l-.79.44c-1.3.83-3.26,2.06-4,2a2.16,2.16,0,0,0-.34.16,1,1,0,0,0-.31.41,1.36,1.36,0,0,1-.21.47,1,1,0,0,1-.26.27l-.07,0-.16.09a1.34,1.34,0,0,1-.26.09A1.81,1.81,0,0,1,14,35.6a.78.78,0,0,1-.16-.15l0-.05a3.72,3.72,0,0,0-.15-.43s-.5-.74,2.86-2l.92-.51,1.89-1.1c-1.77.59-6.44.63-6.44.63s-.08.13-.21.31a1.77,1.77,0,0,1-.52.48,1.18,1.18,0,0,1-.84.2,1.66,1.66,0,0,1-.52-.1.86.86,0,0,1-.1-.16l-.2-.14a1.36,1.36,0,0,1-.07-1.23c.28-.86,1.49-1.45,3-1.47.35,0,.69,0,1,0l.7,0c1.6-.1,2.85-.26,2.85-.26a3.55,3.55,0,0,0,1-.2l.06,0c2.23-.81,3.55-3.7,3.55-3.7l-.41-.39h0a9.85,9.85,0,0,1-1.35-1.34c-.46-.46-.93-1-1.34-1.42-.24-.23-.49-.45-.76-.68a20.8,20.8,0,0,0-3.9-2l-.18-.05a16,16,0,0,1-5.86-2.92c-.27-.18-.53-.36-.77-.54a5.88,5.88,0,0,1-.7-.65h0l-.16-.17c-.29-.26-.46-.43-.46-.43a5.31,5.31,0,0,1-.46-.93A3,3,0,0,1,6,12.36,2.56,2.56,0,0,1,7.18,10.5s-.18-.29.26-.44l.13,0,.11,0h.06L8,10a16.83,16.83,0,0,1,2-.69,7,7,0,0,1,.76-.18L11.08,9c1.31-.16,3.15-1.92,3.15-1.92a2.87,2.87,0,0,1,.3-.25c.28-.3,1.85-1.75,4.74-.08a19.34,19.34,0,0,0,2.45,1.26,41.56,41.56,0,0,0,4.66,1.68A48.45,48.45,0,0,0,34,11.27l1.5.2c4.36.43,11.4,1.86,16.28,4.85l.11.07.41.26c2.49,1.6,4.26,3.62,4.74,6.16,0,0,0,.05,0,.07,0,.17.05.35.07.53a2.4,2.4,0,0,1,0,.28,7.06,7.06,0,0,1,0,.8,7.25,7.25,0,0,1,1.35-.56c.29-.11.59-.21.91-.31a5.48,5.48,0,0,1,.79.05c1.35,0,2.75.66,3.33,3,0,0,.18,4.74-6.2,9.6a31.72,31.72,0,0,1-3.27,2.29,2.5,2.5,0,0,0-.3.21,1.28,1.28,0,0,0-.39,1.13,1.74,1.74,0,0,1-.76,1.49,1.86,1.86,0,0,1-1.85.13,4.35,4.35,0,0,1-.46-.11,1.1,1.1,0,0,1-.28-.23l-.1,0s-.38-.36,0-1a2.72,2.72,0,0,1,.59-.77l3.76-2.82A16.56,16.56,0,0,1,48.72,39a4.73,4.73,0,0,1-.81.2S47.13,39.5,46.94,40.05Z"/>
</svg>
