<svg id="Layer_1" data-name="Layer 1" xmlns="http://www.w3.org/2000/svg" width="87.34" height="91.7" viewBox="0 0 87.34 91.7">
  <defs>
    <style>
      .cls-1 {
        fill: #ff0;
      }
    </style>
  </defs>
  <path class="cls-1" d="M58.48,12.17l1,.5q.07-.22.18-.48c.07-.15.15-.31.24-.47A1.35,1.35,0,0,0,58.48,12.17Z"/>
  <path class="cls-1" d="M65.61,12.49l-.19-.11-.17-.08-.07,0L65,12.21H65s0,0,0,0h-.06l-.1,0-.19,0h-.19a1.51,1.51,0,0,0-.65.11l-.08,0v0c.06.14.13.29.2.43s.16.25.23.38c.61-.12,1.25-.21,1.86-.28l-.09-.11A2.67,2.67,0,0,0,65.61,12.49Z"/>
  <path class="cls-1" d="M75.81,75.66a47.14,47.14,0,0,0,5-7.07,46.5,46.5,0,0,0,5.6-32.73c0-.22-.09-.44-.13-.6a35.2,35.2,0,0,0-5.23-12.2,41,41,0,0,0-6.27-7.23A7.3,7.3,0,0,0,74,9.2a10.45,10.45,0,0,0-1.61-2.37l-.12-.14A10.68,10.68,0,0,0,70.86,5.4c-.21-.16-.43-.31-.68-.48l-.33-.2c-.25-.15-.49-.28-.8-.43l-.29-.14A6.74,6.74,0,0,0,63,0l-.73,0a6.55,6.55,0,0,0-6.19,4q-.45.18-.87.39A42.44,42.44,0,0,0,49.35,3c-.62-.1-1.25-.19-1.88-.27l-.6,0c-.43-.05-.87-.09-1.31-.12l-.71,0-1.2,0h-.77l-1.1,0H41.4l-.48,0-.18,0L40,2.62l-1,.11-.14,0-.62.07L37.14,3l-.65.11c-.58.12-1.17.24-1.74.39-.77.19-1.57.41-2.36.67a46.61,46.61,0,0,0-25.9,21A47,47,0,0,0,0,50.53,44.41,44.41,0,0,0,3,65c.27.71.56,1.41.87,2.11s.65,1.39,1,2.08a41.75,41.75,0,0,0,7.11,10l.1.1c.73.75,1.49,1.48,2.25,2.14s1.38,1.19,2.14,1.77a41.65,41.65,0,0,0,4.34,2.92c1.09.64,2.23,1.23,3.39,1.77.84.39,1.69.76,2.53,1.08s1.64.61,2.47.87l.38.12a41.79,41.79,0,0,0,8.8,1.65c1.09.09,2.19.13,3.29.13a42.64,42.64,0,0,0,5.52-.36,43.84,43.84,0,0,0,10-2.53A46.32,46.32,0,0,0,75.81,75.66ZM55,83.2a38.08,38.08,0,0,1-8.66,2.19,36.16,36.16,0,0,1-7.57.2,35.48,35.48,0,0,1-7.52-1.41L31,84.07c-.71-.22-1.42-.46-2.11-.73s-1.45-.59-2.17-.93c-1-.45-1.94-1-2.89-1.51a33.41,33.41,0,0,1-3.71-2.5q-.94-.72-1.83-1.5c-.66-.59-1.3-1.2-1.91-1.83L16.23,75a36,36,0,0,1-6.06-8.51c-.3-.59-.59-1.18-.86-1.79s-.52-1.2-.75-1.82h0A38.89,38.89,0,0,1,6,50.32H6a41,41,0,0,1,5.65-22.13l0,0h0A40.58,40.58,0,0,1,34.23,9.88c.65-.21,1.3-.4,2-.56.49-.12,1-.22,1.45-.31l.54-.1.92-.15.62-.07c.27,0,.55-.07.83-.09l.65,0,.51,0H42c.33,0,.65,0,1,0h.63l1,0c.2,0,.4,0,.6,0,.37,0,.73.06,1.1.09l.49,0c.54.07,1.07.14,1.6.23A37.79,37.79,0,0,1,55,10.72c.49.18,1,.37,1.46.58a3.36,3.36,0,0,1,4.4-1.66l.44.19c0-.2,0-.41,0-.59s0-.56,0-.8,0-.47,0-.67c.08-.79.12-1.24.12-1.24,0-.46.41-.56.87-.52s.81.19.8.62c0,0,0,.45,0,1.24v.64c0,.22,0,.47,0,.73v0a4.59,4.59,0,0,1,1.52-.1l.46.07.45.12.21.07.11,0,0,0h0l0,0,.16.07.22.11a3.3,3.3,0,0,1,.42.23,4.17,4.17,0,0,1,.37.26,4.58,4.58,0,0,1,.7.63,4.14,4.14,0,0,1,1,1.75s0,.07,0,.11a.58.58,0,0,1,.25.05,2.67,2.67,0,0,1-.37,1.94.06.06,0,0,0,0,0,3.64,3.64,0,0,1-1.3,1.61,3.56,3.56,0,0,1-1.09.47c.35.25.72.48,1.06.74.65.49,1.29,1,1.91,1.51a35.72,35.72,0,0,1,6.73,7.37h0a29.22,29.22,0,0,1,4.35,10.14c0,.16.07.32.11.48a40.61,40.61,0,0,1-4.9,28.54,41.46,41.46,0,0,1-4.4,6.18A40.18,40.18,0,0,1,55,83.2Z"/>
</svg>
