<svg id="Layer_1" data-name="Layer 1" xmlns="http://www.w3.org/2000/svg" width="64.02" height="133.16" viewBox="0 0 64.02 133.16">
  <defs>
    <style>
      .cls-1 {
        fill: #ff0;
      }
    </style>
  </defs>
  <path class="cls-1" d="M44.91,132.48h.53c4.13-.17,9.26-.39,11.4-4.53a6.72,6.72,0,0,0,.71-2.25A8.8,8.8,0,0,0,63,121.36c.65-1.3,1.8-4.67-1-8.66,2.05-4.25,3.17-10.76.27-20.28-.18-.58-.36-1.14-.55-1.69.18-10-1.92-23.34-12-34.2a19,19,0,0,0,.34-2.81,24.36,24.36,0,0,0-.77-8.15c0-.25-.12-.61-.15-.73s0-.23-.08-.34l0-.17A82.7,82.7,0,0,0,57.48,25.5c.26-1,.75-2.41,1.27-3.91l0-.08c2.11-6,4.49-12.89.91-17.8a9.38,9.38,0,0,0-8-3.71h-.23C45.55.15,40,3.39,36,9.12h0A17.24,17.24,0,0,0,33.24,5.4a10,10,0,0,0-7-3.32,7.88,7.88,0,0,0-3.9,1C18,5.61,17.55,10.94,18.48,25.74c0,.61.07,1.11.09,1.49.13,2.52.25,5,.54,7.23q-.78.4-1.53.87a22.91,22.91,0,0,0-7.1,7.08,30.19,30.19,0,0,0-2.81,5.41A12.94,12.94,0,0,0,3.7,57,10.05,10.05,0,0,0,4,59.1a10.58,10.58,0,0,0,4.19,6.66l.18.14a8.58,8.58,0,0,0,4.16,1.65,39.7,39.7,0,0,0-1.55,10.07c-.09,1.41-.11,2.8-.08,4.17A30.7,30.7,0,0,0,.24,101.32,18.77,18.77,0,0,0,3,114.62a7.94,7.94,0,0,0-1.09,2,7.75,7.75,0,0,0,1.51,8c2.18,2.43,5.76,3.62,10.94,3.62a45,45,0,0,0,6.43-.52,6.67,6.67,0,0,0,.71,1.62c2.29,3.83,7.07,3.83,10.23,3.83h1.43A10.64,10.64,0,0,0,39.49,131,10.27,10.27,0,0,0,44.91,132.48ZM38,121.7c-.46,3.61-2.08,5.39-4.94,5.45H31.7c-3.14,0-4.7-.28-5.08-.91s.06-1.09.47-1.81c.13-.23.23-.42.32-.61l.17-.14h0a.09.09,0,0,1,0-.12,3.92,3.92,0,0,0,.32-1A5,5,0,0,0,27.8,121h0l-.05,0h0c-.79-.13-1.5-.25-2.17-.38a49,49,0,0,1-11.24,1.59c-3.24,0-5.53-.58-6.47-1.63a1.74,1.74,0,0,1-.34-1.89c.46-1.28,2.38-2.17,5.54-2.58-5.43-3.39-7.75-8.08-6.89-13.94A24.56,24.56,0,0,1,17,84.71l.05,0h0a39.26,39.26,0,0,1-.11-6.79,29.67,29.67,0,0,1,2.25-11.26,30.77,30.77,0,0,1,1.25-3.13,8.08,8.08,0,0,1-2.94-1.34.11.11,0,0,1,0-.14l.09-.11-.15.12h0c-1.17.88-2.38-.06-3-.75l.06,0,.09-.06.09-.05.08,0,.08-.06.07,0,.08-.06.06-.06.07-.06,0-.06.06-.06s0,0,.05-.05l.06-.07a.1.1,0,0,1,0,0s0-.05,0-.08l0,0a.3.3,0,0,0,0-.08l0,0a.56.56,0,0,0,0-.08v0l0-.08a0,0,0,0,0,0,0,.36.36,0,0,0,0-.09h0a2.89,2.89,0,0,0,.1-.35h0l.25.26.09.08.18.16.11.09.18.14.12.09.18.12.14.08.18.1.15.08.19.09.15.07.2.08.17.06.1,0,0,0a5.35,5.35,0,0,1-2.44-1.6,2.38,2.38,0,0,1-1.41,1.77,4.2,4.2,0,0,1-.5.21,1.68,1.68,0,0,1-.5.07,2.45,2.45,0,0,1-1.41-.53L11.79,61a4.57,4.57,0,0,1-2-3.09A4.31,4.31,0,0,1,9.7,57c0-1.81,1.05-4.3,2.61-5.11l.18-.11h0l.06,0h.09v0a23.32,23.32,0,0,1,2.81-6,16.89,16.89,0,0,1,5.22-5.26A23.87,23.87,0,0,1,26.15,38h0c-1.14-2.3-1.36-6.77-1.58-11.09,0-.41,0-.95-.09-1.61-.5-7.88-.79-16.07.83-17a1.79,1.79,0,0,1,.91-.24A4.37,4.37,0,0,1,29,9.64c3.68,3.7,5.58,13.42,6.4,19.06.66-6.32,2.6-12,5.48-16.12S47.64,6.1,51.64,6h.18a3.51,3.51,0,0,1,3,1.24c1.73,2.37-.11,7.65-1.73,12.3l0,.1c-.56,1.6-1.09,3.11-1.41,4.36-1.11,4.31-5.4,14.25-9.05,19.16l0,.05s.07,0,.08,0c.18.71.35,1.45.52,2.2,0,.19,0,.36,0,.54h.06s.06,0,.07,0c.05.22.19.93.19.93a17.87,17.87,0,0,1,.62,6.36,10.83,10.83,0,0,1-1.23,4.84l0,0C54.12,68.32,56,82,55.68,91.7c0,.08,0,.16,0,.24s0,0,0,0h0a.1.1,0,0,1,.09.07c.25.7.49,1.42.73,2.19,4.59,15-2.74,19.68-3.41,20.07,2.09.55,3.35,1.09,3.78,1.63.59.76,1.2,1.86.73,2.79-.6,1.2-2.78,1.8-6.48,1.8H50l0,0c0,.16,0,.31,0,.45a2.92,2.92,0,0,0,.07.72,3.21,3.21,0,0,0,.31.8.1.1,0,0,1,0,.12l.15.12c.16.28.32.53.47.76.45.69.83,1.28.58,1.77-.38.74-2.27,1.13-6.32,1.3h-.28c-2.51,0-4-1.52-4.58-4.65h0c-.73,0-1.51-.07-2.3-.13Z"/>
</svg>
