<svg id="Layer_1" data-name="Layer 1" xmlns="http://www.w3.org/2000/svg" width="132.28" height="132.27" viewBox="0 0 132.28 132.27">
  <defs>
    <style>
      .cls-1 {
        fill: #ff0;
      }
    </style>
  </defs>
  <path class="cls-1" d="M55.08,131.35a66.83,66.83,0,0,0,20.42.26l.15,0a54.54,54.54,0,0,0,17.31-5,66.42,66.42,0,0,0,14.2-8.59c.56-.43.85-.68.85-.68a3.47,3.47,0,0,0,.29-.25,66.12,66.12,0,0,0,1.18-100.87A53.48,53.48,0,0,0,87.91,3.7,66.87,66.87,0,0,0,77.16.93,65.77,65.77,0,0,0,56,.78l-.52.06L54.94,1A65.88,65.88,0,0,0,30,10.75l0,0C1.72,27.23.29,59.05.24,60.39v.16A66.42,66.42,0,0,0,55.08,131.35ZM6.24,60.6S7.27,30.94,33,16h0A60.12,60.12,0,0,1,56.36,6.8v0l.49-.06A59.71,59.71,0,0,1,86,9.4,47.6,47.6,0,0,1,105.4,20.59h0a60.11,60.11,0,0,1-1.24,92.09h0l-.69.55a60.93,60.93,0,0,1-13,7.85A49.39,49.39,0,0,1,75,125.62h0A60.12,60.12,0,0,1,6.24,60.76Z"/>
</svg>
