<svg id="Layer_1" data-name="Layer 1" xmlns="http://www.w3.org/2000/svg" width="132.27" height="132.28" viewBox="0 0 132.27 132.28">
  <defs>
    <style>
      .cls-1 {
        fill: #ff0;
      }
    </style>
  </defs>
  <path class="cls-1" d="M131.79,58q0-.3-.09-.6a65.63,65.63,0,0,0-8.83-25.27l0,0C107.47,3.25,75.73.61,74.39.52h-.16A65.61,65.61,0,0,0,66.07,0,66.13,66.13,0,0,0,.36,73a.86.86,0,0,0,0,.16A54.69,54.69,0,0,0,4.71,90.64a66.62,66.62,0,0,0,8.05,14.53c.4.56.64.86.64.86s.16.2.24.3a66.1,66.1,0,0,0,39,24.54,66.9,66.9,0,0,0,13.58,1.41h0a66.4,66.4,0,0,0,48.21-20.93A53.44,53.44,0,0,0,127.7,90.28a68,68,0,0,0,3.18-10.63,66.21,66.21,0,0,0,1-21.11C131.81,58.22,131.79,58,131.79,58ZM125,78.42a60.21,60.21,0,0,1-2.92,9.76,47.71,47.71,0,0,1-11.93,18.94h0a60.11,60.11,0,0,1-92-4.76h0s-.2-.25-.53-.71a60.23,60.23,0,0,1-7.34-13.26A49.38,49.38,0,0,1,6.35,72.77h0A60.12,60.12,0,0,1,73.8,6.5H74s29.6,2.16,43.6,28.44h0a60,60,0,0,1,8.26,23.68h0s0,.19,0,.5A59.64,59.64,0,0,1,125,78.42Z"/>
</svg>
