<svg id="Layer_1" data-name="Layer 1" xmlns="http://www.w3.org/2000/svg" width="178" height="164" viewBox="0 0 178 164">
  <defs>
    <style>
      .cls-1 {
        fill: #ff0;
      }
    </style>
  </defs>
  <g>
    <path class="cls-1" d="M58.26,85.15c-.92.09-1.92.18-3,.26a11.37,11.37,0,0,0,5.58,2.89c2-.39,2.18-2.27,1.94-3.91A36.31,36.31,0,0,1,58.26,85.15Z"/>
    <path class="cls-1" d="M95.28,84.42c-2.7.15-5.35.26-7.91.34l2.83.67s0,21.57,5.5,18,5-6.48,5-6.48Z"/>
    <path class="cls-1" d="M87.15,84.77c-2.93.08-5.74.12-8.37.09a38.12,38.12,0,0,1-11.87-1.67l-1.42.47.88,4.64s4.27,12.23,13.44,12.23,8.56-1.44,8.56-1.44Zm-7.34,9.76c-2.14,0-4-1.86-5.44-3.85,1.38.11,2.82.17,4.35.18h2.93L82,94.5C81.34,94.52,80.63,94.53,79.81,94.53Z"/>
    <path class="cls-1" d="M101.82,93.34l.57-9.36L98,84.27Z"/>
    <path class="cls-1" d="M168.38,50.68c-6.29-7.19-12.84-10.54-19.16-13.77-4.66-2.39-9.06-4.63-13.44-8.46-1.23-1.08-3.1-2.68-5.24-4.31A95.84,95.84,0,0,0,89,.9a4.88,4.88,0,0,0-.55-.12A56.54,56.54,0,0,0,79.15,0C50.23,0,29.83,22.64,21.29,34.21c-1.57.45-3.12.94-4.63,1.49a3.38,3.38,0,0,0-.44.18C7.14,40,1,49.41.5,59.89-.1,73.25,8.62,85.68,20.77,88.81l.37.08a144.19,144.19,0,0,0,27,2.77c.88,0,1.76,0,2.63,0a20.08,20.08,0,0,0,7.73,5.14L60,101.58c2.84,9.18,9.16,11.77,15.27,14.27,1.25.52,2.54,1.05,3.88,1.65,3.91,1.77,4.41,2,3.16,9.5-.64,3.82-.11,9.33,1.57,16.44-4.32.34-8.12.78-11.19,1.31-4.19.72-12,2.06-12,8.61,0,7.22,9.38,8.38,16.23,9.23A232.1,232.1,0,0,0,104.16,164a232,232,0,0,0,27.21-1.41c6.85-.85,16.23-2,16.23-9.23,0-6.58-7.92-7.92-12.17-8.64a142.53,142.53,0,0,0-15.16-1.55c-5.08-14.25-3.91-32.21-2.16-35.52,2.37-4.48,5.49-14.05,7.24-19.66,15.93-1.64,29.24-3.46,31.67-3.8,3.34-.06,15.38-.89,19.35-9.63C180.77,64.86,171.44,54.19,168.38,50.68Zm-11.8,27.51s-16.41,2.32-35.81,4.23c-.2.7-5,16.8-8,22.43s-3.66,28.61,3.35,44.12c14.79.62,25.45,2.35,25.45,4.39,0,2.56-16.76,4.63-37.44,4.63s-37.44-2.07-37.44-4.63c0-2,10.39-3.73,24.89-4.37-1.78-6-4.25-15.69-3.36-21,1.34-8,1.34-12.36-6.6-15.95s-13.45-4.32-15.9-12.23L63.31,91.9s-6.51-1-9.57-6.39A129.17,129.17,0,0,1,22.27,83C12.61,80.51,6,70.49,6.49,60.16c.37-8.24,5.18-15.64,12.2-18.82,2.15-.77,4.22-1.38,6.21-1.88,8.43-12,30.77-38,62.59-32.76a90,90,0,0,1,39.17,22c1.89,1.43,3.62,2.88,5.17,4.24,11.13,9.71,22.08,10.28,32,21.66C184.63,78.38,156.58,78.19,156.58,78.19Z"/>
    <path class="cls-1" d="M106.1,99.09s3,7.91,5.49-2.16c2-8.33,3.21-12.71,3.56-14q-3.93.36-7.91.67Z"/>
  </g>
</svg>
