<svg id="Layer_1" data-name="Layer 1" xmlns="http://www.w3.org/2000/svg" width="107.7" height="113.24" viewBox="0 0 107.7 113.24">
  <defs>
    <style>
      .cls-1 {
        fill: #ff0;
      }
    </style>
  </defs>
  <path class="cls-1" d="M106.43,43.52A43,43,0,0,0,100,28.58,50.73,50.73,0,0,0,91.5,19c1-2.26,1.4-5.56-.48-8a11.37,11.37,0,0,0-1.86-2.8L89,8a12,12,0,0,0-1.62-1.46c-.25-.19-.5-.36-.81-.57a3.14,3.14,0,0,0-.31-.18,8.63,8.63,0,0,0-.92-.51l-.47-.22-.51-.22A6.81,6.81,0,0,0,78.23,0a7,7,0,0,0-.78,0,6.72,6.72,0,0,0-6.59,4.78,9.93,9.93,0,0,0-2.2,1,52.91,52.91,0,0,0-7.86-2q-1.15-.19-2.31-.33l-.57,0-.16,0c-.53-.05-1.07-.11-1.62-.14-.21,0-.42,0-.64,0h-.23c-.49,0-1,0-1.47,0h-.94c-.48,0-1,0-1.4,0h-.41l-.58,0-.26,0-.87.06-1.22.14-.2,0-.73.09c-.44.06-.88.14-1.36.22l-.19,0-.6.11c-.71.13-1.42.29-2.14.46C42,4.63,41,4.9,40,5.21A57.58,57.58,0,0,0,8.08,31.07L8,31.16A58,58,0,0,0,0,62.51,54.84,54.84,0,0,0,3.65,80.36c.34.88.7,1.76,1.08,2.61S5.54,84.71,6,85.52a51.07,51.07,0,0,0,8.69,12.21l.19.19c.9.93,1.83,1.82,2.76,2.64s1.72,1.46,2.63,2.17a52,52,0,0,0,5.35,3.59c1.35.79,2.75,1.52,4.17,2.18,1,.48,2.07.92,3.11,1.33s2,.75,3,1.07l.47.14a50.15,50.15,0,0,0,10.83,2c1.34.11,2.7.16,4,.16a53.42,53.42,0,0,0,6.8-.44,55.15,55.15,0,0,0,12.37-3.12,57.54,57.54,0,0,0,23-16.25,59.37,59.37,0,0,0,6.22-8.74,57.55,57.55,0,0,0,6.92-40.45C106.54,44,106.48,43.72,106.43,43.52ZM94.49,81.67a54.14,54.14,0,0,1-5.59,7.85,51.19,51.19,0,0,1-20.61,14.55,48.64,48.64,0,0,1-11,2.78,46.8,46.8,0,0,1-9.61.25,44.4,44.4,0,0,1-9.56-1.8l-.41-.13c-.9-.28-1.79-.59-2.68-.94s-1.84-.74-2.75-1.16c-1.24-.58-2.47-1.22-3.67-1.93A45.72,45.72,0,0,1,23.89,98c-.79-.61-1.57-1.25-2.31-1.91s-1.66-1.52-2.44-2.32L19,93.59a44.89,44.89,0,0,1-7.7-10.8c-.39-.75-.75-1.51-1.09-2.27s-.66-1.54-1-2.32h0A48.79,48.79,0,0,1,6,62.3H6a52,52,0,0,1,7.18-28.1l0,0h0A51.57,51.57,0,0,1,41.85,10.92c.83-.26,1.66-.5,2.49-.7.61-.15,1.23-.28,1.84-.4l.68-.12L48,9.51l.79-.1,1-.11.84-.06.63-.05h.33c.41,0,.82,0,1.24,0h.81c.42,0,.85,0,1.27,0l.76,0,1.4.13.63.06c.68.08,1.35.17,2,.29A47,47,0,0,1,68.29,12c.62.23,1.24.47,1.86.73.74-1.75,2.85-3,5.59-2.1a4,4,0,0,1,.55.24c0-.26,0-.52,0-.76s0-.71.06-1,0-.59.07-.84c.09-1,.15-1.58.15-1.58.06-.58.51-.71,1.1-.66s1,.24,1,.79c0,0,0,.57,0,1.57,0,.25,0,.52,0,.81s0,.61,0,.94h0a6.25,6.25,0,0,1,1.93-.1l.59.1c.18.05.38.09.56.15l.27.09.14.05.07,0h0l0,0,.19.09.29.14a4.19,4.19,0,0,1,.52.29,5.78,5.78,0,0,1,.48.33,6.07,6.07,0,0,1,.89.8,5.26,5.26,0,0,1,1.22,2.23l0,.13a.62.62,0,0,1,.31.07A3.31,3.31,0,0,1,85.77,17a.11.11,0,0,0,0,0,4.54,4.54,0,0,1-1.66,2,4.21,4.21,0,0,1-1.38.61c.45.31.91.61,1.34.93.84.62,1.65,1.27,2.44,1.93A44.9,44.9,0,0,1,95,31.93h0a37,37,0,0,1,5.53,12.87c.05.21.09.41.13.62A51.58,51.58,0,0,1,94.49,81.67Z"/>
</svg>
