<svg id="Layer_1" data-name="Layer 1" xmlns="http://www.w3.org/2000/svg" width="82.77" height="129.73" viewBox="0 0 82.77 129.73">
  <defs>
    <style>
      .cls-1 {
        fill: #ff0;
      }
    </style>
  </defs>
  <path class="cls-1" d="M70.41,124.24a7.8,7.8,0,0,0,.2-7.36,10.75,10.75,0,0,0-3.86-4.29,9.09,9.09,0,0,0-3.4-4.36,11.4,11.4,0,0,0-5.29-1.88c0-.63,0-1.24,0-1.84a11.35,11.35,0,0,0,5,1.17,9.46,9.46,0,0,0,8.57-5.18,6,6,0,0,0,.35-.78,10.8,10.8,0,0,0,.68-2.64,12.79,12.79,0,0,0-.05-3.54A8.87,8.87,0,0,0,75.9,89a6.67,6.67,0,0,0,.22-.82,9.77,9.77,0,0,0,.24-2.63A13.42,13.42,0,0,0,74.74,80a16.23,16.23,0,0,0-5.52-6,30.1,30.1,0,0,0-.08-8.83,13.58,13.58,0,0,1-.1-2A24.43,24.43,0,0,0,74.52,59a8,8,0,0,0,3.2-2.42,9.15,9.15,0,0,0,3.49-3.35,10.76,10.76,0,0,0,.34-10.56,12.62,12.62,0,0,0-6.92-6.31,30.46,30.46,0,0,0-4.86-4,23.3,23.3,0,0,0-9.44-3.81c-.61-.1-1.24-.17-1.88-.22-.62-2.26-1.5-4.66-2.4-7.12l-.52-1.47C50.55,5.5,48.05.67,43,.05c-.3,0-.6,0-.9,0-1.7,0-5.91.63-8.28,6.48a21.75,21.75,0,0,0-1.24,8.6,32.67,32.67,0,0,0-4-2.12,23.55,23.55,0,0,0-9.41-2.1,17.67,17.67,0,0,0-8.86,2.29,9.48,9.48,0,0,0-5.16,7.46c-.54,6.12,5.15,10.85,10.18,15,1.19,1,2.43,2,3.22,2.8a86.19,86.19,0,0,0,16,11.33,2.58,2.58,0,0,1,.08.26c.06.54.15,1.22.3,2,0,.22,0,.43,0,.65-5.19,3.32-12.53,9.6-18.49,20.8A71.44,71.44,0,0,0,8.88,94.85c-.22,0-.44,0-.66,0a7.9,7.9,0,0,0-7,3.88c-.83,1.41-3.35,5.7,3,17A13.48,13.48,0,0,0,15.88,123c.4,0,.8,0,1.19-.06a23.36,23.36,0,0,0,13.61,4.52,20.93,20.93,0,0,0,3.38-.27,9.71,9.71,0,0,0,6.87,2.37l3.34,0h.24c2.76,0,6.42.09,9.56.09s5.09,0,6.3-.15C65.06,129.17,68.73,127.22,70.41,124.24Zm-5.22-3c-.67,1.18-2.77,2.1-5.35,2.32-1,.09-2.88.13-5.77.13-3.12,0-6.74,0-9.48-.09l-3.66,0c-1.63,0-2.73-.43-3.17-1.26s-.24-1.84.53-3.18a12.67,12.67,0,0,1-7.61,2.34,17.18,17.18,0,0,1-12.19-5.22,4.32,4.32,0,0,1-2.61.76,7.58,7.58,0,0,1-6.48-4.21c-1.09-2-4.52-8.54-3-11.08a2,2,0,0,1,1.85-.92,5.79,5.79,0,0,1,1.17.14c1.8.42,3.43,1.79,4.86,4.06-.56-8.37,2.13-18.82,7.41-28.73,5.42-10.21,12-15.8,16.62-18.69,2.13-1.35,2.77-1.75,2.65-3.9,0-.14,0-.29,0-.44s0-.31,0-.48a.11.11,0,0,1,0-.08.11.11,0,0,1,.07,0h.29a17.18,17.18,0,0,1-.73-4.06c-.07-.16-.14-.33-.22-.5q-.21-1.2-.39-2.31a.07.07,0,0,1,0-.06A77.59,77.59,0,0,1,22.76,34.15c-1-.94-2.24-2-3.59-3.13-3.9-3.24-8.29-6.89-8-9.88a3.69,3.69,0,0,1,2.15-2.77,11.76,11.76,0,0,1,5.89-1.51,17.5,17.5,0,0,1,7,1.6c4.74,2.08,9.53,6.14,13.48,11.43,0,0,2.34,3.43,3.58,5.48.28.47.51.87.64,1.15.35.69.67,1.36.94,2-.16-.6-.35-1.21-.56-1.84a.1.1,0,0,1,0-.09s-.06,0-.06,0c-.56-1.68-3.19-7-3.21-7.07-1.49-5.62-3.67-15.75-1.64-20.77C40.1,6.92,41,6,42.09,6h.23c1.89.23,4.88,8.06,7.55,15.68.23.63.41,1.16.54,1.53,1.53,4.18,3.1,8.47,3,11.09l0,0c.91-.09,1.8-.14,2.67-.14a22.51,22.51,0,0,1,3.43.25,17.3,17.3,0,0,1,7,2.87,24,24,0,0,1,5,4.51c.23.29.44.57.64.84l-.52-.7a.09.09,0,0,1,0-.11.11.11,0,0,1,.09-.05h0a6.06,6.06,0,0,1,4.53,3.59,4.74,4.74,0,0,1-.11,4.71c-.47.76-1.14,1.32-1.59,1.32h0a4.3,4.3,0,0,1-.66.07,3.28,3.28,0,0,1-.43,0,1.52,1.52,0,0,0,.24,0,.13.13,0,0,1,.07,0,.08.08,0,0,1,0,.08,3.26,3.26,0,0,1-.43.87,2,2,0,0,1-1.69,1.09h0a1.93,1.93,0,0,1-.49-.07.1.1,0,0,1,0,.09c-1.31,2.46-5.9,4.85-7.81,5.76-.13,1.13-.23,2.22-.26,3.27a20.76,20.76,0,0,0,.14,3.22A23.23,23.23,0,0,1,62.35,77c3.56,1.51,5.87,3.37,7.05,5.68a7.37,7.37,0,0,1,1,3.11,3.9,3.9,0,0,1-.1,1.12.66.66,0,0,1-.06.2,3.35,3.35,0,0,1-3.46,2.21h0a5.62,5.62,0,0,1-2.57-.64,11.1,11.1,0,0,1,2.12,3.92,9.16,9.16,0,0,1,.44,3.68,4.65,4.65,0,0,1-.33,1.24,1.45,1.45,0,0,1-.09.22,3.42,3.42,0,0,1-3.23,1.9,5.61,5.61,0,0,1-4.17-2,18.55,18.55,0,0,0-5-3.84c-1.74,2.44-3.13,4.08-3.4,4.38.33.64,3,6.17.76,11.1a15,15,0,0,1-2.41,3.8,33,33,0,0,1,6.92-.93,7.45,7.45,0,0,1,4.18.93,3,3,0,0,1,1.22,3.41,6.32,6.32,0,0,1,4.07,2.94A1.79,1.79,0,0,1,65.19,121.28Z"/>
</svg>
