<svg id="Layer_1" data-name="Layer 1" xmlns="http://www.w3.org/2000/svg" width="132.42" height="132.6" viewBox="0 0 132.42 132.6">
  <defs>
    <style>
      .cls-1 {
        fill: #ff0;
      }
    </style>
  </defs>
  <path class="cls-1" d="M130.26,50.32a66.17,66.17,0,0,0-8.36-19.4l-.27-.44c-.11-.17-.22-.34-.34-.49a65.57,65.57,0,0,0-19-18.88l0,0A58.12,58.12,0,0,0,67.35,0,65.91,65.91,0,0,0,44.87,3.83l-.15.06A66.14,66.14,0,0,0,10,101.38l.08.13a54.61,54.61,0,0,0,11.55,13.83,66.43,66.43,0,0,0,13.58,9.55c.61.33,1,.5,1,.5l.34.16a66.43,66.43,0,0,0,29.64,7h0a66.4,66.4,0,0,0,16.15-2,65.68,65.68,0,0,0,47-44.55A53.39,53.39,0,0,0,132,61.28,65.94,65.94,0,0,0,130.26,50.32Zm-6.64,33.77h0A60.12,60.12,0,0,1,38.81,120h0s-.29-.14-.78-.41a60,60,0,0,1-12.41-8.71A49.58,49.58,0,0,1,15.24,98.55h0A60.15,60.15,0,0,1,47,9.47l.14-.07s27.57-11,51.64,6.53v0a60,60,0,0,1,17.78,17.69h0l.25.43a60.13,60.13,0,0,1,7.66,17.73,60.79,60.79,0,0,1,1.63,10.05A47.76,47.76,0,0,1,123.62,84.09Z"/>
</svg>
