<svg id="Layer_1" data-name="Layer 1" xmlns="http://www.w3.org/2000/svg" width="156.71" height="190.85" viewBox="0 0 156.71 190.85">
  <defs>
    <style>
      .cls-1 {
        fill: #ff0;
      }
    </style>
  </defs>
  <path class="cls-1" d="M155.89,170l0-.06c-.1-.26-.19-.55-.28-.86l0-.15c-.1-.35-.19-.71-.28-1.08l0-.19c-.1-.42-.19-.86-.28-1.31,0,0,0-.11,0-.13-.19-1-.36-2.11-.51-3.33l-6,.71v.06c.17,1.3.36,2.53.57,3.66l0,.14c.1.53.21,1,.32,1.53a1.74,1.74,0,0,0,.05.22c.11.47.22.92.34,1.35l.06.2c.13.43.25.83.39,1.2a.78.78,0,0,0,.05.14c.14.38.29.75.44,1.08a57.12,57.12,0,0,1-9.49,3.64,185.19,185.19,0,0,1-29.75,6c-2.84.35-5.76.68-8.77.95l-.48,0-2.51.22-.8.06v.07l-3.31.17h-.24l-1.75.11-1.51.08-1.62.09-1.52.06-1.69.06-.3,0h-.35c-1.91.06-3.84.11-5.78.13H80.5c-2,0-4,0-6.06,0h-.2c-2.08,0-4.17-.09-6.27-.18h-.1c-2.14-.09-4.28-.2-6.43-.35-4.59-.31-9.21-.76-13.83-1.36a183.29,183.29,0,0,1-29.82-6.33q-5.1-1.56-10-3.46c.09-.67.17-1.36.25-2,.05-.44.09-.89.14-1.34,0-.26.06-.52.08-.78l.15-1.58c0-.2,0-.4.05-.6.05-.55.09-1.11.14-1.67,0-.19,0-.38,0-.58l.12-1.73c0-.18,0-.37,0-.56,0-.61.07-1.22.1-1.84l0-.49L9,158c0-.16,0-.31,0-.47,0-.64.05-1.29.08-1.93,0-.16,0-.32,0-.48,0-.65,0-1.3.06-2,0-.16,0-.32,0-.48,0-.65,0-1.31,0-2,0-.17,0-.33,0-.5,0-.66,0-1.32,0-2,0-.16,0-.32,0-.49,0-.65,0-1.31,0-2v-2.47c0-.18,0-.36,0-.53,0-.64,0-1.28,0-1.92v-.56l0-1.9c0-.18,0-.37,0-.56,0-.63,0-1.25,0-1.87,0-.19,0-.39,0-.58,0-.61,0-1.21,0-1.81,0-.21,0-.41,0-.62,0-.58-.05-1.17-.07-1.75l0-.64c0-.57,0-1.13-.08-1.69l0-.67-.09-1.62c0-.23,0-.46,0-.69,0-.52-.06-1-.1-1.56,0-.23,0-.46,0-.7,0-.5-.07-1-.11-1.49,0-.24,0-.47-.05-.71,0-.48-.07-.95-.11-1.42l-.06-.72L8.12,118c0-.24,0-.48-.07-.72,0-.43-.08-.85-.13-1.27,0-.24,0-.48-.07-.72,0-.4-.09-.8-.13-1.19l-.09-.71c0-.38-.09-.75-.13-1.11l-.09-.7-.15-1c0-.23-.06-.46-.1-.69s-.09-.63-.14-.94-.07-.44-.11-.66-.1-.59-.15-.87-.07-.42-.11-.62-.1-.54-.16-.8l-.12-.57q-.08-.37-.15-.72c-.08-.31-.15-.62-.22-.9H6l.25-.28.78-.86,2-2.17.64-.72,2-2.26c.21-.24.42-.49.64-.73q1-1.14,2-2.31l.68-.78,2-2.33.67-.79c.68-.79,1.36-1.58,2-2.39.22-.26.44-.53.67-.79.67-.81,1.35-1.61,2-2.42.25-.29.49-.59.73-.88l2-2.39.75-.91,2-2.39.79-1L30.51,75l.84-1,1.85-2.29c.3-.39.61-.77.91-1.15l1.76-2.21,1-1.26L38.52,65l1.08-1.4,1.53-2,1.28-1.67,1.29-1.68c.5-.65,1-1.3,1.47-2,.36-.46.71-.93,1.06-1.39l2-2.67.48-.65q2.48-3.31,4.81-6.56h0c.78-1.07,1.54-2.14,2.29-3.2.08-.11.16-.23.25-.34l2-2.8.48-.7,1.65-2.37.62-.91c.48-.7,1-1.4,1.42-2.09.24-.36.47-.72.71-1.07l1.24-1.85.73-1.13L66,26.84l.73-1.15,1-1.59.73-1.18.89-1.45c.25-.41.48-.81.72-1.21s.53-.88.78-1.31.47-.82.71-1.23l.66-1.17c.24-.41.45-.81.67-1.22s.39-.71.58-1.05l.61-1.2c.17-.31.34-.64.49-.94s.26-.55.39-.82a2.82,2.82,0,1,1,3.14-.41c9.93,16.84,33.5,59.5,70.15,92.85,0,0,0,.08,0,.24h0c0,.27-.05.78-.09,1.48h0c-.08,1.48-.2,3.84-.33,6.81v.24c0,.54,0,1.09-.07,1.67v.27c0,.57-.05,1.16-.07,1.77,0,.11,0,.22,0,.32,0,.59,0,1.2-.07,1.82a1.7,1.7,0,0,1,0,.22c0,.62,0,1.25-.06,1.9v.42l-.06,2v.45c0,.68,0,1.38-.05,2.08,0,.13,0,.26,0,.38,0,.74,0,1.48,0,2.23v.26c0,.77,0,1.54,0,2.32v.11c0,.8,0,1.6,0,2.4,0,.1,0,.21,0,.31,0,.78,0,1.57,0,2.37v3c0,.83,0,1.67,0,2.5v.07c0,.87,0,1.74,0,2.61v0c0,.84,0,1.68.05,2.51a1.48,1.48,0,0,0,0,.21c0,.81,0,1.61.07,2.41v.26q0,1.2.09,2.37V152c.07,1.64.16,3.24.27,4.78v.07c.05.75.11,1.48.17,2.2a1.49,1.49,0,0,0,0,.21c.06.69.12,1.37.19,2l0,.24c.07.67.14,1.31.22,1.94,0,0,0,.07,0,.11l5.93-.86c-.07-.59-.14-1.2-.21-1.87l0-.19c-.07-.63-.13-1.27-.19-1.95v-.19c-.06-.69-.12-1.39-.17-2.17q-.16-2.24-.27-4.65v-.16c0-.76-.06-1.53-.09-2.39V149c0-.78,0-1.57-.07-2.46l-.05-2.62c0-.84,0-1.69,0-2.61s0-1.64,0-2.47v-2.62s0-1.91,0-2.68c0,0,0-1.9,0-2.69l0-2.41.06-2.47.06-2.43.06-2.37.08-2.29.07-2.06.17-4.23c.13-2.94.25-5.28.33-6.74l.1-1.8a6,6,0,0,0-1.95-4.69C119,69,96.45,30.42,85.63,11.89c-.25-.44-.51-.88-.76-1.3a8.72,8.72,0,0,0,.19-1.77,8.82,8.82,0,1,0-17.1,3l-.33.6L67,13.63l-1.32,2.29c-.17.3-1.45,2.44-1.45,2.44l-1.58,2.56L61,23.6l-1.8,2.77L58.09,28l-.86,1.28c-.45.68-.92,1.37-1.4,2.06l-.61.9L53.6,34.55l-.48.68L51.18,38l-.25.35c-.74,1-1.49,2.09-2.26,3.15v0c-1.55,2.14-3.14,4.3-4.76,6.5l-.48.63-2,2.65L38.93,54.6l-2.55,3.33-2.59,3.33-2.63,3.35-2.65,3.33-2.67,3.32c-.63.79-2.68,3.3-2.68,3.3l-1.95,2.38-2.72,3.27s-2.06,2.47-2.74,3.27l-2.44,2.87L9.74,90.5l-2,2.29-.63.72-2,2.23-.63.71L2.57,98.6l-1,1.16a6,6,0,0,0-1.34,5.49c.06.23.12.49.18.76l.13.61.11.53c.05.23.1.46.14.72l.11.55c0,.26.23,1.42.23,1.42l.14.88.23,1.62.22,1.74.2,1.83.2,1.92.18,2s.13,1.61.17,2.08l.15,2.15.14,2.19.13,2.28L3,130.85l.09,2.35s.06,1.78.08,2.39L3.19,138l0,2.41s0,1.82,0,2.44c0,0,0,1.8,0,2.45,0,0,0,1.79,0,2.43,0,0,0,1.77,0,2.43,0,0,0,1.76-.05,2.4,0,0,0,1.75-.07,2.39,0,0-.06,1.73-.09,2.35,0,0-.08,1.71-.11,2.32l0,.49c0,.6-.06,1.19-.1,1.79l0,.55c0,.56-.07,1.12-.11,1.66,0,0-.13,1.7-.18,2.19l-.06.69c0,.47-.08.95-.13,1.42l-.21,2c-.08.66-.16,1.32-.24,2a6,6,0,0,0,3.79,6.36C9,180,12.47,181.25,16,182.34a189.38,189.38,0,0,0,30.8,6.54c4.63.6,9.4,1.07,14.19,1.4,2.15.14,4.37.26,6.5.35h.19c2.07.08,4.17.14,6.49.18h.14l3.83,0H80.9c2,0,3.95-.07,6-.13h.3l3.55-.14,3.2-.17,1.85-.11,3.43-.18a6.38,6.38,0,0,0,1-.14l2.56-.22.47,0c3-.28,6-.61,9-1a193.64,193.64,0,0,0,30.75-6.2,62.72,62.72,0,0,0,10.51-4.06,6,6,0,0,0,2.66-7.88A6.62,6.62,0,0,1,155.89,170Z"/>
</svg>
