<svg id="Layer_1" data-name="Layer 1" xmlns="http://www.w3.org/2000/svg" width="256.3" height="189.56" viewBox="0 0 256.3 189.56">
  <defs>
    <style>
      .cls-1 {
        fill: #ff0;
      }
    </style>
  </defs>
  <path class="cls-1" d="M161.07,105.79a1.86,1.86,0,0,1,1.86,1.86v3.5a1.86,1.86,0,0,1-1.86,1.86h-1.18v29.44h9V128.68h.78l.68-112.22-23.75,89.33Zm2.8-5.49a7.86,7.86,0,0,0-2.8-.51h-6.64l9.66-36.34Z"/>
  <path class="cls-1" d="M250.3,132.32l-63.82.46a6,6,0,0,0-3.91,1.49v-4c41-22.4,55.52-54.81,56.15-56.25a6,6,0,0,0-.71-6c-22.44-29.82-51.28-50.7-60.63-57.06v-.83l.73-2.14A6,6,0,0,0,172.42,0h-3.11a6,6,0,0,0-5.65,8l.76,2.1v1.23L96.3,61.45l0-.57,1-3.06a6,6,0,0,0-5.68-7.93h-3.1a6,6,0,0,0-5.65,8L84,61.1l-.17,9.5-74.77,55-2.77-.15H6A6,6,0,0,0,.53,133.9L2.36,138l.4,1.5a85.47,85.47,0,0,0,13.68,27.35c8.91,14.24,27.44,22,28.23,22.29a6.07,6.07,0,0,0,2.27.44H206.72a6,6,0,0,0,4.49-2c4-4.49,8.69-9.1,10.26-10.08a79.85,79.85,0,0,0,8.89-3.55,49.11,49.11,0,0,0,5.72-2.84l0,0a3.79,3.79,0,0,0,.34-.2,35.59,35.59,0,0,0,3.78-2.55A35.33,35.33,0,0,0,255.75,146c.06-.24.11-.47.15-.72q.18-.93.33-1.89a6.54,6.54,0,0,0,.07-.89v-4.13a6,6,0,0,0-6-6Zm0,10.13c-.09.61-.2,1.2-.32,1.78l0,.11h0a29.61,29.61,0,0,1-13.26,19.12,28.3,28.3,0,0,1-3.48,2.35h0l-.08,0a42.63,42.63,0,0,1-5.2,2.58,73.37,73.37,0,0,1-8.58,3.41c-3.09,1-12.64,11.72-12.64,11.72H46.94s-17.6-7.22-25.53-20.1h0A79.34,79.34,0,0,1,8.54,137.85h0l0-.08c-.19-.66-.31-1.15-.38-1.44L8,136l-2-4.54,4.91.26,78.89-58L90.07,59h-.42l-1.11-3.1h3.1l-1,3.1h-.36l.42,14.06L170.39,14.4l0-5.3L169.31,6h3.11l-1.06,3.1,0,5c3.67,2.37,36.81,24.22,61.81,57.44,0,0-15.52,35.5-60.8,57.11h1.39v1.39h2.76v4.61h-2.76v7.77h9.73l3-3.67,63.77-.46Z"/>
  <path class="cls-1" d="M77.8,142.45h1.5l-3.23-23.13L10.91,131.7l55,3ZM71,126.39l.68,4.89-2.53-1.65a6,6,0,0,0-3-1l-5.57-.3Z"/>
</svg>
