<svg id="Layer_1" data-name="Layer 1" xmlns="http://www.w3.org/2000/svg" width="69.58" height="51.81" viewBox="0 0 69.58 51.81">
  <defs>
    <style>
      .cls-1 {
        fill: #ff0;
      }
    </style>
  </defs>
  <path class="cls-1" d="M67.51,7.09a6.46,6.46,0,0,0-3.29-2.65,6,6,0,0,0-1-.29h0c-.5-.19-1.2-.44-1.93-.64A11,11,0,0,0,60,3.22c-.17-.13-.39-.3-.53-.43s-.26-.25-.44-.4A9,9,0,0,0,52.87,0a11,11,0,0,0-5.56,1.59l-.24.14a11.93,11.93,0,0,1-1.58.81,40,40,0,0,1-4,1.43,43.66,43.66,0,0,1-6.72,1.35l-1.48.19C30.52,5.8,21.48,7,14.7,11.16l-.71.45a17.11,17.11,0,0,0-6,6.15c-3.89.52-6.85,3.32-7.86,7.55A5.69,5.69,0,0,0,0,26.48C0,27.78.12,34.63,8.51,41c.68.55,1.38,1.06,2.1,1.56a7.43,7.43,0,0,0,3,3.82,7.48,7.48,0,0,0,4.28,1.31,8.32,8.32,0,0,0,2.49-.38c.19,0,.39-.1.6-.16a5.22,5.22,0,0,0,1-.41,4.57,4.57,0,0,0,.58-.33,9.41,9.41,0,0,0,1.79.17,7.76,7.76,0,0,0,5-1.72l1.59.91.4.23c.38.21,1,.56,1.69.88a7.47,7.47,0,0,0,1.43,2.32,8.07,8.07,0,0,0,6,2.57,8.91,8.91,0,0,0,1.84-.19c.44-.08.86-.18,1.28-.3a6.2,6.2,0,0,0,1.59-.73,5.8,5.8,0,0,0,.59-.43,6,6,0,0,0,1.38-1.38l.46,0a7.91,7.91,0,0,0,5.17-2,6,6,0,0,0,1.4-1.77,2.57,2.57,0,0,0,.15-.29l0-.07a5.87,5.87,0,0,0,.82-2.76,7.48,7.48,0,0,0,4.25-1.66A6.23,6.23,0,0,0,60.55,39l.18-.25c.06-.08.12-.19.18-.28l.13-.06A5.88,5.88,0,0,0,63.16,37a5.88,5.88,0,0,0,.94-1.11,7.33,7.33,0,0,0,.63-6.71,8.09,8.09,0,0,0-5.12-4.69,24.36,24.36,0,0,0,4.56-2.72c.34-.22.67-.45,1-.69a14.29,14.29,0,0,0,1.24-1.11l.21-.22.48-.46a6.48,6.48,0,0,0,.74-.92,10.24,10.24,0,0,0,1-1.92,8.85,8.85,0,0,0,.67-4.9A8.48,8.48,0,0,0,67.51,7.09Zm-4.24,7a4.93,4.93,0,0,1-.45.93s-.17.17-.46.43l-.16.17h0a6.39,6.39,0,0,1-.71.65c-.23.18-.49.36-.77.54a15.91,15.91,0,0,1-5.85,2.92l-.18.05a20.5,20.5,0,0,0-3.9,2c-.27.23-.53.45-.77.68-.4.46-.87,1-1.33,1.42a9.32,9.32,0,0,1-1.36,1.34h0c-.24.24-.41.39-.41.39s1.33,2.89,3.56,3.7l.06,0a3.56,3.56,0,0,0,1,.2s1.25.16,2.85.26l.71,0,1,0c1.54,0,2.75.6,3,1.46a1.36,1.36,0,0,1-.07,1.23l-.2.14-.11.16a1.57,1.57,0,0,1-.52.1,1.21,1.21,0,0,1-.84-.2,1.74,1.74,0,0,1-.51-.48,1.84,1.84,0,0,1-.21-.31s-4.67,0-6.44-.63l1.88,1.1.93.51c3.36,1.26,2.86,2,2.86,2a1,1,0,0,1-.07.18.58.58,0,0,1-.09.25l0,.05a.86.86,0,0,1-.17.15,1.78,1.78,0,0,1-1.67.26l-.27-.09-.16-.09-.06,0a1,1,0,0,1-.26-.27,1.2,1.2,0,0,1-.21-.47,1.09,1.09,0,0,0-.31-.41,2.16,2.16,0,0,0-.34-.16c-.77,0-2.72-1.22-4-2l-.79-.44a5.15,5.15,0,0,0-2.3-.35c0,.9-.32,1.32-.71,1.5a1.3,1.3,0,0,1-1,.11l0,0a1.15,1.15,0,0,1-.22,0L43,32.74c-.44-.4-1-1.08-.27-1.7a1.82,1.82,0,0,1,1-.56l.26,0a.49.49,0,0,0,.4-.25,1.47,1.47,0,0,0-.09-.82l-1-1.83.1-.06,0-.07s0,0,0,0c-2,1-4.07,2-4.83,2.5-1.35.86-5.65,3-6,3.2a1.3,1.3,0,0,0,.15.41,8,8,0,0,0,.48.75l.1.12A9.3,9.3,0,0,0,34.48,36l7.43-.25.65-.12a4.42,4.42,0,0,1,2.16-.13,1.66,1.66,0,0,1,.22,0l.13,0c.85.22,1.57.71,1.55,1.67a1,1,0,0,1-.71.78,1.64,1.64,0,0,1-1.65-.39l0-.05-.4-.24a1.21,1.21,0,0,0-.28,0l-.75.14a1.66,1.66,0,0,0-.33.16h-.73a4,4,0,0,1-1.42.06.42.42,0,0,0-.12,0l-1.24,0-.81.11,5.51,1.34,2,.47A6.82,6.82,0,0,1,47.6,40h0c.41.16.69.3.69.3a1.36,1.36,0,0,1,.59.78,1.86,1.86,0,0,1,.18.55l-.2.3a1.67,1.67,0,0,1-.13.31,1.69,1.69,0,0,1-2.52-.06,2,2,0,0,0-.52-.61,1.36,1.36,0,0,0-.55-.24l-.29,0H44.8A21.36,21.36,0,0,1,40,40.49a19,19,0,0,1-3.43-1.05.84.84,0,0,0,0,.12l3,2.6.37.27a.53.53,0,0,0,.06.1l.23.2a2.63,2.63,0,0,0,1.08.51l.14,0,.09,0,0,0a1.1,1.1,0,0,1,.67.63,1,1,0,0,1-.1,1.19.87.87,0,0,1-.06.13l-.11,0a2.28,2.28,0,0,1-.28.24,7,7,0,0,1-.75.17c-1.62.38-2.65-.61-2.57-1.51A1.66,1.66,0,0,0,38,43,7,7,0,0,0,36.57,42a4.06,4.06,0,0,0-.44-.21,14.41,14.41,0,0,1-2-1h0l0,0L34,40.66l-2.4-1.36L31,39.08a4.28,4.28,0,0,1-.89-.49,6.41,6.41,0,0,1-2.55-3.05A11.6,11.6,0,0,1,27,34.19c-.22,0-.45,0-.68,0a13.15,13.15,0,0,1-6-1.32,4.71,4.71,0,0,1-2.48,1.77,4.66,4.66,0,0,0,3,1.3l-.21-.09a16.61,16.61,0,0,0,3.91.17c1.8.67.86,1.9.86,1.9l-.05,0,0,.06a1.89,1.89,0,0,1,.47.47c0,.12.05.23.07.34a1.87,1.87,0,0,1,0,1.15l-.12.08c-.66,1.12-2.93.47-3.07,0a2,2,0,0,0-1-.88,4.65,4.65,0,0,1-.8-.2,16.55,16.55,0,0,1-5.62-2.43L19,39.36a2.72,2.72,0,0,1,.59.77c.39.68,0,1,0,1l-.11,0a1.17,1.17,0,0,1-.27.23c-.17,0-.32.08-.47.11a1.84,1.84,0,0,1-1.84-.13,1.71,1.71,0,0,1-.76-1.49,1.31,1.31,0,0,0-.39-1.13,2.5,2.5,0,0,0-.3-.21,30.25,30.25,0,0,1-3.27-2.29C5.81,31.45,6,26.71,6,26.71c.57-2.38,2-3,3.32-3a5.54,5.54,0,0,1,.79-.05c.33.1.63.2.91.31a7.18,7.18,0,0,1,1.36.56c0-.27,0-.54,0-.8,0-.1,0-.19,0-.28a4.52,4.52,0,0,1,.06-.53.64.64,0,0,0,0-.07c.48-2.54,2.25-4.56,4.74-6.16l.4-.26.12-.07c4.87-3,11.92-4.42,16.28-4.85l1.49-.2a48.45,48.45,0,0,0,7.65-1.54,41.06,41.06,0,0,0,4.67-1.68,19.34,19.34,0,0,0,2.45-1.26c2.89-1.67,4.46-.22,4.74.08a3.41,3.41,0,0,1,.29.25S57.18,8.88,58.5,9l.38.07a6,6,0,0,1,.76.18,17.39,17.39,0,0,1,2,.69l.21,0h.06L62,10l.12,0c.45.15.27.44.27.44a2.56,2.56,0,0,1,1.14,1.86A2.9,2.9,0,0,1,63.27,14.11Z"/>
</svg>
