<svg id="Layer_1" data-name="Layer 1" xmlns="http://www.w3.org/2000/svg" viewBox="0 0 512 512"><defs><style>.cls-1,.cls-2{fill:#ff0;}.cls-1{isolation:isolate;}</style></defs><g id="Yellow"><path class="cls-1" d="M405.6,387l-.63-.1H321.79c18.37-21.09,43-53.43,55-69.31,3.11-4.09,5.57-7.32,6.47-8.45,4.68-5.84,113.46-144,25.54-226-28.26-26.36-59.64-39.72-93.26-39.72-20.48,0-52.41,5.24-88.27,30.19-.52.37-.93.66-1.24.86-7.41,4.94-37.74,31.08-39.57,59.62-.84,13.06,4.45,24.94,15.29,34.38l.17.14.17.14c7.94,6.23,16.18,9.39,24.5,9.39,22.76,0,37-23.58,40.05-29.11,16.86-18.67,35.76-22.62,48.72-22.62a57,57,0,0,1,14,1.65c16.24,7.81,25.79,17.77,29.2,30.44,8.27,30.8-20.5,72.41-41.51,102.79-1.92,2.77-3.77,5.44-5.51,8-27.72,40.6-101.79,110-107.61,115.46-27.37,20.16-28.27,37.67-28.12,41.34.62,34.79,27,41.78,28.1,42.06l1,.26H405.25c11.05,0,33.87-9.85,33.87-40.29C439.12,399.5,417.19,388.69,405.6,387Zm-.32,72.75H206.11s-21.11-5.27-21.57-34c0,0-1.38-15.14,25-34.41,0,0,79.62-73.89,109.22-117.25S406.88,155,332.54,119.89c0,0-40.31-12.92-73,24.09,0,0-21.11,42.22-52.09,17.9-35.33-30.75,15.15-74.8,23.41-80.31s90.4-68.38,172.09,7.8S382.1,296.8,376.59,303.68s-54.84,73.43-74.72,91.79H404.36s26.16,3.9,26.16,32.58S407.8,459.71,405.28,459.71Z"/><path class="cls-2" d="M109.46,44.11A40.55,40.55,0,0,0,69,84.61V428.13a40.5,40.5,0,0,0,81,0V84.61A40.55,40.55,0,0,0,109.46,44.11Zm32,384A32,32,0,0,1,109.49,460h0A32,32,0,0,1,77.56,428.1V84.58a32,32,0,0,1,31.93-31.92h0a32,32,0,0,1,31.92,31.92Z"/></g></svg>