<svg id="Layer_1" data-name="Layer 1" xmlns="http://www.w3.org/2000/svg" viewBox="0 0 512 512"><defs><style>.cls-1{fill:#999;}</style></defs><g id="_12_Gray" data-name="12_Gray"><path class="cls-1" d="M259.57,144s-21.11,42.22-52.09,17.9c-35.33-30.75,15.15-74.8,23.41-80.31s90.4-68.38,172.09,7.8S382.1,296.8,376.59,303.68s-54.84,73.43-74.72,91.79H404.36s26.16,3.9,26.16,32.58-22.72,31.66-25.24,31.66H206.11s-21.11-5.27-21.57-34c0,0-1.38-15.14,25-34.41,0,0,79.62-73.89,109.22-117.25S406.88,155,332.54,119.89C332.54,119.89,292.23,107,259.57,144Z"/><rect class="cls-1" x="77.56" y="52.66" width="63.85" height="407.37" rx="31.92"/></g></svg>