<svg id="Layer_1" data-name="Layer 1" xmlns="http://www.w3.org/2000/svg" viewBox="0 0 512 512"><defs><style>.cls-1{fill:#0267ff;}</style></defs><g id="_12_Blue" data-name="12_Blue"><path class="cls-1" d="M259.49,143.83s-21.11,42.22-52.09,17.89c-35.33-30.74,15.15-74.8,23.41-80.31S321.21,13,402.9,89.22,382,296.64,376.51,303.53,321.67,377,301.79,395.31H404.28s26.16,3.9,26.16,32.58-22.72,31.67-25.25,31.67H206s-21.11-5.28-21.57-34c0,0-1.38-15.15,25-34.42,0,0,79.62-73.89,109.22-117.25s88.11-119.09,13.77-154.2C332.46,119.73,292.15,106.81,259.49,143.83Z"/><path class="cls-1" d="M109.41,52.19h0a32,32,0,0,0-31.77,32v344a32,32,0,0,0,31.77,32h0a32,32,0,0,0,31.76-32v-344A32,32,0,0,0,109.41,52.19Z"/></g></svg>