<svg id="Layer_1" data-name="Layer 1" xmlns="http://www.w3.org/2000/svg" viewBox="0 0 512 512"><defs><style>.cls-1{fill:#0267ff;}</style></defs><g id="Blue"><path class="cls-1" d="M256.4,138.08S220.83,173,198,147.6c-31.9-35.38,18.12-65.25,27-70S301,30.93,375.33,64.46s54.82,120.07,51.2,130-14,29-29.9,45.31c0,0-6.91,2.83,0,6,0,0,51.65,45.64,36.24,111.34s-67.05,103.3-122.78,102.4S181.41,430.1,191.38,389.77c0,0,10.87-35.34,44-25.82,0,0,31.26,25.14,60.94,26.5,19.92.92,68.64-.9,72.26-60.48,0,0,6.35-56.34-81.85-51.2,0,0-24.77-1.51-24.77-35.65s33.83-32.32,40.78-32.32,66.15,0,63.73-55S282,118.53,256.4,138.08Z"/><path class="cls-1" d="M108,52.44h0a32,32,0,0,0-31.76,32v344a32,32,0,0,0,31.76,32h0a32,32,0,0,0,31.77-32v-344A32,32,0,0,0,108,52.44Z"/></g></svg>