<svg id="Layer_1" data-name="Layer 1" xmlns="http://www.w3.org/2000/svg" viewBox="0 0 512 512"><defs><style>.cls-1,.cls-2{isolation:isolate;}.cls-2,.cls-3{fill:#92ff9f;}</style></defs><g id="Yellow" class="cls-1"><path class="cls-2" d="M428.08,272.81a144.5,144.5,0,0,0-22.34-30c14.23-15.52,24.68-33.62,28.91-45.27,1.94-5.34,8.31-31.2,4.05-60.32C433.22,99.78,412.56,72,379,56.83a153.14,153.14,0,0,0-63.38-13.64c-30.85,0-62.12,8.79-92.92,26.12-.68.39-1.23.7-1.65.92-6.12,3.3-36.87,21.06-41.39,47.1-2.18,12.59,1.91,24.73,12.15,36.08,7.11,7.89,16.24,12.06,26.4,12.06h0c20.95,0,40.63-17.73,43.87-20.78,11.32-8.43,36-17.06,58.15-17.06,24.29,0,37,9.65,37.86,28.69.58,13.16-2.66,23.23-9.89,30.8-13.23,13.81-36.12,15.3-45.35,15.3h-2.69c-29.61,0-46.59,14.88-46.59,40.83,0,33.33,21.43,43.44,32.76,44.13l.5,0,.51,0c3.6-.21,7.14-.31,10.51-.31,25.13,0,43.06,5.7,53.29,17a35.1,35.1,0,0,1,9.11,25.12l0,.21v.22c-2.13,34.93-21.6,52.64-57.88,52.64-1.79,0-3.59,0-5.52-.13-26.49-1.21-55.71-24.41-56-24.64l-1.33-1.07-1.65-.47a47.83,47.83,0,0,0-13.2-2c-30.58,0-40.8,32.09-41.22,33.45l-.07.23-.06.23c-3,12.18-.14,24.42,8.31,35.39,21.77,28.28,77.31,44.26,118.51,44.93l2.11,0a128,128,0,0,0,80.69-28.78c23.95-19.54,40.68-47.27,48.4-80.2C448.08,330.25,443.51,300.37,428.08,272.81Zm4.87,84.5c-15.4,65.7-67.05,103.3-122.78,102.4s-128.68-29.45-118.71-69.78c0,0,10.87-35.34,43.95-25.82,0,0,31.26,25.14,60.94,26.5,19.92.91,68.64-.9,72.26-60.49,0,0,6.35-56.33-81.85-51.19,0,0-24.77-1.51-24.77-35.65S295.82,211,302.77,211s66.15,0,63.73-55-84.42-37.31-110-17.75c0,0-35.57,34.89-58.45,9.52-31.9-35.38,18.12-65.25,27-70S301.1,31.09,375.41,64.62s54.82,120.06,51.2,130-14.05,29-29.9,45.31c0,0-6.91,2.83,0,6C396.71,246,448.36,291.61,433,357.31Z"/><path class="cls-3" d="M108.16,44.3a40.54,40.54,0,0,0-40.5,40.5V428.31a40.5,40.5,0,0,0,81,0V84.8A40.54,40.54,0,0,0,108.16,44.3ZM140,428.35a32,32,0,0,1-31.93,31.93h0a32,32,0,0,1-31.92-31.93V84.83A32,32,0,0,1,108.1,52.91h0A32,32,0,0,1,140,84.83Z"/></g></svg>