<svg id="Layer_1" data-name="Layer 1" xmlns="http://www.w3.org/2000/svg" viewBox="0 0 512 512"><defs><style>.cls-1{fill:#999;}</style></defs><g id="Gray"><path class="cls-1" d="M256.48,138.24s-35.57,34.89-58.45,9.52c-31.9-35.38,18.12-65.25,27-70S301.1,31.09,375.41,64.62s54.82,120.06,51.2,130-14.05,29-29.9,45.31c0,0-6.91,2.83,0,6,0,0,51.65,45.65,36.24,111.35s-67.05,103.3-122.78,102.4-128.68-29.45-118.71-69.78c0,0,10.87-35.34,43.95-25.82,0,0,31.26,25.14,60.94,26.5,19.92.91,68.64-.9,72.26-60.49,0,0,6.35-56.33-81.85-51.19,0,0-24.77-1.51-24.77-35.65S295.82,211,302.77,211s66.15,0,63.73-55S282.08,118.68,256.48,138.24Z"/><rect class="cls-1" x="76.18" y="52.91" width="63.85" height="407.37" rx="31.92"/></g></svg>