<svg id="Layer_1" data-name="Layer 1" xmlns="http://www.w3.org/2000/svg" viewBox="0 0 512 512"><defs><style>.cls-1,.cls-2{fill:#92ff9f;}.cls-1{isolation:isolate;}</style></defs><g id="Yellow"><path class="cls-1" d="M449.9,267.79C439.66,230.9,417.65,200.7,384.47,178,358,159.9,329.89,150.72,301,150.72a133.12,133.12,0,0,0-44.32,7.54v-32H406.9a41.64,41.64,0,1,0,0-83.27H214.3a40.91,40.91,0,0,0-40.86,40.86v33.81l.08,8.6v106a36,36,0,0,0,35.93,35.94h8.22a39.18,39.18,0,0,0,28-11.88c19.23-14.21,37.55-21.42,54.48-21.42,40.73,0,63.33,42.47,65.81,47.4,7.54,24.84,6.57,46.36-2.89,64-13.82,25.74-41.88,35.7-45.88,37a154.79,154.79,0,0,1-21.38,1.63h0c-30.86,0-42.15-11.78-52.11-22.18-2.14-2.23-4.17-4.35-6.33-6.28-8.13-7.3-17.08-11-26.62-11s-19.6,3.87-29.51,11.51c-9.6,7.41-14.78,17-15,27.62C166,401.23,178,419.78,202,439.71c30.65,25.48,75.4,29.29,99.36,29.29h0a181,181,0,0,0,18.75-.84l.42,0,.41-.09c47.83-10.15,84-32.88,107.51-67.56,19-28,23.87-55.53,25.72-65.9C455.46,327.22,459,300.66,449.9,267.79Zm-4.2,65.28C442,354,426.62,436.81,319.16,459.61c0,0-70.25,7.91-111.66-26.52s-37.22-56.76-20.93-69.32,31.63-13,45.12-.93,26.52,37.69,87.47,28.85c0,0,82.34-23.73,54.89-112.59,0,0-44.68-95.92-134-29.28a30.36,30.36,0,0,1-22.31,9.74h-8.22a27.33,27.33,0,0,1-27.33-27.33V117.67h-.08V83.86a32.25,32.25,0,0,1,32.26-32.25h192.6a33,33,0,0,1,33,33h0a33,33,0,0,1-33,33H248.13v53.5c15.35-7.55,69.45-28.47,131.51,14C453.14,235.37,449.42,312.13,445.7,333.07Z"/><path class="cls-2" d="M96.56,44.31a40.55,40.55,0,0,0-40.5,40.5V428.33a40.5,40.5,0,0,0,81,0V84.81A40.54,40.54,0,0,0,96.56,44.31Zm31.95,384a32,32,0,0,1-31.92,31.92h0a32,32,0,0,1-31.92-31.92V84.81A32,32,0,0,1,96.59,52.89h0a32,32,0,0,1,31.92,31.92Z"/></g></svg>