<svg id="Layer_1" data-name="Layer 1" xmlns="http://www.w3.org/2000/svg" viewBox="0 0 512 512"><defs><style>.cls-1{fill:#999;}</style></defs><g id="Gray"><path class="cls-1" d="M379.64,185.13c-62.06-42.43-116.16-21.51-131.51-14v-53.5h158.8a33,33,0,0,0,33-33h0a33,33,0,0,0-33-33H214.33a32.25,32.25,0,0,0-32.26,32.25v33.81h.08V232.23a27.33,27.33,0,0,0,27.33,27.33h8.22A30.36,30.36,0,0,0,240,249.82c89.36-66.64,134,29.28,134,29.28C401.5,368,319.16,391.69,319.16,391.69c-61,8.84-74-16.75-87.47-28.85s-28.84-11.63-45.12.93-20.47,34.9,20.93,69.32,111.66,26.52,111.66,26.52C426.62,436.81,442,354,445.7,333.07S453.14,235.37,379.64,185.13Z"/><rect class="cls-1" x="64.67" y="52.89" width="63.85" height="407.37" rx="31.92"/></g></svg>