<svg id="Layer_1" data-name="Layer 1" xmlns="http://www.w3.org/2000/svg" viewBox="0 0 512 512"><defs><style>.cls-1{fill:#0267ff;}</style></defs><g id="Blue"><path class="cls-1" d="M379.56,185c-62.06-42.42-116.16-21.5-131.51-14v-53.5h158.8a33,33,0,0,0,33-33h0a33,33,0,0,0-33-33H214.25A32.25,32.25,0,0,0,182,83.77v33.81h.08V232.14a27.33,27.33,0,0,0,27.33,27.33h8.22a30.39,30.39,0,0,0,22.31-9.73C329.29,183.09,374,279,374,279c27.45,88.86-54.89,112.59-54.89,112.59-60.95,8.84-74-16.75-87.47-28.85s-28.84-11.63-45.12.94S166,398.58,207.42,433s111.66,26.52,111.66,26.52C426.54,436.73,441.9,353.92,445.62,333S453.06,235.28,379.56,185Z"/><path class="cls-1" d="M96.51,52.48h0a32,32,0,0,0-31.76,32V428.51a32,32,0,0,0,31.76,32h0a32,32,0,0,0,31.77-32v-344A32,32,0,0,0,96.51,52.48Z"/></g></svg>