<svg xmlns="http://www.w3.org/2000/svg" xmlns:xlink="http://www.w3.org/1999/xlink" viewBox="0 0 1600 900"><defs><style>.cls-1,.cls-36,.cls-37,.cls-55{fill:none;}.cls-2{isolation:isolate;}.cls-3{clip-path:url(#clip-path);}.cls-4{fill:url(#linear-gradient);}.cls-5{fill:url(#linear-gradient-2);}.cls-6{fill:url(#linear-gradient-3);}.cls-7{fill:url(#linear-gradient-4);}.cls-8{fill:#4a2a15;}.cls-9{fill:#342516;}.cls-10,.cls-13,.cls-31,.cls-51{fill:#fad2c6;}.cls-10,.cls-37{stroke:#5f4a43;}.cls-10,.cls-13,.cls-14,.cls-16,.cls-22,.cls-29,.cls-31,.cls-32,.cls-33,.cls-36,.cls-37,.cls-48,.cls-55,.cls-65,.cls-68{stroke-miterlimit:10;}.cls-10,.cls-13,.cls-14,.cls-16,.cls-22,.cls-29,.cls-32,.cls-33,.cls-36,.cls-37,.cls-48{stroke-width:0.25px;}.cls-11{fill:#e7b4a7;}.cls-12{fill:#d6a398;}.cls-13,.cls-14,.cls-16,.cls-29,.cls-31,.cls-32,.cls-33,.cls-36{stroke:#323232;}.cls-14{fill:#fac7b3;}.cls-15{fill:#424036;}.cls-16{fill:#f6fbfd;}.cls-17{fill:#602220;}.cls-18{fill:#451f16;}.cls-19,.cls-48,.cls-77{fill:#fff;}.cls-20{fill:#561211;}.cls-21{fill:#d26653;}.cls-22{fill:#311415;stroke:#211e1f;}.cls-23{fill:#90856e;}.cls-24{fill:#605e44;}.cls-25,.cls-28{fill:#9e9580;opacity:0.5;}.cls-25,.cls-27{mix-blend-mode:multiply;}.cls-26,.cls-27{fill:#676254;}.cls-27{opacity:0.4;}.cls-28{mix-blend-mode:screen;}.cls-29{fill:#facc35;}.cls-30{fill:#be9030;}.cls-31,.cls-55{stroke-width:0.75px;}.cls-32{fill:#fcde7d;}.cls-33{fill:#e0604f;}.cls-34{fill:#f5927d;}.cls-35{fill:#c28974;}.cls-38{fill:#fab51b;}.cls-39{fill:#f17125;}.cls-40{fill:#80351b;}.cls-41{fill:#75451c;}.cls-42{fill:#a66638;}.cls-43{fill:#925b24;}.cls-44{fill:#e69847;}.cls-45{fill:#5f2710;}.cls-46{fill:#3d2d16;}.cls-47{fill:#dc9e8f;}.cls-48{stroke:#3d2d16;}.cls-49{fill:#fff7f4;}.cls-50{fill:#411e16;}.cls-52{fill:#632323;}.cls-53{fill:#323232;}.cls-54{fill:#e8d860;}.cls-55{stroke:#ef4b3b;}.cls-56{fill:#ef4b3b;}.cls-57{fill:#f49990;}.cls-58{fill:#e13e26;}.cls-59{fill:#fddf0e;}.cls-60{fill:#281b17;}.cls-61{fill:#473a3a;}.cls-62{fill:#5e5454;}.cls-63{fill:#89d3c6;}.cls-64{fill:#704705;}.cls-65{fill:#ffb000;stroke:#704705;stroke-width:2px;}.cls-66{fill:#eaaa28;}.cls-67{fill:#540f6d;}.cls-68{fill:#bd4df7;stroke:#3a1542;}.cls-69{fill:#4bc3c6;}.cls-70{opacity:0.2;}.cls-71{fill:#ff440b;}.cls-72{fill:#eadfc7;}.cls-73{fill:#ff603b;}.cls-74{fill:#8c7c72;}.cls-75{fill:#fff3d4;}.cls-76{fill:#6d615a;}.cls-77{opacity:0.35;}.cls-78{fill:#e0340b;}.cls-79{fill:#eadfc5;}.cls-80{fill:#dbc8af;}.cls-81{fill:#e55438;}</style><clipPath id="clip-path"><rect class="cls-1" width="1600" height="900"/></clipPath><linearGradient id="linear-gradient" x1="764.41" y1="-491.08" x2="838.03" y2="1455.71" gradientUnits="userSpaceOnUse"><stop offset="0.21" stop-color="#a2d9d8"/><stop offset="0.22" stop-color="#9ad7d7"/><stop offset="0.24" stop-color="#86d1d4"/><stop offset="0.26" stop-color="#7acdd3"/><stop offset="0.27" stop-color="#76ccd2"/><stop offset="0.33" stop-color="#7acdd2"/><stop offset="0.39" stop-color="#86d1d2"/><stop offset="0.45" stop-color="#9ad6d2"/><stop offset="0.5" stop-color="#addcd2"/><stop offset="0.52" stop-color="#b5dfd6"/><stop offset="0.57" stop-color="#cae8e2"/><stop offset="0.62" stop-color="#ecf7f4"/><stop offset="0.64" stop-color="#fff"/><stop offset="1" stop-color="#c8e5d2"/></linearGradient><linearGradient id="linear-gradient-2" x1="1350.41" y1="559.01" x2="1486.89" y2="232.73" gradientUnits="userSpaceOnUse"><stop offset="0.13" stop-color="#b8e1d8"/><stop offset="0.51" stop-color="#d0ebe5"/><stop offset="0.54" stop-color="#d2ece6"/></linearGradient><linearGradient id="linear-gradient-3" x1="284.7" y1="665.6" x2="409.59" y2="367.02" gradientUnits="userSpaceOnUse"><stop offset="0" stop-color="#c5e6df"/><stop offset="0.54" stop-color="#d2ece6"/></linearGradient><linearGradient id="linear-gradient-4" x1="264.42" y1="531.32" x2="10.42" y2="886.13" gradientUnits="userSpaceOnUse"><stop offset="0.08" stop-color="#b3dfd5"/><stop offset="0.49" stop-color="#b0ddd4"/></linearGradient></defs><g class="cls-2"><g id="Layer_1" data-name="Layer 1"><g class="cls-3"><rect class="cls-4" width="1600" height="900"/><path class="cls-5" d="M1552.71,477.94c-1.39-34.8-105.25-46.37-143.6-52.92-118.66-20.25-224.32,45.36-188.79,75.24,8,6.73,23.93,5.5,37.11,7.8,24.47,4.27,137,3.61,194.5,0C1463.38,507.34,1553.43,495.94,1552.71,477.94Z"/><path class="cls-6" d="M469.83,591.42C468.55,559.57,373.51,549,338.42,543c-108.59-18.53-205.28,41.51-172.76,68.85,7.33,6.16,21.89,5,34,7.14,22.39,3.9,125.38,3.3,178,0C388.08,618.32,470.49,607.89,469.83,591.42Z"/><path class="cls-7" d="M92.69,606.88c2.89-7.47,74.28-40.45,146.73-27.76,75.21,19.19,106.39,57.12,33.94,61.45s-132.06-3.25-149.49-5.41S83.52,630.62,92.69,606.88Z"/><polygon class="cls-8" points="1288.12 421.54 1294.64 493.56 1295.78 493.56 1289.23 421.54 1288.12 421.54"/><polygon class="cls-8" points="1232.2 421.47 1225.44 493.56 1224.31 493.56 1231.09 421.47 1232.2 421.47"/><path class="cls-9" d="M1266.06,450.49c-.1.41-3.84,4.46-2.06,10.18s-2.33,9.84,3.4,11.59a19.46,19.46,0,0,0,10.81.05h2.6s8.42-.12,11-3.72-.42-6.15-.72-13.53-15.85-17.69-25.89-4.81Z"/><path class="cls-10" d="M1272.79,481.48c0,.14,0,.28,0,.43-.1.63-.23,1.39-.38,2.21-.7,3.66-1.9,8.62-2.41,9.34-.66.92-2.76.42-2.76.42a17.85,17.85,0,0,1,1.15-10.28,6.69,6.69,0,0,0,.37-2.37c.09-.54.15-.85.15-.85S1273.21,478.28,1272.79,481.48Z"/><path class="cls-11" d="M1272.74,481.91c-.1.63-.35,1.39-.51,2.22h0a15.14,15.14,0,0,1-1.65,0,12.6,12.6,0,0,1-2.18-.45c.15-1,.18-1.86.27-2.42a11.37,11.37,0,0,1,1.65,0,5.29,5.29,0,0,1,1.58.27A3.83,3.83,0,0,1,1272.74,481.91Z"/><path class="cls-10" d="M1252.47,493.31l-.62-3.13,2.47-7.24-1.11-.55-2.93-1.44,1.75-4.67a9.2,9.2,0,0,1,3,1.29c2.23,1.29,4.45,3,4.37,5C1259.22,486.63,1252.47,493.31,1252.47,493.31Z"/><path class="cls-12" d="M1254.94,477.66a31.22,31.22,0,0,1-1.73,4.58l-2.93-1.45,1.75-4.66A13,13,0,0,1,1254.94,477.66Z"/><path class="cls-13" d="M1247.18,474.73s-1.3,1.27-1.49,1.14-7.22-1.22-6.31-2.29a1.85,1.85,0,0,0,.22-.29,2,2,0,0,0,.25-1.85s6.63-1.27,6.15,0a2.44,2.44,0,0,0,.08,1.92,2.68,2.68,0,0,0,.18.3Z"/><path class="cls-11" d="M1246,473.39a5.46,5.46,0,0,1-2.93.65,8.36,8.36,0,0,1-3.37-.75,2,2,0,0,0,.25-1.85s6.42-1.23,6,0A2.38,2.38,0,0,0,1246,473.39Z"/><path class="cls-14" d="M1228.48,462.9c.56,1.65,1.84,2.62,2.64,2.41s.75-1.6.35-3.19-1.38-2.72-2.19-2.5C1228.18,459.92,1228,461.36,1228.48,462.9Z"/><path class="cls-15" d="M1241.72,446.85a37,37,0,0,0-9.67,1.11,9.22,9.22,0,0,0-2.48,1.16c-1.68,1-7.48,5.22-7.93,6.59,0,.08,0-.06,0,0,.54.86,7.78,1.76,15.13,2.24,2.58.17,5.71-1.13,8.77-.9,2.09.16,4.08.26,5.92.31,8.64.2,13.84-2.15,13.94-2.58.15-.66-4.8-2.78-8-4.8s-8.33-2.61-14.06-3.05C1242.79,446.89,1242.25,446.86,1241.72,446.85Z"/><path class="cls-13" d="M1258.53,462.21c-.42,1.69-1.69,2.77-2.6,2.62s-1-1.54-.77-3.17,1.18-2.82,2.09-2.67C1258.5,459.21,1258.92,460.62,1258.53,462.21Z"/><path class="cls-13" d="M1255.65,463.94c-.36,6.23-9.22,9.24-11.68,9.3-3.6.08-13.36-3.15-12.94-12.88,0-.1,0-.21,0-.31h0c.12-4.63-1.56-8.85-1.11-10.64,1.53-6.21,2.65-3.79,10-4.49,6.87-.65,9.79-.67,14,2.86.38.32,1.62.67,1.64,1.78,0,1.9.08,3.33.12,4.47A75.09,75.09,0,0,1,1255.65,463.94Z"/><path class="cls-11" d="M1255.71,454a16,16,0,0,0-7.8-3.65,14.74,14.74,0,0,1-11.31,2.42,18,18,0,0,0,3-2.55,5.71,5.71,0,0,1-2.69.68,13.55,13.55,0,0,1-3.37,4.72,6.28,6.28,0,0,0-1.5,1.3,4.05,4.05,0,0,0-.46,1c-.14.42-.26.83-.36,1.26-.07.25-.09.56-.14.85.12-4.63-1.56-8.85-1.11-10.64,1.53-6.21,2.65-3.79,10-4.49,6.87-.65,9.79-.67,14,2.86.38.32,1.62.67,1.64,1.78C1255.62,451.46,1255.67,452.89,1255.71,454Z"/><path class="cls-16" d="M1235.35,459.68a2.86,2.86,0,0,0,2.93,2.72,2.76,2.76,0,0,0,3-2.61,2.86,2.86,0,0,0-2.93-2.72A2.76,2.76,0,0,0,1235.35,459.68Z"/><path class="cls-17" d="M1236.6,461.89a2.75,2.75,0,0,1-1.15-2.21,2.66,2.66,0,0,1,2.78-2.56,3.37,3.37,0,0,1,2.64,1.36,3.25,3.25,0,0,0-3.27-1.63,2.64,2.64,0,0,0-2.39,2.33A2.76,2.76,0,0,0,1236.6,461.89Z"/><path class="cls-18" d="M1236.71,459.27a1.7,1.7,0,0,0,1.12,2.09,1.64,1.64,0,0,0,2-1.17,1.68,1.68,0,0,0-1.11-2.08A1.64,1.64,0,0,0,1236.71,459.27Z"/><path class="cls-19" d="M1238.35,458.71a.41.41,0,1,0,.78.22.41.41,0,1,0-.78-.22Z"/><path class="cls-20" d="M1239.13,467.86a7.56,7.56,0,0,0,4.38,2.08c3.67,0,6.84-5.06,6.11-4.91a15,15,0,0,1-4.12.61,23.75,23.75,0,0,1-2.39.08C1239.85,465.58,1235.2,463.18,1239.13,467.86Z"/><path class="cls-21" d="M1243.55,469.75a3.85,3.85,0,0,1-2-.61,2.41,2.41,0,0,1,1.57-1,3.1,3.1,0,0,1,2.85.83A3.79,3.79,0,0,1,1243.55,469.75Z"/><path class="cls-19" d="M1239,465.39a16.38,16.38,0,0,0,9.5.13,6.2,6.2,0,0,1-4.67,2A6,6,0,0,1,1239,465.39Z"/><path class="cls-20" d="M1240.18,455.13l-.28-.3a2.48,2.48,0,0,0-2.25-.78,4.76,4.76,0,0,0-3,1.93c-.11.15-.19.21,0,.1C1235.68,455.34,1238.34,454.35,1240.18,455.13Z"/><path class="cls-20" d="M1246.9,455.13l.25-.31a2.12,2.12,0,0,1,1.94-.87,3.49,3.49,0,0,1,2.44,1.77c.09.15.15.2,0,.1C1250.69,455.14,1248.49,454.28,1246.9,455.13Z"/><path class="cls-22" d="M1248.74,446.52s-.29,7-10.53,5.63c0,0,10.51-5.52-.4-4.95,0,0,2.48,3.06-4.71,2.7,0,0,5.19-.54-1.46,6.21,0,0-.87.46-.61,4.25,0,.25-1.88-.31-2-3,0,0-2.6-2.48.13-6.05,0,0-2.57-5.25,2-6,0,0,.38-4,4.3-4.23,0,0,4-5.77,8.87-1.48,0,0,3.93-3.18,7.44,1.7,0,0,4.55.18,4,3.9,0,0,4.5,2.33,1.86,5.5,0,0,3,2.48.26,6l-2.11,3.7V460a19.48,19.48,0,0,0-2.06-8.47l-.13-.26S1253.4,448.58,1248.74,446.52Z"/><path class="cls-23" d="M1258.67,448.69c-3.74-2.07-9.18-2.42-15.75-2.6a40.63,40.63,0,0,0-12.42,1.77,10.66,10.66,0,0,0-2.7,1.44c-1.73,1.18-5.72,4.81-6.16,6.41.43-1,5.73-5.31,24.15-5,12,.22,17.69,2.45,19.61,4C1265,453.62,1262,450.56,1258.67,448.69Z"/><path class="cls-24" d="M1265.4,454.85s0,0-.05,0c-1.06-.88-5.61-3.78-19.56-4-1.63,0-3.21,0-4.71,0-14.57.4-19,4-19.37,4.92a.08.08,0,0,1-.14-.06c.47-1.69,4.58-5.36,6.19-6.45a10.34,10.34,0,0,1,2.72-1.45,41.39,41.39,0,0,1,10.67-1.78h1.77c6.38.17,12,.49,15.79,2.61,3.37,1.87,6.3,4.92,6.76,6.13a.08.08,0,0,1,0,.09Z"/><path class="cls-25" d="M1229.8,450.77a11.82,11.82,0,0,1,4.85-3.47,21.65,21.65,0,0,1,2.15-.83,39.37,39.37,0,0,0-6.3,1.39,10.66,10.66,0,0,0-2.7,1.44c-1.73,1.18-5.72,4.81-6.16,6.41.27-.63,2.31-2.45,8-3.71A1.31,1.31,0,0,1,1229.8,450.77Z"/><path class="cls-25" d="M1251.85,446.91a25.72,25.72,0,0,1,4.15,1.87c1,.57,2.17,1.51,2,2.9a2,2,0,0,1,0,.24c4,.84,6.31,1.95,7.4,2.86-.44-1.16-3.36-4.22-6.73-6.09a22.11,22.11,0,0,0-8.47-2.21A13.33,13.33,0,0,1,1251.85,446.91Z"/><path class="cls-23" d="M1228.11,448.41s-.58-6.07,6.52-10.42c7.69-4.69,16.26-1.13,18.78.75a14.27,14.27,0,0,1,5.26,9.27s-10-1.83-14.67-1.79S1230.89,447,1228.11,448.41Z"/><path class="cls-24" d="M1242.91,446.16l1.09,0c4.4,0,13.55,1.58,14.58,1.77a14.07,14.07,0,0,0-5.22-9.11,19,19,0,0,0-10.79-3.05,15.85,15.85,0,0,0-7.9,2.31c-6.45,3.94-6.52,9.38-6.49,10.23C1231,446.94,1238.48,446.28,1242.91,446.16Z"/><path class="cls-25" d="M1254.53,444.33a5.74,5.74,0,0,1-3.77,2c-.47.09-.94.17-1.41.23,4.51.53,9.32,1.41,9.32,1.41a14.31,14.31,0,0,0-4.7-8.81C1255,440.62,1255.65,442.72,1254.53,444.33Z"/><path class="cls-25" d="M1238.2,445.79a12.08,12.08,0,0,1-5.06-2,3.69,3.69,0,0,1-1.58-3.38,10.87,10.87,0,0,0-3.45,8c2.28-1.16,8.33-1.86,13-2.1C1240.15,446.17,1239.16,446,1238.2,445.79Z"/><path class="cls-26" d="M1243.94,445.27c3.79,0,13.88,1.38,14.88,2.09a6,6,0,0,1,0,1.5c-.11.24-4.83-1.71-13.94-1.81-12-.12-16.58,2.15-16.89,2.21s-.12-1.38,0-1.6S1232.91,445.44,1243.94,445.27Z"/><path class="cls-15" d="M1258.79,449a7.3,7.3,0,0,1-1-.21,52.38,52.38,0,0,0-12.88-1.62c-1.1,0-2.18,0-3.22,0-3.87.1-9.36.55-13.42,2.09l-.24.09h0a.17.17,0,0,1-.16-.11,2.85,2.85,0,0,1,.13-1.61c.14-.21,4.79-2.25,16-2.42,3.72-.06,13.91,1.37,14.93,2.09l0,0v0a5.57,5.57,0,0,1,0,1.54A.13.13,0,0,1,1258.79,449Z"/><path class="cls-27" d="M1258.82,447.36c-.57-.4-4-1-7.65-1.5l.37.11c3.49.88,1,1.15-1.71.82a53,53,0,0,0-9.63-.33c-4.13.2-5.42-.61-2.1-.86a6.05,6.05,0,0,0,.67-.09c-7.36.58-10.61,2-10.72,2.15s-.34,1.66,0,1.6,4.92-2.33,16.89-2.21c9.11.1,13.83,2.05,13.94,1.81A6,6,0,0,0,1258.82,447.36Z"/><path class="cls-28" d="M1231.57,451s7.57-2,24.81,0C1256.38,451,1242.84,448,1231.57,451Z"/><path class="cls-16" d="M1252,460.11a2.85,2.85,0,0,1-3.27,2.28,2.75,2.75,0,0,1-2.54-3,2.85,2.85,0,0,1,3.26-2.29A2.76,2.76,0,0,1,1252,460.11Z"/><path class="cls-17" d="M1250.43,462.12a2.72,2.72,0,0,0,1.44-2,2.64,2.64,0,0,0-2.39-2.91,3.28,3.28,0,0,0-2.78,1,3.22,3.22,0,0,1,3.44-1.17,2.65,2.65,0,0,1,2,2.64A2.77,2.77,0,0,1,1250.43,462.12Z"/><path class="cls-18" d="M1250.68,459.52a1.68,1.68,0,0,1-1.39,1.9,1.62,1.62,0,0,1-1.83-1.43,1.69,1.69,0,0,1,1.39-1.91A1.63,1.63,0,0,1,1250.68,459.52Z"/><path class="cls-19" d="M1249.15,458.73a.41.41,0,1,1-.81.11.42.42,0,0,1,.35-.47A.41.41,0,0,1,1249.15,458.73Z"/><path class="cls-10" d="M1236.71,473.51l-2.42,3.56a16.15,16.15,0,0,1-4.64-2c-3.23-2-5.75-4.9-9-7.1-.5-.34-1-.67-1.57-1s2-3.47,2.44-3.21c.57.36,1.14.7,1.71,1,2.48,1.45,5,2.72,7.14,3.95a24.93,24.93,0,0,1,5.74,4l.06.06A8.85,8.85,0,0,1,1236.71,473.51Z"/><path class="cls-10" d="M1223.19,464.79c.15-.78.21-3.24.43-6.18,0-.46-.95-.13-1.23.44-.62,1.22-.44,1.69-.8,2.29s-.89.39-1.39,0c-1.82-2.79-2.57-4.59-3.57-4.48-.81.22.18,2.31,1.41,4.62-2.17-1.82-4.07-3.1-4.46-2.47s1.39,2.37,2.94,4c-2.15-.26-4.3-1.14-4.44,0-.1.83,4.34,1.89,3.91,2.56-.15.23-.58.29-1.26.39a3.89,3.89,0,0,0-1.77.52c-.34.33,0,.68.69.81,1.12.21,3.66.61,4.93.71a3.88,3.88,0,0,0,2,0"/><path class="cls-10" d="M1221.24,461.66c-.13,0-1.84.35-1.32,2.67"/><path class="cls-12" d="M1236.71,474l-2.42,3.56c-1.75-.46-3.37-1.78-4.75-2.65a14.74,14.74,0,0,1,1.16-5.63,22.45,22.45,0,0,1,5.37,4,.92.92,0,0,1-.32.18l.38-.12A7.41,7.41,0,0,1,1236.71,474Z"/><path class="cls-29" d="M1231.93,469h0a19.14,19.14,0,0,0-1.63,7.75h0l4.83,2.42-1,15.45a13.33,13.33,0,0,0,10.41,2.36c6.07-1.2,7.37-2.36,7.37-2.36s-1.55-10.21-1.65-12.06c0-.69,1.59.55,1.75-.32l2.29-5.76-7.4-2.7a.22.22,0,0,0-.25.08c-.28.4-1.33,1.53-3.87,1.25-3.07-.33-3.54-2.07-3.54-2.07Z"/><path class="cls-30" d="M1235.06,482.24s4.14,3.13,15.13,1.3l.23,1.74s-8.7,2.63-15.5-1.17Z"/><path class="cls-30" d="M1234.79,486.15s5.07,2.93,16.06,1.11l.27,1.87s-9.66,2.73-16.46-1.07Z"/><path class="cls-10" d="M1251.11,488.45c0-.31,1.29,1.7,1.58,3.67a2.61,2.61,0,0,1-3.14,2.9c-1.49-.24-.26-.95,0-1.07,0,0,0,0,0,0-.3,0-2-.11-.4-1.36,0,0,0-.05,0-.05-.36,0-2-.23-1-1.38a1,1,0,0,1,.41-.14C1252,490.65,1251.12,489.83,1251.11,488.45Z"/><path class="cls-31" d="M1277,474.73c-.19.13-1.44-1.09-1.44-1.09l.89-1a2,2,0,0,0,.15-.27,2.32,2.32,0,0,0,.09-1.87c-.46-1.22,5.93,0,5.93,0a1.76,1.76,0,0,0,0,1.29,2.56,2.56,0,0,0,.46.77C1284,473.56,1277.2,474.61,1277,474.73Z"/><path class="cls-11" d="M1282.5,471.67c-.13,0-.07.11-.18.19a6.32,6.32,0,0,1-4,.87,5.14,5.14,0,0,1-1.66-.39,2.32,2.32,0,0,0,.09-1.87c-.46-1.22,5.79-.13,5.79-.13A1.79,1.79,0,0,0,1282.5,471.67Z"/><path class="cls-10" d="M1301.41,464.67c-3.24,1.79-5.35,4.58-8.41,6.28a17.45,17.45,0,0,1-3.25,1.76l-1.23-3.26a9.93,9.93,0,0,1,2.47-2.17c2.31-1.54,5.54-3,8.64-4.95C1299.93,462.14,1301.72,464.5,1301.41,464.67Z"/><path class="cls-10" d="M1298.38,463.08c-.11-.56-.15-2.36-.31-4.5,0-.34.69-.1.9.32.45.89.31,1.23.58,1.67s.65.28,1,0c1.32-2,1.87-3.35,2.6-3.27s-.14,1.69-1,3.37c1.59-1.33,3-2.26,3.25-1.8s-1,1.73-2.14,2.9c1.56-.19,3.14-.83,3.24,0,.07.6-3.17,1.38-2.86,1.86.12.17.43.21.92.29a3,3,0,0,1,1.3.38c.24.24,0,.49-.51.59-.81.15-2.67.44-3.6.52a2.75,2.75,0,0,1-1.48,0"/><path class="cls-10" d="M1299.81,460.8c.09,0,1.33.25,1,1.95"/><path class="cls-11" d="M1292,471.32a6.13,6.13,0,0,1-1.94,1l-1.77-2.6a10.09,10.09,0,0,1,2.47-2.16A35.49,35.49,0,0,1,1292,471.32Z"/><path class="cls-32" d="M1289.39,468h0a8.38,8.38,0,0,1,1.45,4.38l0,.49-4.8,4.29,1.23,14.47a8.13,8.13,0,0,1-7.29,4.12,11.76,11.76,0,0,1-8.48-3.13s1.26-11,1.34-12.56v-.08a5,5,0,0,0-2.44-4.5h0c-.4-.25-.08-.84.36-1l.25-.16a11.38,11.38,0,0,1,4.84-1.8h0s.76,1.47,3.39,1.19a4,4,0,0,0,3.34-2Z"/><path class="cls-33" d="M1273,479.93c-.09.17,10.28,2.56,13-2.66L1290.2,494s-9.33,7.61-19-.09Z"/><path class="cls-33" d="M1274.81,472.52s.76,6.55,1.13,8.52l-1.13,1.42-.91-1.29a47.9,47.9,0,0,1,.08-8.43Z"/><path class="cls-33" d="M1283.31,471.32s-.21,6.78-.33,9.73l1.17.7.63-1.14s.37-6.3-.86-9.63Z"/><path class="cls-32" d="M1270.78,474.43c-.62-.31-3.14,7.88-2.72,8a7.23,7.23,0,0,0,2.28,1.19,8.08,8.08,0,0,0,2.88,0,15,15,0,0,0,0-5.88"/><circle class="cls-34" cx="1283.62" cy="488.83" r="1.31"/><circle class="cls-34" cx="1283.43" cy="484.4" r="1.31"/><circle class="cls-34" cx="1286.54" cy="486.59" r="1.31"/><circle class="cls-34" cx="1274.81" cy="485.28" r="1.31"/><circle class="cls-34" cx="1283.93" cy="493.19" r="1.31"/><circle class="cls-34" cx="1278.99" cy="493.41" r="1.31"/><circle class="cls-34" cx="1274.49" cy="492.32" r="1.31"/><circle class="cls-34" cx="1287.54" cy="489.66" r="1.31"/><circle class="cls-34" cx="1276.39" cy="488.83" r="1.31"/><circle class="cls-34" cx="1280.33" cy="489.35" r="1.31"/><circle class="cls-34" cx="1279.02" cy="485.28" r="1.31"/><circle class="cls-34" cx="1281.16" cy="482.23" r="1.31"/><circle class="cls-34" cx="1277.68" cy="482.35" r="1.31"/><ellipse class="cls-34" cx="1286.04" cy="482.35" rx="1.1" ry="1.31"/><ellipse class="cls-34" cx="1273.08" cy="489.47" rx="1" ry="1.19"/><ellipse class="cls-34" cx="1287.85" cy="492.45" rx="1" ry="1.19"/><path class="cls-10" d="M1251.67,489.35a3.52,3.52,0,0,0,0-2.13c-.17-.46-1.26-.55-.86.83.5,1.76.48,1.75.48,1.75"/><path class="cls-35" d="M1242.31,463s.16.87,1.47.9a1.4,1.4,0,0,0,1.54-.9A2.23,2.23,0,0,1,1242.31,463Z"/><path class="cls-36" d="M1235.07,476.24l-.16,5.33"/><path class="cls-36" d="M1250.29,482.79a13,13,0,0,1,.11-1.87,11.28,11.28,0,0,0,.09-3.93"/><path class="cls-37" d="M1254.21,483.09a3.81,3.81,0,0,1,1.5-2"/><path class="cls-12" d="M1256.6,459.79a.64.64,0,0,1,.76-.23.76.76,0,0,1,.34.52,3.7,3.7,0,0,1-.06,1.81,2.62,2.62,0,0,1-1.13,1.83.34.34,0,0,1-.19,0c-.15,0-.18-.23-.18-.38v-.62a.74.74,0,0,1,.07-.39.91.91,0,0,1,.3-.25,1,1,0,0,0,.43-.54.46.46,0,0,0-.17-.48c-.14-.1-.41,0-.51-.09S1256.45,460,1256.6,459.79Z"/><path class="cls-38" d="M1297.6,419.4l-3.22-.14-11.48-.48-11-.47-25.82-1.09-11.12-.47-13.48-.57-1.36-.06s-127.06-142.92-117-214.38c5.45-38.53,23.83-58.56,39.61-68.87l0,0c13.48-8.76,25-10.43,25-10.43a79.05,79.05,0,0,1,11.73-6.24h0c16.62-7.15,30.81-6.22,38.15-4.9a35.4,35.4,0,0,1,5.37,1.3c40.31-17.83,65.67-1.72,70.07,1.45.45.33.68.52.68.52a68.94,68.94,0,0,1,45,.57,60.23,60.23,0,0,1,11.64,5.33,114.48,114.48,0,0,1,27.93,14.67h0l0,0C1482.49,211.91,1297.6,419.4,1297.6,419.4Z"/><path class="cls-39" d="M1301,207c0,82.6-13.72,176.3-29.07,211.33l-25.82-1.09c-12.59-28.93-22.49-95.72-30-173-6.06-62.64-4.15-104.78,1.63-133a35.4,35.4,0,0,1,5.37,1.3c40.31-17.83,65.67-1.72,70.07,1.45C1298,137.45,1301,168.27,1301,207Z"/><path class="cls-39" d="M1294.38,419.26l-11.48-.48C1395.24,235.72,1363,130.93,1341.19,116l37.19,19.12h0s-18.88-10.64-18.87-10.62C1467.74,200.42,1325.27,381.94,1294.38,419.26Z"/><path class="cls-39" d="M1235,416.75l-13.48-.57c-35.2-43.2-160.88-209.14-78.71-283.31l0,0c13.48-8.76,25-10.43,25-10.43,4-2.57-1.65.29,2.15-1.33C1156.56,145.76,1128,239.28,1235,416.75Z"/><ellipse class="cls-40" cx="1260.44" cy="417.11" rx="39.9" ry="6.95"/><path class="cls-37" d="M1249.52,493.93a15.22,15.22,0,0,0,2.34-.62"/><path class="cls-41" d="M1292.19,532h0a352.27,352.27,0,0,1-61.36.56h0c-6.12-1-10.48-4.17-10.91-7.89L1217,499h85.66l-2.39,26.82C1300,528.68,1296.81,531.12,1292.19,532Z"/><rect class="cls-42" x="1223.62" y="502.84" width="8.49" height="1.49" rx="0.54"/><rect class="cls-42" x="1223.62" y="507.51" width="8.49" height="1.49" rx="0.54"/><rect class="cls-42" x="1223.62" y="512.17" width="8.49" height="1.49" rx="0.54"/><rect class="cls-42" x="1223.62" y="516.84" width="8.49" height="1.49" rx="0.54"/><rect class="cls-42" x="1223.62" y="521.5" width="8.49" height="1.49" rx="0.54"/><rect class="cls-42" x="1223.62" y="526.17" width="8.49" height="1.49" rx="0.54"/><rect class="cls-42" x="1236.36" y="502.84" width="8.49" height="1.49" rx="0.54"/><rect class="cls-42" x="1236.36" y="507.51" width="8.49" height="1.49" rx="0.54"/><rect class="cls-42" x="1236.36" y="512.17" width="8.49" height="1.49" rx="0.54"/><rect class="cls-42" x="1236.36" y="516.84" width="8.49" height="1.49" rx="0.54"/><rect class="cls-42" x="1236.36" y="521.5" width="8.49" height="1.49" rx="0.54"/><rect class="cls-42" x="1236.36" y="526.17" width="8.49" height="1.49" rx="0.54"/><rect class="cls-42" x="1249.1" y="502.84" width="8.49" height="1.49" rx="0.54"/><rect class="cls-42" x="1249.1" y="507.51" width="8.49" height="1.49" rx="0.54"/><rect class="cls-42" x="1249.1" y="512.17" width="8.49" height="1.49" rx="0.54"/><rect class="cls-42" x="1249.1" y="516.84" width="8.49" height="1.49" rx="0.54"/><rect class="cls-42" x="1249.1" y="521.5" width="8.49" height="1.49" rx="0.54"/><rect class="cls-42" x="1249.1" y="526.17" width="8.49" height="1.49" rx="0.54"/><rect class="cls-42" x="1261.84" y="502.84" width="8.49" height="1.49" rx="0.54"/><rect class="cls-42" x="1261.84" y="507.51" width="8.49" height="1.49" rx="0.54"/><rect class="cls-42" x="1261.84" y="512.17" width="8.49" height="1.49" rx="0.54"/><rect class="cls-42" x="1261.84" y="516.84" width="8.49" height="1.49" rx="0.54"/><rect class="cls-42" x="1261.84" y="521.5" width="8.49" height="1.49" rx="0.54"/><rect class="cls-42" x="1261.84" y="526.17" width="8.49" height="1.49" rx="0.54"/><rect class="cls-42" x="1274.67" y="502.84" width="8.49" height="1.49" rx="0.54"/><rect class="cls-42" x="1274.67" y="507.51" width="8.49" height="1.49" rx="0.54"/><rect class="cls-42" x="1274.67" y="512.17" width="8.49" height="1.49" rx="0.54"/><rect class="cls-42" x="1274.67" y="516.84" width="8.49" height="1.49" rx="0.54"/><rect class="cls-42" x="1274.67" y="521.5" width="8.49" height="1.49" rx="0.54"/><rect class="cls-42" x="1274.67" y="526.17" width="8.49" height="1.49" rx="0.54"/><rect class="cls-42" x="1287.49" y="502.84" width="8.49" height="1.49" rx="0.54"/><rect class="cls-42" x="1287.49" y="507.51" width="8.49" height="1.49" rx="0.54"/><rect class="cls-42" x="1287.49" y="512.17" width="8.49" height="1.49" rx="0.54"/><rect class="cls-42" x="1287.49" y="516.84" width="8.49" height="1.49" rx="0.54"/><rect class="cls-42" x="1287.49" y="521.5" width="8.49" height="1.49" rx="0.54"/><rect class="cls-42" x="1287.49" y="526.17" width="8.49" height="1.49" rx="0.54"/><rect class="cls-43" x="1209.9" y="493.77" width="100.37" height="6.7" rx="2.43"/><rect class="cls-44" x="1212.21" y="494.19" width="94.83" height="3.35" rx="1.21"/><path class="cls-45" d="M1296.15,417.19c0,3.15-16,5.7-35.67,5.7s-35.66-2.55-35.66-5.7c0-2.81,12.76-5.15,29.54-5.61,2-.06,4-.09,6.12-.09l2.49,0C1281.51,411.71,1296.15,414.18,1296.15,417.19Z"/><path class="cls-37" d="M1249.11,492.52a10.06,10.06,0,0,0,2.89-.82"/><path class="cls-12" d="M1230.12,460.5a.73.73,0,0,0-.85-.13.81.81,0,0,0-.31.56,3.66,3.66,0,0,0,.28,1.84,2.64,2.64,0,0,0,1.43,1.71.31.31,0,0,0,.21,0c.15-.05.17-.25.15-.41l-.08-.63a.64.64,0,0,0-.12-.38.93.93,0,0,0-.35-.23,1,1,0,0,1-.53-.49.48.48,0,0,1,.14-.51c.13-.11.44,0,.53-.15S1230.29,460.67,1230.12,460.5Z"/><path class="cls-13" d="M1288.29,451.29c.29,2.34.83,8.58.48,11.41-.78,6.39-7.74,8.67-9.08,8.76-2.16.15-7-.16-9.63-3.35s-3.41-9.26-3.41-9.26-2.39-5.91,1.23-10.89,8.09-5.74,13.14-4.86C1287.19,444.18,1288.29,451.29,1288.29,451.29Z"/><path class="cls-46" d="M1273.47,454.27s-2.2,0-3,1.57c0,.07-.14.05-.14,0a1.74,1.74,0,0,1,1.34-1.84C1273.71,453.24,1273.47,454.27,1273.47,454.27Z"/><path class="cls-46" d="M1281.91,453.74s2.17-.53,3.33.82c0,.06.15,0,.14,0a1.78,1.78,0,0,0-1.77-1.48C1281.43,452.79,1281.91,453.74,1281.91,453.74Z"/><path class="cls-47" d="M1270.17,458.27a2.43,2.43,0,0,1,1.09-1.61,4,4,0,0,1,1.8-.56,2.45,2.45,0,0,1,1.23.14,2,2,0,0,1,.8.69,2.59,2.59,0,0,1,.32,2.54,1.56,1.56,0,0,1-2.1.78,6.42,6.42,0,0,1-.63-.54,1.41,1.41,0,0,0-.71-.4.61.61,0,0,0-.65.38c-.07.23.07.64-.12.81s-.42,0-.56-.12A2.87,2.87,0,0,1,1270.17,458.27Z"/><path class="cls-48" d="M1275.51,459c.09,1.33-1,2.12-2.43,2.22a3,3,0,0,1-1.27-.14,1.81,1.81,0,0,1-1.23-1.7,2.29,2.29,0,0,1,.55-1.59,3,3,0,0,1,2.08-1.12C1274.66,456.52,1275.41,457.66,1275.51,459Z"/><circle class="cls-46" cx="1273.03" cy="458.92" r="1.4"/><circle class="cls-49" cx="1273.74" cy="458.42" r="0.43"/><path class="cls-47" d="M1280.34,457.65a2.43,2.43,0,0,1,1.09-1.61,4,4,0,0,1,1.81-.56,2.31,2.31,0,0,1,1.22.14,2.11,2.11,0,0,1,.81.68,2.63,2.63,0,0,1,.31,2.55,1.53,1.53,0,0,1-2.09.77,4.62,4.62,0,0,1-.64-.53,1.38,1.38,0,0,0-.7-.4.59.59,0,0,0-.65.38c-.08.23.07.64-.13.81s-.41,0-.55-.12A2.83,2.83,0,0,1,1280.34,457.65Z"/><path class="cls-48" d="M1285.68,458.33c.09,1.33-1,2.12-2.42,2.22a3,3,0,0,1-1.28-.14,1.81,1.81,0,0,1-1.23-1.7,2.29,2.29,0,0,1,.56-1.59,3,3,0,0,1,2.07-1.12C1284.84,455.9,1285.59,457,1285.68,458.33Z"/><circle class="cls-46" cx="1283.19" cy="458.2" r="1.4"/><circle class="cls-49" cx="1283.92" cy="457.8" r="0.43"/><path class="cls-47" d="M1274.71,465.17a3.52,3.52,0,0,1-.49-.22,1.29,1.29,0,0,0-.52-.08c-.23,0-.5.14-.51.35s.15.31.31.4a1.53,1.53,0,0,0,.92.13c.14,0,.29-.08.34-.2a.18.18,0,0,0-.19-.25Z"/><path class="cls-47" d="M1282.26,464.34a2.24,2.24,0,0,1,.32-.37.71.71,0,0,1,.28-.16.5.5,0,0,1,.55.24.6.6,0,0,1,0,.59,1.13,1.13,0,0,1-.48.41.81.81,0,0,1-.43.11.39.39,0,0,1-.34-.22.39.39,0,0,1,.13-.37,1.31,1.31,0,0,1,.39-.2Z"/><path class="cls-50" d="M1274.14,465.4s-.32-.28.18-.19a10.91,10.91,0,0,0,5.12.29,9,9,0,0,0,3.36-1.29c.06,0,.15,0,.14.07a5.49,5.49,0,0,1-2.31,3.48,3.73,3.73,0,0,1-3,.35A7.66,7.66,0,0,1,1274.14,465.4Z"/><path class="cls-49" d="M1275.22,465.65a8.33,8.33,0,0,0,6.72-.75s-.35,1.34-2.64,1.84A4.33,4.33,0,0,1,1275.22,465.65Z"/><path class="cls-21" d="M1279.12,468a2.41,2.41,0,0,1-1.52-.29c.21-.3.45-.38.91-.55a3,3,0,0,1,2.08.24A2.49,2.49,0,0,1,1279.12,468Z"/><path class="cls-51" d="M1276.85,462.72a1.61,1.61,0,0,0,2.72-.17"/><path class="cls-52" d="M1276.85,462.72a5.6,5.6,0,0,0,1.41.16,2.72,2.72,0,0,0,1.31-.33,1.06,1.06,0,0,1-.32.93,1.42,1.42,0,0,1-1,.4A1.37,1.37,0,0,1,1276.85,462.72Z"/><path class="cls-9" d="M1280.65,448.78s-.68,2.35-4.11,3.88a2.93,2.93,0,0,0,.52-3.15s0,4-4.74,4.28l1.2-3.08-3.52,4.55.2-3.28s-4.36,10.27-5.84,10.49c0,0-3.95-10.83,4-18.08s17.75-.86,17.75-.86a14.82,14.82,0,0,1,4.5,15.5s-2.24.71-2.59.26,0-1.73-1.52-5A10.83,10.83,0,0,0,1280.65,448.78Z"/><path class="cls-51" d="M1267.21,460s.07,0,0,.05-.08,0-.09-.08a3,3,0,0,0-1-1.16,1.48,1.48,0,0,0-1.07-.28,1.24,1.24,0,0,0-.85,1.13,3.74,3.74,0,0,0,.41,2.31,4,4,0,0,0,3.64,2.16"/><path class="cls-53" d="M1267.21,460s.06,0,0,.05a.08.08,0,0,1-.09,0,.75.75,0,0,1-.09-.15,3,3,0,0,0-.2-.29,3.24,3.24,0,0,0-.49-.49,1.78,1.78,0,0,0-1.22-.48,1,1,0,0,0-.82.88,3.41,3.41,0,0,0,0,1.35,4.07,4.07,0,0,0,3.91,3.29,3.69,3.69,0,0,1-2.67-.82,4.05,4.05,0,0,1-1.48-2.43,3.54,3.54,0,0,1,0-1.45,1.21,1.21,0,0,1,1-1,1.9,1.9,0,0,1,1.32.58,2.75,2.75,0,0,1,.63.86c0,.05.05.11.08.15s0,0,.07,0S1267.24,459.93,1267.21,460Z"/><path class="cls-47" d="M1265.82,460.3a3.94,3.94,0,0,1,.44.47c.1.14.2.33.09.46s-.28.11-.36.23,0,.29.16.36.28.07.42.13a.57.57,0,0,1,.33.47.36.36,0,0,1,0,.21.4.4,0,0,1-.47.16,1.16,1.16,0,0,1-.44-.32,4.06,4.06,0,0,1-.72-1C1265,460.94,1264.79,459.32,1265.82,460.3Z"/><path class="cls-54" d="M1267.47,463.27s1,1.75,0,2.17-.91-1.67-.91-1.67.45,1.7.68.6Z"/><path class="cls-51" d="M1288.48,457.76s-.06.05,0,.05.07-.05.08-.09a3,3,0,0,1,.85-1.29,1.43,1.43,0,0,1,1-.43,1.26,1.26,0,0,1,1,1,3.79,3.79,0,0,1-.08,2.35A4,4,0,0,1,1288,462"/><path class="cls-53" d="M1288.48,457.76s0,0,0,.05a.08.08,0,0,0,.06,0,.85.85,0,0,0,.06-.17,2.26,2.26,0,0,1,.13-.33,2.9,2.9,0,0,1,.38-.6,1.87,1.87,0,0,1,1.22-.77,1.21,1.21,0,0,1,1.15.86,3.55,3.55,0,0,1,.24,1.44,4.11,4.11,0,0,1-1.13,2.61A3.71,3.71,0,0,1,1288,462a4.08,4.08,0,0,0,3.41-3.82,3.31,3.31,0,0,0-.2-1.33,1,1,0,0,0-.93-.76,1.75,1.75,0,0,0-1.14.66,2.86,2.86,0,0,0-.42.55,2.2,2.2,0,0,0-.15.31,1.3,1.3,0,0,1-.08.17.06.06,0,0,1-.08,0S1288.45,457.73,1288.48,457.76Z"/><path class="cls-47" d="M1289.91,457.9a4.6,4.6,0,0,0-.37.53c-.08.15-.15.36,0,.47s.3.06.39.17,0,.29-.1.38-.27.11-.4.19a.59.59,0,0,0-.27.52.48.48,0,0,0,.07.2.39.39,0,0,0,.49.09,1.06,1.06,0,0,0,.38-.38,3.71,3.71,0,0,0,.58-1.07C1290.84,458.41,1290.79,456.79,1289.91,457.9Z"/><path class="cls-54" d="M1288.69,461.08s-.79,1.88.31,2.14.67-1.78.67-1.78-.21,1.75-.59.69Z"/><path class="cls-55" d="M1265.76,458.55a14.36,14.36,0,0,1,3.44-12.92c5.42-5.65,13.84-3.29,16.9.62A13.58,13.58,0,0,1,1289,457"/><path class="cls-56" d="M1267.71,446.55s-.47-6.51,2-4.22,3.28,5.09-1.32,5.49c-.8.07-1.17.32-1.36,1.09-.44,1.74-.88,8.23-5,1.27-2.8-4.66,4.55-1.91,4.55-1.91S1265.48,446.27,1267.71,446.55Z"/><ellipse class="cls-57" cx="1262.64" cy="448.84" rx="0.44" ry="0.51" transform="translate(-58.95 227.22) rotate(-10.05)"/><ellipse class="cls-57" cx="1265.9" cy="450.52" rx="0.44" ry="0.51" transform="translate(-59.19 227.81) rotate(-10.05)"/><ellipse class="cls-57" cx="1269.43" cy="444.91" rx="0.44" ry="0.51" transform="matrix(0.98, -0.17, 0.17, 0.98, -58.16, 228.34)"/><ellipse class="cls-57" cx="1270.74" cy="445.29" rx="0.44" ry="0.51" transform="translate(-58.21 228.57) rotate(-10.05)"/><ellipse class="cls-57" cx="1270.34" cy="443.8" rx="0.44" ry="0.51" transform="translate(-57.95 228.48) rotate(-10.05)"/><ellipse class="cls-57" cx="1269.47" cy="442.87" rx="0.44" ry="0.51" transform="translate(-57.8 228.32) rotate(-10.05)"/><ellipse class="cls-57" cx="1270.16" cy="446.76" rx="0.44" ry="0.51" transform="translate(-58.47 228.5) rotate(-10.05)"/><ellipse class="cls-57" cx="1268.47" cy="442.94" rx="0.44" ry="0.51" transform="translate(-57.83 228.14) rotate(-10.05)"/><ellipse class="cls-57" cx="1268.23" cy="444.99" rx="0.44" ry="0.51" transform="translate(-58.19 228.13) rotate(-10.05)"/><ellipse class="cls-57" cx="1269.05" cy="446.64" rx="0.44" ry="0.51" transform="translate(-58.47 228.3) rotate(-10.05)"/><ellipse class="cls-57" cx="1264.07" cy="448.23" rx="0.44" ry="0.51" transform="translate(-58.82 227.46) rotate(-10.05)"/><ellipse class="cls-57" cx="1264.3" cy="451.55" rx="0.44" ry="0.51" transform="translate(-59.4 227.55) rotate(-10.05)"/><ellipse class="cls-57" cx="1263.02" cy="450.72" rx="0.44" ry="0.51" transform="translate(-59.27 227.31) rotate(-10.05)"/><ellipse class="cls-57" cx="1264.36" cy="449.88" rx="0.44" ry="0.51" transform="translate(-59.1 227.53) rotate(-10.05)"/><ellipse class="cls-57" cx="1265.42" cy="452.41" rx="0.44" ry="0.51" transform="translate(-59.53 227.75) rotate(-10.05)"/><ellipse class="cls-57" cx="1265.6" cy="448.82" rx="0.44" ry="0.51" transform="translate(-58.9 227.73) rotate(-10.05)"/><polygon class="cls-8" points="1294.41 416.03 1301.9 493.82 1303.28 493.82 1295.51 416.03 1294.41 416.03"/><polygon class="cls-8" points="1224.82 415.95 1217.33 493.74 1215.95 493.74 1223.73 415.95 1224.82 415.95"/><path class="cls-58" d="M1262.87,412.69a.22.22,0,0,1,.39.2c-.59,1.64-1.6,3.92-2.62,4.22s-2.2.21-3.16.72a5.37,5.37,0,0,0-1.7,1.72c.21-1.09.31-2.48-.64-3.07-1.66-1-3.12-7-.47-3.84,1.64,1.33.76-1,2.84-1h4.17c-.06.42-.62,2.67-.76,3.06a1.56,1.56,0,0,1-1,1C1260.88,415.74,1262,414,1262.87,412.69Z"/><path class="cls-59" d="M1260.88,413.64a.13.13,0,0,1,.23.12c-.36,1-1,2.4-1.6,2.58a10,10,0,0,0-1.93.44,3.43,3.43,0,0,0-1,1.06c.13-.67.19-1.52-.39-1.88-1-.62-2.54-4.82-.37-1.83,1,.82,2-2.1,3.29-2.1h.51c.76.3.2,2.6.11,2.85a1,1,0,0,1-.62.61C1259.66,415.5,1260.34,414.42,1260.88,413.64Z"/><path class="cls-60" d="M1269.89,422.88c-.67-.46-6.46-3.61-6.61-3.7a1.28,1.28,0,0,1,.26-.1l.3-.35c.12,0,6.42,3.6,7.06,4Z"/><path class="cls-60" d="M1248.32,422.65l-1-.06c.51-.37,6.09-4,6.23-4.06l1,.18-.25.05C1254.15,418.85,1248.87,422.26,1248.32,422.65Z"/><path class="cls-61" d="M1252.37,416v2.85h12.45v-3.07a8.28,8.28,0,0,0-2.72-.49,44.21,44.21,0,0,0-8.16.15S1252.74,415.48,1252.37,416Z"/><ellipse class="cls-62" cx="1258.6" cy="418.53" rx="6.23" ry="1.24"/><path class="cls-62" d="M1264.5,417.29c.2,0,21.6-3.58,22.58-3.84"/><path class="cls-60" d="M1264.5,417.61v-.32l0-.31c.14,0,21-3.46,22-3.75l1.19.33C1287,413.74,1264.89,417.61,1264.5,417.61Z"/><path class="cls-62" d="M1252.92,417c-.2,0-18.65-2.75-20.87-2.78"/><path class="cls-60" d="M1252.92,417.31l-2.86-.41c-5.31-.76-17.24-2.66-18.91-2.69l1.35-.38c1.7,0,12.33,1.68,17.65,2.45l2.79.39Z"/><path class="cls-10" d="M1267.19,493.07c-.59.14-1.86.85-2,1.67s.15,2.23,1.21,1.88.67-1.95,1-1.5,2.36.26,2.39,0a1.08,1.08,0,0,0,1.4.14s.51-.57-.29-.66-1-1.6-1.85-1.41"/><path class="cls-10" d="M1268.41,494.5s.12,2.06,1,2.29c.55.14.56-1.77.23-2.5"/><path class="cls-10" d="M1266.06,494.74c0,.07-.17,2.4.81,1.81s.29-1.81.29-1.81"/><path class="cls-10" d="M1268.2,494.62a1.4,1.4,0,0,0-.35,1.08c0,.71-.19,1.3-.59,1.23s-.64-.64-.47-2.31"/><path class="cls-63" d="M-20,815.48s155.52-58,223.56-63.36c35.7-2.83,72.5,27.6,98.53,41.25a19.82,19.82,0,0,0,19.63-.65c15.13-9.33,54.68-28.78,71.92-32,41-7.56,181.44,43.2,241.92,43.2s137.16-32.4,163.08-32.4S922.12,804,942.28,804s125.28-46.08,159.84-51.84,123.84,14.4,158.4,11.52,108.35-58.85,148.32-62.28c63-5.4,71.28,24.84,217.44,53.64V924.92H-20Z"/><path class="cls-64" d="M1029.36,513.28c7.07-6.59,46.08-19.2,47.52-73.92.82-31.2-32.4-51.6-32.4-51.6s13.68-27.12,5.4-48.6c-8.14-21.11-21.48-28.44-38.59-32.22-26-5.73-51,9.67-69.79,25.66-1.11-4.91-10.34-25.49-33-25.08-21.33.38-27.67,19.59-31.5,28.16-19.81-20.49-46.18-37-90.28-38.64A169.31,169.31,0,0,0,699.6,317.2c-19.58-27.2-51-45.36-87.12-45.36-45.58,0-103.68,23-115.2,85.68-6,32.39-.72,72,33.12,101.52-40.32,81.36,41,101.52,41,101.52s-46.8,62.64,28.8,117.36c27.12,19.63,82.8,22.32,115.78-1a107.79,107.79,0,0,0,149.33-5.82c19.12,17.28,44.75,31.75,72.28,27.81,46.37-6.63,67.52-22.37,72.76-77.05,1.92.07,57.24-6.61,63.8-46.55C1078.62,548.34,1056.83,521.33,1029.36,513.28Z"/><path class="cls-65" d="M1024.36,508.28c7.07-6.59,46.08-19.2,47.52-73.92.82-31.2-32.4-51.6-32.4-51.6s13.68-27.12,5.4-48.6c-8.14-21.11-21.48-28.44-38.59-32.22-26-5.73-51,9.67-69.79,25.66-1.11-4.91-10.34-25.49-33-25.08-21.33.38-27.67,19.59-31.5,28.16-19.81-20.49-46.18-37-90.28-38.64A169.31,169.31,0,0,0,694.6,312.2c-19.58-27.2-51-45.36-87.12-45.36-45.58,0-103.68,23-115.2,85.68-6,32.39-.72,72,33.12,101.52-40.32,81.36,41,101.52,41,101.52s-46.8,62.64,28.8,117.36c27.12,19.63,82.8,22.32,115.78-1a107.79,107.79,0,0,0,149.33-5.82c19.12,17.28,44.75,31.75,72.28,27.81,46.37-6.63,67.52-22.37,72.76-77.05,1.92.07,57.24-6.61,63.8-46.55C1073.62,543.34,1051.83,516.33,1024.36,508.28Z"/><path class="cls-66" d="M1000,560l12.83-32.52c-1.16.6-2.24,1.13-3.24,1.58s-2.09.93-3.26,1.44l-1.82-6.92q2.4-.84,4.68-1.73c1.3-.5,2.64-1.05,4-1.65a37.9,37.9,0,0,0,3.52-1.71l7.62,3-16.43,41.63Z"/><path class="cls-66" d="M580.14,519.7l8.68-22c-.78.41-1.51.77-2.19,1.07s-1.42.63-2.21,1l-1.23-4.67c1.09-.38,2.14-.77,3.17-1.18s1.79-.7,2.72-1.11a25.51,25.51,0,0,0,2.38-1.16l5.15,2-11.1,28.15Z"/><path class="cls-66" d="M598.38,600.82l-1.3-5.05q1.36-2.88,2.95-5.77t3.16-5.75c1-1.91,2-3.76,3-5.57a41.61,41.61,0,0,0,2.31-5.32,26.47,26.47,0,0,0,1.23-5,11.55,11.55,0,0,0-.28-4.59,5,5,0,0,0-2.69-3.33,6.28,6.28,0,0,0-4.5-.33,7,7,0,0,0-2.92,1.53,8.11,8.11,0,0,0-1.89,2.42,13.12,13.12,0,0,0-1.08,2.88,21.3,21.3,0,0,0-.55,3l-7.37-2.81c.17-1.08.41-2.33.71-3.75a13.27,13.27,0,0,1,1.84-4.28,16,16,0,0,1,4-4.13,21.45,21.45,0,0,1,7.16-3.19,18.85,18.85,0,0,1,5.89-.68,13.26,13.26,0,0,1,5.06,1.21,10.83,10.83,0,0,1,3.83,3,12.62,12.62,0,0,1,2.33,4.71,17.43,17.43,0,0,1,.17,8.14,41.47,41.47,0,0,1-2.66,8.34,56.21,56.21,0,0,1-4,7.56c-1.49,2.33-2.75,4.26-3.81,5.8l17.52-4.75,2,7.57Z"/><path class="cls-66" d="M677.63,357.49l-.91-3.54q1-2,2.07-4l2.21-4c.74-1.33,1.43-2.63,2.08-3.9a27,27,0,0,0,1.62-3.73,17.71,17.71,0,0,0,.87-3.5,8,8,0,0,0-.2-3.21,3.43,3.43,0,0,0-1.88-2.33,4.38,4.38,0,0,0-3.16-.24,5.08,5.08,0,0,0-2.05,1.07,5.82,5.82,0,0,0-1.32,1.7,9.56,9.56,0,0,0-.76,2,16,16,0,0,0-.38,2.08l-5.16-2c.11-.76.28-1.63.49-2.62a9.28,9.28,0,0,1,1.29-3,11.26,11.26,0,0,1,2.79-2.89,14.64,14.64,0,0,1,5-2.23,13.43,13.43,0,0,1,4.13-.49,9.31,9.31,0,0,1,3.54.86,7.48,7.48,0,0,1,2.69,2.11,8.81,8.81,0,0,1,1.63,3.3,12.2,12.2,0,0,1,.12,5.71,28.73,28.73,0,0,1-1.86,5.84,39.17,39.17,0,0,1-2.82,5.31c-1,1.62-1.92,3-2.66,4.06l12.28-3.33,1.43,5.31Z"/><path class="cls-66" d="M1049.18,585.24a8.72,8.72,0,0,1-1.92,3.39,8.39,8.39,0,0,1-3.21,2.14,11.92,11.92,0,0,1-4.31.73,17.65,17.65,0,0,1-5.08-.83,20.73,20.73,0,0,1-3.61-1.43,13.48,13.48,0,0,1-2.8-1.89,12.72,12.72,0,0,1-2.2-2.55,21.64,21.64,0,0,1-1.78-3.41l4.46-3.29q2.44,5.34,6.7,6.64a6,6,0,0,0,4.09,0,4,4,0,0,0,2.35-2.48,4,4,0,0,0,.25-2.19A4,4,0,0,0,1041,578a9.5,9.5,0,0,0-2.91-1.92,26.63,26.63,0,0,0-5-1.64l1.72-5.65a37,37,0,0,0,4.79,1.52,8.73,8.73,0,0,0,3.16.25,3.41,3.41,0,0,0,2-.89,4.68,4.68,0,0,0,1.09-1.95,3.61,3.61,0,0,0-.58-3.07,5.73,5.73,0,0,0-3.14-2,8.36,8.36,0,0,0-3.62-.29,14.23,14.23,0,0,0-4.18,1.38l-1.3-5.34c3.26-2.14,7.38-2.44,12.35-.93a14.67,14.67,0,0,1,4,1.89A10,10,0,0,1,1052,562a7.91,7.91,0,0,1,1.24,3.29,8.57,8.57,0,0,1-.35,3.71,7.55,7.55,0,0,1-2.79,4.18,11.27,11.27,0,0,1-5.53,1.68,9.38,9.38,0,0,1,4.47,4.31A8.37,8.37,0,0,1,1049.18,585.24Z"/><path class="cls-66" d="M763.73,357.42l-9,1.68-2.33-12.45-18.61,3.47L726.7,312l9.27-1.73,5.61,30,9.34-1.74-2.29-12.24,8.91-1.66,2.28,12.24,6.45-1.21,1.5,8-6.37,1.19Z"/><path class="cls-66" d="M993.27,618.76q-2.4,5.34-7,6.79t-10.41-1.19a18.68,18.68,0,0,1-6.09-4.27,16.26,16.26,0,0,1-3.59-6.15l5-3.68q2.64,6.07,6.9,8a7.42,7.42,0,0,0,5,.59,4.73,4.73,0,0,0,3.3-2.77,5.43,5.43,0,0,0,.29-4.47,7.5,7.5,0,0,0-6.45-3.78,11.86,11.86,0,0,0-3.29.67l-3.2-4.41,9-18.75,20.08,9-2.62,5.94-13.7-6.17-4,8.12c.59,0,1.1,0,1.53,0a11.81,11.81,0,0,1,1.22.1,6,6,0,0,1,1.18.29c.41.15.85.33,1.34.55a11.83,11.83,0,0,1,3.84,2.67,10.2,10.2,0,0,1,2.24,3.68,11.32,11.32,0,0,1,.54,4.4A14,14,0,0,1,993.27,618.76Z"/><path class="cls-66" d="M597.65,318.63a18.93,18.93,0,0,1-4.57,5.55,15.55,15.55,0,0,1-5.7,2.95,15.74,15.74,0,0,1-6.48.31A20.66,20.66,0,0,1,574,325a20.1,20.1,0,0,1-5.93-4.91,16.29,16.29,0,0,1-3.16-6.3,18,18,0,0,1-.28-7.15,22.19,22.19,0,0,1,2.71-7.57,28.53,28.53,0,0,1,6-7.35,49.48,49.48,0,0,1,8.07-5.79,65.08,65.08,0,0,1,9.11-4.36,80,80,0,0,1,9.13-2.93l11.18,6.27a80.48,80.48,0,0,0-13.18,4.27,81.8,81.8,0,0,0-12.44,6.5c.91,0,1.73,0,2.44.06a13.35,13.35,0,0,1,1.94.27,9.27,9.27,0,0,1,1.7.52,15.57,15.57,0,0,1,1.81.88,14.19,14.19,0,0,1,4.51,3.89,13.07,13.07,0,0,1,2.3,5.16,15.94,15.94,0,0,1,0,6A19.07,19.07,0,0,1,597.65,318.63Zm-8.91-4.75a7.5,7.5,0,0,0,1-5.5,6.17,6.17,0,0,0-3.23-4.05,10,10,0,0,0-7.61-.85c-.5.58-.87,1-1.1,1.33a11.87,11.87,0,0,0-.79,1.27,8.41,8.41,0,0,0-1.1,6.14,6.94,6.94,0,0,0,3.57,4.61,6.23,6.23,0,0,0,5.15.65A7.25,7.25,0,0,0,588.74,313.88Z"/><path class="cls-66" d="M780.12,502a11.07,11.07,0,0,1,.44,4.16A8.84,8.84,0,0,1,777,512.5a12.82,12.82,0,0,1-8.3,2.32,9.64,9.64,0,0,1-3.9-1.26,10.6,10.6,0,0,1-3.08-2.8,12.83,12.83,0,0,1-2-4.2,16.56,16.56,0,0,1-.62-5.47,28.84,28.84,0,0,1,.89-5.71,37.45,37.45,0,0,1,1.9-5.55,46.23,46.23,0,0,1,2.5-5l7.16-2.08a46.19,46.19,0,0,0-3.6,7.21,47.13,47.13,0,0,0-2.37,7.8q.56-.57,1-1a8.35,8.35,0,0,1,.9-.69,5.71,5.71,0,0,1,.91-.5,9.27,9.27,0,0,1,1.1-.39,8.21,8.21,0,0,1,3.45-.28,7.47,7.47,0,0,1,3.08,1.14,9.31,9.31,0,0,1,2.49,2.41A11.24,11.24,0,0,1,780.12,502Zm-5.6,1.76a4.36,4.36,0,0,0-1.86-2.66,3.61,3.61,0,0,0-3-.31,5.82,5.82,0,0,0-3.45,2.81c0,.44.07.78.1,1a8,8,0,0,0,.2.84,4.87,4.87,0,0,0,2.11,3,4,4,0,0,0,3.36.4,3.64,3.64,0,0,0,2.37-1.87A4.23,4.23,0,0,0,774.52,503.72Z"/><path class="cls-66" d="M659.68,660.94a10.28,10.28,0,0,1,.41,3.9,8.23,8.23,0,0,1-3.39,6,11.19,11.19,0,0,1-3.62,1.75,11,11,0,0,1-4.19.43,8.68,8.68,0,0,1-3.66-1.18,9.89,9.89,0,0,1-2.9-2.63,11.91,11.91,0,0,1-1.91-4,15.46,15.46,0,0,1-.58-5.15,26.89,26.89,0,0,1,.83-5.36,35.32,35.32,0,0,1,1.79-5.22,43.43,43.43,0,0,1,2.35-4.68l6.73-2a43.74,43.74,0,0,0-3.38,6.78,44.62,44.62,0,0,0-2.23,7.33,11.36,11.36,0,0,1,1-.92,7.52,7.52,0,0,1,.84-.66,5.46,5.46,0,0,1,.86-.46,6.94,6.94,0,0,1,1-.37,7.69,7.69,0,0,1,3.24-.27,7.14,7.14,0,0,1,2.89,1.08,8.71,8.71,0,0,1,2.35,2.27A10.45,10.45,0,0,1,659.68,660.94Zm-5.27,1.65a4.08,4.08,0,0,0-1.75-2.5,3.39,3.39,0,0,0-2.82-.29,5.48,5.48,0,0,0-3.25,2.64c0,.42.07.73.1.94s.1.47.19.79a4.6,4.6,0,0,0,2,2.78,3.78,3.78,0,0,0,3.16.38,3.42,3.42,0,0,0,2.23-1.76A4,4,0,0,0,654.41,662.59Z"/><path class="cls-66" d="M1039.14,459.59a12.73,12.73,0,0,1,.51,4.81,10.4,10.4,0,0,1-1.28,4.14,10.56,10.56,0,0,1-2.91,3.26,14.77,14.77,0,0,1-9.62,2.69,10.9,10.9,0,0,1-4.52-1.46,12.16,12.16,0,0,1-3.57-3.24,15,15,0,0,1-2.36-4.88,19.06,19.06,0,0,1-.71-6.34,32.77,32.77,0,0,1,1-6.61,44.49,44.49,0,0,1,2.21-6.44,52.6,52.6,0,0,1,2.9-5.77l8.29-2.42a54.77,54.77,0,0,0-4.17,8.36,55.73,55.73,0,0,0-2.75,9c.43-.44.82-.82,1.19-1.14a11.39,11.39,0,0,1,1-.81,6.74,6.74,0,0,1,1.06-.57,10.86,10.86,0,0,1,1.27-.45,9.51,9.51,0,0,1,4-.33,8.65,8.65,0,0,1,3.57,1.33,10.78,10.78,0,0,1,2.9,2.79A13,13,0,0,1,1039.14,459.59Zm-6.49,2a5.06,5.06,0,0,0-2.16-3.08,4.18,4.18,0,0,0-3.48-.36,6.74,6.74,0,0,0-4,3.25c0,.52.08.91.12,1.16a8.69,8.69,0,0,0,.23,1,5.66,5.66,0,0,0,2.44,3.43,4.64,4.64,0,0,0,3.9.46,4.2,4.2,0,0,0,2.75-2.17A4.92,4.92,0,0,0,1032.65,461.62Z"/><path class="cls-66" d="M929.48,678l-6.5,5.73-10.72-34.89-13.51,11.91-4.48-5.08,20.26-17.86,3.94,4.47Z"/><path class="cls-66" d="M884.85,504.6l-4.9,4.32-8.1-26.32-10.19,9-3.38-3.83,15.29-13.48,3,3.37Z"/><path class="cls-66" d="M980.5,523.92a11.58,11.58,0,0,1-7,8.42q-5.47,2.29-13.73.24a29.06,29.06,0,0,1-7.45-2.87,19.89,19.89,0,0,1-5.25-4.19,12.82,12.82,0,0,1-2.8-5.16,11.6,11.6,0,0,1,0-5.88,11.4,11.4,0,0,1,4.32-6.83q3.2-2.31,9.52-3.18c-1.7-1.76-3.06-3.26-4-4.51a14.12,14.12,0,0,1-2.15-3.49,8.4,8.4,0,0,1-.65-3.24,15.59,15.59,0,0,1,.53-3.72c1-4.1,3.23-6.92,6.63-8.43s8.07-1.54,14-.08a27.12,27.12,0,0,1,6.77,2.6,17.18,17.18,0,0,1,4.74,3.8,11,11,0,0,1,2.35,10.14,11.82,11.82,0,0,1-3.92,6.47,22,22,0,0,1-8.59,3.84,19,19,0,0,1,6.33,7.47A13.51,13.51,0,0,1,980.5,523.92Zm-9.59-3.37a5.24,5.24,0,0,0,0-2.69,5.92,5.92,0,0,0-1.27-2.3,16.9,16.9,0,0,0-2.35-2.21c-.94-.73-2-1.52-3.22-2.34a15.47,15.47,0,0,0-6.08,1.41,5.12,5.12,0,0,0-2.48,3.38,5.43,5.43,0,0,0,1.1,5,10.21,10.21,0,0,0,5.58,3.12,9.41,9.41,0,0,0,5.75-.09A4.59,4.59,0,0,0,970.91,520.55Zm4.41-23.78a4.9,4.9,0,0,0-1-4.42,8.42,8.42,0,0,0-4.76-2.8,7.3,7.3,0,0,0-4.93.29A4.54,4.54,0,0,0,962,493q-1,3.87,5.37,8.67a11.44,11.44,0,0,0,5.65-1.58A5.72,5.72,0,0,0,975.32,496.77Z"/><path class="cls-66" d="M562.25,516.69a9.64,9.64,0,0,1-5.83,7q-4.56,1.9-11.44.21a24.88,24.88,0,0,1-6.2-2.4,16.76,16.76,0,0,1-4.37-3.48,10.86,10.86,0,0,1-2.33-4.3,10.53,10.53,0,0,1,3.6-10.59c1.78-1.28,4.42-2.16,7.94-2.64-1.43-1.47-2.55-2.72-3.38-3.76a11.53,11.53,0,0,1-1.79-2.91,6.84,6.84,0,0,1-.54-2.69,13.09,13.09,0,0,1,.44-3.1,9.74,9.74,0,0,1,5.52-7q4.26-1.89,11.64-.06a22.61,22.61,0,0,1,5.63,2.16,14.49,14.49,0,0,1,4,3.16,9.23,9.23,0,0,1,1.95,8.45,9.79,9.79,0,0,1-3.26,5.38,18.36,18.36,0,0,1-7.15,3.2,15.84,15.84,0,0,1,5.27,6.22A11.32,11.32,0,0,1,562.25,516.69Zm-8-2.81a4.49,4.49,0,0,0,0-2.24,5,5,0,0,0-1.06-1.91,14.11,14.11,0,0,0-2-1.84c-.78-.61-1.68-1.26-2.68-1.95a13,13,0,0,0-5.06,1.18,4.22,4.22,0,0,0-2.07,2.82,4.52,4.52,0,0,0,.92,4.18,8.46,8.46,0,0,0,4.65,2.59,7.76,7.76,0,0,0,4.78-.07A3.85,3.85,0,0,0,554.27,513.88Zm3.66-19.79a4.13,4.13,0,0,0-.81-3.69,7,7,0,0,0-4-2.32,6.11,6.11,0,0,0-4.11.23,3.81,3.81,0,0,0-2.22,2.66c-.54,2.15,1,4.56,4.47,7.22a9.49,9.49,0,0,0,4.7-1.31A4.71,4.71,0,0,0,557.93,494.09Z"/><path class="cls-66" d="M546.39,421.22l-10,1.8L533,400.88a13.93,13.93,0,0,1-3.79,3.38,15.37,15.37,0,0,1-4.87,1.64,15.85,15.85,0,0,1-6.45-.08,13.85,13.85,0,0,1-5.42-2.53,15.51,15.51,0,0,1-4.05-4.71,20.66,20.66,0,0,1-2.31-6.68,20.35,20.35,0,0,1,0-7.66,15.57,15.57,0,0,1,7.91-10.9,23.31,23.31,0,0,1,7.51-2.62q7.77-1.39,12.88,2.16t6.26,11.29Zm-16.3-36.31a6,6,0,0,0-.92-2.34,6.39,6.39,0,0,0-1.69-1.67,6.19,6.19,0,0,0-2.28-.9,7.44,7.44,0,0,0-2.62,0,7,7,0,0,0-5,3.29,9.5,9.5,0,0,0-.87,6.71,8.3,8.3,0,0,0,2.76,5.29,6.2,6.2,0,0,0,5.25,1.14,6.87,6.87,0,0,0,4.72-2.93,8.39,8.39,0,0,0,1.08-6Z"/><path class="cls-66" d="M917.55,364.05l-7.3,1.31-2.44-16.14a10,10,0,0,1-2.77,2.46,11,11,0,0,1-3.55,1.2,11.57,11.57,0,0,1-4.7-.06,10.16,10.16,0,0,1-3.95-1.84,11.13,11.13,0,0,1-3-3.44,16.29,16.29,0,0,1-1.71-10.45,11.37,11.37,0,0,1,5.77-7.95,17,17,0,0,1,5.47-1.91q5.67-1,9.39,1.58c2.48,1.72,4,4.47,4.57,8.22Zm-11.89-26.47a4.35,4.35,0,0,0-.67-1.71,4.43,4.43,0,0,0-1.23-1.21,4.26,4.26,0,0,0-1.66-.66,5.33,5.33,0,0,0-1.91,0,5.06,5.06,0,0,0-3.67,2.4,6.86,6.86,0,0,0-.64,4.89,6.07,6.07,0,0,0,2,3.85,4.51,4.51,0,0,0,3.83.83,5,5,0,0,0,3.44-2.13,6.17,6.17,0,0,0,.79-4.36Z"/><path class="cls-66" d="M604.69,630.7q2.65,8.44.95,13.14t-7.45,6.5q-5.73,1.8-9.83-1.07t-6.59-10.73q-2.46-7.81-.76-12.57t7.42-6.56Q600,615.77,604.69,630.7Zm-6.88,2.44q-1.74-5.05-3.46-6.91a3.65,3.65,0,0,0-4.07-1.12,3.92,3.92,0,0,0-2.69,3.45q-.35,2.63,1.27,8.2a20.16,20.16,0,0,0,3.34,6.56,3.88,3.88,0,0,0,4.23,1.29,3.69,3.69,0,0,0,2.59-3.36C599.27,639.49,598.86,636.78,597.81,633.14Z"/><path class="cls-66" d="M965.68,354l10.49-30.22c-1,.6-2,1.12-2.9,1.57s-1.88.94-2.92,1.44l-1.93-6.26c1.44-.57,2.85-1.16,4.22-1.76,1.16-.5,2.37-1.05,3.62-1.66s2.29-1.16,3.15-1.69l7.08,2.46-13.44,38.68Z"/><path class="cls-66" d="M1018.9,350.1q-3.66,10.56-8.94,14t-12.44,1q-7.17-2.49-9.15-8.5t1.42-15.83q3.39-9.76,8.7-13.3t12.46-1Q1025.4,331.42,1018.9,350.1Zm-8.8-2.71q2-6.43,1.71-9.61a4.62,4.62,0,0,0-3.28-4.2,4.92,4.92,0,0,0-5.32,1.47q-2.34,2.38-4.9,9.26-1.84,5.83-1.56,9.16a4.89,4.89,0,0,0,3.3,4.49,4.66,4.66,0,0,0,5.16-1.44Q1007.58,354.11,1010.1,347.39Z"/><path class="cls-66" d="M742.05,671.32l9.53-27.43c-.94.53-1.82,1-2.64,1.42l-2.65,1.31-1.75-5.69c1.31-.52,2.58-1,3.83-1.59,1.06-.46,2.15-1,3.28-1.51a30.93,30.93,0,0,0,2.86-1.54l6.43,2.23-12.2,35.12Z"/><path class="cls-66" d="M790.37,667.74q-3.33,9.6-8.13,12.73t-11.29.88q-6.5-2.25-8.3-7.71t1.29-14.37q3.07-8.87,7.89-12.08t11.32-1Q796.26,650.79,790.37,667.74Zm-8-2.46c1.24-3.89,1.76-6.79,1.56-8.72a4.21,4.21,0,0,0-3-3.81,4.47,4.47,0,0,0-4.83,1.33q-2.11,2.17-4.45,8.41a23,23,0,0,0-1.42,8.31,4.45,4.45,0,0,0,3,4.08,4.24,4.24,0,0,0,4.68-1.31Q780.09,671.4,782.37,665.28Z"/><path class="cls-67" d="M639.32,463.77a212.84,212.84,0,0,0-31.18,2.85c-3.73-22.8-12.82-46.14-21.55-61.28.71,21.91,1.78,45.78,5.88,64.66-14.78-.89-31.53-.89-31.53-.89,6.95-29,3.21-89.24-2.13-121.12a203,203,0,0,0,31.88-2.14c2.85,26,10.86,54.68,21.2,73.21a466.79,466.79,0,0,0-5.17-79.44c17.46.53,32.78,2.31,32.78,2.31C634.33,371.68,636.29,428.68,639.32,463.77Z"/><path class="cls-67" d="M686.34,464.66c.18-2.67.35-5.52.35-8.2a28.64,28.64,0,0,1-22.26,5.88c-21.73-2.85-27.07-36.16-13.36-78.19,12.47,2.31,25.47,4.63,25.47,4.63-8.73,24.94-8.73,51.3-.18,52.72,3.74.72,7.31-.71,10.33-4.63-.53-17.81-2.13-36.34-4.09-51.83,0,0,14.43.53,24.58-2.32-2.67,26.9-2.32,55.75,1.25,79.8A111.43,111.43,0,0,0,686.34,464.66Z"/><path class="cls-67" d="M776.47,461.63c8.19-24.4,8.19-52.55.17-55.4a6.8,6.8,0,0,0-6.94,1.43c3.2,14.43,2.67,34.56-2.14,58.6a184,184,0,0,0-23.87-3.2c8-26.54,5.7-54.51-1.07-56.65a7.63,7.63,0,0,0-7.48,2c.71,21.38,2.32,44.53,3.74,56.29A246,246,0,0,0,714,467.33c2.31-25.29,3-56.82-.54-81.05,0,0,12.65-.35,21.73-3.74-.18,2.32-.18,4.63-.18,7.13a20.85,20.85,0,0,1,17.1-4.63c5.17.89,9.27,3.92,12.47,9.08,6.24-7.84,14.07-10.51,21.38-9.08,20,3.92,25.82,37.22,14.78,79.8A160.11,160.11,0,0,0,776.47,461.63Z"/><path class="cls-67" d="M853.41,461.63a29.5,29.5,0,0,1-17.64-6.23c.18,2.67.54,5.16.72,7.3-11.4,1.07-23.52,3.21-23.52,3.21,3.39-33,4.46-95.48,0-133.06,13.72-2,29.57-4.81,29.57-4.81-1.6,11.75-4.09,38.12-5.7,65a28.83,28.83,0,0,1,21.2-7.83c20.49,1.06,26.72,27.43,25.83,42.57C882.44,448.45,870.51,462.16,853.41,461.63ZM846.11,410c-7,1.07-10.69,7.84-10.34,15.86.36,8.73,5.53,14.43,12.47,14.78,7.31.36,12.83-5.7,12.47-13.71C860.36,416.56,853.23,408.91,846.11,410Z"/><path class="cls-67" d="M928.4,464.12c-14.79,1.07-31.71-7.3-37.41-29.92-6.23-24.76,4.63-52.19,29.39-52.55,23.69-.35,33.49,17.82,34.56,40.79,0,0-23.52.36-43.64,4.1.89,11.22,5,20.13,10.86,19.59,5.52-.53,6.59-8,5.35-14.78,0,0,16.2-2.14,31.52-3.21C958.86,454,942.65,463.23,928.4,464.12ZM920,399.82c-4.27.71-7.3,6.41-8.55,14.43a146.8,146.8,0,0,0,18.71-1.78C929.11,404.81,925.55,399.11,920,399.82Z"/><path class="cls-67" d="M1000.35,423.87c.36-10-2-16.39-5.34-17.1-3-.54-6.24.53-8.91,5.16.72,18.35,2.5,38.3,4.63,51.3,0,0-13.36-.53-25.47,3.39,1.78-24.58,3-56.11-.53-80.34,0,0,12.64-.35,21.37-3.74-.17,2.85-.35,6.06-.35,9.44,6.77-6.23,16.21-8.72,23.33-7.48,11.76,2,17.81,13.54,17.46,33.49C1014.6,419.06,1000.35,423.87,1000.35,423.87Z"/><path class="cls-67" d="M674.4,533.39c0,32.42,2,69.65,6.06,93.87-15.14.54-31.71,2.14-31.71,2.14,3.57-24.23,4.81-60.74.72-94.41a192.25,192.25,0,0,0-24.76,4.46A233.36,233.36,0,0,0,621.32,506c25.65-1.43,55.22-.71,78.73-3.74,0,0-.18,16.39.36,31.7A243.15,243.15,0,0,0,674.4,533.39Z"/><path class="cls-67" d="M726.59,586.12c.36-10-2-16.39-5.34-17.1-3-.54-6.24.53-8.91,5.16.71,18.35,2.49,38.3,4.63,51.3,0,0-13.36-.53-25.47,3.39,1.78-24.59,3-56.11-.54-80.34,0,0,12.65-.36,21.38-3.74-.18,2.85-.36,6.06-.36,9.44,6.77-6.23,16.21-8.73,23.34-7.48,11.75,2,17.81,13.54,17.45,33.49C740.84,581.31,726.59,586.12,726.59,586.12Z"/><path class="cls-67" d="M796.59,627.62c.35-1.78.71-3.39.89-5.17a34.27,34.27,0,0,1-14.43,5.17c-10.86,1.25-29-6.59-29.39-22.62-.36-17.82,15.5-26.37,29.57-26.72a29.87,29.87,0,0,1,15.67,4.09c-3-27.07-15.67-21.9-14.07-8.9-12.29-.36-25.82,3.2-25.82,3.2-4.28-21,12.11-41.68,39.54-30.45,30.28,12.29,16.39,59.13,19.41,80.51A168.11,168.11,0,0,0,796.59,627.62ZM785.72,595c-4.63,1.6-9.26,6.24-7.3,11.05s8.19,5.16,12.11,3.74c5.52-2.14,9.26-8,7.66-11.58C796.23,594.13,790,593.42,785.72,595Z"/><path class="cls-67" d="M856.61,626.55c-12.11,1.07-28.5-3.74-32.77-25.29-5-25.48,7.3-51.48,25.83-54.33,18-2.85,29.21,10.51,32.42,24.22,0,0-13.54,2.5-23.52,7-.35-4.81-2.31-9.8-6.94-9.08s-9.09,9.26-8.73,19.41c.35,11.22,4.81,17.81,10.33,17.46,4.63-.36,7.84-4.46,8-10.87,0,0,12.64-1.6,26-2C886.54,615.68,872.47,625.3,856.61,626.55Z"/><path class="cls-67" d="M931.24,626.37c-14.78,1.07-31.7-7.3-37.4-29.92-6.24-24.76,4.63-52.19,29.39-52.55,23.69-.36,33.48,17.81,34.55,40.79,0,0-23.51.36-43.64,4.1.89,11.22,5,20.12,10.87,19.59,5.52-.53,6.59-8,5.34-14.78,0,0,16.21-2.14,31.53-3.21C961.7,616.22,945.49,625.48,931.24,626.37Zm-8.37-64.3c-4.27.71-7.3,6.41-8.55,14.43a148.32,148.32,0,0,0,18.7-1.78C932,567.06,928.39,561.36,922.87,562.07Z"/><path class="cls-68" d="M632.69,458.8a212.8,212.8,0,0,0-31.17,2.85c-3.74-22.8-12.82-46.13-21.55-61.27.71,21.91,1.78,45.77,5.88,64.66-14.79-.9-31.53-.9-31.53-.9,6.95-29,3.21-89.24-2.14-121.12a201.73,201.73,0,0,0,31.89-2.14c2.85,26,10.86,54.69,21.19,73.21a466,466,0,0,0-5.16-79.44c17.45.53,32.77,2.31,32.77,2.31C627.71,366.71,629.67,423.71,632.69,458.8Z"/><path class="cls-68" d="M679.72,459.69c.17-2.67.35-5.52.35-8.19a28.72,28.72,0,0,1-22.26,5.88c-21.73-2.85-27.08-36.16-13.36-78.2,12.47,2.32,25.47,4.63,25.47,4.63-8.73,24.94-8.73,51.3-.18,52.73,3.74.71,7.3-.72,10.33-4.64-.53-17.81-2.14-36.33-4.09-51.83,0,0,14.42.53,24.58-2.32-2.68,26.9-2.32,55.76,1.24,79.8A112.18,112.18,0,0,0,679.72,459.69Z"/><path class="cls-68" d="M769.84,456.66c8.2-24.4,8.2-52.54.18-55.39a6.82,6.82,0,0,0-6.95,1.42c3.21,14.43,2.68,34.56-2.13,58.6a184,184,0,0,0-23.87-3.2c8-26.54,5.7-54.51-1.07-56.65a7.64,7.64,0,0,0-7.48,2c.71,21.38,2.31,44.54,3.74,56.29a246,246,0,0,0-24.94,2.67c2.32-25.29,3-56.82-.53-81,0,0,12.64-.36,21.73-3.74-.18,2.31-.18,4.63-.18,7.12a20.88,20.88,0,0,1,17.1-4.63c5.17.89,9.26,3.92,12.47,9.08,6.23-7.83,14.07-10.51,21.37-9.08,20,3.92,25.83,37.23,14.79,79.8A161.66,161.66,0,0,0,769.84,456.66Z"/><path class="cls-68" d="M846.79,456.66a29.43,29.43,0,0,1-17.64-6.23c.18,2.67.54,5.16.72,7.3-11.4,1.07-23.52,3.21-23.52,3.21,3.39-32.95,4.46-95.48,0-133.06,13.72-2,29.57-4.81,29.57-4.81-1.6,11.76-4.1,38.12-5.7,65a28.8,28.8,0,0,1,21.2-7.84c20.48,1.07,26.72,27.43,25.83,42.57C875.82,443.48,863.89,457.2,846.79,456.66ZM839.48,405c-6.94,1.07-10.68,7.83-10.33,15.85.36,8.73,5.53,14.43,12.47,14.78,7.31.36,12.83-5.7,12.47-13.71C853.73,411.6,846.61,403.94,839.48,405Z"/><path class="cls-68" d="M921.77,459.16c-14.78,1.07-31.7-7.31-37.4-29.93-6.24-24.76,4.63-52.19,29.39-52.54,23.69-.36,33.49,17.81,34.55,40.79,0,0-23.51.35-43.64,4.09.89,11.22,5,20.13,10.87,19.6,5.52-.54,6.59-8,5.34-14.79,0,0,16.21-2.14,31.53-3.2C952.23,449,936,458.27,921.77,459.16Zm-8.37-64.31c-4.27.72-7.3,6.42-8.55,14.43a146.48,146.48,0,0,0,18.7-1.78C922.49,399.84,918.92,394.14,913.4,394.85Z"/><path class="cls-68" d="M993.73,418.9c.36-10-2-16.39-5.34-17.1-3-.53-6.24.54-8.91,5.17.71,18.34,2.49,38.29,4.63,51.3,0,0-13.36-.54-25.47,3.38,1.78-24.58,3-56.11-.53-80.33,0,0,12.64-.36,21.37-3.74-.18,2.85-.36,6.05-.36,9.44,6.77-6.24,16.21-8.73,23.34-7.48,11.75,2,17.81,13.53,17.45,33.48C1008,414.09,993.73,418.9,993.73,418.9Z"/><path class="cls-68" d="M667.78,528.42c0,32.42,2,69.65,6.06,93.88-15.14.53-31.71,2.13-31.71,2.13,3.56-24.22,4.81-60.74.71-94.4a192.92,192.92,0,0,0-24.76,4.45A232.53,232.53,0,0,0,614.7,501c25.65-1.42,55.22-.71,78.73-3.74,0,0-.18,16.39.36,31.71A243,243,0,0,0,667.78,528.42Z"/><path class="cls-68" d="M720,581.15c.35-10-2-16.39-5.35-17.1-3-.54-6.23.53-8.9,5.16.71,18.35,2.49,38.3,4.63,51.3,0,0-13.36-.53-25.47,3.39,1.78-24.58,3-56.11-.54-80.34,0,0,12.65-.35,21.38-3.74-.18,2.85-.36,6.06-.36,9.44,6.77-6.23,16.21-8.72,23.34-7.48,11.75,2,17.81,13.54,17.45,33.49C734.22,576.34,720,581.15,720,581.15Z"/><path class="cls-68" d="M790,622.65c.35-1.78.71-3.38.89-5.16a34.3,34.3,0,0,1-14.43,5.16c-10.87,1.25-29-6.59-29.39-22.62-.36-17.81,15.5-26.36,29.57-26.72a29.88,29.88,0,0,1,15.67,4.1c-3-27.08-15.67-21.91-14.07-8.91-12.29-.35-25.83,3.21-25.83,3.21-4.27-21,12.11-41.68,39.55-30.46,30.28,12.29,16.38,59.14,19.41,80.51A168.11,168.11,0,0,0,790,622.65Zm-10.87-32.6c-4.63,1.61-9.26,6.24-7.3,11.05s8.19,5.16,12.11,3.74c5.52-2.14,9.26-8,7.66-11.58C789.61,589.16,783.38,588.45,779.1,590.05Z"/><path class="cls-68" d="M850,621.58c-12.11,1.07-28.5-3.74-32.77-25.29-5-25.47,7.3-51.48,25.83-54.33,18-2.85,29.21,10.51,32.41,24.23,0,0-13.53,2.49-23.51,6.94-.36-4.81-2.31-9.79-7-9.08s-9.08,9.26-8.72,19.41c.35,11.23,4.81,17.82,10.33,17.46,4.63-.36,7.84-4.45,8-10.87,0,0,12.65-1.6,26-1.95C879.92,610.72,865.85,620.34,850,621.58Z"/><path class="cls-68" d="M924.62,621.4c-14.78,1.07-31.71-7.3-37.41-29.92-6.23-24.76,4.64-52.19,29.4-52.55,23.69-.35,33.48,17.82,34.55,40.79,0,0-23.51.36-43.64,4.1.89,11.22,5,20.13,10.87,19.59,5.52-.53,6.59-8,5.34-14.78,0,0,16.21-2.14,31.53-3.21C955.08,611.25,938.87,620.51,924.62,621.4Zm-8.37-64.3c-4.28.71-7.3,6.41-8.55,14.43a146.65,146.65,0,0,0,18.7-1.78C925.33,562.09,921.77,556.39,916.25,557.1Z"/><path class="cls-69" d="M364.73,215.35a3.55,3.55,0,0,0,0-.51c-.08-12.5-4.35-24.88-14.11-33.39-17.18-15-44-14.69-44-14.69v.06l-.1-.06h0c-.07,0-26.83-.15-43.93,14.85-14.53,12.76-16.78,34.1-11.14,51.57,6,18.5,36.6,53.58,41.75,59.4v.84l7.26,9.3-.23,1.57h0l-.93,6.39v7.48c0,.36,0,.76.06,1.18v5a1.63,1.63,0,0,0,.55,1.23l.17.14.12.08a1.68,1.68,0,0,0,.39.16l.29.05H313.5a1.7,1.7,0,0,0,.31-.06,1.62,1.62,0,0,0,.33-.13l.17-.1.17-.14a1.63,1.63,0,0,0,.27-.31l0,0a2.43,2.43,0,0,0,.18-.4s0,0,0-.06v0a1.75,1.75,0,0,0,0-.4V310.68h0l-1.63-7.85,7.12-9.41-1.23,0-6.83,9.39-11-.1h0l-7-9.3h26v-.85h-.07c1.4-1.59,4.77-5.46,9.05-10.63,11.06-13.33,28.83-36.1,33.19-49.78a51,51,0,0,0,1.58-9.23A58.15,58.15,0,0,0,364.73,215.35Zm-52.06,88.94,1.27,6.39H300.32l.89-6.39Z"/><g class="cls-70"><path class="cls-71" d="M307.13,293.4l12.59,0s35.84-40.18,42.3-60.44c5.58-17.51,3.25-38.86-11.35-51.57-17.19-15-44-14.69-44-14.69Z"/><path class="cls-72" d="M306.65,166.66s21.91,1,34.83,13.56c13.66,13.29,13.39,22.11,13,34.54-.95,32.82-36.65,78.6-36.65,78.6l-10.73,0Z"/><path class="cls-73" d="M306.65,166.66a49.38,49.38,0,0,1,22,12c11.19,10.48,13.25,28.52,11,44.31-2.88,20.31-24.61,70.37-24.61,70.37l-7.93,0Z"/><polygon class="cls-74" points="320.49 293.4 313.37 302.83 315.03 310.79 314 310.81 312.41 302.84 319.26 293.42 320.49 293.4"/><path class="cls-71" d="M306.55,293.4H294s-36-40-42.52-60.27c-5.65-17.49-3.4-38.84,11.14-51.61,17.14-15,44-14.86,44-14.86Z"/><path class="cls-72" d="M306.55,166.66s-21.9,1.08-34.78,13.69c-13.61,13.35-13.31,22.17-12.9,34.59,1.08,32.82,36.95,78.46,36.95,78.46h10.73Z"/><path class="cls-73" d="M306.55,166.66a49.33,49.33,0,0,0-22,12.11c-11.16,10.53-13.14,28.57-10.84,44.35,2.95,20.3,24.87,70.28,24.87,70.28h7.93Z"/><path class="cls-75" d="M318.3,180.29a30.79,30.79,0,0,0-11.75-13.63h0a30.83,30.83,0,0,0-11.68,13.69c-3.48,8.46-5.26,20.84-3.46,41.33s12.13,71.72,12.13,71.72h6.69s10.06-51.28,11.75-71.78S321.83,188.73,318.3,180.29Z"/><rect class="cls-74" x="293.22" y="292.56" width="27.27" height="0.85"/><path class="cls-74" d="M307.18,326h0c-2.44,0-4.77.14-6.21-1.61-1.12-1.36-1.65-4.35-1.65-6.25v-7.49h15.73v7.49c0,2.22-.08,5-1.56,6.44S309.3,326,307.18,326Z"/><path class="cls-76" d="M313.45,310.68v12.46a1.67,1.67,0,0,1-1.67,1.67l-12.34-.14c.05-.11,0,.12,0,.12A1.61,1.61,0,0,0,301,326h12.39a1.66,1.66,0,0,0,1.67-1.67V310.68Z"/><path class="cls-76" d="M301,310.68v12.46a1.67,1.67,0,0,0,1.67,1.67l12.34-.2v.17a1.62,1.62,0,0,1-1.55,1.25h-12.4a1.67,1.67,0,0,1-1.67-1.67V310.68Z"/><polygon class="cls-74" points="293.22 293.4 300.48 302.72 299.32 310.68 300.34 310.68 301.44 302.72 294.44 293.4 293.22 293.4"/><polygon class="cls-74" points="300.48 302.72 313.37 302.83 313.68 304.29 300.25 304.29 300.48 302.72"/><path class="cls-77" d="M296.21,209.75a7.63,7.63,0,0,0,1.3,3.42,2.89,2.89,0,0,0,3.27,1c1.27-.57,1.66-2.16,1.83-3.54,1.24-9.88-.53-20.38,3.45-29.52.86-2,2-4.19,1.16-6.17-1.32-3.12-4.7-2.17-6.07,0-2,3.14-3.15,7.17-4.09,10.72A54.33,54.33,0,0,0,296.21,209.75Z"/><path class="cls-77" d="M278,205c.08,1.24.37,2.68,1.49,3.21a2.43,2.43,0,0,0,2.56-.55,5.4,5.4,0,0,0,1.34-2.39c1.95-6.16-.13-13.3,2.88-19,2-3.73,6.31-6.27,7.52-10.35-4.7-2.44-10,7.24-11.73,10.48A35.22,35.22,0,0,0,278,205Z"/><path class="cls-77" d="M263.2,198.39c-1,2.57-1.79,5.56-.5,8a2.46,2.46,0,0,0,1.21,1.23c1.22.47,2.46-.68,3.06-1.84,1.2-2.34,1.28-5.07,1.71-7.66a28,28,0,0,1,7.42-14.8c1.72-1.78,3.75-3.44,4.55-5.79.13-.39-2.56,0-2.86.11-.7.37-1.08,1.16-1.61,1.72-1.8,1.87-3.64,3.63-5.26,5.67A51.58,51.58,0,0,0,263.2,198.39Z"/><path class="cls-77" d="M253.4,201c-.62,2-1.1,4.2-.24,6.09a1.87,1.87,0,0,0,.83,1c1,.46,2-.72,2.42-1.78,1-2.7,1-5.67,1.57-8.49,1.26-6,5.16-11.14,8.95-16,.22-.28-2.05.05-2.31.2-.53.31-1,1.22-1.36,1.68-1.41,1.71-2.81,3.39-4.05,5.24A47.68,47.68,0,0,0,253.4,201Z"/><path class="cls-78" d="M362.69,232.1c1.76-5.52,2.22-18.26,2.09-17.29a31.22,31.22,0,0,1-1.76,7.91A114.51,114.51,0,0,1,348.23,253a112.83,112.83,0,0,1-12.32,15c-5.34,5.46-11.22,10.36-16.61,15.77-2.4,2.42-4.87,5.54-4.43,8.82l5.53,0S356.24,252.36,362.69,232.1Z"/><path class="cls-79" d="M307.91,292.54h2.54s10.06-51.28,11.75-71.78c.37-4.45.57-8.51.62-12.23-1.75,2.9-1.59,8.47-2.11,11.52-.82,4.8-1.72,9.58-2.82,14.32-1.35,5.85-3,11.63-4.2,17.51-.91,4.57-1.54,9.2-2.16,13.82Q309.72,279.13,307.91,292.54Z"/><path class="cls-80" d="M318.44,292.55s34.92-46,36.16-78.79c-.43.24-3,9-3.85,12.07-1.27,4.53-3.62,7.76-5.24,12.17-4,10.81-7.67,16.21-15.87,30.12-4.56,7.74-11.67,15.12-14,23.78a4.54,4.54,0,0,0-.14.66Z"/><path class="cls-81" d="M315.39,292.55s21.74-50.07,24.62-70.38a82,82,0,0,0,.36-13.78c-1.19,1.66-1,6.71-1.33,8.17q-1.95,9.24-4.51,18.35A292.15,292.15,0,0,1,321.85,271q-4.29,10.07-9.32,19.8a8,8,0,0,0-.66,1.74Z"/></g></g></g></g></svg>