<?xml version="1.0" encoding="utf-8"?>
<!-- Generator: Adobe Illustrator 25.2.0, SVG Export Plug-In . SVG Version: 6.00 Build 0)  -->
<svg version="1.1" id="ac2d7ee6-bc22-49b3-91f0-c3cc68fa94a3"
	 xmlns="http://www.w3.org/2000/svg" xmlns:xlink="http://www.w3.org/1999/xlink" x="0px" y="0px" viewBox="0 0 1600 900"
	 style="enable-background:new 0 0 1600 900;" xml:space="preserve">
<style type="text/css">
	.st0{clip-path:url(#SVGID_2_);}
	.st1{fill:url(#SVGID_3_);}
	.st2{fill:url(#SVGID_4_);}
	.st3{fill:url(#SVGID_5_);}
	.st4{fill:#A8774A;}
	.st5{fill:none;stroke:#3E484C;stroke-width:2;stroke-miterlimit:10;}
	.st6{fill:none;stroke:#2A383F;stroke-width:2;stroke-miterlimit:10;}
	.st7{fill:url(#SVGID_6_);}
	.st8{fill:url(#SVGID_7_);}
	.st9{fill:url(#SVGID_8_);}
	.st10{fill:url(#SVGID_9_);}
	.st11{fill:#532016;}
	.st12{fill:url(#SVGID_10_);}
	.st13{fill:url(#SVGID_11_);}
	.st14{fill:url(#SVGID_12_);}
	.st15{fill:#539B56;}
	.st16{fill:#104C16;}
	.st17{fill:#3F201C;}
	.st18{fill:url(#SVGID_13_);}
	.st19{fill:url(#SVGID_14_);}
	.st20{fill:url(#SVGID_15_);}
	.st21{fill:url(#SVGID_16_);}
	.st22{fill:#158240;}
	.st23{fill:url(#SVGID_17_);}
</style>
<g>
	<defs>
		<rect id="SVGID_1_" width="1600" height="900"/>
	</defs>
	<clipPath id="SVGID_2_">
		<use xlink:href="#SVGID_1_"  style="overflow:visible;"/>
	</clipPath>
	<g class="st0">
		
			<image style="overflow:visible;opacity:0.5;enable-background:new    ;" width="1281" height="720" xlink:href="6CDAFE43.png"  transform="matrix(0.9992 0 0 0.9992 159.6 89.781)">
		</image>
		
			<linearGradient id="SVGID_3_" gradientUnits="userSpaceOnUse" x1="801.4255" y1="279.37" x2="797.2056" y2="933.75" gradientTransform="matrix(1 0 0 -1 0 900)">
			<stop  offset="0.11" style="stop-color:#BDEDF4"/>
			<stop  offset="0.29" style="stop-color:#B5E9F2"/>
			<stop  offset="0.58" style="stop-color:#9EDEEB"/>
			<stop  offset="0.9" style="stop-color:#7ECFE2"/>
		</linearGradient>
		<rect x="-0.5" y="-0.4" class="st1" width="1601" height="797"/>
		
			<linearGradient id="SVGID_4_" gradientUnits="userSpaceOnUse" x1="271.625" y1="-101.19" x2="271.625" y2="631.31" gradientTransform="matrix(1 0 0 -1 0 900)">
			<stop  offset="0.46" style="stop-color:#BDEDF2"/>
			<stop  offset="0.5" style="stop-color:#B3EBF1"/>
			<stop  offset="0.64" style="stop-color:#97E4ED"/>
			<stop  offset="0.73" style="stop-color:#8DE1EB"/>
		</linearGradient>
		<path class="st2" d="M-94.6,372c0,0,337.7-28.3,672.9,180.3l59.6,73.3c0,0-386.2,67.6-393.4,74.3s-339,37.5-339,37.5L-94.6,372z"
			/>
		
			<linearGradient id="SVGID_5_" gradientUnits="userSpaceOnUse" x1="854.6436" y1="24.9799" x2="851.9235" y2="446.34" gradientTransform="matrix(1 0 0 -1 0 900)">
			<stop  offset="0.17" style="stop-color:#66D579"/>
			<stop  offset="0.94" style="stop-color:#8ACE9A"/>
		</linearGradient>
		<path class="st3" d="M-53.1,701.7c0,0,300-23.9,555.6-127.4c366.4-148.4,677.7-180.5,1155.8-157.1L1775,618.9l-53.1,260.5
			L-66.9,939.5L-53.1,701.7z"/>
		<g>
			<rect x="806.4" y="504" class="st4" width="3.4" height="12.1"/>
			
				<rect x="824.7" y="498.7" transform="matrix(0.9902 -0.1393 0.1393 0.9902 -62.2768 120.0837)" class="st4" width="3.4" height="12.1"/>
			
				<rect x="839.9" y="494.6" transform="matrix(0.9835 -0.1807 0.1807 0.9835 -76.5866 160.269)" class="st4" width="3.4" height="12"/>
			
				<rect x="856.3" y="490.1" transform="matrix(0.9835 -0.1807 0.1807 0.9835 -75.5087 163.163)" class="st4" width="3.4" height="12"/>
			
				<rect x="876" y="485.9" transform="matrix(0.9778 -0.2095 0.2095 0.9778 -83.6031 194.8236)" class="st4" width="3.4" height="12.1"/>
			
				<rect x="893.8" y="481.4" transform="matrix(0.9775 -0.211 0.211 0.9775 -82.6834 199.9142)" class="st4" width="3.4" height="12.1"/>
			
				<rect x="915.3" y="476.7" transform="matrix(0.9371 -0.3489 0.3489 0.9371 -110.8055 350.3177)" class="st4" width="3.4" height="12.1"/>
			
				<rect x="932.6" y="473.3" transform="matrix(0.9371 -0.3489 0.3489 0.9371 -108.5284 356.1521)" class="st4" width="3.4" height="12.1"/>
			
				<rect x="949.9" y="469.5" transform="matrix(0.8876 -0.4607 0.4607 0.8876 -112.0997 491.8351)" class="st4" width="3.4" height="12.1"/>
			
				<rect x="969.8" y="465.9" transform="matrix(0.8876 -0.4607 0.4607 0.8876 -108.1737 500.5716)" class="st4" width="3.4" height="12.1"/>
			
				<rect x="996.3" y="461.5" transform="matrix(0.8876 -0.4607 0.4607 0.8876 -103.1695 512.3191)" class="st4" width="3.4" height="12.1"/>
			<polygon class="st4" points="1025.3,470 1021.7,470.6 1015.6,459.1 1019.1,458.3 			"/>
			<polygon class="st4" points="1053.8,466.7 1050.1,467.4 1043.7,456.2 1047.2,455.2 			"/>
			<polygon class="st4" points="1080.4,464.8 1076.7,465.5 1070.3,454.3 1073.8,453.3 			"/>
			<polygon class="st4" points="1107.2,462.8 1103.5,463.5 1097.1,452.3 1100.6,451.3 			"/>
			<polygon class="st4" points="1132.1,461.2 1128.4,461.9 1122,450.6 1125.5,449.7 			"/>
			<polygon class="st4" points="1153.5,460.2 1149.8,460.6 1144.8,449 1148.3,448.4 			"/>
			<polygon class="st4" points="1174.4,459 1170.7,459.4 1165.8,448.1 1169.4,447.5 			"/>
			<polygon class="st4" points="1193.8,457.7 1190.1,458.1 1185.3,447 1188.9,446.4 			"/>
			<polygon class="st4" points="1215.5,456.6 1211.7,456.8 1207.6,445.6 1211.1,445.2 			"/>
			<polygon class="st4" points="1238.8,455.5 1235.1,456 1229.8,445 1233.3,444.3 			"/>
			<polygon class="st4" points="1263.4,454.6 1259.7,455.4 1253.1,444.3 1256.5,443.3 			"/>
			<polygon class="st4" points="1287.1,453.7 1283.4,454.5 1276.8,443.4 1280.3,442.3 			"/>
			<polygon class="st4" points="1309.7,453 1306.1,453.8 1299.4,442.6 1302.9,441.6 			"/>
			<polygon class="st4" points="1331.4,452.6 1327.7,453.4 1321.1,442.2 1324.5,441.2 			"/>
			<polygon class="st4" points="1352.9,452.4 1349.2,453.2 1342.6,442.1 1346,441.1 			"/>
			<polygon class="st4" points="1374,452 1370.3,453 1363.3,442.1 1366.7,440.9 			"/>
			<polygon class="st4" points="1401.3,453.4 1396.7,453.2 1388.9,441.2 1393.1,441.2 			"/>
			<polygon class="st4" points="1425.1,454 1420.6,453.8 1412.8,441.9 1416.9,441.8 			"/>
			<polygon class="st4" points="1449.3,455 1444.8,454.8 1437,442.8 1441.1,442.8 			"/>
			<polygon class="st4" points="1473,455.5 1468.4,455.3 1460.6,443.4 1464.8,443.3 			"/>
			<polygon class="st4" points="1501.2,456.4 1496.6,456.2 1488.8,444.2 1492.9,444.2 			"/>
			<polygon class="st4" points="1529.1,457 1524.6,456.8 1516.8,444.8 1520.9,444.7 			"/>
			<polygon class="st4" points="1556.9,457 1552.3,457.1 1543.6,445.8 1547.7,445.5 			"/>
			<polygon class="st4" points="1587.2,457.4 1582.7,457.6 1573.9,446.3 1578.1,445.9 			"/>
			<rect x="786.7" y="509.6" class="st4" width="3.4" height="12.1"/>
			<polygon class="st4" points="703.5,547.1 699.8,547.2 701.7,534.7 705.2,534.3 			"/>
			<polygon class="st4" points="722.4,541.1 718.7,541.2 720.6,528.7 724.1,528.3 			"/>
			<polygon class="st4" points="743.6,534.8 740,534.9 741.8,522.4 745.4,522 			"/>
			<polygon class="st4" points="768.2,527.5 764.5,527.6 766.4,515.1 769.9,514.7 			"/>
			<polygon class="st4" points="686.8,552.2 683.4,552.8 685,539.7 688.4,539.1 			"/>
			
				<rect x="661.9" y="549.6" transform="matrix(0.1307 -0.9914 0.9914 0.1307 34.1081 1141.4945)" class="st4" width="12.1" height="3.4"/>
			<polygon class="st4" points="649.9,563.4 646.1,564 647.9,551 651.7,550.2 			"/>
			<polygon class="st4" points="631.8,568.8 628,569.4 629.9,556.4 633.7,555.7 			"/>
			<polygon class="st4" points="608.5,576.7 604.6,577.1 607.4,564.2 611.2,563.8 			"/>
			<polygon class="st4" points="584.9,583.4 581.1,583.8 583.8,570.9 587.6,570.5 			"/>
			<polygon class="st4" points="563.4,591.1 559.6,591.4 562.3,578.6 566.2,578.1 			"/>
			<polygon class="st4" points="542,598.5 538.2,598.9 540.9,586 544.8,585.6 			"/>
			<polygon class="st4" points="520.9,606.1 516.3,607 521.5,593.6 525.9,592.4 			"/>
			<polygon class="st4" points="499.2,613.7 494.6,614.5 499.8,601.1 504.1,600 			"/>
			<polygon class="st4" points="472.9,622.8 468.3,623.6 473.5,610.2 477.8,609 			"/>
			<polygon class="st4" points="445.5,632 440.9,632.9 446,619.5 450.4,618.3 			"/>
			<polygon class="st4" points="421.5,640.5 416.9,641.4 422,628 426.4,626.8 			"/>
			<polygon class="st4" points="395,651.5 390.4,652.4 395.6,639 400,637.8 			"/>
			<polygon class="st4" points="368.4,659.7 363.8,660.5 369,647.1 373.3,646 			"/>
			<polygon class="st4" points="340,668.3 335.4,669.2 340.6,655.8 344.9,654.6 			"/>
			<polygon class="st4" points="310,676.3 305.4,677.1 310.5,663.7 314.9,662.6 			"/>
			<polygon class="st4" points="285.8,682 281.1,683.3 286.3,669.9 290.7,668.7 			"/>
			<polygon class="st4" points="262.1,687.4 257.4,688.3 262.3,675.7 266.7,674.6 			"/>
			<polygon class="st4" points="238.8,692.5 234.1,693.3 238.9,680.8 243.2,679.6 			"/>
			<polygon class="st4" points="214.8,697.1 210.2,698 215,685.7 219.4,684.6 			"/>
			<polygon class="st4" points="191.1,701.6 186.5,702.5 191.5,690.2 195.9,689 			"/>
			<polygon class="st4" points="169.6,705.4 165,706.3 169.7,694.2 174,693.1 			"/>
			<polygon class="st4" points="143.2,709.7 138.4,710.6 145,697.9 149.5,697.2 			"/>
			<polygon class="st4" points="118.3,713.2 113.6,714.1 120.6,701.6 125.1,701 			"/>
			<polygon class="st4" points="93.7,716.8 88.7,717.5 95.6,704.9 100.1,704.4 			"/>
			<polygon class="st4" points="69.1,720.2 64.4,720.2 70.5,708.6 75,708.3 			"/>
			<polygon class="st4" points="43.6,723.1 38.9,723.1 44.7,712.5 49.2,712.2 			"/>
			<polygon class="st4" points="12.8,726.2 8.1,726.3 14.3,715.2 18.8,714.8 			"/>
		</g>
		<path class="st5" d="M-9.9,717.7c0,0,237.6-16.7,429.1-87.1c219.8-80.8,476.2-161.9,620-173.6c78-6.3,254.5-18.5,373.4-14.4
			c135.1,4.7,176.3,2.9,190.6,4.3"/>
		<path class="st6" d="M-0.5,726.3c0,0,237.6-16.7,429.1-87.1c219.8-80.8,474-158.6,617.4-171.8c77.9-7.2,257.4-18.2,376.4-14.1
			c135.1,4.7,163.8,3,178,4.4"/>
		
			<linearGradient id="SVGID_6_" gradientUnits="userSpaceOnUse" x1="139.1018" y1="534.3487" x2="214.6918" y2="636.3687" gradientTransform="matrix(1 0 0 -1 0 900)">
			<stop  offset="0.31" style="stop-color:#BDEDF4"/>
			<stop  offset="0.51" style="stop-color:#C7F5F9"/>
			<stop  offset="0.8" style="stop-color:#D2FEFF"/>
		</linearGradient>
		<path class="st7" d="M116.9,318.3c0,0,15.3-32.5,69.3-30.9s48,42.8,30,46S123.8,343.5,116.9,318.3z"/>
		
			<linearGradient id="SVGID_7_" gradientUnits="userSpaceOnUse" x1="221.7631" y1="513.3177" x2="328.0831" y2="656.7977" gradientTransform="matrix(1 0 0 -1 0 900)">
			<stop  offset="0.31" style="stop-color:#BDEDF4"/>
			<stop  offset="0.55" style="stop-color:#C7F5F9"/>
			<stop  offset="0.88" style="stop-color:#D2FEFF"/>
		</linearGradient>
		<path class="st8" d="M188.6,319.7c0,0,22.2-42.4,100.4-40.3s69.5,55.8,43.5,60S198.7,352.6,188.6,319.7z"/>
		
			<linearGradient id="SVGID_8_" gradientUnits="userSpaceOnUse" x1="689.0687" y1="659.651" x2="805.9886" y2="817.451" gradientTransform="matrix(1 0 0 -1 0 900)">
			<stop  offset="0.38" style="stop-color:#A5E2ED"/>
			<stop  offset="0.85" style="stop-color:#BDEDF4"/>
		</linearGradient>
		<path class="st9" d="M646.9,165.5c0,0,26.5-33.7,119.9-32.1s83,44.4,51.9,47.7S659,191.6,646.9,165.5z"/>
		
			<linearGradient id="SVGID_9_" gradientUnits="userSpaceOnUse" x1="1473.4592" y1="613.9104" x2="1547.1992" y2="751.8904" gradientTransform="matrix(1 0 0 -1 0 900)">
			<stop  offset="0.22" style="stop-color:#A8E3EE"/>
			<stop  offset="0.45" style="stop-color:#ADE6F0"/>
			<stop  offset="0.72" style="stop-color:#BCEDF4"/>
		</linearGradient>
		<path class="st10" d="M1439.2,218.8c0,0,19-39.5,85.9-37.6s59.5,52,37.2,55.9S1447.8,249.4,1439.2,218.8z"/>
		<g>
			<g>
				<rect x="170.3" y="708.8" class="st11" width="19.7" height="76"/>
				
					<linearGradient id="SVGID_10_" gradientUnits="userSpaceOnUse" x1="106.3016" y1="154.6927" x2="168.7916" y2="508.8727" gradientTransform="matrix(0.9986 -5.373025e-02 -5.373025e-02 -0.9986 67.2272 957.77)">
					<stop  offset="0.23" style="stop-color:#0A5731"/>
					<stop  offset="0.34" style="stop-color:#186E43"/>
					<stop  offset="0.92" style="stop-color:#62E69D"/>
				</linearGradient>
				<path class="st12" d="M118.6,711.5c0,0-5.4-188.8,63-275.9c0,0,18.1-17.5,35.6,45.3s30.6,178.3,22,231.6
					C232.6,753.1,120.9,764,118.6,711.5z"/>
			</g>
			<g>
				<polygon class="st11" points="95.6,800.3 78.9,795.6 78.9,723.6 95.6,723.6 				"/>
				
					<linearGradient id="SVGID_11_" gradientUnits="userSpaceOnUse" x1="17.6545" y1="208.2132" x2="76.8845" y2="543.9133" gradientTransform="matrix(1 -5.000000e-02 -5.000000e-02 -0.85 71.64 968.25)">
					<stop  offset="4.000000e-02" style="stop-color:#0A5731"/>
					<stop  offset="0.21" style="stop-color:#1F784A"/>
					<stop  offset="0.54" style="stop-color:#43B377"/>
					<stop  offset="0.79" style="stop-color:#59D892"/>
					<stop  offset="0.92" style="stop-color:#62E69D"/>
				</linearGradient>
				<path class="st13" d="M41.9,719.4c0,0-3.4-151.8,54.8-222.5c0,0,15.4-14.2,29.8,36.1s24.8,143.1,17.2,186.1
					C137.9,751.7,43.6,761.5,41.9,719.4z"/>
			</g>
			<g>
				<rect x="231.7" y="741.8" class="st11" width="17.7" height="48.1"/>
				
					<linearGradient id="SVGID_12_" gradientUnits="userSpaceOnUse" x1="175.0128" y1="171.1507" x2="214.7628" y2="396.4507" gradientTransform="matrix(0.9986 -5.373025e-02 -5.373025e-02 -0.9986 67.2272 957.77)">
					<stop  offset="4.000000e-02" style="stop-color:#0A5731"/>
					<stop  offset="0.21" style="stop-color:#1F784A"/>
					<stop  offset="0.54" style="stop-color:#43B377"/>
					<stop  offset="0.79" style="stop-color:#59D892"/>
					<stop  offset="0.92" style="stop-color:#62E69D"/>
				</linearGradient>
				<path class="st14" d="M186.8,722.1c0,0-4.8-119.5,56.6-174.6c0,0,16.2-11,32,28.7S302.8,689,295,722.7
					C289.2,748.4,188.9,755.3,186.8,722.1z"/>
			</g>
		</g>
		<path class="st15" d="M-12.4,741.9c0,0,249.1,61.4,563.8-20.7c118.6-30.9,309.8-95,501.1-95c149,0,268.6,7.2,332.6,17.3
			c51.2,8.1,177.1,27,222.5,43.2l2.2,175H-14.6L-12.4,741.9z"/>
		<path class="st16" d="M-12.4,766.5c0,0,233.3,26,533.5,5.2c397-27.5,347.8,41.5,786.2,62.6c51.8,2.5,269.3-14.9,306.7,3.4
			l-4.3,76.3l-1624.3-6.4L-12.4,766.5z"/>
		<g>
			<g>
				<rect x="1430.5" y="782.5" class="st17" width="36" height="145.6"/>
				
					<linearGradient id="SVGID_13_" gradientUnits="userSpaceOnUse" x1="1197.9893" y1="193.4996" x2="1792.6692" y2="541.2297" gradientTransform="matrix(0.9986 -5.373025e-02 -5.373025e-02 -0.9986 67.2272 957.77)">
					<stop  offset="3.000000e-02" style="stop-color:#15492E"/>
					<stop  offset="0.18" style="stop-color:#1A4F33"/>
					<stop  offset="0.37" style="stop-color:#276040"/>
					<stop  offset="0.6" style="stop-color:#3C7C57"/>
					<stop  offset="0.68" style="stop-color:#468961"/>
				</linearGradient>
				<path class="st18" d="M1336,787.7c0,0-9.8-361.8,115.1-528.7c0,0,33-33.4,65,86.8s55.9,341.6,40.1,443.8
					C1544.3,867.3,1340.3,888.3,1336,787.7z"/>
			</g>
			<g>
				<rect x="1313.4" y="805.8" class="st17" width="27.8" height="113.7"/>
				
					<linearGradient id="SVGID_14_" gradientUnits="userSpaceOnUse" x1="1140.1018" y1="176.7125" x2="1559.9119" y2="517.5825" gradientTransform="matrix(1 -5.000000e-02 -5.000000e-02 -0.85 71.64 968.25)">
					<stop  offset="3.000000e-02" style="stop-color:#15492E"/>
					<stop  offset="0.18" style="stop-color:#1A4F33"/>
					<stop  offset="0.37" style="stop-color:#276040"/>
					<stop  offset="0.6" style="stop-color:#3C7C57"/>
					<stop  offset="0.68" style="stop-color:#468961"/>
				</linearGradient>
				<path class="st19" d="M1251.7,797.4c0,0,26.7-318.3,84.7-354c0,0,32.3-19.5,56.3,59.9s41.3,225.8,28.7,293.6
					C1411.8,848.4,1252.8,864.9,1251.7,797.4z"/>
			</g>
			<g>
				<rect x="1543.5" y="794.5" class="st17" width="33.7" height="137.9"/>
				
					<linearGradient id="SVGID_15_" gradientUnits="userSpaceOnUse" x1="1347.2775" y1="188.9992" x2="1856.5175" y2="602.4792" gradientTransform="matrix(1 -5.000000e-02 -5.000000e-02 -0.85 71.64 968.25)">
					<stop  offset="3.000000e-02" style="stop-color:#15492E"/>
					<stop  offset="0.18" style="stop-color:#1A4F33"/>
					<stop  offset="0.37" style="stop-color:#276040"/>
					<stop  offset="0.6" style="stop-color:#3C7C57"/>
					<stop  offset="0.68" style="stop-color:#468961"/>
				</linearGradient>
				<path class="st20" d="M1468.6,784.4c0,0,32.4-386.1,102.8-429.4c0,0,39.1-23.6,68.3,72.7s50.2,273.9,34.8,356.1
					C1662.8,846.2,1469.9,866.2,1468.6,784.4z"/>
			</g>
		</g>
		<g>
			
				<linearGradient id="SVGID_16_" gradientUnits="userSpaceOnUse" x1="1484.0818" y1="61.6984" x2="1604.4498" y2="61.6984" gradientTransform="matrix(1 0 0 -1 0 900)">
				<stop  offset="0" style="stop-color:#174124"/>
				<stop  offset="0" style="stop-color:#1C251B"/>
				<stop  offset="0" style="stop-color:#1B331D"/>
				<stop  offset="0.18" style="stop-color:#1B361E"/>
				<stop  offset="0.86" style="stop-color:#1A3B20"/>
			</linearGradient>
			<path class="st21" d="M1588.4,862.5c0,0-6.1-73.1-35.2-85.5c-19.4-5.6-8.5,48.3,17.6,93.9c-58.2-56.2-46.7-43.3-46.7-43.3
				c-29.1-24.8-27.9,4.5-10.9,21.4c12.6,13.6,26.4,26,41.2,37.1c0,0,0.1,6.8-12.7,0s-33.4-18-33.4-18s32.8,15.8-2.4-1.1
				s-21.8,15.8-2.4,23.6s14.8,8.6,14.8,8.6l86.1,0.7l-3.9-94.1c0,0-5-22.4-9.8-9.3S1588.4,862.5,1588.4,862.5z"/>
			<polygon class="st22" points="1593,894.4 1553.6,791.1 1594,894 			"/>
			<path class="st22" d="M1583.6,898.9c-12.6-11.3-25.1-22.6-37.5-34c-6.2-5.7-12.4-11.5-18.4-17.3c-1.5-1.5-3.1-2.9-4.6-4.4
				s-3-2.9-4.5-4.4s-3-3-4.4-4.5s-2.9-3.1-4.2-4.7c1.4,1.6,2.8,3.2,4.3,4.7s3,3,4.5,4.5s3,2.9,4.6,4.4s3,2.9,4.6,4.3
				c6.2,5.8,12.4,11.5,18.6,17.1c12.5,11.3,25.1,22.5,37.8,33.6L1583.6,898.9z"/>
			<path class="st22" d="M1545.6,899c-4.7-1.1-9.3-2.5-13.9-4.2c-4.5-1.6-9-3.5-13.3-5.5c-4.3-2.1-8.5-4.5-12.5-7.2
				c-4-2.7-7.6-5.9-10.9-9.4c3.3,3.5,7,6.6,11,9.2c4,2.6,8.2,4.9,12.6,6.9c4.4,2,8.9,3.7,13.4,5.3c4.5,1.5,9.1,2.8,13.8,3.9
				L1545.6,899z"/>
		</g>
		<g>
			
				<linearGradient id="SVGID_17_" gradientUnits="userSpaceOnUse" x1="942.1618" y1="61.7034" x2="1062.53" y2="61.7034" gradientTransform="matrix(-1 0 0 -1 1062.53 900)">
				<stop  offset="0" style="stop-color:#174124"/>
				<stop  offset="0" style="stop-color:#1C251B"/>
				<stop  offset="0" style="stop-color:#1B331D"/>
				<stop  offset="0.18" style="stop-color:#1B361E"/>
				<stop  offset="0.86" style="stop-color:#1A3B20"/>
			</linearGradient>
			<path class="st23" d="M16,862.5c0,0,6.1-73.1,35.2-85.5c19.4-5.6,8.5,48.3-17.6,93.9c58.2-56.2,46.7-43.3,46.7-43.3
				c29.1-24.8,27.9,4.5,10.9,21.4c-12.6,13.6-26.4,26.1-41.2,37.1c0,0,0,6.8,12.7,0s33.4-18,33.4-18s-32.8,15.8,2.4-1.2
				s21.8,15.8,2.4,23.6s-14.8,8.6-14.8,8.6L0,900l3.9-94.1c0,0,5-22.4,9.8-9.3S16,862.5,16,862.5z"/>
			<polygon class="st22" points="10.4,894 50.8,791.1 11.4,894.4 			"/>
			<path class="st22" d="M20.2,898.1C32.8,887,45.4,875.7,58,864.4c6.2-5.7,12.5-11.3,18.6-17.1c1.6-1.4,3.1-2.9,4.6-4.3
				s3.1-2.9,4.6-4.4s3-3,4.5-4.5s2.9-3.1,4.3-4.7c-1.4,1.6-2.8,3.2-4.2,4.7s-2.9,3-4.4,4.5s-3,3-4.5,4.4s-3,2.9-4.6,4.4
				c-6.1,5.8-12.3,11.6-18.5,17.3c-12.4,11.4-24.9,22.8-37.5,34L20.2,898.1z"/>
			<path class="st22" d="M58.7,898c4.7-1,9.3-2.3,13.8-3.9c4.5-1.5,9-3.3,13.4-5.2c4.4-2,8.6-4.3,12.6-6.9c4-2.7,7.7-5.8,11-9.2
				c-3.3,3.5-6.9,6.7-10.9,9.4c-4,2.7-8.2,5.1-12.5,7.2c-4.4,2.1-8.8,3.9-13.3,5.5c-4.5,1.6-9.2,3-13.8,4.1L58.7,898z"/>
		</g>
		<g>
			<path class="st16" d="M470.1,778.5c0,0-16.6-13.7-7.8-17.8c11.4,4.3,16.3,16.8,16.8,17.8S470.1,778.5,470.1,778.5z"/>
			<path class="st16" d="M478.1,776.3c0,0-3.3-3.5-0.2-17.1c6.6-8.2,1,19.7,1,19.7"/>
			<path class="st16" d="M478.9,779.1c0,0-1.7-24.1,25-28.1C505.2,764.4,478.9,779.1,478.9,779.1z"/>
		</g>
		<g>
			<path class="st16" d="M886.8,783c0,0,20.1-16.6,9.4-21.6c-13.8,5.3-19.8,20.3-20.3,21.6S886.8,783,886.8,783z"/>
			<path class="st16" d="M877.4,779.4c0,0,4-5.2-2.2-23.5c-10.2-10.3,1.5,27.2,1.5,27.2"/>
			<path class="st16" d="M876.2,783.5c0,0,4-23.8-22.2-30.3C851.4,766.3,876.2,783.5,876.2,783.5z"/>
		</g>
		<g>
			<path class="st15" d="M745.3,671c0,0,13.1-16.3,3.9-18.5c-10,6.4-12.2,19.2-12.4,20.2S745.3,671,745.3,671z"/>
			<path class="st15" d="M736.1,669.8c0,0,1.2-5.1-9.2-16.5c-10.8-4.2,9.8,19.5,9.8,19.5"/>
			<path class="st15" d="M728.4,674.4c0,0,3.6-19-17.4-24.6C708.8,660.3,728.4,674.4,728.4,674.4z"/>
		</g>
		<g>
			<path class="st15" d="M1073,626.3c0,0-13.1-16.3-3.9-18.5c10,6.4,12.2,19.2,12.4,20.2S1073,626.3,1073,626.3z"/>
			<path class="st15" d="M1082.2,625.1c0,0-1.2-5.1,9.2-16.5c10.8-4.2-9.8,19.5-9.8,19.5"/>
			<path class="st15" d="M1222.2,631.7c0,0-2.3-12.2,11.1-15.8C1234.8,622.6,1222.2,631.7,1222.2,631.7z"/>
			<path class="st15" d="M1222.1,631.7c0,0,3-15.7-14.3-20.3C1205.9,620.1,1222.1,631.7,1222.1,631.7z"/>
		</g>
	</g>
</g>
</svg>
