<svg id="Layer_1" data-name="Layer 1" xmlns="http://www.w3.org/2000/svg" viewBox="0 0 1280 720"><defs><style>.cls-1{fill:#0267ff;}</style></defs><g id="Blue"><path class="cls-1" d="M773.83,155.64c-75.29,0-136.31,91.49-136.31,204.35s61,204.35,136.31,204.35S910.13,472.85,910.13,360,849.11,155.64,773.83,155.64Zm0,345.41c-41.2,0-74.6-63.16-74.6-141.06s33.4-141.06,74.6-141.06S848.42,282.09,848.42,360,815,501.05,773.83,501.05Z"/><path class="cls-1" d="M444.91,248.63s-21.11,42.22-52.09,17.9c-35.33-30.75,15.15-74.8,23.41-80.31s90.4-68.38,172.09,7.8-20.88,207.43-26.39,214.31-54.84,73.43-74.72,91.78H589.7s26.15,3.9,26.15,32.59-22.71,31.66-25.24,31.66H391.45s-21.11-5.28-21.57-34c0,0-1.38-15.14,25-34.42,0,0,79.62-73.88,109.22-117.25s88.11-119.09,13.77-154.19C517.88,224.54,477.57,211.61,444.91,248.63Z"/></g></svg>