<svg id="Layer_1" data-name="Layer 1" xmlns="http://www.w3.org/2000/svg" viewBox="0 0 1280 720"><defs><style>.cls-1{fill:#92ff9f;isolation:isolate;}</style></defs><g id="Yellow"><path class="cls-1" d="M773.82,218.93c-41.19,0-74.59,63.16-74.59,141.06s33.4,141.06,74.59,141.06,74.6-63.16,74.6-141.06S815,218.93,773.82,218.93Zm0,273.48c-35.74,0-65.94-60.64-65.94-132.41s30.2-132.41,65.94-132.41,66,60.64,66,132.41S809.56,492.41,773.81,492.41Z"/><path class="cls-1" d="M877.39,210.7C850,169.62,813.21,147,773.81,147s-76.18,22.62-103.58,63.7c-26.68,40-41.38,93-41.38,149.3s14.7,109.29,41.38,149.3c27.4,41.08,64.19,63.7,103.58,63.7S850,550.38,877.39,509.3c26.69-40,41.38-93,41.38-149.3S904.08,250.71,877.39,210.7ZM773.82,564.34c-75.28,0-136.3-91.49-136.3-204.35s61-204.35,136.3-204.35S910.13,247.13,910.13,360,849.11,564.34,773.82,564.34Z"/><path class="cls-1" d="M591,491.59l-.64-.1H507.15c18.37-21.08,43-53.43,55-69.3,3.12-4.09,5.57-7.33,6.48-8.46,4.67-5.84,113.45-144,25.53-226C565.93,161.36,534.56,148,500.93,148c-20.47,0-52.41,5.24-88.26,30.19l-1.24.86c-7.41,4.94-37.74,31.07-39.58,59.62-.83,13.06,4.46,24.94,15.3,34.38l.16.14.17.14c7.94,6.23,16.19,9.39,24.51,9.39,22.75,0,37-23.58,40-29.11C468.9,234.94,487.8,231,500.75,231a56.8,56.8,0,0,1,14,1.65c16.24,7.8,25.8,17.77,29.2,30.44,8.27,30.8-20.5,72.41-41.51,102.79-1.91,2.77-3.76,5.44-5.51,8-27.71,40.6-101.78,110-107.61,115.45C362,509.5,361.1,527,361.24,530.68c.62,34.79,27,41.78,28.1,42.06l1,.26H590.6c11,0,33.87-9.85,33.87-40.29C624.47,504.14,602.55,493.32,591,491.59Zm-.35,72.77H391.45s-21.11-5.28-21.57-34c0,0-1.38-15.14,25-34.42,0,0,79.62-73.88,109.22-117.25s88.11-119.09,13.77-154.19c0,0-40.31-12.93-73,24.09,0,0-21.11,42.22-52.09,17.9-35.33-30.75,15.15-74.8,23.41-80.31s90.4-68.38,172.09,7.8-20.88,207.43-26.39,214.31-54.84,73.43-74.72,91.78H589.7s26.15,3.9,26.15,32.59S593.14,564.36,590.61,564.36Z"/></g></svg>